<svg width="683" height="442" viewBox="0 0 683 442" fill="none" xmlns="http://www.w3.org/2000/svg">
<g clip-path="url(#clip0_124_328)" filter="url(#filter0_dd_124_328)">
<path d="M620.079 230.237C620.079 230.237 620.032 234.916 619.958 242.589C619.845 254.257 620.145 272.728 619.958 292.499C633.058 324.089 615.036 349.147 615.335 377.602C615.391 379.062 615.494 380.54 615.663 382.019C616.477 389.224 624.43 394.239 630.119 397.598C633.086 399.348 636.304 400.658 637.24 402.277C637.299 402.4 637.324 402.536 637.313 402.671C637.301 402.807 637.254 402.937 637.176 403.048C637.098 403.16 636.992 403.248 636.868 403.305C636.745 403.362 636.608 403.385 636.473 403.372H607.793C605.473 403.372 605.267 402.211 604.462 401.051C600.617 401.051 599.297 400.957 598.895 398.543C598.782 397.165 598.757 395.78 598.82 394.398C598.885 391.086 599.091 386.622 599.25 383.478C599.204 382.14 599.101 380.11 598.951 377.574C597.678 355.912 593.178 300.135 593.178 300.135L589.098 242.364L587.694 230.593L620.079 230.237Z" fill="#E4A999"/>
<path d="M598.895 398.59C599.297 401.004 600.617 401.098 604.462 401.098C602.716 398.778 600.842 396.556 598.848 394.445C598.776 395.826 598.792 397.211 598.895 398.59Z" fill="#DB877C"/>
<path d="M610.591 397.758C612.294 399.844 612.865 400.031 613.838 401.145C614.43 401.764 614.796 402.565 614.877 403.419H616.486C615.831 400.799 612.416 398.347 611.312 397.365C610.305 396.53 609.496 395.481 608.944 394.295C609.125 395.591 609.7 396.8 610.591 397.758Z" fill="#D26066"/>
<path d="M614.409 397C614.409 397 615.204 398.553 618.713 400.565C621.127 401.94 621.305 402.67 621.52 403.418H622.877C622.611 402.401 621.978 401.517 621.099 400.939C619.284 399.629 616.458 398.684 614.409 397Z" fill="#D26066"/>
<path d="M618.554 396.775C620.41 398.247 622.406 399.532 624.515 400.611C626.966 401.94 626.891 402.67 627.144 403.418H628.501C628.235 402.401 627.602 401.517 626.723 400.939C624.87 399.629 622.634 399.058 618.554 396.775Z" fill="#D26066"/>
<path d="M624.15 397.103C625.375 398.141 627.125 398.731 629.998 400.546C632.337 402.015 632.197 402.67 632.449 403.419H633.806C633.54 402.401 632.907 401.517 632.028 400.939C630.176 399.629 628.145 398.89 624.15 397.103Z" fill="#D26066"/>
<path d="M612.5 401.659L607.943 401.753C607.798 401.755 607.657 401.701 607.55 401.603C607.192 401.305 606.877 400.959 606.615 400.574C606.615 400.125 607.55 399.638 608.608 399.47C609.549 399.372 610.497 399.579 611.312 400.059C611.774 400.456 612.214 400.878 612.631 401.323C612.659 401.35 612.678 401.384 612.686 401.422C612.694 401.459 612.691 401.498 612.677 401.534C612.663 401.57 612.639 401.601 612.607 401.623C612.576 401.646 612.539 401.658 612.5 401.659Z" fill="#E9BBB1"/>
<path d="M619.452 402.305H616.888C616.636 402.305 616.991 401.519 617.88 401.425C619.097 401.304 619.696 402.118 619.452 402.305Z" fill="#E9BBB1"/>
<path d="M625.722 402.305H623.148C622.896 402.305 623.251 401.519 624.14 401.425C625.366 401.304 625.956 402.118 625.722 402.305Z" fill="#E9BBB1"/>
<path d="M631.139 402.305H628.575C628.323 402.305 628.678 401.519 629.567 401.425C630.784 401.304 631.383 402.118 631.139 402.305Z" fill="#E9BBB1"/>
<path d="M636.248 402.211H633.684C633.432 402.211 633.787 401.425 634.676 401.332C635.911 401.201 636.52 402.024 636.248 402.211Z" fill="#E9BBB1"/>
<path d="M587.694 230.621L589.098 242.392L619.976 242.589C620.051 234.907 620.098 230.237 620.098 230.237L587.694 230.621Z" fill="#DB877C"/>
<path d="M612.004 290.244C612.004 290.244 611.068 300.762 606.923 300.687C603.246 300.621 599.934 295.859 600.57 290.871C601.206 285.884 612.014 284.883 612.004 290.244Z" fill="#DB877C"/>
<path d="M620.968 175.695C620.405 178.097 619.566 180.427 618.47 182.638C618.47 182.638 597.023 194.54 578.506 194.942C559.988 195.345 548.17 181.618 548.17 181.618C547.343 179.713 546.67 177.745 546.158 175.732C545.292 172.495 544.945 169.141 545.129 165.795C545.361 162.747 546.068 159.754 547.225 156.925C551.509 145.771 553.698 133.923 553.681 121.976C553.681 115.089 553.738 109.222 553.738 107.444C553.719 105.104 554.349 102.805 555.558 100.801C556.767 98.7975 558.508 97.1682 560.587 96.0942C564.143 94.0918 573.397 90.3676 573.397 90.3676L573.809 85.895L574.361 79.9813L593.458 79.4292L593.936 85.6517L594.319 90.6671L607.765 96.2158C611.396 97.713 613.221 100.82 613.324 106.509C613.324 107.959 613.436 114.303 613.623 122.537C613.92 133.813 616.175 144.951 620.285 155.456C620.86 156.903 621.286 158.404 621.558 159.938C622.451 165.174 622.25 170.539 620.968 175.695Z" fill="#E4A999"/>
<path d="M620.968 175.695C620.404 178.098 619.566 180.427 618.47 182.638C618.47 182.638 597.023 194.54 578.506 194.943C559.988 195.345 548.17 181.618 548.17 181.618C547.343 179.713 546.67 177.745 546.158 175.732L620.968 175.695Z" fill="#DB877C"/>
<path d="M593.58 81.0479C593.696 82.5222 593.486 84.0039 592.965 85.3881C592.444 86.7722 591.626 88.025 590.567 89.0576C590.155 89.4599 589.846 89.75 589.687 89.8716C588.686 90.6763 584.588 93.4741 580.574 91.6682C579.678 91.2522 578.833 90.7341 578.057 90.1243C576.725 89.0845 575.678 87.7254 575.013 86.1731C574.347 84.6208 574.084 82.9255 574.248 81.2444L574.36 79.9905L593.458 79.4385L593.58 81.0479Z" fill="#D26066"/>
<path d="M570.983 123.248C571.114 121.667 565.368 121.115 564.919 123.248C564.47 125.382 570.749 125.831 570.983 123.248Z" fill="#D26066"/>
<path d="M604.818 123.248C604.958 121.667 599.204 121.115 598.754 123.248C598.305 125.382 604.593 125.831 604.818 123.248Z" fill="#D26066"/>
<path d="M582.81 162.707C582.81 162.707 579.732 167.91 583.044 172.064C585.645 166.572 582.81 162.707 582.81 162.707Z" fill="#D26066"/>
<path d="M567.726 96.0193C572.66 97.5951 577.753 98.6151 582.913 99.0603C591.334 99.7621 599.98 96.2532 599.98 96.2532C599.98 96.2532 581.172 98.0217 567.726 96.0193Z" fill="#DB877C"/>
<path d="M562.786 148.363C569.792 145.723 577.254 144.506 584.736 144.782C592.218 145.059 599.569 146.823 606.362 149.972C595.573 141.579 577.636 138.66 562.786 148.363Z" fill="#DB877C"/>
<path d="M546.308 230.237C546.308 230.237 546.308 234.916 546.429 242.589C546.542 254.257 546.242 272.728 546.429 292.499C533.33 324.089 551.351 349.147 551.052 377.602C550.996 379.062 550.893 380.54 550.724 382.019C549.91 389.224 541.957 394.239 536.268 397.598C533.302 399.348 530.083 400.658 529.147 402.277C529.088 402.4 529.063 402.536 529.074 402.671C529.086 402.807 529.133 402.937 529.211 403.048C529.289 403.16 529.395 403.248 529.519 403.305C529.642 403.362 529.779 403.385 529.914 403.372H558.584C560.905 403.372 561.111 402.211 561.915 401.051C565.761 401.051 567.081 400.957 567.483 398.543C567.595 397.165 567.62 395.78 567.558 394.398C567.492 391.086 567.286 386.622 567.127 383.478C567.174 382.14 567.277 380.11 567.427 377.574C568.699 355.912 573.2 300.135 573.2 300.135L577.299 242.411L578.702 230.64L546.308 230.237Z" fill="#E4A999"/>
<path d="M567.492 398.59C567.09 401.004 565.771 401.098 561.925 401.098C563.671 398.778 565.545 396.556 567.539 394.445C567.611 395.826 567.595 397.211 567.492 398.59Z" fill="#DB877C"/>
<path d="M555.777 397.758C554.074 399.844 553.504 400.031 552.53 401.145C551.938 401.764 551.572 402.565 551.492 403.419H549.882C550.537 400.799 553.953 398.347 555.057 397.365C556.064 396.53 556.872 395.481 557.424 394.295C557.243 395.591 556.668 396.8 555.777 397.758Z" fill="#D26066"/>
<path d="M551.978 397C551.978 397 551.183 398.553 547.674 400.565C545.26 401.94 545.082 402.67 544.867 403.418H543.51C543.776 402.401 544.409 401.517 545.288 400.939C547.103 399.629 549.929 398.684 551.978 397Z" fill="#D26066"/>
<path d="M547.833 396.775C545.978 398.247 543.981 399.532 541.873 400.611C539.421 401.94 539.496 402.67 539.243 403.418H537.886C538.152 402.401 538.786 401.517 539.664 400.939C541.517 399.629 543.753 399.058 547.833 396.775Z" fill="#D26066"/>
<path d="M542.238 397.103C541.012 398.141 539.262 398.731 536.389 400.546C534.05 402.015 534.19 402.67 533.938 403.419H532.581C532.847 402.401 533.48 401.517 534.359 400.939C536.212 399.629 538.242 398.89 542.238 397.103Z" fill="#D26066"/>
<path d="M553.906 401.659L558.463 401.753C558.608 401.755 558.749 401.701 558.856 401.603C559.214 401.305 559.529 400.959 559.791 400.574C559.791 400.125 558.856 399.638 557.798 399.47C556.857 399.372 555.909 399.579 555.094 400.059C554.632 400.456 554.192 400.878 553.775 401.323C553.747 401.35 553.728 401.384 553.72 401.422C553.712 401.459 553.715 401.498 553.729 401.534C553.743 401.57 553.767 401.601 553.799 401.623C553.83 401.646 553.867 401.658 553.906 401.659Z" fill="#E9BBB1"/>
<path d="M546.935 402.305H549.499C549.751 402.305 549.396 401.519 548.507 401.425C547.291 401.304 546.692 402.118 546.935 402.305Z" fill="#E9BBB1"/>
<path d="M540.666 402.305H543.229C543.482 402.305 543.127 401.519 542.238 401.425C541.021 401.304 540.413 402.118 540.666 402.305Z" fill="#E9BBB1"/>
<path d="M535.248 402.305H537.812C538.064 402.305 537.709 401.519 536.82 401.425C535.603 401.304 535.004 402.118 535.248 402.305Z" fill="#E9BBB1"/>
<path d="M530.12 402.211H532.684C532.937 402.211 532.581 401.425 531.692 401.332C530.513 401.201 529.868 402.024 530.12 402.211Z" fill="#E9BBB1"/>
<path d="M578.693 230.621L577.299 242.392L546.42 242.589C546.345 234.907 546.299 230.237 546.299 230.237L578.693 230.621Z" fill="#DB877C"/>
<path d="M554.383 290.244C554.383 290.244 555.319 300.762 559.464 300.687C563.142 300.621 566.454 295.859 565.818 290.871C565.181 285.884 554.374 284.883 554.383 290.244Z" fill="#DB877C"/>
<path d="M618.47 182.638L548.17 181.618C548.17 181.618 538.56 212.889 542.911 235.777H579.769C580.237 235.777 582.773 222.761 582.773 222.761C582.773 222.761 585.308 235.777 585.776 235.777H622.035C626.77 210.587 618.47 182.638 618.47 182.638Z" fill="#213555"/>
<path d="M601.627 100.295C603.115 96.983 608.327 96.4777 611.349 98.4801C614.371 100.483 619.396 104.88 624.767 109.147C635.911 117.99 651.669 133.831 654.71 141.083C657.751 148.335 640.674 183.19 634.349 188.374C630.636 186.756 627.133 184.695 623.916 182.235L633.273 148.035C633.273 148.035 609.403 127.553 604.434 120.956C598.193 112.815 598.82 106.387 601.627 100.295Z" fill="#E4A999"/>
<path d="M625.553 180.064C625.553 179.924 617.431 179.503 615.401 179.999C613.37 180.495 609.861 186.278 608.916 186.979C607.971 187.681 605.969 188.402 605.913 189.197C605.857 189.992 607.634 190.535 609.422 189.974C611.209 189.412 625.656 185.005 625.553 180.064Z" fill="#D26066"/>
<path d="M613.239 184.809C614.942 183.34 632.075 177.201 633.441 178.923C635.743 181.805 635.678 186.184 634.283 188.327C633.123 190.123 628.229 196.636 624.618 199.153C623.803 200.037 622.893 200.828 621.904 201.511C618.62 203.897 616.496 205.254 615.691 204.056C615.223 203.364 619.836 199.471 622.175 196.748C621.19 196.963 620.268 197.401 619.481 198.03L619.434 198.077C617.497 199.789 612.191 204.019 611.349 202.25C610.947 201.417 614.156 198.33 616.617 195.878C618.32 194.222 619.088 192.697 618.891 192.369C616.524 194.082 611.125 197.768 610.376 198.152C609.244 198.723 608.224 198.292 608.196 197.572C608.196 197.085 613.426 192.07 616.402 189.422C615.789 189.284 615.153 189.279 614.538 189.409C613.923 189.538 613.343 189.797 612.837 190.17C610.329 191.892 608.027 194.559 606.998 195.204C605.314 196.252 605.052 195.719 604.762 194.933C604.743 193.754 610.395 187.316 613.239 184.809Z" fill="#E4A999"/>
<path d="M542.21 180.064C542.21 179.924 550.332 179.503 552.362 179.999C554.393 180.495 557.902 186.278 558.847 186.979C559.792 187.681 561.794 188.402 561.85 189.197C561.906 189.992 560.128 190.535 558.341 189.974C556.554 189.412 542.097 185.005 542.21 180.064Z" fill="#D26066"/>
<path d="M554.524 184.809C552.821 183.34 535.688 177.201 534.322 178.923C532.02 181.805 532.085 186.184 533.479 188.327C534.64 190.123 539.533 196.636 543.145 199.153C543.958 200.035 544.865 200.826 545.85 201.511C549.143 203.897 551.267 205.254 552.072 204.056C552.53 203.364 547.927 199.471 545.587 196.748C546.572 196.963 547.495 197.401 548.282 198.03V198.077C550.21 199.789 555.525 204.019 556.367 202.25C556.76 201.417 553.607 198.33 551.099 195.878C549.396 194.222 548.629 192.697 548.825 192.369C551.192 194.082 556.591 197.768 557.34 198.152C558.472 198.723 559.492 198.292 559.52 197.572C559.52 197.085 554.29 192.07 551.314 189.422C551.926 189.283 552.56 189.279 553.174 189.408C553.787 189.537 554.366 189.797 554.87 190.17C557.387 191.892 559.689 194.559 560.718 195.204C562.402 196.252 562.664 195.719 562.954 194.933C563.02 193.754 557.368 187.316 554.524 184.809Z" fill="#E4A999"/>
<path d="M565.069 100.932C563.581 97.6192 561.055 96.3466 556.9 98.6766C553.803 100.408 548.395 104.834 543.024 109.1C531.879 117.943 516.515 133.504 513.231 140.643C508.664 150.571 527.117 183.143 533.479 188.364C537.192 186.746 540.695 184.685 543.913 182.226L534.481 148.419C534.481 148.419 558.36 127.59 563.375 120.993C569.57 112.815 567.829 107.079 565.069 100.932Z" fill="#E4A999"/>
<path d="M601.524 66.7316C601.87 66.1422 602.787 54.7546 595.732 48.9532C587.694 42.4032 576.7 43.7881 571.151 48.8222C565.602 53.8563 564.227 61.5572 567.249 69.4078C567.249 69.4171 592.186 82.6013 601.524 66.7316Z" fill="#142033"/>
<path d="M571.684 68.7808C571.684 68.7808 570.824 65.2906 569.167 64.673C567.511 64.0554 565.425 66.9655 565.874 69.2299C566.323 71.4943 568.55 74.2453 570.169 74.7038C571.469 75.0781 572.536 73.5903 572.742 72.6733C572.948 71.7563 571.684 68.7808 571.684 68.7808Z" fill="#E4A999"/>
<path d="M568.363 70.8955C567.815 70.1077 567.492 69.186 567.427 68.2287C567.567 67.1433 568.363 65.8707 569.036 65.9175C569.71 65.9643 571.179 69.258 571.245 69.8194C571.31 70.3808 570 70.3996 570.187 71.092C570.374 71.7844 571.301 72.4207 571.591 72.8043C571.881 73.188 571.928 73.5529 571.132 73.6558C570.337 73.7588 569.102 72.168 569.102 72.168C569.102 72.168 570.552 73.2815 570.973 73.0008C571.394 72.7201 570.038 71.7002 569.495 70.9423C568.952 70.1843 570.571 70.0066 570.534 69.5387C570.534 69.3983 569.598 67.1246 568.999 67.1714C568.4 67.2181 567.708 68.4814 568.363 70.8955Z" fill="#D26066"/>
<path d="M569.504 68.9119C569.287 69.139 569.125 69.4138 569.033 69.7143C568.94 70.0148 568.919 70.3328 568.971 70.6429C569.046 71.1788 569.316 71.6683 569.729 72.0184C569.388 71.8544 569.099 71.6003 568.893 71.2835C568.687 70.9668 568.571 70.5996 568.559 70.2219C568.543 69.9282 568.627 69.6378 568.799 69.3993C568.972 69.1608 569.22 68.9887 569.504 68.9119Z" fill="#D26066"/>
<path d="M571.048 64.804C570.606 65.326 570.37 65.9915 570.384 66.6754C570.509 68.3209 570.728 69.9579 571.039 71.5785C571.521 74.8547 572.411 78.0578 573.687 81.1134C574.22 82.2737 578.899 86.344 580.237 87.1675C581.341 87.8225 585.14 87.757 586.459 87.0458C587.395 86.5592 592.701 82.9474 593.561 81.5719C594.497 80.0467 597.538 69.0147 597.538 69.0147C595.349 69.2861 596.181 66.4977 595.489 65.3561C594.928 64.4204 593.468 64.0461 592.607 63.4847C591.542 62.7794 590.56 61.9571 589.678 61.0331C588.434 59.7325 587.348 58.0763 587.47 56.2891L575.193 62.156C573.893 62.8671 572.031 63.5876 571.048 64.804Z" fill="#E4A999"/>
<path d="M585.439 70.437C585.439 70.437 585.907 71.2604 589.182 71.2791C592.457 71.2978 593.487 69.8101 593.487 69.8101L586.141 70.0627L585.439 70.437Z" fill="#DB877C"/>
<path d="M586.656 67.7983C586.125 68.5256 585.846 69.4059 585.86 70.306C587.329 70.1937 589.949 67.6766 589.949 67.6766C588.85 67.5906 587.745 67.6314 586.656 67.7983Z" fill="#D26066"/>
<path d="M586.656 69.3142C586.572 69.3142 585.467 70.4371 585.608 70.671C585.748 70.9049 586.272 70.6055 586.272 70.6055L586.656 69.3142Z" fill="#DB877C"/>
<path d="M586.132 70.4275C586.132 70.3058 586.581 68.135 587.704 67.8262C588.928 67.485 590.222 67.485 591.447 67.8262C592.439 68.1818 593.496 69.8099 593.496 69.8099C592.137 70.2374 590.727 70.4798 589.304 70.5304C586.375 70.6988 586.132 70.4275 586.132 70.4275Z" fill="white"/>
<path d="M591.026 68.9866C590.986 69.376 590.793 69.7336 590.489 69.981C590.186 70.2283 589.796 70.3452 589.407 70.3059C589.214 70.2964 589.025 70.2488 588.851 70.1658C588.677 70.0829 588.521 69.9663 588.393 69.8227C588.264 69.6791 588.165 69.5115 588.101 69.3294C588.038 69.1474 588.011 68.9545 588.022 68.762C588.061 68.3711 588.252 68.0109 588.553 67.7584C588.854 67.5059 589.242 67.3809 589.633 67.4102C590.025 67.4395 590.39 67.6207 590.65 67.9152C590.91 68.2097 591.045 68.5942 591.026 68.9866Z" fill="#312342"/>
<path d="M591.718 69.6135C591.83 69.1644 590.211 68.8556 590.099 69.3235C590.034 69.6042 591.643 69.9317 591.718 69.6135Z" fill="white"/>
<path d="M586.029 68.079C587.515 67.9174 589.015 67.9174 590.501 68.079C591.614 68.4033 592.628 69.0017 593.449 69.8194C593.449 69.8194 592.607 67.8076 590.913 67.4333C590.098 67.2033 589.244 67.142 588.404 67.253C587.565 67.364 586.756 67.645 586.029 68.079Z" fill="#312342"/>
<path d="M587.638 66.8813C588.753 66.7632 589.878 66.8105 590.979 67.0216C591.688 67.2596 592.355 67.6103 592.953 68.0603C592.589 67.5131 592.106 67.0556 591.54 66.7222C590.254 66.3693 588.891 66.4249 587.638 66.8813Z" fill="#DB877C"/>
<path d="M580.199 64.2146C580.885 64.9409 581.45 65.7716 581.874 66.6755C582.061 67.6344 582.09 68.6175 581.959 69.5856C581.893 69.5856 579.488 65.2252 579.488 65.2252L580.199 64.2146Z" fill="#DB877C"/>
<path d="M576.279 65.4215C577.663 65.4215 580.789 65.7864 580.761 65.7022C580.664 65.1767 580.474 64.6727 580.199 64.2144C578.328 64.2144 576.999 63.4846 575.39 63.8121C574.849 63.984 574.347 64.261 573.914 64.6271C573.48 64.9932 573.123 65.4412 572.863 65.9455C573.982 65.6583 575.126 65.4828 576.279 65.4215Z" fill="#312342"/>
<path d="M586.019 64.2146C585.465 64.9894 584.977 65.8094 584.56 66.6662C584.261 67.5917 584.215 68.5805 584.429 69.5294L586.422 64.8509L586.019 64.2146Z" fill="#DB877C"/>
<path d="M589.931 65.4215C588.555 65.4215 585.43 65.7864 585.458 65.7022C585.55 65.1755 585.741 64.6708 586.02 64.2144C587.891 64.2144 589.22 63.4846 590.82 63.8121C591.361 63.984 591.862 64.261 592.296 64.6271C592.729 64.9932 593.086 65.4412 593.346 65.9455C592.228 65.6583 591.084 65.4828 589.931 65.4215Z" fill="#312342"/>
<path d="M580.508 73.4687C580.508 73.4687 582.314 76.8747 583.315 76.7344C584.316 76.594 585.907 73.4407 585.907 73.4407C585.907 73.4407 584.26 74.8817 582.932 74.7226C582.018 74.551 581.176 74.115 580.508 73.4687Z" fill="#DB877C"/>
<path d="M583.119 74.1799C584.075 74.0222 585.015 73.7747 585.926 73.4407C585.193 74.272 584.206 74.8378 583.119 75.0501C581.986 75.1062 580.48 73.4594 580.48 73.4687C581.328 73.8105 582.214 74.0493 583.119 74.1799Z" fill="#D26066"/>
<path d="M582.454 72.4207C581.64 72.5984 581.828 73.8149 582.997 73.8897C584.167 73.9646 584.476 73.1037 584.148 72.6078C583.897 72.454 583.615 72.3575 583.322 72.3251C583.029 72.2928 582.733 72.3254 582.454 72.4207Z" fill="#E9BBB1"/>
<path d="M580.751 82.3674C581.069 82.0069 581.461 81.7203 581.901 81.5278C582.34 81.3353 582.817 81.2416 583.297 81.2532C583.777 81.2648 584.248 81.3814 584.678 81.595C585.108 81.8085 585.486 82.1137 585.786 82.489C584.125 82.8784 582.392 82.8366 580.751 82.3674Z" fill="#DB877C"/>
<path d="M580.705 70.5867C580.705 70.5867 580.209 71.4288 576.962 71.354C573.715 71.2791 572.723 69.6697 572.723 69.6697L580.012 70.175L580.705 70.5867Z" fill="#DB877C"/>
<path d="M579.554 67.7982C580.065 68.5804 580.317 69.5035 580.274 70.4369C578.814 70.2685 576.297 67.5549 576.297 67.5549C577.389 67.5025 578.482 67.5842 579.554 67.7982Z" fill="#D26066"/>
<path d="M579.572 69.2581C579.656 69.2581 580.761 70.3715 580.62 70.6055C580.48 70.8394 579.956 70.5493 579.956 70.5493L579.572 69.2581Z" fill="#DB877C"/>
<path d="M580.012 70.5586C580.012 70.4276 579.629 68.1445 578.534 67.7515C577.345 67.3604 576.069 67.3182 574.856 67.6299C573.855 67.9667 572.76 69.6323 572.76 69.6323C574.091 70.1397 575.486 70.4548 576.906 70.568C579.76 70.8393 580.012 70.5586 580.012 70.5586Z" fill="white"/>
<path d="M578.234 68.809C578.244 69.0056 578.216 69.2024 578.15 69.3879C578.083 69.5734 577.981 69.744 577.849 69.8901C577.717 70.0361 577.558 70.1546 577.38 70.2389C577.202 70.3231 577.009 70.3714 576.812 70.381C576.414 70.3938 576.026 70.2502 575.732 69.9809C575.439 69.7116 575.262 69.3379 575.24 68.94C575.222 68.5444 575.362 68.1578 575.629 67.8649C575.895 67.5721 576.267 67.3967 576.662 67.3773C577.06 67.362 577.447 67.5035 577.741 67.7713C578.035 68.0392 578.213 68.4118 578.234 68.809Z" fill="#312342"/>
<path d="M580.181 68.1072C578.71 67.8906 577.219 67.8372 575.736 67.9482C574.612 68.2559 573.587 68.849 572.76 69.6699C572.76 69.6699 573.696 67.5926 575.352 67.2651C576.171 67.0521 577.025 67.0171 577.858 67.1624C578.691 67.3077 579.483 67.6299 580.181 68.1072Z" fill="#312342"/>
<path d="M578.618 66.8065C577.518 66.6335 576.397 66.6335 575.296 66.8065C574.579 67.0318 573.905 67.3766 573.303 67.8264C573.674 67.2727 574.167 66.8116 574.744 66.479C576.036 66.1529 577.399 66.2682 578.618 66.8065Z" fill="#DB877C"/>
<path d="M578.871 69.4172C578.918 68.9399 577.28 68.8183 577.233 69.3236C577.205 69.6137 578.843 69.7634 578.871 69.4172Z" fill="white"/>
<path d="M596.584 68.8276C596.584 68.8276 597.445 65.3468 599.101 64.7198C600.757 64.0929 602.844 67.0217 602.394 69.2861C601.945 71.5505 599.718 74.3015 598.1 74.76C596.799 75.1343 595.732 73.6465 595.526 72.7295C595.32 71.8125 596.584 68.8276 596.584 68.8276Z" fill="#E4A999"/>
<path d="M600.429 70.9516C600.977 70.1601 601.3 69.2355 601.365 68.2755C601.225 67.1994 600.429 65.9269 599.756 65.9737C599.082 66.0205 597.613 69.3141 597.547 69.8756C597.482 70.437 598.792 70.4557 598.605 71.1481C598.418 71.8406 597.501 72.4768 597.201 72.8605C596.902 73.2441 596.864 73.5997 597.66 73.712C598.455 73.8243 599.69 72.2242 599.69 72.2242C599.69 72.2242 598.24 73.3283 597.819 73.0476C597.398 72.7669 598.754 71.747 599.297 70.9984C599.84 70.2499 598.221 70.0627 598.259 69.5949C598.259 69.4545 599.194 67.1807 599.793 67.2182C600.392 67.2556 601.084 68.5562 600.429 70.9516Z" fill="#D26066"/>
<path d="M599.288 68.9585C599.505 69.1879 599.666 69.4643 599.758 69.7662C599.851 70.0681 599.873 70.3873 599.821 70.6989C599.747 71.2329 599.481 71.7216 599.073 72.0744C599.413 71.9084 599.701 71.6522 599.906 71.3338C600.11 71.0153 600.223 70.6469 600.233 70.2685C600.248 69.9752 600.162 69.6856 599.991 69.4475C599.819 69.2093 599.571 69.0369 599.288 68.9585Z" fill="#D26066"/>
<path d="M588.883 76.8186C588.883 76.8186 587.704 80.1872 583.044 80.0749C582.018 80.104 581.003 79.8593 580.104 79.3659C579.204 78.8725 578.452 78.1482 577.926 77.2677L579.479 77.2022L587.591 76.9028L588.883 76.8186Z" fill="#312342"/>
<path d="M587.592 76.9026C587.47 77.2607 587.3 77.6007 587.086 77.9132C586.749 78.3062 581.697 78.6992 580.733 78.25C580.254 77.9923 579.829 77.6462 579.479 77.2301L587.592 76.9026Z" fill="white"/>
<path d="M577.926 77.2676C579.726 77.6056 581.562 77.7188 583.39 77.6044C585.25 77.6192 587.102 77.3543 588.883 76.8184C588.883 76.8184 582.108 76.3599 577.926 77.2676Z" fill="#D26066"/>
<path d="M406.12 104.31C406.12 104.31 378.133 112.731 371.022 131.052C363.91 149.374 364.612 153.631 361.59 160.583C358.567 167.536 355.91 182.301 357.052 199.406C358.399 219.524 357.323 226.766 365.866 235.3C388.81 174.282 406.12 104.31 406.12 104.31Z" fill="#E4A999"/>
<path d="M429.279 104.31C429.279 104.31 457.257 112.731 464.377 131.052C471.498 149.374 470.778 153.65 473.8 160.583C476.822 167.517 479.489 182.301 478.338 199.406C477 219.524 478.076 226.766 469.533 235.3C446.589 174.282 429.279 104.31 429.279 104.31Z" fill="#E4A999"/>
<path d="M366.764 241.035C366.68 242.617 366.942 246.893 367.363 252.264C368.467 266.122 370.657 287.203 370.657 287.203C368.428 296.764 366.927 306.479 366.165 316.266C364.163 342.766 377.347 360.778 375.185 376.152C374.995 378.719 374.22 381.209 372.921 383.432C372.06 384.888 370.981 386.204 369.721 387.334C367.26 389.532 365.127 390.449 359.662 393.706C354.048 397.074 347.938 399.825 347.956 402.305C347.956 402.305 348.069 403.418 349.519 403.418H379.565C384.122 403.418 385.329 400.218 388.725 398.515C392.122 396.812 397.568 399.292 400.824 395.802C402.022 394.529 402.143 391.703 401.844 388.531C401.844 388.213 401.778 387.886 401.741 387.596C401.516 385.724 401.17 383.731 400.861 381.925C400.521 380.029 400.305 378.113 400.216 376.189C400.815 356.736 404.894 312.393 405.708 300.996C406.157 295.456 408.721 266.814 410.041 252.273C410.499 247.146 410.799 243.768 410.799 243.768C410.799 243.768 379.031 234.149 366.764 241.035Z" fill="#E4A999"/>
<path d="M400.814 395.802C397.558 399.292 391.991 396.868 388.716 398.515C385.441 400.162 384.112 403.418 379.555 403.418C379.555 403.418 382.428 403.858 385.609 399.881C392.852 390.833 397.914 392.807 401.731 387.558C401.731 387.886 401.806 388.213 401.834 388.494C402.134 391.703 402.012 394.529 400.814 395.802Z" fill="#DB877C"/>
<path d="M383.298 390.955C382.347 392.86 380.997 394.539 379.34 395.877C376.533 398.038 373.679 399.423 372.341 400.714C371.651 401.447 371.26 402.412 371.246 403.418H368.879C369.024 402.432 369.424 401.499 370.039 400.714C371.368 399.058 373.829 398.132 376.898 396.204C379.192 394.66 381.335 392.903 383.298 390.955Z" fill="#D26066"/>
<path d="M375.092 400.77C376.124 400.715 377.159 400.794 378.17 401.004C378.747 401.128 379.349 401.049 379.873 400.78C380.472 400.48 381.146 399.994 381.24 399.329C381.24 397.673 378.367 397.355 374.877 400.19C374.824 400.234 374.787 400.292 374.769 400.358C374.751 400.423 374.754 400.493 374.778 400.557C374.802 400.621 374.845 400.675 374.901 400.714C374.957 400.752 375.024 400.772 375.092 400.77Z" fill="#E9BBB1"/>
<path d="M372.463 396.195C369.983 398.459 366.193 400.462 364.977 401.584C364.383 402.044 363.987 402.714 363.873 403.456H362.469C362.552 402.89 362.751 402.348 363.056 401.865C363.361 401.381 363.763 400.967 364.238 400.649C366.09 399.46 369.094 397.982 372.463 396.195Z" fill="#D26066"/>
<path d="M366.334 396.195C363.854 398.459 360.064 400.462 358.848 401.584C358.254 402.044 357.858 402.714 357.744 403.456H356.34C356.423 402.89 356.622 402.348 356.927 401.865C357.232 401.381 357.634 400.967 358.109 400.649C359.962 399.46 362.965 397.982 366.334 396.195Z" fill="#D26066"/>
<path d="M361.028 396.195C358.548 398.459 354.759 400.462 353.542 401.584C352.948 402.044 352.553 402.714 352.438 403.456H351.025C351.108 402.889 351.309 402.347 351.616 401.863C351.922 401.38 352.327 400.966 352.803 400.649C354.647 399.46 357.65 397.982 361.028 396.195Z" fill="#D26066"/>
<path d="M365.828 401.987C366.693 401.782 367.593 401.782 368.458 401.987C368.458 401.987 369.59 400.78 369.393 400.387C369 399.769 367.195 399.91 365.828 401.987Z" fill="#E9BBB1"/>
<path d="M359.484 401.987C360.352 401.782 361.255 401.782 362.123 401.987C362.123 401.987 363.255 400.78 363.059 400.387C362.638 399.769 360.822 399.91 359.484 401.987Z" fill="#E9BBB1"/>
<path d="M354.001 401.987C354.752 401.808 355.534 401.808 356.284 401.987C356.284 401.987 357.22 400.948 357.07 400.602C356.724 400.069 355.161 400.19 354.001 401.987Z" fill="#E9BBB1"/>
<path d="M348.808 402.034C349.558 401.855 350.34 401.855 351.091 402.034C351.091 402.034 352.027 400.986 351.877 400.639C351.531 400.106 349.968 400.228 348.808 402.034Z" fill="#E9BBB1"/>
<path d="M410.789 243.73C410.123 246.513 409.867 249.379 410.031 252.236H367.354C366.933 246.893 366.671 242.617 366.755 241.007C379.031 234.149 410.789 243.73 410.789 243.73Z" fill="#DB877C"/>
<path d="M380.454 294.427C377.254 296.149 380.95 305.908 386.021 307.359C391.093 308.809 394.976 297.73 392.028 295.634C390.363 294.427 383.607 292.743 380.454 294.427Z" fill="#DB877C"/>
<path d="M467.821 241.035C467.905 242.617 467.643 246.893 467.212 252.264C466.108 266.122 463.928 287.203 463.928 287.203C466.157 296.764 467.658 306.479 468.42 316.266C470.422 342.766 457.191 360.778 459.399 376.152C459.586 378.72 460.361 381.211 461.664 383.432C462.518 384.89 463.594 386.207 464.854 387.334C467.315 389.532 469.458 390.449 474.913 393.706C480.528 397.074 486.647 399.825 486.628 402.305C486.628 402.305 486.516 403.418 485.066 403.418H455.02C450.454 403.418 449.247 400.218 445.86 398.515C442.472 396.812 437.017 399.292 433.752 395.802C432.554 394.529 432.442 391.703 432.732 388.531C432.732 388.213 432.806 387.886 432.844 387.596C433.059 385.724 433.405 383.731 433.723 381.925C434.055 380.028 434.271 378.113 434.369 376.189C433.77 356.736 429.691 312.393 428.867 300.996C428.427 295.456 425.854 266.814 424.544 252.273C424.086 247.146 423.777 243.768 423.777 243.768C423.777 243.768 455.535 234.149 467.821 241.035Z" fill="#E4A999"/>
<path d="M433.752 395.802C437.017 399.292 442.585 396.868 445.86 398.515C449.135 400.162 450.454 403.418 455.02 403.418C455.02 403.418 452.148 403.858 448.966 399.881C441.724 390.833 436.662 392.807 432.844 387.558C432.844 387.886 432.76 388.213 432.732 388.494C432.442 391.703 432.554 394.529 433.752 395.802Z" fill="#DB877C"/>
<path d="M451.277 390.955C452.225 392.863 453.575 394.542 455.235 395.877C458.043 398.038 460.896 399.423 462.234 400.714C462.932 401.461 463.323 402.443 463.329 403.465H465.687C465.546 402.479 465.149 401.547 464.536 400.761C463.198 399.105 460.747 398.179 457.678 396.251C455.377 394.698 453.233 392.924 451.277 390.955Z" fill="#D26066"/>
<path d="M459.484 400.77C458.449 400.715 457.411 400.794 456.396 401.004C455.819 401.127 455.218 401.048 454.693 400.78C454.37 400.658 454.079 400.463 453.842 400.212C453.606 399.961 453.429 399.659 453.327 399.329C453.373 397.673 456.199 397.355 459.699 400.19C459.751 400.234 459.789 400.292 459.807 400.358C459.824 400.423 459.821 400.493 459.798 400.557C459.774 400.621 459.731 400.675 459.675 400.714C459.618 400.752 459.552 400.772 459.484 400.77Z" fill="#E9BBB1"/>
<path d="M462.104 396.195C464.593 398.459 468.373 400.462 469.589 401.584C470.181 402.048 470.578 402.715 470.703 403.456H472.106C472.023 402.889 471.822 402.347 471.516 401.863C471.21 401.38 470.805 400.966 470.328 400.649C468.485 399.46 465.481 397.982 462.104 396.195Z" fill="#D26066"/>
<path d="M468.232 396.195C470.712 398.459 474.502 400.462 475.718 401.584C476.312 402.044 476.708 402.714 476.822 403.456H478.235C478.152 402.889 477.951 402.347 477.645 401.863C477.339 401.38 476.934 400.966 476.457 400.649C474.614 399.46 471.61 397.982 468.232 396.195Z" fill="#D26066"/>
<path d="M473.547 396.195C476.027 398.459 479.817 400.462 481.033 401.584C481.627 402.044 482.023 402.714 482.137 403.456H483.541C483.458 402.89 483.259 402.348 482.954 401.865C482.649 401.381 482.247 400.967 481.772 400.649C479.92 399.46 476.916 397.982 473.547 396.195Z" fill="#D26066"/>
<path d="M468.757 401.987C467.889 401.782 466.985 401.782 466.118 401.987C466.118 401.987 464.986 400.78 465.182 400.387C465.566 399.769 467.381 399.91 468.757 401.987Z" fill="#E9BBB1"/>
<path d="M475.082 401.987C474.217 401.782 473.317 401.782 472.453 401.987C472.453 401.987 471.32 400.78 471.517 400.387C471.938 399.769 473.744 399.91 475.082 401.987Z" fill="#E9BBB1"/>
<path d="M480.574 401.987C479.824 401.808 479.042 401.808 478.291 401.987C478.291 401.987 477.309 400.948 477.505 400.602C477.842 400.069 479.414 400.19 480.574 401.987Z" fill="#E9BBB1"/>
<path d="M485.768 402.034C485.017 401.855 484.235 401.855 483.485 402.034C483.485 402.034 482.549 400.986 482.699 400.639C483.035 400.106 484.607 400.228 485.768 402.034Z" fill="#E9BBB1"/>
<path d="M423.777 243.73C424.449 246.512 424.707 249.378 424.544 252.236H467.212C467.643 246.893 467.905 242.617 467.821 241.007C455.535 234.149 423.777 243.73 423.777 243.73Z" fill="#DB877C"/>
<path d="M454.113 294.427C457.313 296.149 453.626 305.908 448.498 307.359C443.371 308.809 439.59 297.73 442.557 295.634C444.213 294.427 450.978 292.743 454.113 294.427Z" fill="#DB877C"/>
<path d="M466.333 189.665C452.297 200.894 430.495 202.971 415.87 203.514C401.245 204.056 380.519 199.397 367.784 191.406C371.368 171.962 374.268 164.373 379.452 152.602C380.089 151.161 380.753 149.654 381.464 148.064C377.721 141.963 378.582 133.242 384.542 124.671C389.867 117.045 406.12 104.272 406.12 104.272L406.532 101.091L407.196 96.01L428.605 95.6077L429.148 102.242L429.279 103.87C429.279 103.87 447.01 117.12 452.222 124.109C457.78 131.595 460.7 140.578 456.901 148.84C457.416 150.169 457.958 151.647 458.52 153.369C462.385 165.162 465.004 177.327 466.333 189.665Z" fill="#E4A999"/>
<path d="M452.222 124.147C457.781 131.632 460.7 140.615 456.901 148.878C457.416 150.206 457.958 151.685 458.52 153.406C462.379 165.187 464.995 177.34 466.324 189.665" stroke="#DB877C" stroke-width="1.23514" stroke-miterlimit="10" stroke-linecap="round"/>
<path d="M367.784 191.405C371.368 171.961 374.268 164.373 379.452 152.602C380.089 151.161 380.753 149.654 381.464 148.063C377.721 141.963 378.582 133.242 384.542 124.671" stroke="#DB877C" stroke-width="1.23514" stroke-miterlimit="10" stroke-linecap="round"/>
<path d="M438.477 151.862C438.842 151.741 444.858 144.751 451.848 150.777C445.944 154.024 438.477 151.862 438.477 151.862Z" fill="#D26066"/>
<path d="M398.784 151.862C398.419 151.741 392.403 144.751 385.413 150.777C391.317 154.024 398.784 151.862 398.784 151.862Z" fill="#D26066"/>
<path d="M429.148 102.279C426.079 104.581 421.868 106.696 417.395 106.293C413.278 105.909 409.429 104.079 406.532 101.128L407.196 96.0474L428.605 95.645L429.148 102.279Z" fill="#D26066"/>
<path d="M409.807 147.727C400.45 155.034 389.221 157.327 379.462 152.602C380.098 151.161 380.762 149.654 381.473 148.063C381.464 148.063 392.459 156.578 409.807 147.727Z" fill="#DB877C"/>
<path d="M458.529 153.406C455.261 154.851 451.743 155.649 448.171 155.755C438.954 156.157 433.199 153.219 425.19 147.333C431.155 150.248 437.663 151.886 444.297 152.143C448.749 152.346 453.159 151.208 456.957 148.877C457.425 150.206 457.968 151.759 458.529 153.406Z" fill="#DB877C"/>
<path d="M417.096 177.136C417.096 177.136 413.943 180.158 416.74 190.03C418.49 182.264 417.096 177.136 417.096 177.136Z" fill="#D26066"/>
<path d="M397.643 163.924C397.643 163.924 424.722 156.71 442.95 163.868C432.545 156.363 413.55 154.716 397.643 163.924Z" fill="#DB877C"/>
<path d="M413.437 110.841C413.953 111.581 414.635 112.19 415.427 112.621C416.22 113.051 417.102 113.291 418.004 113.321C421.101 113.433 422.879 110.513 422.879 110.513C419.884 111.803 416.514 111.92 413.437 110.841Z" fill="#DB877C"/>
<path d="M435.857 78.8303C435.941 78.5683 437.195 72.5985 435.38 68.7059C433.564 64.8134 431.824 63.7467 428.072 62.2682C424.582 56.3639 415.44 54.9697 408.356 58.4412C401.516 61.8004 392.599 72.926 404.932 85.2025C417.264 97.479 433.106 87.3546 435.857 78.8303Z" fill="#142033"/>
<path d="M404.136 81.5813C404.136 81.5813 403.201 77.8946 401.47 77.2396C399.739 76.5846 397.502 79.6631 397.979 82.0585C398.457 84.4539 400.787 87.3733 402.527 87.8599C403.902 88.2529 405.035 86.6809 405.25 85.7077C405.465 84.7346 404.136 81.5813 404.136 81.5813Z" fill="#DB877C"/>
<path d="M400.627 83.8176C400.627 83.8176 399.505 82.124 399.645 81.0105C399.785 79.897 400.646 78.5215 401.339 78.5683C402.031 78.6151 403.612 82.1053 403.687 82.6948C403.762 83.2843 402.368 83.3123 402.564 84.0422C402.761 84.7721 403.743 85.4458 404.052 85.8575C404.361 86.2692 404.408 86.6435 403.566 86.7932C402.723 86.9429 401.413 85.2212 401.413 85.2212C401.413 85.2212 402.948 86.3908 403.36 86.0914C403.771 85.792 402.321 84.7159 401.797 83.9206C401.273 83.1252 402.929 82.8819 402.892 82.4328C402.892 82.2924 401.891 79.8783 401.273 79.9251C400.656 79.9719 399.935 81.2819 400.627 83.8176Z" fill="#D26066"/>
<path d="M401.835 81.7122C401.601 81.9581 401.428 82.2557 401.33 82.5808C401.233 82.9059 401.213 83.2495 401.273 83.5836C401.353 84.1503 401.636 84.6689 402.068 85.0433C401.714 84.8697 401.412 84.6049 401.193 84.2761C400.974 83.9472 400.847 83.5661 400.824 83.1719C400.791 82.8481 400.875 82.5231 401.06 82.2555C401.245 81.9879 401.52 81.7952 401.835 81.7122Z" fill="#D26066"/>
<path d="M404.623 77.2396C404.149 77.804 403.902 78.5244 403.93 79.2608C404.005 80.9918 403.21 90.2086 405.325 94.9339C408.824 102.775 420.521 105.704 429.11 96.8053C433.967 91.7806 432.713 81.6562 432.713 81.6562C430.402 81.9463 431.272 78.9988 430.533 77.7917C429.943 76.856 428.399 76.4069 427.482 75.7986C426.354 75.0556 425.312 74.1894 424.376 73.2161C423.056 71.8499 421.905 70.1002 422.036 68.2007L409.049 74.4325C407.636 75.1343 405.662 75.9671 404.623 77.2396Z" fill="#E4A999"/>
<path d="M419.894 83.5744C419.894 83.5744 420.249 84.2013 423.637 84.22C427.024 84.2387 428.194 82.6667 428.194 82.6667L420.455 83.2562L419.894 83.5744Z" fill="#DB877C"/>
<path d="M421.035 80.5426C420.472 81.3092 420.176 82.2396 420.193 83.1907C421.746 83.069 424.516 80.3836 424.516 80.3836C423.354 80.3022 422.185 80.3556 421.035 80.5426Z" fill="#D26066"/>
<path d="M421.035 82.1426C420.951 82.1426 419.781 83.3216 419.931 83.5742C420.081 83.8269 420.633 83.5087 420.633 83.5087L421.035 82.1426Z" fill="#DB877C"/>
<path d="M420.493 83.3217C420.493 83.1907 420.961 80.8982 422.149 80.5707C423.432 80.215 424.787 80.215 426.069 80.5707C427.117 80.945 428.231 82.6761 428.231 82.6761C426.81 83.1335 425.334 83.3948 423.843 83.4527C420.745 83.6118 420.493 83.3217 420.493 83.3217Z" fill="white"/>
<path d="M425.714 81.7965C425.667 82.2081 425.46 82.5847 425.138 82.8455C424.816 83.1062 424.404 83.2302 423.992 83.1907C423.788 83.18 423.589 83.129 423.405 83.0407C423.221 82.9524 423.056 82.8285 422.921 82.6763C422.785 82.524 422.681 82.3464 422.614 82.1536C422.547 81.9608 422.52 81.7568 422.532 81.5532C422.577 81.1424 422.782 80.7658 423.102 80.5048C423.423 80.2439 423.833 80.1197 424.245 80.159C424.449 80.1698 424.649 80.2207 424.833 80.3089C425.017 80.397 425.183 80.5207 425.319 80.6729C425.455 80.825 425.561 81.0025 425.628 81.1953C425.696 81.3882 425.725 81.5924 425.714 81.7965Z" fill="#312342"/>
<path d="M426.406 82.4609C426.518 81.9743 424.806 81.6562 424.684 82.1521C424.619 82.4515 426.322 82.7977 426.406 82.4609Z" fill="white"/>
<path d="M420.38 80.8327C421.954 80.6659 423.541 80.6659 425.115 80.8327C426.295 81.183 427.367 81.8269 428.231 82.7041C428.231 82.7041 427.342 80.5707 425.546 80.1777C423.075 79.5976 421.035 80.2619 420.38 80.8327Z" fill="#312342"/>
<path d="M422.083 79.5697C423.263 79.4416 424.455 79.4889 425.62 79.71C426.372 79.961 427.077 80.3341 427.707 80.8142C427.322 80.2354 426.81 79.7521 426.21 79.4013C424.851 79.0189 423.406 79.0779 422.083 79.5697Z" fill="#DB877C"/>
<path d="M420.371 76.7437C419.782 77.5666 419.263 78.4366 418.817 79.3449C418.509 80.3265 418.464 81.3721 418.686 82.3766C419.454 80.5988 420.792 77.4641 420.792 77.4641L420.371 76.7437Z" fill="#DB877C"/>
<path d="M424.507 78.0256C423.056 78.0256 419.744 78.3999 419.772 78.3157C419.872 77.7589 420.075 77.2258 420.371 76.7437C422.373 76.7437 423.749 75.9671 425.452 76.3133C426.025 76.4963 426.556 76.7905 427.015 77.179C427.475 77.5676 427.853 78.0429 428.128 78.5777C426.942 78.275 425.729 78.0901 424.507 78.0256Z" fill="#312342"/>
<path d="M414.542 86.5406C414.542 86.5406 416.413 90.1431 417.508 89.9934C418.602 89.8437 420.249 86.5032 420.249 86.5032C420.249 86.5032 418.509 88.0284 417.105 87.8693C416.14 87.6852 415.249 87.2235 414.542 86.5406Z" fill="#DB877C"/>
<path d="M417.292 87.2892C418.301 87.1211 419.291 86.8579 420.249 86.5032C420.249 86.5032 418.799 88.1313 417.33 88.2062C416.132 88.2717 414.523 86.5312 414.523 86.5406C415.412 86.9034 416.342 87.1548 417.292 87.2892Z" fill="#D26066"/>
<path d="M416.591 85.4271C415.739 85.6143 415.936 86.9056 417.171 86.9898C418.406 87.074 418.733 86.1476 418.387 85.6236C418.144 85.3242 417.358 85.2587 416.591 85.4271Z" fill="#E9BBB1"/>
<path d="M414.794 95.9539C415.129 95.5725 415.544 95.2693 416.009 95.0657C416.475 94.862 416.979 94.763 417.487 94.7755C417.994 94.788 418.493 94.9117 418.948 95.1379C419.403 95.3642 419.802 95.6875 420.118 96.0849C418.362 96.5009 416.528 96.4558 414.794 95.9539Z" fill="#DB877C"/>
<path d="M414.205 76.7437C414.932 77.5102 415.533 78.3884 415.982 79.3449C416.176 80.3628 416.208 81.405 416.076 82.4328C416.001 82.4328 413.456 77.8104 413.456 77.8104L414.205 76.7437Z" fill="#DB877C"/>
<path d="M410.059 78.0256C411.519 78.0256 414.831 78.3999 414.803 78.3157C414.703 77.7589 414.5 77.2258 414.205 76.7437C412.202 76.7437 410.817 75.9671 409.124 76.3133C408.551 76.4963 408.019 76.7905 407.56 77.179C407.101 77.5676 406.723 78.0429 406.448 78.5777C407.63 78.2746 408.84 78.0897 410.059 78.0256Z" fill="#312342"/>
<path d="M414.654 83.5089C414.654 83.5089 414.223 84.3792 410.827 84.2949C407.43 84.2107 406.335 82.5171 406.335 82.5171L414.045 83.0504L414.654 83.5089Z" fill="#DB877C"/>
<path d="M413.55 80.5334C414.089 81.3669 414.354 82.3486 414.308 83.3405C412.764 83.1627 410.097 80.2901 410.097 80.2901C411.253 80.2291 412.413 80.3108 413.55 80.5334Z" fill="#D26066"/>
<path d="M413.55 82.0867C413.634 82.0867 414.803 83.2657 414.654 83.5089C414.504 83.7522 413.952 83.4434 413.952 83.4434L413.55 82.0867Z" fill="#DB877C"/>
<path d="M414.008 83.4526C414.008 83.3216 413.606 80.9075 412.445 80.5239C411.186 80.1138 409.837 80.0684 408.553 80.3929C407.495 80.7484 406.335 82.5169 406.335 82.5169C407.746 83.0346 409.224 83.3497 410.724 83.4526C413.746 83.7521 414.008 83.4526 414.008 83.4526Z" fill="white"/>
<path d="M412.127 81.5814C412.14 81.8934 412.06 82.2021 411.897 82.4686C411.735 82.7352 411.497 82.9476 411.214 83.0792C410.93 83.2107 410.615 83.2555 410.306 83.2079C409.997 83.1603 409.71 83.0224 409.48 82.8116C409.249 82.6008 409.086 82.3265 409.012 82.0234C408.937 81.7202 408.954 81.4017 409.06 81.108C409.166 80.8144 409.356 80.5586 409.608 80.3731C409.859 80.1876 410.159 80.0806 410.471 80.0656C410.68 80.0555 410.888 80.0868 411.084 80.1577C411.281 80.2286 411.461 80.3376 411.615 80.4786C411.769 80.6195 411.893 80.7895 411.981 80.9788C412.069 81.168 412.119 81.3729 412.127 81.5814Z" fill="#312342"/>
<path d="M414.186 80.8609C412.637 80.631 411.068 80.5745 409.507 80.6925C408.312 81.0327 407.225 81.6776 406.354 82.5639C406.354 82.5639 407.29 80.365 409.096 80.0188C411.547 79.4761 413.55 80.2434 414.186 80.8609Z" fill="#312342"/>
<path d="M412.539 79.4854C411.374 79.3024 410.186 79.3024 409.021 79.4854C408.265 79.727 407.554 80.0905 406.916 80.5615C407.307 79.9761 407.829 79.4893 408.441 79.1392C409.808 78.8027 411.248 78.9243 412.539 79.4854Z" fill="#DB877C"/>
<path d="M412.81 82.255C412.857 81.7404 411.126 81.6094 411.07 82.1521C411.042 82.4609 412.773 82.6199 412.81 82.255Z" fill="white"/>
<path d="M431.543 81.6281C431.543 81.6281 432.479 77.9414 434.21 77.2864C435.941 76.6314 438.177 79.7099 437.7 82.1053C437.223 84.5008 434.893 87.4202 433.153 87.9067C431.777 88.2997 430.645 86.7277 430.43 85.7546C430.215 84.7815 431.543 81.6281 431.543 81.6281Z" fill="#E4A999"/>
<path d="M435.623 83.8738C435.623 83.8738 436.746 82.1801 436.606 81.0667C436.465 79.9532 435.595 78.5777 434.903 78.6245C434.21 78.6712 432.629 82.1614 432.554 82.7509C432.479 83.3404 433.873 83.3685 433.686 84.0984C433.499 84.8282 432.507 85.5019 432.189 85.9136C431.871 86.3253 431.843 86.6996 432.676 86.8493C433.508 86.9991 434.828 85.2773 434.828 85.2773C434.828 85.2773 433.293 86.447 432.891 86.1476C432.488 85.8481 433.92 84.7721 434.444 83.9767C434.968 83.1814 433.312 82.9381 433.359 82.4889C433.359 82.3486 434.35 79.9345 434.977 79.9812C435.604 80.028 436.315 81.338 435.623 83.8738Z" fill="#D26066"/>
<path d="M434.416 81.7683C434.65 82.0143 434.823 82.3118 434.92 82.637C435.018 82.9621 435.037 83.3056 434.977 83.6397C434.897 84.2064 434.615 84.725 434.182 85.0994C434.536 84.9262 434.837 84.6613 435.055 84.3322C435.272 84.0031 435.397 83.6218 435.417 83.228C435.451 82.9055 435.368 82.5815 435.185 82.3141C435.001 82.0467 434.729 81.8532 434.416 81.7683Z" fill="#DB877C"/>
<path d="M413.26 90.9383C414.454 91.9751 415.965 92.5755 417.545 92.6413C418.776 92.6923 419.995 92.3876 421.057 91.7636C422.119 91.1397 422.979 90.2229 423.534 89.123C422.067 90.1779 420.382 90.8888 418.604 91.2031C416.825 91.5174 414.998 91.4269 413.26 90.9383Z" fill="#D26066"/>
<path d="M367.503 188.776C367.503 188.776 382.353 201.427 415.814 200.865C454.384 199.705 466.923 187.859 466.923 187.859C470.793 207.401 471.475 227.441 468.944 247.202H422.448V229.751H412.708V247.033H365.295C365.295 247.033 361.431 212.852 367.503 188.776Z" fill="#213555"/>
<path d="M292.095 96.2251C292.095 96.2251 302.5 98.8264 302.874 108.511C303.248 118.196 305.943 138.66 306.561 142.982C308.039 148.98 311.174 153.865 311.726 163.362C312.278 172.86 305.915 201.436 306.374 204.533C308.039 210.241 309.237 218.999 300.572 222.686C293.105 180.504 286.49 107.538 292.095 96.2251Z" fill="#DB877C"/>
<path d="M220.999 204.159C220.999 204.159 211.96 198.61 212.784 196.486C213.607 194.362 221.411 201.623 222.777 202.035C217.509 195.672 215.797 192.042 217.238 191.901C218.679 191.761 224.415 199.64 224.415 199.64C224.415 199.64 218.8 190.601 219.736 189.852C220.672 189.104 226.576 197.722 226.576 197.722C226.576 197.722 226.539 203.448 220.999 204.159Z" fill="#D26066"/>
<path d="M252.439 93.2401C252.439 93.2401 250.306 98.7327 247.836 104.852C245.281 111.187 242.362 118.205 241.08 120.535C240.275 122.013 237.87 125.513 234.979 129.583C228.859 138.22 220.55 149.439 220.55 149.439C220.55 149.439 227.203 173.87 232.593 187.981C233.398 190.619 231.657 195.784 225.715 195.092C211.605 179.269 202.079 153.341 202.323 149.439C210.697 129.602 224.714 112.853 231.573 104.674C236.804 98.4239 252.187 93.212 252.439 93.2401Z" fill="#E4A999"/>
<path d="M247.835 104.852C245.281 111.187 242.361 118.205 241.08 120.535C240.275 122.013 237.87 125.513 234.979 129.583C236.336 111.674 239.161 105.788 239.405 105.18L247.835 104.852Z" fill="#DB877C"/>
<path d="M232.593 187.981C233.893 190.499 234.142 193.43 233.285 196.131C231.788 200.482 226.174 208.295 223.077 207.939C219.979 207.584 211.025 202.437 210.912 200.257C212.784 198.76 218.024 203.579 221.355 203.579C225.098 198.189 224.677 192.117 226.857 190.853C229.037 189.59 232.593 187.981 232.593 187.981Z" fill="#E4A999"/>
<path d="M232.546 230.359C232.546 230.359 232.593 235.038 232.668 242.711C232.78 254.379 232.948 272.99 233.126 292.762C225.013 319.242 237.664 344.778 236.317 374.168C236.317 374.327 236.317 374.496 236.317 374.655C235.989 380.269 235.231 383.684 230.029 388.569C225.004 393.247 216.929 398.749 215.254 400.424C214.347 401.191 213.759 402.269 213.607 403.447H237.814C244.167 403.447 242.39 402.165 245.066 399.563C246.46 398.225 249.22 399.348 251.457 398.628C253.169 398.048 253.057 395.212 252.458 390.786C252.28 389.448 252.018 387.979 251.822 386.332C251.428 382.29 251.241 378.23 251.26 374.168C251.793 353.723 254.619 301.183 254.619 301.183L261.637 242.42L263.041 230.649L232.546 230.359Z" fill="#E4A999"/>
<path d="M232.022 402.099H229.215C228.944 402.099 229.327 401.163 230.31 401.004C231.638 400.855 232.303 401.865 232.022 402.099Z" fill="#E9BBB1"/>
<path d="M226.557 402.099H223.75C223.469 402.099 223.862 401.163 224.836 401.004C226.164 400.855 226.829 401.865 226.557 402.099Z" fill="#E9BBB1"/>
<path d="M221.673 402.099H218.866C218.594 402.099 218.978 401.294 219.961 401.163C221.28 401.07 221.944 401.903 221.673 402.099Z" fill="#E9BBB1"/>
<path d="M217.116 402.099H214.552C214.3 402.099 214.655 401.294 215.544 401.163C216.761 401.07 217.359 401.903 217.116 402.099Z" fill="#E9BBB1"/>
<path d="M251.447 398.59C249.211 399.32 246.544 398.3 245.056 399.526C248.135 395.783 248.275 391.488 252.448 390.73C253.047 395.175 253.16 398.01 251.447 398.59Z" fill="#DB877C"/>
<path d="M238.909 393.584C239.201 393.585 239.487 393.672 239.729 393.835C239.972 393.998 240.161 394.23 240.272 394.5C240.383 394.771 240.412 395.068 240.354 395.355C240.296 395.641 240.155 395.904 239.947 396.11L239.826 396.232C238.74 397.215 235.849 399.516 234.764 401.014C234.28 401.725 234.004 402.558 233.968 403.418H232.144C232.186 402.724 232.387 402.048 232.731 401.444C233.075 400.839 233.553 400.32 234.127 399.928C235.531 398.74 239.18 396.092 239.639 394.866C239.919 394.099 238.909 393.584 238.909 393.584Z" fill="#D26066"/>
<path d="M236.373 401.407H241.136C241.136 401.407 241.884 399.657 240.069 399.348C238.254 399.039 236.607 400.04 236.373 401.407Z" fill="#E9BBB1"/>
<path d="M235.915 394.894C235.915 394.894 235.915 396.457 232.724 398.637C230.31 400.293 228.13 401.931 227.802 403.409H225.818C226.652 402.018 227.768 400.816 229.093 399.881C231.638 397.982 234.988 396.728 235.915 394.894Z" fill="#D26066"/>
<path d="M228.981 396.812C228.232 397.589 225.042 400.087 223.825 401.219C223.181 401.81 222.72 402.574 222.496 403.418H221.252C221.804 400.724 225.537 398.787 228.981 396.812Z" fill="#D26066"/>
<path d="M224.415 396.812C223.676 397.589 220.466 400.087 219.259 401.219C218.615 401.81 218.154 402.574 217.93 403.418H216.686C217.229 400.724 220.971 398.787 224.415 396.812Z" fill="#D26066"/>
<path d="M263.031 230.621L261.628 242.392L232.668 242.682C232.593 235 232.546 230.331 232.546 230.331L263.031 230.621Z" fill="#DB877C"/>
<path d="M238.722 290.244C238.722 290.244 239.657 300.762 243.803 300.687C247.471 300.621 250.792 295.859 250.147 290.871C249.501 285.884 238.703 284.883 238.722 290.244Z" fill="#DB877C"/>
<path d="M301.957 230.359C301.957 230.359 301.91 235.038 301.845 242.711C301.732 254.379 301.554 272.99 301.377 292.762C309.489 319.242 296.848 344.778 298.186 374.168C298.186 374.327 298.186 374.496 298.186 374.655C298.523 380.269 299.271 383.684 304.483 388.569C309.499 393.247 317.583 398.749 319.249 400.424C320.167 401.192 320.762 402.278 320.914 403.465H296.708C290.354 403.465 292.123 402.183 289.446 399.582C288.062 398.244 285.292 399.367 283.056 398.646C281.343 398.066 281.465 395.231 282.054 390.805C282.241 389.467 282.494 387.998 282.691 386.351C283.088 382.309 283.279 378.249 283.261 374.187C282.719 353.742 279.893 301.202 279.893 301.202L272.875 242.439L271.471 230.668L301.957 230.359Z" fill="#E4A999"/>
<path d="M302.471 402.099H305.279C305.559 402.099 305.166 401.163 304.193 401.004C302.864 400.855 302.2 401.865 302.471 402.099Z" fill="#E9BBB1"/>
<path d="M307.955 402.099H310.762C311.033 402.099 310.64 401.163 309.667 401.004C308.338 400.855 307.674 401.865 307.955 402.099Z" fill="#E9BBB1"/>
<path d="M312.83 402.099H315.637C315.918 402.099 315.525 401.294 314.552 401.163C313.223 401.07 312.559 401.903 312.83 402.099Z" fill="#E9BBB1"/>
<path d="M317.387 402.099H319.979C320.231 402.099 319.876 401.294 318.987 401.163C317.752 401.07 317.172 401.903 317.387 402.099Z" fill="#E9BBB1"/>
<path d="M283.056 398.59C285.292 399.32 287.959 398.3 289.446 399.526C286.377 395.783 286.237 391.488 282.054 390.73C281.465 395.175 281.343 398.01 283.056 398.59Z" fill="#DB877C"/>
<path d="M295.594 393.584C295.302 393.585 295.016 393.672 294.774 393.835C294.531 393.998 294.342 394.23 294.231 394.5C294.12 394.771 294.091 395.068 294.149 395.355C294.207 395.641 294.348 395.904 294.555 396.11L294.686 396.232C295.763 397.215 298.654 399.516 299.749 401.014C300.227 401.728 300.499 402.56 300.535 403.418H302.359C302.316 402.725 302.116 402.051 301.774 401.446C301.432 400.841 300.957 400.322 300.385 399.928C298.981 398.74 295.323 396.092 294.874 394.866C294.584 394.099 295.594 393.584 295.594 393.584Z" fill="#D26066"/>
<path d="M298.13 401.407H293.377C293.377 401.407 292.619 399.657 294.443 399.348C296.268 399.039 297.896 400.04 298.13 401.407Z" fill="#E9BBB1"/>
<path d="M298.588 394.894C298.588 394.894 298.588 396.457 301.788 398.637C304.193 400.293 306.373 401.931 306.701 403.409H308.694C307.852 402.021 306.734 400.82 305.41 399.881C302.874 397.982 299.524 396.728 298.588 394.894Z" fill="#D26066"/>
<path d="M305.522 396.812C306.271 397.589 309.471 400.087 310.678 401.219C311.325 401.808 311.787 402.572 312.006 403.418H313.26C312.708 400.724 308.965 398.787 305.522 396.812Z" fill="#D26066"/>
<path d="M310.088 396.812C310.827 397.589 314.037 400.087 315.244 401.219C315.894 401.805 316.357 402.57 316.573 403.418H317.817C317.274 400.724 313.532 398.787 310.088 396.812Z" fill="#D26066"/>
<path d="M271.471 230.621L272.875 242.392L301.882 242.682C301.947 235 301.994 230.331 301.994 230.331L271.471 230.621Z" fill="#DB877C"/>
<path d="M295.791 290.244C295.791 290.244 294.855 300.762 290.7 300.687C287.032 300.621 283.711 295.859 284.356 290.871C285.002 285.884 295.8 284.883 295.791 290.244Z" fill="#DB877C"/>
<path d="M296.914 181.861C287.374 187.251 276.608 190.096 265.651 190.124C247.779 190.021 237.823 181.88 237.823 181.88C237.823 181.88 238.076 115.445 238.076 107.472C238.076 100.923 242.034 96.9832 244.926 96.1223C247.817 95.2615 260.084 89.7127 260.084 89.7127L260.673 83.406L261.048 79.3357L275.607 78.4749L275.916 82.5639L276.468 89.7127C276.468 89.7127 288.455 94.7468 292.095 96.2627C295.735 97.7785 297.559 100.866 297.662 106.555C297.765 112.245 296.914 181.861 296.914 181.861Z" fill="#E4A999"/>
<path d="M275.916 82.517C274.045 84.9405 272.632 86.8494 271.64 87.5418C270.171 88.5617 268.58 89.5255 266.026 88.3091C264.426 87.5324 262.114 85.0528 260.645 83.3592L261.02 79.2888L275.579 78.428L275.916 82.517Z" fill="#D26066"/>
<path d="M255.321 123.248C255.452 121.667 249.707 121.115 249.248 123.248C248.79 125.382 255.097 125.831 255.321 123.248Z" fill="#D26066"/>
<path d="M289.156 123.248C289.297 121.667 283.542 121.115 283.093 123.248C282.644 125.382 288.932 125.831 289.156 123.248Z" fill="#D26066"/>
<path d="M267.149 161.669C267.149 161.669 264.07 167.451 267.383 172.083C269.984 165.964 267.149 161.669 267.149 161.669Z" fill="#D26066"/>
<path d="M252.065 96.0193C257.001 97.5971 262.098 98.6171 267.261 99.0603C275.682 99.7621 284.328 96.2532 284.328 96.2532C284.328 96.2532 265.511 98.0217 252.065 96.0193Z" fill="#DB877C"/>
<path d="M299.225 181.075H235.072L229.991 235.74H264.145C264.613 235.74 267.148 222.724 267.148 222.724C267.148 222.724 269.684 235.74 270.143 235.74H304.296L299.225 181.075Z" fill="#213555"/>
<path d="M283.617 64.3922C283.692 64.1677 284.777 58.9838 283.205 55.6153C281.633 52.2467 280.127 51.3204 276.87 50.001C273.848 44.8921 265.923 43.685 259.784 46.6886C253.861 49.5987 246.132 59.2365 256.828 69.8755C267.523 80.5145 281.231 71.775 283.617 64.3922Z" fill="#142033"/>
<path d="M257.043 66.7692C257.043 66.7692 256.248 63.569 254.732 63.0263C253.216 62.4836 251.298 65.1317 251.709 67.2089C252.121 69.2862 254.17 71.8126 255.649 72.2337C256.846 72.5706 257.82 71.2138 258.016 70.3623C258.213 69.5108 257.043 66.7692 257.043 66.7692Z" fill="#DB877C"/>
<path d="M254.002 68.7154C253.503 67.9897 253.208 67.1428 253.15 66.2638C253.281 65.272 254.021 64.1024 254.629 64.1398C255.237 64.1772 256.594 67.2089 256.659 67.7236C256.725 68.2382 255.518 68.2569 255.724 68.8932C255.929 69.5295 256.734 70.1096 257.006 70.4652C257.277 70.8208 257.314 71.1482 256.594 71.2418C255.873 71.3354 254.722 69.8757 254.722 69.8757C254.722 69.8757 256.051 70.8956 256.407 70.6336C256.762 70.3716 255.471 69.4453 255.059 68.7622C254.648 68.0791 255.995 67.8265 255.995 67.4709C255.995 67.3493 255.134 65.2626 254.591 65.3001C254.049 65.3375 253.403 66.5165 254.002 68.7154Z" fill="#D26066"/>
<path d="M255.05 66.8906C254.852 67.1003 254.705 67.353 254.62 67.6289C254.536 67.9049 254.516 68.1966 254.563 68.4813C254.632 68.9707 254.874 69.4191 255.246 69.7445C254.932 69.595 254.666 69.3607 254.477 69.0682C254.289 68.7756 254.186 68.4363 254.18 68.0883C254.164 67.819 254.243 67.5526 254.401 67.3343C254.56 67.116 254.789 66.9593 255.05 66.8906Z" fill="#D26066"/>
<path d="M256.463 63.1197C256.051 63.6081 255.835 64.2312 255.855 64.8694C255.963 66.3809 256.166 67.8841 256.463 69.3702C256.899 72.3769 257.713 75.3165 258.886 78.1191C259.373 79.1858 263.668 82.9099 264.931 83.6678C265.941 84.2667 269.422 84.2105 270.639 83.5555C271.471 83.1064 276.356 79.8127 277.189 78.5401C278.068 77.1366 280.829 67.0216 280.829 67.0216C278.826 67.2649 279.584 64.7104 278.957 63.6624C278.443 62.8296 277.086 62.4553 276.318 61.9313C275.341 61.2872 274.44 60.5337 273.633 59.6856C273.013 59.1473 272.509 58.4877 272.154 57.7474C271.798 57.0072 271.598 56.2019 271.565 55.3813L260.337 60.7617C259.073 61.3044 257.361 62.0062 256.463 63.1197Z" fill="#E4A999"/>
<path d="M269.666 68.2943C269.666 68.2943 270.096 69.0428 273.062 69.0615C276.028 69.0802 277.011 67.7141 277.011 67.7141L270.274 67.9387L269.666 68.2943Z" fill="#DB877C"/>
<path d="M270.788 65.8707C270.305 66.54 270.049 67.3469 270.059 68.1725C271.406 68.0602 273.801 65.7584 273.801 65.7584C272.796 65.678 271.785 65.7156 270.788 65.8707Z" fill="#D26066"/>
<path d="M270.742 67.2649C270.667 67.2649 269.656 68.2848 269.806 68.5C269.956 68.7152 270.386 68.4813 270.386 68.4813L270.742 67.2649Z" fill="#DB877C"/>
<path d="M270.302 68.285C270.302 68.1727 270.713 66.1797 271.733 65.899C272.845 65.5949 274.018 65.5949 275.13 65.899C276.066 66.2265 277.001 67.7704 277.001 67.7704C275.755 68.1622 274.461 68.3856 273.156 68.4347C270.526 68.5377 270.302 68.285 270.302 68.285Z" fill="white"/>
<path d="M274.784 66.9562C274.744 67.313 274.566 67.64 274.288 67.8673C274.01 68.0946 273.654 68.2042 273.296 68.1726C273.12 68.1631 272.947 68.1186 272.787 68.0418C272.628 67.965 272.485 67.8573 272.368 67.7251C272.25 67.5928 272.16 67.4385 272.103 67.2712C272.045 67.1039 272.022 66.9269 272.033 66.7504C272.071 66.395 272.247 66.0689 272.524 65.8429C272.801 65.6169 273.156 65.5092 273.511 65.5433C273.688 65.5517 273.861 65.5949 274.021 65.6706C274.181 65.7464 274.324 65.853 274.442 65.9844C274.561 66.1158 274.652 66.2693 274.71 66.4361C274.769 66.6029 274.794 66.7797 274.784 66.9562Z" fill="#312342"/>
<path d="M275.42 67.5457C275.523 67.1246 274.035 66.8439 273.932 67.2837C273.876 67.5457 275.355 67.8264 275.42 67.5457Z" fill="white"/>
<path d="M270.208 66.1235C271.57 65.9768 272.944 65.9768 274.307 66.1235C275.327 66.4231 276.257 66.9731 277.011 67.7235C276.798 67.2157 276.48 66.7583 276.079 66.3811C275.677 66.0039 275.201 65.7153 274.681 65.534C273.935 65.3215 273.153 65.2642 272.384 65.3656C271.614 65.467 270.874 65.7249 270.208 66.1235Z" fill="#312342"/>
<path d="M271.677 65.0284C272.701 64.9205 273.735 64.9647 274.746 65.1594C275.396 65.37 276.006 65.6861 276.552 66.0951C276.218 65.598 275.777 65.1823 275.261 64.8787C274.081 64.5494 272.826 64.6018 271.677 65.0284Z" fill="#DB877C"/>
<path d="M264.856 62.5864C265.485 63.2479 266.003 64.0062 266.391 64.8321C266.563 65.7138 266.591 66.6175 266.475 67.5083C266.419 67.5083 264.21 63.5034 264.21 63.5034L264.856 62.5864Z" fill="#DB877C"/>
<path d="M261.263 63.6904C262.526 63.6904 265.399 64.0179 265.371 63.943C265.284 63.4629 265.11 63.0029 264.856 62.5862C263.116 62.5862 261.918 61.9125 260.449 62.212C259.953 62.3693 259.492 62.623 259.094 62.9585C258.696 63.2941 258.368 63.705 258.128 64.1676C259.155 63.906 260.205 63.7461 261.263 63.6904Z" fill="#312342"/>
<path d="M270.19 62.5864C269.682 63.2965 269.234 64.0477 268.852 64.8321C268.58 65.6829 268.542 66.5907 268.739 67.4615L270.564 63.204L270.19 62.5864Z" fill="#DB877C"/>
<path d="M273.783 63.6904C272.52 63.6904 269.647 64.0179 269.675 63.943C269.761 63.4629 269.936 63.0029 270.19 62.5862C271.93 62.5862 273.128 61.9125 274.597 62.212C275.097 62.3671 275.561 62.6198 275.962 62.9555C276.364 63.2912 276.695 63.7032 276.936 64.1676C275.903 63.9048 274.847 63.7449 273.783 63.6904Z" fill="#312342"/>
<path d="M265.146 71.0732C265.146 71.0732 266.802 74.1985 267.719 74.0675C268.636 73.9365 270.087 71.0452 270.087 71.0452C270.087 71.0452 268.58 72.3645 267.364 72.2242C266.528 72.0651 265.757 71.665 265.146 71.0732Z" fill="#DB877C"/>
<path d="M267.579 71.7189C268.449 71.5731 269.304 71.3475 270.133 71.0452C269.474 71.7968 268.587 72.3126 267.607 72.5142C266.568 72.5704 265.193 71.0639 265.193 71.0732C265.958 71.3864 266.76 71.6032 267.579 71.7189Z" fill="#D26066"/>
<path d="M266.924 70.1096C266.185 70.2686 266.353 71.3915 267.42 71.457C268.486 71.5225 268.777 70.7365 268.477 70.278C268.247 70.1354 267.988 70.0463 267.72 70.0171C267.451 69.988 267.179 70.0196 266.924 70.1096Z" fill="#E9BBB1"/>
<path d="M265.361 79.2327C265.63 78.8947 265.976 78.6259 266.37 78.4485C266.764 78.2711 267.194 78.1903 267.626 78.2128C268.083 78.1848 268.539 78.2742 268.952 78.4724C269.365 78.6705 269.72 78.9709 269.984 79.345C268.459 79.7022 266.867 79.6635 265.361 79.2327Z" fill="#DB877C"/>
<path d="M265.314 68.4813C265.314 68.4813 264.865 69.2486 261.927 69.1737C258.989 69.0989 258.035 67.6392 258.035 67.6392L264.716 68.0883L265.314 68.4813Z" fill="#DB877C"/>
<path d="M264.266 65.8707C264.736 66.5854 264.965 67.431 264.921 68.2848C263.593 68.1351 261.272 65.6461 261.272 65.6461C262.276 65.595 263.282 65.6704 264.266 65.8707Z" fill="#D26066"/>
<path d="M264.285 67.2087C264.36 67.2087 265.371 68.2287 265.221 68.4439C265.071 68.6591 264.613 68.3877 264.613 68.3877L264.285 67.2087Z" fill="#DB877C"/>
<path d="M264.678 68.3972C264.678 68.2849 264.332 66.1889 263.331 65.8614C262.238 65.5035 261.067 65.4646 259.953 65.7491C259.017 66.0579 258.035 67.6205 258.035 67.6205C259.257 68.0667 260.536 68.3407 261.834 68.4346C264.454 68.6592 264.678 68.3972 264.678 68.3972Z" fill="white"/>
<path d="M263.05 66.7971C263.058 66.9765 263.031 67.1558 262.969 67.3246C262.908 67.4934 262.814 67.6485 262.693 67.781C262.572 67.9135 262.426 68.0208 262.263 68.0968C262.1 68.1729 261.924 68.2161 261.745 68.2241C261.565 68.2321 261.386 68.2047 261.217 68.1434C261.048 68.0821 260.893 67.9882 260.761 67.867C260.628 67.7458 260.521 67.5997 260.445 67.437C260.369 67.2743 260.326 67.0982 260.318 66.9188C260.31 66.7394 260.337 66.5602 260.398 66.3914C260.46 66.2226 260.554 66.0675 260.675 65.935C260.796 65.8025 260.942 65.6951 261.105 65.6191C261.268 65.5431 261.444 65.4998 261.623 65.4918C261.802 65.4838 261.982 65.5113 262.151 65.5725C262.319 65.6338 262.474 65.7277 262.607 65.849C262.739 65.9702 262.847 66.1163 262.923 66.279C262.999 66.4417 263.042 66.6177 263.05 66.7971Z" fill="#312342"/>
<path d="M264.837 66.1515C263.49 65.9498 262.125 65.8996 260.767 66.0018C259.736 66.2907 258.795 66.8382 258.035 67.5925C258.035 67.5925 258.858 65.7211 260.411 65.3749C261.162 65.1802 261.945 65.1487 262.709 65.2827C263.472 65.4167 264.198 65.713 264.837 66.1515Z" fill="#312342"/>
<path d="M263.406 64.9632C262.398 64.8034 261.372 64.8034 260.365 64.9632C259.692 65.1662 259.059 65.4827 258.493 65.8989C258.854 65.4132 259.322 65.0164 259.859 64.7386C261.033 64.417 262.281 64.4961 263.406 64.9632Z" fill="#DB877C"/>
<path d="M263.64 67.3586C263.64 66.9095 262.18 66.8066 262.142 67.2651C262.114 67.5458 263.612 67.6674 263.64 67.3586Z" fill="white"/>
<path d="M279.883 66.8157C279.883 66.8157 280.679 63.6249 282.195 63.0729C283.711 62.5208 285.629 65.1782 285.217 67.2461C284.805 69.314 282.756 71.8498 281.278 72.2709C280.08 72.6077 279.097 71.251 278.91 70.3995C278.723 69.548 279.883 66.8157 279.883 66.8157Z" fill="#E4A999"/>
<path d="M283.411 68.7622C283.91 68.0365 284.204 67.1896 284.263 66.3106C284.132 65.3188 283.392 64.1492 282.793 64.1959C282.195 64.2427 280.819 67.2557 280.754 67.7703C280.688 68.285 281.895 68.3037 281.736 68.94C281.577 69.5763 280.716 70.1564 280.445 70.512C280.173 70.8675 280.136 71.195 280.866 71.2886C281.596 71.3822 282.737 69.9318 282.737 69.9318C282.737 69.9318 281.409 70.9424 281.053 70.6898C280.697 70.4371 281.989 69.4921 282.4 68.8183C282.812 68.1446 281.465 67.8826 281.465 67.5364C281.465 67.4054 282.335 65.3188 282.868 65.3562C283.402 65.3937 284.01 66.6101 283.411 68.7622Z" fill="#D26066"/>
<path d="M282.363 66.9373C282.561 67.1469 282.709 67.3996 282.793 67.6756C282.877 67.9515 282.897 68.2433 282.85 68.528C282.781 69.0174 282.539 69.4657 282.167 69.7912C282.481 69.6416 282.747 69.4074 282.936 69.1148C283.124 68.8222 283.227 68.4829 283.233 68.135C283.245 67.8663 283.166 67.6016 283.008 67.384C282.85 67.1665 282.622 67.009 282.363 66.9373Z" fill="#DB877C"/>
<path d="M264.033 74.9097C265.077 75.8109 266.397 76.3291 267.776 76.3788C268.842 76.4248 269.899 76.1612 270.818 75.62C271.738 75.0787 272.482 74.2828 272.959 73.3284C271.688 74.2496 270.224 74.8705 268.678 75.1444C267.132 75.4183 265.543 75.3381 264.033 74.9097Z" fill="#D26066"/>
<path d="M108.948 219.86C108.948 219.86 95.7641 203.308 74.6264 206.966C73.934 210.045 73.279 213.469 72.755 217.521C71.2111 229.62 70.8836 247.305 74.3176 278.061C70.3315 295.531 69.7233 312.074 72.7831 324.342C75.6838 335.944 83.2443 369.78 82.2337 379.679C81.3729 383.226 78.3786 388.934 67.7957 395.98C64.8295 397.963 61.6107 399.442 60.675 401.313C60.6116 401.444 60.5826 401.59 60.5907 401.735C60.5988 401.881 60.6438 402.022 60.7214 402.146C60.7991 402.269 60.9068 402.371 61.0345 402.441C61.1623 402.512 61.3058 402.548 61.4516 402.548H90.1498C92.4704 402.548 92.6762 401.229 93.4809 399.919C97.3267 399.919 98.6461 399.816 99.0952 397.112C99.2073 395.555 99.2323 393.993 99.17 392.433C99.0578 386.501 97.8039 367.113 97.6542 364.521C97.0366 353.798 101.64 313.993 102.866 301.389C103.602 293.813 103.189 286.169 101.64 278.716L107.863 228.881L108.948 219.86Z" fill="#E4A999"/>
<path d="M99.0483 397.102C98.646 399.835 97.3266 399.91 93.4341 399.91C95.1695 397.315 97.0437 394.816 99.0483 392.424C99.1355 393.982 99.1355 395.544 99.0483 397.102Z" fill="#DB877C"/>
<path d="M87.3426 396.167C85.6397 398.525 85.0782 398.73 84.1051 399.994C83.51 400.714 83.1478 401.598 83.0665 402.529H81.457C82.112 399.563 85.5274 396.793 86.6221 395.68C87.6481 394.701 88.4577 393.519 88.9989 392.208C88.825 393.656 88.2515 395.027 87.3426 396.167Z" fill="#D26066"/>
<path d="M83.5344 395.306C83.5344 395.306 82.7391 397.065 79.2301 399.339C76.816 400.892 76.6382 401.716 76.423 402.567H75.0288C75.2759 401.453 75.9048 400.46 76.8067 399.76C78.6594 398.281 81.4852 397.205 83.5344 395.306Z" fill="#D26066"/>
<path d="M79.3797 395.044C77.5514 396.697 75.5535 398.152 73.4192 399.386C70.9677 400.883 71.0425 401.706 70.7899 402.558H69.4331C69.6802 401.443 70.3091 400.45 71.211 399.751C73.0637 398.281 75.3094 397.636 79.3797 395.044Z" fill="#D26066"/>
<path d="M73.7935 395.418C72.5677 396.597 70.8086 397.29 67.9359 399.311C65.5967 400.986 65.7464 401.716 65.4937 402.567H64.137C64.3841 401.453 65.0129 400.46 65.9148 399.76C67.7675 398.281 69.798 397.449 73.7935 395.418Z" fill="#D26066"/>
<path d="M85.4431 400.574L90 400.677C90.0739 400.68 90.1476 400.666 90.2156 400.637C90.2836 400.608 90.3442 400.564 90.393 400.508C90.7533 400.163 91.0678 399.773 91.3287 399.348C91.3287 398.843 90.393 398.281 89.3263 398.104C88.3747 397.998 87.4164 398.233 86.6221 398.768C86.1574 399.218 85.717 399.693 85.3028 400.19C85.2756 400.222 85.2573 400.26 85.2499 400.301C85.2424 400.342 85.246 400.384 85.2603 400.423C85.2746 400.462 85.2991 400.497 85.3313 400.523C85.3634 400.55 85.402 400.567 85.4431 400.574Z" fill="#E9BBB1"/>
<path d="M78.4908 401.313H81.0546C81.2979 401.313 80.9423 400.378 80.0534 400.312C78.8464 400.172 78.2382 401.098 78.4908 401.313Z" fill="#E9BBB1"/>
<path d="M72.2121 401.313H74.8228C75.066 401.313 74.7105 400.378 73.8216 400.312C72.5677 400.172 72.0156 401.098 72.2121 401.313Z" fill="#E9BBB1"/>
<path d="M66.8038 401.313H69.3676C69.6109 401.313 69.2553 400.378 68.3664 400.312C67.1593 400.172 66.5511 401.098 66.8038 401.313Z" fill="#E9BBB1"/>
<path d="M61.6667 401.201H64.2399C64.4832 401.201 64.1276 400.312 63.2387 400.209C62.0223 400.059 61.4234 400.986 61.6667 401.201Z" fill="#E9BBB1"/>
<path d="M108.948 219.86L107.816 228.862L72.7549 217.54C73.2789 213.488 73.9339 210.054 74.6263 206.985C95.764 203.308 108.948 219.86 108.948 219.86Z" fill="#DB877C"/>
<path d="M80.6243 276.041C80.6243 276.041 79.6886 289.861 83.8806 290.188C87.5485 290.469 91.675 284.574 91.8996 278.024C92.1242 271.474 81.5319 269.051 80.6243 276.041Z" fill="#DB877C"/>
<path d="M117.613 219.86C117.613 219.86 130.788 203.308 151.935 206.985C152.627 210.063 153.282 213.488 153.806 217.54C155.35 229.638 155.677 247.323 152.253 278.08C156.23 295.55 156.847 312.093 153.778 324.36C150.887 335.944 143.335 369.808 144.337 379.679C145.16 383.226 148.182 388.934 158.765 395.998C161.741 397.982 164.95 399.46 165.886 401.332C165.949 401.462 165.978 401.607 165.97 401.752C165.963 401.897 165.919 402.037 165.842 402.16C165.766 402.284 165.659 402.385 165.533 402.457C165.406 402.528 165.264 402.566 165.119 402.567H136.411C134.091 402.567 133.885 401.248 133.08 399.938C129.234 399.938 127.915 399.835 127.513 397.13C127.4 395.574 127.375 394.012 127.438 392.452C127.541 386.52 128.804 367.132 128.954 364.54C129.562 353.816 124.967 314.011 123.742 301.407C123.005 293.831 123.419 286.188 124.967 278.735L118.736 228.899L117.613 219.86Z" fill="#E4A999"/>
<path d="M127.513 397.102C127.915 399.835 129.234 399.91 133.08 399.91C131.345 397.315 129.471 394.816 127.466 392.424C127.394 393.983 127.41 395.545 127.513 397.102Z" fill="#DB877C"/>
<path d="M139.209 396.167C140.912 398.525 141.483 398.731 142.456 399.994C143.058 400.725 143.421 401.623 143.495 402.567H145.104C144.449 399.601 141.034 396.831 139.93 395.718C138.908 394.737 138.102 393.555 137.562 392.246C137.736 393.681 138.306 395.039 139.209 396.167Z" fill="#D26066"/>
<path d="M143.027 395.306C143.027 395.306 143.822 397.065 147.331 399.339C149.745 400.892 149.923 401.716 150.138 402.567H151.551C151.304 401.453 150.675 400.46 149.773 399.76C147.902 398.281 145.076 397.205 143.027 395.306Z" fill="#D26066"/>
<path d="M147.172 395.044C149.002 396.695 151 398.15 153.132 399.386C155.584 400.883 155.509 401.706 155.762 402.558H157.165C156.918 401.443 156.289 400.45 155.387 399.751C153.488 398.281 151.252 397.636 147.172 395.044Z" fill="#D26066"/>
<path d="M152.767 395.418C153.993 396.597 155.752 397.29 158.625 399.311C160.955 400.986 160.814 401.716 161.067 402.567H162.424C162.177 401.453 161.548 400.46 160.646 399.76C158.793 398.281 156.763 397.449 152.767 395.418Z" fill="#D26066"/>
<path d="M141.118 400.574L136.58 400.658C136.506 400.661 136.432 400.648 136.364 400.618C136.296 400.589 136.235 400.545 136.187 400.49C135.821 400.15 135.506 399.759 135.251 399.329C135.251 398.824 136.187 398.263 137.253 398.085C138.202 397.979 139.158 398.214 139.948 398.749C140.413 399.203 140.85 399.685 141.258 400.19C141.285 400.222 141.304 400.26 141.311 400.301C141.319 400.342 141.315 400.384 141.301 400.423C141.286 400.462 141.262 400.497 141.23 400.523C141.198 400.55 141.159 400.567 141.118 400.574Z" fill="#E9BBB1"/>
<path d="M148.07 401.313H145.506C145.254 401.313 145.609 400.378 146.498 400.312C147.715 400.172 148.323 401.098 148.07 401.313Z" fill="#E9BBB1"/>
<path d="M154.358 401.313H151.794C151.542 401.313 151.897 400.378 152.796 400.312C153.984 400.172 154.592 401.098 154.358 401.313Z" fill="#E9BBB1"/>
<path d="M159.757 401.313H157.165C156.913 401.313 157.268 400.378 158.157 400.312C159.402 400.172 159.972 401.098 159.757 401.313Z" fill="#E9BBB1"/>
<path d="M164.885 401.201H162.321C162.068 401.201 162.424 400.312 163.322 400.209C164.529 400.059 165.137 400.986 164.885 401.201Z" fill="#E9BBB1"/>
<path d="M117.613 219.86L118.736 228.862L153.797 217.54C153.282 213.488 152.627 210.054 151.925 206.985C130.788 203.308 117.613 219.86 117.613 219.86Z" fill="#DB877C"/>
<path d="M145.937 276.041C145.937 276.041 146.873 289.861 142.671 290.188C139.003 290.469 134.877 284.574 134.652 278.024C134.428 271.474 145.001 269.051 145.937 276.041Z" fill="#DB877C"/>
<path d="M161.9 224.81C161.9 224.81 161.282 227.926 162.939 228.45C164.604 228.029 171.566 217.119 171.257 215.453C170.948 213.788 163.135 220.356 161.9 224.81Z" fill="#D26066"/>
<path d="M168.525 197.525H159.42C159.347 193.558 159.063 189.597 158.569 185.66C157.889 179.552 156.61 173.525 154.751 167.667C153.507 163.924 152.562 160.649 152.664 152.695C152.701 149.859 152.15 147.046 151.046 144.433C149.427 140.634 148.239 134.786 147.415 128.227C145.806 115.014 145.881 98.9201 147.771 90.8824C148.604 87.3079 149.801 85.3336 151.364 85.9137C158.784 88.6647 167.149 100.09 167.149 100.09C167.149 100.09 167.589 116.334 167.823 131.052C167.898 135.307 168.884 139.497 170.714 143.338C172.773 147.211 174.045 151.454 174.457 155.821C175.309 165.739 168.525 197.525 168.525 197.525Z" fill="#E4A999"/>
<path d="M147.415 128.18C145.806 114.967 145.881 98.8731 147.771 90.8354C148.986 90.7652 150.205 90.7652 151.42 90.8354C154.854 107.285 149.82 122.294 147.415 128.18Z" fill="#DB877C"/>
<path d="M155.715 141.167C155.715 141.167 157.39 146.95 159.505 146.566C160.656 146.351 161.919 137.948 161.282 137.518C160.646 137.087 155.518 140.016 155.715 141.167Z" fill="#DB877C"/>
<path d="M168.525 197.525C168.525 197.525 172.848 209.081 172.735 213.863C172.37 216.127 170.583 216.726 170.462 217.081C170.34 217.437 164.52 223.921 162.04 227.374C161.88 227.599 161.652 227.768 161.39 227.856C161.127 227.944 160.844 227.946 160.58 227.863C160.316 227.78 160.085 227.616 159.921 227.393C159.756 227.171 159.666 226.902 159.664 226.626C159.834 225.776 160.15 224.962 160.599 224.221C162.115 220.768 165.643 218.522 166.213 215.659C166.784 212.796 164.37 206.966 164.37 206.966C164.37 206.966 162.938 219.018 159.692 219.739C157.184 220.338 159.448 217.353 158.971 213.049C158.494 208.744 155.387 205.217 159.392 197.553C163.397 189.89 168.525 197.525 168.525 197.525Z" fill="#E4A999"/>
<path d="M154.106 213.516C142.072 217.053 116.368 223.809 116.368 223.809L114.123 197.984H112.12L110.38 222.817L70.9585 212.206C71.6808 202.22 73.0435 192.291 75.0382 182.479C75.6831 179.144 76.5267 175.851 77.5646 172.617C79.1123 168.552 80.0396 164.278 80.3156 159.938V159.367H146.751L146.947 162.623C147.116 165.289 147.517 167.934 148.145 170.53C149.979 177.847 153.75 195.308 154.106 213.516Z" fill="#213555"/>
<path d="M70.9958 165.505C70.9958 165.355 79.0149 164.083 81.0828 164.364C83.1507 164.644 87.2491 169.978 88.269 170.614C89.289 171.25 91.3475 171.718 91.4879 172.485C91.6282 173.253 89.9252 174.001 88.0819 173.636C86.2385 173.271 71.4076 170.474 70.9958 165.505Z" fill="#D26066"/>
<path d="M78.7996 88.8518C78.7996 88.8518 78.3691 93.7456 77.6299 99.0136C77.2307 102.249 76.6244 105.456 75.8147 108.614C74.9403 111.093 73.5021 113.335 71.6133 115.164C68.1418 118.823 63.2949 122.172 59.4491 124.811C57.035 126.439 54.7706 128.114 53.2079 129.359C51.6453 130.603 50.747 131.333 50.747 131.333C50.8312 131.548 57.297 148.176 61.62 153.865C65.9429 159.554 72.0157 166.347 72.0157 166.347L63.2107 174.638C63.2107 174.638 52.7307 165.346 42.2601 157.636C31.7895 149.926 29.1789 140.437 28.0374 128.975C34.9522 109.606 57.8584 91.3034 57.8584 91.3034L78.7996 88.8518Z" fill="#E4A999"/>
<path d="M77.63 99.0136C77.2307 102.249 76.6244 105.456 75.8147 108.614C74.9404 111.093 73.5021 113.335 71.6134 115.164C70.2472 105.302 73.0918 93.6426 73.0918 93.6426L77.63 99.0136Z" fill="#DB877C"/>
<path d="M53.1893 129.377C51.6735 130.556 50.7284 131.352 50.7284 131.352C50.7284 131.352 49.4278 129.274 44.1785 127.487C47.2884 127.406 50.3742 128.053 53.1893 129.377Z" fill="#DB877C"/>
<path d="M84.021 168.799C82.2899 167.358 64.2027 163.344 63.033 165.187C61.0493 168.303 61.5733 172.673 63.1828 174.638C64.5302 176.303 70.0883 182.254 73.9341 184.378C74.8365 185.172 75.8252 185.863 76.8815 186.437C80.4092 188.467 82.6549 189.59 83.3286 188.308C83.7216 187.569 79.3144 183.751 76.5821 182.114C77.4077 182.07 78.2271 182.279 78.9307 182.713C81.0361 184.219 86.7626 187.859 87.4083 186.016C87.717 185.146 84.3672 182.273 81.3823 180.402C80.6068 179.942 79.9899 179.256 79.6138 178.437C79.4959 178.222 79.4249 177.986 79.4055 177.742C79.3862 177.499 79.4189 177.254 79.5015 177.024C82.0373 178.483 87.1931 181.543 87.9884 181.843C89.1768 182.292 90.1405 181.758 90.0938 181.047C90.0938 180.561 84.3111 176.116 81.0735 173.795C81.139 173.608 81.3542 173.477 81.6349 173.365C82.1029 173.187 82.6099 173.137 83.1035 173.221C83.5971 173.305 84.0592 173.52 84.4421 173.842C86.497 175.574 88.6873 177.139 90.992 178.521C92.7699 179.382 92.9757 178.83 93.1816 178.015C93.1348 176.921 86.5474 170.885 84.021 168.799Z" fill="#E4A999"/>
<path d="M167.149 100.043C167.215 100.239 160.599 95.5887 152.262 90.4049C154.246 104.955 144.168 132.212 144.168 132.212L145.104 159.348H81.9717L82.477 134.608C82.477 134.608 73.1199 114.022 71.3514 93.2962C67.0097 93.8857 62.8177 92.4448 57.821 91.2845C59.7816 86.3456 62.9419 81.973 67.0163 78.5618C71.0908 75.1507 75.9509 72.8085 81.1576 71.7469C82.8887 71.1761 95.0716 67.321 103.343 64.2612C103.409 63.6249 103.343 60.3686 103.343 57.234C103.343 54.0994 103.231 50.9928 103.231 50.9928C103.231 50.9928 122.741 50.0571 122.974 50.0571C123.181 52.5186 123.259 54.9891 123.208 57.4586C123.208 60.6494 123.208 63.653 123.208 63.653C130.311 66.6002 137.673 68.8806 145.198 70.465C156.426 72.6452 160.637 75.3026 164.183 80.973C165.962 83.7769 167.143 86.9175 167.654 90.1987C168.164 93.4798 167.992 96.8309 167.149 100.043Z" fill="#E4A999"/>
<path d="M123.059 50.7028C123.23 53.1704 122.707 55.6366 121.549 57.8225C120.392 60.0085 118.646 61.8272 116.509 63.0728C115.719 63.6022 114.808 63.924 113.861 64.0086C112.485 64.0086 110.764 63.1571 109.079 62.0248C107.317 60.8306 105.867 59.2309 104.851 57.3601C103.835 55.4893 103.283 53.402 103.24 51.2736V50.9928C103.24 50.9928 122.75 50.0571 122.984 50.0571C123.049 50.2658 123.074 50.4848 123.059 50.7028Z" fill="#D26066"/>
<path d="M152.262 90.405C150.082 95.0836 145.852 106.05 139.611 108.277C132.565 110.757 125.856 111.702 106.141 110.906C88.5403 110.195 82.9728 106.612 78.7715 99.1071C77.2402 96.3427 74.6822 94.2922 71.6507 93.3993L71.3513 93.3151C72.9796 93.0653 74.6451 93.2525 76.1774 93.8575C77.7096 94.4625 79.0537 95.4636 80.0721 96.7585C83.5343 101.156 86.4817 103.963 92.096 105.816C93.0317 106.134 94.0984 106.424 95.2306 106.686C97.1992 107.098 99.1939 107.373 101.2 107.51C109.999 108.068 118.827 107.993 127.616 107.285C130.947 107.095 134.258 106.635 137.515 105.91C138.071 105.771 138.608 105.566 139.115 105.302C143.401 102.719 150.615 90.4892 152.262 90.405Z" fill="#DB877C"/>
<path d="M105.421 61.3044C105.673 66.3573 109.631 76.7343 113.58 76.3974C117.529 76.0606 121.141 65.1689 121.646 61.4261C120.71 62.8858 115.667 74.3669 113.636 74.4044C110.745 74.4231 106.076 62.8109 105.421 61.3044Z" fill="#DB877C"/>
<path d="M114.647 78.587C112.841 78.587 111.035 78.587 109.248 78.4467C101.762 77.904 94.2764 76.0512 86.8562 77.9601C89.9063 77.9514 92.9548 78.1045 95.9887 78.4186C103.269 79.0642 110.558 80.9357 117.912 80.1871C122.394 79.7379 126.783 78.8116 131.274 78.4186C134.308 78.1045 137.357 77.9514 140.407 77.9601C137.536 77.2634 134.581 76.9798 131.63 77.118C127.887 77.2396 124.2 77.8291 120.486 78.2221C118.558 78.428 116.602 78.5496 114.647 78.587Z" fill="#DB877C"/>
<path d="M114.403 83.7896C114.403 83.7896 112.448 96.8895 114.516 104.123C115.779 96.4216 114.403 83.7896 114.403 83.7896Z" fill="#DB877C"/>
<path d="M101.2 107.51C99.1938 107.373 97.1991 107.098 95.2306 106.686C94.0984 106.424 93.0504 106.134 92.0959 105.816C92.9424 105.181 93.9291 104.759 94.9729 104.584C96.0166 104.41 97.087 104.489 98.0938 104.815C99.4413 105.273 100.556 106.241 101.2 107.51Z" fill="#D26066"/>
<path d="M137.515 105.91C134.262 106.647 130.955 107.119 127.625 107.323C127.929 106.638 128.373 106.024 128.927 105.52C129.481 105.016 130.134 104.633 130.844 104.394C134.016 103.103 136.917 105.376 137.515 105.91Z" fill="#D26066"/>
<path d="M96.5593 120.17C96.5593 120.17 98.1594 121.901 104.981 123.136C111.802 124.371 122.404 123.782 125.211 123.379C127.84 122.731 130.342 121.647 132.612 120.17C132.612 120.17 113.711 121.901 96.5593 120.17Z" fill="#DB877C"/>
<path d="M99.6753 129.302C99.6753 129.302 101.023 130.931 106.637 132.11C112.251 133.289 121.038 132.708 123.367 132.344C125.565 131.698 127.63 130.669 129.468 129.302C129.468 129.302 113.861 130.931 99.6753 129.302Z" fill="#DB877C"/>
<path d="M102.894 138.033C102.894 138.033 103.933 139.623 108.312 140.765C112.691 141.907 119.54 141.364 121.412 140.99C123.189 140.336 124.815 139.331 126.193 138.033C126.193 138.033 114.01 139.595 102.894 138.033Z" fill="#DB877C"/>
<path d="M114.001 112.114C114.001 112.114 112.251 117.831 114.357 122.406C115.938 118.532 114.001 112.114 114.001 112.114Z" fill="#DB877C"/>
<path d="M114.001 122.135C114.001 122.135 112.251 127.843 114.357 132.428C115.938 128.544 114.001 122.135 114.001 122.135Z" fill="#DB877C"/>
<path d="M80.1191 111.449C80.1191 111.449 82.7671 118.383 89.0644 120.853C87.324 121.817 78.1073 119.206 80.1191 111.449Z" fill="#DB877C"/>
<path d="M147.565 110.588C147.565 110.588 144.917 117.531 138.62 119.945C140.323 121.012 149.567 118.364 147.565 110.588Z" fill="#DB877C"/>
<path d="M115.058 145.659C115.058 145.659 112.251 150.974 115.152 156.288C117.781 149.523 115.058 145.659 115.058 145.659Z" fill="#D26066"/>
<path d="M90.5334 147.221C90.5334 147.221 96.4284 152.059 97.8507 158.777C91.6002 156.307 90.6551 149.458 90.5334 147.221Z" fill="#DB877C"/>
<path d="M135.71 147.221C135.71 147.221 129.805 152.059 128.392 158.777C134.643 156.307 135.588 149.458 135.71 147.221Z" fill="#DB877C"/>
<path d="M101.668 42.0196C101.668 42.0196 98.8614 35.8907 98.4684 34.1783C98.0754 32.466 100.396 28.7887 101.566 28.3582C101.406 23.6797 103.97 18.5988 108.293 18.1216C112.616 17.6444 120.832 18.4397 125.903 23.6142C125.211 23.3403 124.498 23.1244 123.77 22.9685C126.242 25.1404 128.165 27.8657 129.384 30.9221C129.599 34.6649 126.446 41.009 125.379 42.3939C124.313 43.7787 101.668 42.0196 101.668 42.0196Z" fill="#142033"/>
<path d="M101.743 40.6814C101.743 40.6814 100.948 37.3409 99.4414 36.7421C97.9349 36.1432 95.998 38.941 96.4097 41.1212C96.8214 43.3014 98.8706 45.9401 100.349 46.3799C101.547 46.7448 102.529 45.3132 102.716 44.4336C102.903 43.5541 101.743 40.6814 101.743 40.6814Z" fill="#DB877C"/>
<path d="M98.7116 42.7213C98.2049 41.9575 97.911 41.0725 97.8601 40.1574C97.9817 39.1188 98.7303 37.893 99.3292 37.9398C99.928 37.9866 101.294 41.1493 101.36 41.6826C101.425 42.216 100.218 42.244 100.424 42.9084C100.63 43.5727 101.444 44.1903 101.715 44.5552C101.987 44.9202 102.015 45.2757 101.294 45.3787C100.574 45.4816 99.4227 43.947 99.4227 43.947C99.4227 43.947 100.751 45.0137 101.098 44.7424C101.444 44.471 100.162 43.4885 99.7502 42.768C99.3385 42.0475 100.686 41.8323 100.686 41.4206C100.686 41.2803 99.8251 39.1001 99.2824 39.1375C98.7397 39.1749 98.1034 40.41 98.7116 42.7213Z" fill="#D26066"/>
<path d="M99.7503 40.8125C99.55 41.0362 99.4024 41.3019 99.3182 41.5901C99.234 41.8783 99.2154 42.1817 99.2637 42.4781C99.3287 42.9894 99.5743 43.4606 99.9561 43.8068C99.6375 43.6394 99.3696 43.3897 99.1803 43.0836C98.991 42.7775 98.8873 42.4262 98.8801 42.0663C98.862 41.7897 98.9382 41.5152 99.0962 41.2875C99.2543 41.0597 99.4848 40.8923 99.7503 40.8125Z" fill="#D26066"/>
<path d="M101.687 36.6672C101.481 36.7929 101.311 36.9705 101.194 37.1823C101.078 37.394 101.018 37.6326 101.023 37.8743C101.023 40.6814 101.706 50.1789 102.454 51.9099C103.19 53.1793 104.189 54.2768 105.383 55.1288C106.292 55.8602 107.107 56.7027 107.807 57.6365C108.148 58.1558 108.632 58.5653 109.201 58.8154C110.324 59.1523 114.422 59.3114 115.685 58.8154C116.425 58.541 117.074 58.0645 117.557 57.44C118.034 56.9154 118.609 56.4894 119.25 56.1861C121.274 55.3646 123.019 53.9775 124.275 52.1906C125.155 50.7309 125.969 40.7095 125.969 40.7095C125.645 40.7511 125.317 40.672 125.048 40.4873C124.779 40.3027 124.587 40.0253 124.509 39.7083C124.359 38.7726 124.275 37.8369 124.228 37.1631C124.21 36.9205 124.129 36.6866 123.995 36.4835C123.861 36.2805 123.677 36.1151 123.461 36.0029C122.683 35.6755 121.975 35.2023 121.374 34.6087C121.2 32.8709 121.144 31.1234 121.206 29.378C121.206 29.378 106.861 28.7043 104.092 29.378C103.98 30.3792 104.008 32.8214 103.97 34.2718C103.96 34.5904 103.869 34.9012 103.705 35.1746C103.541 35.4481 103.311 35.6752 103.034 35.8344L101.687 36.6672Z" fill="#E4A999"/>
<path d="M110.548 53.5099C110.832 53.1668 111.191 52.8927 111.596 52.7084C112.002 52.5241 112.444 52.4344 112.889 52.4461C113.334 52.4578 113.771 52.5706 114.167 52.776C114.562 52.9814 114.905 53.2739 115.171 53.6316C113.647 54.0049 112.051 53.9629 110.548 53.5099Z" fill="#DB877C"/>
<path d="M124.93 43.1423C124.759 43.9073 124.441 44.6318 123.994 45.2757C123.135 46.569 122.44 47.9647 121.927 49.4303C122.921 48.3844 123.785 47.2219 124.5 45.9682C124.794 45.0555 124.94 44.1013 124.93 43.1423Z" fill="#DB877C"/>
<path d="M101.958 43.1423C102.107 43.8958 102.386 44.6177 102.782 45.2757C103.546 46.5853 104.156 47.9796 104.597 49.4303C103.715 48.3651 102.955 47.2037 102.333 45.9682C102.076 45.0485 101.95 44.0972 101.958 43.1423Z" fill="#DB877C"/>
<path d="M114.955 42.0196C114.955 42.0196 115.386 42.8056 118.352 42.8337C121.318 42.8617 122.301 41.4114 122.301 41.4114L115.564 41.6547L114.955 42.0196Z" fill="#DB877C"/>
<path d="M116.078 39.4744C115.592 40.1812 115.337 41.0214 115.349 41.8792C116.696 41.7763 119.091 39.3528 119.091 39.3528C118.086 39.2716 117.074 39.3125 116.078 39.4744Z" fill="#D26066"/>
<path d="M115.994 40.9434C115.919 40.9434 114.909 42.0101 115.058 42.2346C115.208 42.4592 115.667 42.1785 115.667 42.1785L115.994 40.9434Z" fill="#DB877C"/>
<path d="M115.592 42.0103C115.592 41.898 116.004 39.802 117.023 39.5119C118.133 39.1939 119.31 39.1939 120.42 39.5119C121.356 39.8581 122.291 41.3833 122.291 41.3833C121.049 41.7951 119.754 42.0283 118.446 42.0758C115.816 42.2816 115.592 42.0103 115.592 42.0103Z" fill="white"/>
<path d="M120.074 40.6253C120.043 40.9896 119.869 41.3269 119.59 41.5635C119.312 41.8002 118.951 41.917 118.586 41.8885C118.405 41.8744 118.229 41.8248 118.068 41.7426C117.906 41.6604 117.763 41.5472 117.645 41.4095C117.407 41.1314 117.29 40.7702 117.318 40.4054C117.347 40.0406 117.519 39.7021 117.797 39.4643C118.075 39.2265 118.436 39.109 118.801 39.1375C119.167 39.1662 119.507 39.339 119.746 39.618C119.984 39.897 120.102 40.2593 120.074 40.6253Z" fill="#312342"/>
<path d="M120.673 41.2243C120.775 40.7939 119.288 40.4944 119.185 40.9529C119.166 41.2149 120.673 41.5331 120.673 41.2243Z" fill="white"/>
<path d="M115.498 39.7458C116.86 39.5941 118.235 39.5941 119.596 39.7458C120.626 40.0642 121.557 40.6408 122.301 41.4207C122.301 41.4207 121.524 39.4838 119.971 39.1282C119.224 38.9083 118.439 38.8497 117.668 38.9562C116.897 39.0626 116.157 39.3318 115.498 39.7458Z" fill="#312342"/>
<path d="M116.93 38.6041C117.953 38.4863 118.989 38.5305 119.999 38.7351C120.652 38.9629 121.262 39.2981 121.805 39.7269C121.475 39.2093 121.034 38.7714 120.513 38.445C119.334 38.1047 118.075 38.1606 116.93 38.6041Z" fill="#DB877C"/>
<path d="M110.146 36.0403C110.78 36.7395 111.298 37.5356 111.68 38.3983C111.853 39.3241 111.881 40.2709 111.765 41.2054C111.699 41.2054 109.5 37.0041 109.5 37.0041L110.146 36.0403Z" fill="#DB877C"/>
<path d="M106.553 37.2006C107.816 37.2006 110.689 37.5468 110.661 37.4626C110.574 36.9621 110.399 36.4807 110.146 36.0403C108.406 36.0403 107.208 35.3292 105.739 35.6473C105.236 35.8197 104.773 36.0894 104.375 36.441C103.976 36.7926 103.651 37.2193 103.418 37.6965C104.443 37.4249 105.494 37.2587 106.553 37.2006Z" fill="#312342"/>
<path d="M115.479 36.0403C114.963 36.7874 114.509 37.5761 114.123 38.3983C113.852 39.2907 113.813 40.2377 114.01 41.1493C114.675 39.5398 115.835 36.6859 115.835 36.6859L115.479 36.0403Z" fill="#DB877C"/>
<path d="M119.073 37.2006C117.809 37.2006 114.937 37.5468 114.965 37.4626C115.052 36.9621 115.226 36.4807 115.479 36.0403C117.22 36.0403 118.418 35.3292 119.887 35.6473C120.389 35.8197 120.853 36.0894 121.251 36.441C121.649 36.7926 121.974 37.2193 122.207 37.6965C121.182 37.4249 120.132 37.2587 119.073 37.2006Z" fill="#312342"/>
<path d="M110.436 44.9297C110.436 44.9297 112.092 48.2047 113.009 48.0737C113.926 47.9427 115.377 44.9016 115.377 44.9016C115.377 44.9016 113.87 46.2865 112.654 46.1367C111.81 45.9662 111.037 45.5456 110.436 44.9297Z" fill="#DB877C"/>
<path d="M112.822 45.6127C113.695 45.4587 114.55 45.2205 115.377 44.9016C114.729 45.6839 113.841 46.23 112.85 46.4549C111.812 46.511 110.436 44.9297 110.436 44.9297C111.199 45.2595 112.001 45.489 112.822 45.6127Z" fill="#D26066"/>
<path d="M112.251 43.9189C111.512 44.0967 111.68 45.2663 112.747 45.3412C113.814 45.4161 114.104 44.5739 113.805 44.1061C113.552 43.8253 112.878 43.7692 112.251 43.9189Z" fill="#E9BBB1"/>
<path d="M107.891 49.0092C107.891 49.0092 108.639 50.5532 109.332 50.6093C111.692 50.7831 114.06 50.8175 116.425 50.7122C117.594 50.4783 118.567 48.7847 118.567 48.7847L107.891 49.0092Z" fill="white"/>
<path d="M110.604 42.1692C110.604 42.1692 110.155 42.9739 107.217 42.8991C104.279 42.8242 103.324 41.2803 103.324 41.2803L110.005 41.7575L110.604 42.1692Z" fill="#DB877C"/>
<path d="M109.556 39.4743C110.023 40.2384 110.252 41.1247 110.211 42.0194C108.883 41.8604 106.562 39.2123 106.562 39.2123C107.567 39.1734 108.573 39.2615 109.556 39.4743Z" fill="#D26066"/>
<path d="M109.575 40.8872C109.65 40.8872 110.661 41.9539 110.511 42.1785C110.361 42.4031 109.903 42.1223 109.903 42.1223L109.575 40.8872Z" fill="#DB877C"/>
<path d="M109.968 42.1318C109.968 42.0101 109.622 39.8206 108.611 39.4743C107.525 39.0996 106.353 39.0573 105.243 39.3527C104.307 39.6802 103.324 41.2803 103.324 41.2803C104.541 41.7529 105.822 42.04 107.123 42.1318C109.743 42.4031 109.968 42.1318 109.968 42.1318Z" fill="white"/>
<path d="M108.34 40.4568C108.348 40.6362 108.321 40.8154 108.259 40.9842C108.198 41.153 108.104 41.3081 107.983 41.4406C107.862 41.5731 107.716 41.6805 107.553 41.7565C107.39 41.8325 107.214 41.8758 107.035 41.8838C106.855 41.8918 106.676 41.8643 106.507 41.8031C106.339 41.7418 106.183 41.6479 106.051 41.5266C105.918 41.4054 105.811 41.2593 105.735 41.0966C105.659 40.9339 105.616 40.7579 105.608 40.5785C105.592 40.2161 105.72 39.8622 105.965 39.5946C106.21 39.327 106.551 39.1676 106.913 39.1515C107.275 39.1354 107.629 39.2638 107.897 39.5086C108.165 39.7534 108.324 40.0945 108.34 40.4568Z" fill="#312342"/>
<path d="M110.127 39.7739C108.781 39.5672 107.415 39.517 106.057 39.6241C105.016 39.9262 104.074 40.4975 103.324 41.2803C103.324 41.2803 104.148 39.2873 105.701 38.9598C106.453 38.7595 107.24 38.7287 108.006 38.8695C108.771 39.0102 109.496 39.3191 110.127 39.7739Z" fill="#312342"/>
<path d="M108.696 38.5386C107.685 38.3738 106.655 38.3738 105.645 38.5386C104.974 38.7443 104.341 39.0606 103.774 39.4743C104.112 38.9483 104.567 38.5067 105.102 38.1831C106.304 37.8672 107.579 37.9933 108.696 38.5386Z" fill="#DB877C"/>
<path d="M108.929 41.0371C108.929 40.5786 107.47 40.4569 107.432 40.9435C107.404 41.2242 108.901 41.3459 108.929 41.0371Z" fill="white"/>
<path d="M126.053 40.7189C126.053 40.7189 126.848 37.369 128.355 36.7702C129.861 36.1713 131.798 38.9785 131.386 41.1493C130.975 43.3202 128.926 45.9776 127.447 46.4173C126.249 46.7729 125.267 45.3413 125.08 44.4617C124.893 43.5822 126.053 40.7189 126.053 40.7189Z" fill="#E4A999"/>
<path d="M129.581 42.7587C130.084 41.9901 130.378 41.1029 130.432 40.1855C130.301 39.1469 129.562 37.9305 128.954 37.9679C128.346 38.0053 126.989 41.1774 126.923 41.7107C126.858 42.2441 128.065 42.2721 127.859 42.9365C127.653 43.6009 126.839 44.2091 126.568 44.5833C126.296 44.9576 126.268 45.2945 126.989 45.3974C127.709 45.5003 128.86 43.9658 128.86 43.9658C128.86 43.9658 127.522 45.0325 127.176 44.7611C126.83 44.4898 128.112 43.5166 128.523 42.7868C128.935 42.0569 127.541 41.8511 127.588 41.4394C127.588 41.3084 128.448 39.1188 128.991 39.1656C129.534 39.2124 130.179 40.4569 129.581 42.7587Z" fill="#D26066"/>
<path d="M128.533 40.8403C128.732 41.0665 128.879 41.3339 128.963 41.6234C129.047 41.913 129.066 42.2175 129.019 42.5153C128.952 43.0232 128.707 43.4908 128.327 43.8346C128.646 43.6704 128.915 43.4227 129.104 43.1178C129.294 42.813 129.397 42.4624 129.403 42.1035C129.423 41.8254 129.348 41.5487 129.19 41.319C129.031 41.0893 128.8 40.9205 128.533 40.8403Z" fill="#DB877C"/>
</g>
<defs>
<filter id="filter0_dd_124_328" x="0" y="0" width="683" height="441.437" filterUnits="userSpaceOnUse" color-interpolation-filters="sRGB">
<feFlood flood-opacity="0" result="BackgroundImageFix"/>
<feColorMatrix in="SourceAlpha" type="matrix" values="0 0 0 0 0 0 0 0 0 0 0 0 0 0 0 0 0 0 127 0" result="hardAlpha"/>
<feMorphology radius="4" operator="erode" in="SourceAlpha" result="effect1_dropShadow_124_328"/>
<feOffset dy="10"/>
<feGaussianBlur stdDeviation="16"/>
<feColorMatrix type="matrix" values="0 0 0 0 0.0745098 0 0 0 0 0.0980392 0 0 0 0 0.152941 0 0 0 0.1 0"/>
<feBlend mode="normal" in2="BackgroundImageFix" result="effect1_dropShadow_124_328"/>
<feColorMatrix in="SourceAlpha" type="matrix" values="0 0 0 0 0 0 0 0 0 0 0 0 0 0 0 0 0 0 127 0" result="hardAlpha"/>
<feMorphology radius="6" operator="erode" in="SourceAlpha" result="effect2_dropShadow_124_328"/>
<feOffset dy="6"/>
<feGaussianBlur stdDeviation="7"/>
<feColorMatrix type="matrix" values="0 0 0 0 0.0745098 0 0 0 0 0.0980392 0 0 0 0 0.152941 0 0 0 0.12 0"/>
<feBlend mode="normal" in2="effect1_dropShadow_124_328" result="effect2_dropShadow_124_328"/>
<feBlend mode="normal" in="SourceGraphic" in2="effect2_dropShadow_124_328" result="shape"/>
</filter>
<clipPath id="clip0_124_328">
<rect width="627" height="385.437" fill="white" transform="translate(28 18)"/>
</clipPath>
</defs>
</svg>
