<svg width="747" height="429" viewBox="0 0 747 429" fill="none" xmlns="http://www.w3.org/2000/svg">
<g clip-path="url(#clip0_45_4)" filter="url(#filter0_dd_45_4)">
<path d="M143.083 390.876C142.86 390.525 120.716 355.016 104.825 307.087C95.4872 278.928 90.1074 252.038 88.8224 227.178C87.2119 196.056 92.0606 168.069 103.231 143.894C129.728 86.618 191.578 50.6043 287.052 36.8121L287.284 38.4569C192.392 52.1548 130.978 87.8773 104.739 144.579C79.6819 198.72 91.8036 262.532 106.384 306.53C122.206 354.28 144.265 389.625 144.479 390.002L143.083 390.876Z" fill="#F9EADA"/>
<path d="M683.795 354.203L682.201 353.731C709.614 261.127 682.63 237.535 656.502 214.722C644.046 203.843 631.17 192.586 624.805 174.005C621.747 165.062 622.235 154.474 622.732 142.223C623.161 132.303 623.649 121.056 622.304 108.754C618.269 71.9178 596.716 47.5974 558.226 36.538C529.426 28.2713 501.43 30.9612 501.156 30.9869L500.985 29.3421C501.276 29.3421 529.537 26.5922 558.646 34.936C575.831 39.8532 589.88 47.6145 600.536 57.8944C613.84 70.8213 621.739 87.8773 624 108.548C625.362 120.978 624.857 132.286 624.437 142.266C623.915 154.354 623.469 164.796 626.416 173.449C632.618 191.61 644.757 202.215 657.615 213.454C684.112 236.635 711.525 260.587 683.795 354.203Z" fill="#F9EADA"/>
<path d="M132.426 388.897H616.856C616.856 388.897 702.632 333.84 676.702 260.921C662.789 221.807 623.306 215.964 611.442 186.812C594.703 145.641 624.291 104.573 580.516 62.5032C521.681 6.0068 371.116 12.2175 288.037 32.3832C120.065 73.1856 50.5386 232.652 132.426 388.897Z" fill="#F4C9BF"/>
<path d="M185.29 133.417H153.928V135.122H185.29V133.417Z" fill="white"/>
<path d="M214.048 119.257H182.686V120.961H214.048V119.257Z" fill="white"/>
<path d="M72.2461 308.577C72.2461 308.577 68.6568 299.068 69.8903 292.301L75.6556 292.703C75.6556 292.703 72.9143 301.784 74.3963 308.457L72.2461 308.577Z" fill="#5E3B3B"/>
<path d="M132.092 339.734C131.475 364.842 116.09 384.1 97.7402 382.764C95.5467 382.601 93.3838 382.151 91.3068 381.427C89.8141 383.044 88.1113 384.453 86.2439 385.616C70.6614 395.399 48.0543 385.616 35.7442 363.703C23.434 341.79 26.0897 316.099 41.6722 306.324C50.8641 300.559 62.506 301.604 73.0343 307.926C79.365 297.406 89.1566 291.033 99.9847 291.821C118.334 293.157 132.709 314.591 132.092 339.734Z" fill="#DD7660"/>
<path d="M127.963 360.079C122.103 374.402 110.659 383.654 97.7402 382.712C95.5473 382.555 93.3845 382.111 91.3067 381.393C89.8078 383 88.1059 384.406 86.2439 385.573C70.6699 395.356 48.0542 385.573 35.7441 363.66C25.4043 345.276 25.627 324.254 35.1958 312.158C30.9126 324.22 32.6259 340.213 40.6699 354.579C52.98 376.467 75.5871 386.276 91.2125 376.493C93.0717 375.321 94.7707 373.913 96.2667 372.304C98.3462 373.028 100.512 373.475 102.709 373.632C112.586 374.36 121.632 369.066 127.963 360.079Z" fill="#E14E4E"/>
<path d="M107.883 377.255L106.846 375.302C112.689 372.209 117.675 366.83 121.272 359.762L123.243 360.764C119.439 368.243 114.128 373.948 107.883 377.255Z" fill="#5E3B3B"/>
<path d="M37.526 322.301L35.5043 321.444C37.4716 316.707 40.8289 312.678 45.1331 309.888L46.3153 311.755C42.3778 314.291 39.3107 317.971 37.526 322.301Z" fill="#5E3B3B"/>
<path d="M39.5477 361.792C34.1422 352.189 31.7693 341.49 32.8487 331.664L35.0503 331.904C34.0137 341.276 36.301 351.504 41.4752 360.705L39.5477 361.792Z" fill="#5E3B3B"/>
<path d="M119.731 304.337C105.604 286.167 88.6426 295.111 87.923 295.505L86.8607 293.569C87.0577 293.466 106.17 283.289 121.47 302.992L119.731 304.337Z" fill="#5E3B3B"/>
<path d="M115.353 315.114C113.04 319.183 106.315 319.731 100.345 316.339C94.3736 312.946 91.4096 306.915 93.7226 302.812C96.0355 298.709 102.76 298.195 108.731 301.587C114.702 304.979 117.666 311.044 115.353 315.114Z" fill="#FF7182"/>
<path d="M407.943 46.9208H376.573L376.521 45.2675H407.943V46.9208Z" fill="white"/>
<path d="M167.412 311.301H136.05V313.006H167.412V311.301Z" fill="white"/>
<path d="M503.298 82.8488H471.936V84.5535H503.298V82.8488Z" fill="white"/>
<path d="M532.047 68.6969H500.685V70.4016H532.047V68.6969Z" fill="white"/>
<path d="M554.483 82.8488H523.121V84.5535H554.483V82.8488Z" fill="white"/>
<path d="M472.569 206.096C468.063 215.099 463.626 223.332 463.626 223.332C452.843 216.533 441.689 210.341 430.216 204.785C422.507 201.144 417.872 196.15 419.243 190.308C420.819 183.583 428.991 183.506 428.991 183.506C428.991 183.506 421.282 179.625 417.418 178.409C410.976 176.37 399.737 169.165 401.835 160.265C404.405 149.454 417.598 152.675 417.598 152.675C417.598 152.675 411.824 146.378 407.943 142.823C401.176 136.63 396.13 126.067 402.11 117.243C409.314 106.621 418.849 108.017 426.413 111.315C431.947 113.731 441.173 121.595 446.116 134.599C446.116 134.599 452.738 126.59 459.377 130.016C466.016 133.443 474.514 145.813 465.168 171.53C465.168 171.53 476.621 165.713 480.451 173.877C484.597 182.726 477.932 195.37 472.569 206.096Z" fill="#17A37C"/>
<path d="M463.403 224.085C463.283 223.469 451.187 161.635 416.99 123.334L418.009 122.426C452.464 160.976 464.619 223.212 464.739 223.837L463.403 224.085Z" fill="#5E3B3B"/>
<path d="M407.412 143.294C400.079 136.578 395.419 125.793 401.476 116.824C407.429 108.052 415.885 105.978 426.618 110.664L426.079 111.906C415.893 107.469 408.209 109.337 402.606 117.595C397.004 125.853 401.433 135.97 408.337 142.283L407.412 143.294Z" fill="#5E3B3B"/>
<path d="M437.455 209.103C434.842 207.758 432.315 206.533 429.891 205.367C421.222 201.281 417.195 195.867 418.549 190.11C419.671 185.322 423.92 183.66 426.636 183.086C423.573 181.557 420.427 180.202 417.212 179.025L417.624 177.723C421.479 178.94 428.983 182.7 429.3 182.863L431.801 184.114H429C428.692 184.114 421.341 184.285 419.911 190.393C418.3 197.246 425.865 201.907 430.508 204.1C432.923 205.239 435.485 206.498 438.115 207.852L437.455 209.103Z" fill="#5E3B3B"/>
<path d="M473.255 205.856L472.038 205.248L472.612 204.1C477.838 193.683 483.749 181.887 479.894 173.62L481.127 173.037C485.282 181.904 479.2 194.025 473.829 204.734L473.255 205.856Z" fill="#5E3B3B"/>
<path d="M446.63 134.993L445.576 134.137C445.859 133.794 452.627 125.741 459.677 129.374C462.31 130.827 464.514 132.949 466.067 135.524L464.92 136.253C463.496 133.881 461.472 131.928 459.052 130.59C452.978 127.455 446.69 134.925 446.63 134.993Z" fill="#5E3B3B"/>
<path d="M462.838 169.491L461.519 169.157C463.106 163.234 463.774 157.103 463.497 150.978L464.86 150.901C465.143 157.165 464.461 163.435 462.838 169.491Z" fill="#5E3B3B"/>
<path d="M462.641 144.417C462.158 141.791 461.292 139.251 460.071 136.878L461.244 136.184C462.552 138.681 463.473 141.361 463.977 144.134L462.641 144.417Z" fill="#5E3B3B"/>
<path d="M490.088 234.965C482.378 239.094 475.122 242.718 475.122 242.718C470.864 232.495 466.042 222.517 460.679 212.829C457.021 206.387 456.242 200.527 460.139 197.067C464.611 193.092 470.419 197.118 470.419 197.118C468.708 193.876 466.821 190.73 464.765 187.695C461.21 183.017 456.841 172.275 462.787 167.024C470 160.633 477.769 169.525 477.769 169.525C477.769 169.525 476.819 162.166 475.842 157.712C474.129 149.925 475.842 139.911 484.503 136.647C494.928 132.715 500.985 138.471 504.711 144.605C507.418 149.077 510.057 159.245 507.05 170.981C507.05 170.981 515.745 168.608 518.743 174.365C521.741 180.122 521.579 193.143 502.081 206.712C502.081 206.712 513.115 208.314 511.753 216.016C510.288 224.428 499.237 230.082 490.088 234.965Z" fill="#57D0AF"/>
<path d="M475.722 243.694L474.48 243.129C474.711 242.632 497.053 192.74 491.964 148.486L493.318 148.331C498.458 192.963 475.945 243.189 475.722 243.694Z" fill="#5E3B3B"/>
<path d="M475.208 157.883C473.357 149.411 475.448 139.371 484.297 136.03C492.949 132.766 500.025 135.542 505.328 144.279L504.163 144.982C499.186 136.775 492.838 134.265 484.777 137.272C476.716 140.279 474.814 149.659 476.544 157.558L475.208 157.883Z" fill="#5E3B3B"/>
<path d="M463.575 219.597C462.401 217.344 461.227 215.176 460.088 213.163C455.959 205.89 455.805 199.996 459.685 196.553C462.804 193.786 466.539 194.582 468.792 195.507C467.418 192.965 465.902 190.503 464.251 188.132L465.339 187.275C467.419 190.333 469.327 193.505 471.053 196.775L472.372 199.242L470.068 197.658C469.845 197.503 464.603 193.983 460.593 197.546C456.087 201.547 459.086 208.614 461.27 212.469C462.418 214.491 463.6 216.667 464.791 218.937L463.575 219.597Z" fill="#5E3B3B"/>
<path d="M490.653 235.222L490.011 234.023L490.987 233.491C499.888 228.737 509.971 223.34 511.359 215.579L512.695 215.819C511.205 224.231 500.805 229.791 491.63 234.665L490.653 235.222Z" fill="#5E3B3B"/>
<path d="M519.497 181.612C519.668 179.235 519.213 176.854 518.178 174.708C515.471 169.508 507.341 171.65 507.256 171.667L506.904 170.356C507.281 170.253 516.173 167.906 519.386 174.074C520.55 176.431 521.059 179.059 520.859 181.681L519.497 181.612Z" fill="#5E3B3B"/>
<path d="M501.541 204.228L500.685 203.191C504.762 199.787 508.292 195.777 511.153 191.301L512.31 192.029C509.366 196.623 505.734 200.737 501.541 204.228Z" fill="#5E3B3B"/>
<path d="M515.068 186.752L513.817 186.213C514.786 184.119 515.441 181.893 515.762 179.608L517.124 179.711C516.799 182.149 516.106 184.523 515.068 186.752Z" fill="#5E3B3B"/>
<path d="M441.259 119.077C430.285 103.657 416.664 103.751 416.527 103.751V102.389C417.11 102.389 431.005 102.269 442.398 118.28L441.259 119.077Z" fill="#5E3B3B"/>
<path d="M257.823 76.6295C257.823 76.6295 252.127 58.6397 269.225 59.1109L270.605 69.6735L257.823 76.6295Z" fill="#5E3B3B"/>
<path d="M199.211 388.923H127.201V390.756H199.211V388.923Z" fill="#5E3B3B"/>
<path d="M436.881 388.923H343.137V390.756H436.881V388.923Z" fill="#5E3B3B"/>
<path d="M369.163 323.971H368.349L350.333 266.087L352.432 265.436L370.208 322.541L369.163 322.866V323.971Z" fill="white"/>
<path d="M334.252 206.961L332.15 207.615L343.798 245.036L345.9 244.382L334.252 206.961Z" fill="white"/>
<path d="M580.645 389.317H459.454C459.456 374.87 454.923 360.787 446.493 349.054L545.102 278.963C568.203 311.123 580.634 349.72 580.645 389.317Z" fill="#E14E4E"/>
<path d="M545.102 278.971L446.493 349.063C438.046 337.229 426.142 328.301 412.415 323.509L423.689 290.639L451.71 208.94C489.326 222.078 521.951 246.542 545.102 278.971Z" fill="#F0606C"/>
<path d="M451.701 208.94L423.689 290.639L412.424 323.508C398.447 318.667 383.285 318.442 369.171 322.866L351.387 265.761L344.877 244.722L333.235 207.303C371.877 195.048 413.447 195.622 451.736 208.94H451.701Z" fill="#FF9E7E"/>
<path d="M199.048 389.317C199.295 349.767 211.829 311.272 234.916 279.16L333.123 349.157C324.839 360.766 320.351 374.653 320.273 388.914L199.048 389.317Z" fill="#57D0AF"/>
<path d="M235.554 278.275L234.277 280.068L332.501 350.027L333.778 348.234L235.554 278.275Z" fill="white"/>
<path d="M374.26 321.487C372.546 321.881 370.85 322.344 369.171 322.875C354.653 327.499 342.028 336.71 333.192 349.123C333.192 349.123 333.192 349.123 333.192 349.166C332.395 350.271 331.641 351.41 330.922 352.592L228.037 279.271C254.723 241.851 292.765 214.035 336.516 199.953L349.365 241.261L356.587 264.477L374.26 321.487Z" fill="#17A37C"/>
<path d="M374.268 321.487C372.555 321.881 370.842 322.344 369.171 322.875C354.654 327.501 342.029 336.711 333.192 349.123C333.192 349.123 333.192 349.123 333.192 349.165C332.395 350.271 331.641 351.41 330.922 352.592L228.037 279.271L374.268 321.487Z" fill="#16916B"/>
<path d="M450.652 208.581L411.379 323.159L413.461 323.873L452.735 209.295L450.652 208.581Z" fill="white"/>
<path d="M544.45 278.039L445.851 348.136L447.126 349.93L545.726 279.834L544.45 278.039Z" fill="white"/>
<path d="M331.17 354.16L226.418 279.52L227.061 278.663C253.96 241.064 292.689 212.752 336.096 198.934L337.149 198.6L346.641 228.189L344.542 228.857L335.719 201.367C293.529 215.073 255.879 242.581 229.494 279.048L330.528 351.059C331.067 350.202 331.616 349.423 332.164 348.652L332.292 348.472C341.293 335.88 354.12 326.533 368.863 321.821L369.034 321.77C370.311 321.376 371.604 321.007 372.898 320.69L351.73 252.021L353.829 251.378L375.63 322.292L374.474 322.558C372.761 322.943 371.107 323.415 369.471 323.92L369.3 323.971C355.103 328.543 342.75 337.552 334.057 349.671L333.963 349.817C333.209 350.862 332.464 351.984 331.735 353.149L331.17 354.16Z" fill="#5E3B3B"/>
<path d="M198.466 390.765V389.839C198.692 356.445 207.634 323.689 224.405 294.811L225.99 295.736C209.53 324.062 200.677 356.164 200.29 388.923L233.786 388.82V390.662L198.466 390.765Z" fill="#5E3B3B"/>
<path d="M106.956 388.554L48.8834 388.737L48.8892 390.57L106.962 390.388L106.956 388.554Z" fill="#5E3B3B"/>
<path d="M496.025 388.923H459.797V390.756H496.025V388.923Z" fill="#5E3B3B"/>
<path d="M452.344 208.597C474.918 216.511 495.83 228.539 514.023 244.071L512.207 244.928C494.334 229.813 473.841 218.103 451.744 210.379C435.729 204.812 419.031 201.449 402.11 200.382L402.23 198.557C419.313 199.613 436.172 202.991 452.344 208.597Z" fill="#5E3B3B"/>
<path d="M581.904 389.848V390.765H525.202V388.931H580.028C579.955 370.391 577.132 351.963 571.65 334.251L573.363 333.711C579.017 351.888 581.897 370.813 581.904 389.848Z" fill="#5E3B3B"/>
<path d="M352.938 203.723L352.569 201.924C360.752 200.256 369.037 199.135 377.369 198.566L377.498 200.39C369.247 200.959 361.042 202.072 352.938 203.723Z" fill="#5E3B3B"/>
<path d="M359.14 338.509H368.863C372.198 338.509 374.625 339.28 376.144 340.821C377.669 342.372 378.432 344.745 378.432 347.957V349.602C378.495 351.371 378.146 353.131 377.412 354.742C376.746 356.05 375.63 357.072 374.268 357.621V357.723C377.472 358.82 379.077 361.675 379.083 366.29V369.811C379.083 372.98 378.252 375.396 376.59 377.058C374.876 378.728 372.486 379.559 369.274 379.559H359.14V338.509ZM368.117 355.239C368.646 355.279 369.176 355.211 369.677 355.038C370.178 354.866 370.638 354.593 371.03 354.237C371.766 353.287 372.112 352.092 371.998 350.896V348.6C372.092 347.465 371.812 346.331 371.201 345.37C370.891 345.023 370.504 344.753 370.072 344.581C369.639 344.408 369.173 344.339 368.709 344.377H365.599V355.239H368.117ZM369.291 373.726C369.753 373.764 370.217 373.703 370.653 373.547C371.09 373.39 371.487 373.141 371.818 372.818C372.469 371.908 372.773 370.796 372.675 369.682V366.093C372.675 364.217 372.349 362.915 371.707 362.195C371.281 361.795 370.775 361.492 370.223 361.304C369.67 361.116 369.084 361.049 368.503 361.107H365.633V373.726H369.291Z" fill="#503D39"/>
<path d="M382.852 338.509H392.07L396.182 367.917H396.276L400.379 338.509H409.597V379.628H403.497V348.489H403.377L398.683 379.602H393.277L388.583 348.489H388.463V379.602H382.826L382.852 338.509Z" fill="#503D39"/>
<path d="M414.437 338.509H420.896V379.628H414.437V338.509Z" fill="#503D39"/>
<path d="M284.054 108.917L284.32 90.1388L267.332 96.3752L263.674 108.917L249.043 111.718C249.043 111.718 245.316 129.185 270.793 127.009C282.546 125.998 294.891 112.026 294.891 112.026L284.054 108.917Z" fill="#FFB486"/>
<path d="M234.24 192.141L238.18 174.322L287.943 177.475L281.587 204.545L234.24 192.141Z" fill="#FFB486"/>
<path d="M367.895 203.74C366.738 202.472 363.149 197.64 363.149 197.64L304.614 153.514L323.152 140.133L371.57 191.961C371.57 191.961 380.685 193.006 382.638 193.451C385.208 194.042 391.513 197.983 391.513 197.983C392.652 198.523 392.558 200.741 390.408 200.733C390.408 200.733 384.848 200.639 382.432 200.647C379.213 200.682 376.012 201.128 372.906 201.975C372.869 201.985 372.835 202.003 372.806 202.029C372.777 202.055 372.755 202.087 372.742 202.124C372.728 202.16 372.724 202.199 372.729 202.237C372.733 202.275 372.747 202.312 372.769 202.343L375.699 206.995C375.776 207.118 375.824 207.258 375.837 207.402C375.851 207.547 375.83 207.693 375.776 207.828C375.723 207.963 375.639 208.084 375.53 208.18C375.421 208.277 375.291 208.346 375.151 208.383C374.797 208.476 374.428 208.495 374.067 208.439C373.706 208.383 373.361 208.253 373.052 208.057C371.244 206.727 369.522 205.285 367.895 203.74Z" fill="#FFB486"/>
<path d="M174.445 181.981L216.738 165.173L225.801 139.345L247.869 145.744C247.869 145.744 238.086 167.786 232.963 177.74C230.393 182.812 225.63 184.474 219.959 185.03C199.305 187.069 176.844 189.434 176.844 189.434L174.445 181.981Z" fill="#FFB486"/>
<path d="M110.479 277.883C110.479 277.883 115.97 287.212 125.693 277.027C125.693 277.027 162.238 233.543 166.195 211.116L187.081 218.423L213.5 189.434L168.097 180.867C163.657 180.331 159.158 181.155 155.195 183.229C151.233 185.302 147.992 188.529 145.901 192.483L110.479 277.883Z" fill="#FFB486"/>
<path d="M162.863 374.497C162.863 374.497 164.431 383.62 177.572 375.585C177.572 375.585 221.107 322.429 226.658 297.723C227.629 293.499 229.551 289.553 232.278 286.184L246.216 270.499L214.434 257.495L162.863 374.497Z" fill="#FFB486"/>
<path d="M187.046 184.234L231.121 192.115L241.598 214.465L219.454 237.955L177.058 217.84L187.046 184.234Z" fill="#DD7660"/>
<path d="M178.052 375.979L177.092 375.191C177.529 374.66 220.593 321.864 226.05 297.586C227.046 293.261 229.012 289.219 231.798 285.765L245.762 270.053L246.687 270.91L232.74 286.621C230.09 289.916 228.216 293.767 227.258 297.886C221.741 322.421 179.833 373.803 178.052 375.979Z" fill="#5E3B3B"/>
<path d="M227.515 197.529L233.323 188.748L284.054 199.585C284.054 199.585 285.707 222.184 275.487 240.781C267.426 255.447 246.07 275.904 246.07 275.904L210.784 258.043L223.943 221.138L227.515 197.529Z" fill="#DD7660"/>
<path d="M186.729 390.439H134.234C134.091 388.921 134.16 387.39 134.439 385.89C134.439 385.847 185.993 386.182 185.993 386.182L186.729 390.439Z" fill="#5E3B3B"/>
<path d="M185.993 386.182L134.465 385.847C134.962 380.51 141.652 378 147.897 376.424L149.148 376.116C150.005 375.902 150.913 375.713 151.718 375.525L152.977 375.251C154.676 374.935 156.344 374.474 157.963 373.871C158.888 373.426 160.019 372.783 160.996 372.158C161.33 371.961 161.638 371.755 161.921 371.584C162.855 371.002 163.514 370.556 163.514 370.556C166.889 371.661 171.969 374.839 183.114 369.785L183.457 371.73L183.646 372.826L185.993 386.182Z" fill="#5E3B3B"/>
<path d="M149.148 376.107C148.662 377.306 148.372 378.576 148.291 379.868L147.238 379.825C147.306 378.658 147.53 377.506 147.906 376.399L149.148 376.107Z" fill="white"/>
<path d="M152.986 375.242C152.442 376.493 152.12 377.829 152.035 379.191H150.981C151.051 377.945 151.302 376.716 151.727 375.542L152.986 375.242Z" fill="white"/>
<path d="M183.671 372.852C180.036 374.782 175.999 375.836 171.884 375.927C167.931 376.022 164.076 374.693 161.021 372.184C161.355 371.987 161.664 371.781 161.946 371.61C163.908 373.323 171.087 378.069 183.483 371.755L183.671 372.852Z" fill="white"/>
<path d="M185.984 385.265H134.456V386.413H185.984V385.265Z" fill="white"/>
<path d="M132.109 297.355L79.622 296.498C79.5086 294.976 79.6037 293.446 79.9047 291.949C79.9047 291.907 131.441 293.106 131.441 293.106L132.109 297.355Z" fill="#5E3B3B"/>
<path d="M131.441 293.08L79.9304 291.881C80.5129 286.561 87.2462 284.171 93.5255 282.672L94.7762 282.389L97.3462 281.841L98.5969 281.593C100.304 281.313 101.981 280.877 103.608 280.29C104.542 279.871 105.681 279.245 106.675 278.671L107.609 278.106C108.543 277.541 109.219 277.112 109.219 277.112C112.569 278.277 117.598 281.533 128.828 276.667L129.137 278.611L129.308 279.716L131.441 293.08Z" fill="#5E3B3B"/>
<path d="M94.7763 282.389C94.2628 283.581 93.9474 284.848 93.8425 286.141L92.7888 286.081C92.8837 284.912 93.1314 283.76 93.5255 282.655L94.7763 282.389Z" fill="white"/>
<path d="M98.6397 281.593C98.0777 282.835 97.7357 284.165 97.6289 285.525L96.5752 285.482C96.6622 284.234 96.9365 283.007 97.389 281.841L98.6397 281.593Z" fill="white"/>
<path d="M129.351 279.717C125.681 281.581 121.628 282.566 117.512 282.595C113.561 282.62 109.731 281.228 106.718 278.671L107.652 278.106C109.579 279.819 116.681 284.719 129.18 278.612L129.351 279.717Z" fill="white"/>
<path d="M79.9418 291.312L79.9225 292.46L131.006 293.316L131.025 292.168L79.9418 291.312Z" fill="white"/>
<path d="M217.321 156.521L238.651 157.969L242.181 113.286C242.181 113.286 234.12 116.627 230.882 122.709C226.256 131.327 217.321 156.521 217.321 156.521Z" fill="#5E718E"/>
<path d="M219.04 151.088L218.978 152.63L235.889 153.307L235.95 151.765L219.04 151.088Z" fill="#587DCB"/>
<path d="M299.345 114.279L297.855 150.764L297.752 153.386L293.631 167.546L289.999 180.002L234.933 176.215L233.511 157.755L232.758 147.766L234.471 141.649L242.181 113.286L252.675 111.007C252.675 111.007 254.996 120.242 264.925 120.524C278.7 120.918 287.978 109.808 287.978 109.808L299.345 114.279Z" fill="#5E718E"/>
<path d="M296.544 157.549L293.631 167.546C285.435 164.326 276.925 161.969 268.24 160.513C264.548 159.913 260.83 159.459 257.104 159.005L249.565 158.097C244.237 157.455 238.78 156.821 233.528 157.763L233.349 148.931L234.205 145.847C241.671 143.009 249.761 142.219 257.635 143.56C265.75 145.097 273.693 147.436 281.347 150.542C286.539 152.592 291.613 154.931 296.544 157.549Z" fill="#FFFCFF"/>
<path d="M285.767 151.869L305.59 162.492L330.433 141.932C330.433 141.932 317.464 125.107 305.59 116.318C301.658 113.406 287.695 109.825 287.695 109.825L285.767 151.869Z" fill="#5E718E"/>
<path d="M288.337 85.6929C286.05 96.6067 277.038 104.642 266.921 104.051C255.939 103.426 254.371 93.0944 257.344 78.9167C259.639 68.003 267.88 61.8779 276.747 63.7454C285.613 65.6129 290.607 74.7791 288.337 85.6929Z" fill="#FFB486"/>
<path d="M284.457 94.7905C284.457 94.7905 292.124 92.8459 295.045 81.2125C297.966 69.5792 289.425 58.3484 282.195 57.5346C274.965 56.7208 267.718 59.6762 267.718 59.6762C267.718 59.6762 262.029 79.3793 284.628 84.6648L284.457 94.7905Z" fill="#5E3B3B"/>
<path d="M304.014 67.6259C303.02 72.3547 298.986 75.5157 295.011 74.6762C291.036 73.8367 288.612 69.3307 289.605 64.602C290.599 59.8732 294.625 56.7122 298.609 57.5431C302.592 58.3741 305.008 62.8886 304.014 67.6259Z" fill="#5E3B3B"/>
<path d="M298.403 61.7921C299.645 65.7241 297.966 69.7504 294.651 70.7955C291.336 71.8406 287.661 69.4848 286.427 65.5528C285.193 61.6208 286.872 57.5859 290.179 56.5494C293.486 55.5128 297.169 57.8943 298.403 61.7921Z" fill="#5E3B3B"/>
<path d="M207.7 286.75C206.526 286.575 205.407 286.136 204.427 285.465C203.448 284.794 202.634 283.909 202.046 282.878L203.152 282.312C203.647 283.171 204.331 283.906 205.151 284.462C205.972 285.018 206.908 285.382 207.889 285.525L207.7 286.75Z" fill="#5E3B3B"/>
<path d="M180.469 209.672L179.878 211.096L222.233 228.692L222.825 227.268L180.469 209.672Z" fill="#E14E4E"/>
<path d="M238.497 272.332L237.384 271.27C237.649 270.987 264.154 243 271.196 220.89L272.661 221.353C265.508 243.848 238.771 272.058 238.497 272.332Z" fill="#E14E4E"/>
<path d="M231.413 192.8L167.952 181.45L168.174 180.225L230.83 191.43L232.835 188.406L233.871 189.091L231.413 192.8Z" fill="#5E3B3B"/>
<path d="M275.625 204.219C250.576 202.943 240.005 197.306 239.568 197.075L240.305 195.721C240.416 195.781 251.064 201.427 275.702 202.677L275.625 204.219Z" fill="#E14E4E"/>
<path d="M267.983 104.625C266.007 104.65 264.043 104.319 262.184 103.648L262.672 102.509C263.015 102.646 271.059 105.936 279.368 99.1509L280.156 100.11C276.756 103.001 272.446 104.6 267.983 104.625Z" fill="#5E3B3B"/>
<path d="M234.317 176.258L232.809 156.256C232.396 150.6 233.221 144.923 235.225 139.619L239.388 128.637L240.544 129.074L236.39 140.056C234.455 145.192 233.663 150.688 234.068 156.161L235.584 176.164L234.317 176.258Z" fill="#5E3B3B"/>
<path d="M326.525 137.178L300.602 159.522L301.609 160.69L327.531 138.346L326.525 137.178Z" fill="#587DCB"/>
<path d="M286.053 151.316L285.466 152.411L305.286 163.034L305.873 161.939L286.053 151.316Z" fill="#5E3B3B"/>
<path d="M126.173 278.963L125.213 278.166C125.581 277.729 161.698 233.783 165.579 211.775L165.699 211.09L177.966 214.808L177.606 215.998L166.692 212.675C162.152 235.222 127.655 277.198 126.173 278.963Z" fill="#5E3B3B"/>
<path d="M246.413 276.341L245.642 275.373C246.07 275.031 288.748 240.747 283.394 199.628L284.628 199.465C290.051 241.33 246.849 276.033 246.413 276.341Z" fill="#5E3B3B"/>
<path d="M223.309 220.89L210.152 257.798L211.322 258.215L224.479 221.307L223.309 220.89Z" fill="#5E3B3B"/>
<path d="M284.979 60.2673L283.814 59.839C283.874 59.6848 285.271 55.9584 288.474 55.0931C290.479 54.5534 292.689 55.2645 295.036 57.2005L294.24 58.16C292.227 56.4466 290.402 55.8641 288.8 56.2924C286.221 56.9863 284.988 60.2331 284.979 60.2673Z" fill="#5E3B3B"/>
<path d="M282.341 85.2046C276.13 84.9133 271.59 82.8745 268.84 79.1309C264.111 72.6889 266.433 63.634 266.535 63.2485L267.735 63.5655C267.735 63.6597 265.465 72.4404 269.842 78.4028C272.361 81.8294 276.584 83.6969 282.401 83.9624L282.341 85.2046Z" fill="#5E3B3B"/>
<path d="M287.022 87.3108C287.528 84.8984 286.2 82.5781 284.056 82.1283C281.913 81.6785 279.764 83.2695 279.258 85.6819C278.752 88.0943 280.079 90.4146 282.223 90.8644C284.367 91.3142 286.515 89.7233 287.022 87.3108Z" fill="#FFB486"/>
<path d="M519.917 292.249L527.892 299.043L531.242 301.904L543.715 305.845L550.568 283.769L556.307 265.359L528.809 237.089L515.933 278.483C515.176 280.916 515.149 283.517 515.858 285.965C516.566 288.412 517.977 290.597 519.917 292.249Z" fill="#FFFCFF"/>
<path d="M515.83 279.768L514.942 281.163L544.78 300.158L545.668 298.763L515.83 279.768Z" fill="#503D39"/>
<path d="M520.704 264.435L519.817 265.83L534.808 275.366L535.696 273.971L520.704 264.435Z" fill="#503D39"/>
<path d="M526.187 251.961L525.294 253.349L555.006 272.45L555.899 271.061L526.187 251.961Z" fill="#503D39"/>
<path d="M517.227 289.08C517.947 290.274 518.855 291.345 519.917 292.249L527.892 299.043L531.242 301.904L544.477 313.177C547.577 315.828 551.46 317.39 555.531 317.625C559.603 317.86 563.64 316.755 567.024 314.479L622.844 276.967L637.407 267.209L629.92 259.671L627.178 256.904C623.424 253.118 618.565 250.622 613.301 249.777C608.037 248.931 602.64 249.78 597.889 252.201L596.176 253.331L550.542 284L540.348 290.853C536.961 293.122 532.926 294.223 528.856 293.988C524.786 293.753 520.904 292.195 517.801 289.551L517.227 289.08Z" fill="#9BACC7"/>
<path d="M595.919 343.109C594.316 347.052 593.986 351.399 594.977 355.539C595.968 359.679 598.229 363.405 601.445 366.196L609.386 373.049L618.089 380.596L625.465 362.452L650.882 299.976C652.525 295.938 652.943 291.506 652.086 287.232C651.228 282.958 649.132 279.031 646.059 275.939L637.355 267.184L629.868 259.645L627.127 256.878C624.003 253.719 620.094 251.448 615.802 250.299L617.909 252.415C620.982 255.507 623.078 259.434 623.936 263.708C624.793 267.983 624.375 272.415 622.732 276.453L595.919 343.109Z" fill="#FFFCFF"/>
<path d="M597.487 361.544C598.562 363.286 599.897 364.855 601.445 366.196L609.386 373.049L618.089 380.596L622.63 384.528C626.59 387.96 631.514 390.084 636.728 390.609C641.943 391.133 647.192 390.033 651.756 387.458L718.301 349.868L693.646 324.502L625.174 363.197L625.088 363.249C620.812 365.655 615.932 366.773 611.034 366.47C606.137 366.166 601.432 364.452 597.487 361.535V361.544Z" fill="#9BACC7"/>
<path d="M694.246 323.982L693.061 325.135L705.652 338.091L706.837 336.939L694.246 323.982Z" fill="#503D39"/>
<path d="M680.182 331.775L678.997 332.927L703.652 358.289L704.838 357.137L680.182 331.775Z" fill="#503D39"/>
<path d="M666.148 339.668L664.963 340.82L677.293 353.504L678.479 352.352L666.148 339.668Z" fill="#503D39"/>
<path d="M652.114 347.565L650.929 348.717L675.584 374.08L676.77 372.927L652.114 347.565Z" fill="#503D39"/>
<path d="M638.091 355.445L636.905 356.597L649.285 369.341L650.471 368.189L638.091 355.445Z" fill="#503D39"/>
<path d="M624.046 363.321L622.861 364.473L647.516 389.836L648.702 388.683L624.046 363.321Z" fill="#503D39"/>
<path d="M603.464 249.231L602.345 250.448L615.646 262.675L616.765 261.458L603.464 249.231Z" fill="#503D39"/>
<path d="M589.919 257.943L588.8 259.16L614.841 283.098L615.96 281.88L589.919 257.943Z" fill="#503D39"/>
<path d="M576.34 266.586L575.221 267.803L588.245 279.775L589.364 278.558L576.34 266.586Z" fill="#503D39"/>
<path d="M562.778 275.27L561.659 276.488L587.7 300.425L588.818 299.208L562.778 275.27Z" fill="#503D39"/>
<path d="M549.211 283.966L548.091 285.183L561.167 297.211L562.287 295.995L549.211 283.966Z" fill="#503D39"/>
<path d="M535.637 292.602L534.518 293.819L560.559 317.757L561.678 316.539L535.637 292.602Z" fill="#503D39"/>
<path d="M596.192 346.649L595.233 347.996L609.945 358.482L610.905 357.136L596.192 346.649Z" fill="#503D39"/>
<path d="M601.856 331.549L600.896 332.895L629.699 353.425L630.659 352.079L601.856 331.549Z" fill="#503D39"/>
<path d="M607.521 316.49L606.561 317.836L620.966 328.104L621.926 326.757L607.521 316.49Z" fill="#503D39"/>
<path d="M613.195 301.42L612.235 302.766L641.039 323.296L641.999 321.95L613.195 301.42Z" fill="#503D39"/>
<path d="M618.854 286.343L617.895 287.69L632.366 297.997L633.326 296.65L618.854 286.343Z" fill="#503D39"/>
<path d="M624.533 271.287L623.573 272.633L652.377 293.163L653.337 291.817L624.533 271.287Z" fill="#503D39"/>
<path d="M556.599 318.472C551.953 318.476 547.457 316.824 543.92 313.811L545 312.552C547.966 315.075 551.675 316.562 555.564 316.786C559.452 317.01 563.307 315.96 566.544 313.794L603.381 289.028L604.306 290.399L567.47 315.165C564.255 317.323 560.471 318.475 556.599 318.472Z" fill="#503D39"/>
<path d="M706.505 388.923H592.895V390.756H706.505V388.923Z" fill="#5E3B3B"/>
<path d="M523.827 295.123L522.763 296.389L534.708 306.423L535.771 305.157L523.827 295.123Z" fill="#503D39"/>
<path d="M717.902 349.219L646.719 388.823L647.523 390.268L718.706 350.664L717.902 349.219Z" fill="#503D39"/>
<path d="M607.792 192.578L581.099 213.866L554.988 191.91C535.559 171.778 561.944 145.864 581.724 165.645C601.924 146.13 627.949 172.781 607.792 192.578Z" fill="#DD7660"/>
<path d="M615.691 177.286H614.449C614.465 173.814 613.465 170.413 611.571 167.502C609.678 164.591 606.973 162.299 603.792 160.907C596.665 157.815 588.783 159.708 582.153 166.107L581.716 166.527L581.288 166.098C571.333 156.153 560.171 158.217 554.003 164.385L553.146 163.529C559.64 157.069 571.308 154.791 581.75 164.856C588.603 158.526 596.964 156.641 604.297 159.828C607.687 161.316 610.57 163.76 612.594 166.86C614.617 169.961 615.693 173.584 615.691 177.286Z" fill="#5E3B3B"/>
<path d="M607.416 192.149L589.16 206.697L589.934 207.668L608.19 193.12L607.416 192.149Z" fill="#5E3B3B"/>
<path d="M574.032 208.306L567.495 186.838H547.338V185.005H568.857L573.826 201.315L581.185 170.707L585.853 185.005H617.258V186.838H584.526L581.45 177.449L574.032 208.306Z" fill="white"/>
</g>
<defs>
<filter id="filter0_dd_45_4" x="0" y="0" width="746.703" height="428.876" filterUnits="userSpaceOnUse" color-interpolation-filters="sRGB">
<feFlood flood-opacity="0" result="BackgroundImageFix"/>
<feColorMatrix in="SourceAlpha" type="matrix" values="0 0 0 0 0 0 0 0 0 0 0 0 0 0 0 0 0 0 127 0" result="hardAlpha"/>
<feMorphology radius="4" operator="erode" in="SourceAlpha" result="effect1_dropShadow_45_4"/>
<feOffset dy="10"/>
<feGaussianBlur stdDeviation="16"/>
<feColorMatrix type="matrix" values="0 0 0 0 0.0745098 0 0 0 0 0.0980392 0 0 0 0 0.152941 0 0 0 0.1 0"/>
<feBlend mode="normal" in2="BackgroundImageFix" result="effect1_dropShadow_45_4"/>
<feColorMatrix in="SourceAlpha" type="matrix" values="0 0 0 0 0 0 0 0 0 0 0 0 0 0 0 0 0 0 127 0" result="hardAlpha"/>
<feMorphology radius="6" operator="erode" in="SourceAlpha" result="effect2_dropShadow_45_4"/>
<feOffset dy="6"/>
<feGaussianBlur stdDeviation="7"/>
<feColorMatrix type="matrix" values="0 0 0 0 0.0745098 0 0 0 0 0.0980392 0 0 0 0 0.152941 0 0 0 0.12 0"/>
<feBlend mode="normal" in2="effect1_dropShadow_45_4" result="effect2_dropShadow_45_4"/>
<feBlend mode="normal" in="SourceGraphic" in2="effect2_dropShadow_45_4" result="shape"/>
</filter>
<clipPath id="clip0_45_4">
<rect width="690.703" height="372.876" fill="white" transform="translate(28 18)"/>
</clipPath>
</defs>
</svg>
