<svg width="850" height="532" viewBox="0 0 850 532" fill="none" xmlns="http://www.w3.org/2000/svg">
<g clip-path="url(#clip0_223_443)">
<path d="M640.702 210.17C606.102 162.903 557.475 127.794 501.766 109.857C446.057 91.9204 386.113 92.0733 330.495 110.294C274.878 128.515 226.43 163.871 192.071 211.315C157.712 258.758 139.199 315.863 139.174 374.474C139.174 374.474 213.726 374.151 308.194 373.844C309.076 345.642 320.866 318.888 341.074 299.229C361.282 279.57 388.326 268.546 416.497 268.485C444.668 268.423 471.76 279.328 492.053 298.898C512.347 318.468 524.254 345.171 525.259 373.369C620.249 373.369 686.986 374.458 694.294 374.458C694.395 315.37 675.615 257.8 640.702 210.17Z" fill="#6B6B6B"/>
<path d="M634.497 214.713C600.859 168.742 553.577 134.594 499.404 117.147C445.232 99.6998 386.94 99.8459 332.855 117.564C278.771 135.283 231.66 169.667 198.252 215.806C164.844 261.945 146.848 317.478 146.834 374.473C146.834 374.473 219.333 374.151 311.181 373.86C311.778 346.256 323.129 319.98 342.809 300.647C362.488 281.313 388.936 270.454 416.502 270.39C444.068 270.326 470.566 281.061 490.336 300.303C510.105 319.545 521.577 345.768 522.302 373.369C614.595 373.369 680.873 374.427 686.664 374.427C686.74 316.977 668.459 261.01 634.497 214.713Z" fill="#E6E6E6"/>
<path d="M93.8401 53.5093C93.8401 53.5093 104.718 56.2408 105.101 66.3687C105.484 76.4967 108.288 97.9188 108.962 102.461C110.494 108.722 113.773 113.847 114.355 123.776C114.937 133.704 108.226 163.674 108.763 166.912C110.494 172.896 111.75 182.058 102.634 185.925C94.8973 141.73 87.9723 65.3559 93.8401 53.5093Z" fill="#F3877C"/>
<path d="M19.5337 166.467C19.5337 166.467 10.0961 160.666 10.9541 158.441C11.812 156.216 19.9627 163.812 21.4029 164.242C15.8874 157.582 14.0948 153.792 15.5963 153.638C17.0977 153.485 23.1188 161.741 23.1188 161.741C23.1188 161.741 17.2509 152.288 18.2468 151.49C19.2426 150.692 25.4016 159.73 25.4016 159.73C25.4016 159.73 25.325 165.746 19.5337 166.467Z" fill="#EE6066"/>
<path d="M52.3969 50.3788C52.3969 50.3788 50.1601 56.1333 47.5862 62.5477C45.0123 68.9621 41.8715 76.512 40.5233 78.9519C39.6806 80.4864 37.168 84.154 34.1498 88.42C27.761 97.4584 19.0741 109.213 19.0741 109.213C19.0741 109.213 26.0144 134.794 31.6525 149.556C32.4951 152.318 30.7026 157.72 24.467 156.999C9.71305 140.426 -0.230171 113.295 -0.0463209 109.213C8.70188 88.4507 23.3486 70.8495 30.5188 62.3482C36.0496 55.7957 52.1365 50.3481 52.3969 50.3788Z" fill="#F6AA99"/>
<path d="M47.5868 62.5481C44.9056 69.1773 41.8721 76.5124 40.5239 78.9523C39.6812 80.4869 37.1686 84.1544 34.1504 88.4204C35.5752 69.6837 38.5322 63.5149 38.7466 62.8857L47.5868 62.5481Z" fill="#F3877C"/>
<path d="M31.6527 149.556C32.3266 150.858 32.7371 152.281 32.8607 153.743C32.9842 155.204 32.8184 156.676 32.3728 158.073C30.8407 162.676 24.9422 170.81 21.6482 170.441C18.3543 170.073 9.11579 164.671 8.94727 162.4C10.8777 160.866 16.3932 165.884 19.8557 165.884C23.8238 160.237 23.3335 153.884 25.6163 152.564C27.8991 151.244 31.6527 149.556 31.6527 149.556Z" fill="#F6AA99"/>
<path d="M31.607 193.828C31.607 193.828 31.607 198.708 31.7296 206.749C31.8522 219.025 32.036 238.437 32.2199 259.138C23.7321 286.852 36.954 313.568 35.5445 344.32V344.826C35.1921 350.704 34.3954 354.295 28.9718 359.389C23.5483 364.484 15.275 370.146 13.5438 371.834C12.5923 372.641 11.975 373.773 11.8125 375.011H37.1072C43.7411 375.011 41.8873 373.66 44.6757 370.944C46.2078 369.533 49.0268 370.714 51.3556 369.947C53.1481 369.348 53.0255 366.371 52.4127 361.737C52.2135 360.341 51.9531 358.775 51.7386 357.134C51.3268 352.906 51.1325 348.66 51.1564 344.412C51.708 323.021 54.6649 268.038 54.6649 268.038L62.0036 206.534L63.5356 194.258L31.607 193.828Z" fill="#F6AA99"/>
<path d="M31.0706 373.675H28.129C27.8532 373.675 28.2515 372.663 29.278 372.54C30.6569 372.371 31.3616 373.369 31.0706 373.675Z" fill="#F8BBB1"/>
<path d="M25.3402 373.675H22.4139C22.1228 373.675 22.5365 372.663 23.5476 372.54C24.9418 372.371 25.6313 373.369 25.3402 373.675Z" fill="#F8BBB1"/>
<path d="M20.2386 373.676H17.3123C17.0212 373.676 17.4349 372.832 18.4461 372.74C19.8403 372.602 20.5297 373.476 20.2386 373.676Z" fill="#F8BBB1"/>
<path d="M15.4744 373.676H12.8086C12.5481 373.676 12.9158 372.832 13.8504 372.74C15.0761 372.602 15.7349 373.476 15.4744 373.676Z" fill="#F8BBB1"/>
<path d="M51.3555 370.008C49.0267 370.775 46.2383 369.701 44.6909 371.005C47.893 367.138 48.0462 362.596 52.3513 361.798C53.0255 366.432 53.148 369.409 51.3555 370.008Z" fill="#F3877C"/>
<path d="M38.2563 364.775C38.5638 364.77 38.8657 364.858 39.1227 365.027C39.3797 365.196 39.5798 365.439 39.6972 365.724C39.8146 366.009 39.8436 366.322 39.7806 366.624C39.7177 366.925 39.5655 367.201 39.344 367.415L39.2062 367.537C37.3163 369.069 35.549 370.747 33.9205 372.555C33.4225 373.304 33.1366 374.173 33.0931 375.072H31.1934C31.2361 374.343 31.4447 373.634 31.8032 372.998C32.1617 372.362 32.6606 371.817 33.2617 371.404C34.7938 370.161 38.5474 367.399 39.0223 366.11C39.3134 365.297 38.2563 364.775 38.2563 364.775Z" fill="#EE6066"/>
<path d="M35.6055 372.954H40.5847C40.5847 372.954 41.3661 371.128 39.4663 370.791C38.6691 370.6 37.8293 370.716 37.1139 371.117C36.3986 371.518 35.8601 372.174 35.6055 372.954Z" fill="#F8BBB1"/>
<path d="M35.1308 366.141C35.1308 366.141 35.1308 367.768 31.7908 370.07C29.2782 371.804 26.9954 373.507 26.643 375.072H24.5747C25.4443 373.61 26.6078 372.346 27.9913 371.359C30.6571 369.364 34.1502 368.059 35.1308 366.141Z" fill="#EE6066"/>
<path d="M27.8838 368.151C27.1025 368.964 23.7625 371.573 22.4909 372.755C21.8106 373.372 21.3303 374.179 21.112 375.072H19.7944C20.3766 372.248 24.2681 370.299 27.8838 368.151Z" fill="#EE6066"/>
<path d="M23.1033 368.151C22.3373 368.964 18.982 371.573 17.7257 372.755C17.0462 373.375 16.5617 374.18 16.3315 375.072H15.0752C15.5961 372.248 19.5029 370.299 23.1033 368.151Z" fill="#EE6066"/>
<path d="M63.474 194.181L61.9419 206.457L31.668 206.764C31.668 198.723 31.5454 193.843 31.5454 193.843L63.474 194.181Z" fill="#F3877C"/>
<path d="M38.0566 256.59C38.0566 256.59 39.0219 267.593 43.373 267.516C47.2032 267.516 50.681 262.467 50.0069 257.25C49.3328 252.033 38.0566 250.989 38.0566 256.59Z" fill="#F3877C"/>
<path d="M104.151 193.828C104.151 193.828 104.151 198.708 104.028 206.749C103.906 219.025 103.722 238.437 103.538 259.138C112.01 286.852 98.8038 313.568 100.213 344.32V344.826C100.566 350.704 101.347 354.295 106.786 359.389C112.225 364.484 120.467 370.054 122.229 371.804C123.181 372.608 123.794 373.742 123.945 374.98H98.6506C92.0167 374.98 93.8705 373.63 91.0821 370.914C89.55 369.502 86.731 370.683 84.4022 369.916C82.6097 369.318 82.7323 366.341 83.3451 361.706C83.5443 360.31 83.8047 358.745 84.0039 357.103C84.4298 352.876 84.6292 348.63 84.6014 344.381C84.0499 322.99 81.0929 268.007 81.0929 268.007L73.7543 206.534L72.2222 194.258L104.151 193.828Z" fill="#F6AA99"/>
<path d="M104.687 373.675H107.629C107.904 373.675 107.506 372.663 106.479 372.54C105.101 372.371 104.396 373.369 104.687 373.675Z" fill="#F8BBB1"/>
<path d="M110.417 373.675H113.344C113.635 373.675 113.221 372.663 112.21 372.54C110.816 372.371 110.065 373.369 110.417 373.675Z" fill="#F8BBB1"/>
<path d="M115.519 373.676H118.445C118.736 373.676 118.323 372.832 117.311 372.74C115.917 372.602 115.228 373.476 115.519 373.676Z" fill="#F8BBB1"/>
<path d="M120.269 373.676H122.95C123.21 373.676 122.843 372.832 121.908 372.74C120.652 372.602 120.008 373.476 120.269 373.676Z" fill="#F8BBB1"/>
<path d="M84.4022 370.008C86.7309 370.775 89.5193 369.701 91.0667 371.005C87.8647 367.138 87.7114 362.596 83.4063 361.798C82.7322 366.432 82.6096 369.409 84.4022 370.008Z" fill="#F3877C"/>
<path d="M97.5017 364.775C97.1942 364.77 96.8923 364.858 96.6353 365.027C96.3783 365.196 96.1781 365.439 96.0607 365.724C95.9434 366.009 95.9143 366.322 95.9773 366.624C96.0403 366.925 96.1924 367.201 96.4139 367.415L96.5518 367.537C98.4417 369.069 100.209 370.747 101.837 372.555C102.335 373.304 102.621 374.173 102.665 375.072H104.565C104.522 374.343 104.313 373.634 103.955 372.998C103.596 372.362 103.097 371.817 102.496 371.404C100.964 370.161 97.2106 367.399 96.7356 366.11C96.4445 365.297 97.5017 364.775 97.5017 364.775Z" fill="#EE6066"/>
<path d="M100.152 372.954H95.1728C95.1728 372.954 94.3915 371.128 96.2913 370.791C97.0885 370.6 97.9283 370.716 98.6436 371.117C99.359 371.518 99.8975 372.174 100.152 372.954Z" fill="#F8BBB1"/>
<path d="M100.627 366.141C100.627 366.141 100.627 367.768 103.967 370.07C106.48 371.804 108.762 373.507 109.099 375.072H111.183C110.311 373.607 109.142 372.342 107.751 371.359C105.101 369.364 101.607 368.059 100.627 366.141Z" fill="#EE6066"/>
<path d="M107.874 368.151C108.655 368.964 111.995 371.573 113.252 372.755C113.938 373.37 114.423 374.177 114.646 375.072H115.963C115.381 372.248 111.474 370.299 107.874 368.151Z" fill="#EE6066"/>
<path d="M112.654 368.151C113.42 368.964 116.776 371.573 118.032 372.755C118.711 373.375 119.196 374.18 119.426 375.072H120.79C120.146 372.248 116.193 370.299 112.654 368.151Z" fill="#EE6066"/>
<path d="M72.2837 194.181L73.8158 206.457L104.09 206.764C104.09 198.723 104.212 193.843 104.212 193.843L72.2837 194.181Z" fill="#F3877C"/>
<path d="M97.7005 256.59C97.7005 256.59 96.7353 267.593 92.3842 267.516C88.554 267.516 85.0761 262.467 85.7503 257.25C86.4244 252.033 97.7158 250.989 97.7005 256.59Z" fill="#F3877C"/>
<path d="M98.8654 143.188C88.8941 148.816 77.647 151.786 66.2014 151.812C47.5253 151.705 37.0918 143.188 37.0918 143.188C37.0918 143.188 37.3523 73.5965 37.3523 65.2947C37.3523 58.4353 41.4889 54.3074 44.5224 53.4174C47.5559 52.5273 60.3642 46.7114 60.3642 46.7114L61.0383 40.0669L61.3906 35.7702L76.6042 34.8801L76.9413 39.1615L77.5082 46.65C77.5082 46.65 90.0406 51.9135 93.8402 53.4787C97.6397 55.044 99.5548 58.2972 99.6621 64.2205C99.7693 70.1438 98.8654 143.188 98.8654 143.188Z" fill="#F6AA99"/>
<path d="M76.9406 39.1922C75.6563 41.1131 74.1552 42.8792 72.4669 44.4557C71.6935 45.1729 70.7184 45.6343 69.674 45.777C68.6297 45.9198 67.5667 45.737 66.6297 45.2536C64.5052 43.8297 62.618 42.0793 61.0376 40.0669L61.39 35.7702L76.6036 34.8801L76.9406 39.1922Z" fill="#EE6066"/>
<path d="M55.3999 81.8061C55.5531 80.1488 49.532 79.581 49.0724 81.8061C48.6128 84.0312 55.1701 84.5069 55.3999 81.8061Z" fill="#EE6066"/>
<path d="M90.7756 81.8061C90.9135 80.1488 84.8924 79.581 84.4327 81.8061C83.9731 84.0312 90.5304 84.5069 90.7756 81.8061Z" fill="#EE6066"/>
<path d="M67.7643 122.011C67.7643 122.011 64.5469 128.149 68.0094 132.906C68.836 131.202 69.245 129.324 69.2024 127.429C69.1597 125.534 68.6667 123.677 67.7643 122.011Z" fill="#EE6066"/>
<path d="M51.9985 53.2944C57.1605 54.94 62.4891 56.0054 67.8862 56.4709C73.9667 56.7215 80.0344 55.7295 85.7197 53.5553C85.7197 53.5553 66.0477 55.3814 51.9985 53.2944Z" fill="#F3877C"/>
<path d="M101.285 142.329H34.2414L28.9404 199.536H64.638C65.1129 199.536 67.7021 185.925 67.7021 185.925C67.7021 185.925 70.3526 199.536 70.7663 199.536H106.464L101.285 142.329Z" fill="#213555"/>
<path d="M84.9695 20.1945C85.0615 19.949 86.1952 14.5321 84.5559 10.9873C82.9165 7.44252 81.3232 6.49111 77.9219 5.15606C74.8271 -0.184133 66.4926 -1.4578 60.0732 1.70335C53.9448 4.77243 45.8095 14.839 57.009 25.9644C68.2085 37.0898 82.4876 27.9133 84.9695 20.1945Z" fill="#142033"/>
<path d="M57.2077 22.6807C57.2077 22.6807 56.4417 19.3355 54.787 18.737C53.1324 18.1385 51.202 20.9314 51.631 23.1104C51.8986 24.2334 52.4055 25.2852 53.1168 26.1937C53.8282 27.1021 54.7272 27.8459 55.7523 28.3739C56.9932 28.7268 58.0197 27.2997 58.2189 26.4097C58.0924 25.1188 57.7506 23.8584 57.2077 22.6807Z" fill="#F3877C"/>
<path d="M54.0361 24.706C53.5099 23.9501 53.2023 23.0633 53.1475 22.1434C53.27 21.1152 54.0514 19.8876 54.6795 19.9336C55.3077 19.9797 56.7325 23.1408 56.8091 23.6779C56.8857 24.215 55.6141 24.2303 55.7826 24.8902C55.9512 25.55 56.8551 26.1792 57.1309 26.5475C57.4067 26.9158 57.4526 27.2534 56.7019 27.3608C55.9512 27.4682 54.7408 25.9337 54.7408 25.9337C54.7408 25.9337 56.135 26.9925 56.5027 26.7316C56.8704 26.4708 55.5682 25.4733 55.0932 24.7521C54.6183 24.0308 56.1197 23.816 56.0737 23.4017C56.0737 23.2789 55.1851 21.0845 54.6183 21.1306C54.0514 21.1766 53.3773 22.4196 54.0361 24.706Z" fill="#EE6066"/>
<path d="M55.1244 22.8032C54.9151 23.0197 54.7602 23.2828 54.6723 23.5709C54.5844 23.859 54.5661 24.1639 54.6188 24.4605C54.6927 24.9771 54.948 25.4505 55.3389 25.7956C55.0123 25.6362 54.7354 25.3904 54.5383 25.0847C54.3412 24.7791 54.2312 24.4253 54.2204 24.0615C54.2036 23.7797 54.2844 23.5006 54.449 23.2714C54.6137 23.0422 54.8522 22.8768 55.1244 22.8032Z" fill="#EE6066"/>
<path d="M56.5954 18.8902C56.1659 19.399 55.9418 20.0504 55.9673 20.7163C56.0766 22.2984 56.2864 23.8719 56.5954 25.4273C57.0496 28.5903 57.8989 31.6837 59.1234 34.6345C60.9655 36.8237 63.0938 38.7541 65.4509 40.3737C67.3978 40.9843 69.4905 40.9412 71.4107 40.2509C72.2993 39.7752 77.3858 36.3072 78.2131 34.9875C79.0405 33.6678 82.028 22.9413 82.028 22.9413C79.9291 23.2022 80.7258 20.5168 80.067 19.4273C79.4082 18.3377 78.1365 18.1689 77.3092 17.6165C76.2824 16.9452 75.3364 16.1574 74.4902 15.2687C73.8405 14.6883 73.3175 13.9798 72.9537 13.1877C72.5899 12.3956 72.3932 11.5368 72.3759 10.665L60.6095 16.2968C59.1093 16.8788 57.7434 17.7613 56.5954 18.8902Z" fill="#F6AA99"/>
<path d="M70.3989 24.2762C70.3989 24.2762 70.8432 25.0588 73.938 25.0741C77.0328 25.0895 78.0747 23.6624 78.0747 23.6624L71.0424 23.9079L70.3989 24.2762Z" fill="#F3877C"/>
<path d="M71.5789 21.7445C71.0697 22.4374 70.8007 23.278 70.8129 24.1383C72.2224 24.0309 74.7197 21.6217 74.7197 21.6217C73.6717 21.5336 72.6169 21.5748 71.5789 21.7445Z" fill="#EE6066"/>
<path d="M71.518 23.1868C71.4414 23.1868 70.3843 24.2609 70.5222 24.4911C70.66 24.7213 71.1656 24.4911 71.1656 24.4911L71.518 23.1868Z" fill="#F3877C"/>
<path d="M71.0581 24.2611C71.0581 24.1383 71.4871 22.0667 72.5902 21.7598C73.7542 21.445 74.9807 21.445 76.1446 21.7598C77.0945 22.0974 78.1057 23.6626 78.1057 23.6626C76.8058 24.0768 75.455 24.3091 74.0916 24.3531C71.2879 24.5219 71.0581 24.2611 71.0581 24.2611Z" fill="white"/>
<path d="M75.746 22.8802C75.7072 23.2497 75.5247 23.589 75.2379 23.8245C74.9511 24.0601 74.5832 24.1729 74.2139 24.1386C74.0238 24.1311 73.8372 24.0848 73.6657 24.0025C73.4941 23.9201 73.3412 23.8035 73.2164 23.6598C73.0915 23.516 72.9973 23.3482 72.9397 23.1666C72.882 22.9851 72.862 22.7936 72.881 22.604C72.9198 22.2334 73.1017 21.8927 73.388 21.6547C73.6743 21.4167 74.0422 21.3003 74.413 21.3303C74.6038 21.3398 74.7907 21.388 74.9623 21.472C75.1339 21.556 75.2867 21.6741 75.4113 21.819C75.536 21.964 75.6299 22.1328 75.6874 22.3152C75.745 22.4976 75.7649 22.6899 75.746 22.8802Z" fill="#321E41"/>
<path d="M76.3592 23.494C76.4512 23.0644 74.8271 22.7575 74.8271 23.2178C74.8271 23.6782 76.3592 23.7856 76.3592 23.494Z" fill="white"/>
<path d="M70.9658 21.9593C72.3918 21.8089 73.8296 21.8089 75.2557 21.9593C76.3207 22.2707 77.2902 22.846 78.0747 23.6319C77.8512 23.1012 77.5188 22.6234 77.0992 22.2295C76.6795 21.8356 76.1819 21.5344 75.6387 21.3454C74.859 21.1242 74.0425 21.0645 73.2391 21.1701C72.4357 21.2756 71.6621 21.5441 70.9658 21.9593Z" fill="#321E41"/>
<path d="M72.498 20.8546C73.5664 20.7449 74.6451 20.7914 75.7001 20.9927C76.3835 21.219 77.0253 21.5559 77.5999 21.9901C77.2559 21.4619 76.7944 21.0207 76.2517 20.7011C75.0153 20.3574 73.7024 20.4111 72.498 20.8546Z" fill="#F3877C"/>
<path d="M65.3743 18.2915C66.0329 18.9882 66.576 19.786 66.9829 20.6547C67.1323 21.5796 67.1323 22.5226 66.9829 23.4476L64.6235 19.2583L65.3743 18.2915Z" fill="#F3877C"/>
<path d="M61.6203 19.4579C62.9379 19.4579 65.9407 19.7955 65.9101 19.7188C65.82 19.2142 65.6383 18.7305 65.3739 18.2916C63.5507 18.2916 62.3097 17.5857 60.7776 17.908C59.7326 18.2401 58.8619 18.9742 58.3569 19.9489C59.4265 19.6809 60.5193 19.5165 61.6203 19.4579Z" fill="#321E41"/>
<path d="M70.9509 18.2915C70.4207 19.0386 69.9543 19.8291 69.5567 20.6547C69.2691 21.5424 69.2268 22.4916 69.4342 23.4015L71.3339 18.89L70.9509 18.2915Z" fill="#F3877C"/>
<path d="M74.7041 19.4579C73.3865 19.4579 70.3837 19.7955 70.4143 19.7188C70.5044 19.2142 70.6861 18.7305 70.9505 18.2916C72.7737 18.2916 74.0147 17.5857 75.5468 17.908C76.5918 18.2401 77.4625 18.9742 77.9675 19.9489C76.8979 19.6809 75.8051 19.5165 74.7041 19.4579Z" fill="#321E41"/>
<path d="M65.6343 27.1766C65.6343 27.1766 67.3655 30.4451 68.3154 30.2456C69.2653 30.0461 70.7974 27.0845 70.7974 27.0845C70.0091 27.8003 69.0079 28.237 67.9477 28.3275C67.0826 28.1732 66.2797 27.7738 65.6343 27.1766Z" fill="#F3877C"/>
<path d="M68.1618 27.8516C69.0757 27.7014 69.9734 27.4651 70.8429 27.1458C70.147 27.9292 69.2176 28.4673 68.1924 28.6803C67.12 28.6803 65.6645 27.1458 65.6798 27.1458C66.4758 27.4802 67.3091 27.7172 68.1618 27.8516Z" fill="#EE6066"/>
<path d="M67.5346 26.1637C66.7532 26.3478 66.937 27.5141 68.0555 27.5908C69.1739 27.6675 69.465 26.8235 69.1586 26.3478C68.9186 26.198 68.6483 26.1037 68.3673 26.0719C68.0864 26.04 67.8019 26.0714 67.5346 26.1637Z" fill="#F8BBB1"/>
<path d="M65.8945 35.7702C66.1766 35.4149 66.5391 35.1321 66.9521 34.9453C67.3651 34.7585 67.8167 34.673 68.2693 34.696C68.746 34.6686 69.2218 34.7642 69.651 34.9738C70.0802 35.1834 70.4485 35.4999 70.7206 35.8929C69.1274 36.2608 67.4671 36.2186 65.8945 35.7702Z" fill="#F3877C"/>
<path d="M65.8491 24.4147C65.8491 24.4147 65.3895 25.228 62.31 25.1512C61.5607 25.2307 60.8031 25.1333 60.0981 24.8668C59.3931 24.6003 58.7601 24.1722 58.25 23.6167L65.2363 24.0924L65.8491 24.4147Z" fill="#F3877C"/>
<path d="M64.7612 21.7293C65.249 22.4806 65.4901 23.3659 65.4506 24.2613C64.0564 24.1078 61.6357 21.4991 61.6357 21.4991C62.683 21.4497 63.7324 21.527 64.7612 21.7293Z" fill="#EE6066"/>
<path d="M64.7764 23.1411C64.853 23.1411 65.9101 24.2153 65.7722 24.4301C65.6343 24.645 65.1441 24.4301 65.1441 24.4301L64.7764 23.1411Z" fill="#F3877C"/>
<path d="M65.1903 24.3838C65.1903 24.261 64.8226 22.0666 63.7808 21.729C62.6417 21.3537 61.4194 21.3111 60.257 21.6062C59.2918 21.9592 58.25 23.4937 58.25 23.4937C59.5259 23.9626 60.8621 24.2468 62.2181 24.3377C64.9605 24.6446 65.1903 24.3838 65.1903 24.3838Z" fill="white"/>
<path d="M63.4895 22.7113C63.501 22.9948 63.4286 23.2755 63.2816 23.5181C63.1346 23.7607 62.9194 23.9545 62.6629 24.0752C62.4065 24.1959 62.1202 24.2381 61.8399 24.1966C61.5596 24.1551 61.2977 24.0317 61.0871 23.8418C60.8765 23.6519 60.7265 23.4041 60.6558 23.1292C60.5852 22.8544 60.5971 22.5648 60.69 22.2967C60.7829 22.0285 60.9527 21.7938 61.1781 21.6219C61.4036 21.45 61.6746 21.3485 61.9574 21.3302C62.1491 21.3177 62.3413 21.3438 62.5227 21.4069C62.7042 21.47 62.8712 21.5688 63.0139 21.6974C63.1567 21.8261 63.2723 21.9821 63.354 22.1562C63.4356 22.3303 63.4817 22.519 63.4895 22.7113Z" fill="#321E41"/>
<path d="M65.3589 22.0363C63.9262 21.8478 62.4768 21.822 61.0384 21.9595C59.9965 22.2322 59.0385 22.7595 58.25 23.4941C58.25 23.4941 59.108 21.4992 60.732 21.1769C61.5197 20.9799 62.3404 20.9547 63.1387 21.103C63.9369 21.2512 64.6941 21.5695 65.3589 22.0363Z" fill="#321E41"/>
<path d="M63.857 20.7779C62.8007 20.6189 61.7266 20.6189 60.6703 20.7779C59.9879 20.9995 59.3462 21.3312 58.7705 21.76C59.1249 21.2297 59.5968 20.7886 60.1494 20.471C61.3849 20.1574 62.6896 20.2654 63.857 20.7779Z" fill="#F3877C"/>
<path d="M64.1024 23.2943C64.1024 22.8339 62.5703 22.7112 62.5703 23.2022C62.5703 23.6933 64.1024 23.6165 64.1024 23.2943Z" fill="white"/>
<path d="M81.0776 22.7268C81.0776 22.7268 81.905 19.3815 83.483 18.783C85.0611 18.1845 87.0834 20.9927 86.6544 23.1564C86.3846 24.2849 85.8718 25.3406 85.152 26.2498C84.4321 27.159 83.5227 27.8996 82.4872 28.4199C81.2309 28.7729 80.2197 27.3457 80.0205 26.4711C80.1599 25.1723 80.5173 23.9064 81.0776 22.7268Z" fill="#F6AA99"/>
<path d="M84.7701 24.7673C85.292 24.0034 85.599 23.1129 85.6588 22.1893C85.5209 21.1611 84.7395 19.9335 84.1267 19.9795C83.5138 20.0256 82.0737 23.1867 82.0124 23.7238C81.9511 24.2609 83.1921 24.2916 83.0236 24.9514C82.855 25.6113 81.9664 26.2251 81.6753 26.5934C81.3842 26.9617 81.3536 27.3146 82.1196 27.4067C82.8857 27.4988 84.0194 25.9796 84.0194 25.9796C84.0194 25.9796 82.6252 27.0384 82.2575 26.7775C81.8898 26.5167 83.1921 25.5192 83.667 24.798C84.142 24.0767 82.6406 23.8619 82.6865 23.4629C82.6865 23.3248 83.5904 21.1458 84.142 21.1765C84.6936 21.2072 85.3983 22.4655 84.7701 24.7673Z" fill="#EE6066"/>
<path d="M83.6671 22.8491C83.8766 23.0686 84.0315 23.3344 84.1194 23.625C84.2072 23.9156 84.2255 24.2228 84.1727 24.5218C84.1034 25.0355 83.8469 25.5055 83.4526 25.8415C83.78 25.6815 84.0582 25.4359 84.2577 25.1307C84.4573 24.8255 84.5708 24.472 84.5864 24.1074C84.5967 23.8247 84.5116 23.5468 84.3448 23.3185C84.178 23.0902 83.9393 22.9248 83.6671 22.8491Z" fill="#F3877C"/>
<path d="M64.5161 31.1666C65.5955 32.1061 66.9633 32.6476 68.3923 32.7011C69.5076 32.751 70.6134 32.4761 71.576 31.9096C72.5385 31.3431 73.3165 30.5094 73.8159 29.5093C72.4908 30.47 70.966 31.1181 69.3556 31.4051C67.7451 31.6921 66.0907 31.6105 64.5161 31.1666Z" fill="#EE6066"/>
<path d="M765.873 62.3176C765.873 62.3176 736.687 71.0645 729.18 90.3076C721.672 109.551 722.5 113.955 719.328 121.229C716.157 128.502 713.399 143.955 714.594 161.848C715.988 182.917 714.87 190.498 723.787 199.429C747.779 135.515 765.873 62.3176 765.873 62.3176Z" fill="#F6AA99"/>
<path d="M790.065 62.3176C790.065 62.3176 819.312 71.1259 826.743 90.3076C834.174 109.489 833.438 113.955 836.61 121.229C839.781 128.502 842.539 143.955 841.344 161.848C839.934 182.917 841.068 190.498 832.151 199.429C808.159 135.515 790.065 62.3176 790.065 62.3176Z" fill="#F6AA99"/>
<path d="M724.722 205.429C724.645 207.086 724.921 211.567 725.365 217.152C726.514 231.669 728.797 253.736 728.797 253.736C726.464 263.74 724.892 273.908 724.094 284.15C722.01 311.879 735.783 330.739 733.531 346.867C733.347 349.575 732.534 352.202 731.157 354.54C730.267 356.069 729.139 357.447 727.817 358.622C725.243 360.939 723.021 361.89 717.306 365.297C711.592 368.703 705.05 371.711 705.05 374.304C705.05 374.304 705.157 375.471 706.674 375.471H738.082C742.846 375.471 744.103 372.11 747.642 370.33C751.181 368.55 756.834 371.143 760.297 367.491C761.553 366.156 761.676 363.194 761.369 359.895C761.369 359.542 761.369 359.205 761.247 358.867C761.017 356.872 760.664 354.816 760.327 352.928C759.98 350.944 759.755 348.94 759.653 346.928C760.281 326.565 764.525 280.145 765.399 268.222C765.858 262.421 768.555 232.436 769.995 217.214C770.485 211.843 770.792 208.313 770.792 208.313C770.792 208.313 737.561 198.216 724.722 205.429Z" fill="#F6AA99"/>
<path d="M760.327 367.43C756.91 371.098 751.135 368.55 747.672 370.269C744.21 371.988 742.877 375.41 738.112 375.41C738.112 375.41 741.176 375.855 744.439 371.696C751.993 362.228 757.294 364.3 761.292 358.806C761.292 359.144 761.384 359.481 761.415 359.834C761.706 363.133 761.583 366.095 760.327 367.43Z" fill="#F3877C"/>
<path d="M742.019 362.351C741.031 364.35 739.619 366.11 737.882 367.507C734.925 369.763 731.969 371.22 730.574 372.571C729.845 373.336 729.434 374.351 729.425 375.41H726.943C727.099 374.376 727.515 373.398 728.154 372.571C729.548 370.837 732.122 369.87 735.324 367.844C737.73 366.237 739.972 364.397 742.019 362.351Z" fill="#EE6066"/>
<path d="M733.439 372.632C734.517 372.574 735.599 372.657 736.656 372.878C737.263 373.004 737.894 372.923 738.449 372.648C739.062 372.325 739.766 371.819 739.874 371.113C739.874 369.379 736.809 369.041 733.224 372.003C733.155 372.041 733.101 372.103 733.073 372.177C733.044 372.251 733.043 372.333 733.068 372.408C733.094 372.483 733.145 372.546 733.213 372.587C733.281 372.628 733.361 372.644 733.439 372.632Z" fill="#F8BBB1"/>
<path d="M730.697 367.844C728.108 370.208 724.139 372.31 722.898 373.476C722.285 373.952 721.874 374.643 721.749 375.41H720.217C720.304 374.816 720.514 374.247 720.833 373.74C721.152 373.233 721.574 372.798 722.071 372.463C724.032 371.267 727.173 369.717 730.697 367.844Z" fill="#EE6066"/>
<path d="M724.292 367.844C721.703 370.208 717.735 372.31 716.494 373.476C715.88 373.952 715.469 374.643 715.345 375.41H713.812C713.899 374.816 714.109 374.247 714.428 373.74C714.747 373.233 715.169 372.798 715.666 372.463C717.627 371.267 720.768 369.717 724.292 367.844Z" fill="#EE6066"/>
<path d="M718.747 367.844C716.142 370.208 712.189 372.31 710.948 373.476C710.335 373.952 709.924 374.643 709.799 375.41H708.267C708.354 374.816 708.563 374.247 708.883 373.74C709.202 373.233 709.624 372.798 710.121 372.463C712.082 371.267 715.238 369.717 718.747 367.844Z" fill="#EE6066"/>
<path d="M723.787 373.906C724.694 373.69 725.638 373.69 726.545 373.906C726.545 373.906 727.725 372.648 727.495 372.233C727.081 371.589 725.181 371.727 723.787 373.906Z" fill="#F8BBB1"/>
<path d="M717.138 373.906C718.044 373.69 718.989 373.69 719.895 373.906C719.895 373.906 721.075 372.648 720.83 372.233C720.432 371.589 718.532 371.727 717.138 373.906Z" fill="#F8BBB1"/>
<path d="M711.392 373.906C712.177 373.715 712.997 373.715 713.782 373.906C713.782 373.906 714.809 372.816 714.609 372.371C714.41 371.926 712.602 372.018 711.392 373.906Z" fill="#F8BBB1"/>
<path d="M706.045 373.952C706.831 373.762 707.65 373.762 708.435 373.952C708.435 373.952 709.462 372.862 709.247 372.494C709.033 372.126 707.179 372.064 706.045 373.952Z" fill="#F8BBB1"/>
<path d="M770.745 208.252C770.049 211.165 769.781 214.163 769.948 217.153H725.365C724.92 211.567 724.645 207.086 724.721 205.429C737.56 198.217 770.745 208.252 770.745 208.252Z" fill="#F3877C"/>
<path d="M739.046 261.347C735.706 263.158 739.567 273.363 744.868 274.882C750.169 276.401 754.229 264.8 751.165 262.606C749.403 261.347 742.325 259.552 739.046 261.347Z" fill="#F3877C"/>
<path d="M830.343 205.429C830.435 207.086 830.16 211.567 829.715 217.152C828.566 231.669 826.283 253.736 826.283 253.736C828.615 263.74 830.182 273.908 830.972 284.15C833.07 311.879 819.282 330.739 821.549 346.867C821.735 349.572 822.543 352.198 823.909 354.54C824.808 356.063 825.934 357.439 827.249 358.622C829.822 360.939 832.059 361.89 837.759 365.297C843.458 368.703 850.015 371.711 850.015 374.304C850.015 374.304 849.908 375.471 848.391 375.471H816.968C812.204 375.471 810.947 372.11 807.393 370.33C803.838 368.55 798.2 371.143 794.753 367.491C793.497 366.156 793.374 363.194 793.681 359.895C793.681 359.542 793.681 359.205 793.803 358.867C794.018 356.872 794.385 354.816 794.722 352.928C795.072 350.945 795.292 348.941 795.381 346.928C794.768 326.565 790.525 280.145 789.651 268.222C789.176 262.421 786.495 232.436 785.055 217.214C784.58 211.843 784.258 208.313 784.258 208.313C784.258 208.313 817.505 198.216 830.343 205.429Z" fill="#F6AA99"/>
<path d="M794.753 367.43C798.154 371.098 803.945 368.55 807.393 370.269C810.84 371.988 812.203 375.41 816.968 375.41C816.968 375.41 813.904 375.855 810.641 371.696C803.072 362.228 797.786 364.3 793.788 358.806C793.788 359.144 793.696 359.481 793.665 359.834C793.374 363.133 793.497 366.095 794.753 367.43Z" fill="#F3877C"/>
<path d="M813.062 362.351C814.05 364.35 815.461 366.11 817.198 367.507C820.155 369.763 823.112 371.22 824.506 372.571C825.223 373.344 825.632 374.354 825.655 375.41H828.122C827.972 374.374 827.555 373.396 826.912 372.571C825.517 370.837 822.959 369.87 819.741 367.844C817.339 366.239 815.101 364.399 813.062 362.351Z" fill="#EE6066"/>
<path d="M821.641 372.632C820.558 372.575 819.471 372.657 818.409 372.878C817.807 373.003 817.181 372.921 816.631 372.648C816.294 372.516 815.99 372.309 815.744 372.044C815.497 371.778 815.313 371.46 815.207 371.113C815.207 369.379 818.271 369.041 821.856 372.003C821.925 372.041 821.979 372.103 822.007 372.177C822.036 372.251 822.037 372.333 822.012 372.408C821.986 372.483 821.935 372.546 821.867 372.587C821.8 372.628 821.72 372.644 821.641 372.632Z" fill="#F8BBB1"/>
<path d="M824.383 367.844C826.973 370.208 830.925 372.31 832.166 373.476C832.779 373.955 833.193 374.644 833.331 375.41H834.863C834.776 374.816 834.566 374.247 834.247 373.74C833.928 373.233 833.506 372.798 833.009 372.463C831.048 371.267 827.907 369.717 824.383 367.844Z" fill="#EE6066"/>
<path d="M830.788 367.844C833.377 370.208 837.33 372.31 838.571 373.476C839.183 373.955 839.598 374.644 839.735 375.41H841.267C841.181 374.816 840.971 374.247 840.652 373.74C840.332 373.233 839.91 372.798 839.413 372.463C837.452 371.267 834.311 369.717 830.788 367.844Z" fill="#EE6066"/>
<path d="M836.272 367.844C838.862 370.208 842.83 372.31 844.071 373.476C844.684 373.952 845.095 374.643 845.22 375.41H846.752C846.665 374.816 846.456 374.247 846.136 373.74C845.817 373.233 845.395 372.798 844.898 372.463C842.998 371.267 839.858 369.717 836.272 367.844Z" fill="#EE6066"/>
<path d="M831.293 373.906C830.386 373.69 829.442 373.69 828.535 373.906C828.535 373.906 827.356 372.648 827.585 372.233C827.999 371.589 829.883 371.727 831.293 373.906Z" fill="#F8BBB1"/>
<path d="M837.942 373.906C837.036 373.69 836.091 373.69 835.185 373.906C835.185 373.906 834.005 372.648 834.235 372.233C834.648 371.589 836.548 371.727 837.942 373.906Z" fill="#F8BBB1"/>
<path d="M843.673 373.906C842.892 373.716 842.078 373.716 841.298 373.906C841.298 373.906 840.271 372.816 840.47 372.371C840.67 371.926 842.401 372.018 843.673 373.906Z" fill="#F8BBB1"/>
<path d="M849.111 373.952C848.326 373.762 847.506 373.762 846.721 373.952C846.721 373.952 845.695 372.862 845.894 372.494C846.093 372.126 847.885 372.064 849.111 373.952Z" fill="#F8BBB1"/>
<path d="M784.319 208.252C785.024 211.163 785.292 214.163 785.116 217.153H829.715C830.159 211.567 830.435 207.086 830.343 205.429C817.504 198.217 784.319 208.252 784.319 208.252Z" fill="#F3877C"/>
<path d="M816.034 261.347C819.374 263.158 815.513 273.363 810.212 274.882C804.911 276.401 800.851 264.8 803.9 262.606C805.631 261.347 812.74 259.552 816.034 261.347Z" fill="#F3877C"/>
<path d="M828.796 151.658C814.118 163.413 791.336 165.592 776.061 166.16C760.787 166.727 739.108 161.848 725.809 153.484C729.547 133.121 732.581 125.187 738.066 112.865C738.74 111.331 739.429 109.796 740.18 108.108C736.212 101.724 737.116 92.5939 743.397 83.6628C748.959 75.6832 765.95 62.3174 765.95 62.3174L766.379 58.9875L767.068 53.6626L789.437 53.2483L790.003 60.1844L790.141 61.8877C790.141 61.8877 808.679 75.6986 814.134 83.0797C819.925 90.8752 822.989 100.313 819.021 108.967C819.557 110.348 820.124 111.944 820.722 113.709C824.727 126.042 827.433 138.761 828.796 151.658Z" fill="#F6AA99"/>
<path d="M814.058 83.0801C819.849 90.8755 822.913 100.313 818.945 108.968C819.481 110.349 820.048 111.945 820.646 113.709C824.677 126.04 827.409 138.759 828.796 151.659" stroke="#F3877C" stroke-width="2.02162" stroke-miterlimit="10" stroke-linecap="round"/>
<path d="M725.809 153.485C729.547 133.121 732.581 125.188 738.066 112.865C738.74 111.331 739.429 109.796 740.18 108.108C736.212 101.725 737.116 92.5941 743.397 83.6631" stroke="#F3877C" stroke-width="2.02162" stroke-miterlimit="10" stroke-linecap="round"/>
<path d="M799.687 112.083C800.07 111.96 806.351 104.656 813.659 110.948C807.485 114.354 799.687 112.083 799.687 112.083Z" fill="#EE6066"/>
<path d="M758.136 112.083C757.753 111.96 751.472 104.656 744.164 110.948C750.476 114.354 758.136 112.083 758.136 112.083Z" fill="#EE6066"/>
<path d="M789.927 60.1844C786.725 62.5936 782.267 64.788 777.671 64.389C773.366 63.9945 769.342 62.0799 766.318 58.9875L767.007 53.6626L789.376 53.2483L789.927 60.1844Z" fill="#EE6066"/>
<path d="M769.704 107.771C759.944 115.443 748.255 117.807 737.99 112.865C738.664 111.331 739.353 109.796 740.104 108.108C740.104 108.108 751.595 117.101 769.704 107.771Z" fill="#F3877C"/>
<path d="M820.645 113.71C817.211 115.223 813.518 116.056 809.767 116.165C800.131 116.579 794.125 113.51 785.76 107.357C791.978 110.4 798.761 112.114 805.677 112.39C810.326 112.596 814.931 111.405 818.899 108.968C819.42 110.349 820.048 111.945 820.645 113.71Z" fill="#F3877C"/>
<path d="M777.333 138.584C777.333 138.584 774.039 141.761 776.966 152.088C778.101 147.672 778.227 143.056 777.333 138.584Z" fill="#EE6066"/>
<path d="M756.972 124.666C756.972 124.666 785.269 117.131 804.328 124.666C793.481 116.809 773.579 115.075 756.972 124.666Z" fill="#F3877C"/>
<path d="M773.457 69.1465C773.998 69.9188 774.709 70.5558 775.535 71.0083C776.362 71.4607 777.281 71.7163 778.222 71.7552C779.245 71.7155 780.244 71.4282 781.132 70.9178C782.021 70.4074 782.773 69.689 783.324 68.8242C780.192 70.1681 776.67 70.2831 773.457 69.1465Z" fill="#F3877C"/>
<path d="M796.944 35.6474C797.036 35.3712 798.338 29.1256 796.454 25.0438C794.569 20.9619 792.731 19.857 788.793 18.3071C785.147 12.169 775.587 10.6344 768.187 14.302C761.047 17.8161 751.717 29.4632 764.617 42.3227C777.517 55.1821 794.079 44.5631 796.944 35.6474Z" fill="#142033"/>
<path d="M763.789 38.5169C763.789 38.5169 762.84 34.6499 761.001 33.9133C759.163 33.1768 756.864 36.4607 757.355 38.9773C757.845 41.4939 760.327 44.5323 762.104 45.0387C763.544 45.4531 764.739 43.7958 764.969 42.783C764.807 41.3067 764.409 39.8662 763.789 38.5169Z" fill="#F3877C"/>
<path d="M760.128 40.8648C759.52 39.9907 759.165 38.966 759.101 37.9031C759.254 36.7062 760.158 35.2944 760.878 35.3405C761.598 35.3865 763.253 39.054 763.33 39.6679C763.406 40.2817 761.951 40.3124 762.15 41.0796C762.349 41.8469 763.376 42.6142 763.682 42.9824C763.988 43.3507 764.05 43.7958 763.176 43.9185C762.303 44.0413 760.924 42.2766 760.924 42.2766C760.924 42.2766 762.456 43.5042 762.947 43.1973C763.437 42.8904 761.874 41.7548 761.323 40.9108C760.771 40.0668 762.502 39.8213 762.456 39.3763C762.456 39.2228 761.415 36.7062 760.771 36.7522C760.128 36.7983 759.407 38.21 760.128 40.8648Z" fill="#EE6066"/>
<path d="M761.384 38.6553C761.146 38.9114 760.969 39.2189 760.868 39.5542C760.767 39.8894 760.745 40.2434 760.802 40.5888C760.882 41.184 761.176 41.7296 761.629 42.1233C761.254 41.9394 760.936 41.6565 760.709 41.305C760.482 40.9535 760.355 40.5467 760.342 40.1284C760.32 39.8002 760.411 39.4743 760.601 39.2059C760.791 38.9374 761.067 38.7429 761.384 38.6553Z" fill="#EE6066"/>
<path d="M764.265 33.9904C763.765 34.5741 763.503 35.3244 763.529 36.0927C763.621 37.9188 762.778 47.5557 765.061 52.4969C768.723 60.7067 780.949 63.7758 789.927 54.4765C794.998 49.213 793.696 38.6247 793.696 38.6247C791.275 38.9316 792.164 35.8471 791.413 34.5735C790.8 33.5607 789.192 33.131 788.226 32.5019C787.046 31.7208 785.956 30.8097 784.978 29.7857C784.234 29.1247 783.632 28.3181 783.211 27.4155C782.789 26.513 782.557 25.5336 782.527 24.5376L768.968 31.0594C767.213 31.6961 765.61 32.6946 764.265 33.9904Z" fill="#F6AA99"/>
<path d="M780.259 40.6038C780.259 40.6038 780.642 41.2636 784.212 41.2943C787.782 41.325 788.977 39.6523 788.977 39.6523L780.887 40.2815L780.259 40.6038Z" fill="#F3877C"/>
<path d="M781.47 37.4273C780.887 38.2341 780.58 39.2087 780.597 40.2048C782.221 40.082 785.193 37.2891 785.193 37.2891C783.951 37.1941 782.702 37.2405 781.47 37.4273Z" fill="#EE6066"/>
<path d="M781.424 39.1155C781.332 39.1155 780.106 40.3431 780.259 40.65C780.413 40.9569 780.995 40.65 780.995 40.65L781.424 39.1155Z" fill="#F3877C"/>
<path d="M780.888 40.3739C780.888 40.2511 781.378 37.8419 782.619 37.4889C783.959 37.128 785.37 37.128 786.71 37.4889C787.813 37.8879 788.977 39.6833 788.977 39.6833C787.488 40.1547 785.942 40.4231 784.381 40.4813C781.118 40.6501 780.888 40.3739 780.888 40.3739Z" fill="white"/>
<path d="M786.296 38.7474C786.282 38.9674 786.225 39.1825 786.127 39.3797C786.029 39.577 785.892 39.7525 785.725 39.8957C785.557 40.0389 785.363 40.1469 785.153 40.2132C784.943 40.2796 784.722 40.303 784.503 40.282C784.287 40.2833 784.073 40.2388 783.875 40.1513C783.677 40.0639 783.5 39.9355 783.356 39.7746C783.211 39.6137 783.102 39.4239 783.036 39.2178C782.969 39.0117 782.947 38.7939 782.971 38.5786C782.985 38.3586 783.042 38.1436 783.14 37.9463C783.238 37.7491 783.375 37.5736 783.542 37.4304C783.71 37.2872 783.904 37.1792 784.114 37.1128C784.324 37.0465 784.545 37.0231 784.764 37.0441C784.976 37.0539 785.185 37.1059 785.378 37.197C785.57 37.2882 785.743 37.4167 785.885 37.5752C786.028 37.7336 786.137 37.9188 786.208 38.1201C786.278 38.3213 786.308 38.5345 786.296 38.7474Z" fill="#321E41"/>
<path d="M787.062 39.4377C787.185 38.9313 785.392 38.5937 785.27 39.1308C785.147 39.6679 786.985 39.806 787.062 39.4377Z" fill="white"/>
<path d="M780.78 37.7343C782.42 37.5539 784.074 37.5539 785.714 37.7343C786.944 38.0903 788.066 38.7498 788.977 39.6525C788.719 39.041 788.337 38.4902 787.854 38.0356C787.371 37.5811 786.798 37.2328 786.173 37.0131C785.273 36.7597 784.33 36.6929 783.403 36.817C782.475 36.941 781.583 37.2531 780.78 37.7343Z" fill="#321E41"/>
<path d="M782.542 36.4145C783.779 36.2799 785.029 36.3317 786.25 36.568C787.031 36.8346 787.765 37.223 788.426 37.7189C788.039 37.0963 787.515 36.5712 786.894 36.1843C785.455 35.7988 783.932 35.8794 782.542 36.4145Z" fill="#F3877C"/>
<path d="M780.749 33.4685C780.165 34.3303 779.653 35.2387 779.217 36.1846C778.887 37.2065 778.839 38.299 779.079 39.3458L781.209 34.2358L780.749 33.4685Z" fill="#F3877C"/>
<path d="M785.085 34.8031C783.553 34.8031 780.106 35.2021 780.136 35.11C780.24 34.5303 780.448 33.974 780.749 33.4681C782.848 33.4681 784.288 32.6548 786.066 33.0077C787.274 33.3956 788.281 34.2446 788.869 35.3709C787.629 35.0588 786.362 34.8687 785.085 34.8031Z" fill="#321E41"/>
<path d="M774.667 43.7191C774.667 43.7191 776.659 47.4941 777.731 47.3253C778.804 47.1565 780.581 43.6731 780.581 43.6731C779.675 44.4982 778.522 45 777.302 45.1002C776.309 44.9053 775.393 44.4255 774.667 43.7191Z" fill="#F3877C"/>
<path d="M777.548 44.5017C778.592 44.318 779.617 44.0407 780.612 43.6731C779.814 44.5908 778.737 45.2214 777.548 45.4685C776.307 45.4685 774.637 43.7038 774.637 43.7191C775.572 44.0979 776.549 44.3608 777.548 44.5017Z" fill="#EE6066"/>
<path d="M776.812 42.5528C775.924 42.7523 776.123 44.0874 777.41 44.1795C778.697 44.2715 779.049 43.3048 778.697 42.7523C778.417 42.583 778.102 42.4773 777.777 42.4428C777.451 42.4084 777.122 42.4459 776.812 42.5528Z" fill="#F8BBB1"/>
<path d="M774.989 53.5711C775.341 53.1725 775.776 52.8559 776.264 52.6434C776.751 52.4309 777.278 52.3276 777.81 52.3407C778.341 52.3539 778.863 52.4832 779.339 52.7196C779.815 52.9559 780.234 53.2937 780.566 53.7092C778.726 54.1377 776.806 54.0902 774.989 53.5711Z" fill="#F3877C"/>
<path d="M774.315 33.4685C775.078 34.2656 775.704 35.1833 776.169 36.1846C776.373 37.2465 776.409 38.334 776.276 39.4072C776.2 39.4072 773.534 34.5734 773.534 34.5734L774.315 33.4685Z" fill="#F3877C"/>
<path d="M769.994 34.8031C771.526 34.8031 774.973 35.2021 774.943 35.11C774.841 34.5274 774.627 33.9699 774.315 33.4681C772.216 33.4681 770.776 32.6548 768.998 33.0077C767.793 33.3947 766.79 34.2445 766.21 35.3709C767.45 35.0588 768.717 34.8687 769.994 34.8031Z" fill="#321E41"/>
<path d="M774.79 40.5425C774.79 40.5425 774.33 41.4479 770.776 41.3712C767.221 41.2945 766.087 39.5144 766.087 39.5144L774.146 40.0515L774.79 40.5425Z" fill="#F3877C"/>
<path d="M773.61 37.4274C774.174 38.2972 774.453 39.3221 774.407 40.3584C772.875 40.1742 770.01 37.1665 770.01 37.1665C771.216 37.107 772.425 37.1946 773.61 37.4274Z" fill="#EE6066"/>
<path d="M773.625 39.0542C773.717 39.0542 774.943 40.2818 774.79 40.5887C774.637 40.8956 774.055 40.5887 774.055 40.5887L773.625 39.0542Z" fill="#F3877C"/>
<path d="M774.116 40.4811C774.116 40.343 773.687 37.811 772.476 37.412C771.156 36.9872 769.742 36.9499 768.401 37.3046C767.298 37.6729 766.087 39.5297 766.087 39.5297C767.566 40.0704 769.113 40.401 770.684 40.5118C773.84 40.788 774.116 40.4811 774.116 40.4811Z" fill="white"/>
<path d="M772.139 38.5475C772.163 38.8761 772.089 39.2044 771.926 39.4905C771.763 39.7766 771.518 40.0074 771.223 40.1536C770.928 40.2998 770.597 40.3546 770.271 40.3111C769.945 40.2676 769.639 40.1277 769.393 39.9094C769.146 39.6911 768.97 39.4041 768.888 39.0852C768.805 38.7664 768.819 38.43 768.928 38.1191C769.037 37.8083 769.236 37.537 769.5 37.34C769.763 37.143 770.08 37.0291 770.408 37.013C770.84 36.9918 771.262 37.1405 771.586 37.4272C771.909 37.7139 772.108 38.116 772.139 38.5475Z" fill="#321E41"/>
<path d="M774.299 37.7651C772.677 37.5232 771.032 37.4666 769.397 37.5963C768.147 37.9389 767.007 38.5997 766.087 39.5145C766.087 39.5145 767.083 37.2127 768.952 36.829C769.859 36.5976 770.804 36.5614 771.726 36.7228C772.648 36.8841 773.525 37.2394 774.299 37.7651Z" fill="#321E41"/>
<path d="M772.568 36.338C771.35 36.1468 770.11 36.1468 768.892 36.338C768.103 36.5905 767.362 36.9744 766.701 37.4736C767.092 36.8553 767.615 36.3313 768.233 35.939C769.681 35.576 771.21 35.7167 772.568 36.338Z" fill="#F3877C"/>
<path d="M772.859 39.2229C772.859 38.6858 771.097 38.5631 771.036 39.1155C771.005 39.4377 772.813 39.6065 772.859 39.2229Z" fill="white"/>
<path d="M792.44 38.5785C792.44 38.5785 793.405 34.7114 795.228 33.9749C797.051 33.2383 799.365 36.5222 798.875 39.0235C798.384 41.5248 795.918 44.5939 794.125 45.1617C792.685 45.576 791.505 43.9187 791.275 42.9059C791.419 41.4083 791.813 39.9455 792.44 38.5785Z" fill="#F6AA99"/>
<path d="M796.699 40.9261C797.306 40.0519 797.661 39.0273 797.725 37.9644C797.572 36.7675 796.668 35.3557 795.948 35.4017C795.228 35.4478 793.573 39.1153 793.497 39.7291C793.42 40.3429 794.876 40.3736 794.676 41.1409C794.477 41.9082 793.451 42.6754 793.144 43.0437C792.838 43.412 792.777 43.857 793.65 43.9798C794.523 44.1026 795.902 42.3378 795.902 42.3378C795.902 42.3378 794.37 43.5655 793.88 43.2432C793.39 42.921 794.952 41.8008 795.504 40.9721C796.055 40.1435 794.324 39.8826 794.355 39.4376C794.355 39.2841 795.412 36.7521 796.055 36.8135C796.699 36.8749 797.419 38.2713 796.699 40.9261Z" fill="#EE6066"/>
<path d="M795.443 38.7166C795.68 38.9703 795.856 39.2753 795.957 39.6078C796.058 39.9404 796.081 40.2917 796.025 40.6347C795.943 41.2295 795.649 41.7746 795.198 42.1693C795.571 41.9827 795.887 41.6991 796.114 41.3482C796.34 40.9972 796.468 40.5919 796.485 40.1744C796.504 39.8487 796.41 39.5264 796.221 39.2612C796.031 38.9959 795.757 38.8037 795.443 38.7166Z" fill="#F3877C"/>
<path d="M773.334 48.353C774.58 49.4385 776.158 50.0664 777.808 50.1331C779.094 50.1873 780.367 49.8686 781.476 49.2153C782.585 48.5619 783.482 47.6018 784.059 46.4502C782.529 47.5531 780.77 48.2968 778.913 48.6262C777.057 48.9556 775.15 48.8622 773.334 48.353Z" fill="#EE6066"/>
<path d="M725.503 150.722C725.503 150.722 741.038 163.965 776.062 163.382C816.371 162.17 829.47 149.771 829.47 149.771C833.519 170.232 834.233 191.215 831.584 211.904H782.925V193.628H772.752V211.705H723.205C723.205 211.705 719.175 175.935 725.503 150.722Z" fill="#213555"/>
<path d="M325.782 331.752C319.572 345.052 316.366 359.56 316.39 374.243H160.24C160.49 330.164 171.902 286.869 193.41 248.411L325.782 331.752Z" fill="#94E0CC"/>
<path d="M363.732 288.969C347.21 299.279 334.028 314.167 325.782 331.828L193.41 248.488C214.79 210.154 245.533 177.883 282.761 154.697L363.732 288.969Z" fill="#57D0AF"/>
<path d="M416.711 116.41V273.731C397.972 273.716 379.609 278.998 363.732 288.969L282.761 154.697C322.955 129.633 369.364 116.368 416.711 116.41Z" fill="#17A37C"/>
<path d="M550.187 154.329L469.247 288.585C453.452 278.844 435.261 273.7 416.711 273.731V116.41C463.861 116.347 510.091 129.48 550.187 154.329Z" fill="#FF9E7E"/>
<path d="M639.859 248.089L507.518 331.43C499.168 313.731 485.86 298.846 469.216 288.586L550.156 154.329C587.512 177.457 618.381 209.722 639.859 248.089Z" fill="#F0606C"/>
<path d="M673.198 374.243H517.063C517.08 359.441 513.82 344.819 507.518 331.429L639.859 248.089C661.471 286.629 672.943 330.041 673.198 374.243Z" fill="#E14E4E"/>
<path d="M182.46 358.05L182.914 352.516L185.469 352.72L185.287 354.936L187.708 355.13L187.878 353.056L190.307 353.251L190.136 355.324L192.943 355.549L193.143 353.113L195.698 353.318L195.226 359.073L182.46 358.05Z" fill="white"/>
<path d="M183.879 345.262L189.369 347.041L196.643 346.087L196.308 349.147C195.002 349.372 193.426 349.536 191.578 349.637C192.369 349.81 193.206 350.019 194.089 350.266L196.126 350.81L195.774 354.027L188.821 352.046L183.074 352.614L183.424 349.42C183.78 349.402 184.376 349.352 185.211 349.27C185.848 349.203 186.43 349.154 186.958 349.123L183.576 348.032L183.879 345.262Z" fill="white"/>
<path d="M184.827 338.48L187.352 338.812L187.082 340.759L197.176 342.086L196.722 345.365L186.628 344.037L186.359 345.976L183.833 345.644L184.827 338.48Z" fill="white"/>
<path d="M184.704 338.372L185.091 336.051C185.348 334.504 185.582 333.468 185.792 332.942C186.003 332.411 186.384 332.014 186.935 331.751C187.481 331.482 188.292 331.435 189.368 331.609C190.35 331.768 190.989 331.997 191.286 332.296C191.583 332.594 191.706 333.107 191.654 333.835C191.923 333.212 192.212 332.811 192.519 332.631C192.826 332.452 193.099 332.354 193.336 332.339C193.569 332.319 194.195 332.39 195.213 332.555L198.541 333.094L198.034 336.139L193.841 335.46C193.166 335.351 192.738 335.338 192.559 335.421C192.381 335.499 192.254 335.763 192.179 336.215L197.868 337.136L197.323 340.415L184.704 338.372ZM187.409 335.443L190.215 335.897C190.276 335.529 190.269 335.264 190.195 335.102C190.116 334.935 189.799 334.806 189.243 334.716L188.549 334.604C188.149 334.539 187.874 334.569 187.726 334.694C187.578 334.814 187.472 335.064 187.409 335.443Z" fill="white"/>
<path d="M186.03 330.469L187.161 325.029L189.674 325.542L189.221 327.72L191.601 328.207L192.025 326.169L194.414 326.657L193.99 328.695L196.75 329.259L197.248 326.865L199.761 327.378L198.584 333.035L186.03 330.469Z" fill="white"/>
<path d="M189.388 314.61L201.85 317.412L201.213 320.245L192.799 318.353L200.958 321.376L200.506 323.385L192.017 322.73L200.238 324.578L199.6 327.411L187.138 324.609L188.082 320.414C188.859 320.459 189.771 320.527 190.818 320.617L194.09 320.883L188.437 318.836L189.388 314.61Z" fill="white"/>
<path d="M190.29 311.319L200.201 313.878L200.698 311.916L203.178 312.556L201.865 317.744L189.473 314.546L190.29 311.319Z" fill="white"/>
<path d="M192.704 303.351L199.86 307.875L204.295 309.124L203.454 312.073L199.019 310.824L190.563 310.859L191.397 307.933C193.915 308.147 195.595 308.342 196.438 308.52C195.182 307.976 193.659 307.228 191.87 306.277L192.704 303.351Z" fill="white"/>
<path d="M197.25 289.155L208.892 294.508L207.585 298.435C205.606 298.185 203.387 297.81 200.928 297.31C201.899 297.765 203.916 298.747 206.979 300.256L205.68 304.16L193.106 301.606L194.122 298.553L198.454 299.613L202.639 300.617C200.568 299.813 197.897 298.62 194.626 297.038L195.714 293.768C196.083 293.839 197.452 294.16 199.822 294.73L204.535 295.89C201.667 294.759 198.899 293.532 196.234 292.208L197.25 289.155Z" fill="white"/>
<path d="M196.94 289.733L198.83 284.506L201.234 285.403L200.477 287.495L202.755 288.344L203.463 286.386L205.748 287.238L205.039 289.196L207.68 290.181L208.513 287.881L210.916 288.777L208.95 294.212L196.94 289.733Z" fill="white"/>
<path d="M201.214 278.81L213.792 281.774L212.538 284.938L210.342 284.241L209.902 285.35L211.964 286.384L210.696 289.585L199.442 283.281L201.214 278.81ZM208.202 283.49C206.795 283.111 205.072 282.606 203.034 281.975C205.179 283.193 206.762 284.05 207.783 284.548L208.202 283.49Z" fill="white"/>
<path d="M204.983 269.979L209.52 274.031L216.777 274.917L215.414 278.071L209.857 277.115L214.882 279.303L213.563 282.355L201.84 277.25L203.159 274.198L207.714 276.182L203.745 272.843L204.983 269.979Z" fill="white"/>
<path d="M247.49 215.509L256.43 224.74L253.83 227.967C252.078 227.02 250.146 225.868 248.036 224.512C248.778 225.29 250.307 226.94 252.624 229.463L250.039 232.672L239.246 225.741L241.267 223.232L244.922 225.789L248.46 228.241C246.818 226.739 244.755 224.654 242.27 221.987L244.435 219.3C244.753 219.5 245.914 220.294 247.916 221.684L251.891 224.473C249.622 222.376 247.481 220.224 245.468 218.018L247.49 215.509Z" fill="white"/>
<path d="M247.072 216.12L250.707 211.949L252.622 213.637L251.167 215.307L252.982 216.906L254.344 215.344L256.165 216.949L254.803 218.511L256.908 220.367L258.508 218.531L260.423 220.219L256.644 224.556L247.072 216.12Z" fill="white"/>
<path d="M255.014 207.304L265.668 214.638L263.355 217.14L261.56 215.693L260.749 216.569L262.297 218.284L259.957 220.816L251.746 210.84L255.014 207.304ZM259.836 214.214C258.662 213.349 257.238 212.252 255.567 210.923C257.126 212.839 258.292 214.215 259.063 215.05L259.836 214.214Z" fill="white"/>
<path d="M261.478 200.602L264.327 205.976L270.836 209.331L268.454 211.81L263.566 208.981L267.523 212.779L265.218 215.179L255.987 206.318L258.292 203.919L261.878 207.361L259.316 202.853L261.478 200.602Z" fill="white"/>
<path d="M337.779 151.078L342.629 162.968L339.924 164.084L336.113 159.341L338.318 164.746L335.737 165.811L330.886 153.92L333.467 152.856L337.382 157.496L335.198 152.142L337.779 151.078Z" fill="white"/>
<path d="M347.987 155.46C348.436 156.667 348.724 157.534 348.852 158.06C348.983 158.58 348.975 159.102 348.827 159.628C348.683 160.151 348.398 160.617 347.969 161.025C347.541 161.434 346.987 161.761 346.307 162.008C345.662 162.242 345.043 162.348 344.45 162.328C343.86 162.301 343.33 162.133 342.861 161.826C342.392 161.519 342.036 161.129 341.793 160.656C341.549 160.183 341.198 159.328 340.738 158.091L339.974 156.035C339.525 154.828 339.235 153.965 339.104 153.445C338.976 152.919 338.983 152.394 339.126 151.87C339.275 151.345 339.563 150.878 339.991 150.47C340.419 150.062 340.973 149.735 341.653 149.488C342.298 149.254 342.916 149.15 343.506 149.178C344.099 149.198 344.63 149.362 345.099 149.669C345.568 149.976 345.924 150.366 346.168 150.839C346.411 151.313 346.763 152.168 347.223 153.405L347.987 155.46ZM343.386 152.649C343.178 152.09 343.013 151.746 342.892 151.616C342.773 151.479 342.618 151.446 342.424 151.516C342.26 151.575 342.158 151.686 342.116 151.847C342.078 152.001 342.174 152.387 342.403 153.006L344.489 158.616C344.749 159.314 344.936 159.734 345.051 159.878C345.171 160.019 345.336 160.052 345.544 159.977C345.757 159.899 345.859 159.756 345.849 159.546C345.838 159.337 345.701 158.878 345.438 158.171L343.386 152.649Z" fill="white"/>
<path d="M345.693 148.349L347.92 147.606C349.405 147.11 350.428 146.832 350.99 146.772C351.557 146.71 352.084 146.861 352.572 147.224C353.063 147.58 353.482 148.274 353.829 149.305C354.145 150.246 354.241 150.917 354.115 151.319C353.99 151.721 353.594 152.069 352.928 152.363C353.603 152.31 354.091 152.376 354.393 152.564C354.694 152.751 354.906 152.946 355.03 153.149C355.157 153.344 355.384 153.93 355.712 154.906L356.785 158.095L353.863 159.071L352.511 155.053C352.294 154.406 352.106 154.022 351.95 153.903C351.798 153.782 351.506 153.794 351.072 153.938L352.906 159.39L349.759 160.441L345.693 148.349ZM349.535 149.367L350.439 152.056C350.793 151.938 351.024 151.808 351.132 151.667C351.243 151.519 351.208 151.179 351.029 150.646L350.806 149.982C350.677 149.598 350.522 149.37 350.343 149.297C350.168 149.223 349.899 149.246 349.535 149.367Z" fill="white"/>
<path d="M362.929 142.877L366.622 155.122L363.838 155.959L361.345 147.692L362.726 156.293L360.751 156.886L357.142 149.161L359.578 157.239L356.794 158.075L353.101 145.83L357.224 144.591C357.567 145.291 357.958 146.119 358.395 147.077L359.774 150.061L358.775 144.125L362.929 142.877Z" fill="white"/>
<path d="M368.667 141.384L373.704 153.304L370.408 154.188L369.673 152L368.518 152.309L368.901 154.592L365.567 155.486L364.009 142.632L368.667 141.384ZM369.015 149.823C368.49 148.461 367.881 146.769 367.186 144.748C367.47 147.207 367.713 148.998 367.914 150.119L369.015 149.823Z" fill="white"/>
<path d="M373.391 140.441L375.74 150.362L377.7 149.892L378.287 152.374L373.104 153.617L370.168 141.214L373.391 140.441Z" fill="white"/>
<path d="M449.766 147.154C449.638 148.436 449.516 149.342 449.399 149.872C449.289 150.397 449.051 150.865 448.686 151.276C448.327 151.687 447.864 151.985 447.299 152.17C446.734 152.354 446.091 152.412 445.371 152.342C444.688 152.277 444.084 152.107 443.559 151.834C443.04 151.556 442.637 151.178 442.35 150.699C442.064 150.221 441.915 149.716 441.905 149.184C441.894 148.653 441.954 147.73 442.085 146.416L442.303 144.232C442.431 142.95 442.551 142.046 442.662 141.521C442.778 140.991 443.016 140.521 443.376 140.109C443.741 139.699 444.206 139.401 444.771 139.217C445.336 139.032 445.979 138.975 446.699 139.044C447.382 139.109 447.983 139.281 448.502 139.559C449.027 139.832 449.433 140.208 449.719 140.687C450.006 141.165 450.155 141.67 450.165 142.202C450.176 142.734 450.116 143.656 449.984 144.97L449.766 147.154ZM446.865 142.641C446.924 142.047 446.928 141.666 446.876 141.496C446.83 141.322 446.704 141.225 446.499 141.205C446.325 141.189 446.185 141.244 446.076 141.372C445.974 141.494 445.89 141.884 445.824 142.541L445.229 148.501C445.155 149.242 445.138 149.702 445.179 149.881C445.225 150.06 445.358 150.161 445.579 150.182C445.805 150.203 445.959 150.118 446.042 149.924C446.125 149.73 446.204 149.258 446.28 148.506L446.865 142.641Z" fill="white"/>
<path d="M458.669 140.861L455.325 153.348L450.31 152.729L450.067 139.799L453.552 140.229C453.496 143.776 453.396 146.767 453.252 149.204C453.745 146.784 454.21 144.637 454.647 142.763L455.184 140.43L458.669 140.861Z" fill="white"/>
<path d="M458.188 140.851L463.656 141.688L463.274 144.212L461.085 143.877L460.723 146.269L462.772 146.583L462.409 148.983L460.36 148.669L459.941 151.443L462.348 151.812L461.966 154.336L456.279 153.466L458.188 140.851Z" fill="white"/>
<path d="M464.259 141.888L466.569 142.306C468.109 142.584 469.14 142.832 469.661 143.049C470.187 143.267 470.576 143.652 470.827 144.205C471.084 144.753 471.115 145.562 470.919 146.631C470.739 147.608 470.498 148.242 470.193 148.534C469.889 148.826 469.374 148.941 468.648 148.879C469.265 149.156 469.66 149.449 469.833 149.758C470.006 150.067 470.097 150.339 470.107 150.576C470.123 150.809 470.038 151.431 469.853 152.444L469.246 155.753L466.214 155.205L466.979 151.035C467.102 150.364 467.124 149.938 467.045 149.758C466.971 149.579 466.709 149.449 466.259 149.368L465.222 155.025L461.958 154.435L464.259 141.888ZM467.129 144.625L466.617 147.415C466.984 147.481 467.249 147.478 467.412 147.406C467.581 147.33 467.716 147.016 467.817 146.463L467.944 145.773C468.017 145.375 467.992 145.101 467.87 144.951C467.753 144.802 467.506 144.693 467.129 144.625Z" fill="white"/>
<path d="M484.121 145.916L480.014 158.069L475.97 157.156C476.011 155.156 476.152 152.904 476.392 150.4C476.041 151.414 475.275 153.525 474.094 156.733L470.074 155.825L471.298 143.021L474.442 143.731L473.841 148.16L473.281 152.437C473.864 150.29 474.771 147.505 476.003 144.083L479.37 144.843C479.338 145.219 479.163 146.617 478.843 149.039L478.183 153.858C479.008 150.883 479.939 147.999 480.977 145.206L484.121 145.916Z" fill="white"/>
<path d="M483.44 145.747L488.818 147.113L488.18 149.593L486.027 149.047L485.423 151.397L487.438 151.908L486.831 154.266L484.816 153.754L484.115 156.48L486.482 157.081L485.844 159.561L480.251 158.141L483.44 145.747Z" fill="white"/>
<path d="M492.375 148.324L488.934 160.58L485.751 159.669L489.193 147.413L492.375 148.324Z" fill="white"/>
<path d="M499.262 155.079L496.077 154.122L496.412 153.01C496.624 152.309 496.726 151.862 496.719 151.667C496.711 151.472 496.594 151.341 496.367 151.273C496.17 151.214 496.014 151.249 495.898 151.379C495.781 151.509 495.629 151.887 495.44 152.512L493.668 158.389C493.502 158.939 493.428 159.312 493.445 159.51C493.464 159.703 493.58 159.831 493.792 159.894C494.024 159.964 494.21 159.913 494.35 159.74C494.495 159.57 494.653 159.199 494.825 158.629L495.263 157.177L494.62 156.984L495.181 155.123L498.911 156.244L496.929 162.817L494.924 162.214L494.893 161.248C494.562 161.561 494.201 161.764 493.811 161.855C493.427 161.943 493.01 161.92 492.561 161.785C492.027 161.624 491.563 161.345 491.172 160.947C490.787 160.545 490.531 160.116 490.405 159.66C490.278 159.204 490.248 158.758 490.313 158.321C490.381 157.88 490.541 157.238 490.795 156.396L491.892 152.758C492.245 151.588 492.565 150.757 492.85 150.265C493.136 149.774 493.643 149.398 494.37 149.138C495.104 148.875 495.946 148.886 496.894 149.171C497.827 149.451 498.543 149.875 499.043 150.443C499.543 151.012 499.806 151.588 499.833 152.174C499.862 152.754 499.725 153.546 499.422 154.55L499.262 155.079Z" fill="white"/>
<path d="M508.201 153.179L504.135 165.27L500.988 164.22L502.696 159.141L501.754 158.827L500.046 163.905L496.9 162.855L500.966 150.763L504.113 151.814L502.658 156.138L503.6 156.453L505.055 152.128L508.201 153.179Z" fill="white"/>
<path d="M514.922 155.609L514.028 158.013L512.168 157.338L508.595 166.949L505.462 165.812L509.034 156.201L507.181 155.528L508.075 153.124L514.922 155.609Z" fill="white"/>
<path d="M572.05 202.32C571.204 203.283 570.58 203.945 570.179 204.307C569.785 204.667 569.322 204.908 568.79 205.028C568.261 205.152 567.715 205.125 567.152 204.947C566.588 204.768 566.035 204.442 565.493 203.968C564.979 203.519 564.589 203.031 564.324 202.506C564.065 201.98 563.959 201.441 564.004 200.887C564.05 200.334 564.222 199.839 564.522 199.403C564.821 198.967 565.404 198.255 566.271 197.269L567.712 195.629C568.558 194.666 569.178 194.004 569.572 193.643C569.973 193.282 570.438 193.04 570.966 192.916C571.499 192.795 572.047 192.824 572.61 193.002C573.174 193.181 573.727 193.507 574.268 193.981C574.783 194.43 575.169 194.918 575.427 195.444C575.693 195.969 575.803 196.508 575.758 197.062C575.712 197.615 575.54 198.11 575.24 198.546C574.941 198.982 574.358 199.694 573.491 200.68L572.05 202.32ZM572.319 196.987C572.711 196.541 572.935 196.235 572.991 196.067C573.055 195.899 573.009 195.748 572.855 195.613C572.725 195.499 572.579 195.462 572.417 195.503C572.263 195.543 571.97 195.809 571.536 196.303L567.604 200.778C567.115 201.335 566.835 201.697 566.764 201.865C566.697 202.037 566.747 202.196 566.913 202.341C567.083 202.49 567.258 202.51 567.437 202.401C567.616 202.293 567.954 201.956 568.449 201.392L572.319 196.987Z" fill="white"/>
<path d="M577.224 196.931L579.659 199.189C580.428 199.903 580.954 200.502 581.237 200.987C581.524 201.476 581.619 202.017 581.521 202.609C581.427 203.198 581.003 203.898 580.249 204.708C579.739 205.256 579.297 205.558 578.922 205.613C578.551 205.671 578.058 205.524 577.444 205.17C577.89 205.821 578.075 206.388 578 206.871C577.928 207.351 577.609 207.896 577.041 208.506L576.234 209.374C575.645 210.007 575.135 210.408 574.705 210.577C574.278 210.749 573.854 210.745 573.433 210.563C573.012 210.381 572.311 209.834 571.329 208.924L568.506 206.305L577.224 196.931ZM578.173 200.799L576.235 202.883C576.342 202.976 576.425 203.049 576.483 203.103C576.723 203.325 576.93 203.409 577.103 203.354C577.28 203.295 577.627 202.988 578.144 202.432C578.417 202.139 578.58 201.909 578.634 201.743C578.691 201.573 578.689 201.432 578.629 201.319C578.573 201.209 578.421 201.035 578.173 200.799ZM574.878 204.342L572.438 206.965C572.793 207.273 573.062 207.421 573.244 207.411C573.43 207.404 573.7 207.211 574.051 206.833L574.864 205.959C575.238 205.557 575.421 205.274 575.415 205.111C575.409 204.947 575.23 204.691 574.878 204.342Z" fill="white"/>
<path d="M583.002 202.464L586.94 206.333L585.153 208.149L583.577 206.6L581.883 208.321L583.358 209.77L581.659 211.496L580.184 210.047L578.22 212.042L579.954 213.745L578.166 215.561L574.071 211.538L583.002 202.464Z" fill="white"/>
<path d="M589.515 214.288L587.367 212.051L588.049 211.387C588.367 211.078 588.542 210.852 588.574 210.71C588.606 210.568 588.558 210.43 588.43 210.296C588.291 210.152 588.126 210.098 587.935 210.136C587.748 210.178 587.536 210.315 587.297 210.548C586.99 210.846 586.799 211.113 586.725 211.349C586.646 211.58 586.677 211.989 586.816 212.577C587.213 214.264 587.342 215.444 587.204 216.117C587.066 216.791 586.547 217.566 585.645 218.444C584.99 219.082 584.432 219.474 583.971 219.62C583.514 219.77 582.967 219.727 582.33 219.492C581.696 219.252 581.098 218.839 580.534 218.252C579.914 217.607 579.506 216.938 579.309 216.245C579.116 215.555 579.139 214.957 579.378 214.451C579.618 213.945 580.082 213.356 580.772 212.684L581.374 212.098L583.522 214.334L582.403 215.424C582.058 215.76 581.866 216.006 581.826 216.163C581.79 216.324 581.849 216.484 582.002 216.644C582.156 216.804 582.332 216.862 582.531 216.816C582.733 216.775 582.957 216.634 583.203 216.394C583.745 215.867 584.027 215.447 584.051 215.136C584.071 214.822 583.989 214.175 583.804 213.196C583.623 212.214 583.528 211.539 583.519 211.171C583.51 210.804 583.601 210.402 583.791 209.966C583.984 209.534 584.325 209.08 584.814 208.604C585.518 207.918 586.12 207.506 586.618 207.368C587.119 207.234 587.655 207.28 588.225 207.507C588.799 207.731 589.361 208.128 589.91 208.7C590.511 209.326 590.922 209.955 591.142 210.589C591.366 211.227 591.393 211.766 591.221 212.206C591.057 212.646 590.61 213.222 589.879 213.934L589.515 214.288Z" fill="white"/>
<path d="M594.756 214.585L585.314 223.147L583.088 220.691L592.531 212.128L594.756 214.585Z" fill="white"/>
<path d="M599.867 220.145L597.943 221.841L596.627 220.362L588.937 227.14L586.722 224.65L594.412 217.872L593.102 216.399L595.027 214.703L599.867 220.145Z" fill="white"/>
<path d="M604.629 225.873L596.804 229.233L593.248 232.193L591.271 229.833L594.826 226.873L599.593 219.864L601.556 222.206C599.95 224.166 598.834 225.444 598.208 226.041C599.374 225.31 600.86 224.473 602.666 223.531L604.629 225.873Z" fill="white"/>
<path d="M628.712 266.361L631.215 271.299L628.946 272.473L627.944 270.497L625.794 271.61L626.732 273.46L624.575 274.576L623.637 272.726L621.144 274.017L622.246 276.191L619.977 277.365L617.374 272.23L628.712 266.361Z" fill="white"/>
<path d="M634.364 277.933L628.761 279.328L623.095 283.982L621.753 281.211C622.742 280.33 623.993 279.358 625.507 278.295C624.744 278.566 623.922 278.831 623.042 279.089L621.024 279.705L619.614 276.792L626.566 274.795L631.141 271.276L632.541 274.167C632.248 274.371 631.77 274.729 631.105 275.24C630.6 275.633 630.131 275.982 629.701 276.288L633.15 275.425L634.364 277.933Z" fill="white"/>
<path d="M637.163 284.26L634.83 285.312L634.024 283.51L624.7 287.717L623.343 284.681L632.667 280.474L631.864 278.678L634.197 277.625L637.163 284.26Z" fill="white"/>
<path d="M637.128 284.354L638.022 286.53C638.619 287.98 638.966 288.985 639.064 289.542C639.165 290.104 639.05 290.642 638.72 291.154C638.397 291.669 637.732 292.135 636.725 292.552C635.806 292.932 635.141 293.073 634.731 292.975C634.32 292.877 633.946 292.505 633.606 291.86C633.706 292.531 633.672 293.023 633.505 293.337C633.338 293.651 633.158 293.877 632.964 294.014C632.777 294.154 632.206 294.421 631.253 294.816L628.138 296.104L626.964 293.249L630.889 291.625C631.521 291.364 631.892 291.151 632.001 290.986C632.111 290.826 632.08 290.535 631.906 290.111L626.58 292.314L625.316 289.24L637.128 284.354ZM636.371 288.264L633.744 289.351C633.886 289.696 634.032 289.918 634.18 290.016C634.335 290.117 634.673 290.06 635.194 289.845L635.843 289.576C636.217 289.421 636.435 289.251 636.496 289.067C636.558 288.887 636.517 288.619 636.371 288.264Z" fill="white"/>
<path d="M640.321 291.628L642.212 296.855L639.809 297.752L639.052 295.659L636.774 296.509L637.483 298.467L635.198 299.319L634.489 297.361L631.848 298.346L632.681 300.646L630.277 301.543L628.311 296.108L640.321 291.628Z" fill="white"/>
<path d="M645.6 306.898L633.576 311.126L632.626 308.389L640.743 305.535L632.246 307.296L631.572 305.355L639.104 301.413L631.172 304.202L630.222 301.466L642.246 297.238L643.653 301.291C642.972 301.664 642.164 302.09 641.23 302.568L638.32 304.076L644.183 302.815L645.6 306.898Z" fill="white"/>
<path d="M646.606 310.191L636.864 313.272L637.469 315.199L635.032 315.97L633.433 310.873L645.612 307.021L646.606 310.191Z" fill="white"/>
<path d="M648.962 318.186L640.492 318.142L636.063 319.436L635.221 316.483L639.65 315.189L646.817 310.667L647.653 313.598C645.401 314.753 643.87 315.479 643.059 315.776C644.415 315.572 646.104 315.398 648.126 315.256L648.962 318.186Z" fill="white"/>
<path d="M644.243 329.731C642.997 330.04 642.105 330.228 641.569 330.296C641.039 330.368 640.52 330.301 640.012 330.096C639.505 329.897 639.07 329.562 638.707 329.094C638.344 328.625 638.075 328.041 637.898 327.342C637.73 326.679 637.686 326.056 637.766 325.472C637.853 324.892 638.073 324.387 638.425 323.958C638.778 323.529 639.202 323.221 639.698 323.033C640.193 322.845 641.079 322.593 642.357 322.276L644.479 321.75C645.726 321.441 646.614 321.251 647.144 321.179C647.681 321.111 648.202 321.177 648.709 321.377C649.217 321.582 649.652 321.919 650.015 322.387C650.378 322.856 650.648 323.44 650.825 324.139C650.993 324.802 651.034 325.424 650.947 326.004C650.867 326.587 650.65 327.094 650.297 327.523C649.944 327.952 649.52 328.26 649.025 328.448C648.53 328.636 647.643 328.888 646.366 329.205L644.243 329.731ZM647.505 325.498C648.082 325.355 648.441 325.231 648.583 325.125C648.731 325.024 648.78 324.873 648.729 324.674C648.687 324.506 648.587 324.392 648.431 324.333C648.282 324.278 647.887 324.33 647.249 324.488L641.456 325.924C640.735 326.102 640.298 326.241 640.144 326.338C639.991 326.441 639.941 326.6 639.995 326.814C640.051 327.034 640.183 327.15 640.393 327.163C640.603 327.176 641.073 327.092 641.803 326.911L647.505 325.498Z" fill="white"/>
<path d="M651.553 328.278L652.236 331.512C652.451 332.533 652.535 333.323 652.486 333.881C652.438 334.444 652.205 334.939 651.786 335.367C651.372 335.794 650.626 336.123 649.549 336.354C648.821 336.511 648.289 336.504 647.953 336.335C647.618 336.171 647.302 335.769 647.007 335.129C646.995 335.915 646.82 336.484 646.482 336.836C646.148 337.186 645.576 337.449 644.766 337.623L643.611 337.87C642.77 338.051 642.126 338.087 641.68 337.979C641.235 337.876 640.893 337.63 640.656 337.241C640.418 336.852 640.162 336.006 639.887 334.702L639.096 330.951L651.553 328.278ZM650.106 331.977L647.336 332.572C647.37 332.709 647.395 332.816 647.412 332.893C647.479 333.212 647.598 333.398 647.771 333.452C647.948 333.505 648.406 333.453 649.145 333.294C649.535 333.21 649.799 333.116 649.938 333.011C650.082 332.905 650.162 332.789 650.178 332.662C650.195 332.54 650.171 332.312 650.106 331.977ZM645.397 332.988L641.911 333.736C642.023 334.189 642.156 334.464 642.31 334.56C642.465 334.661 642.794 334.657 643.297 334.549L644.459 334.3C644.992 334.185 645.304 334.059 645.393 333.922C645.482 333.785 645.483 333.474 645.397 332.988Z" fill="white"/>
<path d="M653.108 336.119L654.089 341.562L651.578 342.024L651.186 339.845L648.807 340.283L649.174 342.322L646.788 342.761L646.42 340.722L643.661 341.229L644.093 343.625L641.583 344.087L640.562 338.427L653.108 336.119Z" fill="white"/>
<path d="M651.583 349.588L651.118 346.54L652.053 346.389C652.489 346.318 652.76 346.234 652.868 346.137C652.975 346.04 653.015 345.9 652.987 345.718C652.957 345.52 652.854 345.383 652.677 345.305C652.501 345.232 652.25 345.222 651.923 345.275C651.502 345.343 651.194 345.452 650.999 345.6C650.803 345.744 650.593 346.095 650.37 346.653C649.726 348.254 649.155 349.289 648.657 349.758C648.16 350.228 647.294 350.562 646.058 350.762C645.16 350.908 644.482 350.908 644.024 350.764C643.567 350.625 643.147 350.278 642.764 349.722C642.387 349.165 642.137 348.486 642.015 347.686C641.881 346.807 641.933 346.03 642.17 345.352C642.407 344.68 642.769 344.206 643.253 343.93C643.738 343.655 644.452 343.441 645.397 343.288L646.222 343.154L646.687 346.203L645.153 346.451C644.681 346.527 644.384 346.618 644.262 346.723C644.14 346.833 644.096 346.998 644.129 347.216C644.163 347.434 644.273 347.581 644.46 347.658C644.648 347.739 644.91 347.752 645.248 347.698C645.99 347.578 646.46 347.398 646.657 347.158C646.854 346.913 647.157 346.34 647.568 345.437C647.983 344.534 648.292 343.93 648.496 343.625C648.699 343.32 649.003 343.045 649.407 342.798C649.811 342.557 650.349 342.382 651.018 342.274C651.983 342.118 652.708 342.126 653.192 342.298C653.676 342.475 654.085 342.819 654.418 343.329C654.756 343.839 654.985 344.484 655.104 345.264C655.234 346.116 655.207 346.863 655.023 347.506C654.84 348.153 654.553 348.607 654.162 348.867C653.777 349.132 653.083 349.346 652.082 349.508L651.583 349.588Z" fill="white"/>
<path d="M655.801 352.739L643.181 354.399L642.726 351.12L655.346 349.461L655.801 352.739Z" fill="white"/>
<path d="M656.634 360.325L654.093 360.608L653.878 358.647L643.72 359.777L643.358 356.474L653.517 355.344L653.303 353.39L655.844 353.107L656.634 360.325Z" fill="white"/>
<path d="M657.397 367.797L649.053 366.029L644.432 366.399L644.18 363.325L648.8 362.954L656.754 359.968L657.005 363.019C654.557 363.697 652.905 364.099 652.048 364.226C653.424 364.301 655.124 364.474 657.146 364.746L657.397 367.797Z" fill="white"/>
<path d="M462.704 202.651L456.791 271.936L455.933 282.033L455.304 289.353L452.899 317.466C450.57 323.604 448.221 329.742 445.852 335.88C441.95 346.11 438.028 356.341 434.085 366.571L424.556 373.599H423.789H400.226H391.968C388.534 368.601 386.619 362.715 386.453 356.65C386.287 350.586 387.878 344.603 391.034 339.425L421.675 281.112L423.207 278.151L427.421 270.11L462.704 202.651Z" fill="#191919"/>
<path d="M454.952 229.245L451.397 270.907L450.57 280.56L450.003 287.143L445.851 335.88C441.95 346.11 438.027 356.34 434.085 366.571L424.555 373.599H423.789H400.226C396.867 370.309 394.467 366.166 393.282 361.613C392.097 357.06 392.172 352.27 393.5 347.757C394.13 345.6 395.041 343.536 396.212 341.619L427.619 281.649L429.519 278.028L433.87 269.71L454.952 229.245Z" fill="#474747"/>
<path d="M435.54 359.557C434.55 362.955 432.576 365.981 429.868 368.255C427.16 370.528 423.839 371.946 420.326 372.329C416.814 372.712 413.267 372.044 410.133 370.407C407 368.771 404.422 366.241 402.725 363.137C401.027 360.033 400.287 356.494 400.597 352.969C400.908 349.444 402.255 346.09 404.469 343.331C406.683 340.573 409.664 338.534 413.035 337.473C416.405 336.411 420.015 336.375 423.406 337.368C427.95 338.703 431.78 341.789 434.055 345.949C436.33 350.109 436.864 355.003 435.54 359.557Z" fill="#191919"/>
<path d="M416.727 273.961C390.214 273.961 364.779 284.471 345.978 303.195C327.178 321.919 316.54 347.336 316.391 373.891H323.423C323.678 349.311 333.592 325.822 351.017 308.511C368.441 291.201 391.973 281.464 416.515 281.41C441.057 281.355 464.632 290.988 482.133 308.22C499.634 325.453 509.651 348.898 510.015 373.476H517.048C516.789 346.996 506.106 321.688 487.321 303.054C468.535 284.419 443.166 273.964 416.727 273.961Z" fill="#A9ABAE"/>
<path d="M510.015 373.461H465.232H445.545H424.555H423.789H400.226H391.447L323.422 373.66C323.58 348.979 333.48 325.362 350.961 307.965C368.442 290.569 392.084 280.805 416.726 280.805C418.366 280.805 419.99 280.805 421.614 280.928C423.59 281.036 425.566 281.204 427.512 281.435C435.211 282.312 442.769 284.163 450.003 286.944C451.796 287.619 453.573 288.355 455.304 289.153C459.411 291.016 463.375 293.18 467.162 295.629C468.924 296.749 470.625 297.946 472.295 299.205C478.028 303.446 483.247 308.344 487.846 313.798C489.056 315.21 490.205 316.668 491.308 318.156C494.675 322.625 497.629 327.392 500.133 332.397C501.098 334.299 502.002 336.233 502.814 338.213C505.102 343.656 506.857 349.309 508.054 355.092C508.421 356.873 508.743 358.683 509.019 360.509C509.649 364.798 509.981 369.126 510.015 373.461Z" fill="white"/>
<path d="M367.041 320.043C371.096 319.413 375.195 319.11 379.298 319.138C385.058 319.138 388.597 319.721 391.646 321.486C393.167 322.256 394.441 323.438 395.324 324.897C396.207 326.357 396.663 328.035 396.641 329.742C396.641 333.425 394.481 336.893 389.777 338.642V338.811C392.134 339.296 394.251 340.584 395.767 342.456C397.284 344.327 398.107 346.667 398.096 349.077C398.106 350.794 397.718 352.49 396.963 354.031C396.208 355.573 395.107 356.918 393.745 357.962C390.681 360.432 385.641 361.767 377.306 361.767C373.895 361.8 370.485 361.595 367.102 361.154L367.041 320.043ZM376.402 336.079H379.466C384.476 336.079 387.127 333.992 387.127 330.877C387.127 327.762 384.721 326.028 380.447 326.028C379.107 325.986 377.767 326.083 376.448 326.32L376.402 336.079ZM376.402 354.601C377.601 354.752 378.81 354.808 380.018 354.77C384.308 354.77 388.092 353.113 388.092 348.632C388.092 344.151 384.308 342.831 379.711 342.831H376.479L376.402 354.601Z" fill="#17A37C"/>
<path d="M439.815 345.317C439.632 340.253 439.432 334.207 439.463 328.069H439.295C437.962 333.44 436.23 339.379 434.622 344.32L429.504 360.647H422.166L417.661 344.473C416.313 339.548 414.919 333.594 413.877 328.069H413.755C413.555 333.762 413.31 340.238 413.065 345.44L412.284 361.338H403.536L406.217 319.476H418.811L422.886 333.455C424.219 338.259 425.506 343.522 426.44 348.433H426.639C427.773 343.583 429.198 338.059 430.608 333.394L435.051 319.476H447.415L449.651 361.338H440.459L439.815 345.317Z" fill="#17A37C"/>
<path d="M466.412 319.476V361.338H456.959V319.476H466.412Z" fill="#17A37C"/>
</g>
<defs>
<clipPath id="clip0_223_443">
<rect width="850" height="531.441" fill="white"/>
</clipPath>
</defs>
</svg>
