<svg width="812" height="508" viewBox="0 0 812 508" fill="none" xmlns="http://www.w3.org/2000/svg">
<g clip-path="url(#clip0_223_1295)">
<path d="M612.059 200.775C579.006 155.62 532.553 122.081 479.334 104.946C426.115 87.8112 368.851 87.9572 315.72 105.363C262.589 122.769 216.307 156.545 183.484 201.868C150.661 247.19 132.975 301.742 132.952 357.732C132.952 357.732 204.17 357.425 294.415 357.131C295.259 330.19 306.522 304.632 325.826 285.852C345.13 267.072 370.966 256.541 397.877 256.482C424.788 256.423 450.669 266.841 470.055 285.536C489.442 304.231 500.816 329.74 501.777 356.677C592.52 356.677 656.274 357.718 663.255 357.718C663.351 301.271 645.411 246.275 612.059 200.775Z" fill="#6B6B6B"/>
<path d="M606.131 205.114C573.997 161.198 528.829 128.577 477.078 111.91C425.328 95.2426 369.642 95.3822 317.975 112.308C266.309 129.235 221.304 162.082 189.389 206.158C157.475 250.234 140.284 303.285 140.271 357.732C140.271 357.732 209.528 357.424 297.27 357.146C297.84 330.776 308.684 305.675 327.483 287.206C346.283 268.736 371.549 258.363 397.883 258.302C424.216 258.241 449.53 268.496 468.415 286.878C487.3 305.26 498.26 330.31 498.953 356.677C587.119 356.677 650.434 357.688 655.967 357.688C656.039 302.806 638.575 249.341 606.131 205.114Z" fill="#E6E6E6"/>
<path d="M89.6444 51.1174C89.6444 51.1174 100.036 53.7268 100.402 63.402C100.768 73.0772 103.446 93.5416 104.09 97.8808C105.554 103.862 108.686 108.758 109.242 118.243C109.798 127.727 103.388 156.357 103.9 159.45C105.554 165.167 106.754 173.919 98.0454 177.613C90.6543 135.394 84.0389 62.4345 89.6444 51.1174Z" fill="#F3877C"/>
<path d="M18.6614 159.025C18.6614 159.025 9.64567 153.484 10.4653 151.358C11.2849 149.232 19.0712 156.489 20.447 156.899C15.178 150.537 13.4656 146.916 14.9 146.77C16.3343 146.623 22.0862 154.51 22.0862 154.51C22.0862 154.51 16.4806 145.48 17.432 144.717C18.3833 143.955 24.2669 152.589 24.2669 152.589C24.2669 152.589 24.1938 158.336 18.6614 159.025Z" fill="#EE6066"/>
<path d="M50.0547 48.1268C50.0547 48.1268 47.9179 53.6241 45.459 59.7517C43.0002 65.8793 39.9998 73.0917 38.7119 75.4226C37.9069 76.8885 35.5066 80.3921 32.6233 84.4674C26.5202 93.1017 18.2216 104.331 18.2216 104.331C18.2216 104.331 24.8517 128.768 30.2377 142.87C31.0427 145.509 29.3303 150.669 23.3735 149.98C9.27908 134.148 -0.219622 108.23 -0.0439916 104.331C8.31311 84.4967 22.305 67.6824 29.1546 59.5611C34.4382 53.3016 49.8059 48.0975 50.0547 48.1268Z" fill="#F6AA99"/>
<path d="M45.4587 59.7517C42.8975 66.0846 39.9995 73.0917 38.7116 75.4226C37.9066 76.8885 35.5063 80.3921 32.623 84.4674C33.9842 66.5683 36.8089 60.6753 37.0138 60.0742L45.4587 59.7517Z" fill="#F3877C"/>
<path d="M30.2383 142.87C30.882 144.114 31.2741 145.473 31.3922 146.87C31.5102 148.266 31.3518 149.672 30.9261 151.006C29.4626 155.404 23.8277 163.174 20.681 162.822C17.5343 162.47 8.70885 157.31 8.54785 155.14C10.392 153.674 15.6609 158.468 18.9686 158.468C22.7593 153.073 22.291 147.004 24.4717 145.744C26.6525 144.483 30.2383 142.87 30.2383 142.87Z" fill="#F6AA99"/>
<path d="M30.1943 185.163C30.1943 185.163 30.1943 189.824 30.3113 197.506C30.4284 209.233 30.6041 227.777 30.7797 247.553C22.6714 274.028 35.3022 299.55 33.9557 328.927V329.411C33.6191 335.025 32.858 338.456 27.6769 343.322C22.4958 348.189 14.5924 353.599 12.9385 355.211C12.0296 355.981 11.4399 357.063 11.2847 358.246H35.4485C41.7859 358.246 40.0149 356.956 42.6787 354.361C44.1423 353.012 46.8353 354.141 49.0599 353.408C50.7723 352.836 50.6552 349.992 50.0698 345.565C49.8795 344.231 49.6307 342.736 49.4258 341.168C49.0324 337.129 48.8468 333.073 48.8697 329.015C49.3966 308.58 52.2213 256.055 52.2213 256.055L59.2319 197.301L60.6955 185.573L30.1943 185.163Z" fill="#F6AA99"/>
<path d="M29.6813 356.97H26.8712C26.6078 356.97 26.9883 356.002 27.9689 355.885C29.2862 355.724 29.9594 356.677 29.6813 356.97Z" fill="#F8BBB1"/>
<path d="M24.2077 356.97H21.4123C21.1342 356.97 21.5294 356.002 22.4953 355.885C23.8272 355.724 24.4858 356.677 24.2077 356.97Z" fill="#F8BBB1"/>
<path d="M19.3342 356.97H16.5387C16.2606 356.97 16.6558 356.164 17.6218 356.076C18.9537 355.944 19.6123 356.78 19.3342 356.97Z" fill="#F8BBB1"/>
<path d="M14.7818 356.97H12.2351C11.9863 356.97 12.3376 356.164 13.2304 356.076C14.4012 355.944 15.0306 356.78 14.7818 356.97Z" fill="#F8BBB1"/>
<path d="M49.06 353.467C46.8353 354.2 44.1716 353.173 42.6934 354.419C45.7523 350.725 45.8986 346.386 50.0113 345.624C50.6553 350.051 50.7724 352.895 49.06 353.467Z" fill="#F3877C"/>
<path d="M36.546 348.467C36.8397 348.463 37.1281 348.547 37.3736 348.708C37.6191 348.87 37.8104 349.102 37.9225 349.374C38.0346 349.646 38.0624 349.945 38.0022 350.233C37.942 350.522 37.7967 350.785 37.5851 350.989L37.4534 351.106C35.648 352.57 33.9597 354.172 32.404 355.9C31.9283 356.615 31.6552 357.446 31.6137 358.304H29.7988C29.8397 357.608 30.039 356.93 30.3814 356.323C30.7239 355.716 31.2004 355.195 31.7747 354.8C33.2383 353.613 36.8241 350.974 37.2778 349.743C37.5559 348.966 36.546 348.467 36.546 348.467Z" fill="#EE6066"/>
<path d="M34.0142 356.281H38.7708C38.7708 356.281 39.5173 354.537 37.7024 354.214C36.9408 354.032 36.1386 354.143 35.4552 354.526C34.7718 354.909 34.2574 355.535 34.0142 356.281Z" fill="#F8BBB1"/>
<path d="M33.5602 349.772C33.5602 349.772 33.5602 351.326 30.3696 353.525C27.9693 355.182 25.7885 356.809 25.4519 358.304H23.4761C24.3068 356.908 25.4183 355.7 26.7399 354.757C29.2865 352.851 32.6235 351.605 33.5602 349.772Z" fill="#EE6066"/>
<path d="M26.6374 351.693C25.891 352.47 22.7004 354.962 21.4856 356.091C20.8357 356.68 20.3769 357.451 20.1684 358.304H18.9097C19.4658 355.607 23.1834 353.745 26.6374 351.693Z" fill="#EE6066"/>
<path d="M22.0711 351.693C21.3393 352.47 18.134 354.962 16.9339 356.091C16.2847 356.683 15.8219 357.452 15.602 358.304H14.4019C14.8995 355.607 18.6316 353.745 22.0711 351.693Z" fill="#EE6066"/>
<path d="M60.637 185.5L59.1734 197.227L30.2528 197.52C30.2528 189.839 30.1357 185.177 30.1357 185.177L60.637 185.5Z" fill="#F3877C"/>
<path d="M36.356 245.119C36.356 245.119 37.278 255.63 41.4346 255.556C45.0936 255.556 48.4159 250.733 47.772 245.749C47.128 240.765 36.356 239.768 36.356 245.119Z" fill="#F3877C"/>
<path d="M99.4954 185.163C99.4954 185.163 99.4954 189.824 99.3783 197.506C99.2612 209.233 99.0856 227.777 98.9099 247.553C107.004 274.028 94.3874 299.55 95.7339 328.927V329.411C96.0706 335.025 96.817 338.456 102.013 343.322C107.208 348.189 115.083 353.511 116.766 355.182C117.675 355.95 118.26 357.034 118.405 358.216H94.2411C87.9037 358.216 89.6747 356.926 87.0109 354.332C85.5474 352.983 82.8543 354.112 80.6297 353.379C78.9173 352.807 79.0344 349.963 79.6198 345.536C79.8101 344.202 80.0589 342.707 80.2492 341.138C80.656 337.1 80.8465 333.044 80.8199 328.986C80.2931 308.55 77.4683 256.026 77.4683 256.026L70.4577 197.301L68.9941 185.573L99.4954 185.163Z" fill="#F6AA99"/>
<path d="M100.008 356.97H102.818C103.081 356.97 102.701 356.002 101.72 355.885C100.403 355.724 99.7297 356.677 100.008 356.97Z" fill="#F8BBB1"/>
<path d="M105.481 356.97H108.276C108.555 356.97 108.159 356.002 107.193 355.885C105.862 355.724 105.144 356.677 105.481 356.97Z" fill="#F8BBB1"/>
<path d="M110.355 356.97H113.15C113.428 356.97 113.033 356.164 112.067 356.076C110.735 355.944 110.077 356.78 110.355 356.97Z" fill="#F8BBB1"/>
<path d="M114.892 356.97H117.453C117.702 356.97 117.351 356.164 116.458 356.076C115.258 355.944 114.643 356.78 114.892 356.97Z" fill="#F8BBB1"/>
<path d="M80.6292 353.467C82.8538 354.2 85.5176 353.173 86.9958 354.419C83.9369 350.725 83.7905 346.386 79.6779 345.624C79.0339 350.051 78.9168 352.895 80.6292 353.467Z" fill="#F3877C"/>
<path d="M93.1425 348.467C92.8488 348.463 92.5604 348.547 92.3149 348.708C92.0694 348.87 91.8781 349.102 91.766 349.374C91.6539 349.646 91.6261 349.945 91.6863 350.233C91.7465 350.522 91.8918 350.785 92.1034 350.989L92.2351 351.106C94.0405 352.57 95.7288 354.172 97.2845 355.9C97.7602 356.615 98.0333 357.446 98.0748 358.304H99.8897C99.8488 357.608 99.6496 356.93 99.3071 356.323C98.9646 355.716 98.4881 355.195 97.9138 354.8C96.4502 353.613 92.8644 350.974 92.4107 349.743C92.1326 348.966 93.1425 348.467 93.1425 348.467Z" fill="#EE6066"/>
<path d="M95.6748 356.281H90.9182C90.9182 356.281 90.1717 354.537 91.9866 354.214C92.7482 354.032 93.5504 354.143 94.2338 354.526C94.9172 354.909 95.4316 355.535 95.6748 356.281Z" fill="#F8BBB1"/>
<path d="M96.1289 349.772C96.1289 349.772 96.1289 351.326 99.3195 353.525C101.72 355.182 103.901 356.809 104.223 358.304H106.213C105.38 356.905 104.263 355.696 102.935 354.757C100.403 352.851 97.0656 351.605 96.1289 349.772Z" fill="#EE6066"/>
<path d="M103.052 351.693C103.798 352.47 106.989 354.962 108.189 356.091C108.844 356.678 109.308 357.449 109.521 358.304H110.78C110.223 355.607 106.491 353.745 103.052 351.693Z" fill="#EE6066"/>
<path d="M107.618 351.693C108.349 352.47 111.555 354.962 112.755 356.091C113.404 356.683 113.867 357.452 114.087 358.304H115.389C114.775 355.607 110.999 353.745 107.618 351.693Z" fill="#EE6066"/>
<path d="M69.0522 185.5L70.5158 197.227L99.4364 197.52C99.4364 189.839 99.5535 185.177 99.5535 185.177L69.0522 185.5Z" fill="#F3877C"/>
<path d="M93.3334 245.119C93.3334 245.119 92.4113 255.63 88.2547 255.556C84.5958 255.556 81.2734 250.733 81.9174 245.749C82.5614 240.765 93.348 239.768 93.3334 245.119Z" fill="#F3877C"/>
<path d="M94.4456 136.787C84.9201 142.163 74.1757 145 63.2418 145.025C45.4006 144.922 35.4336 136.787 35.4336 136.787C35.4336 136.787 35.6824 70.3064 35.6824 62.3756C35.6824 55.8229 39.6341 51.8796 42.532 51.0293C45.4299 50.1791 57.6655 44.6232 57.6655 44.6232L58.3095 38.2757L58.6461 34.171L73.1796 33.3208L73.5016 37.4108L74.0431 44.5645C74.0431 44.5645 86.0153 49.5927 89.645 51.0879C93.2747 52.5832 95.1042 55.691 95.2066 61.3495C95.3091 67.008 94.4456 136.787 94.4456 136.787Z" fill="#F6AA99"/>
<path d="M73.5016 37.4401C72.2747 39.2751 70.8407 40.9623 69.228 42.4682C68.4891 43.1534 67.5576 43.5942 66.5599 43.7306C65.5622 43.8669 64.5468 43.6924 63.6517 43.2305C61.6221 41.8703 59.8193 40.1981 58.3096 38.2757L58.6462 34.171L73.1797 33.3208L73.5016 37.4401Z" fill="#EE6066"/>
<path d="M52.9231 78.1489C53.0695 76.5657 47.3176 76.0233 46.8785 78.1489C46.4394 80.2745 52.7036 80.7289 52.9231 78.1489Z" fill="#EE6066"/>
<path d="M86.718 78.1489C86.8498 76.5657 81.0978 76.0233 80.6588 78.1489C80.2197 80.2745 86.4839 80.7289 86.718 78.1489Z" fill="#EE6066"/>
<path d="M64.7347 116.557C64.7347 116.557 61.6612 122.42 64.9689 126.965C65.7586 125.336 66.1492 123.542 66.1085 121.732C66.0678 119.922 65.5968 118.148 64.7347 116.557Z" fill="#EE6066"/>
<path d="M49.6743 50.9119C54.6055 52.4839 59.6959 53.5016 64.8518 53.9464C70.6604 54.1858 76.4568 53.2381 81.8879 51.1611C81.8879 51.1611 63.0954 52.9055 49.6743 50.9119Z" fill="#F3877C"/>
<path d="M96.7582 135.966H32.7115L27.6475 190.616H61.7491C62.2028 190.616 64.6763 177.613 64.6763 177.613C64.6763 177.613 67.2083 190.616 67.6035 190.616H101.705L96.7582 135.966Z" fill="#213555"/>
<path d="M81.1705 19.2918C81.2584 19.0572 82.3414 13.8825 80.7754 10.4962C79.2093 7.10987 77.6872 6.201 74.438 4.92564C71.4816 -0.175821 63.5196 -1.39255 57.3872 1.62728C51.5328 4.55915 43.7612 14.1757 54.46 24.8037C65.1589 35.4318 78.7995 26.6655 81.1705 19.2918Z" fill="#142033"/>
<path d="M54.6501 21.6668C54.6501 21.6668 53.9183 18.471 52.3376 17.8993C50.7569 17.3276 48.9128 19.9956 49.3226 22.0772C49.5783 23.15 50.0625 24.1548 50.742 25.0226C51.4216 25.8905 52.2804 26.601 53.2596 27.1054C54.4451 27.4426 55.4258 26.0792 55.616 25.229C55.4951 23.9959 55.1686 22.7918 54.6501 21.6668Z" fill="#F3877C"/>
<path d="M51.6209 23.6015C51.1182 22.8794 50.8244 22.0322 50.772 21.1534C50.8891 20.1712 51.6355 18.9985 52.2356 19.0425C52.8356 19.0864 54.1968 22.1063 54.27 22.6193C54.3431 23.1324 53.1284 23.1471 53.2894 23.7774C53.4503 24.4078 54.3139 25.0088 54.5773 25.3606C54.8408 25.7125 54.8847 26.035 54.1675 26.1376C53.4503 26.2402 52.2941 24.7743 52.2941 24.7743C52.2941 24.7743 53.626 25.7858 53.9772 25.5366C54.3285 25.2873 53.0844 24.3345 52.6307 23.6455C52.177 22.9565 53.6113 22.7513 53.5674 22.3555C53.5674 22.2382 52.7186 20.1419 52.177 20.1859C51.6355 20.2299 50.9915 21.4173 51.6209 23.6015Z" fill="#EE6066"/>
<path d="M52.66 21.7839C52.4601 21.9907 52.3121 22.242 52.2282 22.5173C52.1442 22.7925 52.1267 23.0838 52.1771 23.3671C52.2476 23.8607 52.4915 24.3128 52.8649 24.6425C52.5529 24.4902 52.2885 24.2554 52.1002 23.9634C51.9118 23.6715 51.8068 23.3335 51.7965 22.986C51.7805 22.7167 51.8576 22.4501 52.0149 22.2312C52.1722 22.0122 52.4 21.8543 52.66 21.7839Z" fill="#EE6066"/>
<path d="M54.0653 18.0456C53.655 18.5318 53.4409 19.154 53.4652 19.7901C53.5697 21.3015 53.7701 22.8047 54.0653 24.2905C54.4992 27.3122 55.3105 30.2672 56.4802 33.0862C58.24 35.1774 60.2732 37.0216 62.5249 38.5687C64.3847 39.1521 66.3839 39.1109 68.2182 38.4515C69.0671 37.997 73.9262 34.684 74.7166 33.4233C75.5069 32.1626 78.3609 21.9157 78.3609 21.9157C76.3558 22.1649 77.1169 19.5995 76.4875 18.5587C75.8582 17.5179 74.6434 17.3567 73.8531 16.8289C72.8721 16.1877 71.9685 15.4351 71.1601 14.586C70.5395 14.0316 70.0398 13.3548 69.6922 12.5981C69.3447 11.8414 69.1568 11.021 69.1403 10.1882L57.8999 15.5682C56.4668 16.1242 55.162 16.9672 54.0653 18.0456Z" fill="#F6AA99"/>
<path d="M67.2524 23.1911C67.2524 23.1911 67.6769 23.9387 70.6333 23.9534C73.5898 23.9681 74.585 22.6047 74.585 22.6047L67.8671 22.8393L67.2524 23.1911Z" fill="#F3877C"/>
<path d="M68.3791 20.7724C67.8927 21.4343 67.6357 22.2374 67.6474 23.0592C68.9939 22.9566 71.3795 20.6551 71.3795 20.6551C70.3784 20.5709 69.3707 20.6103 68.3791 20.7724Z" fill="#EE6066"/>
<path d="M68.3206 22.1504C68.2474 22.1504 67.2375 23.1765 67.3693 23.3964C67.501 23.6163 67.984 23.3964 67.984 23.3964L68.3206 22.1504Z" fill="#F3877C"/>
<path d="M67.8809 23.1765C67.8809 23.0593 68.2907 21.0802 69.3444 20.7871C70.4564 20.4863 71.628 20.4863 72.74 20.7871C73.6474 21.1096 74.6134 22.6048 74.6134 22.6048C73.3716 23.0005 72.0812 23.2225 70.7788 23.2645C68.1004 23.4257 67.8809 23.1765 67.8809 23.1765Z" fill="white"/>
<path d="M72.3598 21.8574C72.3228 22.2103 72.1484 22.5344 71.8744 22.7594C71.6004 22.9844 71.249 23.0922 70.8962 23.0594C70.7146 23.0523 70.5364 23.0081 70.3725 22.9294C70.2086 22.8508 70.0625 22.7394 69.9433 22.602C69.824 22.4647 69.734 22.3044 69.6789 22.131C69.6238 21.9575 69.6047 21.7746 69.6228 21.5935C69.6599 21.2394 69.8338 20.914 70.1072 20.6866C70.3807 20.4592 70.7322 20.348 71.0864 20.3768C71.2687 20.3858 71.4472 20.4318 71.6111 20.5121C71.7751 20.5923 71.921 20.7051 72.0401 20.8436C72.1592 20.9821 72.2489 21.1433 72.3039 21.3176C72.3588 21.4919 72.3778 21.6755 72.3598 21.8574Z" fill="#321E41"/>
<path d="M72.945 22.4436C73.0329 22.0332 71.4814 21.74 71.4814 22.1797C71.4814 22.6195 72.945 22.7221 72.945 22.4436Z" fill="white"/>
<path d="M67.7939 20.9779C69.1562 20.8342 70.5297 20.8342 71.892 20.9779C72.9094 21.2754 73.8356 21.825 74.585 22.5757C74.3715 22.0687 74.054 21.6123 73.6531 21.236C73.2522 20.8598 72.7769 20.572 72.2579 20.3915C71.5131 20.1801 70.7331 20.1231 69.9656 20.224C69.1981 20.3248 68.4591 20.5813 67.7939 20.9779Z" fill="#321E41"/>
<path d="M69.2568 19.9222C70.2775 19.8174 71.3079 19.8618 72.3157 20.0541C72.9686 20.2703 73.5817 20.5922 74.1306 21.007C73.802 20.5024 73.3612 20.0809 72.8426 19.7756C71.6615 19.4473 70.4073 19.4985 69.2568 19.9222Z" fill="#F3877C"/>
<path d="M62.4515 17.4741C63.0808 18.1397 63.5996 18.9018 63.9883 19.7317C64.131 20.6153 64.131 21.5161 63.9883 22.3997L61.7344 18.3977L62.4515 17.4741Z" fill="#F3877C"/>
<path d="M58.865 18.5884C60.1237 18.5884 62.9923 18.9109 62.9631 18.8376C62.877 18.3556 62.7034 17.8936 62.4508 17.4743C60.7091 17.4743 59.5236 16.8 58.06 17.1078C57.0617 17.4251 56.23 18.1264 55.7476 19.0575C56.7693 18.8015 57.8133 18.6444 58.865 18.5884Z" fill="#321E41"/>
<path d="M67.7792 17.4741C67.2727 18.1878 66.8272 18.943 66.4473 19.7317C66.1726 20.5797 66.1321 21.4865 66.3302 22.3557L68.1451 18.0458L67.7792 17.4741Z" fill="#F3877C"/>
<path d="M71.3649 18.5884C70.1062 18.5884 67.2376 18.9109 67.2668 18.8376C67.3529 18.3556 67.5265 17.8936 67.7791 17.4743C69.5208 17.4743 70.7063 16.8 72.1699 17.1078C73.1682 17.4251 73.9999 18.1264 74.4823 19.0575C73.4606 18.8015 72.4166 18.6444 71.3649 18.5884Z" fill="#321E41"/>
<path d="M62.7002 25.9615C62.7002 25.9615 64.3541 29.0839 65.2615 28.8934C66.1689 28.7028 67.6325 25.8735 67.6325 25.8735C66.8794 26.5573 65.923 26.9745 64.9102 27.061C64.0838 26.9136 63.3168 26.532 62.7002 25.9615Z" fill="#F3877C"/>
<path d="M65.1148 26.6067C65.9878 26.4632 66.8454 26.2374 67.6761 25.9324C67.0113 26.6808 66.1234 27.1949 65.1441 27.3983C64.1195 27.3983 62.7291 25.9324 62.7438 25.9324C63.5041 26.2519 64.3002 26.4783 65.1148 26.6067Z" fill="#EE6066"/>
<path d="M64.5147 24.9945C63.7683 25.1704 63.9439 26.2845 65.0123 26.3578C66.0808 26.4311 66.3588 25.6248 66.0661 25.1704C65.8369 25.0273 65.5787 24.9372 65.3103 24.9068C65.0419 24.8764 64.7701 24.9063 64.5147 24.9945Z" fill="#F8BBB1"/>
<path d="M62.9487 34.1709C63.2182 33.8315 63.5645 33.5614 63.9591 33.3829C64.3536 33.2045 64.7849 33.1228 65.2173 33.1448C65.6727 33.1186 66.1272 33.21 66.5373 33.4102C66.9473 33.6104 67.2991 33.9127 67.559 34.2882C66.037 34.6396 64.451 34.5993 62.9487 34.1709Z" fill="#F3877C"/>
<path d="M62.9049 23.3231C62.9049 23.3231 62.4658 24.1 59.524 24.0267C58.8082 24.1026 58.0845 24.0096 57.411 23.755C56.7375 23.5004 56.1328 23.0915 55.6455 22.5608L62.3195 23.0152L62.9049 23.3231Z" fill="#F3877C"/>
<path d="M61.8666 20.7579C62.3326 21.4756 62.5629 22.3213 62.5252 23.1767C61.1933 23.0301 58.8809 20.538 58.8809 20.538C59.8813 20.4908 60.8838 20.5646 61.8666 20.7579Z" fill="#EE6066"/>
<path d="M61.8809 22.1064C61.954 22.1064 62.9639 23.1326 62.8322 23.3378C62.7005 23.5431 62.2321 23.3378 62.2321 23.3378L61.8809 22.1064Z" fill="#F3877C"/>
<path d="M62.2756 23.2936C62.2756 23.1764 61.9243 21.0801 60.9291 20.7576C59.8409 20.399 58.6732 20.3583 57.5628 20.6403C56.6408 20.9775 55.6455 22.4434 55.6455 22.4434C56.8644 22.8913 58.1408 23.1628 59.4362 23.2497C62.056 23.5429 62.2756 23.2936 62.2756 23.2936Z" fill="white"/>
<path d="M60.6513 21.6958C60.6623 21.9667 60.5932 22.2348 60.4527 22.4665C60.3123 22.6983 60.1067 22.8834 59.8617 22.9987C59.6167 23.114 59.3432 23.1543 59.0754 23.1147C58.8076 23.075 58.5575 22.9571 58.3563 22.7758C58.1551 22.5944 58.0118 22.3576 57.9443 22.095C57.8768 21.8325 57.8882 21.5558 57.9769 21.2997C58.0657 21.0436 58.2279 20.8194 58.4433 20.6551C58.6586 20.4909 58.9176 20.3939 59.1877 20.3764C59.3708 20.3645 59.5544 20.3895 59.7277 20.4497C59.9011 20.51 60.0606 20.6043 60.197 20.7273C60.3334 20.8502 60.4438 20.9992 60.5218 21.1656C60.5999 21.3319 60.6439 21.5121 60.6513 21.6958Z" fill="#321E41"/>
<path d="M62.4366 21.0511C61.0679 20.871 59.6834 20.8464 58.3092 20.9778C57.314 21.2383 56.3987 21.742 55.6455 22.4437C55.6455 22.4437 56.4651 20.538 58.0165 20.2301C58.769 20.042 59.553 20.0179 60.3156 20.1595C61.0782 20.3011 61.8015 20.6052 62.4366 21.0511Z" fill="#321E41"/>
<path d="M61.0027 19.8491C59.9936 19.6972 58.9675 19.6972 57.9584 19.8491C57.3065 20.0608 56.6935 20.3777 56.1436 20.7873C56.4821 20.2807 56.9329 19.8593 57.4608 19.5559C58.6411 19.2563 59.8875 19.3595 61.0027 19.8491Z" fill="#F3877C"/>
<path d="M61.2365 22.2529C61.2365 21.8131 59.7729 21.6958 59.7729 22.1649C59.7729 22.634 61.2365 22.5607 61.2365 22.2529Z" fill="white"/>
<path d="M77.4532 21.7106C77.4532 21.7106 78.2436 18.5149 79.7511 17.9432C81.2586 17.3715 83.1905 20.0541 82.7807 22.1211C82.5229 23.1991 82.033 24.2076 81.3454 25.0761C80.6578 25.9447 79.7889 26.6522 78.7997 27.1492C77.5996 27.4864 76.6336 26.1231 76.4434 25.2875C76.5765 24.0468 76.918 22.8375 77.4532 21.7106Z" fill="#F6AA99"/>
<path d="M80.9802 23.6604C81.4788 22.9306 81.772 22.08 81.8291 21.1976C81.6974 20.2154 80.951 19.0427 80.3655 19.0866C79.7801 19.1306 78.4043 22.1505 78.3458 22.6635C78.2872 23.1766 79.4727 23.2059 79.3117 23.8363C79.1507 24.4666 78.3019 25.053 78.0238 25.4048C77.7457 25.7567 77.7164 26.0938 78.4482 26.1818C79.18 26.2697 80.2631 24.8185 80.2631 24.8185C80.2631 24.8185 78.9312 25.83 78.5799 25.5807C78.2287 25.3315 79.4727 24.3787 79.9264 23.6897C80.3802 23.0007 78.9458 22.7955 78.9897 22.4143C78.9897 22.2824 79.8533 20.2008 80.3802 20.2301C80.9071 20.2594 81.5803 21.4615 80.9802 23.6604Z" fill="#EE6066"/>
<path d="M79.9271 21.8279C80.1272 22.0375 80.2752 22.2914 80.3591 22.569C80.443 22.8466 80.4605 23.1401 80.4101 23.4257C80.3438 23.9166 80.0988 24.3655 79.7222 24.6865C80.0349 24.5336 80.3006 24.299 80.4913 24.0075C80.6819 23.7159 80.7904 23.3782 80.8052 23.0299C80.8151 22.7599 80.7338 22.4944 80.5744 22.2763C80.4151 22.0582 80.187 21.9002 79.9271 21.8279Z" fill="#F3877C"/>
<path d="M61.6313 29.7734C62.6625 30.6709 63.9691 31.1882 65.3342 31.2393C66.3997 31.287 67.4561 31.0243 68.3756 30.4832C69.2951 29.942 70.0383 29.1456 70.5153 28.1902C69.2495 29.1079 67.7929 29.7271 66.2544 30.0012C64.716 30.2754 63.1355 30.1975 61.6313 29.7734Z" fill="#EE6066"/>
<path d="M731.634 59.5317C731.634 59.5317 703.753 67.8876 696.581 86.2704C689.41 104.653 690.2 108.86 687.17 115.809C684.141 122.758 681.506 137.52 682.648 154.612C683.98 174.74 682.911 181.981 691.429 190.513C714.349 129.457 731.634 59.5317 731.634 59.5317Z" fill="#F6AA99"/>
<path d="M754.745 59.5317C754.745 59.5317 782.685 67.9462 789.783 86.2704C796.881 104.595 796.179 108.86 799.208 115.809C802.238 122.758 804.873 137.52 803.731 154.612C802.384 174.74 803.468 181.981 794.949 190.513C772.03 129.457 754.745 59.5317 754.745 59.5317Z" fill="#F6AA99"/>
<path d="M692.322 196.245C692.249 197.828 692.513 202.109 692.937 207.445C694.035 221.313 696.215 242.393 696.215 242.393C693.987 251.95 692.485 261.663 691.722 271.448C689.732 297.937 702.889 315.953 700.738 331.36C700.562 333.947 699.785 336.457 698.469 338.69C697.62 340.151 696.542 341.468 695.279 342.589C692.82 344.803 690.698 345.712 685.239 348.966C679.779 352.221 673.53 355.094 673.53 357.571C673.53 357.571 673.632 358.685 675.081 358.685H705.085C709.637 358.685 710.837 355.475 714.218 353.774C717.598 352.074 722.999 354.551 726.307 351.063C727.507 349.787 727.624 346.958 727.331 343.806C727.331 343.469 727.331 343.146 727.214 342.824C726.995 340.918 726.658 338.954 726.336 337.151C726.004 335.255 725.789 333.341 725.692 331.419C726.292 311.966 730.346 267.621 731.181 256.231C731.62 250.69 734.196 222.046 735.571 207.503C736.04 202.373 736.332 199.001 736.332 199.001C736.332 199.001 704.587 189.355 692.322 196.245Z" fill="#F6AA99"/>
<path d="M726.336 351.004C723.072 354.507 717.554 352.074 714.247 353.716C710.939 355.358 709.666 358.627 705.114 358.627C705.114 358.627 708.041 359.052 711.158 355.079C718.374 346.034 723.438 348.013 727.258 342.765C727.258 343.088 727.346 343.41 727.375 343.747C727.653 346.899 727.536 349.728 726.336 351.004Z" fill="#F3877C"/>
<path d="M708.847 346.152C707.902 348.062 706.554 349.743 704.895 351.077C702.07 353.232 699.245 354.625 697.914 355.915C697.216 356.646 696.824 357.616 696.816 358.627H694.445C694.593 357.639 694.991 356.705 695.601 355.915C696.933 354.258 699.392 353.335 702.451 351.4C704.749 349.864 706.891 348.106 708.847 346.152Z" fill="#EE6066"/>
<path d="M700.651 355.973C701.681 355.918 702.714 355.997 703.724 356.208C704.303 356.328 704.906 356.251 705.436 355.988C706.022 355.68 706.695 355.197 706.798 354.522C706.798 352.866 703.87 352.543 700.446 355.372C700.379 355.409 700.328 355.468 700.301 355.539C700.274 355.609 700.272 355.687 700.297 355.759C700.321 355.831 700.37 355.891 700.435 355.931C700.499 355.97 700.576 355.985 700.651 355.973Z" fill="#F8BBB1"/>
<path d="M698.03 351.4C695.557 353.657 691.766 355.666 690.581 356.78C689.995 357.234 689.602 357.894 689.483 358.627H688.02C688.102 358.06 688.303 357.516 688.608 357.032C688.913 356.547 689.315 356.131 689.79 355.812C691.664 354.669 694.664 353.188 698.03 351.4Z" fill="#EE6066"/>
<path d="M691.912 351.4C689.439 353.657 685.648 355.666 684.463 356.78C683.876 357.234 683.484 357.894 683.365 358.627H681.901C681.984 358.06 682.184 357.516 682.489 357.032C682.794 356.547 683.197 356.131 683.672 355.812C685.546 354.669 688.546 353.188 691.912 351.4Z" fill="#EE6066"/>
<path d="M686.614 351.4C684.126 353.657 680.35 355.666 679.165 356.78C678.579 357.234 678.186 357.894 678.067 358.627H676.604C676.686 358.06 676.886 357.516 677.191 357.032C677.496 356.547 677.899 356.131 678.374 355.812C680.248 354.669 683.263 353.188 686.614 351.4Z" fill="#EE6066"/>
<path d="M691.429 357.19C692.295 356.984 693.198 356.984 694.064 357.19C694.064 357.19 695.191 355.988 694.971 355.592C694.576 354.976 692.761 355.108 691.429 357.19Z" fill="#F8BBB1"/>
<path d="M685.078 357.19C685.944 356.984 686.846 356.984 687.712 357.19C687.712 357.19 688.839 355.988 688.605 355.592C688.224 354.976 686.41 355.108 685.078 357.19Z" fill="#F8BBB1"/>
<path d="M679.589 357.19C680.339 357.008 681.122 357.008 681.872 357.19C681.872 357.19 682.853 356.149 682.662 355.724C682.472 355.299 680.745 355.387 679.589 357.19Z" fill="#F8BBB1"/>
<path d="M674.481 357.234C675.231 357.053 676.014 357.053 676.764 357.234C676.764 357.234 677.745 356.193 677.54 355.841C677.335 355.489 675.564 355.431 674.481 357.234Z" fill="#F8BBB1"/>
<path d="M736.288 198.942C735.623 201.724 735.367 204.588 735.527 207.445H692.937C692.512 202.109 692.249 197.828 692.322 196.245C704.587 189.355 736.288 198.942 736.288 198.942Z" fill="#F3877C"/>
<path d="M706.007 249.664C702.816 251.393 706.504 261.142 711.568 262.593C716.632 264.045 720.511 252.962 717.584 250.866C715.901 249.664 709.139 247.949 706.007 249.664Z" fill="#F3877C"/>
<path d="M793.222 196.245C793.31 197.828 793.046 202.109 792.622 207.445C791.524 221.313 789.344 242.393 789.344 242.393C791.571 251.95 793.068 261.663 793.822 271.448C795.827 297.937 782.655 315.953 784.821 331.36C784.999 333.945 785.77 336.453 787.075 338.69C787.934 340.145 789.01 341.46 790.266 342.589C792.724 344.803 794.861 345.712 800.306 348.966C805.75 352.221 812.015 355.094 812.015 357.571C812.015 357.571 811.912 358.685 810.463 358.685H780.445C775.893 358.685 774.693 355.475 771.298 353.774C767.902 352.074 762.516 354.551 759.223 351.063C758.023 349.787 757.906 346.958 758.198 343.806C758.198 343.469 758.198 343.146 758.315 342.824C758.52 340.918 758.872 338.954 759.194 337.151C759.528 335.256 759.738 333.341 759.823 331.419C759.238 311.966 755.183 267.621 754.349 256.231C753.895 250.69 751.334 222.046 749.958 207.503C749.505 202.373 749.197 199.001 749.197 199.001C749.197 199.001 780.957 189.355 793.222 196.245Z" fill="#F6AA99"/>
<path d="M759.223 351.004C762.472 354.507 768.004 352.074 771.297 353.716C774.591 355.358 775.893 358.627 780.445 358.627C780.445 358.627 777.518 359.052 774.4 355.079C767.17 346.034 762.121 348.013 758.301 342.765C758.301 343.088 758.213 343.41 758.184 343.747C757.906 346.899 758.023 349.728 759.223 351.004Z" fill="#F3877C"/>
<path d="M776.713 346.152C777.657 348.062 779.006 349.743 780.665 351.077C783.489 353.232 786.314 354.625 787.646 355.915C788.331 356.654 788.721 357.619 788.744 358.627H791.1C790.957 357.637 790.558 356.703 789.944 355.915C788.612 354.258 786.168 353.335 783.094 351.4C780.799 349.866 778.662 348.108 776.713 346.152Z" fill="#EE6066"/>
<path d="M784.909 355.973C783.874 355.919 782.836 355.998 781.821 356.208C781.246 356.327 780.648 356.25 780.123 355.988C779.8 355.862 779.511 355.665 779.275 355.411C779.039 355.157 778.864 354.853 778.762 354.522C778.762 352.866 781.689 352.543 785.114 355.372C785.18 355.409 785.231 355.468 785.258 355.539C785.286 355.609 785.287 355.687 785.263 355.759C785.238 355.831 785.189 355.891 785.125 355.931C785.06 355.97 784.984 355.985 784.909 355.973Z" fill="#F8BBB1"/>
<path d="M787.528 351.4C790.002 353.657 793.778 355.666 794.963 356.78C795.549 357.237 795.945 357.895 796.076 358.627H797.539C797.457 358.06 797.256 357.516 796.951 357.032C796.646 356.547 796.243 356.131 795.768 355.812C793.895 354.669 790.895 353.188 787.528 351.4Z" fill="#EE6066"/>
<path d="M793.647 351.4C796.12 353.657 799.897 355.666 801.082 356.78C801.667 357.237 802.063 357.895 802.194 358.627H803.658C803.575 358.06 803.375 357.516 803.07 357.032C802.765 356.547 802.362 356.131 801.887 355.812C800.014 354.669 797.013 353.188 793.647 351.4Z" fill="#EE6066"/>
<path d="M798.886 351.4C801.36 353.657 805.15 355.666 806.336 356.78C806.922 357.234 807.314 357.894 807.434 358.627H808.897C808.815 358.06 808.614 357.516 808.309 357.032C808.004 356.547 807.601 356.131 807.126 355.812C805.311 354.669 802.311 353.188 798.886 351.4Z" fill="#EE6066"/>
<path d="M794.129 357.19C793.263 356.984 792.361 356.984 791.495 357.19C791.495 357.19 790.368 355.988 790.587 355.592C790.983 354.976 792.783 355.108 794.129 357.19Z" fill="#F8BBB1"/>
<path d="M800.482 357.19C799.616 356.984 798.714 356.984 797.847 357.19C797.847 357.19 796.72 355.988 796.94 355.592C797.335 354.976 799.15 355.108 800.482 357.19Z" fill="#F8BBB1"/>
<path d="M805.956 357.19C805.21 357.009 804.432 357.009 803.687 357.19C803.687 357.19 802.706 356.149 802.897 355.724C803.087 355.299 804.741 355.387 805.956 357.19Z" fill="#F8BBB1"/>
<path d="M811.151 357.234C810.401 357.052 809.618 357.052 808.868 357.234C808.868 357.234 807.887 356.193 808.078 355.841C808.268 355.489 809.98 355.431 811.151 357.234Z" fill="#F8BBB1"/>
<path d="M749.256 198.942C749.929 201.723 750.185 204.588 750.017 207.445H792.622C793.046 202.109 793.31 197.828 793.222 196.245C780.957 189.355 749.256 198.942 749.256 198.942Z" fill="#F3877C"/>
<path d="M779.552 249.664C782.743 251.393 779.055 261.142 773.991 262.593C768.927 264.045 765.048 252.962 767.961 250.866C769.614 249.664 776.405 247.949 779.552 249.664Z" fill="#F3877C"/>
<path d="M791.744 144.879C777.723 156.108 755.959 158.189 741.367 158.732C726.775 159.274 706.065 154.612 693.361 146.623C696.932 127.17 699.83 119.591 705.07 107.82C705.714 106.354 706.373 104.888 707.09 103.275C703.299 97.1771 704.163 88.4548 710.163 79.923C715.476 72.3001 731.707 59.5318 731.707 59.5318L732.117 56.3508L732.776 51.264L754.144 50.8682L754.686 57.4942L754.818 59.1214C754.818 59.1214 772.527 72.3148 777.737 79.366C783.27 86.8129 786.197 95.8284 782.406 104.096C782.918 105.416 783.46 106.94 784.031 108.626C787.857 120.408 790.442 132.558 791.744 144.879Z" fill="#F6AA99"/>
<path d="M777.664 79.366C783.196 86.8129 786.124 95.8284 782.333 104.096C782.845 105.416 783.387 106.94 783.957 108.626C787.809 120.405 790.418 132.555 791.744 144.879" stroke="#F3877C" stroke-width="1.93124" stroke-miterlimit="10" stroke-linecap="round"/>
<path d="M693.361 146.623C696.932 127.17 699.83 119.591 705.07 107.82C705.714 106.354 706.373 104.888 707.09 103.275C703.299 97.1769 704.163 88.4546 710.163 79.9229" stroke="#F3877C" stroke-width="1.93124" stroke-miterlimit="10" stroke-linecap="round"/>
<path d="M763.936 107.072C764.301 106.955 770.302 99.9771 777.283 105.987C771.385 109.242 763.936 107.072 763.936 107.072Z" fill="#EE6066"/>
<path d="M724.243 107.072C723.877 106.955 717.876 99.9771 710.895 105.987C716.925 109.242 724.243 107.072 724.243 107.072Z" fill="#EE6066"/>
<path d="M754.613 57.4942C751.554 59.7957 747.295 61.892 742.904 61.5109C738.792 61.134 734.948 59.305 732.059 56.3508L732.718 51.264L754.086 50.8682L754.613 57.4942Z" fill="#EE6066"/>
<path d="M735.293 102.953C725.97 110.282 714.803 112.54 704.997 107.82C705.641 106.354 706.3 104.888 707.017 103.275C707.017 103.275 717.994 111.866 735.293 102.953Z" fill="#F3877C"/>
<path d="M783.957 108.626C780.677 110.071 777.148 110.868 773.566 110.972C764.36 111.367 758.623 108.436 750.631 102.557C756.572 105.465 763.051 107.102 769.658 107.365C774.1 107.563 778.499 106.424 782.289 104.096C782.786 105.416 783.386 106.94 783.957 108.626Z" fill="#F3877C"/>
<path d="M742.582 132.389C742.582 132.389 739.435 135.423 742.231 145.289C743.315 141.07 743.435 136.66 742.582 132.389Z" fill="#EE6066"/>
<path d="M723.131 119.093C723.131 119.093 750.163 111.895 768.37 119.093C758.008 111.587 738.996 109.931 723.131 119.093Z" fill="#F3877C"/>
<path d="M738.879 66.0552C739.395 66.7929 740.075 67.4015 740.864 67.8337C741.654 68.2659 742.532 68.5101 743.431 68.5472C744.408 68.5094 745.362 68.2349 746.211 67.7473C747.06 67.2597 747.778 66.5735 748.304 65.7473C745.313 67.0311 741.948 67.141 738.879 66.0552Z" fill="#F3877C"/>
<path d="M761.316 34.0537C761.404 33.7899 762.648 27.8235 760.848 23.9241C759.048 20.0247 757.292 18.9693 753.53 17.4887C750.047 11.6249 740.914 10.159 733.845 13.6626C727.024 17.0196 718.111 28.146 730.435 40.4306C742.758 52.7151 758.579 42.5708 761.316 34.0537Z" fill="#142033"/>
<path d="M729.643 36.7952C729.643 36.7952 728.736 33.101 726.98 32.3974C725.223 31.6937 723.028 34.8308 723.496 37.235C723.965 39.6391 726.336 42.5417 728.033 43.0254C729.409 43.4212 730.551 41.838 730.77 40.8705C730.616 39.4602 730.235 38.0841 729.643 36.7952Z" fill="#F3877C"/>
<path d="M726.146 39.0379C725.566 38.2029 725.227 37.224 725.166 36.2087C725.312 35.0652 726.175 33.7166 726.863 33.7606C727.551 33.8045 729.132 37.3081 729.205 37.8945C729.278 38.4809 727.888 38.5102 728.078 39.2432C728.268 39.9761 729.249 40.7091 729.542 41.0609C729.834 41.4127 729.893 41.8379 729.059 41.9551C728.224 42.0724 726.907 40.3866 726.907 40.3866C726.907 40.3866 728.371 41.5593 728.839 41.2662C729.308 40.973 727.815 39.8882 727.288 39.0819C726.761 38.2756 728.415 38.0411 728.371 37.616C728.371 37.4694 727.376 35.0652 726.761 35.1092C726.146 35.1532 725.458 36.5019 726.146 39.0379Z" fill="#EE6066"/>
<path d="M727.346 36.9272C727.118 37.1719 726.95 37.4657 726.853 37.786C726.757 38.1062 726.735 38.4444 726.79 38.7743C726.867 39.343 727.148 39.8641 727.58 40.2403C727.222 40.0646 726.918 39.7943 726.701 39.4585C726.485 39.1227 726.363 38.7341 726.351 38.3345C726.329 38.021 726.417 37.7097 726.598 37.4533C726.779 37.1968 727.044 37.011 727.346 36.9272Z" fill="#EE6066"/>
<path d="M730.098 32.4708C729.621 33.0285 729.37 33.7452 729.395 34.4792C729.483 36.2236 728.678 45.4297 730.859 50.15C734.357 57.9928 746.036 60.9247 754.613 52.0411C759.457 47.0129 758.213 36.898 758.213 36.898C755.901 37.1912 756.75 34.2446 756.033 33.0279C755.447 32.0604 753.91 31.6499 752.988 31.0489C751.861 30.3027 750.82 29.4324 749.886 28.4542C749.174 27.8227 748.6 27.0521 748.197 26.1899C747.794 25.3277 747.572 24.3921 747.544 23.4407L734.591 29.6709C732.914 30.2791 731.383 31.233 730.098 32.4708Z" fill="#F6AA99"/>
<path d="M745.377 38.7885C745.377 38.7885 745.743 39.4189 749.154 39.4482C752.564 39.4775 753.705 37.8796 753.705 37.8796L745.977 38.4807L745.377 38.7885Z" fill="#F3877C"/>
<path d="M746.534 35.7541C745.976 36.5249 745.683 37.4559 745.699 38.4075C747.251 38.2902 750.09 35.6222 750.09 35.6222C748.903 35.5314 747.71 35.5757 746.534 35.7541Z" fill="#EE6066"/>
<path d="M746.489 37.3667C746.401 37.3667 745.231 38.5394 745.377 38.8326C745.523 39.1258 746.079 38.8326 746.079 38.8326L746.489 37.3667Z" fill="#F3877C"/>
<path d="M745.978 38.569C745.978 38.4517 746.446 36.1502 747.631 35.813C748.911 35.4682 750.259 35.4682 751.539 35.813C752.593 36.1942 753.705 37.9093 753.705 37.9093C752.283 38.3596 750.806 38.616 749.315 38.6716C746.197 38.8329 745.978 38.569 745.978 38.569Z" fill="white"/>
<path d="M751.144 37.0152C751.131 37.2253 751.076 37.4308 750.982 37.6192C750.889 37.8077 750.758 37.9753 750.598 38.1121C750.438 38.2489 750.253 38.3521 750.052 38.4155C749.852 38.4789 749.641 38.5012 749.431 38.4811C749.225 38.4824 749.02 38.4398 748.832 38.3563C748.643 38.2728 748.473 38.1501 748.335 37.9964C748.197 37.8427 748.093 37.6615 748.029 37.4645C747.966 37.2676 747.945 37.0595 747.968 36.8539C747.981 36.6438 748.036 36.4384 748.129 36.2499C748.223 36.0615 748.354 35.8938 748.514 35.757C748.673 35.6202 748.859 35.5171 749.059 35.4537C749.26 35.3903 749.471 35.3679 749.68 35.388C749.883 35.3974 750.083 35.447 750.267 35.5341C750.45 35.6212 750.615 35.744 750.751 35.8954C750.888 36.0467 750.992 36.2236 751.06 36.4159C751.127 36.6081 751.156 36.8118 751.144 37.0152Z" fill="#321E41"/>
<path d="M751.876 37.6745C751.993 37.1907 750.28 36.8682 750.163 37.3813C750.046 37.8944 751.803 38.0263 751.876 37.6745Z" fill="white"/>
<path d="M745.875 36.0475C747.441 35.8751 749.022 35.8751 750.588 36.0475C751.763 36.3876 752.835 37.0176 753.705 37.8799C753.459 37.2958 753.094 36.7696 752.632 36.3354C752.171 35.9011 751.624 35.5684 751.027 35.3585C750.166 35.1165 749.266 35.0527 748.38 35.1712C747.494 35.2896 746.642 35.5878 745.875 36.0475Z" fill="#321E41"/>
<path d="M747.558 34.7866C748.739 34.658 749.933 34.7074 751.1 34.9331C751.846 35.1879 752.548 35.5589 753.178 36.0326C752.809 35.4379 752.309 34.9362 751.715 34.5667C750.341 34.1984 748.886 34.2753 747.558 34.7866Z" fill="#F3877C"/>
<path d="M745.846 31.9722C745.288 32.7955 744.799 33.6633 744.383 34.5669C744.067 35.543 744.021 36.5867 744.251 37.5867L746.285 32.7051L745.846 31.9722Z" fill="#F3877C"/>
<path d="M749.987 33.2475C748.524 33.2475 745.231 33.6286 745.26 33.5407C745.359 32.9868 745.558 32.4554 745.845 31.9721C747.851 31.9721 749.226 31.1952 750.924 31.5323C752.078 31.9029 753.041 32.7139 753.602 33.7899C752.418 33.4917 751.207 33.3101 749.987 33.2475Z" fill="#321E41"/>
<path d="M740.035 41.7644C740.035 41.7644 741.938 45.3706 742.962 45.2094C743.987 45.0481 745.685 41.7205 745.685 41.7205C744.82 42.5087 743.718 42.988 742.553 43.0838C741.604 42.8976 740.729 42.4392 740.035 41.7644Z" fill="#F3877C"/>
<path d="M742.787 42.5121C743.784 42.3366 744.764 42.0716 745.714 41.7205C744.951 42.5971 743.923 43.1995 742.787 43.4356C741.601 43.4356 740.006 41.7498 740.006 41.7644C740.899 42.1263 741.833 42.3774 742.787 42.5121Z" fill="#EE6066"/>
<path d="M742.085 40.6504C741.236 40.841 741.426 42.1163 742.655 42.2043C743.885 42.2922 744.221 41.3687 743.885 40.841C743.617 40.6792 743.317 40.5782 743.006 40.5453C742.695 40.5124 742.38 40.5482 742.085 40.6504Z" fill="#F8BBB1"/>
<path d="M740.343 51.1759C740.679 50.7952 741.095 50.4927 741.56 50.2897C742.026 50.0867 742.53 49.988 743.037 50.0006C743.545 50.0131 744.043 50.1367 744.498 50.3625C744.953 50.5883 745.353 50.911 745.67 51.3079C743.912 51.7172 742.079 51.6718 740.343 51.1759Z" fill="#F3877C"/>
<path d="M739.699 31.9722C740.427 32.7336 741.026 33.6103 741.47 34.5669C741.665 35.5813 741.699 36.6202 741.572 37.6453C741.499 37.6453 738.952 33.0276 738.952 33.0276L739.699 31.9722Z" fill="#F3877C"/>
<path d="M735.572 33.2475C737.035 33.2475 740.328 33.6286 740.299 33.5407C740.201 32.984 739.998 32.4515 739.699 31.9721C737.694 31.9721 736.318 31.1952 734.62 31.5323C733.469 31.902 732.511 32.7138 731.957 33.7899C733.141 33.4917 734.352 33.3101 735.572 33.2475Z" fill="#321E41"/>
<path d="M740.152 38.73C740.152 38.73 739.713 39.5949 736.317 39.5216C732.922 39.4483 731.839 37.7478 731.839 37.7478L739.537 38.2609L740.152 38.73Z" fill="#F3877C"/>
<path d="M739.025 35.7541C739.564 36.585 739.831 37.564 739.786 38.554C738.323 38.3781 735.586 35.5049 735.586 35.5049C736.738 35.4479 737.893 35.5316 739.025 35.7541Z" fill="#EE6066"/>
<path d="M739.04 37.3083C739.128 37.3083 740.299 38.4811 740.152 38.7743C740.006 39.0675 739.45 38.7743 739.45 38.7743L739.04 37.3083Z" fill="#F3877C"/>
<path d="M739.508 38.6713C739.508 38.5394 739.098 36.1206 737.942 35.7394C736.681 35.3336 735.33 35.298 734.049 35.6368C732.995 35.9887 731.839 37.7624 731.839 37.7624C733.252 38.279 734.729 38.5948 736.23 38.7006C739.245 38.9645 739.508 38.6713 739.508 38.6713Z" fill="white"/>
<path d="M737.62 36.8245C737.643 37.1384 737.572 37.4521 737.416 37.7253C737.26 37.9986 737.026 38.2192 736.745 38.3588C736.463 38.4984 736.146 38.5508 735.835 38.5093C735.523 38.4677 735.231 38.3341 734.996 38.1255C734.761 37.9169 734.593 37.6428 734.514 37.3382C734.435 37.0336 734.448 36.7123 734.552 36.4153C734.656 36.1183 734.846 35.8592 735.098 35.671C735.35 35.4828 735.652 35.374 735.966 35.3586C736.378 35.3384 736.782 35.4804 737.091 35.7543C737.4 36.0282 737.59 36.4123 737.62 36.8245Z" fill="#321E41"/>
<path d="M739.684 36.0769C738.134 35.8458 736.562 35.7917 735 35.9156C733.806 36.2429 732.717 36.8742 731.839 37.748C731.839 37.748 732.79 35.5491 734.576 35.1826C735.442 34.9616 736.345 34.927 737.225 35.0811C738.106 35.2353 738.944 35.5747 739.684 36.0769Z" fill="#321E41"/>
<path d="M738.03 34.7135C736.866 34.5308 735.681 34.5308 734.517 34.7135C733.764 34.9547 733.056 35.3214 732.424 35.7982C732.798 35.2076 733.298 34.707 733.888 34.3323C735.272 33.9855 736.732 34.1199 738.03 34.7135Z" fill="#F3877C"/>
<path d="M738.308 37.4694C738.308 36.9563 736.625 36.839 736.566 37.3668C736.537 37.6746 738.264 37.8359 738.308 37.4694Z" fill="white"/>
<path d="M757.013 36.8538C757.013 36.8538 757.935 33.1597 759.677 32.456C761.419 31.7524 763.629 34.8895 763.16 37.2789C762.692 39.6684 760.336 42.6003 758.623 43.1427C757.247 43.5385 756.12 41.9553 755.901 40.9878C756.038 39.5571 756.414 38.1597 757.013 36.8538Z" fill="#F6AA99"/>
<path d="M761.081 39.0965C761.661 38.2615 762.001 37.2826 762.062 36.2673C761.916 35.1238 761.052 33.7752 760.364 33.8192C759.676 33.8631 758.096 37.3667 758.023 37.9531C757.949 38.5395 759.34 38.5688 759.15 39.3018C758.959 40.0347 757.979 40.7677 757.686 41.1195C757.393 41.4713 757.335 41.8965 758.169 42.0137C759.003 42.131 760.32 40.4452 760.32 40.4452C760.32 40.4452 758.857 41.6179 758.389 41.3101C757.92 41.0022 759.413 39.9321 759.94 39.1405C760.467 38.3489 758.813 38.0997 758.842 37.6746C758.842 37.528 759.852 35.1092 760.467 35.1678C761.082 35.2265 761.769 36.5605 761.081 39.0965Z" fill="#EE6066"/>
<path d="M759.882 36.9856C760.109 37.228 760.277 37.5193 760.373 37.837C760.469 38.1547 760.492 38.4903 760.438 38.818C760.36 39.3862 760.079 39.9069 759.648 40.284C760.004 40.1057 760.307 39.8348 760.523 39.4996C760.739 39.1643 760.862 38.7771 760.877 38.3782C760.895 38.0671 760.806 37.7592 760.625 37.5059C760.444 37.2525 760.182 37.0688 759.882 36.9856Z" fill="#F3877C"/>
<path d="M738.762 46.1918C739.952 47.2288 741.459 47.8286 743.035 47.8923C744.263 47.9441 745.48 47.6396 746.539 47.0155C747.599 46.3914 748.455 45.4741 749.007 44.374C747.545 45.4276 745.865 46.1381 744.091 46.4527C742.318 46.7674 740.496 46.6782 738.762 46.1918Z" fill="#EE6066"/>
<path d="M693.069 143.984C693.069 143.984 707.91 156.635 741.367 156.078C779.874 154.92 792.388 143.075 792.388 143.075C796.256 162.622 796.938 182.666 794.408 202.431H747.924V184.972H738.206V202.241H690.873C690.873 202.241 687.024 168.07 693.069 143.984Z" fill="#213555"/>
<path d="M311.218 316.921C305.286 329.627 302.223 343.486 302.246 357.512H153.077C153.315 315.404 164.218 274.044 184.764 237.306L311.218 316.921Z" fill="#94E0CC"/>
<path d="M347.472 276.05C331.689 285.9 319.096 300.122 311.218 316.994L184.764 237.379C205.188 200.76 234.557 169.931 270.121 147.781L347.472 276.05Z" fill="#57D0AF"/>
<path d="M398.082 111.206V261.494C380.18 261.48 362.638 266.525 347.471 276.05L270.12 147.781C308.517 123.838 352.851 111.166 398.082 111.206Z" fill="#17A37C"/>
<path d="M525.59 147.429L448.269 275.684C433.18 266.378 415.802 261.464 398.082 261.494V111.206C443.124 111.146 487.287 123.692 525.59 147.429Z" fill="#FF9E7E"/>
<path d="M611.254 236.998L484.829 316.613C476.852 299.706 464.14 285.486 448.239 275.684L525.561 147.429C561.247 169.524 590.736 200.346 611.254 236.998Z" fill="#F0606C"/>
<path d="M643.101 357.512H493.947C493.963 343.372 490.849 329.403 484.829 316.613L611.254 236.998C631.899 273.815 642.858 315.286 643.101 357.512Z" fill="#E14E4E"/>
<path d="M175.016 342.1L175.45 336.813L177.89 337.009L177.717 339.125L180.029 339.31L180.192 337.33L182.512 337.516L182.349 339.496L185.031 339.711L185.222 337.384L187.662 337.58L187.211 343.077L175.016 342.1Z" fill="white"/>
<path d="M176.369 329.907L181.614 331.605L188.562 330.695L188.242 333.618C186.995 333.833 185.489 333.989 183.724 334.086C184.479 334.251 185.279 334.451 186.123 334.687L188.069 335.207L187.732 338.279L181.09 336.387L175.6 336.929L175.934 333.879C176.275 333.861 176.844 333.813 177.641 333.735C178.25 333.671 178.806 333.624 179.31 333.595L176.079 332.552L176.369 329.907Z" fill="white"/>
<path d="M177.273 323.441L179.685 323.758L179.427 325.618L189.07 326.886L188.636 330.018L178.993 328.75L178.736 330.602L176.324 330.285L177.273 323.441Z" fill="white"/>
<path d="M177.153 323.36L177.522 321.143C177.768 319.664 177.991 318.674 178.192 318.172C178.394 317.665 178.757 317.285 179.283 317.034C179.805 316.778 180.58 316.732 181.607 316.899C182.546 317.051 183.157 317.269 183.44 317.555C183.724 317.84 183.841 318.33 183.792 319.025C184.049 318.43 184.324 318.047 184.618 317.875C184.912 317.704 185.172 317.611 185.398 317.596C185.621 317.576 186.219 317.645 187.192 317.803L190.371 318.317L189.887 321.226L185.881 320.578C185.236 320.473 184.828 320.461 184.656 320.54C184.486 320.614 184.365 320.867 184.293 321.299L189.728 322.179L189.207 325.311L177.153 323.36ZM179.736 320.561L182.417 320.995C182.475 320.643 182.469 320.39 182.398 320.236C182.323 320.076 182.019 319.953 181.488 319.867L180.826 319.76C180.443 319.698 180.181 319.727 180.039 319.846C179.898 319.961 179.797 320.199 179.736 320.561Z" fill="white"/>
<path d="M178.414 315.838L179.495 310.642L181.895 311.132L181.462 313.212L183.736 313.677L184.141 311.73L186.423 312.197L186.018 314.143L188.655 314.682L189.131 312.395L191.531 312.886L190.407 318.29L178.414 315.838Z" fill="white"/>
<path d="M181.619 300.702L193.525 303.379L192.916 306.085L184.879 304.277L192.673 307.166L192.241 309.085L184.131 308.459L191.985 310.225L191.376 312.931L179.47 310.254L180.372 306.246C181.114 306.289 181.986 306.354 182.986 306.44L186.112 306.695L180.711 304.739L181.619 300.702Z" fill="white"/>
<path d="M182.476 297.581L191.944 300.025L192.419 298.151L194.787 298.762L193.533 303.718L181.696 300.662L182.476 297.581Z" fill="white"/>
<path d="M184.778 289.984L191.614 294.305L195.85 295.498L195.047 298.316L190.81 297.122L182.732 297.156L183.529 294.361C185.934 294.565 187.539 294.752 188.345 294.921C187.144 294.401 185.69 293.687 183.98 292.779L184.778 289.984Z" fill="white"/>
<path d="M189.111 276.451L200.233 281.564L198.984 285.315C197.094 285.077 194.974 284.719 192.625 284.241C193.552 284.676 195.479 285.614 198.405 287.055L197.164 290.785L185.152 288.345L186.123 285.429L190.261 286.441L194.259 287.4C192.281 286.632 189.73 285.492 186.605 283.981L187.644 280.858C187.997 280.925 189.305 281.232 191.568 281.776L196.071 282.884C193.331 281.804 190.687 280.632 188.14 279.367L189.111 276.451Z" fill="white"/>
<path d="M188.806 277.03L190.612 272.037L192.908 272.894L192.185 274.892L194.361 275.704L195.037 273.833L197.22 274.647L196.543 276.518L199.066 277.459L199.861 275.261L202.158 276.117L200.279 281.309L188.806 277.03Z" fill="white"/>
<path d="M192.883 266.611L204.899 269.442L203.701 272.464L201.603 271.799L201.183 272.858L203.153 273.846L201.941 276.903L191.19 270.882L192.883 266.611ZM199.558 271.082C198.214 270.719 196.569 270.237 194.622 269.634C196.671 270.797 198.183 271.616 199.158 272.092L199.558 271.082Z" fill="white"/>
<path d="M196.474 258.195L200.809 262.066L207.742 262.912L206.44 265.925L201.131 265.012L205.931 267.102L204.671 270.018L193.473 265.141L194.733 262.226L199.083 264.12L195.292 260.931L196.474 258.195Z" fill="white"/>
<path d="M236.978 206.328L245.519 215.146L243.035 218.229C241.361 217.324 239.516 216.224 237.5 214.928C238.209 215.671 239.67 217.248 241.883 219.658L239.414 222.723L229.103 216.102L231.034 213.706L234.525 216.149L237.905 218.49C236.336 217.055 234.365 215.064 231.992 212.516L234.06 209.949C234.364 210.14 235.473 210.899 237.386 212.227L241.183 214.891C239.015 212.888 236.97 210.832 235.047 208.725L236.978 206.328Z" fill="white"/>
<path d="M236.564 206.931L240.036 202.946L241.866 204.559L240.476 206.154L242.21 207.682L243.51 206.19L245.25 207.723L243.949 209.216L245.96 210.988L247.488 209.234L249.318 210.847L245.708 214.99L236.564 206.931Z" fill="white"/>
<path d="M244.137 198.524L254.314 205.53L252.104 207.921L250.389 206.538L249.615 207.375L251.094 209.014L248.858 211.432L241.014 201.902L244.137 198.524ZM248.743 205.126C247.621 204.299 246.261 203.251 244.664 201.982C246.154 203.812 247.267 205.127 248.004 205.924L248.743 205.126Z" fill="white"/>
<path d="M250.306 192.129L253.027 197.263L259.245 200.468L256.969 202.837L252.3 200.134L256.08 203.762L253.878 206.054L245.059 197.59L247.262 195.298L250.688 198.586L248.24 194.279L250.306 192.129Z" fill="white"/>
<path d="M322.949 144.986L327.582 156.345L324.998 157.411L321.357 152.88L323.463 158.043L320.998 159.06L316.364 147.702L318.83 146.685L322.569 151.117L320.483 146.003L322.949 144.986Z" fill="white"/>
<path d="M332.679 149.181C333.108 150.334 333.383 151.162 333.506 151.665C333.631 152.161 333.623 152.66 333.481 153.162C333.345 153.662 333.072 154.107 332.662 154.497C332.253 154.887 331.724 155.2 331.075 155.435C330.459 155.659 329.867 155.761 329.3 155.741C328.737 155.715 328.231 155.556 327.783 155.262C327.335 154.969 326.995 154.596 326.762 154.144C326.529 153.692 326.193 152.875 325.754 151.694L325.024 149.73C324.595 148.577 324.318 147.752 324.193 147.256C324.071 146.753 324.078 146.252 324.215 145.751C324.356 145.249 324.632 144.803 325.041 144.414C325.45 144.024 325.979 143.711 326.629 143.475C327.245 143.252 327.835 143.153 328.399 143.179C328.965 143.199 329.473 143.355 329.921 143.649C330.369 143.942 330.709 144.315 330.941 144.767C331.174 145.219 331.51 146.035 331.949 147.217L332.679 149.181ZM328.284 146.495C328.085 145.961 327.928 145.632 327.812 145.508C327.699 145.377 327.55 145.346 327.365 145.413C327.209 145.47 327.111 145.575 327.071 145.729C327.034 145.876 327.126 146.245 327.345 146.836L329.338 152.196C329.586 152.862 329.764 153.264 329.875 153.401C329.989 153.536 330.146 153.568 330.345 153.495C330.549 153.421 330.646 153.284 330.636 153.084C330.626 152.884 330.496 152.446 330.245 151.77L328.284 146.495Z" fill="white"/>
<path d="M330.466 142.395L332.594 141.685C334.012 141.211 334.99 140.946 335.526 140.888C336.068 140.829 336.571 140.973 337.038 141.32C337.507 141.661 337.907 142.323 338.238 143.308C338.541 144.207 338.632 144.848 338.512 145.232C338.392 145.616 338.014 145.948 337.378 146.23C338.023 146.178 338.489 146.242 338.777 146.421C339.065 146.6 339.268 146.786 339.386 146.98C339.507 147.167 339.724 147.727 340.038 148.659L341.062 151.705L338.271 152.637L336.98 148.799C336.772 148.181 336.593 147.814 336.443 147.7C336.299 147.585 336.019 147.596 335.605 147.734L337.357 152.943L334.351 153.946L330.466 142.395ZM334.137 143.368L335 145.936C335.338 145.823 335.559 145.7 335.662 145.565C335.768 145.423 335.735 145.098 335.564 144.589L335.351 143.954C335.227 143.588 335.08 143.37 334.908 143.301C334.741 143.229 334.484 143.252 334.137 143.368Z" fill="white"/>
<path d="M346.911 137.174L350.439 148.872L347.779 149.671L345.397 141.774L346.716 149.99L344.83 150.557L341.382 143.177L343.71 150.894L341.05 151.693L337.522 139.995L341.461 138.811C341.789 139.48 342.161 140.272 342.579 141.186L343.896 144.037L342.943 138.366L346.911 137.174Z" fill="white"/>
<path d="M352.363 135.756L357.176 147.144L354.027 147.988L353.325 145.897L352.222 146.193L352.587 148.373L349.402 149.227L347.914 136.948L352.363 135.756ZM352.696 143.818C352.195 142.517 351.612 140.901 350.949 138.969C351.22 141.319 351.452 143.029 351.644 144.1L352.696 143.818Z" fill="white"/>
<path d="M356.863 134.858L359.106 144.336L360.979 143.887L361.54 146.258L356.589 147.445L353.784 135.597L356.863 134.858Z" fill="white"/>
<path d="M429.588 141.287C429.466 142.512 429.349 143.378 429.237 143.884C429.131 144.386 428.904 144.833 428.556 145.225C428.212 145.618 427.771 145.902 427.231 146.078C426.691 146.255 426.077 146.31 425.389 146.244C424.736 146.181 424.159 146.019 423.658 145.758C423.162 145.493 422.777 145.131 422.503 144.674C422.23 144.217 422.088 143.734 422.078 143.227C422.067 142.719 422.125 141.837 422.25 140.582L422.459 138.496C422.581 137.271 422.695 136.408 422.801 135.906C422.912 135.4 423.14 134.95 423.483 134.558C423.832 134.165 424.276 133.881 424.816 133.705C425.355 133.529 425.969 133.473 426.657 133.54C427.31 133.602 427.885 133.766 428.38 134.032C428.882 134.293 429.269 134.652 429.543 135.109C429.817 135.566 429.959 136.049 429.969 136.557C429.979 137.064 429.921 137.946 429.796 139.201L429.588 141.287ZM426.816 136.976C426.873 136.409 426.876 136.044 426.827 135.882C426.782 135.716 426.662 135.623 426.466 135.604C426.301 135.588 426.166 135.641 426.063 135.763C425.965 135.881 425.885 136.253 425.822 136.881L425.253 142.574C425.183 143.282 425.167 143.721 425.206 143.892C425.249 144.063 425.377 144.159 425.588 144.18C425.803 144.2 425.951 144.118 426.03 143.933C426.11 143.748 426.185 143.297 426.257 142.579L426.816 136.976Z" fill="white"/>
<path d="M438.071 135.273L434.876 147.202L430.085 146.61L429.853 134.258L433.182 134.669C433.129 138.057 433.034 140.915 432.896 143.243C433.367 140.931 433.811 138.88 434.229 137.089L434.742 134.862L438.071 135.273Z" fill="white"/>
<path d="M437.597 135.261L442.821 136.06L442.456 138.472L440.365 138.152L440.019 140.437L441.977 140.737L441.63 143.03L439.673 142.73L439.272 145.38L441.571 145.732L441.206 148.144L435.774 147.312L437.597 135.261Z" fill="white"/>
<path d="M443.375 136.248L445.582 136.647C447.053 136.914 448.038 137.15 448.536 137.358C449.038 137.566 449.409 137.934 449.649 138.462C449.895 138.985 449.924 139.758 449.737 140.78C449.566 141.712 449.335 142.318 449.044 142.597C448.753 142.876 448.261 142.986 447.568 142.927C448.157 143.191 448.534 143.471 448.699 143.766C448.865 144.061 448.952 144.322 448.962 144.548C448.977 144.77 448.896 145.365 448.719 146.332L448.139 149.493L445.243 148.97L445.973 144.987C446.091 144.345 446.112 143.938 446.036 143.767C445.966 143.596 445.716 143.471 445.286 143.394L444.295 148.798L441.177 148.234L443.375 136.248ZM446.117 138.863L445.628 141.528C445.979 141.592 446.232 141.589 446.387 141.52C446.548 141.447 446.677 141.147 446.774 140.619L446.895 139.96C446.965 139.58 446.941 139.318 446.825 139.175C446.713 139.032 446.477 138.928 446.117 138.863Z" fill="white"/>
<path d="M462.329 140.092L458.406 151.702L454.542 150.83C454.582 148.919 454.716 146.768 454.945 144.376C454.61 145.344 453.878 147.361 452.75 150.425L448.909 149.558L450.079 137.327L453.083 138.005L452.508 142.236L451.973 146.321C452.53 144.27 453.397 141.61 454.574 138.341L457.79 139.067C457.76 139.426 457.592 140.762 457.287 143.075L456.656 147.679C457.444 144.837 458.334 142.082 459.325 139.414L462.329 140.092Z" fill="white"/>
<path d="M461.649 139.924L466.787 141.229L466.177 143.598L464.121 143.076L463.543 145.321L465.468 145.81L464.888 148.062L462.963 147.573L462.294 150.177L464.555 150.751L463.945 153.12L458.603 151.764L461.649 139.924Z" fill="white"/>
<path d="M470.17 142.382L466.882 154.09L463.842 153.22L467.13 141.512L470.17 142.382Z" fill="white"/>
<path d="M476.735 148.832L473.693 147.917L474.013 146.855C474.215 146.186 474.312 145.758 474.305 145.572C474.298 145.386 474.187 145.26 473.97 145.195C473.782 145.139 473.632 145.173 473.521 145.297C473.41 145.421 473.265 145.782 473.084 146.379L471.391 151.993C471.233 152.518 471.162 152.875 471.179 153.064C471.197 153.248 471.307 153.371 471.509 153.432C471.731 153.498 471.909 153.449 472.042 153.284C472.181 153.121 472.332 152.767 472.496 152.223L472.915 150.836L472.301 150.651L472.837 148.874L476.4 149.944L474.506 156.223L472.591 155.648L472.562 154.725C472.246 155.024 471.901 155.217 471.528 155.305C471.161 155.389 470.763 155.366 470.334 155.238C469.823 155.084 469.381 154.817 469.007 154.437C468.639 154.053 468.395 153.644 468.274 153.208C468.153 152.772 468.124 152.346 468.187 151.929C468.251 151.507 468.404 150.894 468.647 150.089L469.695 146.614C470.032 145.496 470.337 144.703 470.61 144.233C470.883 143.763 471.367 143.405 472.062 143.156C472.763 142.905 473.567 142.915 474.473 143.187C475.364 143.455 476.049 143.86 476.526 144.403C477.004 144.946 477.255 145.497 477.281 146.056C477.308 146.611 477.177 147.367 476.888 148.326L476.735 148.832Z" fill="white"/>
<path d="M485.254 147.009L481.369 158.56L478.363 157.556L479.995 152.705L479.095 152.404L477.464 157.256L474.458 156.252L478.342 144.701L481.348 145.705L479.959 149.836L480.859 150.136L482.248 146.005L485.254 147.009Z" fill="white"/>
<path d="M491.653 149.322L490.799 151.619L489.022 150.974L485.609 160.155L482.615 159.069L486.028 149.888L484.258 149.246L485.112 146.949L491.653 149.322Z" fill="white"/>
<path d="M546.004 193.813C545.196 194.733 544.6 195.365 544.217 195.71C543.84 196.055 543.398 196.285 542.889 196.4C542.384 196.518 541.863 196.492 541.324 196.322C540.786 196.151 540.258 195.84 539.74 195.387C539.249 194.958 538.877 194.492 538.623 193.99C538.376 193.488 538.274 192.973 538.318 192.444C538.361 191.915 538.526 191.443 538.812 191.026C539.098 190.609 539.655 189.93 540.483 188.987L541.859 187.421C542.668 186.501 543.26 185.868 543.636 185.524C544.019 185.179 544.463 184.947 544.968 184.829C545.477 184.713 546.001 184.741 546.539 184.912C547.077 185.082 547.605 185.394 548.123 185.846C548.614 186.276 548.983 186.742 549.23 187.244C549.484 187.746 549.589 188.261 549.546 188.79C549.502 189.318 549.337 189.791 549.051 190.207C548.765 190.624 548.208 191.304 547.38 192.246L546.004 193.813ZM546.261 188.718C546.635 188.292 546.849 187.999 546.903 187.839C546.964 187.679 546.92 187.535 546.773 187.406C546.648 187.297 546.509 187.262 546.355 187.3C546.208 187.338 545.927 187.593 545.513 188.064L541.756 192.34C541.289 192.872 541.022 193.218 540.954 193.378C540.89 193.543 540.937 193.694 541.096 193.833C541.259 193.975 541.425 193.994 541.597 193.89C541.768 193.787 542.09 193.465 542.564 192.926L546.261 188.718Z" fill="white"/>
<path d="M550.932 188.651L553.258 190.808C553.992 191.49 554.495 192.062 554.765 192.526C555.039 192.993 555.13 193.509 555.037 194.075C554.947 194.638 554.542 195.306 553.822 196.08C553.335 196.604 552.912 196.892 552.554 196.944C552.199 197 551.729 196.859 551.142 196.521C551.568 197.143 551.745 197.685 551.673 198.147C551.604 198.605 551.299 199.125 550.757 199.708L549.986 200.538C549.423 201.143 548.936 201.526 548.525 201.687C548.118 201.851 547.713 201.847 547.31 201.673C546.908 201.499 546.238 200.977 545.3 200.107L542.603 197.606L550.932 188.651ZM551.838 192.345L549.986 194.337C550.09 194.425 550.169 194.496 550.224 194.547C550.453 194.759 550.65 194.839 550.816 194.787C550.985 194.731 551.317 194.437 551.81 193.906C552.071 193.626 552.227 193.406 552.278 193.248C552.333 193.086 552.331 192.95 552.274 192.842C552.22 192.737 552.075 192.572 551.838 192.345ZM548.69 195.731L546.36 198.236C546.699 198.53 546.955 198.672 547.13 198.662C547.308 198.655 547.565 198.471 547.901 198.11L548.678 197.275C549.034 196.891 549.21 196.621 549.204 196.465C549.198 196.308 549.027 196.064 548.69 195.731Z" fill="white"/>
<path d="M556.437 193.923L560.199 197.618L558.492 199.353L556.986 197.874L555.368 199.517L556.777 200.902L555.154 202.551L553.745 201.166L551.868 203.072L553.524 204.699L551.817 206.434L547.905 202.59L556.437 193.923Z" fill="white"/>
<path d="M562.648 205.207L560.596 203.07L561.247 202.436C561.551 202.14 561.718 201.924 561.749 201.789C561.78 201.653 561.734 201.521 561.611 201.394C561.478 201.255 561.321 201.204 561.139 201.241C560.96 201.281 560.757 201.412 560.529 201.634C560.236 201.919 560.053 202.174 559.982 202.399C559.907 202.62 559.936 203.011 560.069 203.572C560.448 205.184 560.572 206.312 560.44 206.955C560.308 207.598 559.812 208.338 558.951 209.177C558.325 209.787 557.792 210.161 557.351 210.301C556.915 210.444 556.392 210.403 555.783 210.178C555.179 209.949 554.607 209.554 554.068 208.993C553.476 208.378 553.086 207.739 552.898 207.076C552.713 206.417 552.735 205.846 552.964 205.362C553.193 204.879 553.637 204.316 554.295 203.675L554.87 203.115L556.923 205.251L555.854 206.292C555.524 206.613 555.341 206.848 555.302 206.998C555.268 207.152 555.324 207.305 555.471 207.458C555.618 207.611 555.786 207.666 555.976 207.622C556.168 207.582 556.382 207.448 556.618 207.219C557.135 206.715 557.405 206.314 557.428 206.017C557.447 205.717 557.369 205.099 557.192 204.164C557.019 203.226 556.928 202.581 556.92 202.23C556.911 201.878 556.998 201.494 557.179 201.078C557.364 200.665 557.69 200.232 558.157 199.777C558.83 199.122 559.404 198.728 559.88 198.596C560.359 198.468 560.871 198.512 561.415 198.729C561.964 198.943 562.5 199.323 563.025 199.869C563.599 200.466 563.991 201.068 564.202 201.673C564.416 202.283 564.441 202.797 564.278 203.218C564.121 203.638 563.694 204.188 562.995 204.868L562.648 205.207Z" fill="white"/>
<path d="M567.637 205.472L558.617 213.652L556.491 211.305L565.511 203.125L567.637 205.472Z" fill="white"/>
<path d="M572.513 210.776L570.675 212.396L569.418 210.983L562.071 217.459L559.955 215.08L567.302 208.604L566.051 207.197L567.889 205.577L572.513 210.776Z" fill="white"/>
<path d="M577.049 216.233L569.574 219.443L566.177 222.271L564.288 220.016L567.684 217.188L572.238 210.492L574.113 212.729C572.579 214.602 571.513 215.823 570.915 216.393C572.029 215.695 573.448 214.895 575.174 213.995L577.049 216.233Z" fill="white"/>
<path d="M599.97 254.782L602.361 259.499L600.194 260.621L599.237 258.733L597.183 259.796L598.078 261.563L596.018 262.63L595.122 260.863L592.74 262.096L593.793 264.172L591.625 265.294L589.139 260.389L599.97 254.782Z" fill="white"/>
<path d="M605.359 265.816L600.006 267.149L594.593 271.595L593.312 268.948C594.256 268.106 595.451 267.177 596.898 266.162C596.169 266.422 595.384 266.675 594.543 266.921L592.616 267.509L591.269 264.726L597.91 262.819L602.28 259.457L603.618 262.219C603.338 262.414 602.88 262.756 602.245 263.244C601.763 263.619 601.316 263.953 600.904 264.245L604.199 263.42L605.359 265.816Z" fill="white"/>
<path d="M608.026 271.846L605.797 272.851L605.028 271.129L596.121 275.149L594.824 272.248L603.731 268.229L602.964 266.514L605.193 265.508L608.026 271.846Z" fill="white"/>
<path d="M607.983 271.915L608.838 273.994C609.408 275.379 609.739 276.339 609.833 276.871C609.929 277.408 609.819 277.922 609.504 278.411C609.196 278.904 608.56 279.349 607.599 279.746C606.72 280.11 606.085 280.245 605.694 280.151C605.302 280.057 604.944 279.702 604.619 279.085C604.714 279.726 604.682 280.197 604.523 280.497C604.363 280.797 604.191 281.012 604.006 281.143C603.827 281.277 603.282 281.532 602.371 281.909L599.396 283.14L598.274 280.413L602.024 278.861C602.628 278.611 602.982 278.408 603.086 278.251C603.191 278.098 603.161 277.819 602.995 277.415L597.907 279.52L596.7 276.583L607.983 271.915ZM607.26 275.65L604.751 276.688C604.887 277.018 605.026 277.23 605.167 277.324C605.316 277.421 605.639 277.366 606.136 277.16L606.756 276.904C607.114 276.756 607.322 276.593 607.38 276.417C607.44 276.245 607.4 275.99 607.26 275.65Z" fill="white"/>
<path d="M611.025 278.841L612.831 283.834L610.535 284.69L609.812 282.692L607.636 283.503L608.313 285.374L606.13 286.188L605.454 284.317L602.931 285.258L603.726 287.456L601.43 288.312L599.551 283.12L611.025 278.841Z" fill="white"/>
<path d="M616.063 293.415L604.577 297.454L603.669 294.84L611.424 292.113L603.306 293.795L602.662 291.941L609.857 288.176L602.28 290.84L601.372 288.226L612.858 284.187L614.203 288.058C613.552 288.415 612.78 288.822 611.888 289.279L609.108 290.719L614.709 289.515L616.063 293.415Z" fill="white"/>
<path d="M617.017 296.539L607.711 299.483L608.289 301.324L605.96 302.06L604.432 297.191L616.067 293.511L617.017 296.539Z" fill="white"/>
<path d="M619.263 304.162L611.172 304.12L606.941 305.356L606.136 302.535L610.367 301.299L617.214 296.979L618.013 299.778C615.861 300.882 614.399 301.576 613.624 301.86C614.919 301.664 616.533 301.499 618.465 301.362L619.263 304.162Z" fill="white"/>
<path d="M614.748 315.162C613.557 315.457 612.706 315.637 612.193 315.702C611.687 315.77 611.191 315.707 610.706 315.511C610.222 315.32 609.806 315.001 609.46 314.553C609.113 314.106 608.855 313.548 608.686 312.88C608.526 312.247 608.484 311.651 608.56 311.093C608.643 310.539 608.853 310.057 609.19 309.647C609.527 309.237 609.933 308.943 610.406 308.763C610.879 308.584 611.726 308.343 612.946 308.041L614.973 307.538C616.164 307.243 617.013 307.061 617.519 306.993C618.032 306.928 618.53 306.991 619.014 307.182C619.499 307.377 619.915 307.699 620.262 308.147C620.609 308.594 620.867 309.152 621.036 309.82C621.196 310.453 621.235 311.047 621.152 311.601C621.075 312.159 620.868 312.643 620.531 313.053C620.194 313.463 619.789 313.757 619.316 313.937C618.843 314.116 617.996 314.357 616.776 314.659L614.748 315.162ZM617.864 311.119C618.415 310.982 618.758 310.863 618.894 310.762C619.035 310.665 619.082 310.522 619.033 310.331C618.993 310.171 618.898 310.062 618.749 310.006C618.606 309.953 618.229 310.002 617.619 310.154L612.085 311.525C611.397 311.696 610.979 311.828 610.832 311.921C610.685 312.02 610.638 312.171 610.69 312.376C610.743 312.585 610.87 312.696 611.07 312.709C611.27 312.722 611.719 312.641 612.417 312.468L617.864 311.119Z" fill="white"/>
<path d="M621.726 313.752L622.377 316.841C622.583 317.817 622.663 318.572 622.617 319.105C622.571 319.642 622.348 320.116 621.948 320.524C621.552 320.932 620.84 321.247 619.811 321.468C619.115 321.617 618.607 321.611 618.286 321.449C617.966 321.292 617.665 320.908 617.382 320.297C617.371 321.048 617.204 321.591 616.881 321.927C616.562 322.262 616.016 322.513 615.241 322.679L614.139 322.916C613.335 323.088 612.72 323.123 612.294 323.019C611.868 322.921 611.542 322.686 611.315 322.314C611.088 321.943 610.843 321.134 610.581 319.889L609.825 316.306L621.726 313.752ZM620.343 317.286L617.697 317.854C617.729 317.985 617.754 318.088 617.769 318.161C617.833 318.465 617.948 318.643 618.112 318.695C618.282 318.746 618.719 318.695 619.425 318.544C619.797 318.464 620.05 318.374 620.182 318.274C620.32 318.172 620.396 318.061 620.412 317.94C620.428 317.824 620.405 317.606 620.343 317.286ZM615.844 318.251L612.514 318.966C612.621 319.399 612.748 319.662 612.896 319.753C613.044 319.849 613.358 319.846 613.838 319.743L614.948 319.505C615.458 319.395 615.755 319.275 615.84 319.144C615.925 319.013 615.927 318.715 615.844 318.251Z" fill="white"/>
<path d="M623.207 321.222L624.145 326.422L621.746 326.863L621.371 324.782L619.098 325.2L619.45 327.148L617.17 327.567L616.818 325.619L614.183 326.104L614.596 328.393L612.197 328.834L611.222 323.427L623.207 321.222Z" fill="white"/>
<path d="M621.747 334.074L621.303 331.162L622.196 331.018C622.612 330.95 622.872 330.87 622.974 330.777C623.077 330.684 623.115 330.551 623.089 330.377C623.06 330.188 622.961 330.057 622.792 329.982C622.624 329.913 622.384 329.903 622.071 329.954C621.67 330.019 621.376 330.122 621.189 330.265C621.002 330.402 620.801 330.737 620.588 331.27C619.973 332.799 619.428 333.788 618.952 334.237C618.477 334.685 617.649 335.005 616.469 335.196C615.612 335.335 614.964 335.335 614.526 335.197C614.089 335.065 613.688 334.733 613.323 334.202C612.962 333.67 612.724 333.021 612.607 332.257C612.479 331.418 612.528 330.674 612.755 330.027C612.982 329.385 613.327 328.932 613.79 328.669C614.252 328.406 614.935 328.201 615.837 328.055L616.626 327.928L617.07 330.84L615.605 331.077C615.154 331.15 614.87 331.237 614.753 331.337C614.637 331.442 614.595 331.599 614.627 331.808C614.658 332.016 614.764 332.157 614.942 332.23C615.122 332.308 615.373 332.32 615.695 332.268C616.404 332.153 616.853 331.982 617.042 331.753C617.229 331.519 617.519 330.971 617.911 330.108C618.308 329.245 618.603 328.668 618.798 328.377C618.992 328.086 619.282 327.823 619.668 327.588C620.055 327.357 620.568 327.19 621.207 327.087C622.13 326.938 622.822 326.945 623.284 327.109C623.747 327.279 624.137 327.607 624.455 328.095C624.779 328.582 624.997 329.198 625.111 329.943C625.235 330.757 625.209 331.471 625.033 332.085C624.858 332.703 624.584 333.137 624.211 333.385C623.843 333.638 623.18 333.842 622.223 333.997L621.747 334.074Z" fill="white"/>
<path d="M625.774 337.063L613.719 338.649L613.284 335.517L625.34 333.931L625.774 337.063Z" fill="white"/>
<path d="M626.568 344.296L624.14 344.566L623.935 342.692L614.231 343.772L613.885 340.617L623.589 339.537L623.385 337.671L625.813 337.4L626.568 344.296Z" fill="white"/>
<path d="M627.294 351.411L619.323 349.722L614.909 350.076L614.668 347.139L619.082 346.785L626.68 343.932L626.92 346.847C624.582 347.494 623.003 347.878 622.184 348C623.499 348.071 625.123 348.237 627.055 348.496L627.294 351.411Z" fill="white"/>
<path d="M418.528 340.171L418.25 340.845L414.474 350.036L414.006 350.359L404.58 356.897H382.875H375.909L335.967 308.961L333.948 306.542L329.279 300.971L328.357 299.872L281.785 244.005L340.695 274.585L349.286 278.982L352.784 280.8L355.492 282.266L356.428 282.75L379.392 294.639L393.062 307.612C400.614 314.776 408.2 321.978 415.821 329.22C416.728 332.855 417.606 336.506 418.528 340.171Z" fill="#191919"/>
<path d="M418.528 340.17L418.25 340.845L414.474 350.036L414.006 350.359L404.58 356.897H382.875C381.795 355.89 380.815 354.78 379.948 353.584L338.557 303.918L337.006 302.056L336.055 300.913L332.762 296.955L330.332 294.023L302.407 260.511L337.855 278.982L346.066 283.233L347.749 284.113L351.671 286.151L351.949 286.297L393.105 307.612C400.658 314.776 408.244 321.978 415.864 329.22C416.728 332.855 417.606 336.506 418.528 340.17Z" fill="#474747"/>
<path d="M410.185 325.35C412.821 327.464 414.771 330.313 415.789 333.538C416.807 336.762 416.847 340.216 415.905 343.463C414.962 346.71 413.079 349.605 410.494 351.78C407.909 353.955 404.738 355.313 401.382 355.682C398.026 356.052 394.636 355.416 391.641 353.855C388.646 352.294 386.18 349.878 384.556 346.914C382.932 343.949 382.223 340.568 382.517 337.2C382.812 333.831 384.098 330.625 386.212 327.989C389.046 324.461 393.16 322.202 397.654 321.707C402.148 321.213 406.654 322.523 410.185 325.35Z" fill="#191919"/>
<path d="M398.097 261.714C372.769 261.713 348.471 271.753 330.511 289.641C312.551 307.528 302.389 331.808 302.246 357.175H308.964C309.208 333.694 318.678 311.255 335.324 294.719C351.97 278.183 374.45 268.881 397.894 268.829C421.339 268.777 443.86 277.979 460.578 294.441C477.297 310.903 486.867 333.3 487.215 356.78H493.933C493.686 331.483 483.48 307.307 465.535 289.505C447.589 271.704 423.354 261.716 398.097 261.714Z" fill="#A9ABAE"/>
<path d="M487.215 356.765H444.434H425.627H405.575H404.58H382.875H373.947L308.964 356.956C309.099 336.508 316.274 316.734 329.279 300.972C330.376 299.608 331.532 298.274 332.747 296.984C337.233 292.121 342.25 287.779 347.705 284.04C349.359 282.882 351.057 281.812 352.784 280.786C356.299 278.693 359.957 276.851 363.731 275.274C365.4 274.57 367.083 273.925 368.795 273.339C375.667 270.935 382.811 269.399 390.061 268.765C391.964 268.589 393.881 268.472 395.799 268.428H398.097C399.663 268.428 401.214 268.428 402.765 268.545C404.653 268.648 406.541 268.809 408.4 269.029C415.755 269.867 422.975 271.635 429.886 274.291C431.598 274.936 433.296 275.64 434.95 276.402C438.873 278.182 442.659 280.249 446.278 282.589C447.961 283.659 449.586 284.802 451.181 286.004C456.657 290.057 461.643 294.735 466.036 299.945C467.193 301.294 468.29 302.687 469.344 304.109C472.56 308.378 475.382 312.931 477.774 317.713C478.696 319.53 479.56 321.377 480.336 323.268C482.521 328.469 484.197 333.869 485.341 339.394C485.692 341.094 486 342.824 486.263 344.568C486.857 348.608 487.175 352.683 487.215 356.765Z" fill="white"/>
<path d="M350.632 305.735C354.506 305.134 358.421 304.844 362.341 304.871C367.844 304.871 371.225 305.428 374.138 307.113C375.59 307.849 376.808 308.978 377.651 310.372C378.495 311.767 378.93 313.37 378.909 315C378.909 318.518 376.845 321.831 372.352 323.503V323.664C374.604 324.128 376.626 325.358 378.074 327.146C379.523 328.934 380.309 331.168 380.299 333.471C380.308 335.111 379.938 336.731 379.217 338.204C378.495 339.677 377.443 340.962 376.143 341.959C373.216 344.319 368.4 345.594 360.438 345.594C357.18 345.625 353.923 345.43 350.691 345.008L350.632 305.735ZM359.575 321.054H362.502C367.288 321.054 369.82 319.061 369.82 316.085C369.82 313.109 367.522 311.453 363.439 311.453C362.159 311.412 360.879 311.506 359.619 311.731L359.575 321.054ZM359.575 338.748C360.72 338.892 361.875 338.946 363.029 338.91C367.127 338.91 370.742 337.326 370.742 333.046C370.742 328.765 367.127 327.505 362.736 327.505H359.648L359.575 338.748Z" fill="#17A37C"/>
<path d="M420.153 329.88C419.977 325.042 419.787 319.266 419.816 313.403H419.655C418.382 318.533 416.728 324.207 415.191 328.927L410.303 344.524H403.292L398.989 329.073C397.701 324.368 396.37 318.68 395.374 313.403H395.257C395.067 318.841 394.833 325.027 394.599 329.997L393.852 345.184H385.495L388.056 305.193H400.087L403.98 318.548C405.254 323.136 406.483 328.165 407.376 332.856H407.566C408.649 328.223 410.01 322.946 411.357 318.489L415.601 305.193H427.412L429.549 345.184H420.768L420.153 329.88Z" fill="#17A37C"/>
<path d="M445.561 305.193V345.184H436.53V305.193H445.561Z" fill="#17A37C"/>
</g>
<defs>
<clipPath id="clip0_223_1295">
<rect width="812" height="507.683" fill="white"/>
</clipPath>
</defs>
</svg>
