<svg width="811" height="522" viewBox="0 0 811 522" fill="none" xmlns="http://www.w3.org/2000/svg">
<g clip-path="url(#clip0_223_1512)">
<path d="M627.116 203.674C592.867 156.919 544.732 122.19 489.587 104.447C434.442 86.7051 375.105 86.8563 320.051 104.88C264.997 122.903 217.04 157.876 183.029 204.806C149.018 251.736 130.692 308.222 130.667 366.198C130.667 366.198 204.464 365.879 297.975 365.575C298.849 337.679 310.52 311.214 330.523 291.768C350.526 272.322 377.296 261.418 405.182 261.357C433.067 261.296 459.885 272.083 479.973 291.441C500.061 310.799 511.847 337.212 512.843 365.105C606.87 365.105 672.932 366.183 680.166 366.183C680.266 307.734 661.676 250.788 627.116 203.674Z" fill="#6B6B6B"/>
<path d="M620.974 208.167C587.676 162.694 540.873 128.916 487.249 111.658C433.625 94.4001 375.924 94.5446 322.387 112.071C268.85 129.598 222.216 163.61 189.147 209.249C156.077 254.888 138.263 309.82 138.25 366.198C138.25 366.198 210.014 365.879 300.932 365.59C301.523 338.286 312.759 312.295 332.239 293.17C351.72 274.046 377.9 263.305 405.187 263.241C432.474 263.178 458.704 273.797 478.272 292.831C497.841 311.865 509.198 337.803 509.915 365.105C601.273 365.105 666.88 366.152 672.613 366.152C672.687 309.324 654.592 253.963 620.974 208.167Z" fill="#E6E6E6"/>
<path d="M315.386 323.939C309.239 337.095 306.065 351.446 306.089 365.97H151.521C151.767 322.368 163.064 279.542 184.354 241.5L315.386 323.939Z" fill="#94E0CC"/>
<path d="M352.951 281.619C336.597 291.818 323.549 306.544 315.386 324.014L184.354 241.576C205.518 203.659 235.95 171.737 272.801 148.801L352.951 281.619Z" fill="#57D0AF"/>
<path d="M405.394 110.929V266.546C386.844 266.532 368.667 271.756 352.951 281.619L272.8 148.801C312.587 124.009 358.526 110.888 405.394 110.929Z" fill="#17A37C"/>
<path d="M537.517 148.437L457.397 281.24C441.762 271.604 423.755 266.516 405.394 266.546V110.929C452.066 110.867 497.827 123.858 537.517 148.437Z" fill="#FF9E7E"/>
<path d="M626.282 241.182L495.281 323.62C487.015 306.113 473.843 291.389 457.367 281.24L537.487 148.437C574.465 171.315 605.021 203.23 626.282 241.182Z" fill="#F0606C"/>
<path d="M659.283 365.97H504.729C504.746 351.328 501.52 336.864 495.281 323.62L626.282 241.182C647.675 279.305 659.031 322.246 659.283 365.97Z" fill="#E14E4E"/>
<path d="M173.678 349.964L174.128 344.486L176.657 344.689L176.477 346.882L178.873 347.073L179.041 345.021L181.445 345.214L181.276 347.266L184.055 347.488L184.253 345.077L186.782 345.28L186.314 350.976L173.678 349.964Z" fill="white"/>
<path d="M175.081 337.301L180.515 339.061L187.715 338.116L187.383 341.145C186.091 341.368 184.53 341.53 182.701 341.63C183.484 341.801 184.313 342.009 185.187 342.253L187.203 342.791L186.854 345.975L179.972 344.015L174.284 344.577L174.63 341.417C174.983 341.398 175.573 341.348 176.399 341.267C177.03 341.201 177.606 341.153 178.128 341.122L174.781 340.042L175.081 337.301Z" fill="white"/>
<path d="M176.035 330.61L178.534 330.939L178.267 332.866L188.258 334.179L187.808 337.424L177.817 336.111L177.55 338.03L175.051 337.701L176.035 330.61Z" fill="white"/>
<path d="M175.898 330.513L176.28 328.216C176.535 326.685 176.767 325.659 176.975 325.138C177.184 324.613 177.561 324.22 178.106 323.96C178.647 323.693 179.45 323.646 180.514 323.819C181.486 323.976 182.119 324.202 182.413 324.498C182.707 324.794 182.829 325.301 182.778 326.021C183.044 325.405 183.329 325.008 183.633 324.83C183.938 324.652 184.207 324.556 184.442 324.541C184.673 324.52 185.292 324.591 186.3 324.755L189.594 325.287L189.092 328.301L184.942 327.63C184.273 327.522 183.85 327.509 183.673 327.591C183.496 327.668 183.371 327.93 183.296 328.377L188.928 329.288L188.387 332.533L175.898 330.513ZM178.575 327.613L181.352 328.063C181.413 327.698 181.407 327.436 181.333 327.276C181.255 327.11 180.941 326.983 180.39 326.894L179.704 326.783C179.308 326.719 179.036 326.749 178.889 326.873C178.742 326.991 178.638 327.238 178.575 327.613Z" fill="white"/>
<path d="M177.223 322.687L178.344 317.303L180.831 317.811L180.382 319.966L182.739 320.447L183.158 318.43L185.522 318.913L185.103 320.93L187.835 321.488L188.328 319.118L190.815 319.626L189.65 325.225L177.223 322.687Z" fill="white"/>
<path d="M180.533 307.012L192.869 309.784L192.238 312.587L183.91 310.716L191.985 313.707L191.538 315.696L183.134 315.048L191.272 316.876L190.641 319.68L178.305 316.908L179.24 312.756C180.009 312.801 180.912 312.868 181.948 312.957L185.187 313.22L179.591 311.195L180.533 307.012Z" fill="white"/>
<path d="M181.424 303.751L191.235 306.282L191.727 304.34L194.181 304.973L192.881 310.108L180.616 306.944L181.424 303.751Z" fill="white"/>
<path d="M183.813 295.87L190.896 300.346L195.286 301.582L194.452 304.5L190.062 303.265L181.692 303.301L182.518 300.405C185.01 300.616 186.673 300.81 187.508 300.985C186.265 300.446 184.757 299.707 182.986 298.766L183.813 295.87Z" fill="white"/>
<path d="M188.312 281.847L199.836 287.143L198.542 291.029C196.583 290.782 194.386 290.412 191.952 289.917C192.913 290.367 194.909 291.339 197.941 292.832L196.654 296.695L184.208 294.17L185.214 291.149L189.502 292.197L193.644 293.189C191.595 292.394 188.951 291.214 185.714 289.649L186.791 286.413C187.156 286.483 188.512 286.8 190.857 287.364L195.523 288.511C192.683 287.393 189.944 286.179 187.305 284.869L188.312 281.847Z" fill="white"/>
<path d="M188.001 282.432L189.873 277.259L192.253 278.146L191.503 280.216L193.757 281.056L194.459 279.118L196.721 279.961L196.019 281.899L198.633 282.874L199.458 280.597L201.837 281.483L199.89 286.862L188.001 282.432Z" fill="white"/>
<path d="M192.232 271.613L204.683 274.543L203.441 277.674L201.267 276.986L200.832 278.083L202.873 279.106L201.616 282.273L190.477 276.037L192.232 271.613ZM199.148 276.243C197.756 275.868 196.051 275.368 194.033 274.744C196.157 275.949 197.723 276.797 198.733 277.289L199.148 276.243Z" fill="white"/>
<path d="M195.961 262.881L200.453 266.89L207.636 267.766L206.287 270.887L200.785 269.942L205.759 272.106L204.453 275.127L192.849 270.077L194.155 267.057L198.664 269.019L194.735 265.715L195.961 262.881Z" fill="white"/>
<path d="M238.031 209.04L246.882 218.173L244.308 221.366C242.573 220.429 240.661 219.289 238.571 217.948C239.306 218.717 240.82 220.35 243.114 222.847L240.554 226.021L229.868 219.165L231.869 216.682L235.488 219.212L238.991 221.637C237.365 220.151 235.322 218.089 232.863 215.45L235.007 212.791C235.321 212.989 236.47 213.775 238.453 215.15L242.388 217.909C240.142 215.834 238.022 213.705 236.029 211.523L238.031 209.04Z" fill="white"/>
<path d="M237.611 209.667L241.21 205.54L243.107 207.211L241.666 208.863L243.463 210.445L244.811 208.899L246.614 210.487L245.266 212.033L247.35 213.869L248.934 212.052L250.83 213.723L247.088 218.014L237.611 209.667Z" fill="white"/>
<path d="M245.456 200.934L256.005 208.19L253.714 210.666L251.937 209.234L251.134 210.101L252.667 211.798L250.35 214.303L242.219 204.433L245.456 200.934ZM250.23 207.771C249.067 206.915 247.658 205.83 246.003 204.515C247.547 206.411 248.701 207.772 249.465 208.598L250.23 207.771Z" fill="white"/>
<path d="M251.854 194.306L254.674 199.623L261.119 202.943L258.76 205.396L253.921 202.597L257.838 206.355L255.556 208.729L246.416 199.962L248.699 197.588L252.249 200.994L249.712 196.533L251.854 194.306Z" fill="white"/>
<path d="M327.324 145.359L332.128 157.127L329.449 158.231L325.676 153.536L327.86 158.886L325.304 159.939L320.5 148.171L323.055 147.118L326.932 151.711L324.769 146.412L327.324 145.359Z" fill="white"/>
<path d="M337.424 149.715C337.868 150.91 338.154 151.767 338.281 152.288C338.411 152.802 338.403 153.32 338.256 153.839C338.114 154.358 337.832 154.819 337.408 155.222C336.984 155.626 336.435 155.95 335.762 156.194C335.124 156.426 334.511 156.531 333.924 156.511C333.34 156.484 332.815 156.318 332.351 156.014C331.887 155.71 331.534 155.324 331.293 154.856C331.052 154.387 330.704 153.541 330.248 152.317L329.491 150.283C329.047 149.088 328.76 148.233 328.63 147.719C328.503 147.198 328.51 146.679 328.652 146.161C328.799 145.641 329.084 145.179 329.508 144.775C329.932 144.371 330.48 144.047 331.153 143.803C331.791 143.572 332.403 143.47 332.987 143.497C333.574 143.517 334.1 143.679 334.564 143.983C335.029 144.287 335.381 144.673 335.622 145.142C335.863 145.61 336.212 146.456 336.667 147.68L337.424 149.715ZM332.869 146.932C332.663 146.379 332.5 146.038 332.38 145.909C332.262 145.774 332.108 145.741 331.916 145.811C331.754 145.869 331.653 145.978 331.612 146.138C331.574 146.29 331.669 146.673 331.896 147.285L333.962 152.838C334.219 153.528 334.404 153.944 334.518 154.086C334.637 154.226 334.8 154.259 335.006 154.184C335.218 154.108 335.318 153.966 335.308 153.758C335.297 153.551 335.162 153.097 334.902 152.397L332.869 146.932Z" fill="white"/>
<path d="M335.162 142.664L337.367 141.928C338.837 141.438 339.85 141.163 340.406 141.103C340.967 141.042 341.489 141.192 341.972 141.551C342.458 141.904 342.873 142.591 343.216 143.611C343.53 144.542 343.624 145.207 343.5 145.604C343.376 146.002 342.985 146.346 342.326 146.637C342.994 146.584 343.477 146.651 343.775 146.836C344.073 147.022 344.284 147.215 344.406 147.415C344.531 147.609 344.757 148.189 345.082 149.155L346.144 152.311L343.251 153.276L341.913 149.299C341.697 148.659 341.512 148.279 341.357 148.161C341.207 148.041 340.918 148.053 340.488 148.196L342.304 153.592L339.19 154.631L335.162 142.664ZM338.966 143.672L339.862 146.333C340.212 146.216 340.44 146.088 340.547 145.948C340.657 145.802 340.623 145.465 340.445 144.938L340.224 144.28C340.096 143.901 339.943 143.675 339.765 143.603C339.593 143.529 339.326 143.552 338.966 143.672Z" fill="white"/>
<path d="M352.219 137.267L355.877 149.387L353.121 150.215L350.652 142.032L352.02 150.545L350.065 151.132L346.492 143.486L348.905 151.481L346.149 152.308L342.491 140.188L346.572 138.963C346.912 139.656 347.298 140.476 347.731 141.423L349.097 144.377L348.108 138.502L352.219 137.267Z" fill="white"/>
<path d="M357.876 135.777L362.865 147.576L359.602 148.45L358.875 146.284L357.731 146.59L358.111 148.849L354.81 149.733L353.266 137.012L357.876 135.777ZM358.223 144.13C357.703 142.782 357.099 141.107 356.411 139.107C356.693 141.541 356.933 143.313 357.133 144.422L358.223 144.13Z" fill="white"/>
<path d="M362.55 134.86L364.876 144.679L366.816 144.214L367.398 146.671L362.268 147.9L359.36 135.625L362.55 134.86Z" fill="white"/>
<path d="M438.096 141.509C437.97 142.778 437.848 143.675 437.733 144.2C437.623 144.719 437.388 145.183 437.027 145.589C436.671 145.996 436.213 146.291 435.654 146.474C435.095 146.656 434.458 146.713 433.746 146.645C433.069 146.58 432.471 146.412 431.952 146.142C431.438 145.867 431.04 145.492 430.756 145.019C430.472 144.545 430.325 144.045 430.315 143.519C430.304 142.993 430.364 142.08 430.494 140.779L430.71 138.618C430.837 137.349 430.955 136.454 431.065 135.934C431.18 135.41 431.416 134.944 431.772 134.537C432.133 134.131 432.593 133.836 433.152 133.653C433.712 133.471 434.348 133.414 435.061 133.482C435.737 133.547 436.332 133.717 436.846 133.992C437.365 134.263 437.767 134.635 438.05 135.108C438.334 135.582 438.481 136.082 438.492 136.608C438.502 137.134 438.442 138.047 438.312 139.348L438.096 141.509ZM435.225 137.043C435.284 136.455 435.287 136.077 435.236 135.909C435.19 135.737 435.066 135.641 434.863 135.621C434.691 135.605 434.552 135.66 434.444 135.786C434.343 135.908 434.26 136.294 434.195 136.944L433.605 142.842C433.532 143.576 433.516 144.031 433.556 144.208C433.601 144.386 433.733 144.485 433.951 144.506C434.175 144.528 434.328 144.443 434.41 144.251C434.492 144.059 434.571 143.591 434.645 142.848L435.225 137.043Z" fill="white"/>
<path d="M446.905 135.264L443.594 147.624L438.63 147.011L438.39 134.213L441.84 134.639C441.784 138.149 441.685 141.11 441.543 143.522C442.031 141.127 442.491 139.001 442.924 137.146L443.456 134.838L446.905 135.264Z" fill="white"/>
<path d="M446.44 135.254L451.853 136.081L451.475 138.58L449.308 138.249L448.95 140.616L450.978 140.927L450.618 143.302L448.59 142.992L448.175 145.737L450.557 146.102L450.179 148.601L444.55 147.74L446.44 135.254Z" fill="white"/>
<path d="M452.43 136.294L454.717 136.707C456.241 136.982 457.261 137.227 457.777 137.442C458.298 137.658 458.682 138.039 458.931 138.586C459.185 139.128 459.216 139.929 459.021 140.988C458.844 141.954 458.605 142.582 458.303 142.871C458.002 143.16 457.492 143.274 456.774 143.212C457.384 143.487 457.775 143.776 457.946 144.082C458.117 144.388 458.208 144.658 458.218 144.892C458.234 145.122 458.15 145.738 457.966 146.74L457.365 150.016L454.364 149.473L455.121 145.347C455.243 144.682 455.265 144.261 455.187 144.083C455.113 143.906 454.854 143.777 454.409 143.696L453.382 149.296L450.151 148.712L452.43 136.294ZM455.271 139.002L454.764 141.764C455.127 141.829 455.389 141.826 455.55 141.755C455.718 141.68 455.851 141.368 455.952 140.821L456.077 140.138C456.149 139.745 456.125 139.474 456.004 139.325C455.889 139.177 455.644 139.07 455.271 139.002Z" fill="white"/>
<path d="M472.086 140.262L468.019 152.29L464.016 151.388C464.057 149.408 464.197 147.18 464.435 144.701C464.087 145.705 463.329 147.794 462.16 150.969L458.18 150.071L459.393 137.399L462.505 138.101L461.91 142.484L461.355 146.717C461.932 144.592 462.83 141.836 464.05 138.449L467.383 139.201C467.352 139.572 467.178 140.956 466.861 143.353L466.207 148.123C467.024 145.178 467.946 142.324 468.974 139.56L472.086 140.262Z" fill="white"/>
<path d="M471.405 140.094L476.729 141.445L476.097 143.899L473.966 143.359L473.367 145.685L475.361 146.191L474.76 148.524L472.766 148.018L472.071 150.716L474.415 151.31L473.783 153.765L468.247 152.36L471.405 140.094Z" fill="white"/>
<path d="M480.247 142.641L476.839 154.772L473.688 153.871L477.097 141.741L480.247 142.641Z" fill="white"/>
<path d="M487.06 149.325L483.907 148.379L484.239 147.278C484.448 146.584 484.549 146.141 484.542 145.949C484.535 145.756 484.419 145.626 484.194 145.558C484 145.5 483.845 145.535 483.73 145.664C483.615 145.793 483.464 146.166 483.277 146.785L481.521 152.602C481.357 153.146 481.284 153.516 481.301 153.711C481.319 153.902 481.434 154.029 481.643 154.092C481.873 154.161 482.057 154.11 482.196 153.939C482.339 153.77 482.496 153.403 482.667 152.839L483.1 151.402L482.464 151.211L483.02 149.37L486.712 150.478L484.748 156.983L482.764 156.387L482.734 155.431C482.406 155.741 482.049 155.942 481.662 156.032C481.282 156.119 480.87 156.096 480.425 155.963C479.896 155.804 479.438 155.528 479.05 155.134C478.669 154.736 478.416 154.312 478.291 153.861C478.166 153.409 478.136 152.968 478.201 152.535C478.267 152.098 478.426 151.463 478.678 150.629L479.765 147.029C480.114 145.871 480.43 145.049 480.713 144.562C480.996 144.076 481.498 143.704 482.218 143.446C482.945 143.186 483.777 143.196 484.716 143.478C485.64 143.755 486.349 144.175 486.843 144.737C487.338 145.3 487.599 145.87 487.625 146.45C487.653 147.024 487.518 147.808 487.218 148.801L487.06 149.325Z" fill="white"/>
<path d="M495.919 147.456L491.892 159.423L488.777 158.384L490.469 153.358L489.537 153.047L487.845 158.073L484.73 157.034L488.758 145.067L491.873 146.106L490.432 150.386L491.364 150.697L492.805 146.417L495.919 147.456Z" fill="white"/>
<path d="M502.553 149.843L501.668 152.223L499.826 151.555L496.288 161.067L493.186 159.942L496.724 150.43L494.89 149.765L495.775 147.385L502.553 149.843Z" fill="white"/>
<path d="M559.051 196.021C558.213 196.973 557.595 197.629 557.198 197.986C556.808 198.343 556.35 198.581 555.822 198.7C555.299 198.823 554.758 198.796 554.2 198.619C553.642 198.443 553.095 198.12 552.559 197.651C552.05 197.207 551.663 196.724 551.4 196.205C551.145 195.684 551.039 195.15 551.084 194.603C551.13 194.055 551.3 193.566 551.597 193.134C551.893 192.703 552.47 191.999 553.329 191.022L554.756 189.4C555.593 188.447 556.207 187.792 556.597 187.435C556.994 187.078 557.455 186.838 557.978 186.715C558.505 186.596 559.048 186.624 559.606 186.801C560.164 186.978 560.711 187.3 561.248 187.769C561.757 188.214 562.139 188.696 562.395 189.216C562.658 189.736 562.767 190.27 562.722 190.817C562.677 191.365 562.506 191.854 562.21 192.286C561.913 192.718 561.336 193.422 560.477 194.398L559.051 196.021ZM559.318 190.744C559.706 190.302 559.927 189.999 559.983 189.833C560.046 189.667 560.001 189.518 559.848 189.384C559.719 189.271 559.574 189.235 559.415 189.275C559.262 189.314 558.971 189.578 558.542 190.066L554.648 194.495C554.164 195.046 553.887 195.404 553.817 195.571C553.75 195.741 553.8 195.897 553.964 196.041C554.132 196.188 554.305 196.208 554.483 196.101C554.66 195.993 554.995 195.661 555.486 195.102L559.318 190.744Z" fill="white"/>
<path d="M564.184 190.699L566.595 192.933C567.356 193.639 567.877 194.232 568.157 194.712C568.441 195.195 568.535 195.73 568.438 196.317C568.345 196.899 567.926 197.591 567.179 198.394C566.674 198.936 566.236 199.234 565.865 199.288C565.498 199.346 565.01 199.2 564.402 198.85C564.843 199.494 565.027 200.055 564.952 200.534C564.881 201.008 564.565 201.548 564.003 202.151L563.203 203.01C562.62 203.637 562.116 204.033 561.689 204.2C561.267 204.371 560.847 204.366 560.43 204.186C560.013 204.006 559.319 203.466 558.347 202.565L555.551 199.974L564.184 190.699ZM565.124 194.525L563.204 196.588C563.311 196.68 563.393 196.752 563.451 196.805C563.688 197.025 563.892 197.108 564.064 197.054C564.239 196.996 564.583 196.692 565.095 196.142C565.365 195.851 565.526 195.624 565.579 195.46C565.636 195.292 565.635 195.152 565.575 195.04C565.519 194.931 565.369 194.76 565.124 194.525ZM561.86 198.031L559.445 200.627C559.796 200.931 560.062 201.078 560.243 201.067C560.428 201.061 560.694 200.87 561.042 200.496L561.847 199.631C562.217 199.233 562.399 198.954 562.393 198.792C562.387 198.63 562.21 198.376 561.86 198.031Z" fill="white"/>
<path d="M569.886 196.168L573.785 199.996L572.016 201.793L570.455 200.261L568.778 201.963L570.239 203.397L568.556 205.105L567.095 203.671L565.151 205.645L566.867 207.33L565.098 209.126L561.043 205.146L569.886 196.168Z" fill="white"/>
<path d="M576.331 207.848L574.203 205.636L574.879 204.979C575.194 204.672 575.367 204.448 575.399 204.308C575.431 204.167 575.383 204.031 575.256 203.899C575.119 203.756 574.955 203.703 574.766 203.741C574.581 203.782 574.37 203.918 574.134 204.148C573.83 204.443 573.641 204.707 573.568 204.94C573.49 205.169 573.52 205.574 573.658 206.155C574.051 207.825 574.179 208.993 574.042 209.659C573.906 210.325 573.391 211.092 572.499 211.96C571.85 212.592 571.297 212.98 570.841 213.124C570.388 213.273 569.847 213.23 569.216 212.997C568.589 212.76 567.996 212.351 567.438 211.77C566.825 211.133 566.421 210.471 566.225 209.785C566.034 209.102 566.057 208.51 566.294 208.009C566.531 207.509 566.991 206.926 567.673 206.262L568.27 205.681L570.397 207.894L569.288 208.972C568.947 209.305 568.757 209.548 568.717 209.704C568.681 209.863 568.74 210.021 568.892 210.18C569.044 210.338 569.219 210.395 569.415 210.35C569.615 210.309 569.837 210.169 570.081 209.932C570.617 209.41 570.897 208.996 570.92 208.688C570.94 208.376 570.859 207.737 570.676 206.768C570.496 205.796 570.402 205.129 570.394 204.765C570.385 204.401 570.474 204.003 570.662 203.572C570.854 203.145 571.192 202.695 571.676 202.225C572.373 201.546 572.969 201.138 573.462 201.002C573.958 200.869 574.489 200.915 575.053 201.139C575.621 201.361 576.178 201.754 576.722 202.32C577.316 202.939 577.723 203.562 577.941 204.189C578.163 204.82 578.189 205.353 578.02 205.788C577.858 206.223 577.415 206.793 576.691 207.498L576.331 207.848Z" fill="white"/>
<path d="M581.515 208.137L572.166 216.609L569.963 214.178L579.311 205.706L581.515 208.137Z" fill="white"/>
<path d="M586.573 213.65L584.668 215.328L583.365 213.865L575.751 220.572L573.558 218.108L581.172 211.401L579.875 209.944L581.78 208.266L586.573 213.65Z" fill="white"/>
<path d="M591.284 219.298L583.536 222.622L580.016 225.551L578.058 223.215L581.578 220.287L586.298 213.352L588.241 215.669C586.651 217.608 585.546 218.873 584.926 219.463C586.081 218.74 587.552 217.912 589.34 216.98L591.284 219.298Z" fill="white"/>
<path d="M615.103 259.331L617.582 264.218L615.335 265.38L614.343 263.424L612.215 264.525L613.143 266.356L611.008 267.46L610.079 265.629L607.611 266.906L608.702 269.057L606.456 270.219L603.879 265.138L615.103 259.331Z" fill="white"/>
<path d="M620.711 270.776L615.164 272.156L609.555 276.76L608.227 274.018C609.205 273.146 610.444 272.184 611.942 271.133C611.187 271.402 610.374 271.664 609.502 271.919L607.505 272.528L606.108 269.645L612.991 267.67L617.519 264.188L618.906 267.05C618.616 267.252 618.142 267.605 617.484 268.111C616.984 268.5 616.52 268.846 616.094 269.148L619.508 268.294L620.711 270.776Z" fill="white"/>
<path d="M623.48 277.016L621.171 278.057L620.373 276.273L611.143 280.435L609.799 277.431L619.029 273.269L618.234 271.492L620.543 270.45L623.48 277.016Z" fill="white"/>
<path d="M623.442 277.116L624.328 279.27C624.918 280.705 625.262 281.699 625.36 282.251C625.459 282.807 625.346 283.339 625.019 283.846C624.699 284.356 624.041 284.817 623.044 285.229C622.135 285.605 621.476 285.745 621.07 285.648C620.664 285.551 620.293 285.182 619.957 284.543C620.056 285.207 620.022 285.695 619.857 286.005C619.692 286.316 619.513 286.539 619.321 286.675C619.136 286.814 618.572 287.078 617.628 287.468L614.544 288.743L613.382 285.917L617.267 284.311C617.893 284.052 618.26 283.841 618.367 283.679C618.477 283.52 618.446 283.232 618.273 282.813L613.001 284.992L611.75 281.95L623.442 277.116ZM622.693 280.985L620.093 282.06C620.234 282.402 620.378 282.622 620.525 282.719C620.678 282.819 621.013 282.762 621.528 282.549L622.171 282.284C622.542 282.13 622.757 281.963 622.817 281.78C622.879 281.602 622.838 281.337 622.693 280.985Z" fill="white"/>
<path d="M626.586 284.292L628.459 289.465L626.08 290.351L625.33 288.281L623.076 289.121L623.777 291.059L621.516 291.902L620.814 289.964L618.2 290.938L619.024 293.215L616.645 294.102L614.698 288.722L626.586 284.292Z" fill="white"/>
<path d="M631.812 299.414L619.91 303.596L618.969 300.888L627.004 298.064L618.593 299.806L617.925 297.885L625.38 293.985L617.529 296.744L616.587 294.035L628.49 289.853L629.884 293.864C629.209 294.234 628.409 294.655 627.485 295.128L624.605 296.62L630.408 295.373L631.812 299.414Z" fill="white"/>
<path d="M632.805 302.647L623.162 305.695L623.761 307.602L621.349 308.365L619.765 303.321L631.82 299.511L632.805 302.647Z" fill="white"/>
<path d="M635.138 310.554L626.753 310.51L622.369 311.789L621.535 308.867L625.919 307.587L633.013 303.113L633.841 306.013C631.612 307.156 630.096 307.875 629.294 308.169C630.636 307.966 632.308 307.795 634.31 307.654L635.138 310.554Z" fill="white"/>
<path d="M630.465 321.968C629.231 322.274 628.349 322.46 627.818 322.527C627.293 322.598 626.779 322.532 626.276 322.329C625.775 322.131 625.344 321.801 624.985 321.337C624.626 320.873 624.358 320.295 624.183 319.603C624.017 318.947 623.973 318.33 624.053 317.752C624.139 317.178 624.356 316.679 624.705 316.254C625.054 315.829 625.474 315.524 625.965 315.338C626.455 315.153 627.332 314.903 628.596 314.59L630.697 314.07C631.931 313.764 632.81 313.576 633.335 313.505C633.866 313.438 634.383 313.503 634.884 313.701C635.387 313.904 635.818 314.237 636.177 314.701C636.537 315.165 636.804 315.743 636.979 316.435C637.145 317.091 637.186 317.706 637.1 318.28C637.021 318.858 636.806 319.359 636.457 319.784C636.108 320.208 635.688 320.514 635.198 320.699C634.708 320.885 633.83 321.135 632.566 321.448L630.465 321.968ZM633.693 317.78C634.264 317.638 634.62 317.515 634.76 317.411C634.906 317.31 634.955 317.161 634.905 316.964C634.862 316.798 634.764 316.685 634.61 316.627C634.461 316.572 634.071 316.623 633.439 316.78L627.705 318.2C626.992 318.376 626.559 318.513 626.406 318.61C626.255 318.712 626.206 318.869 626.26 319.081C626.315 319.298 626.446 319.413 626.653 319.426C626.861 319.439 627.326 319.356 628.049 319.177L633.693 317.78Z" fill="white"/>
<path d="M637.698 320.536L638.373 323.737C638.587 324.749 638.669 325.53 638.621 326.082C638.575 326.639 638.344 327.13 637.929 327.553C637.519 327.976 636.781 328.301 635.715 328.53C634.994 328.685 634.467 328.678 634.134 328.51C633.803 328.348 633.491 327.95 633.198 327.317C633.187 328.095 633.014 328.658 632.679 329.006C632.349 329.353 631.782 329.612 630.98 329.784L629.838 330.029C629.005 330.208 628.368 330.244 627.926 330.137C627.485 330.035 627.147 329.791 626.912 329.406C626.677 329.021 626.423 328.183 626.15 326.893L625.367 323.181L637.698 320.536ZM636.265 324.198L633.523 324.786C633.557 324.922 633.582 325.028 633.599 325.104C633.665 325.419 633.784 325.604 633.954 325.657C634.13 325.71 634.583 325.658 635.314 325.501C635.7 325.418 635.962 325.325 636.099 325.221C636.242 325.116 636.321 325.001 636.337 324.875C636.354 324.755 636.33 324.529 636.265 324.198ZM631.604 325.197L628.154 325.937C628.265 326.386 628.396 326.658 628.549 326.753C628.703 326.853 629.028 326.849 629.526 326.742L630.676 326.496C631.204 326.382 631.512 326.258 631.6 326.122C631.688 325.986 631.69 325.678 631.604 325.197Z" fill="white"/>
<path d="M639.236 328.273L640.208 333.66L637.723 334.117L637.334 331.961L634.979 332.394L635.343 334.412L632.981 334.846L632.617 332.828L629.886 333.33L630.314 335.701L627.829 336.158L626.818 330.556L639.236 328.273Z" fill="white"/>
<path d="M637.727 341.597L637.266 338.58L638.191 338.43C638.623 338.361 638.892 338.278 638.998 338.181C639.104 338.085 639.144 337.947 639.116 337.767C639.087 337.571 638.984 337.435 638.809 337.358C638.635 337.286 638.386 337.276 638.062 337.328C637.646 337.396 637.342 337.503 637.148 337.65C636.954 337.792 636.746 338.14 636.525 338.692C635.888 340.276 635.323 341.301 634.831 341.765C634.339 342.23 633.481 342.561 632.258 342.759C631.37 342.902 630.698 342.903 630.245 342.76C629.792 342.622 629.377 342.278 628.998 341.728C628.624 341.177 628.377 340.506 628.256 339.713C628.123 338.844 628.174 338.074 628.409 337.403C628.644 336.738 629.002 336.269 629.481 335.996C629.961 335.724 630.668 335.512 631.603 335.361L632.42 335.228L632.88 338.246L631.362 338.491C630.895 338.567 630.6 338.657 630.479 338.761C630.359 338.87 630.316 339.032 630.349 339.248C630.382 339.464 630.491 339.61 630.676 339.686C630.862 339.766 631.122 339.779 631.456 339.725C632.19 339.607 632.656 339.429 632.851 339.191C633.046 338.949 633.346 338.381 633.752 337.488C634.163 336.594 634.469 335.996 634.67 335.695C634.872 335.393 635.172 335.121 635.572 334.877C635.972 334.638 636.504 334.465 637.167 334.358C638.122 334.203 638.839 334.211 639.318 334.381C639.798 334.557 640.202 334.897 640.532 335.403C640.867 335.907 641.094 336.545 641.211 337.317C641.34 338.161 641.314 338.901 641.132 339.536C640.95 340.177 640.666 340.626 640.279 340.884C639.898 341.146 639.212 341.357 638.22 341.517L637.727 341.597Z" fill="white"/>
<path d="M641.916 344.722L629.425 346.364L628.975 343.119L641.466 341.477L641.916 344.722Z" fill="white"/>
<path d="M642.725 352.21L640.209 352.489L639.997 350.548L629.942 351.666L629.584 348.397L639.639 347.279L639.427 345.345L641.942 345.065L642.725 352.21Z" fill="white"/>
<path d="M643.48 359.611L635.221 357.861L630.647 358.227L630.398 355.184L634.971 354.817L642.844 351.862L643.092 354.882C640.669 355.552 639.034 355.95 638.185 356.076C639.548 356.15 641.23 356.322 643.232 356.591L643.48 359.611Z" fill="white"/>
<path d="M753.31 25.5769C749.771 23.3827 745.547 22.577 741.45 23.3152C734.231 24.4385 728.392 31.8611 727.209 39.1319C726.026 46.4028 726.33 68.5188 726.33 68.5188C726.33 68.5188 765.29 68.8376 767.353 68.8376C767.171 58.789 766.974 40.7713 764.714 33.6674C761.56 23.8465 753.31 25.5769 753.31 25.5769Z" fill="#142033"/>
<path d="M770.462 74.97L768.945 92.7145C768.945 92.7145 753.4 101.2 746.197 102.733C737.325 101.609 723.873 93.0181 723.873 93.0181C723.873 93.0181 721.704 79.6149 723.114 74.97C725.344 73.6191 730.394 71.752 734.913 69.2171C735.11 68.3519 735.353 66.8492 735.565 65.3313C735.914 62.8722 736.202 60.3525 736.202 60.3525L757.222 60.1096C757.374 61.2632 757.525 63.5249 757.753 65.8929C757.889 67.2438 758.056 68.6403 758.284 69.8698C759.482 70.4011 770.462 74.97 770.462 74.97Z" fill="#F6AA99"/>
<path d="M733.321 76.3056C733.427 76.8521 740.282 79.0075 746.273 79.0075C750.754 78.7322 755.158 77.706 759.3 75.9717L733.321 76.3056Z" fill="#F3877C"/>
<path d="M745.712 102.019C745.97 92.2132 746.03 92.2283 747.001 87.4014C747.897 92.2253 748.404 97.1136 748.518 102.019H745.712Z" fill="#EE6066"/>
<path d="M757.389 60.8077C757.596 62.7659 757.187 64.7399 756.219 66.4542C755.251 68.1685 753.773 69.5376 751.99 70.3706C750.568 71.0478 749.016 71.4102 747.441 71.4332C745.326 71.4204 743.246 70.8999 741.374 69.9152C739.681 69.0178 738.3 67.628 737.412 65.929C736.524 64.23 736.171 62.3016 736.4 60.3979L757.42 60.155C757.344 60.3068 757.359 60.5497 757.389 60.8077Z" fill="#EE6066"/>
<path d="M758.633 50.1823C758.8 50.0457 761.09 45.2491 763.759 45.1277C766.428 45.0062 766.049 49.0894 765.549 50.2582C765.048 51.427 764.032 54.6754 761.09 55.5557C759.895 55.4614 758.779 54.9194 757.966 54.0378L758.633 50.1823Z" fill="#F6AA99"/>
<path d="M764.35 49.6205C764.35 49.4536 765.351 47.0401 763.91 46.5847C762.469 46.1293 760.043 49.7572 758.89 50.9563C759.922 50.9563 761.302 50.6072 761.271 51.5786C761.241 52.5501 759.755 53.6886 758.238 53.6127C759.618 54.2805 760.149 54.7207 761.15 54.4627C762.151 54.2046 763.182 52.6412 763.182 52.6412C762.834 53.0632 762.383 53.3893 761.874 53.5885C761.364 53.7877 760.813 53.8535 760.271 53.7796C761.893 52.9296 763.122 51.017 761.969 50.5161C761.631 50.3729 761.267 50.2991 760.9 50.2991C760.533 50.2991 760.169 50.3729 759.831 50.5161C759.831 50.5161 761.681 48.1937 762.864 47.9053C764.047 47.6169 764.35 49.6205 764.35 49.6205Z" fill="#F3877C"/>
<path d="M761.787 49.8334C761.787 49.8334 762.773 49.8334 762.985 50.3799C763.09 50.7108 763.12 51.061 763.073 51.4049C763.026 51.7489 762.902 52.078 762.712 52.3683C764.244 51.0326 764.183 49.0138 761.787 49.8334Z" fill="#F3877C"/>
<path d="M734.171 50.1518C734.004 50.0303 731.714 45.2337 729.044 45.1123C726.375 44.9908 726.754 49.074 727.255 50.2276C727.755 51.3813 728.772 54.66 731.714 55.5252C732.911 55.4383 734.029 54.895 734.838 54.0073L734.171 50.1518Z" fill="#F6AA99"/>
<path d="M728.468 49.5899C728.468 49.4381 727.467 47.0246 728.908 46.6452C730.349 46.2657 732.76 49.8176 733.913 51.0016C732.882 51.0016 731.501 50.6525 731.532 51.6239C731.562 52.5954 733.139 53.7339 734.565 53.6731C733.185 54.3258 732.654 54.766 731.638 54.5232C730.622 54.2803 729.606 52.7017 729.606 52.7017C729.954 53.1232 730.405 53.448 730.915 53.6447C731.425 53.8414 731.977 53.9035 732.518 53.8249C730.895 52.9749 729.666 51.0623 730.834 50.5614C731.17 50.4186 731.531 50.345 731.896 50.345C732.261 50.345 732.622 50.4186 732.957 50.5614C732.957 50.5614 731.107 48.239 729.924 47.9658C728.741 47.6925 728.468 49.5899 728.468 49.5899Z" fill="#F3877C"/>
<path d="M731.031 49.8029C731.031 49.8029 730.046 49.8029 729.818 50.3493C729.713 50.6827 729.683 51.0353 729.73 51.3818C729.777 51.7282 729.901 52.0599 730.091 52.353C728.559 51.0172 728.62 48.9984 731.031 49.8029Z" fill="#F3877C"/>
<path d="M755.812 39.2229C757.256 40.1623 758.427 41.4672 759.204 43.0054C759.982 44.5436 760.339 46.2602 760.24 47.9813C760.134 49.6813 760.043 51.5332 760.043 52.3984C760.298 54.7406 760.028 57.1102 759.255 59.3353C757.859 62.9024 752.551 66.3481 746.667 66.424C744.414 66.5647 742.161 66.1513 740.104 65.22C738.048 64.2886 736.25 62.8676 734.868 61.0809C733.334 58.8668 732.665 56.1663 732.988 53.4913C733.139 51.1082 732.229 45.2946 732.715 43.7463C733.867 40.1033 737.264 39.3291 741.481 38.6916C745.697 38.0541 750.383 36.521 751.293 35.1245C751.899 36.7942 753.856 37.963 755.812 39.2229Z" fill="#F6AA99"/>
<path d="M748.715 46.3421C750.274 45.7069 751.881 45.1993 753.522 44.8242C755.209 44.5696 756.912 44.4326 758.618 44.4144C757.254 43.7291 755.76 43.3411 754.235 43.2759C752.571 43.2606 750.92 43.5806 749.382 44.217C749.079 44.8973 748.855 45.6104 748.715 46.3421Z" fill="#321E41"/>
<path d="M749.624 51.3204C749.968 51.3534 750.309 51.4195 750.64 51.5177C751.908 51.9478 753.274 51.9953 754.568 51.6543C755.333 51.3807 756.033 50.9505 756.623 50.3913C757.213 49.832 757.681 49.1559 757.996 48.406C754.189 49.2257 750.231 50.44 749.624 51.3204Z" fill="#F3877C"/>
<path d="M757.996 48.4064C756.964 49.7165 755.53 50.65 753.916 51.0628C752.856 51.2287 751.776 51.2287 750.716 51.0628C750.372 51.0303 750.026 51.0933 749.715 51.2449H749.624C749.701 50.2015 750.16 49.2233 750.913 48.4975C751.342 48.0917 751.862 47.795 752.43 47.6323C753.54 47.3595 754.701 47.3595 755.812 47.6323C756.568 47.8003 757.302 48.0603 757.996 48.4064Z" fill="white"/>
<path d="M754.083 50.5768C753.743 50.6574 753.391 50.6692 753.047 50.6117C752.702 50.5541 752.373 50.4284 752.078 50.2418C751.782 50.0551 751.528 49.8114 751.328 49.5249C751.128 49.2384 750.987 48.9148 750.914 48.5732C751.343 48.1674 751.863 47.8707 752.43 47.708C753.541 47.4352 754.701 47.4352 755.812 47.708C755.932 48.3158 755.822 48.9465 755.502 49.4771C755.182 50.0076 754.676 50.3997 754.083 50.5768Z" fill="#321E41"/>
<path d="M754.447 49.3776C754.447 48.8918 756.677 48.9525 756.601 49.3776C756.525 49.8026 754.462 49.8633 754.447 49.3776Z" fill="white"/>
<path d="M750.716 51.1081C750.372 51.0757 750.026 51.1387 749.715 51.2903H749.624C749.649 50.9334 749.72 50.5813 749.836 50.2429C750.052 50.6011 750.354 50.8987 750.716 51.1081Z" fill="#EE6066"/>
<path d="M752.96 47.1765C752.02 47.3914 751.179 47.9172 750.574 48.669C749.968 49.4208 749.634 50.3548 749.624 51.3204C749.835 50.4835 750.279 49.7239 750.905 49.13C751.53 48.5361 752.312 48.1323 753.158 47.9658C754.775 47.5775 756.475 47.7322 757.996 48.406L759.118 47.4345C757.112 46.8798 755.006 46.7915 752.96 47.1765Z" fill="#321E41"/>
<path d="M749.715 48.4974C750.405 47.7056 751.321 47.1441 752.339 46.8884C753.713 46.558 755.133 46.4605 756.54 46.6C755.401 46.1395 754.167 45.9675 752.946 46.0991C752.238 46.1588 751.56 46.4149 750.99 46.8385C750.419 47.2622 749.978 47.8366 749.715 48.4974Z" fill="#F3877C"/>
<path d="M743.816 46.3421C742.257 45.7069 740.65 45.1993 739.009 44.8242C737.322 44.5696 735.619 44.4326 733.913 44.4144C735.277 43.7291 736.771 43.3411 738.296 43.2759C739.96 43.2606 741.611 43.5806 743.149 44.217C743.452 44.8973 743.676 45.6104 743.816 46.3421Z" fill="#321E41"/>
<path d="M743.361 51.6852C743.017 51.7181 742.677 51.7842 742.345 51.8825C741.072 52.312 739.702 52.3595 738.402 52.0191C737.638 51.7461 736.94 51.316 736.352 50.7566C735.764 50.1971 735.3 49.5206 734.99 48.7708C738.721 49.5752 742.679 50.8048 743.361 51.6852Z" fill="#F3877C"/>
<path d="M734.913 48.7555C735.942 50.0712 737.376 51.0103 738.993 51.427C740.053 51.593 741.132 51.593 742.193 51.427C742.537 51.3961 742.883 51.4591 743.194 51.6092H743.285C743.258 51.2511 743.182 50.8985 743.057 50.5618C742.857 49.9123 742.491 49.3262 741.995 48.8618C741.566 48.456 741.046 48.1592 740.479 47.9966C739.368 47.7238 738.208 47.7238 737.097 47.9966C736.342 48.1643 735.609 48.419 734.913 48.7555Z" fill="white"/>
<path d="M738.811 50.8957C739.151 50.9762 739.504 50.988 739.848 50.9305C740.192 50.873 740.522 50.7472 740.817 50.5606C741.112 50.374 741.367 50.1303 741.567 49.8438C741.767 49.5573 741.908 49.2337 741.981 48.892C741.552 48.4862 741.032 48.1895 740.464 48.0268C739.354 47.7541 738.193 47.7541 737.082 48.0268C736.959 48.6349 737.068 49.2673 737.388 49.7987C737.708 50.3301 738.216 50.7216 738.811 50.8957Z" fill="#321E41"/>
<path d="M742.193 51.4721C742.537 51.4412 742.883 51.5042 743.194 51.6543H743.285C743.259 51.2962 743.182 50.9436 743.057 50.6069C742.848 50.9649 742.55 51.2629 742.193 51.4721Z" fill="#EE6066"/>
<path d="M739.949 47.5412C740.887 47.761 741.724 48.2881 742.329 49.0389C742.933 49.7897 743.27 50.721 743.285 51.6851C743.077 50.8455 742.634 50.0826 742.008 49.4858C741.382 48.8891 740.6 48.4831 739.752 48.3154C738.132 47.9386 736.435 48.0984 734.914 48.7707L733.792 47.7993C735.797 47.2445 737.904 47.1563 739.949 47.5412Z" fill="#321E41"/>
<path d="M743.179 48.8614C742.501 48.0621 741.588 47.4987 740.57 47.2524C739.196 46.922 737.776 46.8245 736.369 46.964C737.508 46.5035 738.742 46.3315 739.963 46.4631C740.67 46.5221 741.345 46.7781 741.914 47.202C742.482 47.626 742.92 48.2008 743.179 48.8614Z" fill="#F3877C"/>
<path d="M740.115 50.0457C740.115 49.5599 742.345 49.6055 742.284 50.0457C742.223 50.4859 740.146 50.5314 740.115 50.0457Z" fill="white"/>
<path d="M744.225 53.9317C744.225 53.9317 745.893 55.5559 746.515 55.5559C747.437 55.1045 748.286 54.516 749.033 53.8103L746.515 54.7514L744.225 53.9317Z" fill="#EE6066"/>
<path d="M741.844 57.7867C742.337 58.5203 743.022 59.1029 743.825 59.47C744.629 59.8371 745.518 59.9743 746.394 59.8662C747.367 59.7957 748.31 59.4981 749.147 58.9973C749.985 58.4965 750.694 57.8064 751.217 56.9822C748.07 56.741 744.904 57.0127 741.844 57.7867Z" fill="#321E41"/>
<path d="M744.453 62.69C744.743 62.3773 745.092 62.125 745.48 61.9479C745.868 61.7707 746.287 61.6721 746.713 61.6579C747.143 61.5716 747.589 61.6084 747.999 61.7641C748.41 61.9198 748.768 62.1881 749.033 62.5382C747.529 62.8682 745.976 62.9197 744.453 62.69Z" fill="#F3877C"/>
<path d="M773.859 77.0342C773.859 77.0342 784.172 82.438 788.388 89.3749C792.604 96.3117 807.649 120.477 810.864 140.438C812.213 163.434 803.599 191.667 803.599 191.667C803.599 191.667 805.798 204.008 802.75 209.594C799.702 215.18 788.388 220.751 788.388 220.751L773.859 77.0342Z" fill="#F6AA99"/>
<path d="M717.351 78.1118C717.351 78.1118 707.054 83.5156 702.823 90.4525C698.591 97.3894 683.562 121.555 680.362 141.515C679.013 164.512 687.627 192.745 687.627 192.745C687.627 192.745 685.428 205.086 688.476 210.672C691.524 216.257 702.823 221.828 702.823 221.828L717.351 78.1118Z" fill="#F6AA99"/>
<path d="M738.463 351.2C738.265 349.394 737.932 347.542 737.629 345.842C737.629 345.69 737.629 345.538 737.629 345.387V257.545C738.25 242.244 743.179 201.473 743.179 201.473C742.178 186.294 722.963 164.162 698.304 167.608C695.119 188.312 697.803 215.787 702.702 235.914C704.241 242.102 704.105 248.589 702.308 254.706C691.692 290.362 709.496 303.826 713.5 339.573C713.443 342.317 712.692 345.001 711.316 347.375C710.495 348.75 709.473 349.993 708.283 351.064C705.947 353.143 703.93 354.008 698.774 357.135C693.618 360.262 687.703 362.919 687.718 365.256C687.718 365.256 687.824 366.319 689.235 366.319H717.58C721.887 366.319 723.024 363.283 726.239 361.674C729.454 360.065 734.58 362.418 737.674 359.109C738.796 357.909 738.902 355.238 738.629 352.248C738.539 351.807 738.508 351.443 738.463 351.2Z" fill="#F6AA99"/>
<path d="M737.613 359.033C734.58 362.342 729.272 360.05 726.178 361.598C723.084 363.147 721.826 366.243 717.519 366.243C717.519 366.243 720.233 366.653 723.236 362.889C730.076 354.327 734.853 356.21 738.402 351.246C738.402 351.55 738.478 351.853 738.508 352.172C738.811 355.117 738.811 357.788 737.613 359.033Z" fill="#F3877C"/>
<path d="M721.053 354.479C720.168 356.289 718.894 357.881 717.322 359.14C714.653 361.174 711.969 362.494 710.71 363.693C710.057 364.389 709.689 365.304 709.679 366.259H707.449C707.54 365.29 707.897 364.365 708.48 363.587C709.739 362.069 712.06 361.143 714.956 359.322C717.14 357.908 719.182 356.287 721.053 354.479Z" fill="#EE6066"/>
<path d="M713.303 363.678C714.279 363.631 715.257 363.708 716.215 363.905C716.759 364.02 717.326 363.945 717.822 363.693C718.128 363.577 718.404 363.395 718.629 363.158C718.855 362.922 719.025 362.638 719.127 362.327C719.127 360.809 716.412 360.46 713.06 363.131C713.001 363.171 712.958 363.231 712.938 363.299C712.918 363.368 712.923 363.441 712.952 363.506C712.981 363.572 713.032 363.625 713.097 363.656C713.161 363.687 713.234 363.695 713.303 363.678Z" fill="#FFC5BB"/>
<path d="M710.831 359.352C708.48 361.492 704.901 363.389 703.794 364.452C703.231 364.875 702.856 365.501 702.748 366.197H701.413C701.488 365.662 701.675 365.148 701.963 364.69C702.25 364.232 702.631 363.841 703.081 363.541C704.81 362.448 707.646 361.052 710.831 359.352Z" fill="#EE6066"/>
<path d="M705.037 359.352C702.702 361.492 699.122 363.389 698 364.452C697.443 364.88 697.069 365.504 696.954 366.197H695.619C695.697 365.661 695.888 365.147 696.178 364.69C696.468 364.232 696.851 363.84 697.303 363.541C699.016 362.448 701.852 361.052 705.037 359.352Z" fill="#EE6066"/>
<path d="M700.033 359.352C697.682 361.492 694.103 363.389 692.981 364.452C692.43 364.885 692.057 365.507 691.935 366.197H690.615C690.69 365.662 690.877 365.148 691.165 364.69C691.452 364.232 691.834 363.841 692.283 363.541C693.997 362.448 696.848 361.052 700.033 359.352Z" fill="#EE6066"/>
<path d="M704.583 364.847C705.399 364.642 706.254 364.642 707.07 364.847C707.07 364.847 708.147 363.693 707.935 363.329C707.722 362.964 705.842 362.873 704.583 364.847Z" fill="#FFC5BB"/>
<path d="M698.577 364.847C699.393 364.642 700.247 364.642 701.064 364.847C701.064 364.847 702.125 363.693 701.913 363.329C701.701 362.964 699.835 362.873 698.577 364.847Z" fill="#FFC5BB"/>
<path d="M693.39 364.846C694.098 364.674 694.836 364.674 695.544 364.846C695.544 364.846 696.469 363.845 696.287 363.526C696.105 363.207 694.482 363.131 693.39 364.846Z" fill="#FFC5BB"/>
<path d="M688.477 364.877C689.189 364.706 689.932 364.706 690.645 364.877C690.645 364.877 691.57 363.89 691.388 363.556C691.206 363.222 689.584 363.177 688.477 364.877Z" fill="#FFC5BB"/>
<path d="M698.714 218.96C696.17 203.342 695.62 187.464 697.076 171.707L698.319 171.859C696.874 187.504 697.419 203.27 699.942 218.777L698.714 218.96Z" fill="#F3877C"/>
<path d="M712.15 247.785C710.527 249.804 713.818 263.465 718.307 262.403C723.418 261.568 727.331 250.472 725.374 247.952C723.646 245.781 714.698 244.582 712.15 247.785Z" fill="#F3877C"/>
<path d="M751.656 351.2C751.869 349.394 752.187 347.542 752.491 345.842C752.491 345.69 752.49 345.538 752.566 345.387V257.545C751.945 242.244 747.016 201.473 747.016 201.473C748.017 186.294 767.232 164.162 791.876 167.608C795.061 188.312 792.376 215.787 787.478 235.914C785.946 242.103 786.082 248.587 787.872 254.706C798.488 290.362 780.699 303.826 776.695 339.573C776.745 342.318 777.496 345.004 778.879 347.375C779.694 348.753 780.717 349.997 781.912 351.064C784.232 353.143 786.249 354.008 791.406 357.135C796.562 360.262 802.507 362.797 802.507 365.104C802.507 365.104 802.416 366.167 800.99 366.167H772.6C768.293 366.167 767.156 363.131 763.956 361.522C760.756 359.913 755.599 362.266 752.521 358.957C751.383 357.758 751.277 355.086 751.55 352.096C751.581 351.807 751.626 351.443 751.656 351.2Z" fill="#F6AA99"/>
<path d="M752.46 359.033C755.493 362.342 760.801 360.05 763.895 361.598C766.989 363.147 768.232 366.243 772.54 366.243C772.54 366.243 769.825 366.653 766.822 362.889C759.982 354.327 755.205 356.21 751.656 351.246C751.656 351.55 751.581 351.853 751.55 352.172C751.277 355.117 751.383 357.788 752.46 359.033Z" fill="#F3877C"/>
<path d="M769.143 354.479C770.04 356.281 771.312 357.87 772.874 359.14C775.543 361.174 778.227 362.494 779.486 363.693C780.142 364.388 780.515 365.303 780.533 366.259H782.762C782.621 365.325 782.245 364.442 781.67 363.693C780.411 362.175 778.091 361.249 775.179 359.428C773.012 357.978 770.99 356.321 769.143 354.479Z" fill="#EE6066"/>
<path d="M776.817 363.678C775.84 363.632 774.862 363.708 773.905 363.905C773.361 364.019 772.794 363.944 772.297 363.693C771.736 363.405 771.099 362.949 771.008 362.327C771.008 360.809 773.723 360.46 777.075 363.131C777.139 363.17 777.187 363.231 777.209 363.303C777.231 363.376 777.226 363.453 777.193 363.522C777.161 363.59 777.105 363.644 777.035 363.672C776.966 363.701 776.888 363.703 776.817 363.678Z" fill="#FFC5BB"/>
<path d="M779.289 359.352C781.639 361.492 785.218 363.389 786.341 364.452C786.892 364.885 787.265 365.507 787.387 366.197H788.706C788.632 365.662 788.445 365.148 788.157 364.69C787.869 364.232 787.488 363.841 787.038 363.541C785.324 362.448 782.473 361.052 779.289 359.352Z" fill="#EE6066"/>
<path d="M785.082 359.352C787.433 361.492 791.012 363.389 792.119 364.452C792.682 364.875 793.057 365.501 793.165 366.197H794.5C794.422 365.663 794.234 365.15 793.947 364.692C793.659 364.235 793.28 363.843 792.832 363.541C791.103 362.448 788.267 361.052 785.082 359.352Z" fill="#EE6066"/>
<path d="M790.102 359.352C792.437 361.492 796.016 363.389 797.138 364.452C797.695 364.88 798.069 365.504 798.185 366.197H799.474C799.396 365.661 799.205 365.147 798.915 364.69C798.625 364.232 798.242 363.84 797.791 363.541C796.122 362.448 793.286 361.052 790.102 359.352Z" fill="#EE6066"/>
<path d="M785.537 364.847C784.72 364.642 783.866 364.642 783.05 364.847C783.05 364.847 781.988 363.693 782.2 363.329C782.413 362.964 784.308 362.873 785.537 364.847Z" fill="#FFC5BB"/>
<path d="M791.558 364.847C790.736 364.642 789.877 364.642 789.056 364.847C789.056 364.847 787.994 363.693 788.206 363.329C788.419 362.964 790.284 362.873 791.558 364.847Z" fill="#FFC5BB"/>
<path d="M796.728 364.846C796.021 364.674 795.282 364.674 794.575 364.846C794.575 364.846 793.65 363.845 793.832 363.526C794.014 363.207 795.636 363.131 796.728 364.846Z" fill="#FFC5BB"/>
<path d="M801.642 364.877C800.935 364.704 800.196 364.704 799.489 364.877C799.489 364.877 798.564 363.89 798.746 363.556C798.928 363.222 800.551 363.177 801.642 364.877Z" fill="#FFC5BB"/>
<path d="M791.421 218.96C793.96 203.341 794.506 187.463 793.044 171.707L791.815 171.859C793.248 187.505 792.697 203.269 790.177 218.777L791.421 218.96Z" fill="#F3877C"/>
<path d="M777.984 247.785C779.592 249.804 776.301 263.465 771.812 262.403C766.701 261.568 762.712 250.472 764.744 247.952C766.428 245.781 775.421 244.582 777.984 247.785Z" fill="#F3877C"/>
<path d="M790.981 218.96L789.737 218.777C792.257 203.269 792.807 187.505 791.375 171.859L792.619 171.707C794.067 187.464 793.517 203.341 790.981 218.96Z" fill="#F3877C"/>
<path d="M790.633 154.812C772.707 162.645 757.496 168.033 748.882 170.887L745.09 172.132L741.299 170.887C732.685 168.033 717.474 162.645 699.548 154.812C700.258 145.136 702.3 135.605 705.614 126.488C707.131 122.298 708.223 119.703 708.223 119.703L741.329 114.162L745.121 113.525L748.912 114.162L782.004 119.703C782.004 119.703 783.065 122.298 784.445 126.488C787.542 135.673 789.617 145.172 790.633 154.812Z" fill="#F6AA99"/>
<path d="M746.243 137.508C746.243 137.508 743.847 142.487 745.985 146.494C748.882 143.185 746.243 137.508 746.243 137.508Z" fill="#EE6066"/>
<path d="M784.414 126.488H705.553C707.069 122.298 708.161 119.703 708.161 119.703L741.268 114.162L745.059 113.525L748.851 114.162L781.942 119.703C781.942 119.703 783.034 122.238 784.414 126.488Z" fill="#F3877C"/>
<path d="M700.897 154.843H699.638C700.342 145.107 702.384 135.514 705.704 126.336C707.221 122.177 708.328 119.536 708.328 119.506L709.481 120.022C709.481 120.022 708.313 122.648 706.872 126.761C703.595 135.801 701.584 145.251 700.897 154.843Z" fill="#F3877C"/>
<path d="M789.313 154.843C788.62 145.231 786.604 135.761 783.323 126.7C781.806 122.572 780.73 119.976 780.714 119.961L781.867 119.445C781.867 119.445 783.035 122.116 784.491 126.275C787.811 135.454 789.853 145.046 790.557 154.782L789.313 154.843Z" fill="#F3877C"/>
<path d="M699.062 154.114C697.457 160.266 696.622 166.594 696.575 172.952C709.8 176.17 738.023 192.123 743.119 201.458H747.016C747.016 201.458 765.063 178.583 793.196 173.999C792.104 158.289 790.86 153.947 790.86 153.947L699.062 154.114Z" fill="#213555"/>
<path d="M708.192 119.703C708.192 119.703 702.247 102.657 714.956 91.4543C726 90.8548 737.009 93.1518 746.895 98.1179C758.496 92.0463 770.477 89.9364 778.348 91.4543C781.082 95.5464 782.833 100.217 783.462 105.099C784.09 109.982 783.581 114.944 781.973 119.596C756.282 119.596 708.192 119.703 708.192 119.703Z" fill="#213555"/>
<path d="M714.956 91.4544L715.896 77.8538L724.343 73.634L726.239 94.3081L714.956 91.4544Z" fill="#213555"/>
<path d="M778.348 91.4544L777.393 77.8538L768.946 73.634L767.05 94.3081L778.348 91.4544Z" fill="#213555"/>
<path d="M85.3216 350.578C87.4751 322.163 85.17 281.619 84.4268 249.743C78.4971 227.277 76.207 180.192 76.207 180.192C77.0715 172.906 84.9273 151.822 109.177 153.962L109.283 154.22C113.257 163.328 114.652 175.471 114.591 188.48C114.516 205.723 111.877 224.515 109.344 239.998C113.469 252.718 117.594 265.438 115.289 282.606C112.984 299.773 100.957 320.478 101.291 338.647C101.351 340.548 101.667 342.432 102.231 344.248C103.209 347.532 105.129 350.456 107.752 352.657C112.923 356.953 121.249 361.947 122.917 363.48C123.37 363.8 123.754 364.209 124.046 364.681C124.338 365.153 124.532 365.679 124.616 366.228H99.7745C93.2229 366.228 95.058 365.059 92.2978 362.691C90.7813 361.461 88.0059 362.494 85.7008 361.826C83.9415 361.294 84.0629 358.714 84.6695 354.676C84.8666 353.416 85.17 352.065 85.3216 350.578Z" fill="#F6AA99"/>
<path d="M105.736 364.998H108.632C108.905 364.998 108.511 364.103 107.495 363.997C106.13 363.86 105.447 364.786 105.736 364.998Z" fill="#FFC5BB"/>
<path d="M111.377 364.998H114.273C114.561 364.998 114.152 364.103 113.151 363.997C111.786 363.86 111.104 364.786 111.377 364.998Z" fill="#FFC5BB"/>
<path d="M116.411 364.999H119.308C119.596 364.999 119.187 364.255 118.186 364.179C116.821 364.058 116.123 364.817 116.411 364.999Z" fill="#FFC5BB"/>
<path d="M121.113 364.999H123.752C124.01 364.999 123.646 364.255 122.736 364.179C121.477 364.058 120.855 364.817 121.113 364.999Z" fill="#FFC5BB"/>
<path d="M85.7012 361.796C88.0064 362.464 90.7665 361.538 92.2982 362.661C89.1286 359.291 88.977 355.33 84.7154 354.646C84.0633 358.684 83.942 361.265 85.7012 361.796Z" fill="#F3877C"/>
<path d="M98.6373 357.227C98.3562 357.19 98.0708 357.244 97.8223 357.38C97.5739 357.517 97.3752 357.729 97.2553 357.986C97.1353 358.243 97.1003 358.531 97.1551 358.81C97.21 359.088 97.352 359.342 97.5605 359.534L97.697 359.64C99.5497 360.956 101.294 362.418 102.914 364.012C103.404 364.639 103.69 365.402 103.733 366.197H105.614C105.554 365.54 105.336 364.908 104.98 364.353C104.624 363.798 104.139 363.337 103.566 363.01C102.125 361.932 98.3643 359.519 97.8942 358.456C97.5909 357.758 98.6373 357.287 98.6373 357.287V357.227Z" fill="#EE6066"/>
<path d="M101.247 364.361H96.348C96.2343 364.17 96.1737 363.952 96.1724 363.73C96.1711 363.508 96.2291 363.29 96.3405 363.098C96.4519 362.906 96.6126 362.747 96.8059 362.638C96.9992 362.529 97.2181 362.474 97.4399 362.479C98.1945 362.286 98.9931 362.369 99.6913 362.715C100.389 363.06 100.941 363.644 101.247 364.361Z" fill="#FFC5BB"/>
<path d="M101.732 358.426C101.732 358.426 101.732 359.853 105.023 361.841C107.51 363.359 109.755 364.877 110.088 366.198H112.136C111.238 364.906 110.087 363.812 108.754 362.98C106.145 361.234 102.687 360.095 101.732 358.426Z" fill="#EE6066"/>
<path d="M108.875 360.171C109.648 360.885 112.939 363.207 114.183 364.194C114.835 364.706 115.317 365.405 115.563 366.198H116.852C116.275 363.738 112.469 362.069 108.875 360.171Z" fill="#EE6066"/>
<path d="M113.591 360.171C114.35 360.885 117.656 363.207 118.899 364.194C119.547 364.711 120.027 365.408 120.279 366.198H121.568C120.992 363.738 117.14 362.069 113.591 360.171Z" fill="#EE6066"/>
<path d="M93.1023 179.463C93.7241 183.577 99.5781 189.603 106.873 190.241C109.578 190.503 112.294 189.857 114.592 188.404C114.592 175.426 113.258 163.313 109.284 154.145C105.508 154.676 101.079 155.86 98.7895 158.395C94.5279 163.222 92.4654 175.365 93.1023 179.463Z" fill="#F3877C"/>
<path d="M103.567 240.969C105.19 242.988 101.899 256.65 97.4095 255.602C92.2987 254.752 88.3859 243.656 90.3423 241.136C92.0257 238.966 101.019 237.782 103.567 240.969Z" fill="#F3877C"/>
<path d="M80.773 4.29546C80.4697 4.29546 77.0726 -1.89765 67.2604 0.591738C60.3448 2.33734 55.6131 7.65006 53.6113 17.0308C52.3677 22.8292 52.6558 35.8226 51.7459 39.2835C50.8359 42.7443 48.5763 43.9738 47.6663 46.873C46.7564 49.7723 49.2891 51.0625 47.363 53.0965C45.437 55.1305 42.6768 55.8591 42.4645 60.337C42.3733 61.5716 42.6672 62.804 43.3056 63.8644C43.9439 64.9247 44.8953 65.7606 46.0284 66.2569H102.141C102.141 66.2569 104.583 60.1852 103.37 57.377C102.157 54.5689 99.5936 55.4493 99.3965 52.8233C99.1993 50.1973 100.306 49.1499 99.1841 46.7516C98.0619 44.3533 95.787 45.0971 95.1349 42.547C94.4828 39.9969 95.4079 21.9944 93.7093 14.1923C92.1928 7.14914 86.0962 3.08113 80.773 4.29546Z" fill="#142033"/>
<path d="M106.69 136.704C106.69 136.704 96.074 142.973 76.0553 144.035C63.4831 144.506 50.9675 142.124 39.4453 137.068L40.6889 117.836L41.4472 106.133L104.521 105.055L105.386 117.836L106.69 136.704Z" fill="#F6AA99"/>
<path d="M105.386 117.836H40.689L41.4472 106.118L104.521 105.055L105.386 117.836Z" fill="#F3877C"/>
<path d="M73.5236 121.858C73.5236 121.858 71.1123 126.837 73.2506 130.844C76.1625 127.52 73.5236 121.858 73.5236 121.858Z" fill="#EE6066"/>
<path d="M62.1038 350.578C59.9503 322.163 62.2707 281.68 62.9986 249.667C68.9284 227.202 71.2184 180.116 71.2184 180.116C70.354 172.83 62.4982 151.746 38.2482 153.886L38.1572 154.114C34.1687 163.222 32.7886 175.365 32.8492 188.373C32.8492 205.617 35.5639 224.409 38.0966 239.892C33.9715 252.612 29.8464 265.332 32.1516 282.5C34.4568 299.667 46.4832 320.372 46.1496 338.541C46.0896 340.442 45.7733 342.326 45.2093 344.142C44.2325 347.439 42.3072 350.374 39.6738 352.582C34.5023 356.877 26.1763 361.871 24.5081 363.405C24.055 363.725 23.671 364.133 23.3792 364.605C23.0873 365.077 22.8936 365.603 22.8096 366.152H47.651C54.2025 366.152 52.3675 364.983 55.1276 362.615C56.6442 361.386 59.4195 362.418 61.7247 361.75C63.4839 361.219 63.3626 358.638 62.756 354.601C62.5588 353.417 62.21 352.066 62.1038 350.578Z" fill="#F6AA99"/>
<path d="M41.6908 364.998H38.7941C38.5211 364.998 38.9154 364.103 39.9315 363.997C41.2964 363.86 41.9789 364.786 41.6908 364.998Z" fill="#FFC5BB"/>
<path d="M36.0484 364.998H33.1517C32.8636 364.998 33.2731 364.103 34.274 363.997C35.6389 363.86 36.3214 364.786 36.0484 364.998Z" fill="#FFC5BB"/>
<path d="M31.0142 364.999H28.1176C27.8294 364.999 28.2389 364.255 29.2398 364.179C30.5744 364.058 31.2872 364.817 31.0142 364.999Z" fill="#FFC5BB"/>
<path d="M26.3125 364.999H23.6736C23.4158 364.999 23.7798 364.255 24.6897 364.179C26.0243 364.058 26.5703 364.817 26.3125 364.999Z" fill="#FFC5BB"/>
<path d="M61.724 361.796C59.4188 362.464 56.6587 361.538 55.127 362.661C58.2966 359.291 58.4482 355.33 62.7098 354.646C63.3619 358.684 63.4832 361.265 61.724 361.796Z" fill="#F3877C"/>
<path d="M48.7731 357.227C49.0541 357.19 49.3396 357.244 49.588 357.38C49.8365 357.517 50.0351 357.729 50.1551 357.986C50.275 358.243 50.3101 358.531 50.2552 358.81C50.2003 359.088 50.0583 359.342 49.8498 359.534L49.7133 359.64C47.8607 360.956 46.1161 362.418 44.4963 364.012C43.9988 364.635 43.7121 365.4 43.6774 366.197H41.812C41.8717 365.54 42.0891 364.908 42.4455 364.353C42.8019 363.798 43.287 363.337 43.8594 363.01C45.3759 361.932 49.0612 359.519 49.5313 358.456C49.8347 357.758 48.7882 357.287 48.7882 357.287L48.7731 357.227Z" fill="#EE6066"/>
<path d="M46.1797 364.361H51.0782C51.1919 364.17 51.2525 363.953 51.2538 363.731C51.2551 363.509 51.1971 363.29 51.0857 363.098C50.9743 362.906 50.8136 362.748 50.6203 362.639C50.427 362.53 50.2081 362.475 49.9863 362.479C48.1664 362.206 46.4072 363.116 46.1797 364.361Z" fill="#FFC5BB"/>
<path d="M45.7392 358.426C45.7392 358.426 45.7392 359.853 42.4482 361.841C39.9611 363.359 37.7165 364.877 37.3829 366.198H35.29C36.1848 364.909 37.3299 363.815 38.6568 362.98C41.2805 361.234 44.7383 360.095 45.7392 358.426Z" fill="#EE6066"/>
<path d="M38.5509 360.171C37.7774 360.885 34.4865 363.207 33.2277 364.194C32.5777 364.705 32.101 365.405 31.8628 366.198H30.5737C31.15 363.738 35.0021 362.069 38.5509 360.171Z" fill="#EE6066"/>
<path d="M33.8345 360.171C33.0763 360.885 29.7701 363.207 28.5266 364.194C27.8792 364.711 27.3991 365.408 27.1465 366.198H25.8726C26.4337 363.738 30.2858 362.069 33.8345 360.171Z" fill="#EE6066"/>
<path d="M54.3233 179.463C53.7015 183.577 47.8324 189.603 40.5528 190.225C37.8485 190.501 35.1301 189.859 32.8335 188.404C32.8335 175.426 34.1529 163.313 38.1415 154.145C41.9177 154.676 46.3461 155.86 48.6361 158.395C52.8977 163.222 54.9602 175.365 54.3233 179.463Z" fill="#F3877C"/>
<path d="M43.8594 240.969C42.2367 242.988 45.5276 256.65 50.0167 255.602C55.1275 254.752 59.1161 243.656 57.0839 241.136C55.4005 238.966 46.4072 237.782 43.8594 240.969Z" fill="#F3877C"/>
<path d="M38.6421 135.444L107.722 135.762L111.68 158.531C111.68 158.531 87.6879 163.996 76.2075 180.192H71.218C71.218 180.192 56.7196 160.838 36.3369 160.064C37.3833 141.105 38.6421 135.444 38.6421 135.444Z" fill="#213555"/>
<path d="M95.2251 56.6182C95.2251 56.6182 108.04 60.4737 113.682 68.0329C119.323 75.5921 142.633 101.245 145.196 119.839C144.559 130.101 126.497 156.892 116.624 169.202C107.145 161.901 106.508 161.506 106.508 161.506L120.976 119.581C109.193 100.091 104.097 92.1678 104.097 92.1678C104.097 92.1678 95.483 88.2971 93.5721 81.5424C91.6612 74.7876 92.7531 57.1343 95.2251 56.6182Z" fill="#F6AA99"/>
<path d="M109.087 159.412C105.59 160.093 102.167 161.109 98.8655 162.447C96.9698 163.571 95.2106 170.447 94.4826 171.449C93.7547 172.451 91.95 173.771 92.132 174.591C92.3139 175.41 94.2703 175.426 95.893 174.318C97.5158 173.209 110.71 164.36 109.087 159.412Z" fill="#EE6066"/>
<path d="M92.7531 180.693C93.2839 181.406 93.7085 181.862 95.0734 180.298C95.9227 179.327 97.8336 175.745 99.4867 173.058C100.103 172.068 101.001 171.286 102.065 170.811C102.143 170.772 102.232 170.761 102.318 170.778C102.403 170.795 102.481 170.84 102.538 170.906C102.595 170.972 102.629 171.055 102.634 171.142C102.639 171.23 102.615 171.316 102.565 171.388C100.321 175.198 96.8175 181.831 96.9692 182.287C97.227 183 98.3796 183.122 99.335 182.196C99.9113 181.649 102.929 177.642 104.901 174.97C104.98 174.862 105.093 174.781 105.222 174.742C105.351 174.703 105.489 174.707 105.616 174.753C105.742 174.799 105.851 174.886 105.924 174.999C105.998 175.112 106.032 175.246 106.023 175.38C106.036 175.496 106.036 175.613 106.023 175.729C105.72 176.989 100.897 185.368 101.61 186.021C103.809 188.055 107.054 181.664 108.465 179.357C108.973 178.188 109.74 177.15 110.709 176.321C110.775 176.264 110.86 176.232 110.947 176.232C111.035 176.231 111.119 176.263 111.186 176.32C111.252 176.377 111.296 176.456 111.308 176.543C111.321 176.63 111.302 176.718 111.255 176.792C109.557 180.192 105.856 185.99 106.478 186.507C107.661 187.463 109.511 185.52 111.953 182.044C114.311 178.611 116.246 174.906 117.716 171.009C118.377 169.265 118.415 167.347 117.823 165.579C117.232 163.811 116.047 162.302 114.47 161.309C112.83 160.295 110.996 159.633 109.087 159.366C103.688 159.655 98.4706 166.607 97.8336 167.882C96.2412 170.993 92.3436 179.524 92.7531 180.693Z" fill="#F6AA99"/>
<path d="M49.9709 55.981C49.9709 55.981 37.1559 59.8365 31.5143 67.3957C25.8726 74.9549 2.563 100.608 0 119.202C0.636959 129.463 18.6993 156.255 28.5721 168.565C38.0507 161.264 38.6876 160.869 38.6876 160.869L24.2196 118.944C36.0033 99.4541 41.099 91.5306 41.099 91.5306C41.099 91.5306 49.7131 87.6599 51.624 80.9052C53.5349 74.1504 52.3974 56.497 49.9709 55.981Z" fill="#F6AA99"/>
<path d="M36.1092 159.351C39.6059 160.032 43.0289 161.049 46.3308 162.387C50.2284 164.694 47.9687 167.684 50.7137 171.388C51.4568 172.375 53.2464 173.71 53.0644 174.53C52.8824 175.35 50.926 175.365 49.3033 174.257C47.6806 173.149 34.4864 164.284 36.1092 159.351Z" fill="#EE6066"/>
<path d="M52.4728 180.632C51.942 181.346 51.5174 181.801 50.1525 180.237C49.3032 179.266 47.3923 175.684 45.7393 172.997C45.1058 172.025 44.1978 171.264 43.1308 170.811C43.0526 170.772 42.9637 170.76 42.8781 170.778C42.7925 170.795 42.7149 170.84 42.6577 170.906C42.6004 170.972 42.5667 171.055 42.5617 171.142C42.5568 171.229 42.5809 171.316 42.6303 171.388C44.8748 175.183 48.3781 181.831 48.2264 182.287C47.9686 183 46.816 183.121 45.8606 182.196C45.2843 181.649 42.2663 177.642 40.2948 174.955C40.2147 174.845 40.1005 174.763 39.9697 174.724C39.839 174.685 39.699 174.69 39.5714 174.738C39.4438 174.787 39.3356 174.876 39.2635 174.992C39.1914 175.108 39.1595 175.244 39.1725 175.38C39.1591 175.496 39.1591 175.613 39.1725 175.729C39.4758 176.989 44.2985 185.368 43.5858 186.021C41.3867 188.055 38.1413 181.664 36.7309 179.357C36.0599 177.889 35.1531 176.54 34.0465 175.365C33.9781 175.324 33.8985 175.305 33.8189 175.312C33.7393 175.318 33.6638 175.35 33.6033 175.402C33.5428 175.454 33.5002 175.524 33.4818 175.602C33.4633 175.68 33.4699 175.762 33.5006 175.835C35.2143 179.236 39.3394 185.93 38.7176 186.461C37.5346 187.417 35.6844 185.474 33.2428 181.998C30.8845 178.566 28.9494 174.86 27.4798 170.963C26.8208 169.217 26.7837 167.297 27.375 165.527C27.9663 163.758 29.1496 162.246 30.7252 161.248C32.3697 160.245 34.2019 159.589 36.1091 159.321C38.8541 158.668 46.725 166.561 47.362 167.836C48.9544 170.933 52.852 179.463 52.4728 180.632Z" fill="#F6AA99"/>
<path d="M93.0868 80.4038C93.0868 80.4038 77.9211 88.9952 72.7496 89.147C67.5781 89.2987 52.4883 81.9065 52.4883 81.9065C52.4883 81.9065 52.8826 69.581 54.7025 54.4777C58.5242 52.9598 62.8161 50.8954 64.1659 49.2257C64.8483 48.3605 65.1365 45.6586 65.2426 43.1541C65.3488 40.6495 65.2426 38.7217 65.2426 38.7217L81.0604 38.1753C81.0604 38.1753 80.9694 41.0897 81.1969 44.0952C81.3789 46.6149 81.7884 49.1954 82.7135 50.1668C84.6244 52.3071 91.6157 54.7206 91.6157 54.7206L93.0868 80.4038Z" fill="#F6AA99"/>
<path d="M74.5542 87.2198C74.4752 82.9467 74.1257 78.6829 73.5077 74.4541C72.8795 78.6788 72.6157 82.9498 72.7191 87.2198H74.5542Z" fill="#EE6066"/>
<path d="M81.2273 44.1711C78.998 46.3721 76.1316 48.5427 73.4928 48.5427C69.7924 48.5427 66.7441 45.2488 65.2427 43.23C65.3337 40.8924 65.2427 38.7977 65.2427 38.7977L81.0605 38.2512C81.0605 38.2512 80.9998 41.1656 81.2273 44.1711Z" fill="#EE6066"/>
<path d="M60.147 56.846C64.3166 58.2015 68.6561 58.9628 73.0378 59.1077C77.4857 58.8936 81.8789 58.0346 86.0803 56.5576L60.147 56.846Z" fill="#F3877C"/>
<path d="M56.9627 52.6411V57.1949C56.8789 62.32 58.1699 67.3738 60.7012 71.8297C63.2326 76.2855 66.9116 79.9803 71.355 82.5289C72.0374 82.9084 72.6592 83.303 73.2203 83.6673C73.3287 83.7379 73.4551 83.7754 73.5843 83.7754C73.7135 83.7754 73.84 83.7379 73.9483 83.6673C78.3767 81.073 82.0259 77.3336 84.5129 72.8413C86.9998 68.349 88.2329 63.2696 88.0827 58.136L87.9159 52.7018L96.3935 56.2689C96.3935 56.2689 95.6655 80.6619 104.173 92.0918L106.646 112.219H39.9165L41.1298 91.9704C41.1298 91.9704 48.106 84.6388 48.5154 56.0716C52.4585 54.8269 56.9627 52.6411 56.9627 52.6411Z" fill="#213555"/>
<path d="M61.4815 26.8368C61.3147 26.7154 59.0247 21.9188 56.3555 21.7973C53.6864 21.6759 54.0655 25.7591 54.566 26.9127C55.0665 28.0663 56.0826 31.345 59.0247 32.2102C60.2219 32.1234 61.3401 31.5801 62.1488 30.6923L61.4815 26.8368Z" fill="#F6AA99"/>
<path d="M55.7642 26.2752C55.7642 26.1234 54.7633 23.71 56.204 23.3305C57.6448 22.951 60.0713 26.5029 61.2239 27.6869C60.1926 27.6869 58.8125 27.3378 58.8429 28.3244C58.8732 29.3111 60.4504 30.4192 61.876 30.3584C60.5111 31.0111 59.9651 31.4513 58.9642 31.2085C57.9633 30.9656 56.932 29.387 56.932 29.387C57.2803 29.8085 57.7311 30.1333 58.241 30.33C58.751 30.5267 59.3029 30.5888 59.8438 30.5102C58.2211 29.6602 56.9927 27.7476 58.1452 27.2467C58.4835 27.1035 58.8471 27.0297 59.2144 27.0297C59.5817 27.0297 59.9453 27.1035 60.2836 27.2467C60.2836 27.2467 58.4334 24.9243 57.2505 24.6511C56.0675 24.3778 55.7642 26.2752 55.7642 26.2752Z" fill="#F3877C"/>
<path d="M58.3276 26.4874C58.3276 26.4874 57.3418 26.4874 57.1295 27.0339C57.0244 27.3673 56.9943 27.7199 57.0415 28.0663C57.0887 28.4128 57.212 28.7444 57.4024 29.0375C55.8707 27.7018 55.9314 25.6829 58.3276 26.4874Z" fill="#F3877C"/>
<path d="M85.5042 26.8368C85.671 26.7154 87.961 21.9188 90.6302 21.7973C93.2994 21.6759 92.9202 25.7591 92.4198 26.9127C91.9193 28.0663 90.9032 31.345 87.961 32.2102C86.7639 32.1234 85.6456 31.5801 84.8369 30.6923L85.5042 26.8368Z" fill="#F6AA99"/>
<path d="M91.2368 26.2752C91.2368 26.1234 92.2377 23.71 90.797 23.3305C89.3562 22.951 86.9449 26.5029 85.7771 27.6869C86.8236 27.6869 88.2036 27.3378 88.1581 28.3244C88.1126 29.3111 86.6416 30.4192 85.125 30.3584C86.5051 31.0111 87.0359 31.4513 88.0368 31.2085C89.0377 30.9656 90.0842 29.387 90.0842 29.387C89.7335 29.8098 89.2801 30.1352 88.7675 30.3319C88.2549 30.5286 87.7004 30.59 87.1572 30.5102C88.7951 29.6602 90.0235 27.7476 88.8558 27.2467C88.5172 27.1043 88.1538 27.031 87.7866 27.031C87.4194 27.031 87.0559 27.1043 86.7174 27.2467C86.7174 27.2467 88.5676 24.9243 89.7505 24.6511C90.9334 24.3778 91.2368 26.2752 91.2368 26.2752Z" fill="#F3877C"/>
<path d="M88.6431 26.4874C88.6431 26.4874 89.6288 26.4874 89.8412 27.0339C89.9495 27.3668 89.9813 27.72 89.934 28.067C89.8867 28.414 89.7617 28.7458 89.5682 29.0375C91.0999 27.7018 91.0392 25.6829 88.6431 26.4874Z" fill="#F3877C"/>
<path d="M60.0562 22.2528C60.0562 22.2528 60.1623 30.8594 61.5727 35.0033C62.8315 38.9044 66.7442 42.5929 72.3404 44.2171C73.0591 44.4217 73.8206 44.4217 74.5394 44.2171C76.843 43.603 78.9857 42.4949 80.8188 40.9694C82.6519 39.4439 84.1316 37.5377 85.1554 35.3828C86.308 31.0629 86.9243 26.6173 86.9904 22.1466C84.8672 18.7616 78.1185 16.5455 77.7393 13.0391C75.2977 15.8927 60.3443 16.2722 60.0562 22.2528Z" fill="#F6AA99"/>
<path d="M75.4038 24.135C76.7331 23.6144 78.1025 23.2032 79.4985 22.9055C80.9296 22.6898 82.3737 22.5732 83.8208 22.5564C82.6642 21.9769 81.3975 21.6509 80.1052 21.6001C78.6907 21.5785 77.2869 21.8471 75.9801 22.3894C75.7261 22.9489 75.5329 23.5342 75.4038 24.135Z" fill="#321E41"/>
<path d="M76.2676 25.9258C76.846 25.2513 77.6199 24.7739 78.4818 24.5596C79.6768 24.2673 80.9135 24.1851 82.1367 24.3168C81.1754 23.9297 80.1341 23.7838 79.1036 23.8917C78.4849 23.9197 77.8876 24.1268 77.3842 24.4879C76.8809 24.8489 76.4929 25.3484 76.2676 25.9258Z" fill="#F3877C"/>
<path d="M76.1772 28.3392C76.4699 28.3592 76.7597 28.41 77.0417 28.491C78.1216 28.8659 79.2891 28.9082 80.3933 28.6125C81.0414 28.3786 81.6336 28.0122 82.1323 27.5365C82.6311 27.0609 83.0253 26.4864 83.29 25.8499C80.0597 26.6088 76.6929 27.5803 76.1772 28.3392Z" fill="#F3877C"/>
<path d="M83.29 25.8499C82.4088 26.9648 81.1902 27.7637 79.817 28.1268C78.9179 28.2709 78.0015 28.2709 77.1024 28.1268C76.8109 28.102 76.518 28.1544 76.2531 28.2786H76.1772C76.2 27.9686 76.2611 27.6627 76.3592 27.3679C76.5303 26.7934 76.8433 26.2714 77.2692 25.8499C77.6494 25.5038 78.1071 25.2539 78.6038 25.1213C79.5455 24.8922 80.5283 24.8922 81.4701 25.1213C82.1056 25.2844 82.7174 25.5293 83.29 25.8499Z" fill="white"/>
<path d="M79.9685 27.6865C79.6796 27.7559 79.3797 27.7667 79.0865 27.7184C78.7933 27.6702 78.5127 27.5637 78.2612 27.4053C78.0097 27.2469 77.7923 27.0398 77.622 26.7961C77.4516 26.5525 77.3316 26.2772 77.269 25.9864C77.6493 25.6403 78.107 25.3904 78.6036 25.2578C79.5453 25.0286 80.5282 25.0286 81.4699 25.2578C81.5768 25.778 81.4808 26.3193 81.2017 26.7709C80.9225 27.2225 80.4813 27.5501 79.9685 27.6865Z" fill="#321E41"/>
<path d="M79.0132 24.8028C78.2133 24.9896 77.499 25.4397 76.9849 26.0809C76.4707 26.7221 76.1863 27.5174 76.1772 28.3396C76.3506 27.6185 76.7295 26.9635 77.268 26.4542C77.8066 25.9448 78.4814 25.6031 79.2104 25.4707C80.585 25.144 82.0286 25.2773 83.3203 25.8502L84.2757 25.0153C82.5605 24.5448 80.7607 24.4722 79.0132 24.8028Z" fill="#321E41"/>
<path d="M82.1373 26.26C82.1373 25.8502 80.2415 25.8957 80.3022 26.26C80.3629 26.6243 82.1373 26.6092 82.1373 26.26Z" fill="white"/>
<path d="M71.2334 24.135C69.9088 23.6159 68.5445 23.2047 67.1538 22.9055C65.7177 22.6896 64.2685 22.573 62.8164 22.5564C63.9776 21.9749 65.2497 21.6488 66.5472 21.6001C67.9616 21.5785 69.3655 21.8471 70.6722 22.3894C70.9256 22.9478 71.1139 23.5335 71.2334 24.135Z" fill="#321E41"/>
<path d="M70.7939 28.6432C70.5012 28.6631 70.2114 28.714 69.9294 28.795C68.8493 29.169 67.6821 29.2113 66.5778 28.9164C65.9265 28.6852 65.3309 28.3199 64.8294 27.844C64.3278 27.3682 63.9315 26.7924 63.666 26.1538C66.9721 26.8521 70.2782 27.8842 70.7939 28.6432Z" fill="#F3877C"/>
<path d="M63.666 26.1535C64.5487 27.2636 65.7673 28.0572 67.139 28.4152C68.0382 28.558 68.9544 28.558 69.8536 28.4152C70.1488 28.3836 70.447 28.4308 70.7181 28.5518C70.6946 28.2455 70.6282 27.944 70.5209 27.6562C70.3523 27.0807 70.039 26.5581 69.611 26.1383C69.2347 25.7947 68.7826 25.5451 68.2916 25.4097C67.3436 25.1899 66.358 25.1899 65.4101 25.4097C64.8012 25.5872 64.2157 25.8369 63.666 26.1535Z" fill="white"/>
<path d="M66.9711 28.0056C67.2612 28.077 67.5627 28.089 67.8576 28.0407C68.1524 27.9924 68.4344 27.8848 68.6866 27.7246C68.9388 27.5643 69.156 27.3547 69.3251 27.1082C69.4942 26.8617 69.6117 26.5835 69.6706 26.2904C69.2944 25.9468 68.8423 25.6972 68.3512 25.5618C67.4033 25.342 66.4177 25.342 65.4697 25.5618C65.3697 26.0832 65.4683 26.6233 65.7462 27.0756C66.0241 27.5279 66.4611 27.8597 66.9711 28.0056Z" fill="#321E41"/>
<path d="M69.853 28.4609C70.1482 28.4293 70.4464 28.4765 70.7175 28.5975C70.694 28.2912 70.6276 27.9897 70.5203 27.7019C70.3626 28.0053 70.1336 28.2657 69.853 28.4609Z" fill="#EE6066"/>
<path d="M67.9568 25.0911C68.7568 25.2779 69.471 25.728 69.9852 26.3692C70.4994 27.0104 70.7837 27.8057 70.7928 28.6279C70.6195 27.9069 70.2405 27.2518 69.702 26.7425C69.1635 26.2331 68.4887 25.8915 67.7597 25.759C66.3843 25.4434 64.9442 25.5763 63.6498 26.1385L62.6943 25.3188C64.4082 24.8422 66.2083 24.7644 67.9568 25.0911Z" fill="#321E41"/>
<path d="M70.703 26.2295C70.1245 25.555 69.3506 25.0776 68.4888 24.8633C67.3169 24.5876 66.108 24.5056 64.9097 24.6205C65.871 24.2334 66.9123 24.0875 67.9428 24.1954C68.5467 24.2429 69.1253 24.4585 69.613 24.818C70.1008 25.1775 70.4784 25.6664 70.703 26.2295Z" fill="#F3877C"/>
<path d="M68.0933 27.2468C68.0933 26.8369 69.989 26.8673 69.9283 27.2468C69.8676 27.6263 68.1084 27.6566 68.0933 27.2468Z" fill="white"/>
<path d="M70.5815 30.6921C70.7029 30.7832 72.5834 32.3315 73.7663 32.3011C74.9493 32.2707 76.6933 30.5251 76.6933 30.5251C75.7551 30.9133 74.7793 31.2033 73.7815 31.3904C72.6941 31.2659 71.622 31.032 70.5815 30.6921Z" fill="#EE6066"/>
<path d="M69.0791 34.7149C70.6365 35.8354 72.5603 36.3236 74.4629 36.081C75.3435 35.9468 76.186 35.6288 76.9358 35.1477C77.6857 34.6665 78.3261 34.0329 78.8155 33.2881C75.867 34.9788 72.3881 35.4886 69.0791 34.7149Z" fill="#EE6066"/>
<path d="M72.0518 37.7051C72.8275 37.9417 73.6469 37.9988 74.4479 37.8721C75.1827 37.7461 75.8843 37.4724 76.5105 37.0676C76.3087 37.47 76.0133 37.818 75.6491 38.0822C75.2848 38.3463 74.8625 38.519 74.4176 38.5855C73.9816 38.6402 73.5388 38.5887 73.1269 38.4355C72.715 38.2822 72.3462 38.0317 72.0518 37.7051Z" fill="#F3877C"/>
<path d="M386.968 348.043L387.104 347.482C387.908 343.596 388.727 339.71 389.576 335.854L396.128 329.661L397.462 329.373L419.483 324.819L420.287 324.652L426.565 323.332L428.537 322.922L444.719 319.567L475.353 323.286L478.599 323.681L486.03 324.591L487.547 324.758L496.282 325.821L562.283 333.836L496.161 352.597L492.369 353.675L486.53 355.344L482.587 356.453L479.554 357.318L478.523 357.621L452.741 364.953H433.223C422.455 364.953 411.597 364.831 400.738 364.801L390.911 358.456L390.653 357.743C389.44 354.479 388.196 351.231 386.968 348.043Z" fill="#191919"/>
<path d="M386.968 348.043L387.104 347.482C387.908 343.596 388.727 339.71 389.576 335.854L396.128 329.661L397.462 329.373L419.483 324.819L420.287 324.652L426.565 323.332L428.203 322.998L476.915 328.917L479.403 329.221L480.919 329.403L486.212 330.056L490.11 330.511L496.176 331.24L534.985 335.961L495.22 347.269L493.962 347.618L486.03 349.925L484.134 350.457L479.736 351.686L479.418 351.792L433.238 364.938C422.471 364.938 411.612 364.816 400.753 364.786L390.926 358.441L390.668 357.728C389.44 354.479 388.196 351.231 386.968 348.043Z" fill="#474747"/>
<path d="M407.714 363.586C404.227 363.861 400.737 363.094 397.685 361.383C394.633 359.672 392.157 357.094 390.569 353.974C388.982 350.854 388.355 347.333 388.767 343.857C389.179 340.38 390.612 337.104 392.885 334.442C395.158 331.781 398.168 329.854 401.535 328.905C404.902 327.957 408.475 328.029 411.801 329.113C415.127 330.196 418.057 332.243 420.221 334.994C422.385 337.745 423.685 341.076 423.957 344.567C424.321 349.244 422.814 353.875 419.769 357.442C416.723 361.008 412.387 363.218 407.714 363.586Z" fill="#191919"/>
<path d="M405.409 266.774C379.165 266.774 353.987 277.17 335.377 295.691C316.767 314.213 306.237 339.354 306.089 365.621H313.05C313.303 341.307 323.116 318.073 340.364 300.95C357.612 283.827 380.906 274.196 405.199 274.142C429.492 274.088 452.829 283.616 470.152 300.662C487.476 317.708 497.392 340.899 497.753 365.211H504.714C504.458 339.018 493.883 313.984 475.288 295.551C456.693 277.119 431.58 266.777 405.409 266.774Z" fill="#A9ABAE"/>
<path d="M497.753 365.196H453.423H433.935H413.492H412.127H389.637H380.385H363.885L313.05 365.348C313.084 359.744 313.627 354.156 314.673 348.651C315.006 346.859 315.401 345.084 315.84 343.338C317.193 337.985 319.03 332.767 321.33 327.749C322.195 325.836 323.12 323.954 324.121 322.102C326.967 316.856 330.308 311.895 334.1 307.287C335.237 305.876 336.435 304.494 337.694 303.159C342.342 298.123 347.541 293.627 353.193 289.755C354.907 288.556 356.666 287.448 358.456 286.386C362.098 284.219 365.889 282.311 369.8 280.678C371.529 279.95 373.273 279.282 375.047 278.675C382.167 276.186 389.57 274.595 397.083 273.939C399.054 273.757 401.041 273.635 403.028 273.59H405.409C407.032 273.59 408.639 273.59 410.247 273.711C412.203 273.817 414.159 273.984 416.085 274.212C423.707 275.079 431.188 276.91 438.349 279.661C440.123 280.329 441.882 281.058 443.596 281.847C447.661 283.689 451.585 285.831 455.334 288.253C457.078 289.361 458.762 290.545 460.415 291.789C466.089 295.985 471.256 300.83 475.808 306.225C477.006 307.621 478.143 309.063 479.235 310.536C482.568 314.956 485.492 319.671 487.971 324.622C488.926 326.504 489.821 328.417 490.625 330.375C492.889 335.76 494.626 341.351 495.811 347.072C496.175 348.833 496.494 350.624 496.767 352.43C497.388 356.658 497.717 360.923 497.753 365.196Z" fill="white"/>
<path d="M356.227 312.357C360.24 311.734 364.298 311.434 368.359 311.461C374.061 311.461 377.565 312.038 380.583 313.784C382.088 314.545 383.349 315.714 384.223 317.158C385.097 318.602 385.549 320.262 385.527 321.95C385.527 325.593 383.388 329.024 378.732 330.754V330.921C381.066 331.401 383.161 332.675 384.662 334.527C386.163 336.378 386.978 338.692 386.967 341.076C386.977 342.774 386.593 344.452 385.846 345.977C385.098 347.502 384.008 348.833 382.66 349.865C379.627 352.309 374.638 353.629 366.388 353.629C363.011 353.661 359.636 353.459 356.287 353.022L356.227 312.357ZM365.493 328.219H368.526C373.485 328.219 376.109 326.155 376.109 323.073C376.109 319.992 373.728 318.277 369.497 318.277C368.171 318.235 366.844 318.332 365.538 318.565L365.493 328.219ZM365.493 346.54C366.68 346.69 367.876 346.745 369.072 346.707C373.318 346.707 377.064 345.068 377.064 340.636C377.064 336.203 373.318 334.898 368.769 334.898H365.569L365.493 346.54Z" fill="#17A37C"/>
<path d="M428.264 337.357C428.082 332.348 427.885 326.367 427.915 320.296H427.748C426.429 325.608 424.715 331.483 423.123 336.371L418.057 352.521H410.793L406.334 336.522C405 331.65 403.62 325.76 402.588 320.296H402.467C402.27 325.927 402.027 332.333 401.785 337.479L401.011 353.204H392.352L395.006 311.795H407.472L411.506 325.624C412.825 330.375 414.099 335.581 415.024 340.439H415.221C416.344 335.642 417.754 330.177 419.149 325.563L423.547 311.795H435.786L438 353.204H428.901L428.264 337.357Z" fill="#17A37C"/>
<path d="M454.591 311.795V353.204H445.234V311.795H454.591Z" fill="#17A37C"/>
</g>
<defs>
<clipPath id="clip0_223_1512">
<rect width="811" height="521.465" fill="white"/>
</clipPath>
</defs>
</svg>
