<svg width="830" height="534" viewBox="0 0 830 534" fill="none" xmlns="http://www.w3.org/2000/svg">
<g clip-path="url(#clip0_223_17)">
<path d="M641.118 208.222C606.104 160.422 556.895 124.918 500.518 106.779C444.142 88.6407 383.481 88.7953 327.197 107.221C270.913 125.647 221.886 161.401 187.115 209.379C152.345 257.356 133.61 315.103 133.585 374.374C133.585 374.374 209.029 374.048 304.628 373.737C305.522 345.218 317.453 318.162 337.903 298.282C358.352 278.402 385.72 267.254 414.228 267.192C442.736 267.129 470.153 278.157 490.689 297.948C511.226 317.738 523.275 344.741 524.293 373.256C620.42 373.256 687.956 374.358 695.352 374.358C695.454 314.605 676.449 256.387 641.118 208.222Z" fill="#6B6B6B"/>
<path d="M634.839 212.814C600.798 166.326 552.949 131.794 498.128 114.151C443.307 96.5072 384.318 96.655 329.585 114.573C274.853 132.491 227.178 167.262 193.37 213.92C159.562 260.578 141.351 316.736 141.337 374.373C141.337 374.373 214.703 374.047 307.651 373.753C308.256 345.838 319.742 319.267 339.658 299.716C359.573 280.164 386.338 269.183 414.234 269.118C442.13 269.053 468.945 279.91 488.951 299.369C508.957 318.827 520.567 345.345 521.301 373.256C614.699 373.256 681.77 374.327 687.631 374.327C687.707 316.23 669.208 259.633 634.839 212.814Z" fill="#E6E6E6"/>
<path d="M322.427 331.171C316.143 344.622 312.898 359.293 312.923 374.141H154.903C155.156 329.565 166.705 285.783 188.47 246.893L322.427 331.171Z" fill="#94E0CC"/>
<path d="M360.831 287.907C344.112 298.334 330.772 313.389 322.427 331.249L188.47 246.97C210.106 208.206 241.217 175.572 278.891 152.124L360.831 287.907Z" fill="#57D0AF"/>
<path d="M414.445 113.406V272.498C395.481 272.483 376.898 277.824 360.831 287.907L278.891 152.124C319.567 126.778 366.531 113.364 414.445 113.406Z" fill="#17A37C"/>
<path d="M549.518 151.751L467.609 287.519C451.625 277.668 433.216 272.466 414.445 272.498V113.406C462.159 113.343 508.942 126.624 549.518 151.751Z" fill="#FF9E7E"/>
<path d="M640.265 246.567L506.339 330.845C497.889 312.948 484.422 297.895 467.579 287.519L549.488 151.751C587.291 175.14 618.53 207.768 640.265 246.567Z" fill="#F0606C"/>
<path d="M674.002 374.141H515.998C516.015 359.172 512.716 344.385 506.339 330.845L640.265 246.567C662.135 285.541 673.745 329.441 674.002 374.141Z" fill="#E14E4E"/>
<path d="M178.196 357.83L178.656 352.23L181.241 352.437L181.057 354.679L183.506 354.875L183.679 352.777L186.136 352.973L185.964 355.072L188.804 355.299L189.007 352.834L191.592 353.041L191.114 358.864L178.196 357.83Z" fill="white"/>
<path d="M179.629 344.903L185.184 346.702L192.545 345.737L192.206 348.833C190.884 349.061 189.289 349.227 187.419 349.329C188.219 349.504 189.067 349.716 189.961 349.966L192.021 350.516L191.665 353.771L184.629 351.767L178.814 352.342L179.168 349.111C179.529 349.092 180.132 349.041 180.976 348.958C181.621 348.891 182.21 348.841 182.744 348.809L179.322 347.706L179.629 344.903Z" fill="white"/>
<path d="M179.611 337.946L182.166 338.282L181.893 340.252L192.107 341.594L191.647 344.912L181.433 343.569L181.16 345.531L178.605 345.195L179.611 337.946Z" fill="white"/>
<path d="M180.459 337.995L180.85 335.646C181.111 334.081 181.348 333.032 181.56 332.5C181.774 331.962 182.159 331.561 182.717 331.295C183.27 331.023 184.09 330.975 185.179 331.151C186.172 331.311 186.819 331.543 187.12 331.845C187.421 332.147 187.545 332.666 187.492 333.402C187.765 332.772 188.056 332.366 188.367 332.184C188.678 332.003 188.954 331.904 189.194 331.889C189.43 331.868 190.063 331.941 191.093 332.107L194.461 332.652L193.948 335.734L189.705 335.047C189.021 334.937 188.589 334.923 188.408 335.007C188.227 335.086 188.099 335.354 188.023 335.811L193.78 336.742L193.228 340.06L180.459 337.995ZM183.196 335.03L186.035 335.489C186.097 335.116 186.091 334.848 186.015 334.685C185.936 334.516 185.614 334.385 185.052 334.294L184.35 334.181C183.945 334.115 183.667 334.146 183.517 334.273C183.367 334.394 183.26 334.647 183.196 335.03Z" fill="white"/>
<path d="M181.81 330.02L182.956 324.516L185.498 325.035L185.039 327.239L187.448 327.731L187.878 325.669L190.294 326.162L189.865 328.224L192.659 328.795L193.163 326.372L195.705 326.891L194.514 332.615L181.81 330.02Z" fill="white"/>
<path d="M185.191 314.007L197.802 316.841L197.157 319.707L188.643 317.794L196.899 320.852L196.441 322.885L187.851 322.223L196.17 324.092L195.524 326.958L182.913 324.125L183.869 319.88C184.655 319.926 185.578 319.994 186.638 320.085L189.949 320.354L184.228 318.283L185.191 314.007Z" fill="white"/>
<path d="M186.097 310.693L196.127 313.28L196.629 311.295L199.139 311.943L197.809 317.192L185.27 313.957L186.097 310.693Z" fill="white"/>
<path d="M188.536 302.65L195.777 307.226L200.265 308.49L199.413 311.473L194.925 310.21L186.367 310.248L187.212 307.287C189.76 307.503 191.46 307.7 192.314 307.88C191.042 307.329 189.501 306.573 187.691 305.611L188.536 302.65Z" fill="white"/>
<path d="M193.127 288.339L204.908 293.753L203.585 297.726C201.583 297.474 199.337 297.095 196.849 296.589C197.831 297.05 199.872 298.043 202.971 299.569L201.656 303.519L188.931 300.938L189.96 297.848L194.344 298.92L198.579 299.935C196.483 299.122 193.781 297.916 190.471 296.315L191.572 293.007C191.946 293.079 193.331 293.403 195.729 293.979L200.499 295.152C197.596 294.009 194.796 292.767 192.098 291.429L193.127 288.339Z" fill="white"/>
<path d="M192.801 288.962L194.715 283.674L197.148 284.58L196.381 286.697L198.686 287.556L199.403 285.575L201.716 286.437L200.998 288.418L203.671 289.414L204.514 287.086L206.946 287.993L204.955 293.492L192.801 288.962Z" fill="white"/>
<path d="M197.121 277.915L209.85 280.911L208.58 284.112L206.358 283.408L205.913 284.529L208 285.575L206.715 288.814L195.326 282.438L197.121 277.915ZM204.192 282.649C202.768 282.265 201.025 281.754 198.963 281.117C201.133 282.348 202.735 283.215 203.768 283.718L204.192 282.649Z" fill="white"/>
<path d="M200.925 269.007L205.517 273.106L212.861 274.001L211.481 277.192L205.856 276.226L210.942 278.439L209.606 281.527L197.743 276.364L199.078 273.276L203.688 275.282L199.672 271.905L200.925 269.007Z" fill="white"/>
<path d="M243.842 214.115L252.891 223.452L250.259 226.716C248.486 225.758 246.531 224.593 244.394 223.221C245.145 224.008 246.694 225.678 249.039 228.23L246.422 231.475L235.497 224.465L237.543 221.927L241.243 224.514L244.824 226.993C243.161 225.474 241.073 223.366 238.559 220.668L240.75 217.95C241.072 218.152 242.247 218.955 244.274 220.361L248.296 223.182C246 221.061 243.833 218.884 241.796 216.653L243.842 214.115Z" fill="white"/>
<path d="M243.399 214.773L247.078 210.554L249.017 212.262L247.544 213.951L249.382 215.569L250.76 213.988L252.603 215.611L251.225 217.192L253.355 219.069L254.974 217.211L256.913 218.919L253.088 223.307L243.399 214.773Z" fill="white"/>
<path d="M251.406 205.859L262.19 213.277L259.848 215.809L258.031 214.344L257.21 215.231L258.777 216.966L256.408 219.527L248.097 209.436L251.406 205.859ZM256.286 212.849C255.097 211.974 253.657 210.864 251.965 209.52C253.543 211.458 254.723 212.85 255.504 213.695L256.286 212.849Z" fill="white"/>
<path d="M257.941 199.089L260.824 204.525L267.413 207.919L265.002 210.427L260.054 207.565L264.059 211.407L261.726 213.834L252.382 204.871L254.715 202.444L258.346 205.926L255.752 201.366L257.941 199.089Z" fill="white"/>
<path d="M334.874 149.199L339.786 161.23L337.048 162.358L333.19 157.559L335.422 163.028L332.81 164.104L327.899 152.074L330.511 150.997L334.474 155.693L332.262 150.276L334.874 149.199Z" fill="white"/>
<path d="M345.182 153.66C345.636 154.882 345.928 155.759 346.058 156.291C346.191 156.817 346.182 157.345 346.032 157.877C345.887 158.407 345.598 158.878 345.165 159.291C344.731 159.703 344.171 160.035 343.483 160.284C342.83 160.521 342.204 160.629 341.603 160.608C341.006 160.58 340.47 160.411 339.995 160.1C339.521 159.789 339.16 159.394 338.914 158.916C338.667 158.437 338.311 157.572 337.846 156.32L337.072 154.24C336.618 153.019 336.324 152.146 336.191 151.62C336.061 151.087 336.069 150.556 336.214 150.027C336.364 149.495 336.655 149.023 337.089 148.61C337.522 148.197 338.083 147.866 338.771 147.617C339.423 147.38 340.048 147.275 340.646 147.303C341.246 147.324 341.783 147.49 342.258 147.801C342.733 148.111 343.093 148.506 343.34 148.985C343.586 149.464 343.942 150.329 344.408 151.58L345.182 153.66ZM340.525 150.815C340.314 150.25 340.148 149.901 340.025 149.77C339.905 149.631 339.747 149.598 339.551 149.669C339.385 149.729 339.281 149.84 339.24 150.003C339.201 150.159 339.298 150.55 339.53 151.176L341.642 156.853C341.905 157.558 342.094 157.984 342.211 158.129C342.333 158.272 342.499 158.306 342.71 158.229C342.926 158.151 343.029 158.006 343.018 157.794C343.008 157.582 342.869 157.118 342.603 156.402L340.525 150.815Z" fill="white"/>
<path d="M342.85 146.458L345.104 145.706C346.607 145.205 347.642 144.924 348.211 144.863C348.784 144.801 349.318 144.953 349.812 145.321C350.309 145.682 350.733 146.383 351.084 147.426C351.405 148.378 351.501 149.058 351.375 149.464C351.248 149.871 350.848 150.223 350.174 150.52C350.857 150.466 351.351 150.534 351.656 150.724C351.961 150.913 352.176 151.111 352.301 151.315C352.429 151.514 352.659 152.106 352.992 153.094L354.078 156.321L351.12 157.307L349.752 153.242C349.532 152.587 349.342 152.199 349.184 152.078C349.03 151.955 348.734 151.967 348.296 152.114L350.152 157.63L346.968 158.693L342.85 146.458ZM346.739 147.489L347.655 150.209C348.013 150.09 348.246 149.959 348.355 149.816C348.467 149.666 348.433 149.322 348.251 148.783L348.025 148.111C347.895 147.723 347.738 147.492 347.557 147.418C347.38 147.343 347.107 147.366 346.739 147.489Z" fill="white"/>
<path d="M360.269 140.948L364.009 153.338L361.191 154.184L358.666 145.82L360.065 154.522L358.067 155.122L354.414 147.305L356.88 155.479L354.063 156.325L350.323 143.934L354.496 142.681C354.843 143.39 355.238 144.228 355.681 145.197L357.077 148.217L356.066 142.21L360.269 140.948Z" fill="white"/>
<path d="M366.027 139.431L371.127 151.493L367.791 152.387L367.048 150.172L365.879 150.485L366.267 152.795L362.892 153.699L361.314 140.693L366.027 139.431ZM366.381 147.97C365.85 146.592 365.233 144.88 364.529 142.835C364.817 145.323 365.063 147.135 365.267 148.269L366.381 147.97Z" fill="white"/>
<path d="M370.793 138.497L373.171 148.535L375.154 148.06L375.749 150.571L370.505 151.828L367.532 139.278L370.793 138.497Z" fill="white"/>
<path d="M447.814 145.308C447.684 146.605 447.56 147.522 447.442 148.059C447.33 148.59 447.089 149.064 446.72 149.479C446.356 149.895 445.888 150.197 445.317 150.383C444.745 150.57 444.094 150.628 443.366 150.558C442.674 150.492 442.063 150.321 441.532 150.044C441.007 149.763 440.599 149.38 440.309 148.896C440.019 148.412 439.869 147.901 439.858 147.363C439.847 146.825 439.908 145.891 440.041 144.562L440.262 142.352C440.392 141.055 440.513 140.14 440.625 139.609C440.743 139.073 440.984 138.596 441.348 138.18C441.717 137.765 442.187 137.464 442.759 137.277C443.331 137.09 443.981 137.032 444.71 137.102C445.402 137.168 446.01 137.342 446.535 137.623C447.066 137.9 447.476 138.28 447.766 138.764C448.056 139.248 448.207 139.759 448.217 140.297C448.228 140.835 448.167 141.769 448.034 143.098L447.814 145.308ZM444.878 140.742C444.938 140.141 444.942 139.755 444.889 139.583C444.842 139.407 444.715 139.309 444.508 139.289C444.332 139.272 444.189 139.328 444.08 139.457C443.976 139.582 443.891 139.976 443.825 140.641L443.222 146.671C443.147 147.421 443.13 147.886 443.171 148.068C443.218 148.249 443.353 148.351 443.576 148.372C443.805 148.394 443.961 148.307 444.045 148.111C444.129 147.915 444.209 147.437 444.285 146.677L444.878 140.742Z" fill="white"/>
<path d="M456.799 138.921L453.414 151.557L448.339 150.931L448.094 137.847L451.621 138.282C451.564 141.871 451.463 144.898 451.317 147.363C451.816 144.915 452.286 142.742 452.729 140.846L453.273 138.486L456.799 138.921Z" fill="white"/>
<path d="M456.312 138.909L461.845 139.755L461.459 142.31L459.244 141.971L458.877 144.391L460.95 144.708L460.583 147.137L458.51 146.82L458.085 149.627L460.52 149.999L460.134 152.554L454.379 151.674L456.312 138.909Z" fill="white"/>
<path d="M462.416 139.969L464.754 140.392C466.312 140.673 467.355 140.924 467.882 141.143C468.415 141.364 468.808 141.753 469.062 142.312C469.322 142.867 469.353 143.686 469.154 144.768C468.973 145.756 468.728 146.398 468.42 146.693C468.112 146.988 467.591 147.105 466.856 147.042C467.48 147.323 467.88 147.619 468.055 147.931C468.23 148.244 468.323 148.52 468.333 148.759C468.349 148.995 468.263 149.624 468.075 150.649L467.461 153.998L464.393 153.443L465.167 149.224C465.292 148.545 465.314 148.114 465.234 147.932C465.159 147.751 464.894 147.619 464.439 147.537L463.389 153.262L460.086 152.665L462.416 139.969ZM465.32 142.738L464.802 145.561C465.173 145.628 465.441 145.625 465.606 145.552C465.777 145.475 465.914 145.157 466.016 144.598L466.144 143.9C466.218 143.497 466.193 143.22 466.07 143.068C465.952 142.917 465.702 142.807 465.32 142.738Z" fill="white"/>
<path d="M482.492 144.022L478.334 156.319L474.242 155.396C474.283 153.373 474.426 151.094 474.67 148.561C474.314 149.587 473.539 151.723 472.343 154.968L468.275 154.051L469.515 141.095L472.697 141.813L472.088 146.294L471.521 150.622C472.111 148.449 473.029 145.632 474.276 142.169L477.684 142.938C477.652 143.317 477.474 144.732 477.15 147.183L476.481 152.059C477.316 149.049 478.259 146.13 479.31 143.304L482.492 144.022Z" fill="white"/>
<path d="M481.77 143.845L487.212 145.226L486.566 147.735L484.388 147.183L483.775 149.56L485.814 150.078L485.2 152.464L483.161 151.946L482.451 154.704L484.847 155.311L484.2 157.821L478.541 156.385L481.77 143.845Z" fill="white"/>
<path d="M490.796 146.445L487.312 158.846L484.091 157.925L487.576 145.524L490.796 146.445Z" fill="white"/>
<path d="M497.749 153.275L494.526 152.307L494.865 151.182C495.079 150.473 495.182 150.02 495.175 149.823C495.168 149.626 495.049 149.493 494.82 149.424C494.62 149.364 494.462 149.4 494.344 149.532C494.227 149.663 494.073 150.045 493.882 150.678L492.087 156.624C491.919 157.18 491.844 157.559 491.861 157.759C491.881 157.953 491.997 158.083 492.212 158.148C492.446 158.218 492.635 158.166 492.776 157.992C492.923 157.819 493.084 157.444 493.258 156.867L493.701 155.398L493.05 155.203L493.619 153.32L497.393 154.453L495.386 161.104L493.357 160.495L493.326 159.517C492.991 159.834 492.626 160.039 492.231 160.131C491.842 160.221 491.421 160.197 490.966 160.061C490.425 159.898 489.957 159.615 489.56 159.213C489.171 158.806 488.912 158.373 488.784 157.911C488.656 157.45 488.626 156.998 488.692 156.557C488.76 156.11 488.923 155.46 489.18 154.608L490.291 150.927C490.648 149.743 490.972 148.903 491.261 148.405C491.55 147.908 492.063 147.528 492.799 147.265C493.542 146.998 494.393 147.009 495.353 147.297C496.297 147.581 497.022 148.01 497.528 148.584C498.034 149.159 498.3 149.743 498.327 150.335C498.356 150.922 498.217 151.724 497.911 152.739L497.749 153.275Z" fill="white"/>
<path d="M506.787 151.358L502.67 163.592L499.485 162.53L501.215 157.391L500.262 157.073L498.532 162.212L495.348 161.15L499.466 148.915L502.65 149.978L501.177 154.353L502.13 154.671L503.603 150.296L506.787 151.358Z" fill="white"/>
<path d="M513.549 153.791L512.644 156.224L510.761 155.541L507.144 165.265L503.973 164.115L507.59 154.391L505.715 153.711L506.62 151.278L513.549 153.791Z" fill="white"/>
<path d="M571.108 200.88C570.252 201.854 569.62 202.523 569.214 202.889C568.816 203.253 568.347 203.497 567.808 203.619C567.273 203.744 566.72 203.717 566.15 203.536C565.579 203.356 565.02 203.026 564.471 202.547C563.951 202.092 563.556 201.599 563.287 201.068C563.026 200.536 562.918 199.99 562.964 199.43C563.01 198.871 563.185 198.37 563.488 197.929C563.791 197.488 564.381 196.768 565.259 195.77L566.717 194.111C567.574 193.137 568.201 192.467 568.6 192.103C569.006 191.737 569.476 191.492 570.012 191.366C570.551 191.244 571.105 191.274 571.676 191.454C572.246 191.635 572.806 191.965 573.354 192.444C573.875 192.898 574.266 193.392 574.527 193.924C574.796 194.455 574.907 195.001 574.861 195.56C574.815 196.12 574.641 196.62 574.338 197.062C574.035 197.503 573.444 198.223 572.567 199.221L571.108 200.88ZM571.381 195.485C571.778 195.034 572.004 194.724 572.061 194.554C572.125 194.385 572.079 194.232 571.923 194.095C571.791 193.98 571.643 193.942 571.48 193.983C571.324 194.024 571.027 194.293 570.588 194.792L566.608 199.32C566.113 199.883 565.829 200.249 565.757 200.42C565.69 200.593 565.74 200.754 565.908 200.901C566.08 201.051 566.257 201.071 566.438 200.962C566.62 200.852 566.962 200.512 567.463 199.941L571.381 195.485Z" fill="white"/>
<path d="M576.342 195.427L578.807 197.711C579.586 198.433 580.118 199.039 580.405 199.53C580.695 200.024 580.791 200.571 580.692 201.171C580.597 201.766 580.168 202.474 579.404 203.294C578.888 203.848 578.441 204.153 578.061 204.209C577.685 204.268 577.187 204.119 576.565 203.761C577.017 204.419 577.204 204.993 577.128 205.482C577.055 205.967 576.731 206.518 576.157 207.135L575.34 208.014C574.744 208.654 574.228 209.06 573.792 209.23C573.36 209.405 572.931 209.4 572.505 209.216C572.079 209.032 571.369 208.479 570.375 207.558L567.517 204.91L576.342 195.427ZM577.303 199.339L575.341 201.448C575.45 201.542 575.534 201.616 575.593 201.67C575.835 201.895 576.044 201.98 576.22 201.924C576.399 201.865 576.75 201.554 577.273 200.992C577.55 200.695 577.715 200.463 577.769 200.295C577.827 200.123 577.825 199.98 577.765 199.865C577.708 199.754 577.554 199.579 577.303 199.339ZM573.967 202.924L571.498 205.577C571.857 205.888 572.129 206.038 572.313 206.027C572.502 206.02 572.775 205.826 573.131 205.443L573.954 204.559C574.332 204.152 574.518 203.867 574.511 203.701C574.505 203.535 574.324 203.276 573.967 202.924Z" fill="white"/>
<path d="M582.159 201.006L586.145 204.919L584.336 206.756L582.74 205.19L581.026 206.93L582.519 208.396L580.799 210.142L579.306 208.676L577.318 210.694L579.073 212.417L577.263 214.253L573.118 210.184L582.159 201.006Z" fill="white"/>
<path d="M588.738 212.937L586.563 210.675L587.254 210.003C587.576 209.69 587.753 209.461 587.786 209.317C587.818 209.174 587.77 209.034 587.64 208.899C587.499 208.753 587.332 208.699 587.139 208.737C586.95 208.78 586.734 208.918 586.493 209.154C586.182 209.456 585.989 209.726 585.913 209.964C585.834 210.198 585.865 210.612 586.006 211.206C586.407 212.913 586.538 214.107 586.399 214.787C586.259 215.468 585.733 216.253 584.821 217.141C584.157 217.786 583.592 218.183 583.126 218.331C582.663 218.482 582.109 218.439 581.464 218.2C580.823 217.958 580.217 217.54 579.646 216.946C579.02 216.295 578.607 215.618 578.407 214.916C578.211 214.218 578.235 213.614 578.477 213.101C578.719 212.589 579.19 211.994 579.887 211.315L580.497 210.722L582.672 212.984L581.539 214.086C581.19 214.426 580.995 214.675 580.955 214.833C580.918 214.996 580.978 215.158 581.133 215.32C581.289 215.482 581.467 215.54 581.668 215.494C581.872 215.452 582.099 215.31 582.348 215.067C582.897 214.534 583.183 214.11 583.207 213.795C583.227 213.477 583.144 212.823 582.957 211.833C582.773 210.839 582.677 210.156 582.668 209.784C582.66 209.412 582.751 209.006 582.943 208.565C583.139 208.128 583.485 207.669 583.979 207.188C584.692 206.494 585.301 206.077 585.805 205.937C586.313 205.801 586.855 205.848 587.432 206.078C588.013 206.304 588.582 206.706 589.138 207.285C589.746 207.917 590.162 208.554 590.385 209.196C590.612 209.841 590.638 210.386 590.465 210.831C590.299 211.276 589.846 211.858 589.106 212.578L588.738 212.937Z" fill="white"/>
<path d="M594.022 213.215L584.465 221.876L582.212 219.392L591.769 210.73L594.022 213.215Z" fill="white"/>
<path d="M599.187 218.845L597.239 220.561L595.908 219.065L588.123 225.921L585.881 223.402L593.665 216.546L592.339 215.056L594.287 213.34L599.187 218.845Z" fill="white"/>
<path d="M603.991 224.605L596.071 228.004L592.472 230.998L590.47 228.61L594.069 225.616L598.894 218.526L600.88 220.895C599.255 222.878 598.125 224.171 597.491 224.775C598.672 224.035 600.176 223.189 602.004 222.236L603.991 224.605Z" fill="white"/>
<path d="M628.265 265.417L630.8 270.413L628.503 271.601L627.489 269.601L625.313 270.727L626.262 272.598L624.079 273.728L623.13 271.856L620.607 273.161L621.722 275.36L619.426 276.548L616.79 271.353L628.265 265.417Z" fill="white"/>
<path d="M633.99 277.099L628.319 278.509L622.585 283.217L621.227 280.413C622.227 279.522 623.493 278.539 625.025 277.464C624.253 277.739 623.422 278.006 622.53 278.267L620.489 278.89L619.061 275.942L626.097 273.924L630.727 270.364L632.144 273.289C631.848 273.496 631.363 273.858 630.691 274.374C630.179 274.772 629.706 275.125 629.269 275.434L632.761 274.562L633.99 277.099Z" fill="white"/>
<path d="M636.815 283.465L634.454 284.53L633.638 282.706L624.203 286.961L622.828 283.889L632.264 279.634L631.451 277.818L633.812 276.753L636.815 283.465Z" fill="white"/>
<path d="M636.768 283.549L637.673 285.751C638.277 287.219 638.629 288.235 638.729 288.799C638.83 289.367 638.714 289.911 638.38 290.429C638.053 290.951 637.38 291.422 636.361 291.843C635.431 292.228 634.758 292.37 634.343 292.271C633.928 292.172 633.549 291.796 633.205 291.142C633.306 291.821 633.272 292.319 633.103 292.637C632.934 292.955 632.752 293.183 632.555 293.322C632.366 293.463 631.789 293.734 630.824 294.132L627.672 295.436L626.483 292.547L630.455 290.905C631.095 290.64 631.47 290.425 631.58 290.258C631.692 290.097 631.66 289.802 631.484 289.373L626.094 291.601L624.814 288.491L636.768 283.549ZM636.002 287.505L633.344 288.604C633.488 288.954 633.635 289.178 633.785 289.277C633.943 289.379 634.285 289.322 634.811 289.104L635.468 288.832C635.847 288.676 636.068 288.504 636.129 288.317C636.192 288.135 636.15 287.865 636.002 287.505Z" fill="white"/>
<path d="M639.974 290.864L641.888 296.152L639.456 297.059L638.69 294.942L636.385 295.801L637.102 297.782L634.79 298.644L634.073 296.663L631.4 297.659L632.243 299.986L629.811 300.893L627.82 295.394L639.974 290.864Z" fill="white"/>
<path d="M645.312 306.312L633.144 310.588L632.182 307.819L640.397 304.932L631.798 306.712L631.115 304.749L638.736 300.762L630.71 303.582L629.747 300.813L641.915 296.538L643.34 300.639C642.651 301.016 641.833 301.447 640.888 301.931L637.944 303.455L643.877 302.181L645.312 306.312Z" fill="white"/>
<path d="M646.321 309.599L636.463 312.715L637.076 314.664L634.609 315.444L632.99 310.287L645.314 306.392L646.321 309.599Z" fill="white"/>
<path d="M648.701 317.668L640.129 317.623L635.647 318.931L634.794 315.943L639.276 314.635L646.529 310.061L647.376 313.026C645.097 314.194 643.547 314.929 642.727 315.229C644.099 315.023 645.808 314.847 647.855 314.703L648.701 317.668Z" fill="white"/>
<path d="M643.917 329.311C642.656 329.623 641.754 329.814 641.211 329.883C640.674 329.955 640.149 329.888 639.635 329.68C639.122 329.478 638.682 329.14 638.315 328.666C637.948 328.192 637.675 327.601 637.495 326.894C637.325 326.222 637.281 325.591 637.362 325.001C637.45 324.414 637.672 323.904 638.029 323.469C638.386 323.035 638.815 322.723 639.316 322.533C639.818 322.343 640.715 322.088 642.007 321.768L644.155 321.236C645.416 320.924 646.315 320.732 646.852 320.659C647.395 320.59 647.923 320.657 648.435 320.86C648.949 321.067 649.39 321.408 649.757 321.882C650.125 322.356 650.398 322.947 650.577 323.654C650.747 324.325 650.788 324.954 650.701 325.541C650.619 326.132 650.4 326.644 650.043 327.078C649.686 327.512 649.257 327.824 648.756 328.014C648.255 328.204 647.358 328.459 646.065 328.779L643.917 329.311ZM647.217 325.029C647.801 324.885 648.165 324.759 648.308 324.652C648.458 324.549 648.507 324.397 648.456 324.196C648.413 324.025 648.313 323.91 648.155 323.851C648.003 323.795 647.604 323.847 646.958 324.007L641.096 325.459C640.367 325.639 639.924 325.779 639.768 325.878C639.613 325.982 639.563 326.143 639.618 326.36C639.674 326.582 639.809 326.699 640.021 326.713C640.233 326.726 640.708 326.641 641.448 326.458L647.217 325.029Z" fill="white"/>
<path d="M651.307 327.827L651.998 331.1C652.216 332.134 652.301 332.933 652.252 333.497C652.204 334.067 651.968 334.568 651.544 335.001C651.125 335.433 650.37 335.766 649.28 335.999C648.543 336.157 648.005 336.151 647.665 335.979C647.326 335.813 647.006 335.407 646.707 334.759C646.696 335.555 646.519 336.13 646.176 336.486C645.839 336.841 645.26 337.106 644.44 337.282L643.272 337.532C642.421 337.715 641.769 337.752 641.317 337.642C640.867 337.538 640.521 337.289 640.281 336.895C640.04 336.502 639.781 335.645 639.502 334.326L638.701 330.531L651.307 327.827ZM649.843 331.57L647.04 332.171C647.075 332.311 647.1 332.419 647.117 332.497C647.185 332.819 647.306 333.008 647.48 333.062C647.66 333.116 648.123 333.063 648.871 332.903C649.265 332.818 649.533 332.723 649.673 332.617C649.819 332.509 649.9 332.392 649.916 332.263C649.933 332.14 649.909 331.909 649.843 331.57ZM645.078 332.592L641.55 333.349C641.664 333.808 641.798 334.086 641.954 334.182C642.112 334.285 642.444 334.281 642.953 334.172L644.129 333.92C644.669 333.804 644.984 333.677 645.074 333.538C645.164 333.399 645.165 333.084 645.078 332.592Z" fill="white"/>
<path d="M652.876 335.719L653.87 341.227L651.329 341.694L650.931 339.489L648.524 339.932L648.896 341.995L646.481 342.439L646.109 340.376L643.317 340.889L643.755 343.313L641.214 343.78L640.181 338.053L652.876 335.719Z" fill="white"/>
<path d="M651.331 349.327L650.86 346.243L651.805 346.09C652.247 346.018 652.521 345.933 652.63 345.835C652.739 345.737 652.779 345.595 652.751 345.411C652.721 345.211 652.616 345.072 652.437 344.993C652.259 344.92 652.005 344.91 651.674 344.963C651.248 345.032 650.937 345.142 650.739 345.292C650.541 345.437 650.328 345.792 650.102 346.357C649.451 347.977 648.874 349.024 648.37 349.499C647.867 349.974 646.99 350.312 645.74 350.515C644.831 350.662 644.145 350.662 643.682 350.516C643.219 350.375 642.794 350.024 642.407 349.461C642.025 348.898 641.772 348.211 641.648 347.401C641.513 346.512 641.565 345.725 641.805 345.04C642.045 344.359 642.411 343.88 642.901 343.601C643.391 343.323 644.114 343.106 645.07 342.951L645.905 342.816L646.376 345.901L644.824 346.152C644.346 346.229 644.045 346.321 643.921 346.427C643.799 346.539 643.754 346.705 643.788 346.926C643.821 347.147 643.933 347.296 644.122 347.373C644.312 347.455 644.578 347.469 644.92 347.414C645.671 347.292 646.146 347.11 646.346 346.868C646.545 346.62 646.852 346.039 647.267 345.126C647.687 344.212 648 343.601 648.206 343.293C648.412 342.985 648.719 342.706 649.128 342.457C649.537 342.213 650.081 342.036 650.758 341.926C651.735 341.768 652.468 341.776 652.958 341.95C653.448 342.13 653.861 342.478 654.199 342.994C654.541 343.51 654.773 344.163 654.893 344.952C655.025 345.814 654.997 346.57 654.811 347.22C654.626 347.875 654.336 348.335 653.94 348.598C653.55 348.866 652.849 349.082 651.835 349.246L651.331 349.327Z" fill="white"/>
<path d="M656.602 352.373L643.833 354.051L643.372 350.734L656.142 349.055L656.602 352.373Z" fill="white"/>
<path d="M656.436 360.145L653.864 360.431L653.647 358.446L643.368 359.589L643.002 356.247L653.281 355.104L653.064 353.127L655.636 352.841L656.436 360.145Z" fill="white"/>
<path d="M657.205 367.691L648.762 365.902L644.087 366.277L643.831 363.165L648.507 362.791L656.555 359.77L656.808 362.857C654.332 363.542 652.66 363.949 651.793 364.078C653.186 364.154 654.905 364.329 656.952 364.604L657.205 367.691Z" fill="white"/>
<path d="M435.701 356.979L435.453 357.522C433.903 361.231 432.213 364.955 430.57 368.648L422.724 373.49H421.329H398.336H388.879H372.01L342.102 363.403L339.001 362.332L331.761 359.88L330.319 359.399L321.791 356.529L257.371 334.803L327.388 329.806L331.404 329.512L337.606 329.062L341.776 328.767L345.001 328.534L346.102 328.441L373.421 326.439L392.941 330.567C403.716 332.848 414.569 335.222 425.5 337.457C428.352 340.25 431.159 343.059 434.011 345.852L434.136 346.612C434.585 350.057 435.159 353.534 435.701 356.979Z" fill="#191919"/>
<path d="M435.701 356.978L435.453 357.521C433.903 361.229 432.213 364.954 430.57 368.647L422.724 373.489H421.329H398.336H389.22L341.683 357.459L339.249 356.636L337.699 356.14L332.536 354.386L328.722 353.114L322.83 351.127L284.969 338.356L327.109 335.252L328.443 335.159L336.877 334.523L338.877 334.383L343.528 334.057H343.87L392.817 330.473C403.592 332.754 414.445 335.128 425.376 337.363C428.228 340.156 431.035 342.965 433.887 345.758L434.011 346.518C434.585 350.056 435.159 353.533 435.701 356.978Z" fill="#474747"/>
<path d="M418.181 337.084C421.728 337.527 425.063 339.012 427.765 341.353C430.468 343.693 432.415 346.784 433.363 350.233C434.31 353.681 434.213 357.334 433.085 360.728C431.958 364.122 429.85 367.105 427.028 369.3C424.205 371.494 420.796 372.801 417.232 373.056C413.667 373.311 410.107 372.501 407.002 370.73C403.898 368.959 401.387 366.306 399.79 363.107C398.192 359.908 397.578 356.306 398.026 352.757C398.626 348.005 401.085 343.686 404.864 340.747C408.643 337.809 413.433 336.491 418.181 337.084Z" fill="#191919"/>
<path d="M414.46 272.73C387.63 272.73 361.89 283.358 342.865 302.293C323.839 321.228 313.074 346.93 312.923 373.784H320.039C320.298 348.928 330.33 325.174 347.963 307.669C365.597 290.164 389.41 280.318 414.246 280.263C439.082 280.207 462.939 289.948 480.649 307.375C498.36 324.801 508.498 348.51 508.866 373.365H515.983C515.721 346.587 504.91 320.994 485.9 302.15C466.889 283.306 441.216 272.733 414.46 272.73Z" fill="#A9ABAE"/>
<path d="M508.866 373.35H463.547H443.624H422.724H421.329H398.336H388.879H372.01L320.04 373.505C320.074 367.776 320.629 362.063 321.699 356.435C322.04 354.604 322.443 352.788 322.892 351.004C324.275 345.531 326.154 340.197 328.505 335.067C329.389 333.111 330.334 331.187 331.358 329.294C334.267 323.931 337.684 318.859 341.56 314.148C342.722 312.705 343.947 311.293 345.234 309.927C349.986 304.779 355.301 300.183 361.079 296.225C362.831 294.999 364.63 293.866 366.459 292.78C370.183 290.564 374.059 288.615 378.057 286.945C379.824 286.2 381.607 285.517 383.421 284.897C390.7 282.353 398.268 280.726 405.949 280.055C407.964 279.869 409.995 279.745 412.027 279.698H414.461C416.12 279.698 417.763 279.698 419.407 279.822C421.407 279.931 423.407 280.101 425.376 280.334C433.167 281.221 440.815 283.093 448.136 285.905C449.95 286.588 451.749 287.333 453.501 288.14C457.657 290.023 461.668 292.212 465.501 294.688C467.284 295.821 469.005 297.032 470.695 298.304C476.496 302.594 481.778 307.547 486.432 313.062C487.656 314.49 488.819 315.964 489.936 317.469C493.343 321.988 496.332 326.808 498.866 331.87C499.843 333.794 500.758 335.749 501.579 337.751C503.894 343.256 505.67 348.973 506.882 354.821C507.254 356.621 507.579 358.452 507.859 360.299C508.494 364.621 508.83 368.981 508.866 373.35Z" fill="white"/>
<path d="M364.18 319.332C368.283 318.694 372.431 318.388 376.584 318.416C382.413 318.416 385.995 319.006 389.08 320.79C390.619 321.569 391.909 322.764 392.802 324.24C393.696 325.716 394.157 327.413 394.134 329.139C394.134 332.863 391.948 336.37 387.189 338.14V338.31C389.574 338.801 391.716 340.104 393.25 341.996C394.785 343.889 395.618 346.254 395.607 348.692C395.617 350.428 395.224 352.143 394.461 353.702C393.697 355.261 392.582 356.622 391.204 357.677C388.103 360.175 383.002 361.525 374.568 361.525C371.116 361.558 367.666 361.351 364.242 360.905L364.18 319.332ZM373.653 335.548H376.754C381.824 335.548 384.506 333.438 384.506 330.287C384.506 327.137 382.072 325.384 377.746 325.384C376.391 325.341 375.035 325.44 373.7 325.678L373.653 335.548ZM373.653 354.278C374.867 354.431 376.09 354.488 377.312 354.449C381.654 354.449 385.483 352.773 385.483 348.242C385.483 343.711 381.654 342.376 377.002 342.376H373.731L373.653 354.278Z" fill="#17A37C"/>
<path d="M437.826 344.889C437.639 339.768 437.438 333.654 437.469 327.447H437.298C435.95 332.878 434.197 338.884 432.57 343.881L427.391 360.392H419.965L415.406 344.036C414.042 339.055 412.631 333.033 411.577 327.447H411.453C411.251 333.204 411.003 339.753 410.755 345.013L409.964 361.09H401.111L403.825 318.757H416.569L420.693 332.894C422.042 337.751 423.345 343.074 424.29 348.039H424.492C425.639 343.136 427.081 337.549 428.507 332.832L433.004 318.757H445.516L447.779 361.09H438.477L437.826 344.889Z" fill="#17A37C"/>
<path d="M464.741 318.757V361.09H455.175V318.757H464.741Z" fill="#17A37C"/>
<path d="M770.129 26.1478C766.512 23.9046 762.193 23.0809 758.005 23.8356C750.625 24.9839 744.655 32.5723 743.446 40.0054C742.237 47.4386 742.547 70.0485 742.547 70.0485C742.547 70.0485 782.377 70.3743 784.486 70.3743C784.3 60.1014 784.098 41.6814 781.788 34.4189C778.563 24.3787 770.129 26.1478 770.129 26.1478Z" fill="#142033"/>
<path d="M787.664 76.6439L786.114 94.7845C786.114 94.7845 770.222 103.459 762.857 105.026C753.787 103.878 740.035 95.0949 740.035 95.0949C740.035 95.0949 737.818 81.3924 739.26 76.6439C741.539 75.2628 746.702 73.354 751.322 70.7625C751.524 69.878 751.772 68.3417 751.989 66.7899C752.345 64.276 752.64 61.7 752.64 61.7L774.129 61.4517C774.284 62.631 774.439 64.9432 774.672 67.364C774.811 68.7452 774.982 70.1728 775.214 71.4298C776.439 71.9729 787.664 76.6439 787.664 76.6439Z" fill="#F6AA99"/>
<path d="M749.694 78.0089C749.803 78.5675 756.811 80.7711 762.935 80.7711C767.517 80.4896 772.019 79.4405 776.253 77.6675L749.694 78.0089Z" fill="#F3877C"/>
<path d="M762.361 104.297C762.625 94.2722 762.687 94.2878 763.679 89.353C764.595 94.2847 765.114 99.2821 765.23 104.297H762.361Z" fill="#EE6066"/>
<path d="M774.3 62.1658C774.511 64.1677 774.093 66.1857 773.104 67.9383C772.114 69.6909 770.603 71.0906 768.78 71.9422C767.326 72.6345 765.739 73.005 764.129 73.0285C761.967 73.0154 759.841 72.4833 757.927 71.4767C756.197 70.5592 754.784 69.1384 753.876 67.4014C752.969 65.6645 752.608 63.693 752.842 61.7468L774.331 61.4985C774.253 61.6537 774.269 61.902 774.3 62.1658Z" fill="#EE6066"/>
<path d="M775.571 51.3028C775.741 51.1631 778.083 46.2594 780.811 46.1353C783.54 46.0111 783.152 50.1855 782.641 51.3804C782.129 52.5753 781.09 55.8962 778.083 56.7962C776.861 56.6998 775.72 56.1456 774.889 55.2444L775.571 51.3028Z" fill="#F6AA99"/>
<path d="M781.416 50.7288C781.416 50.5581 782.439 48.0907 780.967 47.6251C779.494 47.1596 777.013 50.8684 775.835 52.0943C776.889 52.0943 778.3 51.7374 778.269 52.7306C778.238 53.7237 776.718 54.8876 775.168 54.81C776.579 55.4928 777.121 55.9428 778.145 55.679C779.168 55.4152 780.222 53.8169 780.222 53.8169C779.866 54.2483 779.406 54.5816 778.885 54.7853C778.364 54.9889 777.8 55.0562 777.246 54.9807C778.905 54.1117 780.16 52.1564 778.982 51.6443C778.636 51.4979 778.264 51.4225 777.889 51.4225C777.513 51.4225 777.142 51.4979 776.796 51.6443C776.796 51.6443 778.687 49.27 779.897 48.9752C781.106 48.6804 781.416 50.7288 781.416 50.7288Z" fill="#F3877C"/>
<path d="M778.796 50.9458C778.796 50.9458 779.804 50.9458 780.021 51.5045C780.128 51.8428 780.158 52.2008 780.11 52.5524C780.062 52.904 779.936 53.2405 779.742 53.5373C781.308 52.1717 781.246 50.1078 778.796 50.9458Z" fill="#F3877C"/>
<path d="M750.562 51.2719C750.392 51.1478 748.051 46.244 745.322 46.1199C742.593 45.9958 742.981 50.1701 743.492 51.3495C744.004 52.5289 745.043 55.8808 748.051 56.7653C749.275 56.6765 750.418 56.1211 751.245 55.2135L750.562 51.2719Z" fill="#F6AA99"/>
<path d="M744.733 50.6976C744.733 50.5424 743.709 48.075 745.182 47.6871C746.655 47.2991 749.12 50.9303 750.299 52.1408C749.244 52.1408 747.834 51.7838 747.865 52.777C747.896 53.7702 749.508 54.934 750.965 54.8719C749.555 55.5392 749.012 55.9892 747.973 55.7409C746.934 55.4927 745.896 53.8788 745.896 53.8788C746.252 54.3098 746.712 54.6418 747.234 54.8429C747.755 55.044 748.319 55.1074 748.872 55.0271C747.213 54.1581 745.958 52.2028 747.151 51.6907C747.495 51.5448 747.864 51.4695 748.237 51.4695C748.61 51.4695 748.979 51.5448 749.322 51.6907C749.322 51.6907 747.431 49.3165 746.221 49.0371C745.012 48.7578 744.733 50.6976 744.733 50.6976Z" fill="#F3877C"/>
<path d="M747.353 50.9146C747.353 50.9146 746.346 50.9146 746.113 51.4733C746.005 51.8142 745.975 52.1746 746.023 52.5288C746.071 52.883 746.197 53.222 746.392 53.5217C744.826 52.1561 744.888 50.0922 747.353 50.9146Z" fill="#F3877C"/>
<path d="M772.687 40.0988C774.164 41.0592 775.36 42.3933 776.155 43.9658C776.95 45.5383 777.316 47.2933 777.215 49.0528C777.106 50.7908 777.013 52.684 777.013 53.5685C777.273 55.963 776.998 58.3855 776.207 60.6603C774.78 64.307 769.354 67.8296 763.338 67.9072C761.035 68.0511 758.732 67.6285 756.629 66.6764C754.526 65.7242 752.689 64.2714 751.276 62.4449C749.708 60.1813 749.024 57.4205 749.353 54.6858C749.509 52.2495 748.578 46.3061 749.074 44.7232C750.253 40.9989 753.726 40.2074 758.036 39.5557C762.346 38.9039 767.137 37.3366 768.067 35.9089C768.687 37.6159 770.687 38.8108 772.687 40.0988Z" fill="#F6AA99"/>
<path d="M765.431 47.3766C767.025 46.7273 768.668 46.2083 770.346 45.8248C772.071 45.5645 773.811 45.4246 775.555 45.4058C774.161 44.7053 772.634 44.3086 771.075 44.242C769.373 44.2263 767.686 44.5535 766.113 45.2041C765.803 45.8996 765.574 46.6286 765.431 47.3766Z" fill="#321E41"/>
<path d="M766.361 52.4668C766.713 52.5005 767.061 52.568 767.4 52.6685C768.696 53.1082 770.092 53.1568 771.416 52.8082C772.198 52.5284 772.914 52.0886 773.517 51.5169C774.12 50.9451 774.598 50.254 774.92 49.4873C771.028 50.3253 766.981 51.5667 766.361 52.4668Z" fill="#F3877C"/>
<path d="M774.92 49.4874C773.865 50.8267 772.4 51.7811 770.749 52.203C769.665 52.3726 768.561 52.3726 767.478 52.203C767.126 52.1698 766.772 52.2343 766.454 52.3893H766.361C766.44 51.3226 766.909 50.3225 767.679 49.5805C768.118 49.1656 768.649 48.8623 769.23 48.6959C770.365 48.4171 771.551 48.4171 772.687 48.6959C773.461 48.8677 774.211 49.1335 774.92 49.4874Z" fill="white"/>
<path d="M770.92 51.7065C770.573 51.7888 770.213 51.8009 769.86 51.7421C769.508 51.6833 769.172 51.5547 768.87 51.3639C768.568 51.1732 768.307 50.924 768.103 50.6311C767.899 50.3382 767.755 50.0074 767.68 49.6581C768.118 49.2432 768.65 48.9399 769.23 48.7736C770.366 48.4947 771.552 48.4947 772.688 48.7736C772.811 49.3949 772.697 50.0398 772.371 50.5822C772.044 51.1245 771.527 51.5254 770.92 51.7065Z" fill="#321E41"/>
<path d="M771.292 50.4802C771.292 49.9836 773.571 50.0457 773.494 50.4802C773.416 50.9147 771.307 50.9767 771.292 50.4802Z" fill="white"/>
<path d="M767.478 52.249C767.126 52.2158 766.772 52.2803 766.454 52.4353H766.361C766.387 52.0704 766.46 51.7104 766.578 51.3645C766.799 51.7307 767.108 52.035 767.478 52.249Z" fill="#EE6066"/>
<path d="M769.772 48.2303C768.811 48.45 767.951 48.9875 767.332 49.7561C766.713 50.5248 766.371 51.4796 766.361 52.4667C766.577 51.6112 767.031 50.8346 767.67 50.2274C768.31 49.6203 769.109 49.2075 769.974 49.0372C771.627 48.6403 773.365 48.7985 774.92 49.4873L776.067 48.4941C774.016 47.927 771.863 47.8368 769.772 48.2303Z" fill="#321E41"/>
<path d="M766.454 49.58C767.159 48.7705 768.095 48.1965 769.136 47.9351C770.541 47.5973 771.993 47.4976 773.431 47.6402C772.267 47.1695 771.005 46.9936 769.757 47.1281C769.033 47.1892 768.34 47.451 767.757 47.8841C767.174 48.3172 766.722 48.9045 766.454 49.58Z" fill="#F3877C"/>
<path d="M760.424 47.3766C758.83 46.7273 757.186 46.2083 755.509 45.8248C753.784 45.5645 752.043 45.4246 750.299 45.4058C751.694 44.7053 753.221 44.3086 754.78 44.242C756.482 44.2263 758.169 44.5535 759.741 45.2041C760.052 45.8996 760.28 46.6286 760.424 47.3766Z" fill="#321E41"/>
<path d="M759.958 52.8388C759.606 52.8725 759.258 52.9401 758.919 53.0406C757.618 53.4797 756.217 53.5283 754.888 53.1802C754.107 52.9012 753.394 52.4615 752.793 51.8895C752.192 51.3176 751.717 50.626 751.4 49.8594C755.214 50.6818 759.261 51.9388 759.958 52.8388Z" fill="#F3877C"/>
<path d="M751.322 49.8437C752.374 51.1887 753.84 52.1488 755.492 52.5749C756.576 52.7445 757.68 52.7445 758.764 52.5749C759.116 52.5432 759.469 52.6076 759.787 52.7611H759.88C759.853 52.395 759.775 52.0345 759.648 51.6903C759.443 51.0263 759.069 50.4271 758.562 49.9523C758.124 49.5374 757.592 49.2341 757.012 49.0678C755.876 48.7889 754.69 48.7889 753.554 49.0678C752.783 49.2392 752.034 49.4996 751.322 49.8437Z" fill="white"/>
<path d="M755.307 52.0322C755.654 52.1145 756.014 52.1266 756.366 52.0678C756.718 52.0089 757.055 51.8804 757.357 51.6896C757.659 51.4988 757.919 51.2497 758.124 50.9568C758.328 50.6639 758.472 50.3331 758.547 49.9838C758.108 49.5689 757.577 49.2656 756.997 49.0993C755.861 48.8204 754.675 48.8204 753.539 49.0993C753.413 49.7209 753.524 50.3675 753.851 50.9107C754.179 51.454 754.698 51.8542 755.307 52.0322Z" fill="#321E41"/>
<path d="M758.765 52.6216C759.116 52.59 759.47 52.6543 759.788 52.8078H759.881C759.854 52.4417 759.776 52.0812 759.648 51.7371C759.435 52.103 759.13 52.4076 758.765 52.6216Z" fill="#EE6066"/>
<path d="M756.47 48.6026C757.428 48.8273 758.285 49.3662 758.903 50.1337C759.521 50.9013 759.865 51.8534 759.881 52.839C759.668 51.9807 759.215 51.2008 758.575 50.5907C757.935 49.9806 757.135 49.5655 756.268 49.394C754.612 49.0089 752.877 49.1723 751.322 49.8596L750.175 48.8664C752.226 48.2993 754.379 48.2091 756.47 48.6026Z" fill="#321E41"/>
<path d="M759.772 49.9525C759.08 49.1354 758.146 48.5594 757.105 48.3076C755.7 47.9699 754.249 47.8702 752.811 48.0128C753.975 47.542 755.237 47.3661 756.485 47.5007C757.207 47.561 757.898 47.8227 758.479 48.2561C759.06 48.6895 759.508 49.2772 759.772 49.9525Z" fill="#F3877C"/>
<path d="M756.64 51.1633C756.64 50.6667 758.919 50.7133 758.857 51.1633C758.795 51.6133 756.671 51.6599 756.64 51.1633Z" fill="white"/>
<path d="M760.841 55.1356C760.841 55.1356 762.547 56.7961 763.182 56.7961C764.125 56.3346 764.993 55.7329 765.756 55.0115L763.182 55.9736L760.841 55.1356Z" fill="#EE6066"/>
<path d="M758.408 59.0771C758.911 59.827 759.612 60.4227 760.433 60.798C761.254 61.1733 762.163 61.3135 763.059 61.203C764.054 61.1309 765.018 60.8267 765.874 60.3147C766.73 59.8027 767.455 59.0972 767.989 58.2546C764.772 58.008 761.536 58.2858 758.408 59.0771Z" fill="#321E41"/>
<path d="M761.075 64.0893C761.371 63.7696 761.728 63.5117 762.124 63.3306C762.521 63.1495 762.949 63.0487 763.385 63.0341C763.825 62.9459 764.281 62.9835 764.7 63.1427C765.12 63.3019 765.486 63.5762 765.757 63.9342C764.219 64.2715 762.632 64.3241 761.075 64.0893Z" fill="#F3877C"/>
<path d="M791.138 78.7539C791.138 78.7539 801.681 84.2784 805.991 91.3701C810.301 98.4619 825.681 123.167 828.968 143.573C830.348 167.083 821.542 195.947 821.542 195.947C821.542 195.947 823.79 208.563 820.673 214.273C817.557 219.984 805.991 225.679 805.991 225.679L791.138 78.7539Z" fill="#F6AA99"/>
<path d="M733.368 79.8557C733.368 79.8557 722.841 85.3801 718.515 92.4719C714.189 99.5637 698.824 124.268 695.553 144.675C694.173 168.185 702.98 197.048 702.98 197.048C702.98 197.048 700.731 209.665 703.848 215.375C706.964 221.086 718.515 226.781 718.515 226.781L733.368 79.8557Z" fill="#F6AA99"/>
<path d="M754.951 359.042C754.749 357.196 754.408 355.302 754.098 353.564C754.098 353.409 754.098 353.254 754.098 353.099V263.296C754.734 247.653 759.772 205.972 759.772 205.972C758.749 190.454 739.105 167.828 713.895 171.351C710.639 192.518 713.384 220.605 718.392 241.182C719.965 247.508 719.826 254.14 717.988 260.394C707.135 296.846 725.337 310.61 729.431 347.155C729.372 349.96 728.604 352.705 727.198 355.132C726.359 356.537 725.314 357.808 724.097 358.903C721.709 361.029 719.647 361.913 714.376 365.11C709.104 368.306 703.058 371.022 703.073 373.412C703.073 373.412 703.182 374.498 704.624 374.498H733.601C738.004 374.498 739.167 371.395 742.454 369.75C745.741 368.105 750.982 370.51 754.144 367.127C755.292 365.901 755.4 363.17 755.121 360.113C755.028 359.663 754.997 359.29 754.951 359.042Z" fill="#F6AA99"/>
<path d="M754.081 367.05C750.98 370.433 745.554 368.089 742.391 369.672C739.228 371.255 737.941 374.421 733.538 374.421C733.538 374.421 736.313 374.84 739.383 370.991C746.376 362.239 751.26 364.163 754.888 359.089C754.888 359.399 754.965 359.71 754.996 360.035C755.306 363.046 755.306 365.777 754.081 367.05Z" fill="#F3877C"/>
<path d="M737.151 362.394C736.247 364.244 734.944 365.871 733.337 367.158C730.609 369.237 727.864 370.587 726.578 371.813C725.91 372.524 725.534 373.46 725.523 374.436H723.244C723.337 373.445 723.702 372.5 724.298 371.704C725.585 370.153 727.957 369.206 730.919 367.344C733.151 365.899 735.238 364.241 737.151 362.394Z" fill="#EE6066"/>
<path d="M729.229 371.798C730.227 371.75 731.228 371.828 732.206 372.03C732.763 372.147 733.342 372.071 733.85 371.813C734.162 371.695 734.444 371.508 734.675 371.266C734.906 371.025 735.079 370.734 735.183 370.416C735.183 368.865 732.408 368.508 728.981 371.239C728.921 371.28 728.876 371.34 728.856 371.411C728.836 371.481 728.841 371.556 728.871 371.622C728.901 371.689 728.953 371.743 729.018 371.775C729.084 371.807 729.159 371.815 729.229 371.798Z" fill="#FFC5BB"/>
<path d="M726.702 367.375C724.299 369.563 720.64 371.502 719.508 372.589C718.932 373.021 718.549 373.661 718.438 374.373H717.074C717.15 373.826 717.342 373.3 717.636 372.832C717.929 372.364 718.319 371.964 718.779 371.658C720.547 370.54 723.446 369.113 726.702 367.375Z" fill="#EE6066"/>
<path d="M720.778 367.375C718.39 369.563 714.731 371.502 713.584 372.589C713.015 373.027 712.632 373.664 712.514 374.373H711.15C711.23 373.825 711.425 373.3 711.721 372.832C712.018 372.364 712.409 371.964 712.871 371.658C714.623 370.54 717.522 369.113 720.778 367.375Z" fill="#EE6066"/>
<path d="M715.663 367.375C713.26 369.563 709.601 371.502 708.453 372.589C707.89 373.032 707.509 373.667 707.384 374.373H706.035C706.111 373.826 706.302 373.3 706.596 372.832C706.89 372.364 707.28 371.964 707.74 371.658C709.492 370.54 712.407 369.113 715.663 367.375Z" fill="#EE6066"/>
<path d="M720.314 372.993C721.149 372.784 722.022 372.784 722.857 372.993C722.857 372.993 723.958 371.814 723.741 371.441C723.524 371.069 721.601 370.976 720.314 372.993Z" fill="#FFC5BB"/>
<path d="M714.174 372.993C715.009 372.784 715.882 372.784 716.717 372.993C716.717 372.993 717.802 371.814 717.585 371.441C717.368 371.069 715.461 370.976 714.174 372.993Z" fill="#FFC5BB"/>
<path d="M708.872 372.993C709.595 372.816 710.35 372.816 711.073 372.993C711.073 372.993 712.019 371.969 711.833 371.643C711.647 371.317 709.988 371.239 708.872 372.993Z" fill="#FFC5BB"/>
<path d="M703.848 373.024C704.577 372.849 705.337 372.849 706.065 373.024C706.065 373.024 707.011 372.015 706.825 371.674C706.639 371.332 704.98 371.286 703.848 373.024Z" fill="#FFC5BB"/>
<path d="M714.314 223.848C711.714 207.882 711.151 191.649 712.639 175.541L713.911 175.696C712.433 191.69 712.99 207.808 715.57 223.662L714.314 223.848Z" fill="#F3877C"/>
<path d="M728.05 253.318C726.391 255.382 729.755 269.348 734.345 268.262C739.57 267.408 743.57 256.064 741.57 253.488C739.802 251.269 730.655 250.043 728.05 253.318Z" fill="#F3877C"/>
<path d="M768.439 359.042C768.656 357.196 768.982 355.302 769.292 353.564C769.292 353.409 769.292 353.254 769.369 353.099V263.296C768.734 247.653 763.695 205.972 763.695 205.972C764.718 190.454 784.362 167.828 809.557 171.351C812.812 192.518 810.068 220.605 805.06 241.182C803.494 247.509 803.633 254.138 805.463 260.394C816.316 296.846 798.13 310.61 794.037 347.155C794.088 349.961 794.856 352.708 796.269 355.132C797.103 356.541 798.149 357.812 799.37 358.903C801.742 361.029 803.804 361.913 809.076 365.11C814.347 368.306 820.425 370.898 820.425 373.257C820.425 373.257 820.332 374.343 818.875 374.343H789.851C785.447 374.343 784.285 371.239 781.013 369.595C777.742 367.95 772.47 370.355 769.323 366.972C768.16 365.746 768.052 363.015 768.331 359.958C768.362 359.663 768.408 359.29 768.439 359.042Z" fill="#F6AA99"/>
<path d="M769.261 367.05C772.362 370.433 777.788 368.089 780.951 369.672C784.114 371.255 785.385 374.421 789.788 374.421C789.788 374.421 787.013 374.84 783.943 370.991C776.951 362.239 772.067 364.163 768.439 359.089C768.439 359.399 768.361 359.71 768.33 360.035C768.051 363.046 768.16 365.777 769.261 367.05Z" fill="#F3877C"/>
<path d="M786.316 362.394C787.233 364.236 788.534 365.86 790.13 367.158C792.859 369.237 795.603 370.587 796.89 371.813C797.56 372.524 797.942 373.459 797.96 374.436H800.239C800.095 373.481 799.711 372.578 799.122 371.813C797.836 370.261 795.463 369.315 792.487 367.452C790.271 365.97 788.204 364.276 786.316 362.394Z" fill="#EE6066"/>
<path d="M794.161 371.798C793.163 371.751 792.163 371.829 791.184 372.03C790.627 372.146 790.048 372.07 789.541 371.813C788.967 371.518 788.316 371.053 788.223 370.416C788.223 368.865 790.998 368.508 794.424 371.239C794.491 371.278 794.54 371.341 794.562 371.415C794.585 371.489 794.579 371.568 794.546 371.638C794.513 371.708 794.455 371.763 794.384 371.792C794.313 371.822 794.233 371.824 794.161 371.798Z" fill="#FFC5BB"/>
<path d="M796.688 367.375C799.091 369.563 802.75 371.502 803.897 372.589C804.461 373.032 804.842 373.667 804.967 374.373H806.316C806.239 373.826 806.048 373.3 805.754 372.832C805.46 372.364 805.07 371.964 804.61 371.658C802.858 370.54 799.943 369.113 796.688 367.375Z" fill="#EE6066"/>
<path d="M802.61 367.375C805.014 369.563 808.673 371.502 809.804 372.589C810.38 373.021 810.764 373.661 810.874 374.373H812.238C812.159 373.826 811.967 373.302 811.673 372.835C811.379 372.367 810.991 371.966 810.533 371.658C808.766 370.54 805.866 369.113 802.61 367.375Z" fill="#EE6066"/>
<path d="M807.743 367.375C810.13 369.563 813.789 371.502 814.937 372.589C815.506 373.027 815.888 373.664 816.006 374.373H817.324C817.244 373.825 817.05 373.3 816.753 372.832C816.457 372.364 816.065 371.964 815.603 371.658C813.898 370.54 810.999 369.113 807.743 367.375Z" fill="#EE6066"/>
<path d="M803.075 372.993C802.241 372.784 801.367 372.784 800.533 372.993C800.533 372.993 799.447 371.814 799.664 371.441C799.882 371.069 801.82 370.976 803.075 372.993Z" fill="#FFC5BB"/>
<path d="M809.231 372.993C808.391 372.784 807.513 372.784 806.673 372.993C806.673 372.993 805.588 371.814 805.805 371.441C806.022 371.069 807.929 370.976 809.231 372.993Z" fill="#FFC5BB"/>
<path d="M814.517 372.993C813.794 372.816 813.039 372.816 812.316 372.993C812.316 372.993 811.37 371.969 811.556 371.643C811.742 371.317 813.401 371.239 814.517 372.993Z" fill="#FFC5BB"/>
<path d="M819.541 373.024C818.818 372.847 818.063 372.847 817.34 373.024C817.34 373.024 816.394 372.015 816.58 371.674C816.766 371.332 818.425 371.286 819.541 373.024Z" fill="#FFC5BB"/>
<path d="M809.092 223.848C811.688 207.881 812.245 191.648 810.751 175.541L809.495 175.696C810.959 191.691 810.396 207.808 807.82 223.662L809.092 223.848Z" fill="#F3877C"/>
<path d="M795.354 253.318C796.997 255.382 793.633 269.348 789.044 268.262C783.819 267.408 779.741 256.064 781.819 253.488C783.539 251.269 792.734 250.043 795.354 253.318Z" fill="#F3877C"/>
<path d="M808.641 223.848L807.37 223.662C809.946 207.808 810.509 191.691 809.045 175.696L810.316 175.541C811.796 191.649 811.234 207.881 808.641 223.848Z" fill="#F3877C"/>
<path d="M808.285 158.269C789.959 166.276 774.408 171.785 765.602 174.703L761.726 175.975L757.85 174.703C749.043 171.785 733.493 166.276 715.167 158.269C715.893 148.377 717.98 138.633 721.368 129.312C722.919 125.029 724.035 122.376 724.035 122.376L757.881 116.712L761.757 116.06L765.633 116.712L799.463 122.376C799.463 122.376 800.549 125.029 801.96 129.312C805.126 138.702 807.247 148.413 808.285 158.269Z" fill="#F6AA99"/>
<path d="M762.904 140.578C762.904 140.578 760.454 145.668 762.641 149.765C765.602 146.382 762.904 140.578 762.904 140.578Z" fill="#EE6066"/>
<path d="M801.928 129.312H721.306C722.856 125.029 723.972 122.376 723.972 122.376L757.818 116.712L761.694 116.06L765.57 116.712L799.401 122.376C799.401 122.376 800.517 124.967 801.928 129.312Z" fill="#F3877C"/>
<path d="M716.546 158.3H715.259C715.979 148.347 718.066 138.54 721.461 129.157C723.011 124.905 724.143 122.205 724.143 122.174L725.322 122.701C725.322 122.701 724.128 125.386 722.655 129.591C719.304 138.833 717.249 148.494 716.546 158.3Z" fill="#F3877C"/>
<path d="M806.936 158.3C806.227 148.473 804.166 138.792 800.812 129.529C799.261 125.309 798.161 122.655 798.145 122.639L799.323 122.112C799.323 122.112 800.517 124.843 802.006 129.095C805.4 138.478 807.487 148.285 808.207 158.238L806.936 158.3Z" fill="#F3877C"/>
<path d="M714.67 157.555C713.029 163.844 712.175 170.313 712.127 176.813C725.647 180.103 754.501 196.412 759.71 205.956H763.695C763.695 205.956 782.145 182.57 810.905 177.883C809.789 161.822 808.518 157.384 808.518 157.384L714.67 157.555Z" fill="#213555"/>
<path d="M724.004 122.375C724.004 122.375 717.926 104.948 730.919 93.4959C742.21 92.883 753.465 95.2313 763.571 100.308C775.432 94.1011 787.68 91.944 795.727 93.4959C798.522 97.6794 800.311 102.454 800.954 107.446C801.597 112.437 801.076 117.51 799.432 122.266C773.168 122.266 724.004 122.375 724.004 122.375Z" fill="#213555"/>
<path d="M730.919 93.4961L731.88 79.5919L740.516 75.2778L742.454 96.4135L730.919 93.4961Z" fill="#213555"/>
<path d="M795.726 93.4961L794.75 79.5919L786.114 75.2778L784.176 96.4135L795.726 93.4961Z" fill="#213555"/>
<path d="M87.2268 358.406C89.4284 329.356 87.0717 287.907 86.312 255.319C80.2498 232.352 77.9087 184.215 77.9087 184.215C78.7924 176.766 86.8237 155.212 111.615 157.4L111.724 157.664C115.786 166.974 117.212 179.389 117.15 192.688C117.073 210.316 114.375 229.528 111.786 245.356C116.003 258.36 120.22 271.365 117.863 288.916C115.507 306.467 103.212 327.633 103.553 346.208C103.614 348.152 103.937 350.078 104.514 351.935C105.514 355.291 107.476 358.281 110.158 360.532C115.445 364.923 123.956 370.029 125.662 371.596C126.125 371.923 126.518 372.341 126.816 372.823C127.114 373.306 127.312 373.844 127.398 374.405H102.002C95.3045 374.405 97.1805 373.21 94.3587 370.789C92.8083 369.532 89.971 370.587 87.6144 369.904C85.8159 369.361 85.9399 366.723 86.5601 362.595C86.7616 361.307 87.0717 359.926 87.2268 358.406Z" fill="#F6AA99"/>
<path d="M108.095 373.148H111.057C111.336 373.148 110.933 372.232 109.894 372.124C108.499 371.984 107.801 372.931 108.095 373.148Z" fill="#FFC5BB"/>
<path d="M113.863 373.148H116.825C117.119 373.148 116.701 372.232 115.677 372.124C114.282 371.984 113.584 372.931 113.863 373.148Z" fill="#FFC5BB"/>
<path d="M119.011 373.148H121.972C122.267 373.148 121.848 372.387 120.825 372.31C119.43 372.186 118.716 372.961 119.011 373.148Z" fill="#FFC5BB"/>
<path d="M123.817 373.148H126.514C126.778 373.148 126.406 372.387 125.476 372.31C124.189 372.186 123.553 372.961 123.817 373.148Z" fill="#FFC5BB"/>
<path d="M87.6144 369.874C89.971 370.556 92.7928 369.61 94.3587 370.758C91.1184 367.313 90.9633 363.263 86.6066 362.564C85.9399 366.692 85.8159 369.33 87.6144 369.874Z" fill="#F3877C"/>
<path d="M100.839 365.202C100.552 365.165 100.26 365.22 100.006 365.359C99.7522 365.499 99.5492 365.716 99.4266 365.979C99.3039 366.241 99.2681 366.536 99.3242 366.821C99.3803 367.105 99.5254 367.365 99.7386 367.561L99.8782 367.67C101.772 369.015 103.556 370.509 105.212 372.139C105.713 372.78 106.005 373.56 106.049 374.374H107.971C107.91 373.702 107.688 373.055 107.324 372.488C106.959 371.92 106.463 371.449 105.878 371.115C104.405 370.013 100.56 367.546 100.08 366.459C99.7696 365.746 100.839 365.265 100.839 365.265V365.202Z" fill="#EE6066"/>
<path d="M103.506 372.496H98.4979C98.3817 372.301 98.3197 372.079 98.3184 371.852C98.317 371.625 98.3764 371.402 98.4903 371.205C98.6041 371.009 98.7684 370.847 98.966 370.735C99.1637 370.624 99.3875 370.568 99.6142 370.572C100.386 370.375 101.202 370.46 101.916 370.813C102.63 371.166 103.194 371.763 103.506 372.496Z" fill="#FFC5BB"/>
<path d="M104.002 366.429C104.002 366.429 104.002 367.887 107.367 369.92C109.91 371.472 112.204 373.024 112.545 374.374H114.638C113.721 373.054 112.544 371.935 111.181 371.084C108.514 369.3 104.979 368.136 104.002 366.429Z" fill="#EE6066"/>
<path d="M111.305 368.213C112.096 368.942 115.46 371.316 116.732 372.325C117.399 372.849 117.891 373.563 118.143 374.374H119.46C118.871 371.86 114.98 370.153 111.305 368.213Z" fill="#EE6066"/>
<path d="M116.126 368.213C116.902 368.942 120.282 371.316 121.553 372.325C122.215 372.854 122.706 373.567 122.964 374.374H124.282C123.693 371.86 119.754 370.153 116.126 368.213Z" fill="#EE6066"/>
<path d="M95.1805 183.47C95.8162 187.675 101.801 193.836 109.258 194.488C112.024 194.757 114.801 194.096 117.15 192.61C117.15 179.342 115.786 166.959 111.724 157.586C107.863 158.129 103.336 159.339 100.995 161.931C96.6379 166.866 94.5294 179.28 95.1805 183.47Z" fill="#F3877C"/>
<path d="M105.879 246.35C107.538 248.413 104.173 262.38 99.5841 261.309C94.3592 260.44 90.3591 249.096 92.3591 246.52C94.0801 244.301 103.274 243.091 105.879 246.35Z" fill="#F3877C"/>
<path d="M82.576 4.39108C82.2659 4.39108 78.7929 -1.9403 68.7616 0.604667C61.6917 2.38925 56.8543 7.82058 54.8078 17.4108C53.5364 23.3387 53.831 36.6221 52.9007 40.1603C51.9705 43.6984 49.6604 44.9554 48.7301 47.9193C47.7998 50.8833 50.3891 52.2023 48.42 54.2817C46.451 56.3612 43.6292 57.106 43.4121 61.6839C43.3189 62.946 43.6194 64.206 44.272 65.29C44.9246 66.374 45.8972 67.2286 47.0556 67.7359H104.422C104.422 67.7359 106.918 61.5287 105.677 58.6578C104.437 55.787 101.817 56.687 101.615 54.0024C101.414 51.3178 102.545 50.247 101.398 47.7952C100.251 45.3433 97.9252 46.1037 97.2585 43.4967C96.5918 40.8896 97.5376 22.4852 95.8011 14.5089C94.2507 7.30848 88.018 3.14964 82.576 4.39108Z" fill="#142033"/>
<path d="M109.073 139.756C109.073 139.756 98.2197 146.165 77.754 147.251C64.9012 147.732 52.1061 145.297 40.3267 140.128L41.598 120.467L42.3732 108.502L106.856 107.401L107.739 120.467L109.073 139.756Z" fill="#F6AA99"/>
<path d="M107.739 120.467H41.5981L42.3734 108.487L106.856 107.401L107.739 120.467Z" fill="#F3877C"/>
<path d="M75.1647 124.579C75.1647 124.579 72.6995 129.669 74.8856 133.766C77.8624 130.368 75.1647 124.579 75.1647 124.579Z" fill="#EE6066"/>
<path d="M63.4895 358.406C61.2879 329.356 63.66 287.969 64.4042 255.242C70.4664 232.275 72.8076 184.138 72.8076 184.138C71.9238 176.689 63.8926 155.134 39.1012 157.322L39.0082 157.555C34.9306 166.866 33.5197 179.28 33.5817 192.579C33.5817 210.208 36.357 229.419 38.9462 245.248C34.729 258.252 30.5119 271.256 32.8685 288.807C35.2252 306.358 47.5201 327.525 47.179 346.1C47.1177 348.043 46.7943 349.969 46.2177 351.826C45.2191 355.196 43.2508 358.197 40.5586 360.454C35.2717 364.846 26.7598 369.951 25.0544 371.519C24.5911 371.846 24.1986 372.263 23.9002 372.746C23.6018 373.228 23.4038 373.766 23.3179 374.327H48.7139C55.4118 374.327 53.5357 373.132 56.3575 370.712C57.9079 369.455 60.7452 370.51 63.1019 369.827C64.9004 369.284 64.7763 366.646 64.1562 362.518C63.9546 361.308 63.598 359.927 63.4895 358.406Z" fill="#F6AA99"/>
<path d="M42.6206 373.148H39.6593C39.3802 373.148 39.7833 372.232 40.8221 372.124C42.2175 371.984 42.9152 372.931 42.6206 373.148Z" fill="#FFC5BB"/>
<path d="M36.8534 373.148H33.892C33.5975 373.148 34.0161 372.232 35.0394 372.124C36.4347 371.984 37.1324 372.931 36.8534 373.148Z" fill="#FFC5BB"/>
<path d="M31.7059 373.148H28.7446C28.45 373.148 28.8686 372.387 29.8919 372.31C31.2563 372.186 31.985 372.961 31.7059 373.148Z" fill="#FFC5BB"/>
<path d="M26.8996 373.148H24.2018C23.9382 373.148 24.3103 372.387 25.2406 372.31C26.605 372.186 27.1631 372.961 26.8996 373.148Z" fill="#FFC5BB"/>
<path d="M63.1023 369.874C60.7456 370.556 57.9238 369.61 56.3579 370.758C59.5983 367.313 59.7534 363.263 64.1101 362.564C64.7767 366.692 64.9008 369.33 63.1023 369.874Z" fill="#F3877C"/>
<path d="M49.8611 365.202C50.1484 365.165 50.4402 365.22 50.6943 365.359C50.9483 365.499 51.1513 365.716 51.274 365.979C51.3966 366.241 51.4325 366.536 51.3764 366.821C51.3202 367.105 51.1751 367.365 50.9619 367.561L50.8224 367.67C48.9283 369.015 47.1448 370.509 45.4889 372.139C44.9803 372.776 44.6871 373.559 44.6517 374.374H42.7446C42.8057 373.702 43.0279 373.055 43.3923 372.488C43.7567 371.92 44.2525 371.449 44.8377 371.115C46.3881 370.013 50.1557 367.546 50.6363 366.459C50.9464 365.746 49.8766 365.265 49.8766 365.265L49.8611 365.202Z" fill="#EE6066"/>
<path d="M47.21 372.496H52.2178C52.3341 372.301 52.396 372.079 52.3974 371.852C52.3987 371.625 52.3394 371.401 52.2255 371.205C52.1116 371.009 51.9474 370.846 51.7497 370.735C51.5521 370.624 51.3283 370.567 51.1015 370.572C49.241 370.292 47.4425 371.224 47.21 372.496Z" fill="#FFC5BB"/>
<path d="M46.7606 366.429C46.7606 366.429 46.7606 367.887 43.3962 369.92C40.8534 371.472 38.5588 373.024 38.2177 374.374H36.0781C36.9929 373.057 38.1635 371.938 39.5201 371.084C42.2023 369.3 45.7373 368.136 46.7606 366.429Z" fill="#EE6066"/>
<path d="M39.4116 368.213C38.6209 368.942 35.2565 371.316 33.9696 372.325C33.305 372.848 32.8177 373.563 32.5742 374.374H31.2563C31.8455 371.86 35.7836 370.153 39.4116 368.213Z" fill="#EE6066"/>
<path d="M34.5899 368.213C33.8147 368.942 30.4348 371.316 29.1634 372.325C28.5017 372.854 28.0108 373.567 27.7526 374.374H26.4502C27.0239 371.86 30.9619 370.153 34.5899 368.213Z" fill="#EE6066"/>
<path d="M55.536 183.47C54.9003 187.675 48.9002 193.836 41.4581 194.472C38.6934 194.754 35.9143 194.098 33.5664 192.61C33.5664 179.342 34.9153 166.959 38.9929 157.586C42.8535 158.129 47.3807 159.339 49.7219 161.931C54.0786 166.866 56.1872 179.28 55.536 183.47Z" fill="#F3877C"/>
<path d="M44.838 246.35C43.1791 248.413 46.5435 262.38 51.1328 261.309C56.3577 260.44 60.4354 249.096 58.3578 246.52C56.6368 244.301 47.4428 243.091 44.838 246.35Z" fill="#F3877C"/>
<path d="M39.5046 138.468L110.127 138.793L114.173 162.071C114.173 162.071 89.6455 167.657 77.9087 184.215H72.8078C72.8078 184.215 57.9857 164.429 37.1479 163.638C38.2177 144.256 39.5046 138.468 39.5046 138.468Z" fill="#213555"/>
<path d="M97.3512 57.8823C97.3512 57.8823 110.452 61.8239 116.22 69.5519C121.987 77.2799 145.818 103.506 148.438 122.515C147.787 133.005 129.321 160.395 119.228 172.98C109.538 165.516 108.886 165.112 108.886 165.112L123.677 122.251C111.631 102.326 106.421 94.2257 106.421 94.2257C106.421 94.2257 97.6147 90.2686 95.6612 83.363C93.7076 76.4575 94.824 58.4099 97.3512 57.8823Z" fill="#F6AA99"/>
<path d="M111.522 162.971C107.947 163.667 104.447 164.706 101.072 166.074C99.1338 167.223 97.3353 174.252 96.5911 175.277C95.8469 176.301 94.0019 177.651 94.1879 178.489C94.374 179.327 96.374 179.342 98.033 178.209C99.6919 177.077 113.181 168.03 111.522 162.971Z" fill="#EE6066"/>
<path d="M94.8246 184.727C95.3672 185.457 95.8013 185.922 97.1967 184.324C98.065 183.331 100.019 179.668 101.708 176.922C102.338 175.91 103.256 175.11 104.344 174.625C104.424 174.585 104.515 174.573 104.603 174.591C104.69 174.608 104.769 174.654 104.828 174.722C104.886 174.789 104.921 174.874 104.926 174.963C104.931 175.053 104.906 175.141 104.856 175.215C102.561 179.11 98.9797 185.891 99.1348 186.357C99.3983 187.086 100.577 187.21 101.553 186.264C102.143 185.705 105.228 181.608 107.244 178.877C107.325 178.766 107.44 178.684 107.572 178.644C107.704 178.604 107.845 178.607 107.975 178.655C108.104 178.702 108.215 178.79 108.29 178.906C108.365 179.021 108.4 179.158 108.391 179.296C108.405 179.414 108.405 179.534 108.391 179.653C108.081 180.941 103.15 189.507 103.879 190.174C106.127 192.253 109.445 185.72 110.887 183.362C111.406 182.166 112.191 181.105 113.182 180.258C113.249 180.199 113.336 180.167 113.425 180.166C113.514 180.166 113.601 180.198 113.669 180.257C113.737 180.315 113.781 180.396 113.794 180.485C113.807 180.573 113.788 180.664 113.74 180.739C112.003 184.215 108.22 190.143 108.856 190.671C110.065 191.648 111.957 189.662 114.453 186.108C116.864 182.599 118.842 178.811 120.345 174.827C121.02 173.045 121.059 171.083 120.454 169.276C119.85 167.468 118.638 165.926 117.027 164.911C115.35 163.873 113.475 163.197 111.523 162.924C106.003 163.219 100.67 170.326 100.018 171.63C98.3905 174.811 94.4059 183.532 94.8246 184.727Z" fill="#F6AA99"/>
<path d="M51.0866 57.2307C51.0866 57.2307 37.9855 61.1723 32.2179 68.9003C26.4503 76.6283 2.62023 102.854 0 121.864C0.65118 132.354 19.1168 159.743 29.2101 172.328C38.9003 164.864 39.5514 164.461 39.5514 164.461L24.7604 121.6C36.8072 101.675 42.0166 93.5741 42.0166 93.5741C42.0166 93.5741 50.8231 89.617 52.7766 82.7114C54.7302 75.8059 53.5673 57.7583 51.0866 57.2307Z" fill="#F6AA99"/>
<path d="M36.9155 162.909C40.4902 163.605 43.9897 164.644 47.3654 166.012C51.35 168.371 49.0398 171.428 51.8461 175.215C52.6058 176.223 54.4353 177.589 54.2493 178.427C54.0632 179.265 52.0632 179.28 50.4042 178.147C48.7452 177.015 35.2565 167.952 36.9155 162.909Z" fill="#EE6066"/>
<path d="M53.6441 184.665C53.1015 185.394 52.6673 185.86 51.2719 184.261C50.4037 183.268 48.4502 179.606 46.7602 176.859C46.1126 175.866 45.1843 175.088 44.0935 174.625C44.0135 174.585 43.9226 174.573 43.8351 174.59C43.7476 174.608 43.6683 174.654 43.6098 174.722C43.5513 174.789 43.5168 174.874 43.5117 174.963C43.5066 175.052 43.5313 175.141 43.5818 175.214C45.8765 179.094 49.4579 185.891 49.3029 186.356C49.0393 187.086 47.861 187.21 46.8842 186.263C46.2951 185.705 43.2097 181.608 41.1942 178.861C41.1122 178.748 40.9955 178.665 40.8618 178.625C40.7282 178.585 40.5851 178.59 40.4546 178.64C40.3242 178.689 40.2136 178.78 40.1399 178.899C40.0662 179.017 40.0335 179.157 40.0468 179.296C40.0331 179.414 40.0331 179.534 40.0468 179.653C40.3569 180.941 45.2873 189.507 44.5586 190.174C42.3105 192.253 38.9925 185.72 37.5506 183.361C36.8647 181.86 35.9377 180.481 34.8064 179.28C34.7365 179.238 34.655 179.219 34.5736 179.226C34.4923 179.233 34.4151 179.265 34.3532 179.318C34.2914 179.372 34.2479 179.443 34.229 179.523C34.2102 179.602 34.2169 179.686 34.2482 179.761C36.0002 183.237 40.2174 190.081 39.5817 190.624C38.3724 191.602 36.4808 189.615 33.9847 186.062C31.5737 182.552 29.5955 178.764 28.093 174.78C27.4193 172.995 27.3814 171.032 27.9859 169.223C28.5904 167.414 29.8002 165.868 31.4109 164.848C33.0921 163.823 34.9652 163.152 36.915 162.878C39.7213 162.21 47.768 170.28 48.4192 171.583C50.0471 174.749 54.0317 183.47 53.6441 184.665Z" fill="#F6AA99"/>
<path d="M95.1652 82.1987C95.1652 82.1987 79.6609 90.9819 74.3739 91.1371C69.0869 91.2923 53.6602 83.7349 53.6602 83.7349C53.6602 83.7349 54.0633 71.1343 55.9238 55.6938C59.8309 54.142 64.2186 52.0315 65.5985 50.3245C66.2962 49.44 66.5907 46.6778 66.6993 44.1173C66.8078 41.5568 66.6993 39.586 66.6993 39.586L82.8702 39.0273C82.8702 39.0273 82.7772 42.0068 83.0098 45.0794C83.1958 47.6554 83.6144 50.2935 84.5602 51.2866C86.5138 53.4747 93.6612 55.942 93.6612 55.942L95.1652 82.1987Z" fill="#F6AA99"/>
<path d="M76.2187 89.1667C76.138 84.7982 75.7807 80.4392 75.1489 76.116C74.5066 80.435 74.2369 84.8013 74.3427 89.1667H76.2187Z" fill="#EE6066"/>
<path d="M83.0407 45.1578C80.7616 47.4079 77.8313 49.627 75.1336 49.627C71.3505 49.627 68.2341 46.2595 66.6992 44.1956C66.7922 41.8059 66.6992 39.6644 66.6992 39.6644L82.8702 39.1057C82.8702 39.1057 82.8082 42.0852 83.0407 45.1578Z" fill="#EE6066"/>
<path d="M61.4897 58.1154C65.7525 59.5011 70.1889 60.2795 74.6684 60.4276C79.2156 60.2087 83.7069 59.3306 88.0021 57.8206L61.4897 58.1154Z" fill="#F3877C"/>
<path d="M58.234 53.8164V58.4718C58.1482 63.7114 59.468 68.878 62.0559 73.4334C64.6438 77.9887 68.405 81.766 72.9475 84.3715C73.6452 84.7595 74.2809 85.1629 74.8546 85.5354C74.9653 85.6075 75.0945 85.6459 75.2267 85.6459C75.3588 85.6459 75.488 85.6075 75.5988 85.5354C80.1261 82.8831 83.8567 79.0602 86.3992 74.4676C88.9417 69.875 90.2023 64.6822 90.0488 59.4339L89.8782 53.8785L98.5451 57.5252C98.5451 57.5252 97.8009 82.4628 106.499 94.1479L109.026 114.725H40.8071L42.0475 94.0238C42.0475 94.0238 49.1794 86.5285 49.5981 57.3235C53.6292 56.051 58.234 53.8164 58.234 53.8164Z" fill="#213555"/>
<path d="M62.8544 27.4357C62.6838 27.3116 60.3427 22.4079 57.6139 22.2837C54.8852 22.1596 55.2728 26.3339 55.7844 27.5133C56.2961 28.6927 57.3348 32.0446 60.3427 32.9291C61.5666 32.8403 62.7098 32.2849 63.5366 31.3773L62.8544 27.4357Z" fill="#F6AA99"/>
<path d="M57.0091 26.8619C57.0091 26.7067 55.9858 24.2393 57.4587 23.8514C58.9316 23.4634 61.4123 27.0946 62.5906 28.3051C61.5363 28.3051 60.1255 27.9481 60.1565 28.9568C60.1875 29.9655 61.7999 31.0983 63.2573 31.0362C61.8619 31.7035 61.3038 32.1535 60.2805 31.9053C59.2572 31.657 58.2029 30.0431 58.2029 30.0431C58.559 30.4741 59.0198 30.8061 59.5412 31.0072C60.0625 31.2083 60.6268 31.2717 61.1798 31.1914C59.5208 30.3224 58.2649 28.3671 59.4433 27.855C59.7891 27.7086 60.1608 27.6332 60.5363 27.6332C60.9118 27.6332 61.2835 27.7086 61.6294 27.855C61.6294 27.855 59.7379 25.4808 58.5285 25.2014C57.3192 24.9221 57.0091 26.8619 57.0091 26.8619Z" fill="#F3877C"/>
<path d="M59.6296 27.0787C59.6296 27.0787 58.6218 27.0787 58.4048 27.6373C58.2973 27.9782 58.2666 28.3387 58.3148 28.6929C58.3631 29.047 58.4891 29.3861 58.6838 29.6857C57.1179 28.3201 57.1799 26.2562 59.6296 27.0787Z" fill="#F3877C"/>
<path d="M87.4131 27.4357C87.5837 27.3116 89.9248 22.4079 92.6536 22.2837C95.3824 22.1596 94.9947 26.3339 94.4831 27.5133C93.9715 28.6927 92.9327 32.0446 89.9248 32.9291C88.7009 32.8403 87.5577 32.2849 86.731 31.3773L87.4131 27.4357Z" fill="#F6AA99"/>
<path d="M93.2736 26.8619C93.2736 26.7067 94.2969 24.2393 92.824 23.8514C91.3511 23.4634 88.8859 27.0946 87.6921 28.3051C88.7619 28.3051 90.1728 27.9481 90.1262 28.9568C90.0797 29.9655 88.5758 31.0983 87.0254 31.0362C88.4363 31.7035 88.9789 32.1535 90.0022 31.9053C91.0255 31.657 92.0953 30.0431 92.0953 30.0431C91.7368 30.4753 91.2733 30.808 90.7492 31.0091C90.2252 31.2102 89.6583 31.273 89.103 31.1914C90.7774 30.3224 92.0333 28.3671 90.8394 27.855C90.4934 27.7095 90.1218 27.6345 89.7464 27.6345C89.371 27.6345 88.9994 27.7095 88.6533 27.855C88.6533 27.855 90.5449 25.4808 91.7542 25.2014C92.9635 24.9221 93.2736 26.8619 93.2736 26.8619Z" fill="#F3877C"/>
<path d="M90.6221 27.0787C90.6221 27.0787 91.6299 27.0787 91.8469 27.6373C91.9577 27.9777 91.9901 28.3388 91.9418 28.6935C91.8935 29.0483 91.7656 29.3874 91.5678 29.6857C93.1338 28.3201 93.0717 26.2562 90.6221 27.0787Z" fill="#F3877C"/>
<path d="M61.397 22.7498C61.397 22.7498 61.5055 31.5486 62.9474 35.785C64.2343 39.7731 68.2344 43.544 73.9555 45.2045C74.6903 45.4137 75.4688 45.4137 76.2036 45.2045C78.5587 44.5767 80.7492 43.4438 82.6232 41.8843C84.4973 40.3247 86.01 38.3759 87.0566 36.1729C88.235 31.7566 88.8651 27.2118 88.9326 22.6412C86.762 19.1806 79.8626 16.915 79.475 13.3303C76.9788 16.2477 61.6916 16.6357 61.397 22.7498Z" fill="#F6AA99"/>
<path d="M77.0869 24.6738C78.4458 24.1416 79.8459 23.7212 81.2731 23.4168C82.736 23.1964 84.2124 23.0771 85.6918 23.0599C84.5094 22.4676 83.2145 22.1343 81.8933 22.0823C80.4472 22.0602 79.012 22.3349 77.6761 22.8892C77.4164 23.4612 77.2188 24.0595 77.0869 24.6738Z" fill="#321E41"/>
<path d="M77.9707 26.5047C78.5621 25.8152 79.3532 25.327 80.2343 25.108C81.4561 24.8092 82.7204 24.7252 83.9709 24.8597C82.9881 24.464 81.9236 24.3148 80.87 24.4252C80.2375 24.4539 79.6269 24.6656 79.1123 25.0347C78.5977 25.4038 78.2011 25.9144 77.9707 26.5047Z" fill="#F3877C"/>
<path d="M77.8779 28.9722C78.1772 28.9926 78.4734 29.0446 78.7617 29.1274C79.8657 29.5107 81.0593 29.5539 82.1881 29.2515C82.8506 29.0125 83.4561 28.6378 83.966 28.1516C84.4759 27.6653 84.8789 27.0781 85.1494 26.4272C81.847 27.2032 78.4051 28.1963 77.8779 28.9722Z" fill="#F3877C"/>
<path d="M85.1494 26.4274C84.2486 27.5672 83.0028 28.384 81.599 28.7551C80.6797 28.9025 79.7429 28.9025 78.8237 28.7551C78.5257 28.7298 78.2263 28.7833 77.9555 28.9103H77.8779C77.9012 28.5934 77.9637 28.2807 78.064 27.9792C78.2389 27.3919 78.5588 26.8582 78.9942 26.4274C79.383 26.0735 79.8509 25.8181 80.3586 25.6825C81.3214 25.4483 82.3262 25.4483 83.2889 25.6825C83.9387 25.8492 84.5641 26.0996 85.1494 26.4274Z" fill="white"/>
<path d="M81.7544 28.3051C81.459 28.376 81.1524 28.3871 80.8527 28.3378C80.5529 28.2884 80.266 28.1796 80.0089 28.0176C79.7518 27.8557 79.5296 27.644 79.3554 27.3949C79.1812 27.1457 79.0586 26.8643 78.9946 26.5671C79.3834 26.2132 79.8513 25.9578 80.359 25.8222C81.3217 25.5879 82.3266 25.5879 83.2893 25.8222C83.3986 26.354 83.3005 26.9074 83.015 27.3691C82.7296 27.8307 82.2786 28.1656 81.7544 28.3051Z" fill="#321E41"/>
<path d="M80.7772 25.3564C79.9594 25.5474 79.2292 26.0075 78.7036 26.663C78.1779 27.3186 77.8872 28.1316 77.8779 28.9721C78.0551 28.235 78.4425 27.5654 78.9931 27.0447C79.5436 26.524 80.2335 26.1746 80.9788 26.0392C82.3841 25.7052 83.86 25.8415 85.1805 26.4272L86.1572 25.5737C84.4037 25.0927 82.5637 25.0184 80.7772 25.3564Z" fill="#321E41"/>
<path d="M83.9712 26.8464C83.9712 26.4274 82.0332 26.4739 82.0952 26.8464C82.1572 27.2188 83.9712 27.2033 83.9712 26.8464Z" fill="white"/>
<path d="M72.8231 24.6738C71.469 24.1431 70.0743 23.7228 68.6525 23.4168C67.1844 23.1961 65.7028 23.0769 64.2183 23.0599C65.4054 22.4654 66.7058 22.1321 68.0323 22.0823C69.4783 22.0602 70.9136 22.3349 72.2495 22.8892C72.5086 23.4601 72.701 24.0589 72.8231 24.6738Z" fill="#321E41"/>
<path d="M72.3739 29.2823C72.0747 29.3026 71.7785 29.3547 71.4902 29.4375C70.3859 29.8198 69.1927 29.863 68.0637 29.5616C67.3979 29.3252 66.789 28.9517 66.2762 28.4653C65.7635 27.9788 65.3583 27.3902 65.0869 26.7373C68.4668 27.4511 71.8468 28.5064 72.3739 29.2823Z" fill="#F3877C"/>
<path d="M65.0869 26.7372C65.9893 27.8721 67.2352 28.6834 68.6374 29.0494C69.5567 29.1955 70.4933 29.1955 71.4127 29.0494C71.7144 29.0172 72.0193 29.0654 72.2964 29.1891C72.2724 28.876 72.2046 28.5678 72.0948 28.2735C71.9225 27.6851 71.6022 27.1509 71.1646 26.7217C70.7799 26.3705 70.3177 26.1152 69.8157 25.9769C68.8466 25.7522 67.839 25.7522 66.8699 25.9769C66.2474 26.1583 65.6489 26.4136 65.0869 26.7372Z" fill="white"/>
<path d="M68.4664 28.6313C68.763 28.7043 69.0713 28.7164 69.3727 28.6671C69.674 28.6177 69.9623 28.5078 70.2202 28.3439C70.478 28.1801 70.7001 27.9658 70.873 27.7138C71.0458 27.4618 71.166 27.1774 71.2262 26.8777C70.8415 26.5265 70.3793 26.2712 69.8773 26.1329C68.9082 25.9082 67.9006 25.9082 66.9315 26.1329C66.8293 26.6659 66.9301 27.218 67.2142 27.6804C67.4983 28.1428 67.945 28.482 68.4664 28.6313Z" fill="#321E41"/>
<path d="M71.4121 29.0962C71.7138 29.064 72.0187 29.1122 72.2959 29.2359C72.2719 28.9227 72.204 28.6145 72.0943 28.3203C71.9331 28.6305 71.699 28.8967 71.4121 29.0962Z" fill="#EE6066"/>
<path d="M69.4747 25.6512C70.2926 25.8422 71.0227 26.3023 71.5484 26.9578C72.074 27.6133 72.3647 28.4264 72.374 29.2669C72.1968 28.5298 71.8094 27.8602 71.2589 27.3395C70.7083 26.8187 70.0184 26.4694 69.2732 26.334C67.8671 26.0113 66.3948 26.1473 65.0715 26.722L64.0947 25.884C65.8469 25.3968 67.6871 25.3171 69.4747 25.6512Z" fill="#321E41"/>
<path d="M72.2805 26.8154C71.6892 26.126 70.898 25.6378 70.0169 25.4188C68.8189 25.1369 67.5829 25.0531 66.3579 25.1705C67.3407 24.7748 68.4052 24.6256 69.4588 24.736C70.0761 24.7845 70.6676 25.005 71.1663 25.3725C71.665 25.74 72.0509 26.2398 72.2805 26.8154Z" fill="#F3877C"/>
<path d="M69.6138 27.8552C69.6138 27.4362 71.5518 27.4673 71.4898 27.8552C71.4278 28.2432 69.6293 28.2742 69.6138 27.8552Z" fill="white"/>
<path d="M72.1567 31.3775C72.2808 31.4706 74.2033 33.0534 75.4126 33.0224C76.622 32.9914 78.405 31.2068 78.405 31.2068C77.4459 31.6036 76.4483 31.9001 75.4281 32.0913C74.3165 31.9641 73.2204 31.7249 72.1567 31.3775Z" fill="#EE6066"/>
<path d="M70.6221 35.4899C72.2142 36.6354 74.181 37.1345 76.1261 36.8866C77.0263 36.7494 77.8876 36.4243 78.6542 35.9324C79.4208 35.4405 80.0755 34.7927 80.5758 34.0312C77.5615 35.7597 74.0049 36.2809 70.6221 35.4899Z" fill="#EE6066"/>
<path d="M73.6602 38.547C74.4533 38.7889 75.2909 38.8473 76.1098 38.7177C76.861 38.5889 77.5783 38.3091 78.2184 37.8953C78.0122 38.3066 77.7102 38.6624 77.3378 38.9325C76.9654 39.2025 76.5336 39.379 76.0788 39.4471C75.6331 39.503 75.1804 39.4503 74.7593 39.2936C74.3382 39.1369 73.9612 38.8808 73.6602 38.547Z" fill="#F3877C"/>
</g>
<defs>
<clipPath id="clip0_223_17">
<rect width="829.108" height="533.108" fill="white"/>
</clipPath>
</defs>
</svg>
