<svg width="811" height="508" viewBox="0 0 811 508" fill="none" xmlns="http://www.w3.org/2000/svg">
<g clip-path="url(#clip0_223_2147)">
<path d="M611.305 200.527C578.293 155.429 531.897 121.93 478.744 104.817C425.59 87.703 368.397 87.8489 315.331 105.234C262.266 122.618 216.041 156.352 183.259 201.619C150.476 246.886 132.812 301.37 132.789 357.292C132.789 357.292 203.919 356.984 294.053 356.692C294.895 329.784 306.144 304.256 325.425 285.5C344.706 266.743 370.509 256.225 397.387 256.166C424.265 256.107 450.114 266.512 469.477 285.184C488.839 303.856 500.199 329.334 501.159 356.238C591.79 356.238 655.465 357.277 662.438 357.277C662.534 300.9 644.616 245.972 611.305 200.527Z" fill="#6B6B6B"/>
<path d="M605.385 204.861C573.29 160.999 528.177 128.418 476.491 111.772C424.804 95.1253 369.187 95.2647 317.584 112.17C265.98 129.076 221.031 161.882 189.156 205.904C157.281 249.926 140.111 302.911 140.098 357.292C140.098 357.292 209.269 356.984 296.904 356.706C297.473 330.369 308.303 305.299 327.08 286.852C345.857 268.405 371.091 258.045 397.392 257.984C423.694 257.922 448.976 268.166 467.838 286.525C486.7 304.884 497.646 329.903 498.338 356.237C586.396 356.237 649.633 357.248 655.159 357.248C655.231 302.433 637.789 249.034 605.385 204.861Z" fill="#E6E6E6"/>
<path d="M89.534 51.0542C89.534 51.0542 99.9126 53.6604 100.278 63.3236C100.644 72.9869 103.319 93.4261 103.962 97.76C105.424 103.734 108.552 108.624 109.107 118.097C109.663 127.57 103.26 156.164 103.772 159.253C105.424 164.964 106.622 173.704 97.9246 177.394C90.5426 135.227 83.9353 62.3573 89.534 51.0542Z" fill="#F3877C"/>
<path d="M18.638 158.829C18.638 158.829 9.63343 153.294 10.452 151.171C11.2706 149.048 19.0473 156.296 20.4214 156.706C15.159 150.351 13.4487 146.735 14.8812 146.589C16.3138 146.442 22.0586 154.319 22.0586 154.319C22.0586 154.319 16.46 145.3 17.4101 144.539C18.3603 143.777 24.2367 152.401 24.2367 152.401C24.2367 152.401 24.1636 158.141 18.638 158.829Z" fill="#EE6066"/>
<path d="M49.9925 48.067C49.9925 48.067 47.8583 53.5575 45.4025 59.6776C42.9467 65.7976 39.95 73.0012 38.6637 75.3291C37.8597 76.7933 35.4623 80.2925 32.5826 84.3628C26.487 92.9865 18.1986 104.202 18.1986 104.202C18.1986 104.202 24.8205 128.609 30.1999 142.694C31.0039 145.329 29.2936 150.483 23.3441 149.795C9.2671 133.982 -0.219897 108.096 -0.0444828 104.202C8.30233 84.3921 22.277 67.5985 29.1182 59.4872C34.3952 53.2354 49.744 48.0377 49.9925 48.067Z" fill="#F6AA99"/>
<path d="M45.4029 59.6782C42.8448 66.0033 39.9504 73.0018 38.664 75.3298C37.8601 76.7939 35.4627 80.2932 32.583 84.3635C33.9425 66.4864 36.7637 60.6006 36.9684 60.0003L45.4029 59.6782Z" fill="#F3877C"/>
<path d="M30.2008 142.694C30.8437 143.937 31.2354 145.294 31.3533 146.689C31.4712 148.083 31.313 149.487 30.8879 150.82C29.4261 155.213 23.7982 162.973 20.6553 162.621C17.5125 162.27 8.69791 157.116 8.53711 154.949C10.379 153.485 15.6414 158.273 18.945 158.273C22.7311 152.885 22.2633 146.823 24.4414 145.564C26.6194 144.305 30.2008 142.694 30.2008 142.694Z" fill="#F6AA99"/>
<path d="M30.1568 184.935C30.1568 184.935 30.1568 189.591 30.2737 197.263C30.3907 208.976 30.5661 227.497 30.7415 247.248C22.6432 273.69 35.2584 299.181 33.9136 328.522V329.005C33.5774 334.613 32.8173 338.039 27.6425 342.9C22.4678 347.761 14.5741 353.163 12.9223 354.774C12.0145 355.543 11.4256 356.624 11.2705 357.804H35.4046C41.7342 357.804 39.9654 356.516 42.6259 353.925C44.0876 352.578 46.7773 353.705 48.9993 352.973C50.7095 352.402 50.5926 349.561 50.0079 345.14C49.8179 343.807 49.5694 342.314 49.3647 340.747C48.9718 336.714 48.7864 332.662 48.8092 328.61C49.3355 308.2 52.1567 255.74 52.1567 255.74L59.1587 197.058L60.6205 185.345L30.1568 184.935Z" fill="#F6AA99"/>
<path d="M29.6451 356.53H26.8384C26.5753 356.53 26.9554 355.564 27.9348 355.446C29.2504 355.285 29.9228 356.237 29.6451 356.53Z" fill="#F8BBB1"/>
<path d="M24.1778 356.53H21.3858C21.1081 356.53 21.5027 355.564 22.4675 355.446C23.7977 355.285 24.4555 356.237 24.1778 356.53Z" fill="#F8BBB1"/>
<path d="M19.3106 356.531H16.5186C16.2409 356.531 16.6355 355.725 17.6003 355.638C18.9306 355.506 19.5884 356.34 19.3106 356.531Z" fill="#F8BBB1"/>
<path d="M14.7639 356.531H12.2204C11.9719 356.531 12.3227 355.725 13.2144 355.638C14.3838 355.506 15.0124 356.34 14.7639 356.531Z" fill="#F8BBB1"/>
<path d="M48.9989 353.031C46.777 353.763 44.1165 352.739 42.6401 353.983C45.6953 350.293 45.8415 345.96 49.9491 345.198C50.5923 349.62 50.7092 352.46 48.9989 353.031Z" fill="#F3877C"/>
<path d="M36.5006 348.038C36.794 348.034 37.082 348.117 37.3272 348.279C37.5724 348.44 37.7634 348.672 37.8754 348.944C37.9873 349.215 38.0151 349.514 37.955 349.802C37.8949 350.09 37.7497 350.353 37.5384 350.557L37.4069 350.674C35.6037 352.135 33.9175 353.736 32.3637 355.461C31.8886 356.176 31.6158 357.005 31.5743 357.863H29.7617C29.8025 357.167 30.0015 356.49 30.3436 355.884C30.6856 355.277 31.1616 354.757 31.7351 354.363C33.1969 353.177 36.7783 350.542 37.2315 349.312C37.5092 348.536 36.5006 348.038 36.5006 348.038Z" fill="#EE6066"/>
<path d="M33.9722 355.842H38.723C38.723 355.842 39.4685 354.1 37.6559 353.778C36.8952 353.596 36.094 353.707 35.4114 354.089C34.7289 354.472 34.2151 355.098 33.9722 355.842Z" fill="#F8BBB1"/>
<path d="M33.519 349.342C33.519 349.342 33.519 350.894 30.3323 353.09C27.935 354.744 25.7569 356.37 25.4207 357.863H23.4473C24.277 356.468 25.3871 355.262 26.7071 354.32C29.2506 352.416 32.5834 351.172 33.519 349.342Z" fill="#EE6066"/>
<path d="M26.6045 351.26C25.859 352.036 22.6723 354.525 21.459 355.652C20.8099 356.241 20.3517 357.011 20.1434 357.863H18.8862C19.4417 355.169 23.1547 353.31 26.6045 351.26Z" fill="#EE6066"/>
<path d="M22.044 351.26C21.3132 352.036 18.1118 354.525 16.9132 355.652C16.2648 356.244 15.8026 357.012 15.5829 357.863H14.3843C14.8813 355.169 18.6088 353.31 22.044 351.26Z" fill="#EE6066"/>
<path d="M60.5623 185.271L59.1005 196.984L30.2156 197.277C30.2156 189.605 30.0986 184.949 30.0986 184.949L60.5623 185.271Z" fill="#F3877C"/>
<path d="M36.311 244.817C36.311 244.817 37.232 255.315 41.3834 255.242C45.0379 255.242 48.3562 250.425 47.713 245.447C47.0698 240.469 36.311 239.473 36.311 244.817Z" fill="#F3877C"/>
<path d="M99.3728 184.935C99.3728 184.935 99.3728 189.591 99.2559 197.263C99.139 208.976 98.9635 227.497 98.7881 247.248C106.872 273.69 94.2712 299.181 95.616 328.522V329.005C95.9523 334.613 96.6978 338.039 101.887 342.9C107.076 347.761 114.941 353.075 116.622 354.744C117.53 355.512 118.115 356.594 118.259 357.775H94.125C87.7955 357.775 89.5642 356.487 86.9038 353.895C85.442 352.548 82.7523 353.676 80.5304 352.944C78.8201 352.373 78.937 349.532 79.5218 345.11C79.7118 343.778 79.9603 342.285 80.1503 340.718C80.5567 336.685 80.747 332.634 80.7204 328.58C80.1942 308.17 77.3729 255.711 77.3729 255.711L70.371 197.058L68.9092 185.345L99.3728 184.935Z" fill="#F6AA99"/>
<path d="M99.8841 356.53H102.691C102.954 356.53 102.574 355.564 101.594 355.446C100.279 355.285 99.6064 356.237 99.8841 356.53Z" fill="#F8BBB1"/>
<path d="M105.351 356.53H108.143C108.421 356.53 108.026 355.564 107.061 355.446C105.731 355.285 105.015 356.237 105.351 356.53Z" fill="#F8BBB1"/>
<path d="M110.219 356.531H113.011C113.289 356.531 112.894 355.725 111.929 355.638C110.599 355.506 109.941 356.34 110.219 356.531Z" fill="#F8BBB1"/>
<path d="M114.751 356.531H117.309C117.557 356.531 117.207 355.725 116.315 355.638C115.116 355.506 114.502 356.34 114.751 356.531Z" fill="#F8BBB1"/>
<path d="M80.5298 353.031C82.7517 353.763 85.4122 352.739 86.8886 353.983C83.8335 350.293 83.6873 345.96 79.5797 345.198C78.9365 349.62 78.8195 352.46 80.5298 353.031Z" fill="#F3877C"/>
<path d="M93.0279 348.038C92.7345 348.034 92.4465 348.117 92.2013 348.279C91.9561 348.44 91.765 348.672 91.6531 348.944C91.5411 349.215 91.5134 349.514 91.5735 349.802C91.6336 350.09 91.7787 350.353 91.99 350.557L92.1216 350.674C93.9248 352.135 95.6109 353.736 97.1648 355.461C97.6399 356.176 97.9127 357.005 97.9541 357.863H99.7667C99.7259 357.167 99.5269 356.49 99.1849 355.884C98.8428 355.277 98.3669 354.757 97.7933 354.363C96.3315 353.177 92.7502 350.542 92.297 349.312C92.0193 348.536 93.0279 348.038 93.0279 348.038Z" fill="#EE6066"/>
<path d="M95.557 355.842H90.8062C90.8062 355.842 90.0606 354.1 91.8733 353.778C92.6339 353.596 93.4352 353.707 94.1177 354.089C94.8002 354.472 95.314 355.098 95.557 355.842Z" fill="#F8BBB1"/>
<path d="M96.0103 349.342C96.0103 349.342 96.0103 350.894 99.197 353.09C101.594 354.744 103.772 356.37 104.094 357.863H106.082C105.25 356.465 104.135 355.258 102.808 354.32C100.279 352.416 96.9458 351.172 96.0103 349.342Z" fill="#EE6066"/>
<path d="M102.925 351.26C103.67 352.036 106.857 354.525 108.056 355.652C108.71 356.239 109.174 357.009 109.386 357.863H110.643C110.088 355.169 106.36 353.31 102.925 351.26Z" fill="#EE6066"/>
<path d="M107.485 351.26C108.216 352.036 111.418 354.525 112.616 355.652C113.265 356.244 113.727 357.012 113.946 357.863H115.247C114.633 355.169 110.862 353.31 107.485 351.26Z" fill="#EE6066"/>
<path d="M68.9668 185.271L70.4286 196.984L99.3135 197.277C99.3135 189.605 99.4305 184.949 99.4305 184.949L68.9668 185.271Z" fill="#F3877C"/>
<path d="M93.2182 244.817C93.2182 244.817 92.2972 255.315 88.1458 255.242C84.4913 255.242 81.173 250.425 81.8162 245.447C82.4594 240.469 93.2328 239.473 93.2182 244.817Z" fill="#F3877C"/>
<path d="M94.3289 136.618C84.8152 141.988 74.0841 144.821 63.1636 144.847C45.3444 144.744 35.3896 136.618 35.3896 136.618C35.3896 136.618 35.6382 70.2198 35.6382 62.2988C35.6382 55.7542 39.585 51.8157 42.4793 50.9665C45.3737 50.1173 57.5942 44.5682 57.5942 44.5682L58.2374 38.2286L58.5736 34.129L73.0892 33.2798L73.4108 37.3647L73.9516 44.5097C73.9516 44.5097 85.9091 49.5316 89.5343 51.025C93.1595 52.5185 94.9867 55.6224 95.0891 61.274C95.1914 66.9255 94.3289 136.618 94.3289 136.618Z" fill="#F6AA99"/>
<path d="M73.4111 37.394C72.1858 39.2267 70.7535 40.9118 69.1427 42.416C68.4048 43.1003 67.4744 43.5405 66.4779 43.6767C65.4815 43.8129 64.4674 43.6386 63.5733 43.1773C61.5463 41.8187 59.7457 40.1486 58.2378 38.2286L58.574 34.129L73.0896 33.2798L73.4111 37.394Z" fill="#EE6066"/>
<path d="M52.858 78.0532C53.0042 76.4719 47.2594 75.9302 46.8208 78.0532C46.3823 80.1762 52.6388 80.6301 52.858 78.0532Z" fill="#EE6066"/>
<path d="M86.6104 78.0532C86.742 76.4719 80.9972 75.9302 80.5586 78.0532C80.1201 80.1762 86.3766 80.6301 86.6104 78.0532Z" fill="#EE6066"/>
<path d="M64.655 116.413C64.655 116.413 61.5853 122.269 64.8889 126.808C65.6776 125.181 66.0678 123.39 66.0271 121.582C65.9864 119.774 65.5161 118.002 64.655 116.413Z" fill="#EE6066"/>
<path d="M49.6133 50.8496C54.5384 52.4197 59.6225 53.4362 64.772 53.8804C70.5735 54.1195 76.3628 53.173 81.7872 51.0985C81.7872 51.0985 63.0179 52.8408 49.6133 50.8496Z" fill="#F3877C"/>
<path d="M96.6389 135.798H32.6711L27.6133 190.381H61.6729C62.1261 190.381 64.5965 177.394 64.5965 177.394C64.5965 177.394 67.1254 190.381 67.5201 190.381H101.58L96.6389 135.798Z" fill="#213555"/>
<path d="M81.0705 19.2675C81.1582 19.0333 82.24 13.8649 80.6759 10.4828C79.1117 7.10063 77.5915 6.19287 74.3463 4.91908C71.3935 -0.176097 63.4414 -1.39133 57.3165 1.62478C51.4693 4.55304 43.7072 14.1577 54.3929 24.7727C65.0786 35.3876 78.7024 26.6321 81.0705 19.2675Z" fill="#142033"/>
<path d="M54.5829 21.6401C54.5829 21.6401 53.852 18.4483 52.2732 17.8773C50.6945 17.3062 48.8527 19.971 49.262 22.05C49.5173 23.1215 50.001 24.125 50.6797 24.9918C51.3584 25.8586 52.2161 26.5682 53.1942 27.072C54.3782 27.4087 55.3576 26.0471 55.5477 25.1979C55.4269 23.9663 55.1008 22.7637 54.5829 21.6401Z" fill="#F3877C"/>
<path d="M51.5573 23.5722C51.0552 22.851 50.7618 22.0048 50.7095 21.1271C50.8264 20.1462 51.5719 18.9749 52.1713 19.0188C52.7706 19.0627 54.1301 22.0788 54.2032 22.5913C54.2762 23.1037 53.063 23.1183 53.2237 23.7479C53.3845 24.3775 54.247 24.9778 54.5101 25.3292C54.7732 25.6806 54.8171 26.0027 54.1008 26.1052C53.3845 26.2077 52.2297 24.7435 52.2297 24.7435C52.2297 24.7435 53.56 25.7538 53.9108 25.5049C54.2616 25.256 53.0191 24.3043 52.5659 23.6161C52.1128 22.928 53.5453 22.723 53.5015 22.3277C53.5015 22.2106 52.6537 20.1169 52.1128 20.1608C51.5719 20.2047 50.9287 21.3907 51.5573 23.5722Z" fill="#EE6066"/>
<path d="M52.5955 21.7568C52.3958 21.9633 52.248 22.2144 52.1641 22.4893C52.0803 22.7642 52.0628 23.0551 52.1131 23.3381C52.1836 23.831 52.4272 24.2826 52.8001 24.6119C52.4885 24.4598 52.2244 24.2253 52.0363 23.9337C51.8482 23.642 51.7433 23.3044 51.733 22.9574C51.717 22.6885 51.794 22.4222 51.9511 22.2035C52.1082 21.9848 52.3358 21.8271 52.5955 21.7568Z" fill="#EE6066"/>
<path d="M53.9987 18.0235C53.5888 18.509 53.375 19.1305 53.3993 19.7658C53.5036 21.2754 53.7038 22.7767 53.9987 24.2607C54.432 27.2786 55.2423 30.23 56.4106 33.0455C58.1682 35.1342 60.1989 36.9761 62.4478 38.5213C64.3054 39.104 66.3021 39.0628 68.1341 38.4042C68.982 37.9503 73.8351 34.6414 74.6245 33.3822C75.4139 32.1231 78.2643 21.8888 78.2643 21.8888C76.2617 22.1377 77.0218 19.5755 76.3932 18.536C75.7647 17.4964 74.5514 17.3354 73.762 16.8083C72.7823 16.1678 71.8798 15.4161 71.0723 14.5682C70.4525 14.0144 69.9534 13.3385 69.6063 12.5827C69.2592 11.8269 69.0716 11.0075 69.0551 10.1758L57.8285 15.5491C56.3972 16.1045 55.094 16.9464 53.9987 18.0235Z" fill="#F6AA99"/>
<path d="M67.1694 23.1623C67.1694 23.1623 67.5933 23.909 70.5462 23.9237C73.499 23.9383 74.493 22.5767 74.493 22.5767L67.7834 22.8109L67.1694 23.1623Z" fill="#F3877C"/>
<path d="M68.2947 20.747C67.8089 21.4081 67.5522 22.2102 67.5639 23.0311C68.9087 22.9286 71.2914 20.6299 71.2914 20.6299C70.2915 20.5458 69.2851 20.5852 68.2947 20.747Z" fill="#EE6066"/>
<path d="M68.2364 22.123C68.1633 22.123 67.1547 23.1479 67.2862 23.3676C67.4178 23.5872 67.9002 23.3676 67.9002 23.3676L68.2364 22.123Z" fill="#F3877C"/>
<path d="M67.7974 23.1484C67.7974 23.0313 68.2067 21.0547 69.2592 20.7619C70.3697 20.4615 71.5399 20.4615 72.6505 20.7619C73.5568 21.084 74.5216 22.5774 74.5216 22.5774C73.2813 22.9726 71.9925 23.1943 70.6917 23.2363C68.0166 23.3973 67.7974 23.1484 67.7974 23.1484Z" fill="white"/>
<path d="M72.2704 21.8304C72.2335 22.1829 72.0593 22.5066 71.7857 22.7313C71.512 22.9561 71.161 23.0637 70.8087 23.031C70.6273 23.0239 70.4493 22.9797 70.2856 22.9011C70.1219 22.8226 69.976 22.7113 69.8569 22.5741C69.7378 22.437 69.6479 22.2769 69.5929 22.1036C69.5379 21.9304 69.5188 21.7477 69.5369 21.5668C69.5739 21.2132 69.7476 20.8881 70.0207 20.6611C70.2939 20.434 70.6449 20.3229 70.9987 20.3516C71.1807 20.3606 71.359 20.4066 71.5227 20.4868C71.6865 20.5669 71.8322 20.6796 71.9512 20.8179C72.0701 20.9562 72.1597 21.1172 72.2146 21.2913C72.2695 21.4653 72.2885 21.6488 72.2704 21.8304Z" fill="#321E41"/>
<path d="M72.8549 22.4162C72.9426 22.0062 71.3931 21.7134 71.3931 22.1526C71.3931 22.5919 72.8549 22.6943 72.8549 22.4162Z" fill="white"/>
<path d="M67.7104 20.9517C69.071 20.8082 70.4429 20.8082 71.8035 20.9517C72.8196 21.2489 73.7447 21.7978 74.4932 22.5476C74.2799 22.0412 73.9628 21.5854 73.5624 21.2096C73.162 20.8338 72.6872 20.5464 72.1689 20.3661C71.425 20.155 70.646 20.0981 69.8794 20.1987C69.1128 20.2994 68.3748 20.5557 67.7104 20.9517Z" fill="#321E41"/>
<path d="M69.1719 19.8978C70.1912 19.7932 71.2204 19.8375 72.227 20.0296C72.8791 20.2455 73.4914 20.567 74.0396 20.9813C73.7114 20.4773 73.2711 20.0563 72.7533 19.7514C71.5736 19.4235 70.3209 19.4747 69.1719 19.8978Z" fill="#F3877C"/>
<path d="M62.375 17.4521C63.0034 18.1169 63.5216 18.8781 63.9098 19.7069C64.0523 20.5894 64.0523 21.4891 63.9098 22.3716L61.6587 18.3745L62.375 17.4521Z" fill="#F3877C"/>
<path d="M58.7928 18.5655C60.0499 18.5655 62.9151 18.8876 62.8858 18.8144C62.7999 18.333 62.6265 17.8715 62.3742 17.4528C60.6347 17.4528 59.4506 16.7793 57.9888 17.0867C56.9917 17.4036 56.161 18.104 55.6792 19.034C56.6997 18.7783 57.7423 18.6214 58.7928 18.5655Z" fill="#321E41"/>
<path d="M67.6957 17.4521C67.1898 18.165 66.7448 18.9192 66.3655 19.7069C66.0911 20.5539 66.0507 21.4595 66.2485 22.3277L68.0611 18.0232L67.6957 17.4521Z" fill="#F3877C"/>
<path d="M71.2773 18.5655C70.0202 18.5655 67.1551 18.8876 67.1843 18.8144C67.2702 18.333 67.4437 17.8715 67.6959 17.4528C69.4355 17.4528 70.6195 16.7793 72.0813 17.0867C73.0784 17.4036 73.9091 18.104 74.3909 19.034C73.3704 18.7783 72.3278 18.6214 71.2773 18.5655Z" fill="#321E41"/>
<path d="M62.623 25.9297C62.623 25.9297 64.2749 29.0483 65.1812 28.8579C66.0875 28.6676 67.5493 25.8418 67.5493 25.8418C66.7971 26.5248 65.8419 26.9414 64.8303 27.0278C64.0049 26.8806 63.2389 26.4995 62.623 25.9297Z" fill="#F3877C"/>
<path d="M65.0347 26.5739C65.9067 26.4306 66.7632 26.2051 67.5928 25.9004C66.9288 26.6479 66.0421 27.1613 65.0639 27.3645C64.0407 27.3645 62.652 25.9004 62.6666 25.9004C63.426 26.2195 64.2212 26.4457 65.0347 26.5739Z" fill="#EE6066"/>
<path d="M64.4355 24.9634C63.69 25.1391 63.8654 26.2518 64.9326 26.325C65.9997 26.3982 66.2774 25.5929 65.985 25.1391C65.7561 24.9961 65.4982 24.9062 65.2301 24.8758C64.9621 24.8454 64.6906 24.8753 64.4355 24.9634Z" fill="#F8BBB1"/>
<path d="M62.8711 34.1289C63.1402 33.7899 63.4861 33.5201 63.8802 33.3419C64.2742 33.1636 64.705 33.0821 65.1369 33.104C65.5917 33.0778 66.0457 33.1691 66.4552 33.3691C66.8647 33.569 67.2161 33.871 67.4757 34.246C65.9556 34.597 64.3715 34.5567 62.8711 34.1289Z" fill="#F3877C"/>
<path d="M62.8276 23.2941C62.8276 23.2941 62.3891 24.0701 59.4509 23.9968C58.7359 24.0727 58.0131 23.9797 57.3405 23.7255C56.6678 23.4712 56.0639 23.0627 55.5771 22.5327L62.2429 22.9866L62.8276 23.2941Z" fill="#F3877C"/>
<path d="M61.7902 20.7324C62.2556 21.4493 62.4856 22.294 62.448 23.1483C61.1177 23.0019 58.8081 20.5128 58.8081 20.5128C59.8073 20.4657 60.8086 20.5394 61.7902 20.7324Z" fill="#EE6066"/>
<path d="M61.8047 22.0791C61.8778 22.0791 62.8864 23.104 62.7549 23.309C62.6233 23.514 62.1555 23.309 62.1555 23.309L61.8047 22.0791Z" fill="#F3877C"/>
<path d="M62.199 23.2648C62.199 23.1476 61.8482 21.0539 60.8542 20.7318C59.7674 20.3737 58.6012 20.333 57.4921 20.6147C56.5712 20.9514 55.5771 22.4156 55.5771 22.4156C56.7945 22.8629 58.0694 23.134 59.3632 23.2208C61.9798 23.5137 62.199 23.2648 62.199 23.2648Z" fill="white"/>
<path d="M60.5766 21.6692C60.5876 21.9398 60.5186 22.2076 60.3783 22.4391C60.238 22.6705 60.0327 22.8554 59.788 22.9706C59.5433 23.0857 59.2701 23.126 59.0027 23.0864C58.7352 23.0468 58.4854 22.929 58.2845 22.7479C58.0835 22.5668 57.9404 22.3303 57.873 22.068C57.8056 21.8058 57.8169 21.5295 57.9056 21.2737C57.9942 21.0178 58.1562 20.7939 58.3713 20.6299C58.5864 20.4658 58.845 20.369 59.1148 20.3515C59.2977 20.3396 59.4811 20.3645 59.6542 20.4247C59.8273 20.4849 59.9867 20.5792 60.1229 20.7019C60.2591 20.8247 60.3694 20.9736 60.4473 21.1397C60.5252 21.3058 60.5692 21.4858 60.5766 21.6692Z" fill="#321E41"/>
<path d="M62.3598 21.0252C60.9929 20.8454 59.61 20.8208 58.2376 20.952C57.2436 21.2122 56.3294 21.7152 55.5771 22.4161C55.5771 22.4161 56.3957 20.5127 57.9452 20.2053C58.6968 20.0173 59.4799 19.9933 60.2415 20.1347C61.0031 20.2762 61.7255 20.5799 62.3598 21.0252Z" fill="#321E41"/>
<path d="M60.9278 19.8244C59.92 19.6727 58.8952 19.6727 57.8873 19.8244C57.2362 20.0358 56.6239 20.3523 56.0747 20.7614C56.4128 20.2554 56.8631 19.8345 57.3903 19.5315C58.5692 19.2323 59.814 19.3354 60.9278 19.8244Z" fill="#F3877C"/>
<path d="M61.161 22.2255C61.161 21.7863 59.6992 21.6692 59.6992 22.1377C59.6992 22.6062 61.161 22.533 61.161 22.2255Z" fill="white"/>
<path d="M77.3582 21.6842C77.3582 21.6842 78.1476 18.4924 79.6533 17.9213C81.1589 17.3503 83.0885 20.0297 82.6792 22.0941C82.4217 23.1708 81.9324 24.1781 81.2456 25.0455C80.5588 25.913 79.6911 26.6196 78.7031 27.1161C77.5044 27.4528 76.5396 26.0912 76.3496 25.2566C76.4826 24.0174 76.8236 22.8096 77.3582 21.6842Z" fill="#F6AA99"/>
<path d="M80.8807 23.6308C81.3786 22.902 81.6714 22.0523 81.7285 21.1711C81.5969 20.1901 80.8514 19.0188 80.2667 19.0627C79.682 19.1066 78.3079 22.1228 78.2495 22.6352C78.191 23.1476 79.375 23.1769 79.2142 23.8065C79.0534 24.4361 78.2056 25.0217 77.9279 25.3731C77.6501 25.7245 77.6209 26.0613 78.3518 26.1491C79.0827 26.237 80.1644 24.7875 80.1644 24.7875C80.1644 24.7875 78.8342 25.7977 78.4833 25.5488C78.1325 25.2999 79.375 24.3482 79.8282 23.6601C80.2813 22.9719 78.8488 22.767 78.8926 22.3863C78.8926 22.2545 79.7551 20.1755 80.2813 20.2047C80.8076 20.234 81.48 21.4346 80.8807 23.6308Z" fill="#EE6066"/>
<path d="M79.8287 21.8008C80.0285 22.0102 80.1764 22.2638 80.2602 22.541C80.344 22.8183 80.3614 23.1114 80.3111 23.3967C80.2449 23.8869 80.0002 24.3353 79.624 24.6558C79.9364 24.5032 80.2018 24.2689 80.3922 23.9777C80.5826 23.6865 80.6909 23.3492 80.7058 23.0014C80.7156 22.7316 80.6344 22.4664 80.4752 22.2486C80.3161 22.0308 80.0883 21.873 79.8287 21.8008Z" fill="#F3877C"/>
<path d="M61.5557 29.7365C62.5855 30.633 63.8905 31.1496 65.254 31.2007C66.3181 31.2482 67.3732 30.9859 68.2916 30.4454C69.21 29.905 69.9523 29.1095 70.4287 28.1553C69.1645 29.0719 67.7096 29.6903 66.1731 29.9641C64.6365 30.2379 63.058 30.1601 61.5557 29.7365Z" fill="#EE6066"/>
<path d="M730.733 59.4585C730.733 59.4585 702.886 67.804 695.723 86.1642C688.561 104.524 689.35 108.726 686.324 115.666C683.298 122.606 680.667 137.35 681.807 154.422C683.137 174.525 682.07 181.757 690.578 190.279C713.47 129.298 730.733 59.4585 730.733 59.4585Z" fill="#F6AA99"/>
<path d="M753.815 59.4585C753.815 59.4585 781.721 67.8626 788.811 86.1642C795.9 104.466 795.199 108.726 798.224 115.666C801.25 122.606 803.882 137.35 802.741 154.422C801.397 174.525 802.478 181.757 793.971 190.279C771.079 129.298 753.815 59.4585 753.815 59.4585Z" fill="#F6AA99"/>
<path d="M691.47 196.003C691.396 197.584 691.66 201.859 692.083 207.189C693.18 221.04 695.358 242.094 695.358 242.094C693.132 251.639 691.632 261.34 690.87 271.113C688.882 297.57 702.024 315.564 699.875 330.952C699.699 333.536 698.924 336.043 697.609 338.273C696.76 339.732 695.685 341.047 694.422 342.167C691.967 344.378 689.847 345.286 684.394 348.536C678.942 351.786 672.7 354.656 672.7 357.131C672.7 357.131 672.803 358.243 674.25 358.243H704.216C708.763 358.243 709.961 355.037 713.338 353.338C716.715 351.64 722.109 354.114 725.412 350.63C726.611 349.356 726.728 346.53 726.435 343.382C726.435 343.046 726.436 342.723 726.319 342.401C726.099 340.498 725.763 338.536 725.441 336.735C725.11 334.842 724.895 332.93 724.798 331.01C725.398 311.581 729.447 267.291 730.28 255.915C730.719 250.381 733.291 221.772 734.665 207.248C735.133 202.123 735.426 198.756 735.426 198.756C735.426 198.756 703.719 189.122 691.47 196.003Z" fill="#F6AA99"/>
<path d="M725.442 350.572C722.182 354.071 716.671 351.64 713.368 353.28C710.064 354.92 708.792 358.185 704.246 358.185C704.246 358.185 707.17 358.61 710.283 354.642C717.49 345.608 722.548 347.585 726.363 342.343C726.363 342.665 726.451 342.987 726.48 343.324C726.758 346.472 726.641 349.298 725.442 350.572Z" fill="#F3877C"/>
<path d="M707.973 345.725C707.03 347.633 705.683 349.312 704.026 350.645C701.205 352.797 698.384 354.188 697.053 355.476C696.357 356.206 695.965 357.175 695.957 358.185H693.589C693.737 357.198 694.135 356.266 694.744 355.476C696.074 353.822 698.53 352.899 701.585 350.967C703.88 349.433 706.02 347.677 707.973 345.725Z" fill="#EE6066"/>
<path d="M699.787 355.535C700.816 355.48 701.848 355.558 702.857 355.769C703.435 355.889 704.037 355.812 704.567 355.55C705.152 355.242 705.824 354.759 705.926 354.086C705.926 352.431 703.003 352.109 699.582 354.935C699.516 354.971 699.465 355.03 699.438 355.101C699.41 355.171 699.409 355.249 699.433 355.321C699.458 355.392 699.506 355.453 699.571 355.492C699.636 355.532 699.712 355.547 699.787 355.535Z" fill="#F8BBB1"/>
<path d="M697.17 350.967C694.7 353.222 690.914 355.227 689.73 356.34C689.144 356.794 688.752 357.453 688.633 358.185H687.171C687.254 357.619 687.454 357.076 687.759 356.592C688.063 356.108 688.466 355.693 688.94 355.374C690.811 354.232 693.808 352.753 697.17 350.967Z" fill="#EE6066"/>
<path d="M691.06 350.967C688.59 353.222 684.804 355.227 683.62 356.34C683.034 356.794 682.642 357.453 682.523 358.185H681.062C681.144 357.619 681.344 357.076 681.649 356.592C681.953 356.108 682.356 355.693 682.83 355.374C684.701 354.232 687.698 352.753 691.06 350.967Z" fill="#EE6066"/>
<path d="M685.769 350.967C683.284 353.222 679.512 355.227 678.328 356.34C677.743 356.794 677.351 357.453 677.232 358.185H675.77C675.853 357.619 676.053 357.076 676.357 356.592C676.662 356.108 677.064 355.693 677.539 355.374C679.41 354.232 682.421 352.753 685.769 350.967Z" fill="#EE6066"/>
<path d="M690.578 356.75C691.443 356.545 692.344 356.545 693.209 356.75C693.209 356.75 694.334 355.55 694.115 355.154C693.721 354.539 691.908 354.671 690.578 356.75Z" fill="#F8BBB1"/>
<path d="M684.233 356.75C685.098 356.545 686 356.545 686.865 356.75C686.865 356.75 687.99 355.55 687.756 355.154C687.376 354.539 685.564 354.671 684.233 356.75Z" fill="#F8BBB1"/>
<path d="M678.752 356.75C679.502 356.569 680.283 356.569 681.033 356.75C681.033 356.75 682.012 355.711 681.822 355.286C681.632 354.862 679.907 354.949 678.752 356.75Z" fill="#F8BBB1"/>
<path d="M673.651 356.794C674.4 356.613 675.182 356.613 675.931 356.794C675.931 356.794 676.911 355.754 676.706 355.403C676.501 355.052 674.733 354.993 673.651 356.794Z" fill="#F8BBB1"/>
<path d="M735.382 198.697C734.718 201.476 734.462 204.337 734.622 207.189H692.084C691.66 201.86 691.397 197.585 691.47 196.003C703.719 189.122 735.382 198.697 735.382 198.697Z" fill="#F3877C"/>
<path d="M705.137 249.356C701.95 251.084 705.634 260.821 710.692 262.27C715.75 263.72 719.624 252.651 716.7 250.557C715.019 249.356 708.265 247.643 705.137 249.356Z" fill="#F3877C"/>
<path d="M792.246 196.003C792.334 197.584 792.071 201.859 791.647 207.189C790.55 221.04 788.372 242.094 788.372 242.094C790.597 251.639 792.092 261.34 792.845 271.113C794.848 297.57 781.692 315.564 783.855 330.952C784.033 333.533 784.803 336.039 786.106 338.273C786.965 339.726 788.039 341.039 789.293 342.167C791.749 344.378 793.883 345.286 799.321 348.536C804.759 351.786 811.015 354.656 811.015 357.131C811.015 357.131 810.913 358.243 809.466 358.243H779.485C774.938 358.243 773.74 355.037 770.348 353.338C766.957 351.64 761.578 354.114 758.289 350.63C757.09 349.356 756.973 346.53 757.265 343.382C757.265 343.046 757.265 342.723 757.382 342.401C757.587 340.498 757.938 338.536 758.259 336.735C758.593 334.843 758.803 332.93 758.888 331.01C758.303 311.581 754.254 267.291 753.421 255.915C752.968 250.381 750.41 221.772 749.036 207.248C748.582 202.123 748.275 198.756 748.275 198.756C748.275 198.756 779.996 189.122 792.246 196.003Z" fill="#F6AA99"/>
<path d="M758.288 350.572C761.533 354.071 767.059 351.64 770.348 353.28C773.637 354.92 774.938 358.185 779.484 358.185C779.484 358.185 776.56 358.61 773.447 354.642C766.225 345.608 761.182 347.585 757.367 342.343C757.367 342.665 757.279 342.987 757.25 343.324C756.972 346.472 757.089 349.298 758.288 350.572Z" fill="#F3877C"/>
<path d="M775.756 345.725C776.699 347.633 778.046 349.312 779.703 350.645C782.524 352.797 785.346 354.188 786.676 355.476C787.36 356.214 787.75 357.178 787.772 358.185H790.126C789.983 357.197 789.585 356.263 788.971 355.476C787.641 353.822 785.2 352.899 782.13 350.967C779.838 349.435 777.703 347.679 775.756 345.725Z" fill="#EE6066"/>
<path d="M783.942 355.535C782.908 355.48 781.872 355.559 780.858 355.769C780.284 355.888 779.687 355.811 779.162 355.55C778.84 355.424 778.551 355.227 778.315 354.973C778.08 354.72 777.905 354.416 777.803 354.086C777.803 352.431 780.726 352.109 784.147 354.935C784.213 354.971 784.264 355.03 784.291 355.101C784.319 355.171 784.32 355.249 784.296 355.321C784.271 355.392 784.223 355.453 784.158 355.492C784.093 355.532 784.017 355.547 783.942 355.535Z" fill="#F8BBB1"/>
<path d="M786.559 350.967C789.029 353.222 792.8 355.227 793.985 356.34C794.569 356.797 794.965 357.454 795.095 358.185H796.557C796.475 357.619 796.275 357.076 795.97 356.592C795.665 356.108 795.263 355.693 794.788 355.374C792.917 354.232 789.921 352.753 786.559 350.967Z" fill="#EE6066"/>
<path d="M792.669 350.967C795.14 353.222 798.911 355.227 800.095 356.34C800.68 356.797 801.075 357.454 801.206 358.185H802.668C802.586 357.619 802.385 357.076 802.081 356.592C801.776 356.108 801.374 355.693 800.899 355.374C799.028 354.232 796.032 352.753 792.669 350.967Z" fill="#EE6066"/>
<path d="M797.902 350.967C800.373 353.222 804.159 355.227 805.343 356.34C805.928 356.794 806.32 357.453 806.439 358.185H807.901C807.818 357.619 807.618 357.076 807.314 356.592C807.009 356.108 806.607 355.693 806.132 355.374C804.32 354.232 801.323 352.753 797.902 350.967Z" fill="#EE6066"/>
<path d="M793.151 356.75C792.286 356.545 791.385 356.545 790.52 356.75C790.52 356.75 789.395 355.55 789.614 355.154C790.008 354.539 791.806 354.671 793.151 356.75Z" fill="#F8BBB1"/>
<path d="M799.496 356.75C798.631 356.545 797.73 356.545 796.865 356.75C796.865 356.75 795.739 355.55 795.959 355.154C796.353 354.539 798.166 354.671 799.496 356.75Z" fill="#F8BBB1"/>
<path d="M804.963 356.75C804.218 356.57 803.442 356.57 802.697 356.75C802.697 356.75 801.718 355.711 801.908 355.286C802.098 354.862 803.75 354.949 804.963 356.75Z" fill="#F8BBB1"/>
<path d="M810.152 356.794C809.403 356.613 808.621 356.613 807.872 356.794C807.872 356.794 806.893 355.754 807.083 355.403C807.273 355.052 808.983 354.993 810.152 356.794Z" fill="#F8BBB1"/>
<path d="M748.333 198.697C749.006 201.475 749.262 204.336 749.094 207.189H791.646C792.07 201.86 792.333 197.585 792.246 196.003C779.996 189.122 748.333 198.697 748.333 198.697Z" fill="#F3877C"/>
<path d="M778.592 249.356C781.779 251.084 778.095 260.821 773.037 262.27C767.979 263.72 764.106 252.651 767.015 250.557C768.666 249.356 775.449 247.643 778.592 249.356Z" fill="#F3877C"/>
<path d="M790.769 144.7C776.765 155.916 755.028 157.995 740.454 158.536C725.88 159.078 705.196 154.422 692.507 146.443C696.074 127.014 698.968 119.444 704.202 107.687C704.845 106.223 705.503 104.759 706.219 103.148C702.433 97.0575 703.295 88.346 709.289 79.8247C714.595 72.2113 730.806 59.4587 730.806 59.4587L731.215 56.2815L731.873 51.201L753.215 50.8057L753.756 57.4235L753.888 59.0487C753.888 59.0487 771.575 72.2259 776.779 79.2684C782.305 86.7061 785.229 95.7105 781.442 103.968C781.954 105.286 782.495 106.809 783.065 108.492C786.887 120.26 789.469 132.395 790.769 144.7Z" fill="#F6AA99"/>
<path d="M776.707 79.2681C782.232 86.7058 785.156 95.7102 781.37 103.968C781.881 105.286 782.422 106.808 782.992 108.492C786.839 120.257 789.445 132.392 790.769 144.7" stroke="#F3877C" stroke-width="1.92887" stroke-miterlimit="10" stroke-linecap="round"/>
<path d="M692.507 146.442C696.074 127.013 698.968 119.444 704.202 107.687C704.845 106.223 705.503 104.758 706.219 103.148C702.433 97.057 703.295 88.3455 709.289 79.8242" stroke="#F3877C" stroke-width="1.92887" stroke-miterlimit="10" stroke-linecap="round"/>
<path d="M762.996 106.94C763.361 106.823 769.354 99.8539 776.327 105.857C770.436 109.107 762.996 106.94 762.996 106.94Z" fill="#EE6066"/>
<path d="M723.351 106.94C722.986 106.823 716.992 99.8539 710.02 105.857C716.042 109.107 723.351 106.94 723.351 106.94Z" fill="#EE6066"/>
<path d="M753.683 57.4235C750.628 59.7222 746.374 61.8159 741.989 61.4353C737.882 61.0588 734.043 59.2321 731.157 56.2815L731.815 51.201L753.157 50.8057L753.683 57.4235Z" fill="#EE6066"/>
<path d="M734.388 102.826C725.076 110.147 713.923 112.402 704.129 107.687C704.772 106.223 705.43 104.759 706.146 103.148C706.146 103.148 717.11 111.728 734.388 102.826Z" fill="#F3877C"/>
<path d="M782.992 108.492C779.715 109.936 776.191 110.731 772.613 110.835C763.419 111.23 757.688 108.302 749.707 102.431C755.64 105.335 762.112 106.97 768.71 107.233C773.146 107.43 777.54 106.293 781.325 103.968C781.822 105.286 782.422 106.808 782.992 108.492Z" fill="#F3877C"/>
<path d="M741.667 132.226C741.667 132.226 738.524 135.256 741.316 145.11C742.399 140.896 742.519 136.492 741.667 132.226Z" fill="#EE6066"/>
<path d="M722.241 118.946C722.241 118.946 749.24 111.757 767.425 118.946C757.075 111.45 738.087 109.795 722.241 118.946Z" fill="#F3877C"/>
<path d="M737.969 65.974C738.485 66.7108 739.163 67.3187 739.952 67.7503C740.74 68.182 741.617 68.4259 742.515 68.463C743.491 68.4251 744.444 68.151 745.292 67.664C746.14 67.177 746.857 66.4916 747.383 65.6665C744.394 66.9487 741.034 67.0585 737.969 65.974Z" fill="#F3877C"/>
<path d="M760.378 34.0117C760.466 33.7481 761.708 27.7891 759.91 23.8945C758.112 19.9999 756.358 18.9458 752.602 17.467C749.122 11.6105 740.001 10.1463 732.94 13.6456C726.129 16.9985 717.226 28.1112 729.534 40.3806C741.843 52.65 757.645 42.5183 760.378 34.0117Z" fill="#142033"/>
<path d="M728.745 36.7496C728.745 36.7496 727.839 33.06 726.085 32.3572C724.33 31.6545 722.138 34.7877 722.605 37.1889C723.073 39.59 725.441 42.489 727.137 42.9722C728.511 43.3675 729.651 41.7862 729.871 40.8199C729.716 39.4114 729.336 38.0369 728.745 36.7496Z" fill="#F3877C"/>
<path d="M725.251 38.9897C724.672 38.1557 724.333 37.178 724.272 36.1639C724.418 35.0219 725.281 33.6749 725.968 33.7188C726.655 33.7627 728.233 37.262 728.307 37.8477C728.38 38.4333 726.991 38.4626 727.181 39.1947C727.371 39.9267 728.35 40.6588 728.643 41.0102C728.935 41.3616 728.994 41.7862 728.16 41.9033C727.327 42.0204 726.012 40.3367 726.012 40.3367C726.012 40.3367 727.473 41.508 727.941 41.2152C728.409 40.9223 726.918 39.8389 726.392 39.0336C725.865 38.2283 727.517 37.9941 727.473 37.5695C727.473 37.4231 726.479 35.0219 725.865 35.0658C725.251 35.1097 724.564 36.4567 725.251 38.9897Z" fill="#EE6066"/>
<path d="M726.45 36.8818C726.223 37.1262 726.055 37.4196 725.958 37.7395C725.862 38.0593 725.84 38.3971 725.895 38.7266C725.972 39.2946 726.252 39.8151 726.684 40.1908C726.326 40.0153 726.023 39.7453 725.806 39.41C725.59 39.0746 725.469 38.6865 725.456 38.2874C725.435 37.9743 725.522 37.6633 725.703 37.4072C725.884 37.1511 726.148 36.9655 726.45 36.8818Z" fill="#EE6066"/>
<path d="M729.198 32.4307C728.722 32.9877 728.472 33.7035 728.497 34.4365C728.584 36.1788 727.78 45.3736 729.959 50.0881C733.452 57.9212 745.117 60.8494 753.683 51.9768C758.522 46.9548 757.279 36.8523 757.279 36.8523C754.97 37.1452 755.818 34.2023 755.101 32.987C754.517 32.0207 752.982 31.6108 752.061 31.0105C750.934 30.2652 749.895 29.3959 748.962 28.4189C748.252 27.7882 747.678 27.0186 747.275 26.1575C746.873 25.2964 746.651 24.3619 746.623 23.4116L733.686 29.6342C732.011 30.2417 730.483 31.1944 729.198 32.4307Z" fill="#F6AA99"/>
<path d="M744.459 38.7408C744.459 38.7408 744.825 39.3703 748.231 39.3996C751.637 39.4289 752.777 37.833 752.777 37.833L745.059 38.4333L744.459 38.7408Z" fill="#F3877C"/>
<path d="M745.614 35.7102C745.057 36.48 744.765 37.4099 744.781 38.3603C746.33 38.2432 749.166 35.5784 749.166 35.5784C747.981 35.4878 746.789 35.532 745.614 35.7102Z" fill="#EE6066"/>
<path d="M745.57 37.3208C745.483 37.3208 744.313 38.4921 744.459 38.7849C744.606 39.0778 745.161 38.7849 745.161 38.7849L745.57 37.3208Z" fill="#F3877C"/>
<path d="M745.059 38.5211C745.059 38.4039 745.526 36.1053 746.71 35.7685C747.989 35.4242 749.335 35.4242 750.613 35.7685C751.666 36.1492 752.777 37.8622 752.777 37.8622C751.356 38.312 749.881 38.568 748.392 38.6236C745.278 38.7846 745.059 38.5211 745.059 38.5211Z" fill="white"/>
<path d="M750.219 36.9697C750.206 37.1796 750.151 37.3848 750.058 37.573C749.964 37.7612 749.834 37.9286 749.674 38.0653C749.514 38.2019 749.329 38.3049 749.129 38.3683C748.929 38.4316 748.718 38.4539 748.509 38.4339C748.302 38.4351 748.098 38.3926 747.91 38.3092C747.721 38.2257 747.552 38.1032 747.414 37.9497C747.276 37.7962 747.172 37.6152 747.108 37.4185C747.045 37.2219 747.024 37.014 747.047 36.8087C747.06 36.5988 747.115 36.3936 747.208 36.2054C747.302 36.0172 747.432 35.8497 747.592 35.7131C747.752 35.5765 747.937 35.4734 748.137 35.4101C748.337 35.3468 748.548 35.3245 748.757 35.3445C748.96 35.3539 749.159 35.4035 749.343 35.4905C749.527 35.5774 749.691 35.7001 749.827 35.8513C749.963 36.0024 750.068 36.1791 750.135 36.3711C750.202 36.5631 750.231 36.7666 750.219 36.9697Z" fill="#321E41"/>
<path d="M750.95 37.6279C751.067 37.1448 749.356 36.8227 749.239 37.3351C749.123 37.8475 750.877 37.9793 750.95 37.6279Z" fill="white"/>
<path d="M744.956 36.0034C746.52 35.8312 748.099 35.8312 749.663 36.0034C750.837 36.3431 751.908 36.9723 752.777 37.8336C752.531 37.2501 752.166 36.7246 751.705 36.2909C751.244 35.8572 750.698 35.5249 750.101 35.3152C749.242 35.0735 748.343 35.0098 747.458 35.1281C746.573 35.2465 745.722 35.5443 744.956 36.0034Z" fill="#321E41"/>
<path d="M746.637 34.7435C747.817 34.6151 749.009 34.6645 750.175 34.8899C750.92 35.1443 751.621 35.5149 752.251 35.988C751.882 35.394 751.382 34.893 750.789 34.5239C749.416 34.1561 747.963 34.2329 746.637 34.7435Z" fill="#F3877C"/>
<path d="M744.927 31.9326C744.37 32.7549 743.881 33.6216 743.465 34.5241C743.15 35.4991 743.105 36.5415 743.334 37.5402L745.366 32.6647L744.927 31.9326Z" fill="#F3877C"/>
<path d="M749.064 33.2064C747.602 33.2064 744.313 33.5871 744.342 33.4993C744.441 32.9461 744.639 32.4154 744.927 31.9326C746.929 31.9326 748.303 31.1566 749.999 31.4934C751.152 31.8635 752.113 32.6736 752.674 33.7482C751.491 33.4504 750.282 33.269 749.064 33.2064Z" fill="#321E41"/>
<path d="M739.124 41.7134C739.124 41.7134 741.024 45.3151 742.048 45.1541C743.071 44.993 744.767 41.6694 744.767 41.6694C743.902 42.4567 742.803 42.9355 741.638 43.0311C740.69 42.8451 739.817 42.3873 739.124 41.7134Z" fill="#F3877C"/>
<path d="M741.872 42.4601C742.868 42.2848 743.847 42.0202 744.796 41.6694C744.034 42.545 743.007 43.1467 741.872 43.3825C740.688 43.3825 739.095 41.6987 739.095 41.7134C739.987 42.0748 740.919 42.3255 741.872 42.4601Z" fill="#EE6066"/>
<path d="M741.17 40.6002C740.322 40.7905 740.513 42.0643 741.74 42.1522C742.968 42.24 743.305 41.3176 742.968 40.7905C742.701 40.6289 742.401 40.5281 742.09 40.4952C741.78 40.4624 741.466 40.4982 741.17 40.6002Z" fill="#F8BBB1"/>
<path d="M739.431 51.113C739.767 50.7327 740.182 50.4306 740.647 50.2278C741.111 50.0251 741.615 49.9265 742.122 49.9391C742.629 49.9516 743.127 50.075 743.581 50.3005C744.035 50.526 744.435 50.8483 744.752 51.2447C742.996 51.6536 741.164 51.6082 739.431 51.113Z" fill="#F3877C"/>
<path d="M738.788 31.9326C739.515 32.6931 740.113 33.5687 740.556 34.5241C740.751 35.5373 740.786 36.5749 740.659 37.5988C740.586 37.5988 738.042 32.9868 738.042 32.9868L738.788 31.9326Z" fill="#F3877C"/>
<path d="M734.666 33.2064C736.128 33.2064 739.417 33.5871 739.387 33.4993C739.29 32.9433 739.086 32.4114 738.788 31.9326C736.785 31.9326 735.411 31.1566 733.716 31.4934C732.566 31.8626 731.609 32.6735 731.055 33.7482C732.238 33.4504 733.447 33.269 734.666 33.2064Z" fill="#321E41"/>
<path d="M739.241 38.6821C739.241 38.6821 738.802 39.546 735.411 39.4728C732.02 39.3996 730.938 37.7012 730.938 37.7012L738.627 38.2136L739.241 38.6821Z" fill="#F3877C"/>
<path d="M738.115 35.71C738.654 36.5399 738.92 37.5177 738.876 38.5065C737.414 38.3308 734.68 35.4611 734.68 35.4611C735.831 35.4043 736.985 35.4878 738.115 35.71Z" fill="#EE6066"/>
<path d="M738.13 37.2622C738.218 37.2622 739.387 38.4335 739.241 38.7263C739.095 39.0192 738.539 38.7263 738.539 38.7263L738.13 37.2622Z" fill="#F3877C"/>
<path d="M738.598 38.6236C738.598 38.4918 738.188 36.076 737.034 35.6953C735.774 35.29 734.425 35.2544 733.145 35.5928C732.093 35.9442 730.938 37.7158 730.938 37.7158C732.349 38.2318 733.825 38.5472 735.323 38.6529C738.335 38.9164 738.598 38.6236 738.598 38.6236Z" fill="white"/>
<path d="M736.712 36.779C736.735 37.0925 736.664 37.4058 736.509 37.6787C736.353 37.9517 736.119 38.1719 735.838 38.3114C735.557 38.4509 735.241 38.5032 734.929 38.4617C734.618 38.4202 734.327 38.2867 734.092 38.0784C733.857 37.8701 733.689 37.5963 733.61 37.2921C733.531 36.9878 733.544 36.6669 733.648 36.3703C733.752 36.0737 733.942 35.8149 734.194 35.6269C734.445 35.4389 734.747 35.3303 735.061 35.3149C735.472 35.2947 735.875 35.4365 736.184 35.7101C736.493 35.9837 736.682 36.3673 736.712 36.779Z" fill="#321E41"/>
<path d="M738.773 36.0323C737.225 35.8015 735.656 35.7475 734.095 35.8712C732.903 36.1981 731.815 36.8286 730.938 37.7014C730.938 37.7014 731.888 35.5052 733.672 35.1392C734.537 34.9184 735.439 34.8839 736.318 35.0378C737.197 35.1918 738.034 35.5307 738.773 36.0323Z" fill="#321E41"/>
<path d="M737.121 34.6705C735.959 34.488 734.775 34.488 733.613 34.6705C732.86 34.9115 732.154 35.2777 731.522 35.754C731.896 35.1641 732.395 34.6641 732.984 34.2898C734.366 33.9435 735.825 34.0777 737.121 34.6705Z" fill="#F3877C"/>
<path d="M737.399 37.4229C737.399 36.9105 735.718 36.7933 735.66 37.3204C735.63 37.6279 737.355 37.789 737.399 37.4229Z" fill="white"/>
<path d="M756.081 36.8082C756.081 36.8082 757.002 33.1186 758.741 32.4158C760.481 31.7131 762.688 34.8463 762.22 37.2328C761.752 39.6194 759.399 42.5476 757.689 43.0894C756.315 43.4847 755.189 41.9034 754.97 40.9371C755.107 39.5082 755.482 38.1126 756.081 36.8082Z" fill="#F6AA99"/>
<path d="M760.144 39.0478C760.724 38.2138 761.063 37.2361 761.124 36.222C760.978 35.08 760.115 33.733 759.428 33.7769C758.741 33.8208 757.162 37.3201 757.089 37.9058C757.016 38.4914 758.405 38.5207 758.215 39.2528C758.025 39.9848 757.045 40.7169 756.753 41.0683C756.461 41.4197 756.402 41.8443 757.236 41.9614C758.069 42.0785 759.384 40.3948 759.384 40.3948C759.384 40.3948 757.923 41.5661 757.455 41.2586C756.987 40.9512 758.478 39.8823 759.004 39.0917C759.531 38.3011 757.879 38.0522 757.908 37.6276C757.908 37.4812 758.917 35.0654 759.531 35.1239C760.144 35.1825 760.831 36.5148 760.144 39.0478Z" fill="#EE6066"/>
<path d="M758.946 36.9399C759.172 37.1821 759.34 37.473 759.437 37.7903C759.533 38.1076 759.555 38.4428 759.502 38.7701C759.424 39.3376 759.143 39.8577 758.712 40.2342C759.069 40.0562 759.37 39.7856 759.586 39.4508C759.802 39.116 759.925 38.7292 759.94 38.3309C759.958 38.0202 759.869 37.7126 759.689 37.4596C759.508 37.2065 759.246 37.0231 758.946 36.9399Z" fill="#F3877C"/>
<path d="M737.852 46.1349C739.041 47.1706 740.546 47.7696 742.121 47.8333C743.347 47.885 744.562 47.5809 745.62 46.9575C746.678 46.3342 747.534 45.4181 748.085 44.3193C746.624 45.3716 744.946 46.0812 743.175 46.3955C741.404 46.7098 739.584 46.6207 737.852 46.1349Z" fill="#EE6066"/>
<path d="M692.215 143.807C692.215 143.807 707.038 156.443 740.454 155.886C778.914 154.73 791.412 142.899 791.412 142.899C795.276 162.422 795.957 182.442 793.43 202.182H747.003V184.744H737.297V201.992H690.023C690.023 201.992 686.178 167.863 692.215 143.807Z" fill="#213555"/>
<path d="M310.835 316.53C304.91 329.22 301.851 343.063 301.874 357.072H152.889C153.127 315.015 164.016 273.706 184.536 237.013L310.835 316.53Z" fill="#94E0CC"/>
<path d="M347.044 275.711C331.28 285.548 318.703 299.753 310.835 316.604L184.537 237.087C204.936 200.513 234.268 169.722 269.788 147.599L347.044 275.711Z" fill="#57D0AF"/>
<path d="M397.592 111.068V261.171C379.712 261.157 362.191 266.197 347.043 275.71L269.788 147.599C308.138 123.685 352.417 111.028 397.592 111.068Z" fill="#17A37C"/>
<path d="M524.943 147.247L447.717 275.344C432.646 266.049 415.29 261.142 397.592 261.171V111.069C442.578 111.009 486.687 123.539 524.943 147.247Z" fill="#FF9E7E"/>
<path d="M610.501 236.706L484.232 316.223C476.265 299.337 463.568 285.134 447.688 275.345L524.914 147.248C560.556 169.315 590.008 200.099 610.501 236.706Z" fill="#F0606C"/>
<path d="M642.31 357.072H493.339C493.355 342.948 490.245 328.997 484.232 316.223L610.501 236.706C631.121 273.478 642.067 314.897 642.31 357.072Z" fill="#E14E4E"/>
<path d="M174.82 341.68L175.253 336.4L177.691 336.595L177.517 338.709L179.827 338.894L179.989 336.916L182.307 337.101L182.144 339.08L184.823 339.294L185.013 336.97L187.451 337.165L187 342.656L174.82 341.68Z" fill="white"/>
<path d="M176.171 329.502L181.41 331.199L188.35 330.289L188.03 333.209C186.785 333.424 185.28 333.58 183.517 333.676C184.272 333.841 185.071 334.041 185.914 334.276L187.857 334.796L187.521 337.865L180.887 335.975L175.404 336.516L175.737 333.47C176.078 333.452 176.646 333.404 177.442 333.326C178.05 333.262 178.606 333.216 179.109 333.186L175.882 332.145L176.171 329.502Z" fill="white"/>
<path d="M177.074 323.045L179.484 323.362L179.226 325.219L188.857 326.486L188.423 329.614L178.792 328.347L178.536 330.197L176.126 329.88L177.074 323.045Z" fill="white"/>
<path d="M176.954 322.965L177.323 320.75C177.568 319.274 177.791 318.285 177.992 317.783C178.193 317.277 178.557 316.898 179.082 316.647C179.603 316.391 180.377 316.346 181.403 316.512C182.34 316.663 182.951 316.882 183.234 317.167C183.518 317.452 183.635 317.941 183.585 318.635C183.842 318.041 184.117 317.658 184.41 317.487C184.703 317.315 184.963 317.223 185.19 317.208C185.412 317.189 186.009 317.257 186.981 317.414L190.156 317.928L189.672 320.834L185.672 320.186C185.027 320.082 184.619 320.069 184.448 320.149C184.278 320.223 184.157 320.475 184.086 320.906L189.514 321.785L188.993 324.913L176.954 322.965ZM179.535 320.17L182.212 320.603C182.27 320.251 182.264 319.998 182.193 319.844C182.118 319.685 181.815 319.562 181.284 319.476L180.622 319.369C180.241 319.307 179.979 319.336 179.837 319.455C179.695 319.57 179.595 319.808 179.535 320.17Z" fill="white"/>
<path d="M178.213 315.453L179.293 310.263L181.69 310.753L181.258 312.831L183.529 313.295L183.934 311.35L186.213 311.816L185.808 313.761L188.442 314.299L188.917 312.014L191.314 312.504L190.192 317.902L178.213 315.453Z" fill="white"/>
<path d="M181.415 300.335L193.306 303.009L192.698 305.712L184.67 303.907L192.455 306.791L192.023 308.708L183.923 308.083L191.767 309.847L191.159 312.549L179.268 309.876L180.169 305.873C180.91 305.916 181.781 305.981 182.78 306.067L185.902 306.321L180.508 304.367L181.415 300.335Z" fill="white"/>
<path d="M182.27 297.219L191.727 299.66L192.2 297.788L194.566 298.399L193.314 303.349L181.491 300.297L182.27 297.219Z" fill="white"/>
<path d="M184.569 289.632L191.396 293.948L195.628 295.14L194.825 297.954L190.594 296.762L182.525 296.796L183.322 294.004C185.724 294.207 187.327 294.394 188.131 294.564C186.933 294.044 185.48 293.331 183.772 292.424L184.569 289.632Z" fill="white"/>
<path d="M188.897 276.116L200.005 281.223L198.758 284.97C196.87 284.732 194.753 284.374 192.407 283.897C193.333 284.331 195.257 285.268 198.18 286.708L196.94 290.432L184.943 287.996L185.913 285.083L190.046 286.094L194.038 287.052C192.063 286.285 189.515 285.147 186.394 283.637L187.432 280.518C187.784 280.585 189.09 280.891 191.351 281.435L195.848 282.542C193.111 281.463 190.471 280.292 187.927 279.029L188.897 276.116Z" fill="white"/>
<path d="M188.592 276.696L190.396 271.709L192.689 272.565L191.967 274.561L194.14 275.371L194.816 273.503L196.996 274.316L196.32 276.184L198.84 277.124L199.634 274.929L201.927 275.784L200.051 280.97L188.592 276.696Z" fill="white"/>
<path d="M192.664 266.289L204.665 269.117L203.468 272.136L201.373 271.471L200.954 272.529L202.921 273.516L201.71 276.569L190.973 270.555L192.664 266.289ZM199.331 270.755C197.988 270.393 196.345 269.911 194.401 269.309C196.447 270.471 197.957 271.289 198.931 271.763L199.331 270.755Z" fill="white"/>
<path d="M196.25 257.885L200.58 261.751L207.504 262.597L206.204 265.606L200.901 264.694L205.695 266.781L204.437 269.693L193.252 264.823L194.511 261.911L198.856 263.803L195.07 260.617L196.25 257.885Z" fill="white"/>
<path d="M236.702 206.087L245.232 214.894L242.751 217.973C241.079 217.069 239.237 215.97 237.223 214.676C237.931 215.418 239.39 216.993 241.601 219.401L239.134 222.462L228.836 215.849L230.765 213.455L234.252 215.895L237.628 218.234C236.061 216.801 234.092 214.812 231.722 212.267L233.787 209.704C234.091 209.894 235.198 210.652 237.109 211.978L240.901 214.639C238.736 212.638 236.693 210.585 234.773 208.48L236.702 206.087Z" fill="white"/>
<path d="M236.287 206.689L239.755 202.709L241.583 204.32L240.195 205.913L241.926 207.439L243.225 205.948L244.963 207.48L243.664 208.971L245.672 210.741L247.198 208.989L249.026 210.6L245.42 214.738L236.287 206.689Z" fill="white"/>
<path d="M243.851 198.293L254.016 205.291L251.808 207.678L250.096 206.297L249.322 207.134L250.799 208.77L248.567 211.185L240.732 201.667L243.851 198.293ZM248.451 204.886C247.33 204.061 245.973 203.014 244.378 201.746C245.866 203.575 246.977 204.887 247.713 205.684L248.451 204.886Z" fill="white"/>
<path d="M250.012 191.906L252.729 197.034L258.94 200.235L256.667 202.601L252.003 199.901L255.779 203.525L253.579 205.814L244.772 197.36L246.971 195.071L250.393 198.355L247.948 194.054L250.012 191.906Z" fill="white"/>
<path d="M322.558 144.825L327.186 156.17L324.604 157.235L320.968 152.709L323.072 157.867L320.609 158.882L315.981 147.538L318.444 146.522L322.179 150.949L320.095 145.841L322.558 144.825Z" fill="white"/>
<path d="M332.276 149.015C332.704 150.167 332.98 150.994 333.102 151.496C333.227 151.992 333.219 152.49 333.077 152.992C332.941 153.491 332.668 153.936 332.26 154.325C331.851 154.715 331.322 155.027 330.674 155.262C330.058 155.486 329.468 155.588 328.901 155.568C328.338 155.542 327.833 155.382 327.386 155.089C326.938 154.796 326.599 154.424 326.366 153.973C326.134 153.521 325.798 152.705 325.36 151.525L324.631 149.564C324.202 148.412 323.926 147.588 323.801 147.093C323.678 146.591 323.686 146.09 323.822 145.59C323.964 145.089 324.239 144.644 324.647 144.254C325.056 143.865 325.585 143.552 326.233 143.317C326.849 143.094 327.438 142.995 328.001 143.021C328.567 143.041 329.074 143.197 329.521 143.49C329.968 143.783 330.308 144.155 330.541 144.607C330.773 145.058 331.108 145.874 331.547 147.054L332.276 149.015ZM327.886 146.333C327.688 145.8 327.531 145.471 327.415 145.347C327.302 145.217 327.153 145.185 326.969 145.252C326.812 145.309 326.714 145.414 326.675 145.568C326.638 145.715 326.73 146.083 326.949 146.673L328.939 152.027C329.186 152.692 329.365 153.093 329.475 153.23C329.59 153.365 329.747 153.397 329.945 153.325C330.149 153.251 330.246 153.114 330.236 152.914C330.226 152.714 330.096 152.276 329.845 151.601L327.886 146.333Z" fill="white"/>
<path d="M330.066 142.239L332.191 141.529C333.608 141.056 334.584 140.791 335.12 140.733C335.661 140.675 336.164 140.818 336.629 141.165C337.098 141.505 337.498 142.167 337.828 143.15C338.13 144.048 338.222 144.689 338.102 145.072C337.982 145.455 337.605 145.788 336.97 146.068C337.613 146.017 338.079 146.081 338.367 146.26C338.654 146.439 338.857 146.625 338.975 146.818C339.096 147.005 339.313 147.564 339.626 148.495L340.649 151.537L337.861 152.468L336.571 148.635C336.364 148.017 336.185 147.651 336.036 147.537C335.891 147.422 335.612 147.433 335.199 147.571L336.948 152.773L333.946 153.775L330.066 142.239ZM333.732 143.21L334.595 145.775C334.932 145.663 335.152 145.539 335.255 145.404C335.361 145.263 335.328 144.939 335.158 144.43L334.944 143.796C334.821 143.43 334.674 143.213 334.503 143.143C334.336 143.072 334.079 143.094 333.732 143.21Z" fill="white"/>
<path d="M346.489 137.024L350.013 148.708L347.356 149.506L344.977 141.618L346.295 149.825L344.411 150.391L340.968 143.02L343.292 150.727L340.636 151.525L337.112 139.842L341.046 138.66C341.373 139.327 341.746 140.118 342.163 141.031L343.478 143.879L342.526 138.215L346.489 137.024Z" fill="white"/>
<path d="M351.934 135.608L356.741 146.982L353.595 147.825L352.894 145.737L351.792 146.032L352.158 148.21L348.976 149.063L347.49 136.799L351.934 135.608ZM352.266 143.66C351.766 142.361 351.184 140.746 350.521 138.818C350.792 141.164 351.024 142.872 351.216 143.942L352.266 143.66Z" fill="white"/>
<path d="M356.428 134.711L358.669 144.177L360.539 143.728L361.099 146.096L356.154 147.282L353.353 135.449L356.428 134.711Z" fill="white"/>
<path d="M429.057 141.132C428.935 142.356 428.818 143.22 428.707 143.726C428.601 144.227 428.374 144.674 428.026 145.065C427.683 145.458 427.242 145.742 426.703 145.918C426.164 146.094 425.551 146.149 424.863 146.083C424.211 146.02 423.635 145.859 423.134 145.598C422.639 145.333 422.255 144.972 421.981 144.515C421.708 144.059 421.566 143.577 421.556 143.07C421.546 142.562 421.603 141.682 421.729 140.429L421.937 138.345C422.059 137.122 422.173 136.259 422.278 135.758C422.39 135.253 422.617 134.804 422.96 134.411C423.308 134.019 423.751 133.736 424.291 133.56C424.83 133.383 425.443 133.328 426.13 133.394C426.782 133.457 427.356 133.621 427.851 133.886C428.352 134.147 428.739 134.506 429.012 134.962C429.286 135.419 429.427 135.901 429.438 136.408C429.448 136.915 429.39 137.795 429.265 139.049L429.057 141.132ZM426.289 136.827C426.345 136.26 426.349 135.896 426.299 135.734C426.255 135.568 426.135 135.476 425.939 135.457C425.774 135.441 425.64 135.494 425.536 135.615C425.438 135.733 425.358 136.105 425.296 136.731L424.728 142.418C424.657 143.125 424.641 143.563 424.68 143.734C424.724 143.905 424.851 144.001 425.062 144.021C425.277 144.042 425.425 143.96 425.504 143.775C425.583 143.591 425.659 143.14 425.73 142.423L426.289 136.827Z" fill="white"/>
<path d="M437.529 135.126L434.339 147.04L429.553 146.449L429.322 134.112L432.647 134.523C432.593 137.907 432.498 140.761 432.361 143.086C432.831 140.777 433.275 138.729 433.692 136.94L434.204 134.715L437.529 135.126Z" fill="white"/>
<path d="M437.054 135.114L442.272 135.912L441.908 138.321L439.819 138.002L439.474 140.284L441.429 140.583L441.082 142.873L439.128 142.574L438.727 145.22L441.024 145.572L440.659 147.981L435.234 147.15L437.054 135.114Z" fill="white"/>
<path d="M442.825 136.099L445.029 136.498C446.499 136.764 447.482 137 447.979 137.207C448.481 137.415 448.852 137.783 449.092 138.31C449.337 138.833 449.366 139.605 449.179 140.625C449.008 141.557 448.778 142.162 448.487 142.44C448.197 142.719 447.705 142.829 447.013 142.77C447.601 143.034 447.978 143.313 448.143 143.608C448.308 143.903 448.395 144.163 448.405 144.389C448.42 144.611 448.339 145.205 448.162 146.171L447.583 149.328L444.691 148.805L445.42 144.827C445.538 144.186 445.559 143.78 445.483 143.608C445.413 143.438 445.163 143.314 444.734 143.236L443.744 148.634L440.629 148.071L442.825 136.099ZM445.564 138.711L445.075 141.373C445.426 141.436 445.678 141.433 445.834 141.365C445.995 141.292 446.124 140.992 446.22 140.464L446.341 139.806C446.411 139.427 446.387 139.165 446.271 139.022C446.159 138.88 445.924 138.776 445.564 138.711Z" fill="white"/>
<path d="M461.755 139.938L457.837 151.534L453.978 150.663C454.017 148.755 454.151 146.606 454.381 144.217C454.046 145.185 453.315 147.199 452.188 150.259L448.352 149.393L449.52 137.177L452.52 137.854L451.947 142.08L451.412 146.16C451.968 144.112 452.834 141.455 454.009 138.19L457.222 138.915C457.192 139.273 457.024 140.608 456.719 142.918L456.089 147.517C456.876 144.678 457.765 141.926 458.755 139.261L461.755 139.938Z" fill="white"/>
<path d="M461.076 139.771L466.207 141.074L465.598 143.441L463.544 142.919L462.967 145.161L464.89 145.649L464.311 147.899L462.388 147.411L461.719 150.011L463.978 150.585L463.369 152.951L458.033 151.596L461.076 139.771Z" fill="white"/>
<path d="M469.586 142.225L466.303 153.919L463.266 153.05L466.55 141.356L469.586 142.225Z" fill="white"/>
<path d="M476.143 148.667L473.104 147.754L473.424 146.693C473.626 146.024 473.723 145.597 473.716 145.411C473.709 145.226 473.597 145.1 473.381 145.035C473.193 144.979 473.044 145.013 472.933 145.137C472.822 145.261 472.677 145.621 472.497 146.218L470.806 151.825C470.647 152.349 470.577 152.706 470.593 152.894C470.611 153.078 470.721 153.201 470.924 153.261C471.145 153.328 471.322 153.279 471.456 153.114C471.594 152.951 471.746 152.598 471.91 152.054L472.327 150.669L471.714 150.484L472.249 148.709L475.808 149.778L473.917 156.05L472.004 155.475L471.975 154.553C471.659 154.852 471.315 155.045 470.942 155.132C470.575 155.216 470.178 155.194 469.75 155.065C469.24 154.912 468.798 154.645 468.424 154.265C468.057 153.882 467.813 153.473 467.692 153.038C467.571 152.603 467.542 152.177 467.605 151.76C467.669 151.339 467.822 150.726 468.065 149.923L469.112 146.452C469.448 145.336 469.753 144.543 470.026 144.074C470.298 143.605 470.782 143.247 471.476 142.999C472.176 142.747 472.979 142.758 473.883 143.03C474.774 143.297 475.457 143.702 475.934 144.244C476.411 144.786 476.662 145.336 476.688 145.895C476.715 146.449 476.584 147.205 476.296 148.162L476.143 148.667Z" fill="white"/>
<path d="M484.65 146.846L480.77 158.383L477.768 157.381L479.397 152.535L478.499 152.235L476.869 157.081L473.867 156.078L477.747 144.541L480.749 145.544L479.362 149.67L480.26 149.97L481.648 145.844L484.65 146.846Z" fill="white"/>
<path d="M491.041 149.157L490.188 151.451L488.412 150.807L485.004 159.976L482.014 158.892L485.423 149.722L483.655 149.08L484.508 146.786L491.041 149.157Z" fill="white"/>
<path d="M545.319 193.589C544.511 194.508 543.916 195.14 543.534 195.484C543.158 195.828 542.716 196.058 542.208 196.173C541.703 196.292 541.182 196.266 540.645 196.095C540.107 195.925 539.58 195.614 539.063 195.162C538.572 194.733 538.2 194.268 537.947 193.766C537.7 193.265 537.599 192.75 537.642 192.222C537.685 191.694 537.85 191.222 538.136 190.806C538.421 190.39 538.977 189.711 539.805 188.769L541.179 187.205C541.987 186.286 542.578 185.654 542.954 185.31C543.337 184.966 543.78 184.734 544.285 184.616C544.793 184.501 545.316 184.529 545.853 184.699C546.391 184.869 546.918 185.18 547.435 185.632C547.926 186.061 548.294 186.527 548.541 187.028C548.794 187.53 548.899 188.044 548.856 188.572C548.812 189.1 548.648 189.572 548.362 189.988C548.077 190.404 547.52 191.083 546.693 192.025L545.319 193.589ZM545.576 188.501C545.949 188.075 546.163 187.783 546.217 187.623C546.277 187.463 546.234 187.319 546.087 187.19C545.962 187.081 545.823 187.046 545.669 187.085C545.522 187.123 545.242 187.377 544.828 187.848L541.076 192.118C540.61 192.649 540.343 192.995 540.275 193.155C540.211 193.319 540.258 193.47 540.417 193.609C540.579 193.751 540.746 193.77 540.917 193.667C541.088 193.563 541.41 193.242 541.883 192.704L545.576 188.501Z" fill="white"/>
<path d="M550.24 188.433L552.563 190.588C553.297 191.268 553.799 191.84 554.069 192.303C554.343 192.77 554.433 193.285 554.34 193.851C554.25 194.412 553.846 195.08 553.127 195.853C552.64 196.376 552.218 196.664 551.86 196.716C551.506 196.772 551.036 196.631 550.45 196.294C550.876 196.915 551.053 197.456 550.981 197.917C550.912 198.375 550.607 198.895 550.066 199.477L549.295 200.305C548.734 200.909 548.247 201.292 547.837 201.453C547.43 201.617 547.025 201.613 546.623 201.439C546.222 201.265 545.552 200.744 544.616 199.876L541.922 197.377L550.24 188.433ZM551.146 192.123L549.296 194.112C549.399 194.201 549.478 194.271 549.534 194.322C549.762 194.534 549.959 194.614 550.125 194.561C550.294 194.505 550.625 194.212 551.118 193.682C551.378 193.402 551.534 193.183 551.585 193.024C551.64 192.862 551.638 192.727 551.581 192.619C551.527 192.514 551.382 192.349 551.146 192.123ZM548.001 195.504L545.674 198.007C546.012 198.3 546.269 198.442 546.443 198.432C546.621 198.425 546.877 198.241 547.213 197.88L547.989 197.046C548.345 196.663 548.52 196.394 548.515 196.237C548.509 196.081 548.338 195.837 548.001 195.504Z" fill="white"/>
<path d="M555.738 193.698L559.495 197.389L557.79 199.122L556.286 197.644L554.67 199.286L556.078 200.669L554.457 202.315L553.049 200.933L551.175 202.836L552.829 204.461L551.124 206.193L547.216 202.355L555.738 193.698Z" fill="white"/>
<path d="M561.941 204.968L559.891 202.834L560.542 202.2C560.846 201.905 561.013 201.689 561.043 201.554C561.074 201.418 561.028 201.287 560.906 201.16C560.773 201.021 560.616 200.97 560.434 201.007C560.255 201.047 560.052 201.178 559.825 201.399C559.532 201.684 559.35 201.939 559.279 202.163C559.204 202.384 559.233 202.775 559.366 203.335C559.744 204.945 559.868 206.071 559.736 206.713C559.605 207.356 559.109 208.095 558.248 208.933C557.623 209.542 557.091 209.916 556.651 210.056C556.215 210.199 555.693 210.158 555.085 209.933C554.481 209.704 553.91 209.31 553.372 208.75C552.781 208.135 552.392 207.497 552.203 206.835C552.019 206.177 552.041 205.606 552.269 205.123C552.498 204.64 552.941 204.078 553.599 203.438L554.173 202.878L556.223 205.012L555.155 206.052C554.826 206.372 554.643 206.607 554.605 206.757C554.57 206.91 554.626 207.063 554.773 207.216C554.92 207.369 555.088 207.424 555.277 207.38C555.47 207.34 555.683 207.206 555.918 206.977C556.435 206.474 556.705 206.074 556.728 205.777C556.747 205.477 556.668 204.86 556.492 203.926C556.319 202.989 556.228 202.345 556.22 201.994C556.212 201.643 556.298 201.26 556.479 200.844C556.664 200.432 556.989 199.999 557.456 199.545C558.128 198.89 558.701 198.497 559.176 198.365C559.655 198.237 560.166 198.282 560.71 198.498C561.258 198.712 561.794 199.091 562.318 199.637C562.891 200.233 563.283 200.834 563.493 201.439C563.707 202.047 563.732 202.561 563.569 202.981C563.413 203.401 562.986 203.95 562.288 204.63L561.941 204.968Z" fill="white"/>
<path d="M566.924 205.232L557.915 213.402L555.792 211.058L564.801 202.888L566.924 205.232Z" fill="white"/>
<path d="M571.793 210.53L569.957 212.148L568.702 210.737L561.364 217.204L559.251 214.828L566.589 208.361L565.339 206.956L567.175 205.337L571.793 210.53Z" fill="white"/>
<path d="M576.322 215.979L568.857 219.185L565.464 222.009L563.577 219.758L566.97 216.933L571.518 210.245L573.39 212.48C571.858 214.35 570.793 215.57 570.196 216.139C571.309 215.442 572.726 214.643 574.45 213.744L576.322 215.979Z" fill="white"/>
<path d="M599.214 254.477L601.603 259.188L599.438 260.309L598.482 258.423L596.43 259.485L597.325 261.25L595.267 262.316L594.372 260.55L591.993 261.782L593.045 263.856L590.88 264.977L588.396 260.077L599.214 254.477Z" fill="white"/>
<path d="M604.595 265.497L599.249 266.829L593.843 271.269L592.564 268.625C593.506 267.785 594.7 266.857 596.145 265.843C595.417 266.102 594.633 266.355 593.793 266.601L591.868 267.188L590.523 264.409L597.156 262.504L601.521 259.146L602.856 261.905C602.577 262.1 602.12 262.441 601.486 262.928C601.004 263.303 600.557 263.637 600.146 263.928L603.437 263.105L604.595 265.497Z" fill="white"/>
<path d="M607.26 271.519L605.034 272.524L604.265 270.804L595.369 274.818L594.074 271.921L602.97 267.907L602.204 266.194L604.43 265.189L607.26 271.519Z" fill="white"/>
<path d="M607.216 271.587L608.069 273.664C608.638 275.048 608.97 276.006 609.063 276.538C609.159 277.074 609.05 277.587 608.735 278.076C608.426 278.567 607.792 279.012 606.831 279.409C605.954 279.772 605.32 279.907 604.929 279.813C604.537 279.72 604.18 279.365 603.856 278.749C603.951 279.389 603.919 279.859 603.759 280.159C603.6 280.458 603.428 280.673 603.243 280.804C603.064 280.938 602.52 281.193 601.611 281.569L598.639 282.799L597.519 280.075L601.264 278.525C601.867 278.276 602.22 278.072 602.324 277.915C602.43 277.763 602.4 277.485 602.233 277.081L597.152 279.183L595.946 276.25L607.216 271.587ZM606.493 275.318L603.988 276.355C604.123 276.685 604.262 276.896 604.403 276.99C604.552 277.086 604.874 277.032 605.37 276.826L605.99 276.57C606.347 276.422 606.555 276.26 606.613 276.084C606.673 275.913 606.633 275.657 606.493 275.318Z" fill="white"/>
<path d="M610.255 278.504L612.059 283.491L609.765 284.346L609.043 282.35L606.87 283.161L607.546 285.029L605.366 285.842L604.69 283.974L602.17 284.913L602.964 287.108L600.671 287.964L598.795 282.778L610.255 278.504Z" fill="white"/>
<path d="M615.286 293.06L603.814 297.094L602.907 294.483L610.652 291.759L602.545 293.44L601.902 291.588L609.088 287.827L601.52 290.488L600.613 287.877L612.085 283.843L613.428 287.71C612.778 288.066 612.007 288.472 611.116 288.929L608.34 290.367L613.933 289.164L615.286 293.06Z" fill="white"/>
<path d="M616.239 296.18L606.944 299.12L607.521 300.959L605.196 301.694L603.67 296.832L615.29 293.156L616.239 296.18Z" fill="white"/>
<path d="M618.482 303.792L610.4 303.751L606.174 304.985L605.371 302.168L609.596 300.933L616.435 296.619L617.233 299.415C615.084 300.517 613.623 301.21 612.85 301.493C614.143 301.298 615.754 301.133 617.684 300.997L618.482 303.792Z" fill="white"/>
<path d="M613.972 314.779C612.782 315.074 611.932 315.253 611.42 315.318C610.914 315.387 610.419 315.323 609.934 315.128C609.451 314.937 609.036 314.618 608.69 314.171C608.343 313.724 608.086 313.167 607.917 312.5C607.757 311.867 607.715 311.272 607.792 310.715C607.874 310.162 608.084 309.681 608.421 309.271C608.757 308.862 609.162 308.567 609.635 308.388C610.107 308.209 610.953 307.968 612.171 307.666L614.197 307.165C615.386 306.87 616.234 306.688 616.739 306.62C617.251 306.555 617.749 306.618 618.232 306.809C618.717 307.004 619.132 307.325 619.479 307.772C619.825 308.219 620.083 308.776 620.251 309.443C620.412 310.076 620.45 310.669 620.368 311.223C620.291 311.78 620.084 312.263 619.748 312.672C619.411 313.082 619.006 313.376 618.534 313.555C618.061 313.734 617.215 313.975 615.997 314.277L613.972 314.779ZM617.083 310.741C617.634 310.604 617.977 310.486 618.112 310.385C618.253 310.288 618.3 310.144 618.252 309.954C618.211 309.794 618.116 309.685 617.967 309.629C617.825 309.577 617.448 309.626 616.839 309.777L611.312 311.147C610.625 311.317 610.207 311.449 610.06 311.542C609.914 311.64 609.867 311.792 609.918 311.996C609.971 312.206 610.098 312.317 610.298 312.329C610.498 312.342 610.946 312.261 611.644 312.089L617.083 310.741Z" fill="white"/>
<path d="M620.94 313.369L621.591 316.455C621.797 317.43 621.876 318.183 621.83 318.716C621.785 319.253 621.562 319.725 621.162 320.134C620.767 320.541 620.056 320.855 619.028 321.076C618.333 321.225 617.825 321.219 617.505 321.057C617.185 320.9 616.884 320.517 616.602 319.907C616.592 320.657 616.425 321.199 616.101 321.535C615.783 321.869 615.237 322.12 614.464 322.286L613.363 322.522C612.56 322.694 611.946 322.729 611.52 322.626C611.095 322.527 610.769 322.293 610.543 321.922C610.316 321.55 610.071 320.743 609.809 319.499L609.054 315.921L620.94 313.369ZM619.559 316.899L616.916 317.466C616.949 317.598 616.973 317.7 616.989 317.773C617.053 318.077 617.167 318.255 617.331 318.307C617.501 318.357 617.938 318.307 618.642 318.156C619.014 318.076 619.267 317.986 619.399 317.886C619.536 317.785 619.613 317.674 619.628 317.552C619.644 317.436 619.621 317.219 619.559 316.899ZM615.066 317.863L611.74 318.577C611.847 319.01 611.974 319.272 612.121 319.363C612.269 319.46 612.583 319.456 613.063 319.353L614.171 319.115C614.68 319.006 614.977 318.886 615.062 318.755C615.147 318.624 615.149 318.327 615.066 317.863Z" fill="white"/>
<path d="M622.42 320.83L623.357 326.024L620.961 326.464L620.586 324.385L618.317 324.803L618.667 326.749L616.39 327.168L616.039 325.222L613.407 325.706L613.819 327.992L611.424 328.433L610.45 323.032L622.42 320.83Z" fill="white"/>
<path d="M620.962 333.666L620.519 330.757L621.41 330.613C621.826 330.545 622.085 330.465 622.188 330.372C622.29 330.28 622.328 330.146 622.302 329.973C622.273 329.784 622.174 329.653 622.006 329.579C621.838 329.509 621.598 329.5 621.286 329.55C620.885 329.615 620.591 329.719 620.405 329.861C620.218 329.998 620.017 330.332 619.804 330.865C619.19 332.392 618.645 333.38 618.171 333.828C617.696 334.276 616.869 334.595 615.691 334.786C614.834 334.924 614.187 334.925 613.75 334.787C613.314 334.655 612.913 334.323 612.548 333.793C612.188 333.262 611.949 332.614 611.833 331.85C611.705 331.012 611.754 330.27 611.98 329.624C612.207 328.982 612.552 328.53 613.014 328.267C613.477 328.004 614.158 327.8 615.06 327.654L615.847 327.527L616.291 330.435L614.827 330.672C614.377 330.745 614.093 330.832 613.976 330.932C613.86 331.037 613.818 331.194 613.85 331.402C613.882 331.61 613.987 331.751 614.166 331.823C614.345 331.901 614.596 331.914 614.917 331.862C615.626 331.747 616.074 331.576 616.262 331.347C616.45 331.113 616.739 330.566 617.131 329.705C617.527 328.843 617.822 328.266 618.016 327.976C618.211 327.685 618.5 327.422 618.886 327.187C619.272 326.957 619.784 326.79 620.423 326.687C621.344 326.538 622.035 326.545 622.497 326.709C622.959 326.878 623.349 327.207 623.667 327.694C623.99 328.18 624.208 328.795 624.321 329.539C624.445 330.353 624.42 331.066 624.244 331.678C624.069 332.296 623.796 332.729 623.422 332.978C623.055 333.23 622.393 333.434 621.438 333.589L620.962 333.666Z" fill="white"/>
<path d="M624.984 336.65L612.943 338.234L612.509 335.106L624.55 333.522L624.984 336.65Z" fill="white"/>
<path d="M625.776 343.874L623.351 344.143L623.147 342.272L613.455 343.351L613.11 340.199L622.802 339.12L622.598 337.256L625.023 336.987L625.776 343.874Z" fill="white"/>
<path d="M626.502 350.98L618.541 349.293L614.132 349.647L613.891 346.713L618.3 346.36L625.889 343.511L626.128 346.422C623.793 347.068 622.216 347.452 621.398 347.573C622.712 347.644 624.333 347.81 626.263 348.069L626.502 350.98Z" fill="white"/>
<path d="M417.838 340.132C416.508 343.66 415.163 347.174 413.847 350.703L413.233 351.098L404.93 356.516H404.36H381.878H374.379C372.72 354.026 371.444 351.302 370.593 348.434C369.841 345.928 369.428 343.333 369.365 340.718L363.62 278.111L363.328 274.963L362.538 266.34L355.887 193.953L387.038 252.518L391.526 261.069L394.8 267.247L395.297 268.185L407.445 291.01C408.731 297.111 410.027 303.25 411.333 309.429C413.496 319.59 415.665 329.824 417.838 340.132Z" fill="#191919"/>
<path d="M417.838 340.132C416.507 343.661 415.163 347.175 413.847 350.703L413.233 351.098L404.93 356.516H404.36H381.878H381.688C378.801 353.632 376.685 350.067 375.533 346.15C374.917 344.096 374.578 341.969 374.525 339.825L368.678 275.476L368.458 273.06L368.327 271.596L367.508 262.68L363.532 219.268L382.258 254.48L386.643 262.636L389.567 268.214L389.713 268.492L411.347 309.385C413.501 319.576 415.664 329.825 417.838 340.132Z" fill="#474747"/>
<path d="M415.367 333.733C416.329 336.965 416.313 340.41 415.321 343.633C414.329 346.856 412.406 349.712 409.794 351.84C407.182 353.968 403.998 355.273 400.646 355.59C397.294 355.906 393.923 355.22 390.96 353.619C387.997 352.017 385.574 349.572 383.998 346.592C382.422 343.611 381.764 340.23 382.106 336.875C382.448 333.52 383.775 330.342 385.92 327.742C388.065 325.142 390.931 323.238 394.157 322.269C396.301 321.625 398.551 321.411 400.778 321.639C403.005 321.867 405.165 322.532 407.135 323.597C409.105 324.662 410.846 326.105 412.258 327.844C413.671 329.584 414.727 331.585 415.367 333.733Z" fill="#191919"/>
<path d="M397.607 261.392C372.31 261.391 348.042 271.419 330.104 289.284C312.166 307.149 302.017 331.399 301.874 356.736H308.584C308.827 333.284 318.286 310.872 334.911 294.356C351.536 277.84 373.989 268.55 397.404 268.498C420.82 268.446 443.313 277.637 460.011 294.079C476.709 310.52 486.267 332.89 486.615 356.34H493.324C493.078 331.075 482.885 306.929 464.962 289.149C447.038 271.369 422.833 261.394 397.607 261.392Z" fill="#A9ABAE"/>
<path d="M486.615 356.325H443.887H425.103H405.076H404.345H381.863H373.487L308.583 356.515C308.696 339.021 313.941 321.947 323.667 307.415C333.393 292.884 347.17 281.538 363.284 274.788C364.95 274.085 366.631 273.441 368.341 272.855C375.204 270.455 382.339 268.92 389.581 268.287C391.482 268.111 393.396 267.994 395.311 267.95H397.606C399.171 267.95 400.72 267.95 402.27 268.067C404.155 268.17 406.041 268.331 407.897 268.55C415.243 269.387 422.454 271.153 429.356 273.807C431.067 274.451 432.762 275.154 434.414 275.915C438.333 277.692 442.114 279.757 445.728 282.094C447.409 283.162 449.032 284.305 450.625 285.505C456.095 289.552 461.075 294.225 465.463 299.429C466.617 300.776 467.714 302.167 468.766 303.587C471.978 307.851 474.797 312.399 477.186 317.174C478.107 318.99 478.97 320.835 479.744 322.723C481.927 327.917 483.601 333.311 484.744 338.829C485.094 340.527 485.401 342.255 485.665 343.997C486.264 348.08 486.581 352.199 486.615 356.325Z" fill="white"/>
<path d="M350.201 305.359C354.069 304.758 357.98 304.469 361.895 304.495C367.391 304.495 370.768 305.052 373.677 306.735C375.128 307.47 376.344 308.598 377.186 309.99C378.029 311.383 378.464 312.984 378.442 314.612C378.442 318.126 376.381 321.435 371.894 323.104V323.265C374.143 323.729 376.162 324.958 377.609 326.743C379.056 328.529 379.841 330.761 379.831 333.06C379.84 334.699 379.47 336.317 378.75 337.788C378.03 339.259 376.979 340.542 375.68 341.538C372.756 343.895 367.947 345.169 359.995 345.169C356.74 345.2 353.487 345.004 350.259 344.583L350.201 305.359ZM359.132 320.659H362.056C366.836 320.659 369.365 318.668 369.365 315.696C369.365 312.724 367.07 311.069 362.991 311.069C361.713 311.029 360.435 311.122 359.176 311.347L359.132 320.659ZM359.132 338.331C360.276 338.475 361.43 338.529 362.582 338.492C366.675 338.492 370.286 336.911 370.286 332.636C370.286 328.361 366.675 327.101 362.29 327.101H359.205L359.132 338.331Z" fill="#17A37C"/>
<path d="M419.636 329.473C419.46 324.642 419.27 318.873 419.299 313.017H419.139C417.867 318.141 416.215 323.807 414.68 328.522L409.798 344.1H402.796L398.498 328.668C397.212 323.968 395.882 318.287 394.888 313.017H394.771C394.581 318.448 394.347 324.627 394.113 329.59L393.367 344.759H385.021L387.579 304.817H399.595L403.483 318.156C404.755 322.738 405.983 327.76 406.874 332.446H407.064C408.146 327.819 409.505 322.548 410.85 318.097L415.089 304.817H426.886L429.02 344.759H420.25L419.636 329.473Z" fill="#17A37C"/>
<path d="M445.012 304.817V344.759H435.993V304.817H445.012Z" fill="#17A37C"/>
</g>
<defs>
<clipPath id="clip0_223_2147">
<rect width="811" height="507.058" fill="white"/>
</clipPath>
</defs>
</svg>
