<svg width="812" height="506" viewBox="0 0 812 506" fill="none" xmlns="http://www.w3.org/2000/svg">
<g clip-path="url(#clip0_223_226)">
<path d="M611.793 200.109C578.755 155.104 532.322 121.676 479.126 104.598C425.93 87.5201 368.692 87.6656 315.584 105.014C262.476 122.362 216.214 156.026 183.405 201.199C150.597 246.371 132.918 300.742 132.895 356.547C132.895 356.547 204.082 356.24 294.288 355.948C295.131 329.096 306.389 303.622 325.685 284.904C344.981 266.187 370.805 255.69 397.705 255.632C424.604 255.573 450.474 265.956 469.852 284.589C489.23 303.222 500.599 328.647 501.56 355.495C592.263 355.495 655.989 356.532 662.967 356.532C663.064 300.272 645.131 245.459 611.793 200.109Z" fill="#6B6B6B"/>
<path d="M605.868 204.434C573.748 160.664 528.599 128.151 476.871 111.539C425.143 94.9272 369.481 95.0663 317.837 111.936C266.193 128.807 221.208 161.545 189.307 205.475C157.407 249.405 140.222 302.28 140.209 356.547C140.209 356.547 209.437 356.24 297.141 355.962C297.711 329.68 308.549 304.662 327.341 286.254C346.133 267.846 371.388 257.507 397.71 257.446C424.032 257.385 449.334 267.607 468.212 285.927C487.089 304.248 498.044 329.215 498.736 355.495C586.864 355.495 650.152 356.503 655.682 356.503C655.754 301.803 638.298 248.515 605.868 204.434Z" fill="#E6E6E6"/>
<path d="M89.6059 50.948C89.6059 50.948 99.9929 53.5487 100.359 63.1918C100.724 72.8349 103.402 93.2316 104.045 97.5563C105.508 103.518 108.639 108.398 109.195 117.851C109.751 127.304 103.343 155.839 103.855 158.922C105.508 164.62 106.708 173.342 98.0033 177.024C90.6154 134.945 84.0028 62.2275 89.6059 50.948Z" fill="#F3877C"/>
<path d="M18.6524 158.498C18.6524 158.498 9.64063 152.975 10.4599 150.856C11.2791 148.738 19.0621 155.97 20.4372 156.379C15.1706 150.038 13.4589 146.429 14.8926 146.283C16.3263 146.137 22.0757 153.997 22.0757 153.997C22.0757 153.997 16.4726 144.997 17.4235 144.237C18.3745 143.478 24.2555 152.083 24.2555 152.083C24.2555 152.083 24.1824 157.811 18.6524 158.498Z" fill="#EE6066"/>
<path d="M50.0325 47.9672C50.0325 47.9672 47.8966 53.4462 45.4388 59.5535C42.981 65.6608 39.982 72.8493 38.6946 75.1724C37.8899 76.6335 35.4907 80.1255 32.6087 84.1872C26.5082 92.793 18.2132 103.985 18.2132 103.985C18.2132 103.985 24.8404 128.341 30.2241 142.397C31.0287 145.026 29.317 150.169 23.3628 149.483C9.27454 133.703 -0.220035 107.871 -0.0444809 103.985C8.30899 84.2165 22.2948 67.4579 29.1415 59.3636C34.4227 53.1248 49.7838 47.9379 50.0325 47.9672Z" fill="#F6AA99"/>
<path d="M45.4395 59.5537C42.8793 65.8656 39.9827 72.8495 38.6953 75.1726C37.8906 76.6337 35.4914 80.1257 32.6094 84.1875C33.9699 66.3477 36.7934 60.4742 36.9982 59.8751L45.4395 59.5537Z" fill="#F3877C"/>
<path d="M30.2244 142.396C30.8679 143.636 31.2599 144.991 31.3779 146.382C31.4959 147.774 31.3376 149.175 30.912 150.505C29.4491 154.888 23.8167 162.632 20.6714 162.281C17.526 161.931 8.70438 156.788 8.54346 154.625C10.3868 153.164 15.6534 157.942 18.9597 157.942C22.7488 152.565 22.2806 146.516 24.4604 145.26C26.6402 144.003 30.2244 142.396 30.2244 142.396Z" fill="#F6AA99"/>
<path d="M30.1812 184.549C30.1812 184.549 30.1812 189.195 30.2982 196.851C30.4152 208.539 30.5908 227.022 30.7663 246.732C22.6616 273.119 35.2869 298.556 33.941 327.836V328.318C33.6045 333.914 32.8437 337.333 27.6649 342.184C22.486 347.035 14.5861 352.426 12.9329 354.033C12.0244 354.801 11.435 355.879 11.2798 357.058H35.4332C41.7678 357.058 39.9976 355.772 42.6602 353.186C44.1231 351.842 46.815 352.967 49.0387 352.236C50.7503 351.666 50.6333 348.832 50.0481 344.42C49.8579 343.09 49.6092 341.6 49.4044 340.036C49.0112 336.011 48.8256 331.968 48.8485 327.924C49.3751 307.557 52.1986 255.206 52.1986 255.206L59.2062 196.646L60.6691 184.958L30.1812 184.549Z" fill="#F6AA99"/>
<path d="M29.6684 355.787H26.8595C26.5962 355.787 26.9765 354.823 27.9567 354.706C29.2734 354.545 29.9463 355.495 29.6684 355.787Z" fill="#F8BBB1"/>
<path d="M24.1972 355.787H21.4029C21.125 355.787 21.52 354.823 22.4855 354.706C23.8168 354.545 24.4752 355.495 24.1972 355.787Z" fill="#F8BBB1"/>
<path d="M19.3256 355.787H16.5314C16.2534 355.787 16.6484 354.983 17.614 354.896C18.9452 354.764 19.6036 355.597 19.3256 355.787Z" fill="#F8BBB1"/>
<path d="M14.7758 355.787H12.2302C11.9815 355.787 12.3326 354.983 13.225 354.896C14.3954 354.764 15.0245 355.597 14.7758 355.787Z" fill="#F8BBB1"/>
<path d="M49.0382 352.295C46.8145 353.025 44.1519 352.003 42.6743 353.244C45.7319 349.563 45.8782 345.238 49.9891 344.478C50.6328 348.89 50.7498 351.725 49.0382 352.295Z" fill="#F3877C"/>
<path d="M36.5299 347.313C36.8235 347.308 37.1118 347.392 37.3572 347.553C37.6026 347.714 37.7937 347.945 37.9058 348.216C38.0178 348.487 38.0456 348.786 37.9855 349.073C37.9253 349.36 37.7801 349.622 37.5686 349.826L37.4369 349.943C35.6323 351.401 33.9447 352.999 32.3897 354.72C31.9142 355.433 31.6412 356.261 31.5997 357.117H29.7856C29.8265 356.423 30.0257 355.747 30.368 355.142C30.7103 354.537 31.1866 354.018 31.7606 353.625C33.2236 352.441 36.8078 349.811 37.2613 348.584C37.5393 347.809 36.5299 347.313 36.5299 347.313Z" fill="#EE6066"/>
<path d="M33.999 355.1H38.7536C38.7536 355.1 39.4997 353.361 37.6857 353.04C36.9244 352.858 36.1225 352.969 35.4394 353.351C34.7564 353.733 34.2421 354.357 33.999 355.1Z" fill="#F8BBB1"/>
<path d="M33.5456 348.613C33.5456 348.613 33.5456 350.162 30.3563 352.353C27.9571 354.004 25.7773 355.626 25.4408 357.116H23.4658C24.2962 355.725 25.4072 354.521 26.7282 353.581C29.2738 351.681 32.6093 350.439 33.5456 348.613Z" fill="#EE6066"/>
<path d="M26.6258 350.527C25.8797 351.301 22.6904 353.785 21.4762 354.91C20.8266 355.498 20.368 356.266 20.1595 357.116H18.9014C19.4573 354.428 23.1732 352.572 26.6258 350.527Z" fill="#EE6066"/>
<path d="M22.0609 350.527C21.3294 351.301 18.1256 353.785 16.9259 354.91C16.2771 355.501 15.8145 356.267 15.5946 357.116H14.395C14.8924 354.428 18.623 352.572 22.0609 350.527Z" fill="#EE6066"/>
<path d="M60.6101 184.884L59.1471 196.573L30.2391 196.865C30.2391 189.209 30.1221 184.563 30.1221 184.563L60.6101 184.884Z" fill="#F3877C"/>
<path d="M36.3398 244.307C36.3398 244.307 37.2615 254.783 41.4163 254.71C45.0737 254.71 48.3946 249.903 47.7509 244.935C47.1072 239.967 36.3398 238.974 36.3398 244.307Z" fill="#F3877C"/>
<path d="M99.4514 184.549C99.4514 184.549 99.4514 189.195 99.3343 196.851C99.2173 208.539 99.0417 227.022 98.8662 246.732C106.956 273.119 94.3456 298.556 95.6916 327.836V328.319C96.028 333.914 96.7742 337.333 101.968 342.184C107.161 347.035 115.032 352.339 116.714 354.004C117.623 354.77 118.208 355.85 118.353 357.029H94.1994C87.8648 357.029 89.6349 355.743 86.9724 353.157C85.5094 351.813 82.8176 352.938 80.5939 352.207C78.8822 351.637 78.9992 348.803 79.5844 344.39C79.7746 343.061 80.0233 341.57 80.2135 340.007C80.6202 335.983 80.8106 331.939 80.7841 327.895C80.2574 307.527 77.4339 255.177 77.4339 255.177L70.4263 196.646L68.9634 184.958L99.4514 184.549Z" fill="#F6AA99"/>
<path d="M99.9638 355.787H102.773C103.036 355.787 102.656 354.823 101.675 354.706C100.359 354.545 99.6858 355.495 99.9638 355.787Z" fill="#F8BBB1"/>
<path d="M105.435 355.787H108.229C108.507 355.787 108.112 354.823 107.147 354.706C105.815 354.545 105.099 355.495 105.435 355.787Z" fill="#F8BBB1"/>
<path d="M110.307 355.787H113.101C113.379 355.787 112.984 354.983 112.019 354.896C110.687 354.764 110.029 355.597 110.307 355.787Z" fill="#F8BBB1"/>
<path d="M114.842 355.787H117.402C117.651 355.787 117.299 354.983 116.407 354.896C115.207 354.764 114.593 355.597 114.842 355.787Z" fill="#F8BBB1"/>
<path d="M80.5939 352.295C82.8176 353.025 85.4802 352.003 86.9578 353.244C83.9002 349.563 83.7539 345.238 79.643 344.478C78.9993 348.89 78.8823 351.725 80.5939 352.295Z" fill="#F3877C"/>
<path d="M93.1023 347.313C92.8087 347.308 92.5204 347.392 92.275 347.553C92.0296 347.714 91.8385 347.945 91.7264 348.216C91.6144 348.487 91.5866 348.786 91.6467 349.073C91.7069 349.36 91.8521 349.622 92.0636 349.826L92.1953 349.943C93.9999 351.401 95.6874 352.999 97.2425 354.72C97.718 355.433 97.991 356.261 98.0325 357.117H99.8466C99.8057 356.423 99.6065 355.747 99.2642 355.142C98.9219 354.537 98.4455 354.018 97.8716 353.625C96.4086 352.441 92.8244 349.811 92.3709 348.584C92.0929 347.809 93.1023 347.313 93.1023 347.313Z" fill="#EE6066"/>
<path d="M95.6331 355.1H90.8785C90.8785 355.1 90.1324 353.361 91.9465 353.04C92.7078 352.858 93.5097 352.969 94.1927 353.351C94.8758 353.733 95.39 354.357 95.6331 355.1Z" fill="#F8BBB1"/>
<path d="M96.0869 348.613C96.0869 348.613 96.0869 350.162 99.2762 352.353C101.675 354.004 103.855 355.626 104.177 357.116H106.167C105.334 355.722 104.218 354.517 102.89 353.581C100.359 351.681 97.0232 350.439 96.0869 348.613Z" fill="#EE6066"/>
<path d="M103.006 350.527C103.752 351.301 106.942 353.785 108.141 354.91C108.796 355.496 109.26 356.264 109.473 357.116H110.731C110.175 354.428 106.444 352.572 103.006 350.527Z" fill="#EE6066"/>
<path d="M107.571 350.527C108.303 351.301 111.507 353.785 112.706 354.91C113.355 355.501 113.818 356.267 114.038 357.116H115.34C114.725 354.428 110.951 352.572 107.571 350.527Z" fill="#EE6066"/>
<path d="M69.022 184.884L70.4849 196.573L99.3929 196.865C99.3929 189.209 99.51 184.563 99.51 184.563L69.022 184.884Z" fill="#F3877C"/>
<path d="M93.2923 244.307C93.2923 244.307 92.3706 254.783 88.2158 254.71C84.5584 254.71 81.2375 249.903 81.8812 244.935C82.5249 239.967 93.3069 238.974 93.2923 244.307Z" fill="#F3877C"/>
<path d="M94.4043 136.333C84.8829 141.692 74.1433 144.519 63.2141 144.544C45.3807 144.442 35.418 136.333 35.418 136.333C35.418 136.333 35.6667 70.0732 35.6667 62.1687C35.6667 55.6377 39.6167 51.7074 42.5133 50.86C45.41 50.0126 57.6403 44.4751 57.6403 44.4751L58.284 38.1487L58.6204 34.0576L73.1476 33.2102L73.4694 37.2866L74.0107 44.4167C74.0107 44.4167 85.9777 49.4282 89.6058 50.9185C93.234 52.4088 95.0626 55.5062 95.1651 61.146C95.2675 66.7857 94.4043 136.333 94.4043 136.333Z" fill="#F6AA99"/>
<path d="M73.4692 37.3158C72.2428 39.1447 70.8094 40.8263 69.1973 42.3273C68.4588 43.0103 67.5277 43.4495 66.5304 43.5855C65.5332 43.7214 64.5182 43.5474 63.6235 43.0871C61.5948 41.7313 59.7928 40.0647 58.2837 38.1487L58.6202 34.0576L73.1473 33.2102L73.4692 37.3158Z" fill="#EE6066"/>
<path d="M52.9 77.8896C53.0463 76.3117 47.2969 75.7711 46.858 77.8896C46.4191 80.0082 52.6805 80.4611 52.9 77.8896Z" fill="#EE6066"/>
<path d="M86.6797 77.8896C86.8114 76.3117 81.062 75.7711 80.6231 77.8896C80.1842 80.0082 86.4457 80.4611 86.6797 77.8896Z" fill="#EE6066"/>
<path d="M64.7063 116.17C64.7063 116.17 61.6341 122.015 64.9404 126.544C65.7297 124.921 66.1202 123.133 66.0795 121.329C66.0388 119.525 65.5681 117.756 64.7063 116.17Z" fill="#EE6066"/>
<path d="M49.6528 50.7434C54.5819 52.3102 59.6701 53.3246 64.8237 53.7678C70.6298 54.0064 76.4237 53.0619 81.8525 50.9918C81.8525 50.9918 63.0681 52.7305 49.6528 50.7434Z" fill="#F3877C"/>
<path d="M96.716 135.515H32.6971L27.6353 189.984H61.7221C62.1756 189.984 64.648 177.024 64.648 177.024C64.648 177.024 67.1789 189.984 67.5739 189.984H101.661L96.716 135.515Z" fill="#213555"/>
<path d="M81.1356 19.2276C81.2234 18.9938 82.306 13.8362 80.7406 10.4611C79.1753 7.08605 77.6538 6.18019 74.406 4.90905C71.4509 -0.175494 63.4924 -1.38819 57.3626 1.62163C51.5108 4.54378 43.7425 14.1284 54.4367 24.7212C65.1309 35.3141 78.7656 26.5768 81.1356 19.2276Z" fill="#142033"/>
<path d="M54.6272 21.5945C54.6272 21.5945 53.8957 18.4093 52.3157 17.8395C50.7357 17.2697 48.8924 19.9288 49.3021 22.0036C49.5576 23.0728 50.0416 24.0742 50.7209 24.9392C51.4001 25.8042 52.2586 26.5123 53.2374 27.0151C54.4224 27.3511 55.4026 25.9923 55.5928 25.1449C55.4719 23.9158 55.1455 22.7157 54.6272 21.5945Z" fill="#F3877C"/>
<path d="M51.5985 23.5232C51.096 22.8034 50.8024 21.959 50.75 21.0832C50.867 20.1043 51.6131 18.9354 52.213 18.9792C52.8128 19.0231 54.1733 22.0329 54.2465 22.5443C54.3196 23.0556 53.1054 23.0702 53.2663 23.6985C53.4272 24.3268 54.2904 24.9258 54.5537 25.2765C54.817 25.6271 54.8609 25.9486 54.1441 26.0508C53.4272 26.1531 52.2715 24.692 52.2715 24.692C52.2715 24.692 53.6028 25.7002 53.9539 25.4518C54.305 25.2034 53.0615 24.2537 52.608 23.567C52.1544 22.8803 53.5881 22.6758 53.5442 22.2813C53.5442 22.1644 52.6957 20.075 52.1544 20.1189C51.6131 20.1627 50.9694 21.3462 51.5985 23.5232Z" fill="#EE6066"/>
<path d="M52.6372 21.7117C52.4374 21.9177 52.2894 22.1682 52.2055 22.4426C52.1216 22.7169 52.1041 23.0072 52.1544 23.2896C52.225 23.7815 52.4688 24.2322 52.842 24.5608C52.5302 24.409 52.2658 24.175 52.0776 23.884C51.8893 23.5929 51.7844 23.2561 51.7741 22.9098C51.758 22.6414 51.8351 22.3757 51.9923 22.1574C52.1496 21.9392 52.3773 21.7818 52.6372 21.7117Z" fill="#EE6066"/>
<path d="M54.0416 17.9859C53.6314 18.4704 53.4175 19.0906 53.4418 19.7246C53.5462 21.231 53.7465 22.7292 54.0416 24.2101C54.4753 27.2217 55.2863 30.167 56.4555 32.9766C58.2145 35.0609 60.2468 36.8989 62.4975 38.441C64.3565 39.0224 66.3549 38.9813 68.1884 38.3241C69.0369 37.8712 73.8939 34.5691 74.6839 33.3126C75.4739 32.0561 78.3267 21.8432 78.3267 21.8432C76.3224 22.0915 77.0832 19.5347 76.4541 18.4973C75.825 17.4599 74.6108 17.2992 73.8208 16.7732C72.8403 16.1341 71.937 15.384 71.1289 14.5378C70.5086 13.9852 70.0091 13.3107 69.6618 12.5564C69.3144 11.8022 69.1266 10.9846 69.1101 10.1545L57.8746 15.5167C56.4421 16.0709 55.1378 16.9111 54.0416 17.9859Z" fill="#F6AA99"/>
<path d="M67.2227 23.1142C67.2227 23.1142 67.6469 23.8594 70.6021 23.874C73.5572 23.8886 74.5521 22.5298 74.5521 22.5298L67.8371 22.7636L67.2227 23.1142Z" fill="#F3877C"/>
<path d="M68.349 20.7035C67.8628 21.3632 67.6059 22.1636 67.6176 22.9827C68.9635 22.8805 71.3481 20.5866 71.3481 20.5866C70.3474 20.5027 69.3402 20.542 68.349 20.7035Z" fill="#EE6066"/>
<path d="M68.2909 22.0764C68.2177 22.0764 67.2083 23.0992 67.34 23.3183C67.4716 23.5375 67.9544 23.3183 67.9544 23.3183L68.2909 22.0764Z" fill="#F3877C"/>
<path d="M67.8521 23.0995C67.8521 22.9826 68.2617 21.0102 69.315 20.718C70.4265 20.4182 71.5976 20.4182 72.7091 20.718C73.6161 21.0394 74.5816 22.5297 74.5816 22.5297C73.3404 22.924 72.0506 23.1453 70.7487 23.1872C68.0715 23.3479 67.8521 23.0995 67.8521 23.0995Z" fill="white"/>
<path d="M72.3283 21.7846C72.2913 22.1363 72.117 22.4594 71.8431 22.6836C71.5693 22.9079 71.218 23.0153 70.8653 22.9827C70.6838 22.9756 70.5057 22.9315 70.3419 22.8531C70.1781 22.7747 70.0321 22.6636 69.9128 22.5268C69.7936 22.3899 69.7037 22.2301 69.6486 22.0573C69.5935 21.8844 69.5745 21.7021 69.5926 21.5216C69.6296 21.1687 69.8034 20.8443 70.0768 20.6177C70.3501 20.3911 70.7014 20.2802 71.0555 20.3089C71.2377 20.3179 71.4161 20.3638 71.58 20.4438C71.7438 20.5237 71.8897 20.6362 72.0087 20.7742C72.1278 20.9122 72.2175 21.0729 72.2724 21.2466C72.3273 21.4203 72.3464 21.6033 72.3283 21.7846Z" fill="#321E41"/>
<path d="M72.9136 22.3688C73.0014 21.9597 71.4507 21.6675 71.4507 22.1058C71.4507 22.5441 72.9136 22.6464 72.9136 22.3688Z" fill="white"/>
<path d="M67.7637 20.9083C69.1253 20.7651 70.4983 20.7651 71.8599 20.9083C72.8769 21.2049 73.8027 21.7526 74.5518 22.5009C74.3383 21.9956 74.021 21.5406 73.6203 21.1656C73.2196 20.7906 72.7444 20.5038 72.2257 20.3239C71.4812 20.1132 70.7016 20.0564 69.9344 20.1569C69.1672 20.2574 68.4286 20.5131 67.7637 20.9083Z" fill="#321E41"/>
<path d="M69.2271 19.8558C70.2472 19.7514 71.2772 19.7957 72.2846 19.9873C72.9372 20.2028 73.55 20.5236 74.0987 20.937C73.7702 20.4341 73.3296 20.014 72.8113 19.7097C71.6307 19.3825 70.377 19.4336 69.2271 19.8558Z" fill="#F3877C"/>
<path d="M62.4244 17.4158C63.0533 18.0791 63.5719 18.8388 63.9605 19.6658C64.1031 20.5465 64.1031 21.4443 63.9605 22.325L61.7075 18.3362L62.4244 17.4158Z" fill="#F3877C"/>
<path d="M58.8402 18.5264C60.0984 18.5264 62.9657 18.8478 62.9365 18.7748C62.8505 18.2944 62.6769 17.8338 62.4245 17.416C60.6835 17.416 59.4985 16.7439 58.0356 17.0507C57.0377 17.3669 56.2063 18.0658 55.7241 18.9939C56.7454 18.7387 57.7889 18.5822 58.8402 18.5264Z" fill="#321E41"/>
<path d="M67.7492 17.4158C67.2429 18.1271 66.7976 18.8798 66.4179 19.6658C66.1433 20.5111 66.1029 21.4148 66.3009 22.2812L68.1149 17.9856L67.7492 17.4158Z" fill="#F3877C"/>
<path d="M71.3333 18.5264C70.0752 18.5264 67.2078 18.8478 67.237 18.7748C67.323 18.2944 67.4966 17.8338 67.7491 17.416C69.49 17.416 70.675 16.7439 72.1379 17.0507C73.1358 17.3669 73.9672 18.0658 74.4494 18.9939C73.4281 18.7387 72.3846 18.5822 71.3333 18.5264Z" fill="#321E41"/>
<path d="M62.6729 25.8758C62.6729 25.8758 64.326 28.9879 65.233 28.7979C66.1401 28.608 67.603 25.7881 67.603 25.7881C66.8503 26.4696 65.8943 26.8854 64.8819 26.9716C64.0558 26.8247 63.2892 26.4444 62.6729 25.8758Z" fill="#F3877C"/>
<path d="M65.0864 26.5188C65.9591 26.3757 66.8163 26.1507 67.6466 25.8467C66.9821 26.5926 66.0946 27.105 65.1157 27.3078C64.0916 27.3078 62.7018 25.8467 62.7164 25.8467C63.4765 26.1651 64.2722 26.3908 65.0864 26.5188Z" fill="#EE6066"/>
<path d="M64.4872 24.9111C63.7411 25.0865 63.9166 26.1969 64.9846 26.27C66.0525 26.343 66.3305 25.5394 66.0379 25.0865C65.8088 24.9438 65.5507 24.8541 65.2824 24.8238C65.0141 24.7934 64.7424 24.8233 64.4872 24.9111Z" fill="#F8BBB1"/>
<path d="M62.9214 34.0576C63.1907 33.7194 63.5369 33.4501 63.9313 33.2723C64.3256 33.0944 64.7568 33.013 65.189 33.0349C65.6442 33.0088 66.0985 33.0999 66.5084 33.2994C66.9182 33.499 67.2699 33.8003 67.5297 34.1745C66.0084 34.5248 64.423 34.4846 62.9214 34.0576Z" fill="#F3877C"/>
<path d="M62.8778 23.2456C62.8778 23.2456 62.439 24.02 59.4984 23.9469C58.7829 24.0226 58.0595 23.9298 57.3863 23.6761C56.7131 23.4224 56.1087 23.0147 55.6216 22.4858L62.2927 22.9388L62.8778 23.2456Z" fill="#F3877C"/>
<path d="M61.8389 20.6885C62.3047 21.4039 62.5349 22.2468 62.4973 23.0993C61.166 22.9532 58.8545 20.4693 58.8545 20.4693C59.8545 20.4223 60.8566 20.4959 61.8389 20.6885Z" fill="#EE6066"/>
<path d="M61.8535 22.033C61.9267 22.033 62.9361 23.0557 62.8044 23.2603C62.6728 23.4648 62.2046 23.2603 62.2046 23.2603L61.8535 22.033Z" fill="#F3877C"/>
<path d="M62.2488 23.2161C62.2488 23.0992 61.8977 21.0099 60.9029 20.6885C59.8151 20.3311 58.648 20.2905 57.5381 20.5716C56.6164 20.9076 55.6216 22.3687 55.6216 22.3687C56.8399 22.8151 58.1158 23.0857 59.4106 23.1723C62.0293 23.4645 62.2488 23.2161 62.2488 23.2161Z" fill="white"/>
<path d="M60.6247 21.6238C60.6357 21.8937 60.5666 22.161 60.4262 22.392C60.2858 22.623 60.0803 22.8075 59.8354 22.9224C59.5906 23.0373 59.3172 23.0775 59.0495 23.038C58.7819 22.9984 58.5318 22.8809 58.3307 22.7002C58.1296 22.5194 57.9864 22.2834 57.9189 22.0217C57.8515 21.76 57.8628 21.4843 57.9515 21.229C58.0402 20.9737 58.2024 20.7503 58.4176 20.5866C58.6329 20.4229 58.8918 20.3263 59.1618 20.3088C59.3448 20.2969 59.5283 20.3218 59.7016 20.3818C59.8748 20.4419 60.0343 20.536 60.1706 20.6585C60.3069 20.781 60.4173 20.9295 60.4953 21.0953C60.5733 21.2611 60.6173 21.4407 60.6247 21.6238Z" fill="#321E41"/>
<path d="M62.4097 20.9809C61.0417 20.8015 59.6577 20.7769 58.2842 20.9079C57.2893 21.1675 56.3745 21.6695 55.6216 22.3689C55.6216 22.3689 56.4408 20.4695 57.9916 20.1627C58.7437 19.9752 59.5274 19.9512 60.2897 20.0923C61.0519 20.2335 61.7749 20.5365 62.4097 20.9809Z" fill="#321E41"/>
<path d="M60.9757 19.7826C59.967 19.6313 58.9414 19.6313 57.9327 19.7826C57.2811 19.9936 56.6683 20.3095 56.1187 20.7177C56.457 20.2128 56.9076 19.7928 57.4353 19.4904C58.6151 19.1918 59.8609 19.2947 60.9757 19.7826Z" fill="#F3877C"/>
<path d="M61.21 22.1793C61.21 21.741 59.7471 21.6241 59.7471 22.0917C59.7471 22.5592 61.21 22.4862 61.21 22.1793Z" fill="white"/>
<path d="M77.4191 21.6381C77.4191 21.6381 78.2091 18.4529 79.7159 17.8831C81.2228 17.3133 83.1539 19.987 82.7443 22.0472C82.4866 23.1216 81.9969 24.1268 81.3096 24.9924C80.6222 25.8581 79.7538 26.5633 78.765 27.0587C77.5654 27.3947 76.5999 26.0359 76.4097 25.2031C76.5428 23.9665 76.8841 22.7612 77.4191 21.6381Z" fill="#F6AA99"/>
<path d="M80.9452 23.582C81.4435 22.8547 81.7366 22.0068 81.7937 21.1274C81.662 20.1484 80.9159 18.9796 80.3307 19.0234C79.7456 19.0672 78.3704 22.0771 78.3119 22.5884C78.2533 23.0998 79.4383 23.129 79.2774 23.7573C79.1165 24.3856 78.268 24.97 77.99 25.3206C77.7121 25.6713 77.6828 26.0074 78.4143 26.095C79.1457 26.1827 80.2283 24.7362 80.2283 24.7362C80.2283 24.7362 78.897 25.7444 78.5459 25.496C78.1948 25.2476 79.4383 24.2979 79.8918 23.6112C80.3454 22.9245 78.9117 22.7199 78.9556 22.3401C78.9556 22.2086 79.8187 20.1338 80.3454 20.1631C80.872 20.1923 81.545 21.3904 80.9452 23.582Z" fill="#EE6066"/>
<path d="M79.8923 21.7556C80.0923 21.9646 80.2403 22.2176 80.3241 22.4943C80.408 22.771 80.4255 23.0635 80.3751 23.3482C80.3089 23.8374 80.064 24.2849 79.6875 24.6047C80.0001 24.4524 80.2657 24.2186 80.4563 23.928C80.6468 23.6374 80.7553 23.3008 80.7701 22.9537C80.7799 22.6845 80.6987 22.4199 80.5394 22.2025C80.3801 21.9851 80.1522 21.8277 79.8923 21.7556Z" fill="#F3877C"/>
<path d="M61.6055 29.6742C62.6362 30.5687 63.9422 31.0843 65.3067 31.1352C66.3717 31.1827 67.4276 30.9209 68.3468 30.3816C69.2659 29.8422 70.0088 29.0484 70.4856 28.0962C69.2204 29.0109 67.7643 29.628 66.2265 29.9012C64.6887 30.1745 63.109 30.0969 61.6055 29.6742Z" fill="#EE6066"/>
<path d="M731.316 59.3342C731.316 59.3342 703.447 67.6624 696.279 85.9843C689.11 104.306 689.9 108.499 686.872 115.425C683.844 122.35 681.21 137.063 682.351 154.1C683.683 174.16 682.615 181.378 691.129 189.881C714.039 129.028 731.316 59.3342 731.316 59.3342Z" fill="#F6AA99"/>
<path d="M754.417 59.3342C754.417 59.3342 782.345 67.7208 789.44 85.9843C796.535 104.248 795.833 108.499 798.861 115.425C801.89 122.35 804.523 137.063 803.382 154.1C802.036 174.16 803.119 181.378 794.604 189.881C771.694 129.028 754.417 59.3342 754.417 59.3342Z" fill="#F6AA99"/>
<path d="M692.022 195.594C691.948 197.172 692.212 201.439 692.636 206.757C693.733 220.579 695.913 241.589 695.913 241.589C693.686 251.115 692.184 260.795 691.422 270.548C689.432 296.949 702.584 314.906 700.434 330.262C700.258 332.84 699.482 335.342 698.166 337.567C697.317 339.024 696.24 340.336 694.977 341.454C692.519 343.66 690.398 344.566 684.941 347.809C679.484 351.053 673.237 353.917 673.237 356.386C673.237 356.386 673.34 357.496 674.788 357.496H704.779C709.328 357.496 710.528 354.297 713.907 352.602C717.287 350.907 722.685 353.376 725.991 349.899C727.191 348.628 727.308 345.808 727.016 342.666C727.016 342.33 727.016 342.009 726.899 341.687C726.679 339.788 726.343 337.83 726.021 336.033C725.689 334.144 725.474 332.236 725.377 330.32C725.977 310.932 730.029 266.734 730.863 255.382C731.302 249.859 733.877 221.309 735.252 206.816C735.72 201.702 736.013 198.341 736.013 198.341C736.013 198.341 704.281 188.727 692.022 195.594Z" fill="#F6AA99"/>
<path d="M726.02 349.84C722.758 353.332 717.243 350.907 713.936 352.543C710.63 354.18 709.357 357.438 704.808 357.438C704.808 357.438 707.734 357.862 710.85 353.902C718.062 344.887 723.124 346.86 726.942 341.629C726.942 341.951 727.03 342.272 727.059 342.608C727.337 345.749 727.22 348.569 726.02 349.84Z" fill="#F3877C"/>
<path d="M708.539 345.004C707.595 346.908 706.247 348.583 704.589 349.913C701.765 352.061 698.942 353.449 697.61 354.735C696.913 355.463 696.521 356.43 696.513 357.438H694.143C694.291 356.453 694.689 355.523 695.299 354.735C696.63 353.084 699.088 352.163 702.145 350.235C704.443 348.704 706.584 346.952 708.539 345.004Z" fill="#EE6066"/>
<path d="M700.346 354.793C701.376 354.738 702.408 354.816 703.418 355.027C703.997 355.147 704.6 355.07 705.13 354.808C705.715 354.501 706.388 354.019 706.49 353.347C706.49 351.696 703.564 351.374 700.141 354.194C700.075 354.231 700.023 354.289 699.996 354.36C699.969 354.43 699.967 354.508 699.992 354.579C700.016 354.651 700.065 354.711 700.13 354.75C700.195 354.79 700.271 354.805 700.346 354.793Z" fill="#F8BBB1"/>
<path d="M697.727 350.235C695.255 352.485 691.466 354.487 690.281 355.597C689.695 356.05 689.303 356.708 689.184 357.438H687.721C687.803 356.873 688.004 356.331 688.308 355.848C688.613 355.365 689.016 354.951 689.491 354.633C691.363 353.493 694.363 352.017 697.727 350.235Z" fill="#EE6066"/>
<path d="M691.612 350.235C689.14 352.485 685.351 354.487 684.166 355.597C683.58 356.05 683.188 356.708 683.068 357.438H681.605C681.688 356.873 681.888 356.331 682.193 355.848C682.498 355.365 682.901 354.951 683.376 354.633C685.248 353.493 688.247 352.017 691.612 350.235Z" fill="#EE6066"/>
<path d="M686.316 350.235C683.829 352.485 680.055 354.487 678.87 355.597C678.284 356.05 677.892 356.708 677.773 357.438H676.31C676.392 356.873 676.592 356.331 676.897 355.848C677.202 355.365 677.605 354.951 678.08 354.633C679.952 353.493 682.966 352.017 686.316 350.235Z" fill="#EE6066"/>
<path d="M691.129 356.005C691.995 355.8 692.896 355.8 693.762 356.005C693.762 356.005 694.889 354.807 694.669 354.413C694.274 353.799 692.46 353.931 691.129 356.005Z" fill="#F8BBB1"/>
<path d="M684.78 356.005C685.646 355.8 686.547 355.8 687.413 356.005C687.413 356.005 688.54 354.807 688.306 354.413C687.925 353.799 686.111 353.931 684.78 356.005Z" fill="#F8BBB1"/>
<path d="M679.293 356.006C680.043 355.825 680.826 355.825 681.576 356.006C681.576 356.006 682.556 354.969 682.366 354.545C682.175 354.121 680.449 354.209 679.293 356.006Z" fill="#F8BBB1"/>
<path d="M674.188 356.05C674.938 355.869 675.72 355.869 676.47 356.05C676.47 356.05 677.45 355.012 677.246 354.661C677.041 354.311 675.271 354.252 674.188 356.05Z" fill="#F8BBB1"/>
<path d="M735.969 198.283C735.304 201.055 735.048 203.91 735.208 206.757H692.636C692.212 201.439 691.948 197.172 692.021 195.594C704.281 188.727 735.969 198.283 735.969 198.283Z" fill="#F3877C"/>
<path d="M705.7 248.836C702.511 250.56 706.198 260.276 711.259 261.723C716.321 263.169 720.198 252.123 717.272 250.034C715.59 248.836 708.831 247.126 705.7 248.836Z" fill="#F3877C"/>
<path d="M792.878 195.594C792.966 197.172 792.702 201.439 792.278 206.757C791.181 220.579 789.001 241.589 789.001 241.589C791.227 251.114 792.724 260.795 793.478 270.548C795.482 296.949 782.315 314.906 784.48 330.262C784.658 332.838 785.429 335.338 786.733 337.567C787.592 339.017 788.668 340.328 789.923 341.454C792.38 343.66 794.516 344.566 799.958 347.809C805.401 351.053 811.662 353.917 811.662 356.386C811.662 356.386 811.56 357.496 810.111 357.496H780.106C775.556 357.496 774.357 354.297 770.963 352.602C767.569 350.907 762.185 353.376 758.893 349.899C757.694 348.628 757.577 345.808 757.869 342.666C757.869 342.33 757.869 342.009 757.986 341.687C758.191 339.788 758.542 337.83 758.864 336.033C759.198 334.145 759.408 332.236 759.493 330.32C758.908 310.932 754.856 266.734 754.022 255.382C753.568 249.859 751.008 221.309 749.633 206.816C749.179 201.702 748.872 198.341 748.872 198.341C748.872 198.341 780.618 188.727 792.878 195.594Z" fill="#F6AA99"/>
<path d="M758.893 349.84C762.14 353.332 767.67 350.907 770.962 352.543C774.254 354.18 775.556 357.438 780.106 357.438C780.106 357.438 777.18 357.862 774.064 353.902C766.837 344.887 761.789 346.86 757.971 341.629C757.971 341.951 757.883 342.272 757.854 342.608C757.576 345.749 757.693 348.569 758.893 349.84Z" fill="#F3877C"/>
<path d="M776.376 345.004C777.32 346.908 778.668 348.583 780.326 349.913C783.149 352.061 785.973 353.449 787.304 354.735C787.989 355.471 788.379 356.433 788.402 357.438H790.757C790.614 356.452 790.215 355.52 789.601 354.735C788.27 353.084 785.827 352.163 782.755 350.235C780.46 348.706 778.324 346.954 776.376 345.004Z" fill="#EE6066"/>
<path d="M784.568 354.793C783.534 354.739 782.496 354.817 781.481 355.027C780.907 355.146 780.31 355.068 779.784 354.808C779.462 354.682 779.172 354.486 778.937 354.233C778.701 353.98 778.526 353.677 778.424 353.347C778.424 351.696 781.35 351.374 784.773 354.194C784.839 354.231 784.89 354.289 784.918 354.36C784.945 354.43 784.946 354.508 784.922 354.579C784.898 354.651 784.849 354.711 784.784 354.75C784.719 354.79 784.643 354.805 784.568 354.793Z" fill="#F8BBB1"/>
<path d="M787.187 350.235C789.659 352.485 793.433 354.487 794.618 355.597C795.203 356.053 795.599 356.709 795.73 357.438H797.193C797.111 356.873 796.91 356.331 796.605 355.848C796.3 355.365 795.898 354.951 795.423 354.633C793.55 353.493 790.551 352.017 787.187 350.235Z" fill="#EE6066"/>
<path d="M793.302 350.235C795.774 352.485 799.549 354.487 800.734 355.597C801.319 356.053 801.714 356.709 801.845 357.438H803.308C803.226 356.873 803.025 356.331 802.721 355.848C802.416 355.365 802.013 354.951 801.538 354.633C799.666 353.493 796.667 352.017 793.302 350.235Z" fill="#EE6066"/>
<path d="M798.539 350.235C801.011 352.485 804.801 354.487 805.986 355.597C806.571 356.05 806.964 356.708 807.083 357.438H808.546C808.463 356.873 808.263 356.331 807.958 355.848C807.653 355.365 807.25 354.951 806.776 354.633C804.961 353.493 801.962 352.017 798.539 350.235Z" fill="#EE6066"/>
<path d="M793.784 356.005C792.919 355.8 792.017 355.8 791.151 356.005C791.151 356.005 790.025 354.807 790.244 354.413C790.639 353.799 792.439 353.931 793.784 356.005Z" fill="#F8BBB1"/>
<path d="M800.134 356.005C799.268 355.8 798.367 355.8 797.501 356.005C797.501 356.005 796.374 354.807 796.594 354.413C796.989 353.799 798.803 353.931 800.134 356.005Z" fill="#F8BBB1"/>
<path d="M805.606 356.006C804.86 355.826 804.083 355.826 803.338 356.006C803.338 356.006 802.358 354.969 802.548 354.545C802.738 354.121 804.391 354.209 805.606 356.006Z" fill="#F8BBB1"/>
<path d="M810.798 356.05C810.048 355.868 809.266 355.868 808.516 356.05C808.516 356.05 807.536 355.012 807.726 354.661C807.916 354.311 809.628 354.252 810.798 356.05Z" fill="#F8BBB1"/>
<path d="M748.931 198.283C749.603 201.054 749.86 203.91 749.691 206.757H792.278C792.702 201.439 792.966 197.172 792.878 195.594C780.618 188.727 748.931 198.283 748.931 198.283Z" fill="#F3877C"/>
<path d="M779.214 248.836C782.403 250.56 778.716 260.276 773.655 261.723C768.593 263.169 764.716 252.123 767.627 250.034C769.28 248.836 776.068 247.126 779.214 248.836Z" fill="#F3877C"/>
<path d="M791.4 144.398C777.385 155.59 755.631 157.665 741.045 158.205C726.459 158.746 705.759 154.1 693.06 146.137C696.63 126.748 699.526 119.195 704.764 107.462C705.407 106.001 706.066 104.54 706.783 102.933C702.994 96.8549 703.857 88.1615 709.855 79.658C715.165 72.0604 731.389 59.3344 731.389 59.3344L731.799 56.1639L732.457 51.094L753.817 50.6995L754.358 57.3035L754.49 58.9253C754.49 58.9253 772.191 72.075 777.399 79.1028C782.929 86.5251 785.855 95.5107 782.066 103.751C782.578 105.066 783.12 106.586 783.69 108.266C787.515 120.008 790.099 132.119 791.4 144.398Z" fill="#F6AA99"/>
<path d="M777.327 79.1025C782.857 86.5248 785.783 95.5104 781.993 103.751C782.506 105.066 783.047 106.585 783.617 108.266C787.467 120.006 790.075 132.116 791.4 144.398" stroke="#F3877C" stroke-width="1.9304" stroke-miterlimit="10" stroke-linecap="round"/>
<path d="M693.06 146.137C696.63 126.748 699.526 119.195 704.764 107.462C705.407 106.001 706.066 104.54 706.783 102.933C702.994 96.8548 703.857 88.1614 709.855 79.658" stroke="#F3877C" stroke-width="1.9304" stroke-miterlimit="10" stroke-linecap="round"/>
<path d="M763.604 106.717C763.97 106.6 769.968 99.6455 776.946 105.636C771.05 108.879 763.604 106.717 763.604 106.717Z" fill="#EE6066"/>
<path d="M723.929 106.717C723.563 106.6 717.565 99.6455 710.586 105.636C716.614 108.879 723.929 106.717 723.929 106.717Z" fill="#EE6066"/>
<path d="M754.285 57.3035C751.228 59.5974 746.971 61.6868 742.582 61.3069C738.472 60.9312 734.629 59.1083 731.741 56.1639L732.399 51.094L753.759 50.6995L754.285 57.3035Z" fill="#EE6066"/>
<path d="M734.974 102.612C725.655 109.917 714.493 112.167 704.691 107.462C705.335 106.001 705.993 104.54 706.71 102.933C706.71 102.933 717.682 111.495 734.974 102.612Z" fill="#F3877C"/>
<path d="M783.617 108.266C780.338 109.706 776.811 110.5 773.23 110.603C764.028 110.998 758.293 108.076 750.306 102.217C756.244 105.115 762.72 106.747 769.324 107.009C773.764 107.206 778.161 106.071 781.949 103.751C782.447 105.066 783.047 106.585 783.617 108.266Z" fill="#F3877C"/>
<path d="M742.26 131.95C742.26 131.95 739.114 134.974 741.908 144.807C742.993 140.602 743.113 136.207 742.26 131.95Z" fill="#EE6066"/>
<path d="M722.816 118.698C722.816 118.698 749.837 111.524 768.036 118.698C757.679 111.217 738.675 109.566 722.816 118.698Z" fill="#F3877C"/>
<path d="M738.558 65.8361C739.074 66.5714 739.753 67.178 740.543 67.6088C741.332 68.0395 742.209 68.2829 743.108 68.3199C744.085 68.2822 745.039 68.0086 745.887 67.5226C746.736 67.0367 747.453 66.3527 747.98 65.5293C744.989 66.8089 741.626 66.9184 738.558 65.8361Z" fill="#F3877C"/>
<path d="M760.985 33.9411C761.073 33.6781 762.317 27.7315 760.517 23.8451C758.718 19.9586 756.962 18.9066 753.202 17.4309C749.721 11.5866 740.592 10.1256 733.526 13.6175C726.708 16.9634 717.799 28.053 730.117 40.2968C742.435 52.5406 758.25 42.43 760.985 33.9411Z" fill="#142033"/>
<path d="M729.327 36.6726C729.327 36.6726 728.42 32.9907 726.664 32.2894C724.908 31.5881 722.714 34.7148 723.182 37.1109C723.65 39.5071 726.02 42.4 727.717 42.8822C729.093 43.2767 730.234 41.6987 730.453 40.7344C730.299 39.3288 729.918 37.9573 729.327 36.6726Z" fill="#F3877C"/>
<path d="M725.83 38.9084C725.251 38.0761 724.911 37.1005 724.85 36.0885C724.996 34.9489 725.86 33.6047 726.547 33.6485C727.235 33.6923 728.815 37.1843 728.888 37.7687C728.961 38.3532 727.571 38.3824 727.761 39.1129C727.952 39.8435 728.932 40.574 729.224 40.9247C729.517 41.2753 729.575 41.699 728.742 41.8159C727.908 41.9328 726.591 40.2526 726.591 40.2526C726.591 40.2526 728.054 41.4214 728.522 41.1292C728.99 40.837 727.498 39.7558 726.971 38.9522C726.445 38.1486 728.098 37.9148 728.054 37.4911C728.054 37.345 727.059 34.9489 726.445 34.9927C725.83 35.0365 725.143 36.3807 725.83 38.9084Z" fill="#EE6066"/>
<path d="M727.03 36.8044C726.803 37.0483 726.634 37.3411 726.538 37.6603C726.441 37.9795 726.42 38.3165 726.474 38.6454C726.551 39.2121 726.832 39.7316 727.264 40.1065C726.906 39.9314 726.602 39.662 726.386 39.3273C726.169 38.9926 726.048 38.6053 726.035 38.2071C726.014 37.8946 726.101 37.5843 726.283 37.3287C726.464 37.0731 726.728 36.8879 727.03 36.8044Z" fill="#EE6066"/>
<path d="M729.781 32.3633C729.304 32.9191 729.053 33.6334 729.078 34.3649C729.166 36.1036 728.362 45.2792 730.541 49.9839C734.038 57.8006 745.712 60.7228 754.285 51.8686C759.127 46.8572 757.884 36.7757 757.884 36.7757C755.572 37.0679 756.421 34.1312 755.704 32.9185C755.119 31.9542 753.583 31.5451 752.661 30.946C751.534 30.2023 750.494 29.3349 749.56 28.3599C748.849 27.7305 748.275 26.9625 747.872 26.1032C747.469 25.2438 747.247 24.3113 747.219 23.363L734.272 29.5726C732.596 30.1788 731.066 31.1295 729.781 32.3633Z" fill="#F6AA99"/>
<path d="M745.054 38.6603C745.054 38.6603 745.419 39.2885 748.828 39.3177C752.237 39.347 753.378 37.7544 753.378 37.7544L745.653 38.3534L745.054 38.6603Z" fill="#F3877C"/>
<path d="M746.21 35.6359C745.652 36.4041 745.36 37.332 745.376 38.2804C746.926 38.1635 749.764 35.5044 749.764 35.5044C748.578 35.4139 747.386 35.458 746.21 35.6359Z" fill="#EE6066"/>
<path d="M746.165 37.2432C746.077 37.2432 744.907 38.412 745.053 38.7042C745.199 38.9965 745.755 38.7042 745.755 38.7042L746.165 37.2432Z" fill="#F3877C"/>
<path d="M745.653 38.4408C745.653 38.3239 746.121 36.0301 747.306 35.694C748.586 35.3504 749.933 35.3504 751.213 35.694C752.266 36.0739 753.378 37.7833 753.378 37.7833C751.956 38.2321 750.479 38.4877 748.989 38.5431C745.873 38.7038 745.653 38.4408 745.653 38.4408Z" fill="white"/>
<path d="M750.818 36.8923C750.805 37.1018 750.75 37.3065 750.656 37.4944C750.563 37.6822 750.432 37.8493 750.272 37.9856C750.113 38.1219 749.927 38.2248 749.727 38.288C749.526 38.3512 749.315 38.3734 749.106 38.3534C748.9 38.3547 748.695 38.3123 748.506 38.229C748.318 38.1457 748.149 38.0235 748.01 37.8703C747.872 37.7171 747.768 37.5365 747.705 37.3402C747.641 37.144 747.62 36.9366 747.643 36.7316C747.656 36.5222 747.711 36.3174 747.805 36.1296C747.898 35.9418 748.029 35.7747 748.189 35.6384C748.348 35.502 748.534 35.3992 748.734 35.336C748.935 35.2728 749.146 35.2505 749.355 35.2705C749.558 35.2799 749.757 35.3294 749.941 35.4162C750.125 35.503 750.289 35.6254 750.425 35.7762C750.562 35.9271 750.666 36.1034 750.734 36.295C750.801 36.4866 750.83 36.6896 750.818 36.8923Z" fill="#321E41"/>
<path d="M751.549 37.5496C751.666 37.0675 749.955 36.746 749.838 37.2574C749.721 37.7688 751.476 37.9003 751.549 37.5496Z" fill="white"/>
<path d="M745.551 35.928C747.116 35.7562 748.696 35.7562 750.261 35.928C751.437 36.2669 752.508 36.8949 753.378 37.7543C753.132 37.1721 752.766 36.6477 752.305 36.2149C751.844 35.7821 751.297 35.4504 750.7 35.2412C749.84 35 748.94 34.9365 748.055 35.0545C747.169 35.1726 746.317 35.4698 745.551 35.928Z" fill="#321E41"/>
<path d="M747.233 34.6713C748.414 34.5432 749.608 34.5924 750.774 34.8174C751.52 35.0713 752.221 35.4411 752.851 35.9132C752.482 35.3204 751.982 34.8205 751.388 34.4521C750.015 34.0851 748.56 34.1618 747.233 34.6713Z" fill="#F3877C"/>
<path d="M745.522 31.8662C744.965 32.6868 744.475 33.5517 744.059 34.4523C743.744 35.4252 743.698 36.4654 743.928 37.4621L745.961 32.5967L745.522 31.8662Z" fill="#F3877C"/>
<path d="M749.662 33.1373C748.199 33.1373 744.907 33.5171 744.936 33.4295C745.036 32.8774 745.234 32.3478 745.521 31.8661C747.526 31.8661 748.901 31.0917 750.598 31.4278C751.752 31.7971 752.714 32.6055 753.275 33.6779C752.091 33.3807 750.881 33.1997 749.662 33.1373Z" fill="#321E41"/>
<path d="M739.714 41.6259C739.714 41.6259 741.616 45.2201 742.64 45.0594C743.664 44.8987 745.361 41.582 745.361 41.582C744.496 42.3677 743.395 42.8454 742.23 42.9408C741.282 42.7552 740.407 42.2984 739.714 41.6259Z" fill="#F3877C"/>
<path d="M742.464 42.371C743.461 42.1961 744.44 41.932 745.39 41.582C744.628 42.4558 743.6 43.0562 742.464 43.2915C741.279 43.2915 739.685 41.6113 739.685 41.6259C740.577 41.9865 741.511 42.2368 742.464 42.371Z" fill="#EE6066"/>
<path d="M741.762 40.5155C740.914 40.7054 741.104 41.9766 742.333 42.0642C743.562 42.1519 743.898 41.2314 743.561 40.7054C743.294 40.5442 742.994 40.4436 742.683 40.4107C742.372 40.3779 742.058 40.4137 741.762 40.5155Z" fill="#F8BBB1"/>
<path d="M740.021 51.006C740.357 50.6265 740.773 50.3251 741.238 50.1227C741.703 49.9204 742.207 49.822 742.714 49.8346C743.221 49.8471 743.72 49.9702 744.174 50.1953C744.629 50.4203 745.029 50.7419 745.346 51.1375C743.589 51.5455 741.756 51.5003 740.021 51.006Z" fill="#F3877C"/>
<path d="M739.377 31.8662C740.106 32.6251 740.704 33.4989 741.148 34.4523C741.343 35.4634 741.377 36.4988 741.25 37.5206C741.177 37.5206 738.631 32.9182 738.631 32.9182L739.377 31.8662Z" fill="#F3877C"/>
<path d="M735.252 33.1373C736.715 33.1373 740.007 33.5171 739.977 33.4295C739.88 32.8747 739.676 32.3439 739.378 31.8661C737.373 31.8661 735.998 31.0917 734.301 31.4278C733.15 31.7962 732.193 32.6054 731.639 33.6779C732.823 33.3807 734.033 33.1997 735.252 33.1373Z" fill="#321E41"/>
<path d="M739.831 38.602C739.831 38.602 739.392 39.464 735.998 39.3909C732.604 39.3179 731.521 37.623 731.521 37.623L739.216 38.1344L739.831 38.602Z" fill="#F3877C"/>
<path d="M738.705 35.6357C739.243 36.4639 739.509 37.4397 739.465 38.4264C738.002 38.2511 735.267 35.3874 735.267 35.3874C736.418 35.3306 737.573 35.414 738.705 35.6357Z" fill="#EE6066"/>
<path d="M738.719 37.1841C738.807 37.1841 739.977 38.3529 739.831 38.6452C739.684 38.9374 739.128 38.6452 739.128 38.6452L738.719 37.1841Z" fill="#F3877C"/>
<path d="M739.187 38.5433C739.187 38.4118 738.777 36.001 737.621 35.6212C736.361 35.2167 735.01 35.1812 733.73 35.5189C732.677 35.8695 731.521 37.6374 731.521 37.6374C732.933 38.1523 734.41 38.4671 735.91 38.5725C738.924 38.8355 739.187 38.5433 739.187 38.5433Z" fill="white"/>
<path d="M737.3 36.7022C737.323 37.0151 737.252 37.3277 737.096 37.6001C736.94 37.8724 736.706 38.0922 736.425 38.2314C736.143 38.3706 735.827 38.4228 735.515 38.3814C735.204 38.34 734.912 38.2068 734.677 37.9989C734.442 37.791 734.274 37.5178 734.195 37.2142C734.116 36.9106 734.129 36.5903 734.233 36.2944C734.337 35.9984 734.527 35.7401 734.779 35.5525C735.031 35.3649 735.333 35.2565 735.647 35.2412C736.059 35.221 736.462 35.3625 736.771 35.6355C737.08 35.9085 737.27 36.2914 737.3 36.7022Z" fill="#321E41"/>
<path d="M739.362 35.9568C737.813 35.7265 736.242 35.6726 734.681 35.7961C733.487 36.1223 732.399 36.7515 731.521 37.6224C731.521 37.6224 732.472 35.4308 734.257 35.0655C735.122 34.8452 736.025 34.8107 736.905 34.9644C737.785 35.118 738.623 35.4563 739.362 35.9568Z" fill="#321E41"/>
<path d="M737.709 34.5983C736.546 34.4162 735.362 34.4162 734.198 34.5983C733.445 34.8387 732.738 35.2042 732.106 35.6795C732.48 35.0908 732.98 34.5919 733.569 34.2184C734.953 33.8727 736.412 34.0067 737.709 34.5983Z" fill="#F3877C"/>
<path d="M737.987 37.3448C737.987 36.8335 736.305 36.7166 736.246 37.2426C736.217 37.5494 737.943 37.7101 737.987 37.3448Z" fill="white"/>
<path d="M756.684 36.7317C756.684 36.7317 757.606 33.0498 759.347 32.3485C761.088 31.6472 763.297 34.7739 762.829 37.1554C762.36 39.537 760.005 42.4591 758.293 42.9997C756.918 43.3942 755.792 41.8163 755.572 40.852C755.709 39.4261 756.085 38.0333 756.684 36.7317Z" fill="#F6AA99"/>
<path d="M760.751 38.967C761.331 38.1347 761.67 37.1591 761.732 36.1471C761.585 35.0075 760.722 33.6633 760.034 33.7071C759.347 33.7509 757.767 37.2429 757.694 37.8273C757.621 38.4118 759.01 38.441 758.82 39.1715C758.63 39.9021 757.65 40.6326 757.357 40.9833C757.065 41.3339 757.006 41.7576 757.84 41.8745C758.674 41.9914 759.991 40.3112 759.991 40.3112C759.991 40.3112 758.528 41.48 758.06 41.1732C757.591 40.8664 759.084 39.7998 759.61 39.0108C760.137 38.2218 758.484 37.9734 758.513 37.5497C758.513 37.4036 759.522 34.9928 760.137 35.0513C760.751 35.1097 761.439 36.4393 760.751 38.967Z" fill="#EE6066"/>
<path d="M759.552 36.8633C759.778 37.1049 759.946 37.3952 760.043 37.7119C760.139 38.0285 760.161 38.363 760.108 38.6896C760.03 39.2559 759.749 39.7749 759.318 40.1507C759.674 39.973 759.976 39.703 760.192 39.3689C760.409 39.0348 760.531 38.6488 760.547 38.2513C760.565 37.9412 760.476 37.6344 760.295 37.3818C760.114 37.1293 759.852 36.9463 759.552 36.8633Z" fill="#F3877C"/>
<path d="M738.441 46.0383C739.631 47.0719 741.137 47.6697 742.713 47.7331C743.94 47.7848 745.156 47.4813 746.215 46.8593C747.274 46.2372 748.13 45.323 748.682 44.2266C747.22 45.2767 745.541 45.9848 743.768 46.2984C741.995 46.612 740.175 46.5231 738.441 46.0383Z" fill="#EE6066"/>
<path d="M692.768 143.507C692.768 143.507 707.602 156.116 741.045 155.561C779.536 154.407 792.044 142.601 792.044 142.601C795.91 162.083 796.592 182.061 794.063 201.76H747.6V184.359H737.885V201.57H690.574C690.574 201.57 686.726 167.512 692.768 143.507Z" fill="#213555"/>
<path d="M311.083 315.87C305.153 328.534 302.092 342.347 302.115 356.327H153.011C153.249 314.358 164.147 273.136 184.684 236.519L311.083 315.87Z" fill="#94E0CC"/>
<path d="M347.32 275.135C331.544 284.952 318.956 299.127 311.082 315.943L184.683 236.592C205.098 200.094 234.455 169.368 270.003 147.291L347.32 275.135Z" fill="#57D0AF"/>
<path d="M397.909 110.837V260.627C380.015 260.613 362.48 265.642 347.32 275.135L270.003 147.291C308.383 123.427 352.698 110.797 397.909 110.837Z" fill="#17A37C"/>
<path d="M525.362 146.94L448.074 274.77C432.992 265.495 415.621 260.597 397.909 260.627V110.837C442.932 110.777 487.075 123.282 525.362 146.94Z" fill="#FF9E7E"/>
<path d="M610.988 236.212L484.618 315.563C476.645 298.712 463.938 284.539 448.044 274.77L525.332 146.94C561.003 168.961 590.479 199.682 610.988 236.212Z" fill="#F0606C"/>
<path d="M642.822 356.327H493.732C493.749 342.233 490.636 328.311 484.618 315.563L610.988 236.212C631.625 272.908 642.579 314.241 642.822 356.327Z" fill="#E14E4E"/>
<path d="M174.947 340.965L175.382 335.68L177.822 335.875L177.648 337.991L179.959 338.175L180.122 336.196L182.441 336.381L182.278 338.361L184.959 338.575L185.15 336.249L187.59 336.444L187.137 341.939L174.947 340.965Z" fill="white"/>
<path d="M176.301 328.793L181.544 330.49L188.49 329.577L188.17 332.499C186.923 332.714 185.417 332.871 183.652 332.968C184.408 333.133 185.207 333.333 186.051 333.568L187.995 334.087L187.658 337.158L181.019 335.269L175.531 335.813L175.866 332.764C176.206 332.746 176.775 332.698 177.572 332.619C178.181 332.556 178.737 332.509 179.241 332.479L176.011 331.438L176.301 328.793Z" fill="white"/>
<path d="M177.206 322.35L179.618 322.666L179.359 324.525L188.999 325.789L188.563 328.92L178.924 327.655L178.667 329.507L176.255 329.191L177.206 322.35Z" fill="white"/>
<path d="M177.083 322.287L177.453 320.071C177.7 318.594 177.924 317.604 178.125 317.102C178.326 316.595 178.69 316.216 179.216 315.965C179.738 315.708 180.513 315.662 181.54 315.828C182.477 315.979 183.088 316.198 183.372 316.483C183.655 316.768 183.772 317.258 183.723 317.952C183.98 317.357 184.255 316.974 184.549 316.802C184.843 316.631 185.103 316.538 185.329 316.524C185.552 316.504 186.149 316.572 187.122 316.729L190.3 317.242L189.814 320.15L185.81 319.503C185.165 319.399 184.757 319.387 184.586 319.466C184.416 319.54 184.294 319.793 184.222 320.224L189.656 321.101L189.133 324.232L177.083 322.287ZM179.667 319.489L182.347 319.922C182.406 319.57 182.399 319.317 182.328 319.163C182.253 319.003 181.95 318.88 181.419 318.794L180.757 318.688C180.375 318.626 180.112 318.655 179.97 318.774C179.829 318.889 179.728 319.127 179.667 319.489Z" fill="white"/>
<path d="M178.344 314.79L179.427 309.597L181.827 310.086L181.393 312.165L183.666 312.628L184.072 310.682L186.353 311.147L185.947 313.093L188.584 313.63L189.06 311.344L191.46 311.833L190.333 317.234L178.344 314.79Z" fill="white"/>
<path d="M181.554 299.679L193.456 302.347L192.845 305.052L184.81 303.25L192.602 306.132L192.169 308.05L184.06 307.429L191.912 309.189L191.302 311.894L179.4 309.225L180.303 305.22C181.045 305.263 181.917 305.327 182.917 305.412L186.042 305.665L180.643 303.713L181.554 299.679Z" fill="white"/>
<path d="M182.406 296.586L191.872 299.023L192.347 297.15L194.716 297.759L193.459 302.712L181.624 299.666L182.406 296.586Z" fill="white"/>
<path d="M184.71 289.006L191.543 293.319L195.779 294.509L194.974 297.324L190.738 296.134L182.66 296.174L183.459 293.38C185.864 293.582 187.469 293.768 188.274 293.937C187.074 293.418 185.62 292.705 183.911 291.799L184.71 289.006Z" fill="white"/>
<path d="M189.047 275.506L200.166 280.607L198.915 284.355C197.025 284.118 194.906 283.762 192.557 283.286C193.484 283.72 195.41 284.656 198.335 286.094L197.091 289.82L185.08 287.392L186.053 284.477L190.191 285.486L194.188 286.441C192.211 285.675 189.66 284.538 186.536 283.03L187.578 279.909C187.93 279.977 189.238 280.282 191.501 280.825L196.003 281.928C193.264 280.851 190.621 279.682 188.075 278.42L189.047 275.506Z" fill="white"/>
<path d="M188.732 276.113L190.542 271.124L192.838 271.978L192.113 273.975L194.289 274.784L194.967 272.915L197.149 273.726L196.471 275.595L198.994 276.534L199.791 274.337L202.087 275.191L200.204 280.379L188.732 276.113Z" fill="white"/>
<path d="M192.813 265.716L204.83 268.535L203.629 271.555L201.531 270.892L201.111 271.95L203.08 272.936L201.866 275.991L191.116 269.983L192.813 265.716ZM199.487 270.177C198.142 269.816 196.497 269.335 194.55 268.735C196.599 269.895 198.111 270.712 199.085 271.186L199.487 270.177Z" fill="white"/>
<path d="M196.405 257.324L200.739 261.188L207.673 262.028L206.368 265.038L201.058 264.13L205.858 266.214L204.596 269.127L193.397 264.264L194.66 261.351L199.01 263.241L195.22 260.058L196.405 257.324Z" fill="white"/>
<path d="M236.898 205.634L245.445 214.434L242.958 217.511C241.283 216.608 239.436 215.511 237.418 214.218C238.128 214.96 239.59 216.533 241.804 218.939L239.332 221.999L229.013 215.393L230.946 213L234.441 215.437L237.823 217.774C236.253 216.342 234.281 214.355 231.906 211.812L233.977 209.25C234.281 209.44 235.39 210.197 237.305 211.522L241.104 214.18C238.935 212.181 236.889 210.13 234.965 208.027L236.898 205.634Z" fill="white"/>
<path d="M236.47 206.252L239.946 202.274L241.778 203.883L240.386 205.476L242.122 207.001L243.424 205.51L245.165 207.04L243.863 208.531L245.875 210.299L247.405 208.548L249.236 210.158L245.622 214.294L236.47 206.252Z" fill="white"/>
<path d="M244.046 197.868L254.233 204.859L252.02 207.246L250.304 205.866L249.529 206.702L251.009 208.337L248.771 210.751L240.92 201.24L244.046 197.868ZM248.656 204.456C247.533 203.631 246.172 202.585 244.574 201.318C246.065 203.146 247.179 204.457 247.917 205.253L248.656 204.456Z" fill="white"/>
<path d="M250.214 191.491L252.937 196.615L259.161 199.814L256.883 202.178L252.21 199.481L255.993 203.102L253.789 205.39L244.962 196.942L247.166 194.654L250.596 197.936L248.146 193.638L250.214 191.491Z" fill="white"/>
<path d="M322.817 144.519L327.461 155.868L324.876 156.931L321.231 152.402L323.342 157.562L320.876 158.576L316.233 147.226L318.698 146.212L322.442 150.643L320.352 145.533L322.817 144.519Z" fill="white"/>
<path d="M332.549 148.718C332.979 149.87 333.255 150.697 333.378 151.199C333.503 151.695 333.496 152.194 333.354 152.695C333.218 153.195 332.945 153.639 332.536 154.028C332.127 154.418 331.598 154.73 330.949 154.965C330.333 155.187 329.741 155.289 329.175 155.269C328.611 155.243 328.105 155.083 327.656 154.789C327.208 154.496 326.868 154.123 326.635 153.672C326.402 153.22 326.065 152.404 325.625 151.223L324.893 149.261C324.464 148.109 324.186 147.284 324.06 146.789C323.938 146.286 323.945 145.785 324.081 145.286C324.222 144.784 324.497 144.339 324.906 143.95C325.315 143.561 325.844 143.249 326.494 143.014C327.11 142.791 327.7 142.693 328.264 142.719C328.83 142.739 329.338 142.896 329.786 143.189C330.234 143.483 330.575 143.855 330.808 144.307C331.041 144.758 331.377 145.575 331.818 146.755L332.549 148.718ZM328.151 146.032C327.952 145.498 327.795 145.169 327.679 145.045C327.565 144.915 327.416 144.883 327.231 144.95C327.075 145.006 326.977 145.111 326.938 145.265C326.901 145.412 326.993 145.781 327.213 146.371L329.209 151.727C329.458 152.393 329.637 152.794 329.747 152.931C329.862 153.066 330.019 153.098 330.218 153.026C330.422 152.952 330.519 152.815 330.509 152.615C330.499 152.415 330.368 151.978 330.116 151.302L328.151 146.032Z" fill="white"/>
<path d="M330.328 141.939L332.456 141.231C333.874 140.759 334.851 140.494 335.388 140.437C335.929 140.378 336.433 140.523 336.9 140.87C337.369 141.21 337.77 141.872 338.102 142.856C338.405 143.755 338.496 144.396 338.377 144.779C338.257 145.162 337.88 145.494 337.244 145.775C337.888 145.724 338.355 145.788 338.643 145.967C338.931 146.146 339.134 146.332 339.252 146.526C339.373 146.713 339.591 147.272 339.905 148.204L340.932 151.248L338.141 152.177L336.847 148.341C336.639 147.723 336.46 147.357 336.31 147.243C336.165 147.128 335.886 147.139 335.471 147.277L337.227 152.481L334.221 153.482L330.328 141.939ZM334 142.913L334.866 145.48C335.203 145.368 335.424 145.244 335.527 145.109C335.633 144.968 335.6 144.644 335.428 144.135L335.214 143.5C335.091 143.134 334.943 142.917 334.771 142.847C334.604 142.776 334.347 142.798 334 142.913Z" fill="white"/>
<path d="M346.768 136.735L350.303 148.425L347.644 149.222L345.257 141.33L346.582 149.54L344.696 150.105L341.243 142.729L343.576 150.441L340.917 151.237L337.381 139.547L341.319 138.367C341.647 139.035 342.02 139.827 342.439 140.741L343.758 143.59L342.8 137.923L346.768 136.735Z" fill="white"/>
<path d="M352.216 135.322L357.035 146.704L353.887 147.546L353.183 145.456L352.08 145.751L352.448 147.93L349.263 148.781L347.767 136.511L352.216 135.322ZM352.554 143.378C352.051 142.078 351.468 140.463 350.803 138.532C351.076 140.88 351.309 142.589 351.502 143.66L352.554 143.378Z" fill="white"/>
<path d="M356.712 134.428L358.961 143.9L360.833 143.452L361.396 145.822L356.446 147.005L353.634 135.164L356.712 134.428Z" fill="white"/>
<path d="M429.398 140.856C429.275 142.08 429.158 142.945 429.047 143.451C428.941 143.953 428.713 144.4 428.365 144.792C428.022 145.185 427.58 145.469 427.04 145.645C426.501 145.822 425.887 145.877 425.199 145.811C424.546 145.749 423.97 145.587 423.469 145.326C422.973 145.061 422.589 144.7 422.315 144.243C422.042 143.786 421.9 143.304 421.89 142.796C421.88 142.289 421.938 141.408 422.063 140.153L422.272 138.068C422.395 136.844 422.509 135.981 422.615 135.479C422.726 134.973 422.954 134.524 423.297 134.131C423.646 133.739 424.09 133.455 424.629 133.279C425.169 133.102 425.783 133.047 426.471 133.113C427.123 133.175 427.697 133.339 428.193 133.605C428.694 133.865 429.081 134.224 429.355 134.681C429.628 135.138 429.77 135.62 429.78 136.128C429.79 136.635 429.732 137.516 429.606 138.771L429.398 140.856ZM426.628 136.548C426.685 135.981 426.689 135.616 426.639 135.454C426.595 135.288 426.475 135.195 426.279 135.177C426.113 135.161 425.979 135.214 425.875 135.336C425.778 135.453 425.697 135.825 425.634 136.452L425.065 142.143C424.994 142.851 424.978 143.29 425.016 143.461C425.06 143.632 425.187 143.728 425.398 143.748C425.614 143.769 425.762 143.687 425.841 143.502C425.92 143.317 425.996 142.865 426.068 142.148L426.628 136.548Z" fill="white"/>
<path d="M437.879 134.842L434.681 146.766L429.892 146.176L429.664 133.83L432.992 134.24C432.938 137.627 432.841 140.483 432.703 142.809C433.174 140.499 433.619 138.448 434.037 136.659L434.551 134.432L437.879 134.842Z" fill="white"/>
<path d="M437.404 134.83L442.627 135.627L442.261 138.037L440.171 137.718L439.824 140.002L441.78 140.301L441.433 142.592L439.476 142.294L439.075 144.943L441.373 145.293L441.008 147.704L435.577 146.875L437.404 134.83Z" fill="white"/>
<path d="M443.179 135.813L445.385 136.211C446.856 136.476 447.84 136.713 448.338 136.919C448.84 137.127 449.211 137.495 449.451 138.022C449.696 138.546 449.725 139.318 449.537 140.339C449.366 141.271 449.134 141.877 448.843 142.156C448.552 142.434 448.061 142.544 447.368 142.486C447.956 142.75 448.333 143.029 448.498 143.324C448.664 143.619 448.751 143.879 448.76 144.105C448.776 144.327 448.694 144.922 448.516 145.889L447.935 149.048L445.04 148.526L445.773 144.545C445.89 143.904 445.912 143.497 445.836 143.326C445.766 143.155 445.515 143.031 445.086 142.954L444.093 148.355L440.975 147.793L443.179 135.813ZM445.919 138.425L445.429 141.089C445.779 141.152 446.032 141.149 446.188 141.08C446.349 141.008 446.478 140.707 446.575 140.179L446.697 139.521C446.766 139.141 446.743 138.879 446.627 138.736C446.515 138.594 446.279 138.49 445.919 138.425Z" fill="white"/>
<path d="M462.126 139.645L458.197 151.249L454.335 150.38C454.376 148.47 454.511 146.321 454.742 143.93C454.406 144.898 453.673 146.914 452.544 149.976L448.704 149.112L449.88 136.888L452.883 137.564L452.306 141.793L451.769 145.876C452.327 143.826 453.195 141.167 454.373 137.9L457.589 138.623C457.558 138.982 457.39 140.317 457.084 142.629L456.45 147.23C457.24 144.389 458.131 141.635 459.124 138.969L462.126 139.645Z" fill="white"/>
<path d="M461.444 139.477L466.581 140.778L465.97 143.146L463.914 142.625L463.335 144.869L465.259 145.356L464.678 147.607L462.754 147.12L462.082 149.721L464.343 150.294L463.732 152.662L458.391 151.309L461.444 139.477Z" fill="white"/>
<path d="M469.962 141.926L466.667 153.627L463.627 152.76L466.922 141.059L469.962 141.926Z" fill="white"/>
<path d="M476.522 148.366L473.48 147.455L473.801 146.393C474.003 145.724 474.101 145.297 474.094 145.111C474.087 144.925 473.976 144.8 473.759 144.735C473.571 144.679 473.421 144.712 473.31 144.837C473.199 144.961 473.053 145.321 472.873 145.918L471.176 151.529C471.017 152.053 470.946 152.41 470.962 152.599C470.98 152.783 471.09 152.905 471.293 152.966C471.514 153.032 471.692 152.983 471.826 152.818C471.965 152.655 472.116 152.301 472.281 151.757L472.7 150.371L472.086 150.187L472.623 148.411L476.186 149.478L474.288 155.753L472.373 155.179L472.344 154.257C472.028 154.556 471.683 154.749 471.31 154.837C470.943 154.921 470.545 154.899 470.116 154.771C469.606 154.618 469.163 154.351 468.79 153.972C468.422 153.589 468.178 153.179 468.058 152.744C467.937 152.309 467.908 151.883 467.971 151.466C468.036 151.045 468.19 150.432 468.433 149.628L469.483 146.155C469.821 145.038 470.127 144.245 470.4 143.776C470.673 143.306 471.157 142.947 471.853 142.699C472.554 142.447 473.358 142.457 474.263 142.728C475.154 142.995 475.839 143.4 476.316 143.942C476.793 144.484 477.044 145.034 477.069 145.593C477.096 146.147 476.965 146.903 476.675 147.861L476.522 148.366Z" fill="white"/>
<path d="M485.04 146.538L481.147 158.081L478.141 157.08L479.776 152.232L478.877 151.933L477.242 156.781L474.236 155.78L478.129 144.238L481.135 145.238L479.743 149.366L480.642 149.666L482.034 145.538L485.04 146.538Z" fill="white"/>
<path d="M491.436 148.844L490.58 151.139L488.803 150.496L485.383 159.67L482.39 158.586L485.81 149.413L484.04 148.772L484.895 146.477L491.436 148.844Z" fill="white"/>
<path d="M545.758 193.195C544.948 194.114 544.352 194.745 543.968 195.09C543.592 195.434 543.149 195.663 542.639 195.778C542.134 195.897 541.612 195.871 541.073 195.701C540.534 195.53 540.006 195.22 539.488 194.768C538.996 194.339 538.623 193.875 538.369 193.374C538.122 192.872 538.021 192.358 538.064 191.83C538.108 191.303 538.273 190.831 538.559 190.415C538.846 189.999 539.403 189.321 540.232 188.38L541.61 186.816C542.42 185.897 543.013 185.266 543.389 184.922C543.773 184.578 544.217 184.346 544.723 184.228C545.232 184.113 545.756 184.14 546.295 184.31C546.834 184.481 547.362 184.791 547.88 185.243C548.372 185.672 548.741 186.137 548.988 186.638C549.242 187.139 549.347 187.653 549.304 188.181C549.26 188.708 549.095 189.18 548.809 189.596C548.523 190.012 547.965 190.69 547.136 191.631L545.758 193.195ZM546.016 188.11C546.391 187.685 546.605 187.392 546.659 187.233C546.719 187.073 546.676 186.929 546.529 186.8C546.404 186.691 546.264 186.656 546.11 186.695C545.963 186.733 545.682 186.987 545.267 187.457L541.506 191.726C541.039 192.257 540.771 192.602 540.703 192.763C540.639 192.926 540.686 193.078 540.845 193.216C541.008 193.358 541.175 193.377 541.346 193.273C541.518 193.17 541.84 192.849 542.315 192.311L546.016 188.11Z" fill="white"/>
<path d="M550.685 188.036L553.013 190.189C553.748 190.869 554.251 191.44 554.522 191.903C554.796 192.369 554.886 192.884 554.793 193.449C554.703 194.011 554.298 194.678 553.577 195.451C553.089 195.974 552.666 196.261 552.308 196.314C551.953 196.369 551.482 196.229 550.895 195.891C551.321 196.512 551.498 197.053 551.426 197.514C551.357 197.971 551.051 198.491 550.509 199.072L549.736 199.9C549.173 200.504 548.686 200.886 548.274 201.047C547.866 201.212 547.461 201.207 547.059 201.034C546.656 200.86 545.985 200.339 545.047 199.471L542.347 196.975L550.685 188.036ZM551.592 191.723L549.738 193.711C549.841 193.8 549.92 193.869 549.976 193.921C550.205 194.133 550.402 194.212 550.568 194.16C550.738 194.104 551.069 193.811 551.564 193.281C551.825 193.001 551.981 192.782 552.032 192.624C552.087 192.462 552.085 192.327 552.028 192.219C551.974 192.114 551.829 191.949 551.592 191.723ZM548.44 195.102L546.107 197.604C546.446 197.897 546.703 198.038 546.878 198.028C547.056 198.022 547.313 197.838 547.65 197.477L548.427 196.644C548.785 196.261 548.96 195.991 548.954 195.835C548.949 195.679 548.777 195.435 548.44 195.102Z" fill="white"/>
<path d="M556.187 193.289L559.953 196.978L558.244 198.709L556.736 197.233L555.117 198.873L556.527 200.255L554.903 201.901L553.492 200.519L551.614 202.422L553.271 204.045L551.562 205.777L547.646 201.941L556.187 193.289Z" fill="white"/>
<path d="M562.399 204.546L560.345 202.414L560.997 201.781C561.301 201.485 561.468 201.27 561.499 201.135C561.53 200.999 561.484 200.868 561.361 200.741C561.228 200.602 561.07 200.551 560.888 200.588C560.709 200.628 560.506 200.758 560.278 200.98C559.984 201.265 559.802 201.519 559.73 201.744C559.655 201.964 559.685 202.355 559.818 202.915C560.197 204.524 560.321 205.649 560.189 206.291C560.057 206.933 559.56 207.672 558.698 208.509C558.072 209.117 557.538 209.491 557.097 209.631C556.66 209.774 556.137 209.733 555.528 209.508C554.922 209.28 554.35 208.886 553.81 208.326C553.218 207.711 552.828 207.073 552.64 206.412C552.454 205.754 552.476 205.184 552.705 204.701C552.934 204.219 553.379 203.657 554.038 203.017L554.614 202.458L556.668 204.59L555.598 205.63C555.268 205.95 555.084 206.184 555.046 206.334C555.012 206.487 555.068 206.64 555.215 206.793C555.362 206.946 555.53 207 555.72 206.957C555.913 206.917 556.127 206.783 556.363 206.554C556.881 206.052 557.151 205.652 557.174 205.355C557.193 205.055 557.114 204.438 556.937 203.505C556.764 202.569 556.673 201.925 556.665 201.575C556.657 201.224 556.743 200.841 556.925 200.425C557.11 200.013 557.436 199.58 557.903 199.127C558.577 198.473 559.152 198.08 559.628 197.948C560.107 197.82 560.62 197.865 561.165 198.081C561.714 198.294 562.251 198.673 562.776 199.219C563.351 199.815 563.744 200.415 563.954 201.02C564.169 201.628 564.194 202.142 564.03 202.561C563.874 202.981 563.446 203.53 562.747 204.209L562.399 204.546Z" fill="white"/>
<path d="M567.386 204.803L558.358 212.967L556.23 210.624L565.258 202.461L567.386 204.803Z" fill="white"/>
<path d="M572.263 210.093L570.424 211.71L569.166 210.3L561.813 216.762L559.694 214.387L567.047 207.925L565.794 206.521L567.634 204.904L572.263 210.093Z" fill="white"/>
<path d="M576.798 215.533L569.316 218.735L565.917 221.557L564.025 219.306L567.425 216.484L571.981 209.802L573.858 212.035C572.323 213.904 571.257 215.123 570.658 215.691C571.773 214.995 573.194 214.197 574.921 213.299L576.798 215.533Z" fill="white"/>
<path d="M599.702 253.942L602.097 258.655L599.929 259.774L598.97 257.888L596.916 258.948L597.814 260.713L595.753 261.777L594.855 260.012L592.473 261.241L593.527 263.316L591.359 264.435L588.868 259.534L599.702 253.942Z" fill="white"/>
<path d="M605.095 264.954L599.741 266.281L594.329 270.717L593.045 268.073C593.989 267.233 595.184 266.306 596.63 265.293C595.901 265.552 595.116 265.804 594.275 266.05L592.347 266.635L590.998 263.855L597.64 261.955L602.011 258.601L603.35 261.36C603.071 261.555 602.613 261.895 601.978 262.382C601.496 262.757 601.049 263.09 600.637 263.381L603.933 262.56L605.095 264.954Z" fill="white"/>
<path d="M607.76 270.964L605.532 271.966L604.76 270.246L595.853 274.254L594.554 271.356L603.461 267.348L602.693 265.634L604.922 264.632L607.76 270.964Z" fill="white"/>
<path d="M607.712 271.018L608.568 273.095C609.139 274.479 609.472 275.438 609.566 275.97C609.662 276.506 609.553 277.019 609.238 277.508C608.929 277.999 608.294 278.443 607.333 278.84C606.454 279.202 605.819 279.336 605.427 279.243C605.035 279.149 604.677 278.794 604.352 278.177C604.448 278.818 604.416 279.287 604.256 279.587C604.097 279.886 603.925 280.102 603.74 280.232C603.561 280.366 603.016 280.62 602.106 280.996L599.13 282.224L598.006 279.498L601.756 277.952C602.36 277.703 602.714 277.5 602.817 277.343C602.923 277.19 602.893 276.912 602.726 276.508L597.638 278.606L596.428 275.672L607.712 271.018ZM606.991 274.748L604.482 275.783C604.618 276.113 604.757 276.325 604.899 276.419C605.048 276.515 605.37 276.461 605.868 276.256L606.488 276C606.846 275.852 607.053 275.69 607.111 275.514C607.171 275.343 607.131 275.087 606.991 274.748Z" fill="white"/>
<path d="M610.752 277.92L612.562 282.91L610.267 283.763L609.542 281.766L607.367 282.575L608.045 284.444L605.862 285.256L605.184 283.387L602.661 284.325L603.458 286.521L601.162 287.375L599.28 282.187L610.752 277.92Z" fill="white"/>
<path d="M615.797 292.471L604.312 296.498L603.402 293.885L611.156 291.167L603.038 292.842L602.393 290.989L609.586 287.232L602.01 289.888L601.1 287.276L612.585 283.249L613.933 287.118C613.282 287.474 612.51 287.88 611.618 288.336L608.839 289.772L614.44 288.573L615.797 292.471Z" fill="white"/>
<path d="M616.744 295.568L607.44 298.502L608.019 300.342L605.691 301.076L604.16 296.211L615.792 292.542L616.744 295.568Z" fill="white"/>
<path d="M618.992 303.175L610.901 303.128L606.671 304.36L605.864 301.541L610.094 300.309L616.939 295.997L617.739 298.794C615.589 299.896 614.126 300.588 613.352 300.871C614.647 300.677 616.26 300.512 618.192 300.377L618.992 303.175Z" fill="white"/>
<path d="M614.478 314.14C613.287 314.434 612.436 314.613 611.923 314.678C611.417 314.746 610.921 314.682 610.436 314.486C609.952 314.295 609.536 313.976 609.189 313.529C608.842 313.081 608.584 312.524 608.415 311.856C608.254 311.223 608.212 310.628 608.288 310.071C608.371 309.517 608.58 309.036 608.917 308.626C609.254 308.217 609.659 307.923 610.132 307.744C610.605 307.565 611.451 307.324 612.671 307.023L614.698 306.522C615.889 306.228 616.737 306.047 617.244 305.978C617.756 305.914 618.254 305.977 618.738 306.168C619.224 306.364 619.64 306.686 619.987 307.133C620.334 307.581 620.592 308.138 620.761 308.805C620.922 309.439 620.961 310.032 620.879 310.586C620.802 311.143 620.596 311.626 620.259 312.036C619.922 312.445 619.517 312.739 619.044 312.918C618.571 313.097 617.725 313.337 616.505 313.639L614.478 314.14ZM617.59 310.102C618.142 309.965 618.485 309.847 618.62 309.746C618.761 309.649 618.808 309.506 618.76 309.316C618.719 309.155 618.624 309.046 618.475 308.99C618.332 308.937 617.955 308.986 617.345 309.137L611.813 310.504C611.125 310.674 610.707 310.806 610.56 310.899C610.413 310.997 610.366 311.149 610.418 311.353C610.471 311.563 610.598 311.674 610.798 311.687C610.999 311.699 611.448 311.619 612.145 311.447L617.59 310.102Z" fill="white"/>
<path d="M621.449 312.715L622.102 315.803C622.308 316.778 622.389 317.532 622.342 318.065C622.297 318.602 622.075 319.075 621.675 319.483C621.28 319.891 620.568 320.204 619.539 320.424C618.843 320.573 618.335 320.567 618.014 320.405C617.694 320.248 617.392 319.864 617.11 319.254C617.099 320.004 616.933 320.547 616.609 320.882C616.291 321.217 615.745 321.467 614.971 321.633L613.868 321.869C613.065 322.04 612.45 322.075 612.024 321.971C611.598 321.873 611.272 321.638 611.045 321.266C610.818 320.895 610.573 320.087 610.309 318.842L609.552 315.261L621.449 312.715ZM620.068 316.246L617.423 316.812C617.456 316.943 617.48 317.046 617.495 317.119C617.56 317.423 617.674 317.601 617.839 317.653C618.008 317.704 618.446 317.654 619.151 317.503C619.523 317.423 619.776 317.333 619.908 317.233C620.046 317.132 620.122 317.021 620.137 316.9C620.154 316.783 620.131 316.565 620.068 316.246ZM615.571 317.208L612.242 317.921C612.349 318.354 612.476 318.616 612.624 318.707C612.772 318.804 613.086 318.801 613.566 318.698L614.676 318.46C615.185 318.351 615.483 318.231 615.568 318.1C615.653 317.97 615.654 317.672 615.571 317.208Z" fill="white"/>
<path d="M622.93 320.16L623.87 325.357L621.472 325.797L621.096 323.717L618.824 324.133L619.176 326.08L616.897 326.499L616.545 324.551L613.91 325.035L614.324 327.322L611.926 327.762L610.949 322.358L622.93 320.16Z" fill="white"/>
<path d="M621.473 332.988L621.028 330.077L621.92 329.933C622.337 329.866 622.596 329.786 622.699 329.693C622.801 329.601 622.839 329.467 622.813 329.294C622.784 329.105 622.685 328.973 622.516 328.899C622.348 328.83 622.108 328.82 621.796 328.87C621.394 328.935 621.1 329.039 620.914 329.181C620.726 329.318 620.526 329.652 620.313 330.185C619.699 331.713 619.154 332.701 618.679 333.149C618.204 333.597 617.377 333.916 616.197 334.107C615.34 334.245 614.692 334.245 614.255 334.108C613.818 333.975 613.417 333.643 613.051 333.112C612.691 332.58 612.452 331.932 612.335 331.168C612.207 330.329 612.255 329.586 612.482 328.94C612.708 328.298 613.053 327.846 613.516 327.583C613.978 327.32 614.661 327.116 615.563 326.97L616.351 326.843L616.796 329.754L615.331 329.99C614.88 330.063 614.597 330.149 614.48 330.25C614.364 330.355 614.322 330.512 614.354 330.72C614.386 330.928 614.491 331.069 614.67 331.142C614.849 331.22 615.1 331.233 615.422 331.181C616.131 331.066 616.58 330.895 616.768 330.666C616.956 330.432 617.245 329.885 617.637 329.023C618.033 328.161 618.328 327.584 618.522 327.293C618.717 327.003 619.007 326.74 619.392 326.505C619.778 326.274 620.291 326.108 620.931 326.005C621.853 325.856 622.544 325.864 623.006 326.028C623.469 326.197 623.86 326.526 624.178 327.014C624.501 327.5 624.72 328.116 624.834 328.861C624.958 329.674 624.933 330.388 624.758 331.001C624.583 331.619 624.309 332.052 623.936 332.301C623.568 332.554 622.906 332.757 621.949 332.911L621.473 332.988Z" fill="white"/>
<path d="M625.496 335.957L613.446 337.538L613.01 334.407L625.061 332.827L625.496 335.957Z" fill="white"/>
<path d="M626.291 343.175L623.864 343.444L623.659 341.571L613.959 342.648L613.612 339.494L623.313 338.417L623.108 336.552L625.535 336.283L626.291 343.175Z" fill="white"/>
<path d="M627.016 350.268L619.048 348.578L614.636 348.931L614.394 345.995L618.807 345.642L626.401 342.793L626.641 345.706C624.304 346.352 622.726 346.736 621.908 346.857C623.222 346.929 624.845 347.095 626.776 347.354L627.016 350.268Z" fill="white"/>
<path d="M417.966 340.168L417.732 340.679C416.269 344.171 414.674 347.678 413.123 351.155L405.721 355.714H404.404H382.709H373.785H357.868L329.647 346.217L326.721 345.209L319.889 342.9L318.529 342.447L310.483 339.744L249.697 319.289L315.764 314.584L319.553 314.307L325.405 313.883L329.34 313.605L332.383 313.386L333.422 313.299L359.199 311.414L377.618 315.3C387.785 317.448 398.026 319.684 408.34 321.787C411.031 324.417 413.679 327.062 416.371 329.692L416.488 330.408C416.913 333.651 417.454 336.924 417.966 340.168Z" fill="#191919"/>
<path d="M417.966 340.168L417.732 340.679C416.269 344.171 414.675 347.678 413.124 351.155L405.721 355.713H404.405H382.709H374.107L329.253 340.621L326.956 339.846L325.493 339.379L320.621 337.728L317.022 336.53L311.463 334.659L275.738 322.635L315.501 319.713L316.759 319.625L324.718 319.026L326.605 318.894L330.994 318.587H331.315L377.501 315.212C387.668 317.36 397.909 319.596 408.223 321.7C410.915 324.33 413.563 326.974 416.255 329.604L416.372 330.32C416.913 333.651 417.454 336.924 417.966 340.168Z" fill="#474747"/>
<path d="M401.435 321.437C404.781 321.854 407.928 323.253 410.478 325.456C413.028 327.66 414.866 330.57 415.759 333.817C416.653 337.064 416.562 340.503 415.498 343.699C414.434 346.895 412.444 349.703 409.782 351.769C407.119 353.835 403.902 355.066 400.539 355.306C397.175 355.546 393.816 354.784 390.886 353.116C387.957 351.449 385.588 348.951 384.08 345.939C382.573 342.926 381.993 339.535 382.416 336.194C382.982 331.72 385.303 327.653 388.869 324.886C392.434 322.119 396.954 320.879 401.435 321.437Z" fill="#191919"/>
<path d="M397.924 260.846C372.607 260.845 348.319 270.852 330.367 288.68C312.415 306.508 302.258 330.707 302.115 355.991H308.83C309.074 332.588 318.54 310.223 335.178 293.742C351.817 277.26 374.287 267.989 397.721 267.937C421.156 267.886 443.667 277.057 460.378 293.464C477.09 309.872 486.655 332.195 487.003 355.597H493.718C493.471 330.384 483.27 306.288 465.332 288.545C447.395 270.803 423.17 260.848 397.924 260.846Z" fill="#A9ABAE"/>
<path d="M487.003 355.582H444.241H425.442H405.721H404.404H382.709H373.785H357.868L308.83 355.728C308.862 350.335 309.386 344.955 310.395 339.656C310.717 337.932 311.097 336.223 311.521 334.543C312.826 329.391 314.599 324.368 316.817 319.537C317.651 317.697 318.544 315.885 319.509 314.102C322.255 309.053 325.478 304.278 329.135 299.842C330.233 298.483 331.388 297.154 332.603 295.868C337.086 291.021 342.102 286.693 347.554 282.967C349.207 281.812 350.904 280.746 352.63 279.723C356.144 277.637 359.801 275.802 363.573 274.229C365.241 273.528 366.924 272.885 368.635 272.301C375.504 269.906 382.644 268.374 389.892 267.742C391.794 267.567 393.71 267.45 395.627 267.406H397.924C399.489 267.406 401.04 267.406 402.59 267.523C404.478 267.625 406.365 267.786 408.223 268.005C415.575 268.84 422.791 270.603 429.699 273.251C431.411 273.893 433.108 274.595 434.761 275.354C438.682 277.128 442.467 279.189 446.084 281.52C447.766 282.587 449.39 283.726 450.985 284.925C456.459 288.963 461.442 293.626 465.834 298.819C466.99 300.164 468.087 301.552 469.14 302.969C472.355 307.224 475.175 311.762 477.567 316.528C478.488 318.339 479.352 320.18 480.127 322.065C482.312 327.248 483.987 332.631 485.13 338.137C485.481 339.832 485.789 341.556 486.052 343.295C486.651 347.364 486.969 351.469 487.003 355.582Z" fill="white"/>
<path d="M350.48 304.722C354.352 304.122 358.266 303.834 362.184 303.86C367.684 303.86 371.064 304.415 373.975 306.095C375.427 306.828 376.644 307.954 377.487 309.343C378.33 310.733 378.766 312.331 378.744 313.956C378.744 317.462 376.682 320.764 372.19 322.43V322.591C374.441 323.053 376.462 324.279 377.91 326.061C379.358 327.843 380.144 330.071 380.134 332.365C380.143 334 379.773 335.615 379.052 337.083C378.331 338.551 377.279 339.831 375.979 340.825C373.053 343.177 368.24 344.448 360.282 344.448C357.024 344.48 353.769 344.284 350.539 343.864L350.48 304.722ZM359.419 319.99H362.345C367.128 319.99 369.659 318.003 369.659 315.037C369.659 312.071 367.363 310.42 363.281 310.42C362.002 310.38 360.722 310.473 359.463 310.698L359.419 319.99ZM359.419 337.625C360.564 337.769 361.718 337.822 362.871 337.786C366.968 337.786 370.581 336.208 370.581 331.942C370.581 327.675 366.967 326.419 362.579 326.419H359.492L359.419 337.625Z" fill="#17A37C"/>
<path d="M419.97 328.786C419.795 323.965 419.605 318.208 419.634 312.364H419.473C418.2 317.477 416.547 323.132 415.011 327.836L410.125 343.382H403.117L398.816 327.983C397.529 323.293 396.197 317.624 395.203 312.364H395.086C394.895 317.784 394.661 323.95 394.427 328.903L393.681 344.04H385.328L387.888 304.182H399.913L403.805 317.492C405.078 322.065 406.306 327.077 407.199 331.752H407.389C408.472 327.135 409.832 321.875 411.178 317.434L415.421 304.182H427.227L429.363 344.04H420.585L419.97 328.786Z" fill="#17A37C"/>
<path d="M445.367 304.182V344.04H436.341V304.182H445.367Z" fill="#17A37C"/>
</g>
<defs>
<clipPath id="clip0_223_226">
<rect width="811.647" height="506" fill="white"/>
</clipPath>
</defs>
</svg>
