<svg width="811" height="506" viewBox="0 0 811 506" fill="none" xmlns="http://www.w3.org/2000/svg">
<g clip-path="url(#clip0_223_1930)">
<path d="M611.305 199.949C578.293 154.98 531.898 121.579 478.744 104.514C425.591 87.4501 368.398 87.5955 315.332 104.93C262.266 122.264 216.042 155.902 183.259 201.038C150.476 246.174 132.812 300.502 132.789 356.262C132.789 356.262 203.92 355.955 294.054 355.663C294.896 328.833 306.145 303.379 325.425 284.677C344.706 265.974 370.509 255.486 397.387 255.427C424.266 255.369 450.115 265.744 469.477 284.362C488.84 302.98 500.2 328.384 501.16 355.211C591.79 355.211 655.466 356.247 662.439 356.247C662.535 300.033 644.617 245.263 611.305 199.949Z" fill="#6B6B6B"/>
<path d="M605.384 204.27C573.29 160.535 528.177 128.048 476.49 111.449C424.803 94.8507 369.186 94.9897 317.583 111.846C265.98 128.703 221.031 161.415 189.156 205.31C157.28 249.205 140.11 302.038 140.097 356.262C140.097 356.262 209.269 355.955 296.903 355.678C297.473 329.416 308.303 304.419 327.08 286.025C345.856 267.632 371.091 257.301 397.392 257.24C423.693 257.179 448.976 267.392 467.838 285.699C486.7 304.005 497.646 328.952 498.338 355.21C586.396 355.21 649.633 356.218 655.158 356.218C655.23 301.561 637.788 248.316 605.384 204.27Z" fill="#E6E6E6"/>
<path d="M89.534 50.907C89.534 50.907 99.9126 53.5056 100.278 63.141C100.644 72.7765 103.319 93.1568 103.962 97.4782C105.424 103.435 108.552 108.311 109.107 117.756C109.663 127.202 103.26 155.714 103.772 158.794C105.424 164.488 106.622 173.204 97.9246 176.883C90.5426 134.837 83.9353 62.1775 89.534 50.907Z" fill="#F3877C"/>
<path d="M18.6385 158.371C18.6385 158.371 9.63391 152.852 10.4525 150.736C11.2711 148.619 19.0478 155.845 20.4219 156.254C15.1595 149.918 13.4492 146.312 14.8817 146.166C16.3143 146.02 22.0591 153.874 22.0591 153.874C22.0591 153.874 16.4605 144.881 17.4106 144.122C18.3608 143.363 24.2372 151.962 24.2372 151.962C24.2372 151.962 24.1641 157.685 18.6385 158.371Z" fill="#EE6066"/>
<path d="M49.9925 47.9286C49.9925 47.9286 47.8583 53.4033 45.4025 59.5057C42.9467 65.6081 39.95 72.7909 38.6637 75.1121C37.8597 76.572 35.4623 80.0612 32.5826 84.1198C26.487 92.7187 18.1986 103.902 18.1986 103.902C18.1986 103.902 24.8205 128.238 30.1999 142.283C31.0039 144.91 29.2936 150.049 23.3441 149.363C9.2671 133.596 -0.219897 107.785 -0.0444828 103.902C8.30233 84.149 22.277 67.4038 29.1182 59.3159C34.3952 53.0821 49.744 47.8994 49.9925 47.9286Z" fill="#F6AA99"/>
<path d="M45.4029 59.5061C42.8448 65.8129 39.9504 72.7913 38.664 75.1126C37.8601 76.5725 35.4627 80.0617 32.583 84.1202C33.9425 66.2947 36.7637 60.4258 36.9684 59.8273L45.4029 59.5061Z" fill="#F3877C"/>
<path d="M30.2008 142.283C30.8437 143.522 31.2354 144.875 31.3533 146.266C31.4712 147.656 31.313 149.056 30.8879 150.385C29.4261 154.765 23.7982 162.502 20.6553 162.152C17.5125 161.802 8.69791 156.663 8.53711 154.502C10.379 153.042 15.6414 157.816 18.945 157.816C22.7311 152.444 22.2633 146.4 24.4414 145.144C26.6194 143.889 30.2008 142.283 30.2008 142.283Z" fill="#F6AA99"/>
<path d="M30.1573 184.401C30.1573 184.401 30.1573 189.044 30.2742 196.694C30.3912 208.373 30.5666 226.841 30.742 246.535C22.6437 272.901 35.2589 298.318 33.9141 327.575V328.056C33.5779 333.648 32.8177 337.064 27.643 341.911C22.4683 346.758 14.5746 352.145 12.9228 353.751C12.015 354.518 11.4261 355.595 11.271 356.773H35.4051C41.7347 356.773 39.9659 355.488 42.6263 352.904C44.0881 351.561 46.7778 352.685 48.9997 351.955C50.71 351.386 50.5931 348.554 50.0084 344.145C49.8183 342.816 49.5698 341.327 49.3652 339.765C48.9723 335.743 48.7869 331.703 48.8097 327.662C49.336 307.311 52.1572 255.002 52.1572 255.002L59.1592 196.489L60.621 184.81L30.1573 184.401Z" fill="#F6AA99"/>
<path d="M29.6451 355.503H26.8384C26.5753 355.503 26.9554 354.54 27.9348 354.423C29.2504 354.262 29.9228 355.211 29.6451 355.503Z" fill="#F8BBB1"/>
<path d="M24.1778 355.503H21.3858C21.1081 355.503 21.5027 354.54 22.4675 354.423C23.7977 354.262 24.4555 355.211 24.1778 355.503Z" fill="#F8BBB1"/>
<path d="M19.3111 355.503H16.5191C16.2414 355.503 16.636 354.7 17.6008 354.612C18.931 354.481 19.5888 355.313 19.3111 355.503Z" fill="#F8BBB1"/>
<path d="M14.7634 355.503H12.2199C11.9714 355.503 12.3222 354.7 13.2139 354.612C14.3833 354.481 15.0119 355.313 14.7634 355.503Z" fill="#F8BBB1"/>
<path d="M48.9989 352.014C46.777 352.744 44.1165 351.722 42.6401 352.963C45.6953 349.284 45.8415 344.962 49.9491 344.203C50.5923 348.612 50.7092 351.444 48.9989 352.014Z" fill="#F3877C"/>
<path d="M36.5011 347.035C36.7945 347.031 37.0825 347.114 37.3277 347.275C37.5729 347.436 37.7639 347.667 37.8759 347.938C37.9878 348.209 38.0156 348.507 37.9555 348.794C37.8954 349.081 37.7502 349.343 37.5389 349.546L37.4074 349.663C35.6042 351.121 33.918 352.717 32.3642 354.437C31.8891 355.149 31.6163 355.977 31.5748 356.831H29.7622C29.803 356.138 30.002 355.463 30.3441 354.858C30.6861 354.254 31.1621 353.735 31.7356 353.342C33.1974 352.16 36.7788 349.532 37.2319 348.305C37.5097 347.532 36.5011 347.035 36.5011 347.035Z" fill="#EE6066"/>
<path d="M33.9722 354.816H38.723C38.723 354.816 39.4685 353.079 37.6559 352.758C36.8952 352.576 36.094 352.687 35.4114 353.069C34.7289 353.45 34.2151 354.074 33.9722 354.816Z" fill="#F8BBB1"/>
<path d="M33.519 348.335C33.519 348.335 33.519 349.882 30.3323 352.072C27.935 353.722 25.7569 355.342 25.4207 356.831H23.4473C24.277 355.441 25.3871 354.238 26.7071 353.298C29.2506 351.401 32.5834 350.16 33.519 348.335Z" fill="#EE6066"/>
<path d="M26.6045 350.247C25.859 351.021 22.6723 353.503 21.459 354.627C20.8099 355.214 20.3517 355.982 20.1434 356.831H18.8862C19.4417 354.145 23.1547 352.291 26.6045 350.247Z" fill="#EE6066"/>
<path d="M22.044 350.247C21.3132 351.021 18.1118 353.503 16.9132 354.627C16.2648 355.217 15.8026 355.983 15.5829 356.831H14.3843C14.8813 354.145 18.6088 352.291 22.044 350.247Z" fill="#EE6066"/>
<path d="M60.5623 184.737L59.1005 196.416L30.2156 196.708C30.2156 189.059 30.0986 184.416 30.0986 184.416L60.5623 184.737Z" fill="#F3877C"/>
<path d="M36.311 244.112C36.311 244.112 37.232 254.579 41.3834 254.506C45.0379 254.506 48.3562 249.703 47.713 244.74C47.0698 239.776 36.311 238.783 36.311 244.112Z" fill="#F3877C"/>
<path d="M99.3728 184.401C99.3728 184.401 99.3728 189.044 99.2559 196.694C99.139 208.373 98.9635 226.841 98.7881 246.535C106.872 272.901 94.2712 298.318 95.616 327.575V328.056C95.9523 333.648 96.6978 337.064 101.887 341.911C107.076 346.758 114.941 352.057 116.622 353.722C117.53 354.487 118.115 355.566 118.259 356.744H94.125C87.7955 356.744 89.5642 355.459 86.9038 352.875C85.442 351.532 82.7523 352.656 80.5304 351.926C78.8201 351.357 78.937 348.524 79.5218 344.115C79.7118 342.787 79.9603 341.298 80.1503 339.736C80.5567 335.714 80.747 331.674 80.7204 327.633C80.1942 307.282 77.3729 254.973 77.3729 254.973L70.371 196.489L68.9092 184.81L99.3728 184.401Z" fill="#F6AA99"/>
<path d="M99.8846 355.503H102.691C102.954 355.503 102.574 354.54 101.595 354.423C100.279 354.262 99.6069 355.211 99.8846 355.503Z" fill="#F8BBB1"/>
<path d="M105.351 355.503H108.143C108.421 355.503 108.026 354.54 107.061 354.423C105.731 354.262 105.015 355.211 105.351 355.503Z" fill="#F8BBB1"/>
<path d="M110.218 355.503H113.011C113.288 355.503 112.894 354.7 111.929 354.612C110.599 354.481 109.941 355.313 110.218 355.503Z" fill="#F8BBB1"/>
<path d="M114.75 355.503H117.308C117.557 355.503 117.206 354.7 116.314 354.612C115.116 354.481 114.502 355.313 114.75 355.503Z" fill="#F8BBB1"/>
<path d="M80.5298 352.014C82.7517 352.744 85.4122 351.722 86.8886 352.963C83.8335 349.284 83.6873 344.962 79.5797 344.203C78.9365 348.612 78.8195 351.444 80.5298 352.014Z" fill="#F3877C"/>
<path d="M93.0279 347.035C92.7345 347.031 92.4465 347.114 92.2013 347.275C91.9561 347.436 91.765 347.667 91.6531 347.938C91.5411 348.209 91.5134 348.507 91.5735 348.794C91.6336 349.081 91.7787 349.343 91.99 349.546L92.1216 349.663C93.9248 351.121 95.6109 352.717 97.1648 354.437C97.6399 355.149 97.9127 355.977 97.9541 356.831H99.7667C99.7259 356.138 99.5269 355.463 99.1849 354.858C98.8428 354.254 98.3669 353.735 97.7933 353.342C96.3315 352.16 92.7502 349.532 92.297 348.305C92.0193 347.532 93.0279 347.035 93.0279 347.035Z" fill="#EE6066"/>
<path d="M95.557 354.816H90.8062C90.8062 354.816 90.0606 353.079 91.8733 352.758C92.6339 352.576 93.4352 352.687 94.1177 353.069C94.8002 353.45 95.314 354.074 95.557 354.816Z" fill="#F8BBB1"/>
<path d="M96.0107 348.335C96.0107 348.335 96.0107 349.882 99.1974 352.072C101.595 353.722 103.773 355.342 104.094 356.831H106.082C105.251 355.438 104.135 354.234 102.808 353.298C100.279 351.401 96.9463 350.16 96.0107 348.335Z" fill="#EE6066"/>
<path d="M102.925 350.247C103.67 351.021 106.857 353.503 108.056 354.627C108.71 355.212 109.174 355.98 109.386 356.831H110.643C110.088 354.145 106.36 352.291 102.925 350.247Z" fill="#EE6066"/>
<path d="M107.486 350.247C108.217 351.021 111.418 353.503 112.617 354.627C113.265 355.217 113.727 355.983 113.947 356.831H115.248C114.634 354.145 110.863 352.291 107.486 350.247Z" fill="#EE6066"/>
<path d="M68.9673 184.737L70.4291 196.416L99.314 196.708C99.314 189.059 99.4309 184.416 99.4309 184.416L68.9673 184.737Z" fill="#F3877C"/>
<path d="M93.2187 244.112C93.2187 244.112 92.2977 254.579 88.1463 254.506C84.4918 254.506 81.1735 249.703 81.8167 244.74C82.4599 239.776 93.2333 238.783 93.2187 244.112Z" fill="#F3877C"/>
<path d="M94.3289 136.224C84.8152 141.579 74.0841 144.404 63.1636 144.429C45.3444 144.327 35.3896 136.224 35.3896 136.224C35.3896 136.224 35.6382 70.0171 35.6382 62.119C35.6382 55.5932 39.585 51.6661 42.4793 50.8193C45.3737 49.9726 57.5942 44.4395 57.5942 44.4395L58.2374 38.1181L58.5736 34.0303L73.0892 33.1836L73.4108 37.2567L73.9516 44.3811C73.9516 44.3811 85.9091 49.3886 89.5343 50.8777C93.1595 52.3668 94.9867 55.4618 95.0891 61.0971C95.1914 66.7324 94.3289 136.224 94.3289 136.224Z" fill="#F6AA99"/>
<path d="M73.4107 37.286C72.1853 39.1134 70.753 40.7937 69.1422 42.2934C68.4043 42.9758 67.4739 43.4147 66.4775 43.5506C65.481 43.6864 64.4669 43.5125 63.5728 43.0526C61.5458 41.6979 59.7452 40.0327 58.2373 38.1181L58.5735 34.0303L73.0891 33.1836L73.4107 37.286Z" fill="#EE6066"/>
<path d="M52.858 77.828C53.0042 76.2513 47.2594 75.7111 46.8208 77.828C46.3823 79.9448 52.6388 80.3974 52.858 77.828Z" fill="#EE6066"/>
<path d="M86.6104 77.828C86.742 76.2513 80.9972 75.7111 80.5586 77.828C80.1201 79.9448 86.3766 80.3974 86.6104 77.828Z" fill="#EE6066"/>
<path d="M64.6545 116.077C64.6545 116.077 61.5848 121.917 64.8884 126.443C65.6771 124.821 66.0673 123.034 66.0266 121.232C65.9859 119.429 65.5156 117.662 64.6545 116.077Z" fill="#EE6066"/>
<path d="M49.6133 50.7024C54.5384 52.268 59.6225 53.2815 64.772 53.7244C70.5735 53.9628 76.3628 53.019 81.7872 50.9506C81.7872 50.9506 63.0179 52.6879 49.6133 50.7024Z" fill="#F3877C"/>
<path d="M96.6389 135.407H32.6711L27.6133 189.832H61.6729C62.1261 189.832 64.5965 176.883 64.5965 176.883C64.5965 176.883 67.1254 189.832 67.5201 189.832H101.58L96.6389 135.407Z" fill="#213555"/>
<path d="M81.0705 19.2125C81.1583 18.9789 82.24 13.8254 80.6759 10.453C79.1117 7.08064 77.5915 6.1755 74.3463 4.90538C71.3935 -0.175113 63.4414 -1.38684 57.3165 1.62058C51.4693 4.5404 43.7072 14.1174 54.3929 24.7018C65.0786 35.2861 78.7025 26.5559 81.0705 19.2125Z" fill="#142033"/>
<path d="M54.5829 21.5775C54.5829 21.5775 53.852 18.3949 52.2732 17.8255C50.6945 17.2562 48.8527 19.9132 49.262 21.9863C49.5173 23.0546 50.001 24.0552 50.6797 24.9196C51.3584 25.7839 52.2161 26.4914 53.1942 26.9938C54.3782 27.3295 55.3576 25.9718 55.5477 25.1251C55.4269 23.897 55.1008 22.6978 54.5829 21.5775Z" fill="#F3877C"/>
<path d="M51.5573 23.5047C51.0552 22.7855 50.7618 21.9418 50.7095 21.0666C50.8264 20.0885 51.5719 18.9205 52.1713 18.9643C52.7706 19.0081 54.1301 22.0155 54.2032 22.5265C54.2762 23.0375 53.063 23.0521 53.2237 23.6798C53.3845 24.3076 54.247 24.9062 54.5101 25.2565C54.7732 25.6069 54.8171 25.9281 54.1008 26.0303C53.3845 26.1325 52.2297 24.6726 52.2297 24.6726C52.2297 24.6726 53.56 25.6799 53.9108 25.4317C54.2616 25.1836 53.0191 24.2346 52.5659 23.5485C52.1128 22.8623 53.5453 22.6579 53.5015 22.2637C53.5015 22.1469 52.6537 20.0593 52.1128 20.1031C51.5719 20.1469 50.9287 21.3294 51.5573 23.5047Z" fill="#EE6066"/>
<path d="M52.595 21.6941C52.3954 21.9 52.2475 22.1503 52.1637 22.4244C52.0798 22.6985 52.0623 22.9886 52.1126 23.2708C52.1831 23.7623 52.4267 24.2126 52.7997 24.5409C52.488 24.3893 52.2239 24.1554 52.0358 23.8646C51.8477 23.5739 51.7429 23.2372 51.7325 22.8912C51.7165 22.6231 51.7935 22.3576 51.9506 22.1395C52.1077 21.9214 52.3353 21.7641 52.595 21.6941Z" fill="#EE6066"/>
<path d="M53.9987 17.9714C53.5888 18.4555 53.375 19.0752 53.3993 19.7087C53.5036 21.2138 53.7038 22.7108 53.9987 24.1906C54.432 27.1998 55.2423 30.1427 56.4106 32.9501C58.1682 35.0327 60.1989 36.8693 62.4478 38.4101C64.3054 38.9911 66.3021 38.95 68.1341 38.2933C68.982 37.8407 73.8351 34.5414 74.6245 33.2858C75.4139 32.0303 78.2643 21.8255 78.2643 21.8255C76.2617 22.0737 77.0218 19.5189 76.3932 18.4823C75.7647 17.4458 74.5514 17.2852 73.762 16.7596C72.7823 16.121 71.8798 15.3715 71.0723 14.526C70.4525 13.9738 69.9534 13.2998 69.6063 12.5462C69.2592 11.7926 69.0716 10.9756 69.0551 10.1462L57.8285 15.5041C56.3972 16.0578 55.094 16.8974 53.9987 17.9714Z" fill="#F6AA99"/>
<path d="M67.1694 23.0957C67.1694 23.0957 67.5933 23.8402 70.5462 23.8548C73.499 23.8694 74.493 22.5117 74.493 22.5117L67.7834 22.7453L67.1694 23.0957Z" fill="#F3877C"/>
<path d="M68.2947 20.6867C67.8089 21.3459 67.5522 22.1457 67.5639 22.9642C68.9087 22.862 71.2914 20.5699 71.2914 20.5699C70.2915 20.4861 69.2851 20.5254 68.2947 20.6867Z" fill="#EE6066"/>
<path d="M68.2364 22.0591C68.1633 22.0591 67.1547 23.081 67.2862 23.3C67.4178 23.519 67.9002 23.3 67.9002 23.3L68.2364 22.0591Z" fill="#F3877C"/>
<path d="M67.7974 23.0808C67.7974 22.964 68.2067 20.9932 69.2592 20.7012C70.3697 20.4017 71.5399 20.4017 72.6505 20.7012C73.5568 21.0224 74.5216 22.5115 74.5216 22.5115C73.2813 22.9055 71.9925 23.1266 70.6917 23.1684C68.0166 23.329 67.7974 23.0808 67.7974 23.0808Z" fill="white"/>
<path d="M72.2704 21.767C72.2335 22.1185 72.0593 22.4413 71.7857 22.6654C71.512 22.8895 71.161 22.9968 70.8087 22.9642C70.6273 22.9571 70.4493 22.913 70.2856 22.8347C70.1219 22.7564 69.976 22.6454 69.8569 22.5086C69.7378 22.3719 69.6479 22.2122 69.5929 22.0395C69.5379 21.8668 69.5188 21.6846 69.5369 21.5042C69.5739 21.1517 69.7476 20.8275 70.0207 20.6011C70.2939 20.3746 70.6449 20.2639 70.9987 20.2925C71.1807 20.3015 71.359 20.3474 71.5227 20.4273C71.6865 20.5072 71.8322 20.6195 71.9512 20.7574C72.0701 20.8953 72.1597 21.0559 72.2146 21.2295C72.2695 21.403 72.2885 21.5859 72.2704 21.767Z" fill="#321E41"/>
<path d="M72.8553 22.3508C72.9431 21.942 71.3936 21.6501 71.3936 22.088C71.3936 22.526 72.8553 22.6282 72.8553 22.3508Z" fill="white"/>
<path d="M67.7104 20.8911C69.071 20.748 70.4429 20.748 71.8035 20.8911C72.8196 21.1874 73.7447 21.7347 74.4932 22.4824C74.2799 21.9774 73.9628 21.5229 73.5624 21.1482C73.162 20.7735 72.6872 20.4869 72.1689 20.3071C71.425 20.0966 70.646 20.0399 69.8794 20.1403C69.1128 20.2407 68.3748 20.4961 67.7104 20.8911Z" fill="#321E41"/>
<path d="M69.1719 19.8401C70.1912 19.7358 71.2204 19.78 72.227 19.9715C72.8791 20.1868 73.4914 20.5074 74.0396 20.9205C73.7114 20.4179 73.2711 19.9982 72.7533 19.6941C71.5736 19.3672 70.3209 19.4182 69.1719 19.8401Z" fill="#F3877C"/>
<path d="M62.3745 17.4021C63.0029 18.0649 63.5211 18.824 63.9094 19.6504C64.0519 20.5303 64.0519 21.4274 63.9094 22.3074L61.6582 18.3218L62.3745 17.4021Z" fill="#F3877C"/>
<path d="M58.7923 18.5115C60.0495 18.5115 62.9146 18.8326 62.8853 18.7597C62.7994 18.2796 62.626 17.8194 62.3737 17.4019C60.6342 17.4019 59.4501 16.7304 57.9883 17.037C56.9912 17.3529 56.1605 18.0513 55.6787 18.9786C56.6992 18.7236 57.7419 18.5672 58.7923 18.5115Z" fill="#321E41"/>
<path d="M67.6957 17.4021C67.1898 18.1129 66.7448 18.8649 66.3655 19.6504C66.0911 20.4949 66.0507 21.3979 66.2485 22.2636L68.0611 17.9715L67.6957 17.4021Z" fill="#F3877C"/>
<path d="M71.2768 18.5115C70.0197 18.5115 67.1546 18.8326 67.1838 18.7597C67.2698 18.2796 67.4432 17.8194 67.6954 17.4019C69.435 17.4019 70.619 16.7304 72.0808 17.037C73.0779 17.3529 73.9086 18.0513 74.3904 18.9786C73.37 18.7236 72.3273 18.5672 71.2768 18.5115Z" fill="#321E41"/>
<path d="M62.623 25.8549C62.623 25.8549 64.2749 28.9645 65.1812 28.7748C66.0875 28.585 67.5493 25.7673 67.5493 25.7673C66.7971 26.4483 65.8419 26.8638 64.8303 26.9499C64.0049 26.8031 63.2389 26.4231 62.623 25.8549Z" fill="#F3877C"/>
<path d="M65.0347 26.497C65.9067 26.3541 66.7632 26.1292 67.5928 25.8254C66.9288 26.5708 66.0421 27.0827 65.0639 27.2854C64.0407 27.2854 62.652 25.8254 62.6666 25.8254C63.426 26.1437 64.2212 26.3691 65.0347 26.497Z" fill="#EE6066"/>
<path d="M64.4355 24.8911C63.69 25.0662 63.8654 26.1758 64.9326 26.2488C65.9997 26.3218 66.2774 25.5188 65.985 25.0662C65.7561 24.9237 65.4982 24.834 65.2301 24.8037C64.9621 24.7734 64.6906 24.8033 64.4355 24.8911Z" fill="#F8BBB1"/>
<path d="M62.8711 34.0305C63.1402 33.6925 63.4861 33.4234 63.8802 33.2457C64.2742 33.068 64.705 32.9867 65.1369 33.0085C65.5917 32.9824 66.0457 33.0734 66.4552 33.2728C66.8647 33.4722 67.2161 33.7733 67.4757 34.1472C65.9556 34.4972 64.3715 34.457 62.8711 34.0305Z" fill="#F3877C"/>
<path d="M62.8281 23.2269C62.8281 23.2269 62.3896 24.0007 59.4514 23.9277C58.7364 24.0033 58.0136 23.9106 57.3409 23.6571C56.6683 23.4036 56.0644 22.9963 55.5776 22.4678L62.2434 22.9203L62.8281 23.2269Z" fill="#F3877C"/>
<path d="M61.7902 20.672C62.2556 21.3867 62.4856 22.229 62.448 23.0808C61.1177 22.9348 58.8081 20.453 58.8081 20.453C59.8073 20.406 60.8086 20.4795 61.7902 20.672Z" fill="#EE6066"/>
<path d="M61.8047 22.0154C61.8778 22.0154 62.8864 23.0373 62.7549 23.2417C62.6233 23.4461 62.1555 23.2417 62.1555 23.2417L61.8047 22.0154Z" fill="#F3877C"/>
<path d="M62.1995 23.1977C62.1995 23.081 61.8487 20.9933 60.8547 20.6721C59.7678 20.315 58.6016 20.2745 57.4926 20.5553C56.5717 20.8911 55.5776 22.351 55.5776 22.351C56.795 22.797 58.0699 23.0674 59.3637 23.154C61.9803 23.4459 62.1995 23.1977 62.1995 23.1977Z" fill="white"/>
<path d="M60.5766 21.6066C60.5876 21.8764 60.5186 22.1434 60.3783 22.3742C60.238 22.605 60.0327 22.7894 59.788 22.9042C59.5433 23.019 59.2701 23.0592 59.0027 23.0197C58.7352 22.9802 58.4854 22.8628 58.2845 22.6822C58.0835 22.5015 57.9404 22.2657 57.873 22.0042C57.8056 21.7428 57.8169 21.4672 57.9056 21.2122C57.9942 20.9571 58.1562 20.7338 58.3713 20.5702C58.5864 20.4067 58.845 20.3101 59.1148 20.2927C59.2977 20.2808 59.4811 20.3057 59.6542 20.3657C59.8273 20.4257 59.9867 20.5197 60.1229 20.6421C60.2591 20.7645 60.3694 20.9129 60.4473 21.0786C60.5252 21.2442 60.5692 21.4237 60.5766 21.6066Z" fill="#321E41"/>
<path d="M62.3603 20.9645C60.9934 20.7852 59.6105 20.7607 58.2381 20.8915C57.244 21.151 56.3299 21.6526 55.5776 22.3514C55.5776 22.3514 56.3962 20.4535 57.9457 20.147C58.6973 19.9596 59.4804 19.9356 60.242 20.0766C61.0036 20.2177 61.726 20.5205 62.3603 20.9645Z" fill="#321E41"/>
<path d="M60.9274 19.7669C59.9195 19.6157 58.8947 19.6157 57.8868 19.7669C57.2357 19.9777 56.6235 20.2933 56.0742 20.7012C56.4123 20.1967 56.8626 19.777 57.3898 19.4749C58.5687 19.1766 59.8135 19.2793 60.9274 19.7669Z" fill="#F3877C"/>
<path d="M61.161 22.1612C61.161 21.7232 59.6992 21.6064 59.6992 22.0736C59.6992 22.5408 61.161 22.4678 61.161 22.1612Z" fill="white"/>
<path d="M77.3578 21.6211C77.3578 21.6211 78.1471 18.4385 79.6528 17.8691C81.1584 17.2998 83.088 19.9714 82.6787 22.0299C82.4212 23.1034 81.9319 24.1078 81.2451 24.9728C80.5583 25.8377 79.6906 26.5424 78.7026 27.0374C77.5039 27.3731 76.5392 26.0154 76.3491 25.1833C76.4821 23.9476 76.8231 22.7433 77.3578 21.6211Z" fill="#F6AA99"/>
<path d="M80.8812 23.5627C81.3791 22.836 81.6719 21.9888 81.729 21.1101C81.5974 20.1319 80.8519 18.964 80.2672 19.0078C79.6825 19.0516 78.3084 22.059 78.2499 22.57C78.1915 23.0809 79.3755 23.1101 79.2147 23.7379C79.0539 24.3657 78.2061 24.9496 77.9283 25.3C77.6506 25.6504 77.6214 25.9862 78.3523 26.0738C79.0832 26.1614 80.1649 24.716 80.1649 24.716C80.1649 24.716 78.8347 25.7234 78.4838 25.4752C78.133 25.227 79.3755 24.2781 79.8287 23.5919C80.2818 22.9057 78.8493 22.7014 78.8931 22.3218C78.8931 22.1904 79.7556 20.1173 80.2818 20.1465C80.8081 20.1757 81.4805 21.3728 80.8812 23.5627Z" fill="#EE6066"/>
<path d="M79.8282 21.7378C80.028 21.9466 80.1759 22.1994 80.2597 22.4759C80.3435 22.7524 80.3609 23.0446 80.3106 23.3291C80.2444 23.8179 79.9997 24.265 79.6235 24.5846C79.9359 24.4324 80.2013 24.1988 80.3917 23.9084C80.5821 23.618 80.6904 23.2817 80.7053 22.9349C80.7151 22.666 80.6339 22.4015 80.4748 22.1843C80.3156 21.9671 80.0878 21.8098 79.8282 21.7378Z" fill="#F3877C"/>
<path d="M61.5562 29.6507C62.586 30.5445 63.891 31.0597 65.2545 31.1106C66.3186 31.158 67.3737 30.8965 68.2921 30.3575C69.2105 29.8186 69.9528 29.0254 70.4292 28.074C69.165 28.9879 67.7101 29.6045 66.1735 29.8776C64.637 30.1506 63.0585 30.0731 61.5562 29.6507Z" fill="#EE6066"/>
<path d="M730.733 59.2869C730.733 59.2869 702.886 67.6084 695.723 85.9156C688.561 104.223 689.35 108.413 686.324 115.333C683.298 122.253 680.667 136.954 681.807 153.977C683.137 174.021 682.07 181.233 690.578 189.73C713.47 128.925 730.733 59.2869 730.733 59.2869Z" fill="#F6AA99"/>
<path d="M753.815 59.2869C753.815 59.2869 781.721 67.6668 788.811 85.9156C795.9 104.165 795.199 108.413 798.224 115.333C801.25 122.253 803.882 136.954 802.741 153.977C801.397 174.021 802.478 181.233 793.971 189.73C771.079 128.925 753.815 59.2869 753.815 59.2869Z" fill="#F6AA99"/>
<path d="M691.47 195.438C691.396 197.015 691.66 201.278 692.083 206.592C693.18 220.403 695.358 241.396 695.358 241.396C693.132 250.914 691.632 260.587 690.87 270.332C688.882 296.712 702.024 314.655 699.875 329.998C699.699 332.574 698.924 335.074 697.609 337.298C696.76 338.753 695.685 340.064 694.422 341.181C691.967 343.386 689.847 344.291 684.394 347.532C678.942 350.773 672.7 353.634 672.7 356.101C672.7 356.101 672.803 357.211 674.25 357.211H704.216C708.763 357.211 709.961 354.014 713.338 352.32C716.715 350.627 722.109 353.094 725.412 349.619C726.611 348.349 726.728 345.532 726.435 342.393C726.435 342.057 726.436 341.736 726.319 341.415C726.099 339.517 725.763 337.561 725.441 335.765C725.11 333.877 724.895 331.971 724.798 330.057C725.398 310.684 729.447 266.521 730.28 255.178C730.719 249.659 733.291 221.133 734.665 206.65C735.133 201.541 735.426 198.183 735.426 198.183C735.426 198.183 703.719 188.577 691.47 195.438Z" fill="#F6AA99"/>
<path d="M725.442 349.561C722.182 353.05 716.671 350.626 713.368 352.261C710.064 353.897 708.792 357.152 704.246 357.152C704.246 357.152 707.17 357.576 710.283 353.619C717.49 344.612 722.548 346.582 726.363 341.356C726.363 341.677 726.451 341.998 726.48 342.334C726.758 345.473 726.641 348.291 725.442 349.561Z" fill="#F3877C"/>
<path d="M707.973 344.729C707.03 346.631 705.683 348.305 704.026 349.634C701.205 351.78 698.384 353.167 697.053 354.452C696.357 355.18 695.965 356.146 695.957 357.152H693.589C693.737 356.169 694.135 355.239 694.744 354.452C696.074 352.802 698.53 351.882 701.585 349.955C703.88 348.426 706.02 346.675 707.973 344.729Z" fill="#EE6066"/>
<path d="M699.787 354.51C700.816 354.455 701.848 354.533 702.857 354.744C703.436 354.864 704.038 354.786 704.567 354.525C705.152 354.218 705.824 353.736 705.927 353.065C705.927 351.415 703.003 351.094 699.583 353.912C699.516 353.948 699.465 354.007 699.438 354.077C699.411 354.147 699.409 354.225 699.434 354.297C699.458 354.368 699.507 354.428 699.572 354.468C699.636 354.507 699.713 354.522 699.787 354.51Z" fill="#F8BBB1"/>
<path d="M697.17 349.955C694.7 352.203 690.914 354.203 689.73 355.313C689.145 355.765 688.753 356.423 688.634 357.152H687.172C687.254 356.588 687.455 356.047 687.759 355.564C688.064 355.081 688.466 354.667 688.941 354.349C690.812 353.211 693.808 351.736 697.17 349.955Z" fill="#EE6066"/>
<path d="M691.061 349.955C688.59 352.203 684.804 354.203 683.62 355.313C683.035 355.765 682.643 356.423 682.524 357.152H681.062C681.145 356.588 681.345 356.047 681.649 355.564C681.954 355.081 682.356 354.667 682.831 354.349C684.702 353.211 687.699 351.736 691.061 349.955Z" fill="#EE6066"/>
<path d="M685.769 349.955C683.284 352.203 679.512 354.203 678.328 355.313C677.743 355.765 677.351 356.423 677.232 357.152H675.77C675.853 356.588 676.053 356.047 676.357 355.564C676.662 355.081 677.064 354.667 677.539 354.349C679.41 353.211 682.421 351.736 685.769 349.955Z" fill="#EE6066"/>
<path d="M690.578 355.722C691.443 355.517 692.344 355.517 693.209 355.722C693.209 355.722 694.335 354.525 694.116 354.13C693.721 353.517 691.908 353.649 690.578 355.722Z" fill="#F8BBB1"/>
<path d="M684.233 355.722C685.098 355.517 685.999 355.517 686.864 355.722C686.864 355.722 687.99 354.525 687.756 354.13C687.376 353.517 685.563 353.649 684.233 355.722Z" fill="#F8BBB1"/>
<path d="M678.752 355.722C679.501 355.541 680.283 355.541 681.032 355.722C681.032 355.722 682.012 354.685 681.822 354.262C681.632 353.838 679.907 353.926 678.752 355.722Z" fill="#F8BBB1"/>
<path d="M673.651 355.765C674.401 355.585 675.182 355.585 675.932 355.765C675.932 355.765 676.911 354.729 676.706 354.378C676.502 354.028 674.733 353.97 673.651 355.765Z" fill="#F8BBB1"/>
<path d="M735.382 198.124C734.718 200.895 734.462 203.747 734.622 206.592H692.084C691.66 201.278 691.397 197.015 691.47 195.438C703.72 188.576 735.382 198.124 735.382 198.124Z" fill="#F3877C"/>
<path d="M705.137 248.637C701.95 250.36 705.634 260.068 710.692 261.513C715.75 262.959 719.624 251.922 716.7 249.834C715.019 248.637 708.265 246.929 705.137 248.637Z" fill="#F3877C"/>
<path d="M792.246 195.438C792.334 197.015 792.071 201.278 791.647 206.592C790.55 220.403 788.372 241.396 788.372 241.396C790.597 250.914 792.092 260.587 792.845 270.332C794.848 296.712 781.692 314.655 783.855 329.998C784.033 332.572 784.803 335.07 786.106 337.298C786.965 338.747 788.039 340.056 789.293 341.181C791.749 343.386 793.883 344.291 799.321 347.532C804.759 350.773 811.015 353.634 811.015 356.101C811.015 356.101 810.913 357.211 809.466 357.211H779.485C774.938 357.211 773.74 354.014 770.348 352.32C766.957 350.627 761.578 353.094 758.289 349.619C757.09 348.349 756.973 345.532 757.265 342.393C757.265 342.057 757.265 341.736 757.382 341.415C757.587 339.517 757.938 337.561 758.259 335.765C758.593 333.878 758.803 331.971 758.888 330.057C758.303 310.684 754.254 266.521 753.421 255.178C752.968 249.659 750.41 221.133 749.036 206.65C748.582 201.541 748.275 198.183 748.275 198.183C748.275 198.183 779.996 188.577 792.246 195.438Z" fill="#F6AA99"/>
<path d="M758.287 349.561C761.532 353.05 767.058 350.626 770.347 352.261C773.636 353.897 774.937 357.152 779.483 357.152C779.483 357.152 776.56 357.576 773.446 353.619C766.225 344.612 761.182 346.582 757.366 341.356C757.366 341.677 757.279 341.998 757.249 342.334C756.972 345.473 757.089 348.291 758.287 349.561Z" fill="#F3877C"/>
<path d="M775.756 344.729C776.699 346.631 778.046 348.305 779.703 349.634C782.524 351.78 785.346 353.167 786.676 354.452C787.36 355.187 787.75 356.148 787.772 357.152H790.126C789.983 356.167 789.585 355.236 788.971 354.452C787.641 352.802 785.2 351.882 782.13 349.955C779.838 348.428 777.703 346.677 775.756 344.729Z" fill="#EE6066"/>
<path d="M783.942 354.51C782.908 354.456 781.872 354.534 780.858 354.744C780.284 354.862 779.687 354.785 779.162 354.525C778.84 354.399 778.551 354.203 778.315 353.95C778.08 353.697 777.905 353.395 777.803 353.065C777.803 351.415 780.726 351.094 784.147 353.912C784.213 353.948 784.264 354.007 784.291 354.077C784.319 354.147 784.32 354.225 784.296 354.297C784.271 354.368 784.223 354.429 784.158 354.468C784.093 354.507 784.017 354.522 783.942 354.51Z" fill="#F8BBB1"/>
<path d="M786.559 349.955C789.03 352.203 792.801 354.203 793.985 355.313C794.569 355.769 794.965 356.424 795.096 357.152H796.558C796.475 356.588 796.275 356.047 795.97 355.564C795.666 355.081 795.263 354.667 794.789 354.349C792.918 353.211 789.921 351.736 786.559 349.955Z" fill="#EE6066"/>
<path d="M792.67 349.955C795.14 352.203 798.912 354.203 800.096 355.313C800.68 355.769 801.076 356.424 801.207 357.152H802.669C802.586 356.588 802.386 356.047 802.081 355.564C801.777 355.081 801.374 354.667 800.9 354.349C799.029 353.211 796.032 351.736 792.67 349.955Z" fill="#EE6066"/>
<path d="M797.902 349.955C800.373 352.203 804.159 354.203 805.343 355.313C805.928 355.765 806.32 356.423 806.439 357.152H807.901C807.818 356.588 807.618 356.047 807.314 355.564C807.009 355.081 806.607 354.667 806.132 354.349C804.32 353.211 801.323 351.736 797.902 349.955Z" fill="#EE6066"/>
<path d="M793.151 355.722C792.286 355.517 791.385 355.517 790.52 355.722C790.52 355.722 789.395 354.525 789.614 354.13C790.008 353.517 791.806 353.649 793.151 355.722Z" fill="#F8BBB1"/>
<path d="M799.496 355.722C798.631 355.517 797.73 355.517 796.865 355.722C796.865 355.722 795.739 354.525 795.959 354.13C796.353 353.517 798.166 353.649 799.496 355.722Z" fill="#F8BBB1"/>
<path d="M804.963 355.722C804.218 355.542 803.442 355.542 802.697 355.722C802.697 355.722 801.718 354.685 801.908 354.262C802.098 353.838 803.75 353.926 804.963 355.722Z" fill="#F8BBB1"/>
<path d="M810.152 355.765C809.402 355.584 808.621 355.584 807.871 355.765C807.871 355.765 806.892 354.729 807.082 354.378C807.272 354.028 808.982 353.97 810.152 355.765Z" fill="#F8BBB1"/>
<path d="M748.333 198.124C749.006 200.894 749.262 203.747 749.094 206.592H791.646C792.07 201.278 792.333 197.015 792.246 195.438C779.996 188.576 748.333 198.124 748.333 198.124Z" fill="#F3877C"/>
<path d="M778.592 248.637C781.779 250.36 778.095 260.068 773.038 261.513C767.98 262.959 764.106 251.922 767.015 249.834C768.667 248.637 775.45 246.929 778.592 248.637Z" fill="#F3877C"/>
<path d="M790.768 144.283C776.764 155.466 755.028 157.539 740.454 158.079C725.879 158.619 705.195 153.977 692.507 146.02C696.074 126.647 698.968 119.1 704.201 107.376C704.844 105.917 705.502 104.457 706.218 102.851C702.432 96.7775 703.295 88.0911 709.288 79.5944C714.594 72.0028 730.806 59.287 730.806 59.287L731.215 56.119L731.873 51.0531L753.215 50.6589L753.756 57.2577L753.887 58.8782C753.887 58.8782 771.575 72.0174 776.779 79.0396C782.304 86.456 785.228 95.4344 781.442 103.668C781.954 104.982 782.494 106.501 783.065 108.179C786.886 119.913 789.468 132.013 790.768 144.283Z" fill="#F6AA99"/>
<path d="M776.707 79.0396C782.232 86.4559 785.156 95.4343 781.37 103.668C781.881 104.982 782.422 106.5 782.992 108.179C786.839 119.91 789.445 132.01 790.769 144.283" stroke="#F3877C" stroke-width="1.92886" stroke-miterlimit="10" stroke-linecap="round"/>
<path d="M692.507 146.02C696.074 126.647 698.968 119.1 704.201 107.377C704.844 105.917 705.502 104.457 706.218 102.851C702.432 96.7776 703.295 88.0912 709.288 79.5945" stroke="#F3877C" stroke-width="1.92886" stroke-miterlimit="10" stroke-linecap="round"/>
<path d="M762.995 106.632C763.361 106.515 769.354 99.5658 776.327 105.551C770.436 108.792 762.995 106.632 762.995 106.632Z" fill="#EE6066"/>
<path d="M723.351 106.632C722.986 106.515 716.992 99.5658 710.02 105.551C716.042 108.792 723.351 106.632 723.351 106.632Z" fill="#EE6066"/>
<path d="M753.684 57.2577C750.629 59.5498 746.375 61.6375 741.99 61.2579C737.883 60.8825 734.044 59.0611 731.158 56.119L731.815 51.0531L753.158 50.6589L753.684 57.2577Z" fill="#EE6066"/>
<path d="M734.388 102.529C725.077 109.829 713.923 112.077 704.129 107.376C704.773 105.916 705.43 104.456 706.147 102.85C706.147 102.85 717.11 111.406 734.388 102.529Z" fill="#F3877C"/>
<path d="M782.992 108.179C779.715 109.618 776.191 110.411 772.613 110.515C763.419 110.909 757.688 107.989 749.707 102.135C755.64 105.031 762.112 106.661 768.71 106.924C773.146 107.12 777.54 105.986 781.325 103.668C781.822 104.982 782.422 106.5 782.992 108.179Z" fill="#F3877C"/>
<path d="M741.667 131.844C741.667 131.844 738.524 134.866 741.316 144.691C742.399 140.49 742.519 136.098 741.667 131.844Z" fill="#EE6066"/>
<path d="M722.24 118.603C722.24 118.603 749.24 111.434 767.424 118.603C757.075 111.128 738.086 109.478 722.24 118.603Z" fill="#F3877C"/>
<path d="M737.969 65.7836C738.485 66.5184 739.163 67.1245 739.952 67.5549C740.74 67.9853 741.617 68.2285 742.515 68.2655C743.491 68.2277 744.444 67.9544 745.292 67.4688C746.14 66.9832 746.857 66.2998 747.383 65.4771C744.394 66.7556 741.034 66.865 737.969 65.7836Z" fill="#F3877C"/>
<path d="M760.378 33.9134C760.466 33.6506 761.708 27.7088 759.91 23.8254C758.112 19.942 756.358 18.8909 752.601 17.4164C749.122 11.5768 740.001 10.1168 732.94 13.606C726.129 16.9492 717.226 28.0299 729.534 40.264C741.843 52.4981 757.645 42.3955 760.378 33.9134Z" fill="#142033"/>
<path d="M728.745 36.6434C728.745 36.6434 727.839 32.9644 726.085 32.2637C724.33 31.5629 722.138 34.6871 722.605 37.0814C723.073 39.4756 725.441 42.3663 727.137 42.848C728.511 43.2422 729.651 41.6655 729.871 40.702C729.716 39.2975 729.336 37.927 728.745 36.6434Z" fill="#F3877C"/>
<path d="M725.251 38.8773C724.672 38.0457 724.333 37.0709 724.272 36.0597C724.418 34.921 725.281 33.5779 725.968 33.6216C726.655 33.6654 728.233 37.1546 728.307 37.7386C728.38 38.3226 726.991 38.3518 727.181 39.0817C727.371 39.8117 728.35 40.5416 728.643 40.892C728.935 41.2424 728.994 41.6658 728.16 41.7825C727.327 41.8993 726.012 40.2204 726.012 40.2204C726.012 40.2204 727.473 41.3884 727.941 41.0964C728.409 40.8044 726.918 39.7241 726.392 38.9211C725.865 38.1182 727.517 37.8846 727.473 37.4612C727.473 37.3152 726.479 34.921 725.865 34.9648C725.251 35.0086 724.564 36.3517 725.251 38.8773Z" fill="#EE6066"/>
<path d="M726.45 36.7751C726.223 37.0188 726.055 37.3114 725.958 37.6303C725.862 37.9493 725.84 38.286 725.895 38.6146C725.972 39.1809 726.252 39.6999 726.684 40.0745C726.326 39.8996 726.023 39.6304 725.806 39.296C725.59 38.9616 725.469 38.5746 725.456 38.1767C725.435 37.8644 725.522 37.5544 725.703 37.299C725.884 37.0436 726.148 36.8585 726.45 36.7751Z" fill="#EE6066"/>
<path d="M729.198 32.337C728.721 32.8924 728.471 33.6062 728.496 34.3371C728.584 36.0744 727.78 45.2427 729.958 49.9436C733.452 57.7541 745.117 60.6739 753.683 51.8269C758.521 46.8194 757.279 36.746 757.279 36.746C754.969 37.038 755.817 34.1035 755.101 32.8918C754.516 31.9283 752.981 31.5195 752.06 30.9209C750.934 30.1778 749.894 29.3111 748.961 28.3369C748.251 27.708 747.677 26.9406 747.275 26.082C746.873 25.2233 746.651 24.2915 746.622 23.344L733.686 29.5486C732.011 30.1544 730.482 31.1043 729.198 32.337Z" fill="#F6AA99"/>
<path d="M744.459 38.629C744.459 38.629 744.824 39.2568 748.23 39.286C751.636 39.3152 752.777 37.7239 752.777 37.7239L745.058 38.3224L744.459 38.629Z" fill="#F3877C"/>
<path d="M745.614 35.6069C745.057 36.3745 744.765 37.3017 744.781 38.2494C746.33 38.1326 749.166 35.4755 749.166 35.4755C747.981 35.3851 746.789 35.4292 745.614 35.6069Z" fill="#EE6066"/>
<path d="M745.57 37.2131C745.483 37.2131 744.313 38.3811 744.459 38.673C744.606 38.965 745.161 38.673 745.161 38.673L745.57 37.2131Z" fill="#F3877C"/>
<path d="M745.059 38.4101C745.059 38.2933 745.526 36.0013 746.71 35.6655C747.989 35.3221 749.335 35.3221 750.613 35.6655C751.666 36.0451 752.777 37.7532 752.777 37.7532C751.356 38.2016 749.881 38.4569 748.392 38.5123C745.278 38.6729 745.059 38.4101 745.059 38.4101Z" fill="white"/>
<path d="M750.219 36.8627C750.206 37.072 750.151 37.2766 750.057 37.4643C749.964 37.6519 749.833 37.8189 749.674 37.9551C749.514 38.0913 749.329 38.1941 749.128 38.2572C748.928 38.3204 748.717 38.3426 748.508 38.3226C748.302 38.3239 748.098 38.2815 747.909 38.1983C747.72 38.1151 747.551 37.993 747.413 37.8399C747.275 37.6869 747.171 37.5063 747.108 37.3102C747.045 37.1141 747.024 36.9069 747.046 36.7021C747.059 36.4928 747.114 36.2883 747.208 36.1006C747.301 35.9129 747.432 35.746 747.591 35.6097C747.751 35.4735 747.936 35.3708 748.137 35.3076C748.337 35.2445 748.548 35.2222 748.757 35.2422C748.96 35.2515 749.159 35.301 749.342 35.3877C749.526 35.4745 749.691 35.5967 749.827 35.7475C749.963 35.8982 750.067 36.0744 750.134 36.2659C750.202 36.4573 750.23 36.6602 750.219 36.8627Z" fill="#321E41"/>
<path d="M750.949 37.5199C751.066 37.0381 749.356 36.7169 749.239 37.2279C749.122 37.7389 750.876 37.8703 750.949 37.5199Z" fill="white"/>
<path d="M744.957 35.8991C746.521 35.7275 748.099 35.7275 749.663 35.8991C750.838 36.2378 751.908 36.8653 752.777 37.724C752.531 37.1423 752.166 36.6183 751.706 36.1858C751.245 35.7534 750.699 35.422 750.102 35.213C749.243 34.9719 748.343 34.9084 747.458 35.0264C746.574 35.1444 745.722 35.4414 744.957 35.8991Z" fill="#321E41"/>
<path d="M746.638 34.6434C747.818 34.5153 749.01 34.5645 750.175 34.7893C750.92 35.043 751.621 35.4125 752.251 35.8843C751.882 35.292 751.382 34.7924 750.789 34.4244C749.417 34.0576 747.964 34.1342 746.638 34.6434Z" fill="#F3877C"/>
<path d="M744.927 31.8406C744.37 32.6605 743.881 33.5247 743.465 34.4246C743.15 35.3968 743.105 36.4361 743.334 37.432L745.366 32.5705L744.927 31.8406Z" fill="#F3877C"/>
<path d="M749.064 33.1104C747.602 33.1104 744.313 33.49 744.342 33.4024C744.441 32.8508 744.639 32.3216 744.927 31.8403C746.929 31.8403 748.303 31.0666 749.999 31.4023C751.152 31.7714 752.113 32.5791 752.674 33.6506C751.491 33.3537 750.282 33.1728 749.064 33.1104Z" fill="#321E41"/>
<path d="M739.124 41.5926C739.124 41.5926 741.024 45.184 742.048 45.0234C743.071 44.8628 744.767 41.5488 744.767 41.5488C743.902 42.3338 742.803 42.8112 741.638 42.9065C740.69 42.7211 739.817 42.2646 739.124 41.5926Z" fill="#F3877C"/>
<path d="M741.872 42.3372C742.868 42.1624 743.847 41.8985 744.796 41.5488C744.034 42.4219 743.007 43.0218 741.872 43.2569C740.688 43.2569 739.095 41.578 739.095 41.5926C739.987 41.953 740.919 42.203 741.872 42.3372Z" fill="#EE6066"/>
<path d="M741.171 40.4834C740.323 40.6732 740.513 41.9433 741.741 42.0309C742.969 42.1185 743.305 41.1988 742.969 40.6732C742.701 40.5121 742.402 40.4115 742.091 40.3787C741.78 40.346 741.466 40.3817 741.171 40.4834Z" fill="#F8BBB1"/>
<path d="M739.431 50.965C739.767 50.5859 740.182 50.2847 740.647 50.0825C741.112 49.8803 741.615 49.782 742.122 49.7945C742.629 49.807 743.127 49.93 743.581 50.1549C744.036 50.3798 744.435 50.7012 744.752 51.0964C742.996 51.5041 741.165 51.4589 739.431 50.965Z" fill="#F3877C"/>
<path d="M738.788 31.8406C739.515 32.5989 740.113 33.472 740.556 34.4246C740.751 35.4349 740.786 36.4695 740.659 37.4904C740.586 37.4904 738.042 32.8917 738.042 32.8917L738.788 31.8406Z" fill="#F3877C"/>
<path d="M734.666 33.1104C736.128 33.1104 739.417 33.49 739.387 33.4024C739.29 32.8481 739.086 32.3177 738.788 31.8403C736.785 31.8403 735.411 31.0666 733.716 31.4023C732.566 31.7705 731.609 32.579 731.055 33.6506C732.238 33.3537 733.447 33.1728 734.666 33.1104Z" fill="#321E41"/>
<path d="M739.241 38.5707C739.241 38.5707 738.802 39.432 735.411 39.359C732.02 39.286 730.938 37.5925 730.938 37.5925L738.627 38.1035L739.241 38.5707Z" fill="#F3877C"/>
<path d="M738.115 35.6067C738.654 36.4342 738.92 37.4092 738.876 38.3951C737.414 38.22 734.68 35.3585 734.68 35.3585C735.831 35.3018 736.985 35.3852 738.115 35.6067Z" fill="#EE6066"/>
<path d="M738.13 37.1545C738.218 37.1545 739.387 38.3225 739.241 38.6145C739.095 38.9064 738.539 38.6145 738.539 38.6145L738.13 37.1545Z" fill="#F3877C"/>
<path d="M738.598 38.5121C738.598 38.3808 738.188 35.9719 737.034 35.5923C735.774 35.1882 734.425 35.1527 733.145 35.4901C732.093 35.8405 730.938 37.607 730.938 37.607C732.349 38.1215 733.825 38.436 735.323 38.5413C738.335 38.8041 738.598 38.5121 738.598 38.5121Z" fill="white"/>
<path d="M736.712 36.673C736.735 36.9856 736.664 37.2979 736.509 37.5701C736.353 37.8423 736.119 38.0619 735.838 38.201C735.557 38.34 735.241 38.3922 734.929 38.3508C734.618 38.3094 734.327 38.1764 734.092 37.9686C733.857 37.7609 733.689 37.4879 733.61 37.1846C733.531 36.8812 733.544 36.5612 733.648 36.2654C733.752 35.9697 733.942 35.7116 734.194 35.5242C734.445 35.3367 734.747 35.2284 735.061 35.2131C735.472 35.1929 735.875 35.3344 736.184 35.6071C736.493 35.8799 736.682 36.2625 736.712 36.673Z" fill="#321E41"/>
<path d="M738.773 35.9286C737.225 35.6985 735.656 35.6446 734.095 35.768C732.903 36.0939 731.815 36.7226 730.938 37.5929C730.938 37.5929 731.888 35.403 733.672 35.038C734.537 34.8179 735.439 34.7834 736.318 34.937C737.197 35.0905 738.034 35.4284 738.773 35.9286Z" fill="#321E41"/>
<path d="M737.121 34.5705C735.959 34.3885 734.775 34.3885 733.613 34.5705C732.86 34.8107 732.154 35.176 731.522 35.6508C731.896 35.0626 732.395 34.5641 732.984 34.1909C734.366 33.8455 735.825 33.9794 737.121 34.5705Z" fill="#F3877C"/>
<path d="M737.399 37.3149C737.399 36.804 735.718 36.6872 735.66 37.2128C735.63 37.5193 737.355 37.6799 737.399 37.3149Z" fill="white"/>
<path d="M756.081 36.702C756.081 36.702 757.002 33.023 758.741 32.3223C760.481 31.6215 762.688 34.7457 762.22 37.1254C761.752 39.5051 759.399 42.4249 757.689 42.965C756.315 43.3592 755.189 41.7825 754.97 40.819C755.107 39.3942 755.482 38.0026 756.081 36.702Z" fill="#F6AA99"/>
<path d="M760.144 38.9352C760.724 38.1036 761.063 37.1287 761.124 36.1176C760.978 34.9788 760.115 33.6357 759.428 33.6795C758.741 33.7233 757.162 37.2125 757.089 37.7965C757.016 38.3804 758.405 38.4096 758.215 39.1396C758.025 39.8695 757.045 40.5995 756.753 40.9499C756.461 41.3002 756.402 41.7236 757.236 41.8404C758.069 41.9572 759.384 40.2783 759.384 40.2783C759.384 40.2783 757.923 41.4462 757.455 41.1397C756.987 40.8331 758.478 39.7673 759.004 38.979C759.531 38.1906 757.879 37.9424 757.908 37.5191C757.908 37.3731 758.917 34.9642 759.531 35.0226C760.144 35.081 760.831 36.4095 760.144 38.9352Z" fill="#EE6066"/>
<path d="M758.946 36.8335C759.172 37.0749 759.34 37.365 759.436 37.6814C759.532 37.9978 759.555 38.332 759.501 38.6584C759.423 39.2243 759.143 39.7428 758.712 40.1183C759.068 39.9408 759.37 39.671 759.586 39.3371C759.802 39.0033 759.924 38.6176 759.94 38.2204C759.958 37.9106 759.869 37.604 759.688 37.3516C759.507 37.0993 759.245 36.9164 758.946 36.8335Z" fill="#F3877C"/>
<path d="M737.852 46.0014C739.041 47.0342 740.546 47.6315 742.121 47.695C743.347 47.7465 744.562 47.4433 745.62 46.8218C746.678 46.2002 747.534 45.2868 748.085 44.1912C746.624 45.2404 744.946 45.948 743.175 46.2613C741.404 46.5747 739.584 46.4859 737.852 46.0014Z" fill="#EE6066"/>
<path d="M692.215 143.392C692.215 143.392 707.038 155.991 740.454 155.436C778.914 154.283 791.412 142.487 791.412 142.487C795.276 161.953 795.957 181.915 793.43 201.599H747.003V184.211H737.297V201.409H690.023C690.023 201.409 686.178 167.378 692.215 143.392Z" fill="#213555"/>
<path d="M310.835 315.618C304.91 328.272 301.851 342.074 301.874 356.043H152.889C153.127 314.107 164.016 272.918 184.536 236.33L310.835 315.618Z" fill="#94E0CC"/>
<path d="M347.044 274.916C331.28 284.725 318.703 298.888 310.835 315.691L184.537 236.403C204.936 199.934 234.268 169.233 269.788 147.173L347.044 274.916Z" fill="#57D0AF"/>
<path d="M397.592 110.749V260.419C379.713 260.405 362.192 265.43 347.044 274.916L269.788 147.173C308.138 123.329 352.418 110.709 397.592 110.749Z" fill="#17A37C"/>
<path d="M524.942 146.823L447.716 274.551C432.646 265.283 415.289 260.389 397.591 260.419V110.749C442.578 110.689 486.686 123.183 524.942 146.823Z" fill="#FF9E7E"/>
<path d="M610.501 236.024L484.232 315.311C476.265 298.473 463.568 284.312 447.687 274.551L524.913 146.823C560.555 168.826 590.008 199.522 610.501 236.024Z" fill="#F0606C"/>
<path d="M642.309 356.043H493.338C493.355 341.96 490.244 328.049 484.231 315.311L610.501 236.023C631.121 272.69 642.066 313.99 642.309 356.043Z" fill="#E14E4E"/>
<path d="M174.82 340.694L175.255 335.413L177.692 335.608L177.518 337.722L179.828 337.906L179.991 335.928L182.308 336.113L182.145 338.091L184.824 338.305L185.015 335.981L187.453 336.176L187.001 341.667L174.82 340.694Z" fill="white"/>
<path d="M176.174 328.533L181.412 330.228L188.353 329.316L188.032 332.235C186.787 332.45 185.282 332.607 183.519 332.704C184.274 332.869 185.072 333.068 185.915 333.303L187.858 333.822L187.522 336.891L180.888 335.003L175.404 335.546L175.738 332.5C176.079 332.482 176.647 332.434 177.444 332.356C178.052 332.292 178.607 332.245 179.111 332.215L175.884 331.175L176.174 328.533Z" fill="white"/>
<path d="M177.077 322.095L179.487 322.411L179.228 324.268L188.86 325.531L188.425 328.659L178.793 327.396L178.536 329.246L176.126 328.93L177.077 322.095Z" fill="white"/>
<path d="M176.955 322.032L177.324 319.818C177.571 318.342 177.794 317.353 177.995 316.851C178.197 316.344 178.56 315.966 179.086 315.715C179.607 315.458 180.381 315.412 181.407 315.578C182.344 315.729 182.955 315.947 183.238 316.232C183.521 316.517 183.638 317.006 183.589 317.7C183.846 317.106 184.121 316.723 184.414 316.552C184.708 316.38 184.968 316.288 185.194 316.273C185.416 316.253 186.013 316.322 186.985 316.478L190.161 316.991L189.676 319.896L185.675 319.25C185.03 319.146 184.622 319.134 184.451 319.213C184.281 319.287 184.16 319.54 184.088 319.971L189.517 320.847L188.995 323.975L176.955 322.032ZM179.537 319.236L182.214 319.669C182.273 319.317 182.267 319.064 182.195 318.91C182.12 318.75 181.817 318.628 181.287 318.542L180.625 318.435C180.243 318.374 179.981 318.403 179.839 318.522C179.698 318.637 179.597 318.875 179.537 319.236Z" fill="white"/>
<path d="M178.215 314.542L179.297 309.353L181.695 309.841L181.261 311.919L183.533 312.382L183.939 310.437L186.218 310.902L185.812 312.846L188.446 313.383L188.923 311.099L191.32 311.587L190.194 316.984L178.215 314.542Z" fill="white"/>
<path d="M181.422 299.442L193.314 302.109L192.704 304.811L184.676 303.011L192.461 305.89L192.028 307.807L183.927 307.186L191.772 308.945L191.162 311.647L179.269 308.981L180.172 304.979C180.914 305.022 181.784 305.086 182.784 305.171L185.906 305.424L180.512 303.474L181.422 299.442Z" fill="white"/>
<path d="M182.273 296.353L191.732 298.787L192.207 296.916L194.573 297.525L193.317 302.474L181.492 299.43L182.273 296.353Z" fill="white"/>
<path d="M184.575 288.779L191.403 293.089L195.635 294.277L194.83 297.09L190.598 295.902L182.526 295.941L183.325 293.149C185.727 293.352 187.331 293.537 188.136 293.706C186.937 293.187 185.484 292.475 183.777 291.57L184.575 288.779Z" fill="white"/>
<path d="M188.908 275.29L200.018 280.387L198.768 284.132C196.879 283.895 194.761 283.539 192.414 283.064C193.341 283.497 195.265 284.432 198.188 285.869L196.945 289.593L184.944 287.166L185.916 284.254L190.051 285.262L194.045 286.216C192.069 285.451 189.52 284.315 186.398 282.808L187.439 279.69C187.791 279.757 189.098 280.062 191.36 280.604L195.858 281.707C193.121 280.631 190.48 279.462 187.936 278.202L188.908 275.29Z" fill="white"/>
<path d="M188.593 275.897L190.402 270.912L192.696 271.765L191.972 273.761L194.146 274.569L194.823 272.701L197.004 273.512L196.327 275.38L198.847 276.317L199.643 274.123L201.938 274.976L200.057 280.16L188.593 275.897Z" fill="white"/>
<path d="M192.67 265.509L204.677 268.326L203.478 271.343L201.382 270.681L200.961 271.738L202.929 272.723L201.716 275.775L190.975 269.773L192.67 265.509ZM199.339 269.966C197.996 269.606 196.351 269.125 194.406 268.525C196.453 269.685 197.964 270.501 198.938 270.975L199.339 269.966Z" fill="white"/>
<path d="M196.26 257.124L200.59 260.984L207.519 261.824L206.215 264.831L200.909 263.924L205.706 266.007L204.444 268.917L193.255 264.059L194.516 261.148L198.863 263.036L195.076 259.855L196.26 257.124Z" fill="white"/>
<path d="M236.719 205.478L245.258 214.271L242.774 217.346C241.1 216.444 239.254 215.347 237.238 214.055C237.947 214.797 239.408 216.369 241.621 218.772L239.15 221.83L228.839 215.229L230.772 212.838L234.263 215.274L237.643 217.609C236.074 216.178 234.103 214.192 231.73 211.651L233.8 209.091C234.103 209.281 235.212 210.038 237.125 211.362L240.922 214.018C238.754 212.02 236.709 209.971 234.787 207.869L236.719 205.478Z" fill="white"/>
<path d="M236.292 206.096L239.765 202.121L241.595 203.729L240.205 205.32L241.939 206.844L243.24 205.355L244.979 206.884L243.678 208.373L245.689 210.14L247.218 208.391L249.048 209.999L245.436 214.132L236.292 206.096Z" fill="white"/>
<path d="M243.861 197.718L254.04 204.704L251.829 207.089L250.114 205.71L249.339 206.545L250.819 208.179L248.582 210.591L240.737 201.087L243.861 197.718ZM248.467 204.301C247.345 203.477 245.985 202.432 244.388 201.166C245.878 202.992 246.991 204.302 247.728 205.098L248.467 204.301Z" fill="white"/>
<path d="M250.024 191.347L252.745 196.467L258.964 199.664L256.688 202.026L252.018 199.331L255.799 202.949L253.596 205.235L244.776 196.794L246.979 194.508L250.406 197.787L247.957 193.492L250.024 191.347Z" fill="white"/>
<path d="M322.565 144.415L327.204 155.755L324.622 156.817L320.98 152.292L323.089 157.448L320.625 158.461L315.985 147.121L318.449 146.108L322.19 150.534L320.101 145.428L322.565 144.415Z" fill="white"/>
<path d="M332.288 148.61C332.717 149.762 332.993 150.588 333.116 151.09C333.241 151.586 333.234 152.084 333.092 152.585C332.956 153.084 332.684 153.528 332.275 153.917C331.866 154.306 331.338 154.618 330.689 154.852C330.073 155.075 329.482 155.177 328.916 155.157C328.352 155.13 327.847 154.97 327.399 154.677C326.951 154.384 326.611 154.012 326.378 153.561C326.145 153.109 325.809 152.294 325.369 151.114L324.638 149.153C324.209 148.002 323.931 147.178 323.806 146.683C323.683 146.181 323.69 145.681 323.826 145.181C323.968 144.68 324.242 144.236 324.651 143.847C325.06 143.458 325.588 143.146 326.237 142.911C326.853 142.689 327.442 142.59 328.006 142.617C328.572 142.637 329.079 142.793 329.527 143.086C329.975 143.38 330.315 143.752 330.548 144.203C330.781 144.655 331.117 145.47 331.557 146.65L332.288 148.61ZM327.893 145.927C327.695 145.394 327.537 145.065 327.421 144.941C327.308 144.811 327.159 144.779 326.974 144.846C326.818 144.902 326.72 145.007 326.681 145.161C326.644 145.308 326.736 145.676 326.956 146.266L328.951 151.617C329.199 152.283 329.378 152.684 329.488 152.821C329.603 152.956 329.76 152.988 329.959 152.916C330.162 152.842 330.259 152.705 330.249 152.505C330.239 152.305 330.108 151.868 329.857 151.193L327.893 145.927Z" fill="white"/>
<path d="M330.069 141.838L332.195 141.13C333.612 140.658 334.589 140.394 335.125 140.337C335.666 140.278 336.169 140.422 336.635 140.769C337.104 141.109 337.505 141.771 337.836 142.754C338.139 143.652 338.231 144.292 338.111 144.675C337.992 145.058 337.615 145.39 336.979 145.67C337.623 145.62 338.089 145.684 338.377 145.863C338.665 146.041 338.868 146.227 338.986 146.421C339.107 146.607 339.324 147.166 339.638 148.097L340.664 151.139L337.875 152.067L336.583 148.235C336.374 147.617 336.196 147.252 336.046 147.138C335.901 147.022 335.622 147.033 335.208 147.171L336.962 152.371L333.959 153.371L330.069 141.838ZM333.738 142.811L334.603 145.376C334.94 145.263 335.161 145.14 335.263 145.005C335.369 144.864 335.336 144.54 335.165 144.032L334.951 143.398C334.828 143.032 334.68 142.814 334.509 142.745C334.342 142.673 334.085 142.696 333.738 142.811Z" fill="white"/>
<path d="M346.494 136.638L350.027 148.319L347.37 149.115L344.985 141.229L346.309 149.433L344.424 149.997L340.974 142.627L343.305 150.333L340.648 151.129L337.115 139.448L341.05 138.269C341.378 138.937 341.751 139.727 342.169 140.641L343.487 143.488L342.53 137.826L346.494 136.638Z" fill="white"/>
<path d="M351.938 135.226L356.753 146.599L353.607 147.44L352.905 145.352L351.802 145.646L352.169 147.824L348.987 148.674L347.493 136.414L351.938 135.226ZM352.275 143.276C351.773 141.976 351.19 140.362 350.526 138.434C350.799 140.78 351.031 142.487 351.224 143.557L352.275 143.276Z" fill="white"/>
<path d="M356.431 134.333L358.678 143.797L360.548 143.349L361.11 145.717L356.164 146.9L353.355 135.068L356.431 134.333Z" fill="white"/>
<path d="M429.054 140.756C428.932 141.98 428.815 142.844 428.703 143.35C428.597 143.851 428.37 144.297 428.022 144.689C427.679 145.082 427.238 145.366 426.699 145.542C426.159 145.718 425.546 145.773 424.859 145.708C424.207 145.645 423.63 145.484 423.13 145.223C422.635 144.958 422.251 144.597 421.977 144.141C421.704 143.684 421.562 143.202 421.552 142.695C421.542 142.188 421.6 141.308 421.725 140.054L421.934 137.971C422.057 136.747 422.171 135.885 422.277 135.384C422.388 134.878 422.615 134.429 422.958 134.037C423.307 133.645 423.75 133.361 424.29 133.185C424.829 133.009 425.442 132.954 426.129 133.019C426.781 133.082 427.355 133.246 427.85 133.511C428.351 133.771 428.738 134.13 429.011 134.586C429.284 135.043 429.426 135.525 429.436 136.032C429.446 136.539 429.388 137.419 429.263 138.673L429.054 140.756ZM426.287 136.452C426.344 135.885 426.347 135.521 426.298 135.359C426.254 135.193 426.134 135.1 425.938 135.082C425.772 135.066 425.638 135.119 425.535 135.24C425.437 135.358 425.357 135.73 425.294 136.356L424.724 142.042C424.654 142.749 424.638 143.188 424.676 143.359C424.72 143.53 424.847 143.626 425.058 143.646C425.273 143.667 425.421 143.585 425.5 143.4C425.579 143.215 425.655 142.764 425.727 142.047L426.287 136.452Z" fill="white"/>
<path d="M437.528 134.747L434.332 146.661L429.547 146.072L429.32 133.736L432.645 134.145C432.591 137.529 432.494 140.383 432.356 142.708C432.827 140.399 433.271 138.35 433.689 136.562L434.202 134.337L437.528 134.747Z" fill="white"/>
<path d="M437.053 134.735L442.271 135.531L441.905 137.94L439.817 137.621L439.471 139.904L441.425 140.202L441.078 142.492L439.123 142.193L438.722 144.84L441.018 145.19L440.653 147.599L435.227 146.771L437.053 134.735Z" fill="white"/>
<path d="M442.823 135.718L445.028 136.115C446.498 136.38 447.481 136.616 447.978 136.823C448.48 137.031 448.851 137.398 449.09 137.925C449.336 138.448 449.364 139.219 449.177 140.24C449.005 141.171 448.774 141.776 448.484 142.055C448.193 142.334 447.701 142.444 447.009 142.385C447.597 142.649 447.974 142.928 448.139 143.223C448.304 143.517 448.391 143.777 448.401 144.003C448.416 144.225 448.335 144.819 448.157 145.785L447.576 148.942L444.684 148.42L445.415 144.443C445.533 143.802 445.554 143.396 445.479 143.224C445.408 143.054 445.158 142.93 444.729 142.852L443.737 148.25L440.622 147.688L442.823 135.718ZM445.561 138.327L445.072 140.989C445.422 141.052 445.675 141.049 445.83 140.981C445.991 140.908 446.12 140.608 446.217 140.08L446.338 139.422C446.408 139.043 446.385 138.782 446.269 138.638C446.157 138.496 445.921 138.392 445.561 138.327Z" fill="white"/>
<path d="M461.755 139.546L457.829 151.141L453.97 150.272C454.01 148.365 454.145 146.217 454.376 143.828C454.04 144.795 453.308 146.809 452.18 149.869L448.343 149.006L449.518 136.792L452.518 137.467L451.942 141.692L451.406 145.772C451.963 143.724 452.83 141.067 454.008 137.802L457.221 138.525C457.19 138.883 457.022 140.217 456.716 142.528L456.083 147.125C456.872 144.287 457.762 141.535 458.754 138.871L461.755 139.546Z" fill="white"/>
<path d="M461.073 139.378L466.206 140.677L465.595 143.043L463.541 142.523L462.962 144.765L464.885 145.252L464.305 147.501L462.382 147.014L461.711 149.614L463.97 150.186L463.359 152.552L458.022 151.201L461.073 139.378Z" fill="white"/>
<path d="M469.585 141.826L466.292 153.517L463.255 152.65L466.548 140.959L469.585 141.826Z" fill="white"/>
<path d="M476.139 148.26L473.099 147.349L473.42 146.289C473.622 145.62 473.72 145.193 473.713 145.007C473.706 144.822 473.595 144.696 473.378 144.631C473.19 144.575 473.041 144.609 472.93 144.733C472.819 144.857 472.673 145.218 472.493 145.814L470.797 151.42C470.639 151.944 470.568 152.301 470.584 152.489C470.602 152.673 470.712 152.795 470.914 152.856C471.136 152.922 471.313 152.873 471.447 152.708C471.585 152.545 471.737 152.192 471.901 151.649L472.32 150.263L471.707 150.079L472.243 148.305L475.803 149.371L473.907 155.641L471.993 155.067L471.965 154.146C471.649 154.445 471.304 154.638 470.931 154.726C470.565 154.81 470.167 154.788 469.739 154.659C469.228 154.507 468.786 154.24 468.413 153.861C468.046 153.478 467.802 153.069 467.681 152.635C467.561 152.2 467.532 151.774 467.595 151.358C467.66 150.936 467.813 150.324 468.056 149.521L469.106 146.05C469.443 144.935 469.749 144.142 470.022 143.673C470.295 143.204 470.779 142.845 471.473 142.597C472.174 142.346 472.977 142.355 473.882 142.626C474.773 142.893 475.456 143.297 475.933 143.839C476.41 144.38 476.661 144.93 476.686 145.489C476.713 146.042 476.582 146.798 476.292 147.755L476.139 148.26Z" fill="white"/>
<path d="M484.648 146.433L480.758 157.967L477.755 156.967L479.389 152.123L478.49 151.824L476.857 156.668L473.853 155.668L477.743 144.135L480.746 145.134L479.355 149.259L480.254 149.558L481.645 145.433L484.648 146.433Z" fill="white"/>
<path d="M491.039 148.737L490.184 151.03L488.409 150.387L484.991 159.554L482.001 158.472L485.418 149.305L483.649 148.665L484.504 146.372L491.039 148.737Z" fill="white"/>
<path d="M545.314 193.051C544.506 193.968 543.91 194.599 543.526 194.943C543.15 195.287 542.707 195.516 542.199 195.631C541.693 195.749 541.172 195.724 540.633 195.554C540.095 195.384 539.567 195.073 539.049 194.622C538.558 194.194 538.186 193.729 537.932 193.229C537.685 192.728 537.583 192.214 537.627 191.687C537.671 191.159 537.835 190.688 538.122 190.272C538.408 189.857 538.965 189.179 539.793 188.238L541.17 186.676C541.979 185.758 542.571 185.127 542.948 184.784C543.331 184.44 543.775 184.208 544.28 184.09C544.789 183.975 545.313 184.003 545.851 184.173C546.39 184.343 546.918 184.653 547.435 185.104C547.927 185.533 548.296 185.997 548.542 186.498C548.796 186.999 548.901 187.513 548.858 188.04C548.814 188.567 548.649 189.038 548.363 189.454C548.077 189.87 547.52 190.548 546.691 191.488L545.314 193.051ZM545.572 187.969C545.947 187.544 546.161 187.252 546.215 187.093C546.275 186.933 546.232 186.789 546.085 186.66C545.96 186.551 545.82 186.516 545.666 186.555C545.519 186.593 545.238 186.847 544.824 187.317L541.066 191.582C540.599 192.112 540.331 192.458 540.264 192.618C540.2 192.782 540.247 192.933 540.406 193.071C540.568 193.213 540.735 193.232 540.906 193.128C541.078 193.025 541.4 192.704 541.874 192.167L545.572 187.969Z" fill="white"/>
<path d="M550.236 187.895L552.563 190.046C553.297 190.726 553.8 191.297 554.07 191.759C554.344 192.225 554.435 192.74 554.341 193.304C554.252 193.865 553.846 194.532 553.126 195.304C552.639 195.826 552.216 196.114 551.858 196.166C551.503 196.222 551.033 196.081 550.446 195.744C550.872 196.364 551.049 196.904 550.977 197.365C550.908 197.822 550.603 198.341 550.061 198.923L549.289 199.75C548.726 200.353 548.239 200.735 547.828 200.896C547.42 201.06 547.015 201.056 546.613 200.882C546.211 200.709 545.541 200.189 544.603 199.321L541.905 196.827L550.236 187.895ZM551.143 191.579L549.29 193.566C549.393 193.654 549.473 193.724 549.528 193.775C549.757 193.987 549.954 194.067 550.12 194.014C550.289 193.958 550.621 193.666 551.115 193.136C551.375 192.856 551.531 192.637 551.583 192.479C551.637 192.318 551.636 192.183 551.578 192.075C551.525 191.97 551.379 191.805 551.143 191.579ZM547.993 194.956L545.662 197.455C546.001 197.748 546.258 197.889 546.432 197.879C546.611 197.873 546.868 197.689 547.204 197.329L547.981 196.496C548.338 196.113 548.513 195.844 548.507 195.688C548.502 195.532 548.33 195.288 547.993 194.956Z" fill="white"/>
<path d="M555.735 193.144L559.498 196.83L557.79 198.56L556.284 197.084L554.666 198.723L556.075 200.104L554.452 201.749L553.042 200.368L551.165 202.269L552.822 203.891L551.114 205.621L547.201 201.789L555.735 193.144Z" fill="white"/>
<path d="M561.941 204.392L559.888 202.261L560.54 201.628C560.844 201.333 561.011 201.118 561.042 200.983C561.073 200.847 561.027 200.716 560.904 200.589C560.771 200.451 560.614 200.4 560.432 200.436C560.253 200.476 560.05 200.607 559.822 200.828C559.528 201.113 559.346 201.367 559.275 201.591C559.2 201.812 559.229 202.202 559.362 202.762C559.741 204.369 559.865 205.494 559.733 206.135C559.601 206.776 559.105 207.515 558.243 208.351C557.617 208.959 557.084 209.333 556.644 209.472C556.207 209.615 555.684 209.574 555.076 209.349C554.471 209.121 553.899 208.728 553.359 208.168C552.768 207.554 552.378 206.917 552.19 206.256C552.005 205.599 552.027 205.029 552.255 204.547C552.484 204.064 552.928 203.503 553.587 202.864L554.162 202.305L556.215 204.436L555.146 205.474C554.816 205.794 554.632 206.029 554.594 206.178C554.56 206.331 554.616 206.484 554.763 206.637C554.91 206.789 555.078 206.844 555.268 206.8C555.461 206.761 555.675 206.627 555.91 206.398C556.427 205.896 556.698 205.496 556.72 205.2C556.74 204.9 556.661 204.284 556.484 203.352C556.311 202.416 556.22 201.773 556.212 201.422C556.203 201.072 556.29 200.689 556.471 200.274C556.656 199.862 556.982 199.43 557.449 198.977C558.122 198.323 558.697 197.93 559.172 197.799C559.652 197.671 560.164 197.715 560.708 197.932C561.257 198.145 561.793 198.523 562.318 199.068C562.892 199.664 563.285 200.264 563.496 200.868C563.71 201.476 563.735 201.989 563.571 202.408C563.415 202.827 562.987 203.376 562.289 204.054L561.941 204.392Z" fill="white"/>
<path d="M566.924 204.648L557.904 212.805L555.777 210.464L564.798 202.307L566.924 204.648Z" fill="white"/>
<path d="M571.798 209.934L569.959 211.55L568.702 210.14L561.355 216.598L559.238 214.225L566.586 207.768L565.334 206.364L567.172 204.749L571.798 209.934Z" fill="white"/>
<path d="M576.327 215.369L568.852 218.569L565.455 221.388L563.565 219.139L566.961 216.32L571.514 209.642L573.39 211.874C571.856 213.741 570.79 214.959 570.192 215.527C571.306 214.831 572.726 214.034 574.451 213.137L576.327 215.369Z" fill="white"/>
<path d="M599.213 253.746L601.606 258.455L599.44 259.573L598.482 257.688L596.429 258.747L597.326 260.512L595.266 261.575L594.37 259.81L591.989 261.039L593.043 263.112L590.877 264.23L588.388 259.334L599.213 253.746Z" fill="white"/>
<path d="M604.601 264.747L599.251 266.074L593.843 270.506L592.561 267.864C593.504 267.025 594.698 266.099 596.143 265.087C595.415 265.345 594.63 265.597 593.789 265.843L591.863 266.428L590.515 263.65L597.152 261.751L601.519 258.399L602.858 261.157C602.578 261.351 602.121 261.692 601.487 262.178C601.004 262.553 600.558 262.886 600.146 263.176L603.44 262.356L604.601 264.747Z" fill="white"/>
<path d="M607.265 270.752L605.038 271.754L604.267 270.035L595.367 274.04L594.069 271.145L602.969 267.14L602.201 265.428L604.428 264.426L607.265 270.752Z" fill="white"/>
<path d="M607.215 270.806L608.07 272.881C608.641 274.265 608.973 275.222 609.067 275.754C609.164 276.29 609.054 276.802 608.74 277.291C608.431 277.782 607.797 278.226 606.836 278.622C605.958 278.984 605.324 279.118 604.932 279.024C604.54 278.931 604.182 278.576 603.858 277.96C603.953 278.6 603.921 279.069 603.762 279.369C603.603 279.668 603.431 279.883 603.246 280.013C603.067 280.147 602.523 280.401 601.613 280.777L598.64 282.003L597.517 279.28L601.263 277.735C601.867 277.486 602.221 277.283 602.324 277.126C602.43 276.974 602.399 276.696 602.233 276.292L597.149 278.389L595.94 275.457L607.215 270.806ZM606.495 274.534L603.988 275.568C604.124 275.897 604.263 276.109 604.404 276.203C604.553 276.299 604.875 276.245 605.372 276.04L605.992 275.784C606.349 275.637 606.557 275.475 606.615 275.299C606.674 275.128 606.634 274.873 606.495 274.534Z" fill="white"/>
<path d="M610.254 277.703L612.062 282.689L609.768 283.542L609.044 281.546L606.871 282.354L607.548 284.222L605.367 285.033L604.69 283.165L602.169 284.103L602.965 286.297L600.671 287.15L598.791 281.966L610.254 277.703Z" fill="white"/>
<path d="M615.294 292.242L603.818 296.265L602.909 293.655L610.656 290.938L602.546 292.612L601.901 290.761L609.088 287.007L601.518 289.661L600.609 287.051L612.085 283.027L613.431 286.893C612.781 287.249 612.01 287.654 611.119 288.11L608.342 289.545L613.938 288.347L615.294 292.242Z" fill="white"/>
<path d="M616.241 295.336L606.943 298.268L607.522 300.106L605.196 300.84L603.666 295.979L615.289 292.313L616.241 295.336Z" fill="white"/>
<path d="M618.486 302.936L610.401 302.889L606.175 304.12L605.369 301.304L609.595 300.072L616.435 295.764L617.234 298.559C615.085 299.66 613.624 300.352 612.85 300.634C614.144 300.44 615.756 300.276 617.687 300.141L618.486 302.936Z" fill="white"/>
<path d="M613.976 313.892C612.786 314.186 611.935 314.365 611.423 314.43C610.917 314.498 610.422 314.434 609.937 314.238C609.453 314.048 609.038 313.729 608.692 313.281C608.345 312.834 608.087 312.277 607.918 311.611C607.757 310.978 607.715 310.383 607.791 309.826C607.873 309.273 608.083 308.792 608.419 308.383C608.756 307.974 609.161 307.68 609.633 307.501C610.106 307.322 610.952 307.082 612.17 306.781L614.196 306.281C615.386 305.987 616.233 305.806 616.739 305.737C617.251 305.673 617.749 305.736 618.233 305.927C618.718 306.123 619.134 306.444 619.48 306.891C619.827 307.338 620.085 307.895 620.254 308.562C620.415 309.195 620.454 309.788 620.371 310.341C620.295 310.898 620.089 311.381 619.752 311.79C619.416 312.199 619.011 312.493 618.538 312.672C618.066 312.851 617.22 313.091 616.001 313.392L613.976 313.892ZM617.086 309.857C617.637 309.721 617.98 309.603 618.115 309.502C618.256 309.405 618.302 309.262 618.254 309.072C618.213 308.911 618.118 308.803 617.969 308.747C617.827 308.694 617.45 308.743 616.841 308.893L611.313 310.26C610.625 310.429 610.208 310.561 610.061 310.654C609.915 310.752 609.868 310.904 609.919 311.108C609.973 311.317 610.099 311.428 610.299 311.441C610.499 311.454 610.948 311.374 611.645 311.202L617.086 309.857Z" fill="white"/>
<path d="M620.94 312.468L621.593 315.553C621.799 316.528 621.879 317.281 621.833 317.813C621.788 318.35 621.566 318.823 621.166 319.231C620.771 319.638 620.06 319.951 619.032 320.171C618.337 320.32 617.829 320.314 617.508 320.152C617.188 319.995 616.887 319.612 616.605 319.001C616.594 319.751 616.428 320.294 616.105 320.629C615.786 320.963 615.241 321.213 614.467 321.379L613.366 321.614C612.563 321.786 611.949 321.82 611.523 321.717C611.097 321.618 610.771 321.384 610.545 321.012C610.318 320.641 610.073 319.834 609.809 318.59L609.053 315.012L620.94 312.468ZM619.561 315.996L616.917 316.562C616.95 316.693 616.974 316.795 616.99 316.869C617.054 317.172 617.168 317.35 617.333 317.402C617.502 317.453 617.939 317.403 618.644 317.252C619.016 317.172 619.269 317.082 619.401 316.982C619.538 316.881 619.614 316.77 619.63 316.649C619.646 316.533 619.623 316.315 619.561 315.996ZM615.067 316.958L611.741 317.67C611.848 318.102 611.975 318.364 612.122 318.456C612.27 318.552 612.584 318.549 613.064 318.446L614.173 318.209C614.682 318.1 614.979 317.98 615.064 317.849C615.149 317.718 615.15 317.421 615.067 316.958Z" fill="white"/>
<path d="M622.42 319.907L623.359 325.1L620.963 325.539L620.588 323.46L618.318 323.877L618.669 325.822L616.392 326.24L616.04 324.295L613.408 324.777L613.821 327.063L611.425 327.503L610.449 322.102L622.42 319.907Z" fill="white"/>
<path d="M620.965 332.724L620.52 329.816L621.411 329.672C621.827 329.605 622.087 329.525 622.189 329.432C622.292 329.34 622.33 329.206 622.303 329.033C622.274 328.844 622.176 328.713 622.007 328.639C621.839 328.569 621.599 328.56 621.287 328.61C620.886 328.675 620.592 328.778 620.406 328.92C620.218 329.057 620.018 329.391 619.806 329.924C619.192 331.451 618.647 332.438 618.173 332.885C617.698 333.333 616.872 333.652 615.693 333.842C614.836 333.98 614.189 333.981 613.752 333.843C613.316 333.71 612.915 333.378 612.549 332.848C612.189 332.317 611.95 331.669 611.834 330.906C611.705 330.068 611.754 329.325 611.98 328.679C612.207 328.038 612.551 327.586 613.014 327.323C613.476 327.061 614.158 326.857 615.059 326.711L615.846 326.584L616.291 329.492L614.828 329.729C614.377 329.801 614.093 329.888 613.977 329.988C613.861 330.093 613.819 330.25 613.851 330.458C613.883 330.666 613.988 330.807 614.167 330.88C614.346 330.957 614.597 330.97 614.918 330.918C615.627 330.804 616.075 330.633 616.263 330.404C616.451 330.17 616.74 329.623 617.131 328.762C617.527 327.901 617.822 327.325 618.016 327.034C618.21 326.744 618.5 326.481 618.885 326.246C619.271 326.016 619.784 325.849 620.423 325.746C621.344 325.598 622.035 325.605 622.497 325.77C622.959 325.939 623.349 326.267 623.667 326.755C623.99 327.241 624.209 327.856 624.323 328.6C624.447 329.413 624.422 330.126 624.246 330.739C624.072 331.357 623.798 331.789 623.425 332.038C623.058 332.29 622.396 332.493 621.44 332.648L620.965 332.724Z" fill="white"/>
<path d="M624.985 335.691L612.944 337.27L612.509 334.142L624.55 332.563L624.985 335.691Z" fill="white"/>
<path d="M625.778 342.902L623.353 343.171L623.148 341.3L613.455 342.376L613.109 339.224L622.802 338.149L622.597 336.285L625.022 336.016L625.778 342.902Z" fill="white"/>
<path d="M626.504 349.989L618.542 348.301L614.133 348.653L613.892 345.72L618.3 345.367L625.889 342.52L626.128 345.431C623.794 346.077 622.217 346.46 621.399 346.581C622.713 346.653 624.334 346.819 626.264 347.078L626.504 349.989Z" fill="white"/>
<path d="M549.281 324.684L485.664 343.196L443.886 355.342H425.102L381.774 355.43H373.72C370.506 351.136 368.5 346.062 367.912 340.733C367.323 335.405 368.173 330.016 370.373 325.126C372.573 320.236 376.042 316.023 380.422 312.924C384.802 309.824 389.933 307.952 395.281 307.501C397.879 307.296 400.493 307.423 403.058 307.88L477.185 316.392L549.281 324.684Z" fill="#191919"/>
<path d="M522.97 326.918L484.744 338.042L425.147 355.386L381.819 355.474C377.892 351.857 375.246 347.065 374.28 341.817C373.315 336.569 374.081 331.15 376.465 326.376C378.849 321.601 382.721 317.728 387.499 315.341C392.276 312.953 397.701 312.179 402.957 313.136L479.789 321.896L522.97 326.918Z" fill="#474747"/>
<path d="M400.486 354.364C397.127 354.65 393.758 353.934 390.806 352.307C387.854 350.68 385.452 348.216 383.903 345.225C382.353 342.234 381.727 338.852 382.103 335.506C382.479 332.16 383.839 329 386.013 326.426C388.188 323.853 391.077 321.981 394.316 321.047C397.556 320.114 400.999 320.161 404.212 321.183C407.425 322.204 410.262 324.154 412.364 326.786C414.467 329.418 415.741 332.614 416.025 335.969C416.406 340.466 414.982 344.93 412.069 348.38C409.155 351.829 404.989 353.982 400.486 354.364Z" fill="#191919"/>
<path d="M397.607 260.637C372.31 260.637 348.042 270.636 330.104 288.45C312.166 306.263 302.017 330.443 301.874 355.707H308.584C308.827 332.322 318.286 309.975 334.911 293.507C351.536 277.039 373.989 267.775 397.404 267.723C420.82 267.672 443.313 276.836 460.011 293.23C476.709 309.625 486.267 331.93 486.615 355.313H493.324C493.078 330.12 482.885 306.043 464.962 288.315C447.038 270.587 422.833 260.64 397.607 260.637Z" fill="#A9ABAE"/>
<path d="M486.615 355.299H443.887H425.103L381.776 355.386H373.721L308.584 355.576C308.739 335.616 315.615 316.288 328.106 300.704C340.596 285.121 357.974 274.189 377.442 269.668C396.909 265.147 417.334 267.3 435.427 275.781C453.52 284.262 468.229 298.577 477.187 316.421C478.108 318.232 478.97 320.071 479.745 321.954C481.928 327.133 483.602 332.511 484.744 338.013C485.095 339.707 485.402 341.43 485.665 343.167C486.257 347.185 486.575 351.238 486.615 355.299Z" fill="white"/>
<path d="M350.201 304.479C354.069 303.879 357.98 303.591 361.895 303.617C367.391 303.617 370.768 304.172 373.677 305.851C375.128 306.583 376.344 307.708 377.186 309.096C378.029 310.485 378.464 312.082 378.442 313.705C378.442 317.209 376.381 320.509 371.894 322.173V322.333C374.143 322.795 376.162 324.021 377.609 325.801C379.056 327.581 379.841 329.807 379.831 332.1C379.84 333.734 379.47 335.347 378.75 336.814C378.03 338.28 376.979 339.56 375.68 340.553C372.756 342.904 367.947 344.174 359.995 344.174C356.74 344.205 353.487 344.01 350.259 343.59L350.201 304.479ZM359.132 319.735H362.056C366.836 319.735 369.365 317.749 369.365 314.786C369.365 311.822 367.07 310.172 362.991 310.172C361.713 310.132 360.435 310.225 359.176 310.45L359.132 319.735ZM359.132 337.356C360.276 337.499 361.43 337.553 362.582 337.516C366.675 337.516 370.286 335.94 370.286 331.677C370.286 327.414 366.675 326.158 362.29 326.158H359.205L359.132 337.356Z" fill="#17A37C"/>
<path d="M419.636 328.523C419.46 323.706 419.27 317.954 419.299 312.114H419.139C417.867 317.224 416.215 322.874 414.68 327.574L409.798 343.108H402.796L398.498 327.72C397.212 323.034 395.882 317.37 394.888 312.114H394.771C394.581 317.53 394.347 323.691 394.113 328.64L393.367 343.765H385.021L387.579 303.938H399.595L403.483 317.238C404.755 321.808 405.983 326.815 406.874 331.487H407.064C408.146 326.874 409.505 321.618 410.85 317.18L415.089 303.938H426.886L429.02 343.765H420.25L419.636 328.523Z" fill="#17A37C"/>
<path d="M445.012 303.938V343.765H435.993V303.938H445.012Z" fill="#17A37C"/>
</g>
<defs>
<clipPath id="clip0_223_1930">
<rect width="811" height="505.596" fill="white"/>
</clipPath>
</defs>
</svg>
