<svg width="812" height="523" viewBox="0 0 812 523" fill="none" xmlns="http://www.w3.org/2000/svg">
<g clip-path="url(#clip0_223_1721)">
<path d="M627.889 203.925C593.598 157.112 545.404 122.34 490.191 104.576C434.978 86.8118 375.568 86.9632 320.446 105.009C265.323 123.054 217.308 158.071 183.255 205.058C149.201 252.046 130.853 308.602 130.829 366.649C130.829 366.649 204.716 366.33 298.343 366.026C299.218 338.095 310.902 311.597 330.93 292.128C350.958 272.658 377.762 261.74 405.681 261.679C433.601 261.618 460.452 272.418 480.565 291.8C500.677 311.182 512.478 337.628 513.475 365.555C607.618 365.555 673.761 366.634 681.004 366.634C681.104 308.114 662.492 251.097 627.889 203.925Z" fill="#6B6B6B"/>
<path d="M621.739 208.424C588.401 162.895 541.54 129.076 487.85 111.796C434.16 94.5169 376.387 94.6616 322.785 112.21C269.182 129.758 222.49 163.812 189.38 209.507C156.27 255.203 138.434 310.202 138.42 366.65C138.42 366.65 210.273 366.33 301.303 366.042C301.895 338.703 313.145 312.68 332.649 293.532C352.154 274.384 378.366 263.63 405.687 263.566C433.007 263.503 459.269 274.135 478.862 293.192C498.455 312.25 509.826 338.22 510.544 365.555C602.015 365.555 667.702 366.604 673.442 366.604C673.517 309.706 655.399 254.276 621.739 208.424Z" fill="#E6E6E6"/>
<path d="M315.775 324.339C309.62 337.511 306.442 351.88 306.467 366.422H151.708C151.955 322.766 163.266 279.887 184.582 241.799L315.775 324.339Z" fill="#94E0CC"/>
<path d="M353.386 281.966C337.012 292.178 323.947 306.922 315.775 324.414L184.582 241.874C205.771 203.91 236.241 171.949 273.137 148.985L353.386 281.966Z" fill="#57D0AF"/>
<path d="M405.894 111.067V266.875C387.322 266.861 369.122 272.092 353.387 281.967L273.137 148.985C312.973 124.162 358.969 111.025 405.894 111.067Z" fill="#17A37C"/>
<path d="M538.18 148.621L457.961 281.587C442.307 271.939 424.278 266.845 405.894 266.875V111.067C452.624 111.004 498.442 124.011 538.18 148.621Z" fill="#FF9E7E"/>
<path d="M627.054 241.479L495.892 324.019C487.616 306.49 474.427 291.748 457.931 281.586L538.15 148.62C575.173 171.526 605.767 203.481 627.054 241.479Z" fill="#F0606C"/>
<path d="M660.095 366.421H505.351C505.368 351.761 502.138 337.28 495.892 324.019L627.054 241.479C648.473 279.649 659.843 322.644 660.095 366.421Z" fill="#E14E4E"/>
<path d="M173.873 350.395L174.323 344.91L176.855 345.113L176.675 347.308L179.074 347.5L179.242 345.446L181.649 345.638L181.48 347.693L184.262 347.916L184.46 345.502L186.992 345.704L186.524 351.408L173.873 350.395Z" fill="white"/>
<path d="M175.278 337.715L180.718 339.477L187.927 338.531L187.595 341.564C186.301 341.787 184.739 341.949 182.907 342.05C183.691 342.221 184.521 342.429 185.396 342.673L187.415 343.212L187.066 346.4L180.175 344.437L174.48 345L174.826 341.836C175.18 341.817 175.77 341.768 176.597 341.686C177.229 341.62 177.806 341.572 178.329 341.541L174.977 340.459L175.278 337.715Z" fill="white"/>
<path d="M176.232 331.016L178.735 331.345L178.467 333.274L188.471 334.589L188.02 337.838L178.017 336.523L177.75 338.445L175.247 338.116L176.232 331.016Z" fill="white"/>
<path d="M176.095 330.918L176.478 328.618C176.734 327.085 176.966 326.058 177.174 325.536C177.383 325.01 177.761 324.617 178.306 324.356C178.848 324.09 179.652 324.043 180.717 324.215C181.691 324.373 182.324 324.599 182.619 324.895C182.913 325.191 183.035 325.7 182.984 326.421C183.25 325.803 183.536 325.406 183.841 325.228C184.145 325.05 184.415 324.953 184.65 324.939C184.881 324.918 185.501 324.989 186.51 325.152L189.808 325.686L189.306 328.704L185.151 328.031C184.481 327.923 184.058 327.91 183.88 327.992C183.703 328.069 183.578 328.332 183.503 328.779L189.141 329.692L188.6 332.941L176.095 330.918ZM178.776 328.015L181.557 328.465C181.617 328.099 181.611 327.837 181.537 327.677C181.459 327.511 181.144 327.383 180.593 327.294L179.906 327.183C179.509 327.119 179.237 327.149 179.09 327.273C178.943 327.392 178.839 327.639 178.776 328.015Z" fill="white"/>
<path d="M177.423 323.081L178.545 317.69L181.034 318.199L180.585 320.356L182.945 320.838L183.365 318.819L185.732 319.302L185.312 321.322L188.047 321.881L188.541 319.508L191.031 320.016L189.864 325.622L177.423 323.081Z" fill="white"/>
<path d="M180.737 307.386L193.088 310.161L192.456 312.968L184.117 311.095L192.203 314.09L191.755 316.081L183.341 315.432L191.489 317.263L190.857 320.07L178.506 317.295L179.442 313.138C180.212 313.182 181.116 313.249 182.154 313.338L185.396 313.602L179.794 311.574L180.737 307.386Z" fill="white"/>
<path d="M181.629 304.121L191.451 306.655L191.944 304.711L194.401 305.345L193.099 310.486L180.819 307.318L181.629 304.121Z" fill="white"/>
<path d="M184.021 296.23L191.112 300.711L195.508 301.948L194.673 304.871L190.278 303.633L181.897 303.67L182.725 300.77C185.219 300.982 186.885 301.175 187.721 301.351C186.475 300.812 184.966 300.071 183.193 299.129L184.021 296.23Z" fill="white"/>
<path d="M188.525 282.189L200.063 287.491L198.768 291.382C196.806 291.135 194.607 290.764 192.17 290.269C193.132 290.719 195.131 291.692 198.166 293.187L196.878 297.055L184.416 294.527L185.424 291.502L189.717 292.551L193.864 293.545C191.812 292.749 189.165 291.567 185.924 290L187.003 286.76C187.368 286.83 188.725 287.148 191.074 287.713L195.745 288.861C192.902 287.741 190.16 286.525 187.518 285.214L188.525 282.189Z" fill="white"/>
<path d="M188.215 282.773L190.089 277.594L192.472 278.482L191.721 280.555L193.978 281.396L194.681 279.456L196.945 280.3L196.243 282.24L198.86 283.216L199.685 280.936L202.068 281.824L200.118 287.209L188.215 282.773Z" fill="white"/>
<path d="M192.451 271.94L204.917 274.875L203.673 278.01L201.497 277.32L201.061 278.418L203.105 279.443L201.847 282.614L190.693 276.37L192.451 271.94ZM199.376 276.576C197.981 276.201 196.274 275.701 194.254 275.076C196.38 276.282 197.949 277.131 198.96 277.624L199.376 276.576Z" fill="white"/>
<path d="M196.184 263.198L200.681 267.212L207.874 268.088L206.523 271.213L201.014 270.267L205.995 272.434L204.687 275.459L193.068 270.403L194.376 267.378L198.89 269.343L194.957 266.035L196.184 263.198Z" fill="white"/>
<path d="M238.309 209.286L247.171 218.43L244.594 221.627C242.857 220.689 240.942 219.548 238.85 218.204C239.585 218.975 241.101 220.61 243.398 223.11L240.835 226.288L230.135 219.423L232.14 216.937L235.763 219.471L239.27 221.899C237.642 220.411 235.597 218.346 233.134 215.704L235.281 213.042C235.596 213.239 236.746 214.027 238.731 215.403L242.671 218.166C240.422 216.088 238.3 213.957 236.305 211.772L238.309 209.286Z" fill="white"/>
<path d="M237.89 209.913L241.493 205.781L243.392 207.453L241.95 209.107L243.749 210.692L245.099 209.144L246.904 210.734L245.554 212.282L247.64 214.12L249.226 212.301L251.125 213.973L247.378 218.27L237.89 209.913Z" fill="white"/>
<path d="M245.744 201.169L256.306 208.434L254.013 210.913L252.233 209.479L251.43 210.347L252.964 212.046L250.644 214.554L242.504 204.672L245.744 201.169ZM250.524 208.014C249.36 207.157 247.949 206.071 246.292 204.754C247.838 206.652 248.993 208.015 249.758 208.843L250.524 208.014Z" fill="white"/>
<path d="M252.151 194.532L254.974 199.856L261.427 203.18L259.065 205.636L254.22 202.833L258.143 206.595L255.857 208.972L246.706 200.195L248.991 197.818L252.547 201.228L250.006 196.762L252.151 194.532Z" fill="white"/>
<path d="M327.719 145.521L332.529 157.303L329.848 158.408L326.069 153.708L328.256 159.064L325.698 160.118L320.888 148.336L323.446 147.282L327.327 151.88L325.161 146.575L327.719 145.521Z" fill="white"/>
<path d="M337.833 149.881C338.278 151.077 338.564 151.936 338.691 152.458C338.821 152.973 338.813 153.49 338.666 154.011C338.524 154.53 338.241 154.991 337.817 155.395C337.392 155.8 336.843 156.124 336.169 156.368C335.53 156.6 334.917 156.706 334.329 156.685C333.744 156.658 333.219 156.493 332.754 156.188C332.289 155.884 331.936 155.497 331.695 155.028C331.453 154.559 331.105 153.712 330.649 152.487L329.891 150.45C329.446 149.253 329.158 148.398 329.028 147.883C328.901 147.362 328.908 146.841 329.05 146.323C329.197 145.802 329.483 145.34 329.907 144.935C330.332 144.531 330.881 144.207 331.554 143.962C332.194 143.731 332.806 143.628 333.391 143.655C333.979 143.676 334.505 143.838 334.97 144.143C335.435 144.447 335.788 144.834 336.029 145.302C336.271 145.771 336.619 146.618 337.075 147.844L337.833 149.881ZM333.272 147.095C333.066 146.541 332.903 146.2 332.782 146.071C332.665 145.935 332.51 145.902 332.319 145.972C332.156 146.031 332.055 146.14 332.014 146.3C331.976 146.452 332.071 146.835 332.299 147.448L334.367 153.008C334.624 153.699 334.81 154.116 334.924 154.258C335.043 154.398 335.206 154.431 335.413 154.356C335.624 154.279 335.725 154.137 335.714 153.93C335.704 153.722 335.568 153.267 335.308 152.566L333.272 147.095Z" fill="white"/>
<path d="M335.569 142.821L337.777 142.084C339.248 141.593 340.262 141.318 340.819 141.259C341.381 141.198 341.903 141.347 342.387 141.707C342.874 142.06 343.289 142.748 343.633 143.769C343.947 144.701 344.042 145.367 343.917 145.765C343.793 146.163 343.401 146.508 342.741 146.799C343.41 146.746 343.894 146.813 344.193 146.999C344.491 147.184 344.702 147.377 344.824 147.578C344.95 147.772 345.176 148.353 345.501 149.32L346.565 152.48L343.668 153.446L342.328 149.464C342.112 148.823 341.927 148.443 341.772 148.325C341.621 148.205 341.332 148.216 340.902 148.36L342.72 153.762L339.602 154.803L335.569 142.821ZM339.378 143.83L340.274 146.495C340.625 146.378 340.854 146.249 340.96 146.109C341.07 145.963 341.036 145.626 340.859 145.098L340.637 144.439C340.509 144.059 340.356 143.833 340.178 143.761C340.005 143.687 339.738 143.71 339.378 143.83Z" fill="white"/>
<path d="M352.648 137.418L356.31 149.553L353.551 150.381L351.078 142.189L352.449 150.712L350.491 151.3L346.913 143.644L349.329 151.649L346.57 152.478L342.907 140.343L346.994 139.116C347.334 139.809 347.721 140.631 348.155 141.579L349.522 144.537L348.531 138.654L352.648 137.418Z" fill="white"/>
<path d="M358.313 135.925L363.307 147.739L360.041 148.614L359.312 146.445L358.167 146.752L358.547 149.014L355.243 149.899L353.697 137.162L358.313 135.925ZM358.659 144.288C358.139 142.939 357.534 141.262 356.846 139.259C357.128 141.696 357.368 143.47 357.568 144.581L358.659 144.288Z" fill="white"/>
<path d="M362.993 135.007L365.322 144.839L367.264 144.373L367.847 146.833L362.71 148.064L359.799 135.773L362.993 135.007Z" fill="white"/>
<path d="M438.638 141.664C438.511 142.935 438.39 143.833 438.275 144.358C438.165 144.879 437.929 145.342 437.567 145.749C437.211 146.157 436.753 146.452 436.193 146.635C435.633 146.818 434.996 146.875 434.282 146.806C433.605 146.741 433.006 146.573 432.486 146.303C431.972 146.027 431.573 145.652 431.289 145.178C431.005 144.704 430.858 144.204 430.847 143.677C430.837 143.15 430.896 142.236 431.027 140.934L431.243 138.77C431.37 137.499 431.488 136.603 431.598 136.083C431.714 135.557 431.95 135.091 432.306 134.684C432.667 134.277 433.128 133.982 433.688 133.799C434.248 133.616 434.885 133.559 435.599 133.627C436.276 133.692 436.872 133.863 437.386 134.138C437.906 134.409 438.308 134.781 438.592 135.255C438.876 135.73 439.023 136.23 439.034 136.757C439.044 137.284 438.985 138.198 438.855 139.5L438.638 141.664ZM435.763 137.192C435.822 136.604 435.826 136.226 435.774 136.058C435.728 135.885 435.604 135.789 435.401 135.769C435.229 135.753 435.089 135.808 434.982 135.934C434.88 136.056 434.797 136.442 434.732 137.093L434.142 142.999C434.068 143.734 434.052 144.189 434.092 144.367C434.137 144.545 434.269 144.644 434.488 144.665C434.712 144.687 434.865 144.601 434.948 144.409C435.03 144.218 435.108 143.749 435.183 143.004L435.763 137.192Z" fill="white"/>
<path d="M447.458 135.411L444.143 147.786L439.172 147.173L438.933 134.359L442.386 134.785C442.331 138.3 442.232 141.265 442.089 143.679C442.578 141.281 443.038 139.153 443.472 137.296L444.004 134.985L447.458 135.411Z" fill="white"/>
<path d="M446.994 135.401L452.413 136.23L452.035 138.732L449.865 138.4L449.506 140.771L451.537 141.081L451.177 143.459L449.146 143.149L448.73 145.898L451.116 146.263L450.737 148.765L445.101 147.903L446.994 135.401Z" fill="white"/>
<path d="M452.991 136.442L455.281 136.856C456.808 137.132 457.829 137.378 458.345 137.592C458.867 137.808 459.252 138.19 459.501 138.738C459.755 139.281 459.786 140.082 459.591 141.142C459.414 142.11 459.174 142.738 458.872 143.028C458.57 143.317 458.06 143.431 457.341 143.37C457.952 143.644 458.343 143.935 458.515 144.241C458.686 144.547 458.777 144.817 458.786 145.051C458.802 145.282 458.718 145.899 458.534 146.902L457.932 150.182L454.928 149.639L455.686 145.507C455.808 144.841 455.83 144.419 455.752 144.241C455.678 144.064 455.419 143.935 454.973 143.855L453.945 149.461L450.71 148.876L452.991 136.442ZM455.836 139.154L455.328 141.919C455.692 141.985 455.955 141.982 456.116 141.911C456.283 141.835 456.417 141.523 456.518 140.976L456.643 140.292C456.716 139.898 456.691 139.626 456.57 139.478C456.455 139.33 456.21 139.222 455.836 139.154Z" fill="white"/>
<path d="M472.672 140.415L468.6 152.459L464.593 151.555C464.634 149.574 464.773 147.342 465.012 144.86C464.663 145.865 463.904 147.957 462.734 151.136L458.749 150.237L459.964 137.549L463.08 138.252L462.484 142.641L461.928 146.879C462.506 144.751 463.405 141.992 464.627 138.601L467.964 139.353C467.932 139.725 467.758 141.111 467.441 143.511L466.786 148.287C467.604 145.338 468.527 142.48 469.556 139.713L472.672 140.415Z" fill="white"/>
<path d="M471.992 140.248L477.322 141.6L476.689 144.058L474.555 143.517L473.956 145.846L475.952 146.352L475.351 148.689L473.354 148.182L472.658 150.883L475.005 151.478L474.372 153.936L468.829 152.529L471.992 140.248Z" fill="white"/>
<path d="M480.844 142.798L477.432 154.943L474.278 154.041L477.69 141.896L480.844 142.798Z" fill="white"/>
<path d="M487.666 149.491L484.509 148.543L484.842 147.441C485.051 146.746 485.152 146.303 485.145 146.11C485.138 145.917 485.022 145.787 484.797 145.719C484.602 145.661 484.447 145.696 484.332 145.825C484.217 145.954 484.065 146.328 483.878 146.947L482.121 152.771C481.956 153.316 481.883 153.686 481.9 153.882C481.919 154.073 482.033 154.2 482.243 154.263C482.473 154.332 482.657 154.281 482.796 154.11C482.94 153.941 483.097 153.574 483.267 153.009L483.702 151.57L483.064 151.379L483.621 149.535L487.318 150.645L485.352 157.158L483.365 156.562L483.335 155.604C483.007 155.915 482.649 156.115 482.262 156.206C481.881 156.293 481.468 156.27 481.023 156.136C480.493 155.977 480.034 155.701 479.646 155.306C479.265 154.908 479.012 154.483 478.886 154.032C478.761 153.58 478.731 153.137 478.796 152.705C478.863 152.267 479.022 151.631 479.274 150.796L480.362 147.191C480.712 146.032 481.028 145.209 481.312 144.722C481.595 144.235 482.097 143.862 482.818 143.605C483.546 143.343 484.38 143.354 485.319 143.636C486.244 143.914 486.954 144.334 487.449 144.897C487.945 145.46 488.206 146.031 488.232 146.612C488.26 147.187 488.124 147.972 487.824 148.966L487.666 149.491Z" fill="white"/>
<path d="M496.538 147.619L492.505 159.602L489.387 158.561L491.08 153.528L490.147 153.217L488.453 158.25L485.335 157.209L489.367 145.227L492.486 146.268L491.044 150.553L491.977 150.864L493.419 146.579L496.538 147.619Z" fill="white"/>
<path d="M503.179 150.01L502.292 152.392L500.448 151.724L496.906 161.247L493.8 160.121L497.343 150.598L495.506 149.931L496.393 147.549L503.179 150.01Z" fill="white"/>
<path d="M559.753 196.247C558.914 197.201 558.296 197.857 557.898 198.215C557.508 198.572 557.049 198.811 556.521 198.93C555.997 199.053 555.455 199.026 554.897 198.849C554.338 198.672 553.79 198.349 553.253 197.88C552.743 197.435 552.357 196.952 552.093 196.431C551.837 195.91 551.732 195.376 551.777 194.828C551.822 194.28 551.993 193.79 552.29 193.357C552.586 192.925 553.165 192.22 554.024 191.243L555.452 189.618C556.291 188.664 556.906 188.009 557.296 187.651C557.694 187.294 558.155 187.053 558.679 186.93C559.207 186.811 559.75 186.839 560.309 187.016C560.867 187.193 561.415 187.516 561.953 187.985C562.462 188.431 562.845 188.914 563.101 189.435C563.365 189.955 563.474 190.489 563.429 191.038C563.383 191.586 563.212 192.076 562.916 192.508C562.619 192.94 562.041 193.645 561.181 194.622L559.753 196.247ZM560.02 190.964C560.409 190.522 560.631 190.218 560.686 190.052C560.749 189.886 560.704 189.736 560.551 189.603C560.422 189.49 560.277 189.453 560.117 189.493C559.965 189.533 559.673 189.797 559.244 190.286L555.345 194.72C554.86 195.271 554.583 195.63 554.513 195.797C554.446 195.967 554.495 196.124 554.66 196.268C554.829 196.415 555.002 196.435 555.18 196.328C555.357 196.22 555.692 195.887 556.183 195.328L560.02 190.964Z" fill="white"/>
<path d="M564.893 190.919L567.307 193.156C568.07 193.863 568.591 194.457 568.872 194.938C569.156 195.422 569.25 195.957 569.153 196.544C569.06 197.128 568.64 197.821 567.892 198.624C567.387 199.167 566.948 199.466 566.577 199.52C566.209 199.578 565.72 199.432 565.112 199.081C565.554 199.726 565.737 200.288 565.663 200.767C565.591 201.242 565.274 201.782 564.712 202.386L563.911 203.246C563.328 203.873 562.822 204.271 562.396 204.438C561.973 204.609 561.553 204.604 561.135 204.423C560.718 204.243 560.022 203.702 559.049 202.8L556.25 200.206L564.893 190.919ZM565.834 194.751L563.912 196.816C564.019 196.908 564.102 196.98 564.159 197.034C564.397 197.254 564.601 197.337 564.773 197.282C564.949 197.224 565.293 196.92 565.805 196.369C566.076 196.078 566.238 195.851 566.291 195.686C566.347 195.518 566.346 195.378 566.286 195.266C566.23 195.157 566.08 194.985 565.834 194.751ZM562.567 198.261L560.149 200.86C560.5 201.164 560.767 201.311 560.948 201.301C561.132 201.294 561.399 201.103 561.748 200.729L562.554 199.862C562.924 199.465 563.106 199.185 563.1 199.022C563.094 198.86 562.917 198.606 562.567 198.261Z" fill="white"/>
<path d="M570.602 196.396L574.506 200.229L572.734 202.028L571.171 200.494L569.493 202.198L570.955 203.634L569.271 205.344L567.808 203.908L565.861 205.885L567.58 207.572L565.808 209.37L561.748 205.385L570.602 196.396Z" fill="white"/>
<path d="M577.056 208.091L574.926 205.876L575.602 205.218C575.917 204.911 576.091 204.687 576.123 204.547C576.155 204.406 576.107 204.269 575.98 204.137C575.842 203.994 575.678 203.941 575.489 203.979C575.304 204.02 575.093 204.156 574.856 204.386C574.552 204.682 574.363 204.947 574.289 205.18C574.211 205.409 574.241 205.814 574.379 206.396C574.773 208.068 574.901 209.237 574.764 209.904C574.628 210.571 574.112 211.339 573.219 212.209C572.569 212.841 572.016 213.229 571.559 213.374C571.106 213.522 570.563 213.48 569.932 213.246C569.304 213.009 568.711 212.6 568.151 212.018C567.538 211.38 567.133 210.717 566.938 210.03C566.746 209.347 566.769 208.754 567.006 208.253C567.244 207.751 567.704 207.168 568.387 206.503L568.984 205.922L571.114 208.137L570.005 209.217C569.663 209.549 569.472 209.793 569.433 209.949C569.397 210.108 569.455 210.267 569.608 210.426C569.76 210.584 569.935 210.641 570.131 210.596C570.331 210.555 570.554 210.415 570.798 210.178C571.335 209.655 571.615 209.24 571.639 208.932C571.659 208.62 571.577 207.979 571.393 207.01C571.214 206.037 571.12 205.368 571.111 205.004C571.102 204.64 571.192 204.242 571.38 203.81C571.572 203.382 571.91 202.932 572.395 202.461C573.093 201.781 573.689 201.373 574.183 201.236C574.68 201.103 575.211 201.149 575.776 201.374C576.345 201.596 576.902 201.99 577.447 202.556C578.043 203.176 578.45 203.799 578.668 204.427C578.89 205.059 578.917 205.593 578.747 206.029C578.584 206.465 578.141 207.035 577.416 207.74L577.056 208.091Z" fill="white"/>
<path d="M582.246 208.38L572.886 216.862L570.679 214.429L580.04 205.946L582.246 208.38Z" fill="white"/>
<path d="M587.311 213.901L585.403 215.581L584.099 214.116L576.475 220.831L574.279 218.364L581.903 211.649L580.605 210.189L582.512 208.509L587.311 213.901Z" fill="white"/>
<path d="M592.027 219.556L584.27 222.884L580.746 225.816L578.785 223.478L582.31 220.546L587.035 213.602L588.981 215.922C587.389 217.864 586.283 219.13 585.662 219.722C586.818 218.997 588.291 218.169 590.082 217.235L592.027 219.556Z" fill="white"/>
<path d="M615.879 259.642L618.361 264.535L616.112 265.698L615.118 263.74L612.987 264.842L613.917 266.675L611.779 267.781L610.849 265.948L608.378 267.226L609.47 269.38L607.221 270.544L604.641 265.456L615.879 259.642Z" fill="white"/>
<path d="M621.494 271.101L615.94 272.483L610.325 277.093L608.995 274.347C609.974 273.474 611.214 272.511 612.715 271.459C611.959 271.728 611.144 271.99 610.271 272.245L608.272 272.855L606.874 269.969L613.764 267.991L618.299 264.505L619.687 267.37C619.396 267.573 618.922 267.927 618.263 268.433C617.762 268.822 617.298 269.168 616.871 269.471L620.29 268.616L621.494 271.101Z" fill="white"/>
<path d="M624.267 277.349L621.955 278.392L621.156 276.606L611.915 280.773L610.569 277.765L619.81 273.597L619.014 271.818L621.326 270.775L624.267 277.349Z" fill="white"/>
<path d="M624.228 277.45L625.115 279.607C625.706 281.044 626.051 282.039 626.148 282.591C626.248 283.149 626.134 283.681 625.807 284.189C625.487 284.699 624.828 285.161 623.83 285.573C622.919 285.95 622.26 286.09 621.854 285.992C621.447 285.895 621.075 285.527 620.739 284.887C620.838 285.552 620.804 286.04 620.639 286.351C620.474 286.662 620.295 286.885 620.103 287.021C619.917 287.16 619.352 287.425 618.407 287.815L615.32 289.092L614.156 286.262L618.046 284.654C618.672 284.395 619.04 284.184 619.147 284.021C619.257 283.863 619.226 283.574 619.053 283.154L613.775 285.336L612.521 282.29L624.228 277.45ZM623.478 281.325L620.875 282.401C621.016 282.743 621.16 282.963 621.307 283.06C621.461 283.16 621.796 283.104 622.312 282.891L622.955 282.625C623.327 282.471 623.542 282.303 623.602 282.12C623.665 281.942 623.623 281.677 623.478 281.325Z" fill="white"/>
<path d="M627.378 284.636L629.253 289.815L626.87 290.703L626.12 288.63L623.863 289.471L624.565 291.411L622.301 292.255L621.598 290.315L618.981 291.29L619.806 293.57L617.424 294.458L615.474 289.072L627.378 284.636Z" fill="white"/>
<path d="M632.61 299.777L620.693 303.964L619.75 301.252L627.795 298.425L619.374 300.169L618.705 298.245L626.17 294.341L618.308 297.103L617.366 294.391L629.283 290.204L630.679 294.22C630.003 294.59 629.203 295.011 628.277 295.486L625.393 296.979L631.204 295.731L632.61 299.777Z" fill="white"/>
<path d="M633.605 303.015L623.95 306.066L624.549 307.976L622.134 308.74L620.548 303.689L632.618 299.874L633.605 303.015Z" fill="white"/>
<path d="M635.939 310.932L627.544 310.887L623.155 312.168L622.32 309.242L626.709 307.961L633.812 303.481L634.641 306.385C632.409 307.529 630.892 308.249 630.088 308.543C631.432 308.34 633.106 308.169 635.11 308.028L635.939 310.932Z" fill="white"/>
<path d="M631.261 322.361C630.026 322.666 629.142 322.853 628.611 322.92C628.085 322.991 627.571 322.925 627.067 322.722C626.565 322.524 626.134 322.193 625.775 321.729C625.415 321.264 625.147 320.686 624.972 319.993C624.805 319.336 624.762 318.718 624.841 318.139C624.927 317.565 625.145 317.065 625.494 316.639C625.844 316.214 626.264 315.909 626.755 315.723C627.246 315.537 628.125 315.287 629.39 314.973L631.494 314.453C632.729 314.147 633.61 313.958 634.135 313.887C634.667 313.82 635.184 313.885 635.686 314.083C636.189 314.286 636.621 314.62 636.981 315.085C637.34 315.549 637.608 316.127 637.784 316.82C637.95 317.477 637.99 318.093 637.905 318.668C637.825 319.247 637.611 319.748 637.261 320.174C636.911 320.599 636.491 320.904 636 321.09C635.509 321.276 634.631 321.526 633.365 321.84L631.261 322.361ZM634.493 318.167C635.065 318.025 635.421 317.902 635.561 317.798C635.708 317.697 635.756 317.548 635.707 317.351C635.664 317.184 635.566 317.071 635.411 317.013C635.263 316.958 634.872 317.009 634.239 317.166L628.498 318.588C627.784 318.765 627.351 318.901 627.198 318.998C627.046 319.1 626.997 319.258 627.051 319.47C627.106 319.687 627.237 319.803 627.445 319.816C627.653 319.829 628.119 319.746 628.843 319.566L634.493 318.167Z" fill="white"/>
<path d="M638.504 320.927L639.18 324.133C639.394 325.145 639.477 325.927 639.429 326.48C639.382 327.038 639.15 327.529 638.735 327.953C638.325 328.376 637.586 328.702 636.518 328.931C635.796 329.086 635.269 329.079 634.936 328.911C634.604 328.749 634.291 328.35 633.998 327.717C633.987 328.495 633.814 329.059 633.478 329.407C633.148 329.755 632.581 330.015 631.778 330.187L630.634 330.432C629.8 330.611 629.162 330.647 628.72 330.54C628.278 330.438 627.94 330.194 627.704 329.808C627.469 329.423 627.215 328.584 626.942 327.292L626.158 323.575L638.504 320.927ZM637.069 324.593L634.324 325.182C634.358 325.318 634.383 325.425 634.399 325.501C634.466 325.816 634.585 326.001 634.755 326.055C634.931 326.107 635.385 326.055 636.117 325.898C636.504 325.815 636.766 325.722 636.903 325.618C637.046 325.513 637.125 325.398 637.141 325.272C637.158 325.151 637.134 324.925 637.069 324.593ZM632.402 325.594L628.948 326.335C629.059 326.785 629.191 327.057 629.344 327.152C629.497 327.251 629.824 327.248 630.322 327.141L631.473 326.894C632.002 326.781 632.31 326.656 632.399 326.52C632.487 326.384 632.488 326.076 632.402 325.594Z" fill="white"/>
<path d="M640.044 328.675L641.017 334.069L638.529 334.526L638.139 332.367L635.782 332.8L636.146 334.821L633.781 335.256L633.416 333.235L630.682 333.738L631.111 336.112L628.623 336.57L627.611 330.96L640.044 328.675Z" fill="white"/>
<path d="M638.533 342.016L638.071 338.995L638.997 338.845C639.429 338.775 639.699 338.692 639.805 338.596C639.912 338.499 639.951 338.361 639.924 338.181C639.894 337.985 639.791 337.848 639.616 337.771C639.442 337.699 639.192 337.689 638.868 337.742C638.452 337.809 638.147 337.917 637.953 338.064C637.759 338.206 637.551 338.554 637.33 339.107C636.691 340.693 636.126 341.719 635.633 342.184C635.14 342.649 634.281 342.981 633.057 343.179C632.167 343.323 631.495 343.323 631.041 343.18C630.588 343.042 630.172 342.698 629.793 342.147C629.419 341.595 629.171 340.923 629.05 340.13C628.917 339.259 628.968 338.488 629.203 337.817C629.438 337.151 629.796 336.681 630.277 336.408C630.757 336.135 631.465 335.923 632.401 335.771L633.219 335.639L633.68 338.66L632.16 338.906C631.692 338.982 631.397 339.072 631.276 339.176C631.156 339.285 631.112 339.448 631.145 339.664C631.178 339.88 631.287 340.026 631.473 340.102C631.659 340.183 631.919 340.196 632.254 340.142C632.989 340.023 633.455 339.845 633.651 339.607C633.845 339.364 634.146 338.796 634.552 337.902C634.964 337.006 635.27 336.408 635.472 336.106C635.674 335.804 635.975 335.531 636.375 335.287C636.776 335.048 637.308 334.875 637.972 334.767C638.928 334.613 639.646 334.621 640.126 334.791C640.606 334.967 641.011 335.308 641.341 335.814C641.677 336.319 641.903 336.958 642.021 337.731C642.15 338.575 642.124 339.316 641.941 339.952C641.76 340.594 641.475 341.044 641.088 341.302C640.706 341.564 640.019 341.775 639.026 341.936L638.533 342.016Z" fill="white"/>
<path d="M642.727 345.145L630.22 346.789L629.769 343.54L642.276 341.896L642.727 345.145Z" fill="white"/>
<path d="M643.537 352.642L641.018 352.922L640.805 350.978L630.738 352.098L630.38 348.825L640.447 347.705L640.235 345.769L642.753 345.489L643.537 352.642Z" fill="white"/>
<path d="M644.293 360.053L636.024 358.301L631.444 358.667L631.194 355.62L635.773 355.254L643.655 352.295L643.904 355.318C641.479 355.99 639.841 356.388 638.992 356.514C640.356 356.588 642.04 356.76 644.044 357.029L644.293 360.053Z" fill="white"/>
<path d="M754.238 25.6089C750.696 23.4119 746.466 22.6053 742.364 23.3444C735.136 24.469 729.29 31.9008 728.106 39.1806C726.922 46.4604 727.225 68.6037 727.225 68.6037C727.225 68.6037 766.234 68.9228 768.299 68.9228C768.117 58.8618 767.92 40.8219 765.657 33.7093C762.499 23.8763 754.238 25.6089 754.238 25.6089Z" fill="#142033"/>
<path d="M771.412 75.0623L769.893 92.8287C769.893 92.8287 754.329 101.324 747.117 102.859C738.234 101.735 724.765 93.1326 724.765 93.1326C724.765 93.1326 722.594 79.7129 724.006 75.0623C726.238 73.7097 731.295 71.8404 735.82 69.3023C736.017 68.436 736.26 66.9315 736.472 65.4117C736.822 62.9496 737.11 60.4268 737.11 60.4268L758.156 60.1836C758.308 61.3386 758.459 63.6031 758.687 65.974C758.824 67.3266 758.991 68.7248 759.219 69.9558C760.418 70.4878 771.412 75.0623 771.412 75.0623Z" fill="#F6AA99"/>
<path d="M734.226 76.3998C734.332 76.9469 741.195 79.105 747.193 79.105C751.68 78.8293 756.089 77.8019 760.236 76.0654L734.226 76.3998Z" fill="#F3877C"/>
<path d="M746.631 102.145C746.889 92.327 746.95 92.3422 747.922 87.5093C748.819 92.3392 749.327 97.2335 749.441 102.145H746.631Z" fill="#EE6066"/>
<path d="M758.323 60.883C758.53 62.8436 758.121 64.82 757.152 66.5364C756.183 68.2528 754.703 69.6237 752.918 70.4577C751.493 71.1357 749.94 71.4986 748.362 71.5215C746.246 71.5088 744.163 70.9876 742.289 70.0017C740.594 69.1032 739.21 67.7117 738.321 66.0106C737.432 64.3095 737.079 62.3787 737.308 60.4727L758.354 60.2295C758.278 60.3815 758.293 60.6246 758.323 60.883Z" fill="#EE6066"/>
<path d="M759.568 50.2442C759.735 50.1074 762.028 45.3049 764.7 45.1833C767.373 45.0617 766.993 49.15 766.492 50.3202C765.991 51.4905 764.974 54.7428 762.028 55.6243C760.831 55.5298 759.714 54.9871 758.9 54.1045L759.568 50.2442Z" fill="#F6AA99"/>
<path d="M765.293 49.682C765.293 49.5148 766.295 47.0983 764.852 46.6424C763.41 46.1864 760.98 49.8187 759.826 51.0194C760.859 51.0194 762.241 50.6698 762.21 51.6425C762.18 52.6151 760.692 53.755 759.173 53.679C760.555 54.3477 761.087 54.7884 762.089 54.5301C763.091 54.2717 764.123 52.7063 764.123 52.7063C763.775 53.1289 763.324 53.4553 762.813 53.6548C762.303 53.8542 761.751 53.9201 761.208 53.8462C762.833 52.9951 764.063 51.0802 762.909 50.5786C762.57 50.4353 762.206 50.3614 761.838 50.3614C761.47 50.3614 761.106 50.4353 760.768 50.5786C760.768 50.5786 762.62 48.2533 763.805 47.9646C764.989 47.6758 765.293 49.682 765.293 49.682Z" fill="#F3877C"/>
<path d="M762.727 49.8952C762.727 49.8952 763.714 49.8952 763.927 50.4423C764.032 50.7737 764.062 51.1242 764.014 51.4686C763.967 51.813 763.844 52.1425 763.653 52.4332C765.187 51.0958 765.126 49.0745 762.727 49.8952Z" fill="#F3877C"/>
<path d="M735.076 50.2144C734.909 50.0928 732.616 45.2903 729.944 45.1687C727.271 45.0471 727.651 49.1353 728.152 50.2904C728.653 51.4454 729.67 54.7281 732.616 55.5944C733.815 55.5075 734.934 54.9635 735.744 54.0746L735.076 50.2144Z" fill="#F6AA99"/>
<path d="M729.366 49.6515C729.366 49.4995 728.364 47.083 729.807 46.7031C731.249 46.3231 733.663 49.8794 734.817 51.0649C733.785 51.0649 732.403 50.7153 732.433 51.688C732.464 52.6606 734.043 53.8005 735.47 53.7397C734.089 54.3932 733.557 54.8339 732.54 54.5908C731.522 54.3476 730.505 52.767 730.505 52.767C730.854 53.1891 731.305 53.5143 731.816 53.7112C732.326 53.9082 732.879 53.9703 733.42 53.8917C731.796 53.0406 730.566 51.1257 731.735 50.6241C732.071 50.4812 732.433 50.4075 732.798 50.4075C733.163 50.4075 733.525 50.4812 733.861 50.6241C733.861 50.6241 732.008 48.2988 730.824 48.0253C729.64 47.7517 729.366 49.6515 729.366 49.6515Z" fill="#F3877C"/>
<path d="M731.933 49.8646C731.933 49.8646 730.946 49.8646 730.718 50.4117C730.613 50.7456 730.583 51.0986 730.63 51.4455C730.677 51.7923 730.801 52.1244 730.991 52.4179C729.458 51.0804 729.518 49.0591 731.933 49.8646Z" fill="#F3877C"/>
<path d="M756.744 39.2714C758.19 40.212 759.361 41.5185 760.14 43.0586C760.919 44.5986 761.277 46.3174 761.177 48.0406C761.071 49.7427 760.98 51.5969 760.98 52.4632C761.235 54.8083 760.965 57.1808 760.19 59.4086C758.793 62.9801 753.479 66.43 747.587 66.506C745.332 66.6469 743.076 66.2331 741.016 65.3006C738.957 64.3681 737.157 62.9453 735.774 61.1564C734.238 58.9395 733.568 56.2357 733.891 53.5574C734.043 51.1713 733.132 45.3506 733.618 43.8004C734.772 40.1529 738.173 39.3778 742.394 38.7395C746.616 38.1012 751.308 36.5662 752.219 35.168C752.826 36.8397 754.785 38.01 756.744 39.2714Z" fill="#F6AA99"/>
<path d="M749.638 46.3996C751.198 45.7636 752.808 45.2554 754.451 44.8798C756.14 44.6249 757.845 44.4878 759.553 44.4695C758.187 43.7834 756.692 43.3949 755.165 43.3296C753.498 43.3143 751.846 43.6347 750.306 44.2719C750.002 44.953 749.778 45.667 749.638 46.3996Z" fill="#321E41"/>
<path d="M750.549 51.3843C750.893 51.4173 751.234 51.4835 751.566 51.5819C752.835 52.0125 754.203 52.06 755.499 51.7187C756.265 51.4446 756.966 51.014 757.557 50.454C758.148 49.8941 758.616 49.2171 758.931 48.4663C755.119 49.287 751.156 50.5028 750.549 51.3843Z" fill="#F3877C"/>
<path d="M758.931 48.4662C757.898 49.7779 756.463 50.7126 754.846 51.1259C753.785 51.292 752.704 51.292 751.642 51.1259C751.298 51.0933 750.951 51.1565 750.64 51.3082H750.549C750.626 50.2636 751.086 49.2841 751.839 48.5574C752.269 48.1511 752.79 47.854 753.358 47.6911C754.47 47.4181 755.632 47.4181 756.744 47.6911C757.502 47.8593 758.236 48.1196 758.931 48.4662Z" fill="white"/>
<path d="M755.013 50.6397C754.673 50.7203 754.32 50.7322 753.976 50.6746C753.631 50.617 753.301 50.491 753.005 50.3042C752.71 50.1174 752.455 49.8734 752.254 49.5865C752.054 49.2996 751.913 48.9757 751.84 48.6336C752.269 48.2273 752.79 47.9302 753.358 47.7673C754.47 47.4942 755.632 47.4942 756.744 47.7673C756.865 48.3758 756.754 49.0074 756.434 49.5386C756.114 50.0698 755.607 50.4624 755.013 50.6397Z" fill="#321E41"/>
<path d="M755.377 49.4385C755.377 48.9522 757.61 49.013 757.534 49.4385C757.458 49.8641 755.393 49.9249 755.377 49.4385Z" fill="white"/>
<path d="M751.642 51.1715C751.298 51.1389 750.951 51.202 750.64 51.3538H750.549C750.574 50.9965 750.645 50.6439 750.761 50.3052C750.977 50.6638 751.28 50.9618 751.642 51.1715Z" fill="#EE6066"/>
<path d="M753.889 47.2351C752.948 47.4503 752.106 47.9767 751.5 48.7295C750.894 49.4822 750.559 50.4174 750.549 51.3841C750.76 50.5463 751.205 49.7857 751.831 49.191C752.457 48.5964 753.24 48.1921 754.087 48.0254C755.706 47.6367 757.408 47.7915 758.931 48.4661L760.054 47.4935C758.046 46.9381 755.937 46.8497 753.889 47.2351Z" fill="#321E41"/>
<path d="M750.64 48.5571C751.33 47.7642 752.247 47.2021 753.267 46.9461C754.643 46.6153 756.064 46.5177 757.473 46.6573C756.333 46.1963 755.096 46.024 753.874 46.1558C753.165 46.2156 752.487 46.472 751.916 46.8961C751.344 47.3203 750.902 47.8955 750.64 48.5571Z" fill="#F3877C"/>
<path d="M744.733 46.3996C743.172 45.7636 741.562 45.2554 739.919 44.8798C738.23 44.6249 736.525 44.4878 734.817 44.4695C736.183 43.7834 737.679 43.3949 739.206 43.3296C740.872 43.3143 742.525 43.6347 744.065 44.2719C744.368 44.953 744.593 45.667 744.733 46.3996Z" fill="#321E41"/>
<path d="M744.278 51.7486C743.933 51.7816 743.592 51.8477 743.26 51.9461C741.986 52.3762 740.614 52.4238 739.312 52.0829C738.548 51.8096 737.849 51.379 737.26 50.8188C736.672 50.2587 736.207 49.5814 735.896 48.8306C739.631 49.6361 743.594 50.8671 744.278 51.7486Z" fill="#F3877C"/>
<path d="M735.82 48.8153C736.851 50.1326 738.286 51.0728 739.905 51.4901C740.966 51.6562 742.047 51.6562 743.109 51.4901C743.453 51.4592 743.8 51.5222 744.111 51.6725H744.202C744.176 51.314 744.099 50.9609 743.974 50.6238C743.774 49.9735 743.408 49.3867 742.911 48.9217C742.482 48.5154 741.961 48.2183 741.393 48.0554C740.281 47.7823 739.119 47.7823 738.007 48.0554C737.251 48.2233 736.517 48.4783 735.82 48.8153Z" fill="white"/>
<path d="M739.722 50.9586C740.062 51.0392 740.415 51.051 740.76 50.9934C741.104 50.9358 741.434 50.8099 741.73 50.6231C742.025 50.4362 742.281 50.1922 742.481 49.9053C742.681 49.6185 742.822 49.2945 742.895 48.9524C742.466 48.5461 741.945 48.249 741.377 48.0862C740.265 47.8131 739.103 47.8131 737.991 48.0862C737.867 48.695 737.976 49.3282 738.297 49.8602C738.617 50.3923 739.126 50.7843 739.722 50.9586Z" fill="#321E41"/>
<path d="M743.109 51.5362C743.453 51.5052 743.8 51.5683 744.111 51.7186H744.202C744.176 51.36 744.099 51.007 743.974 50.6699C743.765 51.0283 743.467 51.3266 743.109 51.5362Z" fill="#EE6066"/>
<path d="M740.861 47.5998C741.8 47.8199 742.639 48.3477 743.244 49.0994C743.849 49.8511 744.187 50.7836 744.202 51.7489C743.993 50.9082 743.55 50.1444 742.923 49.5469C742.296 48.9494 741.513 48.5429 740.664 48.3749C739.042 47.9978 737.343 48.1577 735.82 48.8309L734.696 47.8582C736.705 47.3028 738.813 47.2144 740.861 47.5998Z" fill="#321E41"/>
<path d="M744.096 48.9218C743.417 48.1215 742.503 47.5574 741.484 47.3108C740.108 46.98 738.686 46.8824 737.278 47.0221C738.418 46.561 739.654 46.3887 740.877 46.5205C741.584 46.5796 742.26 46.8359 742.829 47.2604C743.398 47.6848 743.837 48.2604 744.096 48.9218Z" fill="#F3877C"/>
<path d="M741.028 50.1076C741.028 49.6213 743.26 49.6669 743.2 50.1076C743.139 50.5484 741.059 50.594 741.028 50.1076Z" fill="white"/>
<path d="M745.144 53.9981C745.144 53.9981 746.814 55.6242 747.436 55.6242C748.36 55.1722 749.21 54.583 749.957 53.8765L747.436 54.8187L745.144 53.9981Z" fill="#EE6066"/>
<path d="M742.759 57.8581C743.252 58.5926 743.939 59.176 744.743 59.5435C745.547 59.9111 746.437 60.0484 747.315 59.9402C748.289 59.8696 749.233 59.5716 750.071 59.0702C750.91 58.5688 751.619 57.8778 752.143 57.0526C748.992 56.8111 745.823 57.0831 742.759 57.8581Z" fill="#321E41"/>
<path d="M745.371 62.767C745.661 62.4539 746.01 62.2013 746.399 62.024C746.787 61.8466 747.207 61.7479 747.633 61.7336C748.064 61.6472 748.51 61.6841 748.921 61.84C749.332 61.9959 749.691 62.2645 749.956 62.6151C748.45 62.9455 746.896 62.997 745.371 62.767Z" fill="#F3877C"/>
<path d="M774.813 77.1289C774.813 77.1289 785.139 82.5394 789.36 89.4848C793.581 96.4302 808.644 120.625 811.863 140.611C813.215 163.635 804.59 191.903 804.59 191.903C804.59 191.903 806.792 204.259 803.74 209.852C800.688 215.445 789.36 221.023 789.36 221.023L774.813 77.1289Z" fill="#F6AA99"/>
<path d="M718.236 78.208C718.236 78.208 707.926 83.6185 703.689 90.5639C699.453 97.5093 684.405 121.704 681.201 141.69C679.85 164.714 688.475 192.982 688.475 192.982C688.475 192.982 686.273 205.338 689.325 210.931C692.377 216.524 703.689 222.102 703.689 222.102L718.236 78.208Z" fill="#F6AA99"/>
<path d="M739.372 351.634C739.175 349.825 738.841 347.971 738.537 346.269C738.537 346.117 738.537 345.965 738.537 345.813V257.863C739.16 242.543 744.095 201.722 744.095 201.722C743.093 186.524 723.854 164.365 699.164 167.815C695.975 188.545 698.663 216.053 703.568 236.206C705.109 242.401 704.972 248.896 703.173 255.021C692.544 290.721 710.37 304.201 714.379 339.992C714.322 342.739 713.569 345.427 712.192 347.804C711.371 349.18 710.347 350.425 709.155 351.497C706.817 353.579 704.798 354.445 699.635 357.576C694.472 360.707 688.55 363.367 688.565 365.707C688.565 365.707 688.672 366.771 690.084 366.771H718.464C722.776 366.771 723.915 363.731 727.134 362.12C730.353 360.509 735.485 362.865 738.583 359.552C739.706 358.351 739.813 355.676 739.539 352.682C739.448 352.242 739.418 351.877 739.372 351.634Z" fill="#F6AA99"/>
<path d="M738.523 359.476C735.486 362.789 730.171 360.494 727.074 362.045C723.976 363.595 722.716 366.695 718.403 366.695C718.403 366.695 721.121 367.106 724.128 363.336C730.976 354.765 735.759 356.649 739.312 351.68C739.312 351.984 739.388 352.288 739.418 352.607C739.722 355.555 739.722 358.23 738.523 359.476Z" fill="#F3877C"/>
<path d="M721.942 354.917C721.056 356.729 719.78 358.322 718.206 359.583C715.534 361.619 712.846 362.941 711.586 364.142C710.933 364.839 710.564 365.755 710.553 366.711H708.321C708.412 365.741 708.769 364.815 709.354 364.036C710.614 362.516 712.937 361.589 715.838 359.765C718.024 358.35 720.068 356.727 721.942 354.917Z" fill="#EE6066"/>
<path d="M714.183 364.127C715.16 364.08 716.14 364.157 717.098 364.355C717.643 364.469 718.211 364.394 718.708 364.142C719.014 364.026 719.29 363.843 719.516 363.606C719.742 363.37 719.912 363.085 720.014 362.774C720.014 361.254 717.296 360.905 713.94 363.58C713.881 363.619 713.837 363.679 713.818 363.748C713.798 363.816 713.803 363.89 713.832 363.955C713.861 364.02 713.912 364.073 713.976 364.105C714.04 364.136 714.113 364.144 714.183 364.127Z" fill="#FFC5BB"/>
<path d="M711.707 359.795C709.354 361.938 705.77 363.838 704.662 364.901C704.098 365.325 703.722 365.952 703.614 366.649H702.278C702.353 366.113 702.54 365.599 702.828 365.14C703.116 364.682 703.498 364.289 703.948 363.99C705.679 362.895 708.519 361.497 711.707 359.795Z" fill="#EE6066"/>
<path d="M705.906 359.795C703.568 361.938 699.984 363.838 698.861 364.901C698.303 365.33 697.928 365.955 697.813 366.649H696.477C696.555 366.112 696.746 365.598 697.036 365.14C697.326 364.681 697.71 364.289 698.162 363.99C699.878 362.895 702.717 361.497 705.906 359.795Z" fill="#EE6066"/>
<path d="M700.896 359.795C698.543 361.938 694.959 363.838 693.836 364.901C693.284 365.335 692.911 365.957 692.788 366.649H691.467C691.542 366.113 691.729 365.599 692.017 365.14C692.305 364.682 692.687 364.289 693.137 363.99C694.853 362.895 697.708 361.497 700.896 359.795Z" fill="#EE6066"/>
<path d="M705.451 365.297C706.269 365.092 707.124 365.092 707.941 365.297C707.941 365.297 709.02 364.142 708.807 363.777C708.594 363.412 706.711 363.321 705.451 365.297Z" fill="#FFC5BB"/>
<path d="M699.438 365.297C700.256 365.092 701.111 365.092 701.929 365.297C701.929 365.297 702.992 364.142 702.779 363.777C702.566 363.412 700.699 363.321 699.438 365.297Z" fill="#FFC5BB"/>
<path d="M694.245 365.297C694.953 365.124 695.693 365.124 696.401 365.297C696.401 365.297 697.328 364.294 697.145 363.974C696.963 363.655 695.338 363.579 694.245 365.297Z" fill="#FFC5BB"/>
<path d="M689.326 365.327C690.039 365.156 690.783 365.156 691.497 365.327C691.497 365.327 692.423 364.339 692.241 364.005C692.059 363.67 690.434 363.625 689.326 365.327Z" fill="#FFC5BB"/>
<path d="M699.575 219.23C697.028 203.592 696.477 187.695 697.935 171.918L699.18 172.07C697.733 187.735 698.279 203.52 700.805 219.047L699.575 219.23Z" fill="#F3877C"/>
<path d="M713.028 248.091C711.403 250.112 714.698 263.79 719.193 262.726C724.31 261.89 728.227 250.781 726.269 248.258C724.538 246.085 715.579 244.884 713.028 248.091Z" fill="#F3877C"/>
<path d="M752.583 351.634C752.796 349.825 753.115 347.971 753.419 346.269C753.419 346.117 753.419 345.965 753.495 345.813V257.863C752.872 242.543 747.937 201.722 747.937 201.722C748.939 186.524 768.178 164.365 792.852 167.815C796.041 188.545 793.354 216.053 788.449 236.206C786.915 242.402 787.051 248.895 788.844 255.021C799.473 290.721 781.662 304.201 777.653 339.992C777.703 342.74 778.455 345.43 779.839 347.804C780.656 349.184 781.68 350.429 782.876 351.497C785.2 353.579 787.219 354.445 792.382 357.576C797.544 360.707 803.497 363.245 803.497 365.555C803.497 365.555 803.406 366.619 801.978 366.619H773.553C769.241 366.619 768.102 363.579 764.898 361.968C761.694 360.357 756.531 362.713 753.449 359.4C752.31 358.199 752.204 355.524 752.477 352.53C752.508 352.242 752.553 351.877 752.583 351.634Z" fill="#F6AA99"/>
<path d="M753.388 359.476C756.425 362.789 761.74 360.494 764.837 362.045C767.935 363.595 769.18 366.695 773.492 366.695C773.492 366.695 770.774 367.106 767.768 363.336C760.92 354.765 756.137 356.649 752.583 351.68C752.583 351.984 752.508 352.288 752.477 352.607C752.204 355.555 752.31 358.23 753.388 359.476Z" fill="#F3877C"/>
<path d="M770.091 354.917C770.99 356.721 772.263 358.312 773.827 359.583C776.499 361.619 779.187 362.941 780.447 364.142C781.103 364.838 781.477 365.754 781.495 366.711H783.727C783.586 365.776 783.21 364.892 782.634 364.142C781.373 362.622 779.05 361.695 776.135 359.872C773.965 358.42 771.941 356.76 770.091 354.917Z" fill="#EE6066"/>
<path d="M777.775 364.127C776.797 364.081 775.818 364.157 774.859 364.355C774.314 364.468 773.747 364.393 773.25 364.142C772.688 363.853 772.05 363.397 771.959 362.774C771.959 361.254 774.677 360.905 778.033 363.58C778.098 363.618 778.146 363.68 778.168 363.752C778.19 363.824 778.184 363.902 778.152 363.97C778.12 364.039 778.063 364.092 777.993 364.121C777.924 364.15 777.846 364.152 777.775 364.127Z" fill="#FFC5BB"/>
<path d="M780.249 359.795C782.603 361.938 786.186 363.838 787.31 364.901C787.862 365.335 788.235 365.957 788.358 366.649H789.679C789.604 366.113 789.416 365.599 789.128 365.14C788.84 364.682 788.459 364.289 788.008 363.99C786.292 362.895 783.438 361.497 780.249 359.795Z" fill="#EE6066"/>
<path d="M786.05 359.795C788.404 361.938 791.987 363.838 793.096 364.901C793.659 365.325 794.035 365.952 794.144 366.649H795.48C795.402 366.114 795.214 365.6 794.926 365.142C794.638 364.684 794.258 364.292 793.809 363.99C792.078 362.895 789.239 361.497 786.05 359.795Z" fill="#EE6066"/>
<path d="M791.076 359.795C793.415 361.938 796.998 363.838 798.122 364.901C798.679 365.33 799.054 365.955 799.169 366.649H800.46C800.382 366.112 800.191 365.598 799.901 365.14C799.61 364.681 799.227 364.289 798.775 363.99C797.104 362.895 794.265 361.497 791.076 359.795Z" fill="#EE6066"/>
<path d="M786.505 365.297C785.688 365.092 784.833 365.092 784.015 365.297C784.015 365.297 782.952 364.142 783.165 363.777C783.377 363.412 785.275 363.321 786.505 365.297Z" fill="#FFC5BB"/>
<path d="M792.534 365.297C791.711 365.092 790.851 365.092 790.028 365.297C790.028 365.297 788.965 364.142 789.178 363.777C789.391 363.412 791.258 363.321 792.534 365.297Z" fill="#FFC5BB"/>
<path d="M797.712 365.297C797.003 365.124 796.264 365.124 795.555 365.297C795.555 365.297 794.629 364.294 794.811 363.974C794.994 363.655 796.618 363.579 797.712 365.297Z" fill="#FFC5BB"/>
<path d="M802.631 365.327C801.923 365.154 801.184 365.154 800.475 365.327C800.475 365.327 799.549 364.339 799.731 364.005C799.913 363.67 801.538 363.625 802.631 365.327Z" fill="#FFC5BB"/>
<path d="M792.397 219.23C794.939 203.592 795.485 187.694 794.022 171.918L792.792 172.07C794.226 187.736 793.675 203.52 791.152 219.047L792.397 219.23Z" fill="#F3877C"/>
<path d="M778.943 248.091C780.553 250.112 777.258 263.79 772.763 262.726C767.646 261.89 763.652 250.781 765.687 248.258C767.372 246.085 776.377 244.884 778.943 248.091Z" fill="#F3877C"/>
<path d="M791.957 219.23L790.711 219.047C793.234 203.52 793.785 187.736 792.351 172.07L793.596 171.918C795.046 187.695 794.495 203.592 791.957 219.23Z" fill="#F3877C"/>
<path d="M791.608 155.003C773.66 162.845 758.43 168.241 749.805 171.098L746.009 172.344L742.213 171.098C733.588 168.241 718.358 162.845 700.41 155.003C701.121 145.316 703.165 135.772 706.484 126.644C708.002 122.449 709.096 119.851 709.096 119.851L742.243 114.303L746.039 113.665L749.835 114.303L782.968 119.851C782.968 119.851 784.031 122.449 785.412 126.644C788.513 135.84 790.591 145.351 791.608 155.003Z" fill="#F6AA99"/>
<path d="M747.162 137.678C747.162 137.678 744.763 142.663 746.904 146.675C749.804 143.362 747.162 137.678 747.162 137.678Z" fill="#EE6066"/>
<path d="M785.382 126.644H706.423C707.942 122.449 709.035 119.851 709.035 119.851L742.183 114.303L745.979 113.665L749.775 114.303L782.907 119.851C782.907 119.851 784 122.389 785.382 126.644Z" fill="#F3877C"/>
<path d="M701.762 155.034H700.501C701.207 145.286 703.25 135.681 706.575 126.492C708.094 122.328 709.202 119.683 709.202 119.653L710.356 120.17C710.356 120.17 709.187 122.799 707.744 126.917C704.463 135.968 702.45 145.43 701.762 155.034Z" fill="#F3877C"/>
<path d="M790.286 155.034C789.592 145.41 787.573 135.928 784.288 126.857C782.77 122.723 781.692 120.124 781.677 120.109L782.831 119.592C782.831 119.592 784 122.267 785.458 126.431C788.783 135.621 790.826 145.225 791.531 154.973L790.286 155.034Z" fill="#F3877C"/>
<path d="M699.924 154.304C698.317 160.464 697.481 166.799 697.434 173.165C710.675 176.387 738.933 192.36 744.035 201.707H747.937C747.937 201.707 766.007 178.803 794.174 174.214C793.08 158.484 791.835 154.137 791.835 154.137L699.924 154.304Z" fill="#213555"/>
<path d="M709.065 119.85C709.065 119.85 703.113 102.783 715.837 91.5672C726.895 90.967 737.918 93.2668 747.816 98.239C759.432 92.1599 771.427 90.0474 779.308 91.5672C782.046 95.6644 783.798 100.341 784.428 105.229C785.057 110.118 784.547 115.086 782.937 119.744C757.215 119.744 709.065 119.85 709.065 119.85Z" fill="#213555"/>
<path d="M715.837 91.5674L716.779 77.9501L725.237 73.7251L727.135 94.4246L715.837 91.5674Z" fill="#213555"/>
<path d="M779.308 91.5674L778.351 77.9501L769.894 73.7251L767.996 94.4246L779.308 91.5674Z" fill="#213555"/>
<path d="M85.4271 351.011C87.5833 322.56 85.2752 281.967 84.5312 250.051C78.5941 227.558 76.3013 180.414 76.3013 180.414C77.1668 173.119 85.0323 152.01 109.312 154.152L109.418 154.411C113.397 163.53 114.794 175.688 114.733 188.712C114.657 205.977 112.015 224.792 109.479 240.294C113.609 253.03 117.739 265.766 115.431 282.955C113.123 300.143 101.082 320.873 101.416 339.065C101.476 340.968 101.793 342.855 102.358 344.673C103.337 347.961 105.259 350.888 107.885 353.093C113.063 357.394 121.399 362.394 123.069 363.929C123.523 364.249 123.907 364.658 124.199 365.131C124.492 365.604 124.686 366.13 124.77 366.68H99.8978C93.3381 366.68 95.1755 365.51 92.4119 363.139C90.8935 361.908 88.1147 362.941 85.8067 362.272C84.0453 361.74 84.1668 359.157 84.7742 355.114C84.9716 353.853 85.2752 352.5 85.4271 351.011Z" fill="#F6AA99"/>
<path d="M105.866 365.448H108.766C109.039 365.448 108.644 364.552 107.627 364.445C106.26 364.309 105.577 365.236 105.866 365.448Z" fill="#FFC5BB"/>
<path d="M111.514 365.448H114.414C114.703 365.448 114.293 364.552 113.291 364.445C111.924 364.309 111.241 365.236 111.514 365.448Z" fill="#FFC5BB"/>
<path d="M116.555 365.449H119.455C119.744 365.449 119.334 364.704 118.332 364.628C116.965 364.506 116.267 365.266 116.555 365.449Z" fill="#FFC5BB"/>
<path d="M121.262 365.449H123.904C124.162 365.449 123.798 364.704 122.887 364.628C121.627 364.506 121.004 365.266 121.262 365.449Z" fill="#FFC5BB"/>
<path d="M85.8069 362.242C88.115 362.911 90.8785 361.984 92.4121 363.109C89.2386 359.735 89.0868 355.768 84.8199 355.084C84.167 359.127 84.0455 361.71 85.8069 362.242Z" fill="#F3877C"/>
<path d="M98.7588 357.668C98.4774 357.631 98.1916 357.685 97.9428 357.821C97.694 357.958 97.4952 358.17 97.3751 358.428C97.255 358.685 97.2199 358.974 97.2748 359.253C97.3297 359.531 97.4719 359.785 97.6807 359.978L97.8174 360.084C99.6723 361.401 101.419 362.865 103.041 364.461C103.532 365.089 103.818 365.853 103.861 366.649H105.744C105.684 365.992 105.466 365.358 105.109 364.802C104.752 364.247 104.267 363.785 103.694 363.458C102.251 362.379 98.4855 359.962 98.0148 358.899C97.7111 358.199 98.7588 357.728 98.7588 357.728V357.668Z" fill="#EE6066"/>
<path d="M101.371 364.81H96.4664C96.3526 364.62 96.2919 364.402 96.2905 364.179C96.2892 363.957 96.3473 363.738 96.4589 363.546C96.5704 363.354 96.7313 363.195 96.9248 363.086C97.1184 362.977 97.3376 362.922 97.5597 362.926C98.3151 362.733 99.1147 362.817 99.8138 363.162C100.513 363.508 101.065 364.093 101.371 364.81Z" fill="#FFC5BB"/>
<path d="M101.857 358.868C101.857 358.868 101.857 360.297 105.152 362.288C107.643 363.807 109.89 365.327 110.224 366.649H112.274C111.375 365.357 110.223 364.261 108.888 363.428C106.276 361.68 102.814 360.54 101.857 358.868Z" fill="#EE6066"/>
<path d="M109.009 360.616C109.783 361.33 113.078 363.655 114.323 364.643C114.977 365.156 115.459 365.856 115.705 366.649H116.996C116.419 364.187 112.607 362.515 109.009 360.616Z" fill="#EE6066"/>
<path d="M113.731 360.616C114.491 361.33 117.801 363.655 119.046 364.643C119.694 365.161 120.175 365.859 120.428 366.649H121.718C121.141 364.187 117.285 362.515 113.731 360.616Z" fill="#EE6066"/>
<path d="M93.2172 179.685C93.8398 183.803 99.7009 189.837 107.005 190.475C109.713 190.738 112.433 190.091 114.733 188.636C114.733 175.642 113.397 163.514 109.419 154.334C105.638 154.866 101.204 156.052 98.9114 158.59C94.6445 163.423 92.5795 175.581 93.2172 179.685Z" fill="#F3877C"/>
<path d="M103.695 241.267C105.319 243.288 102.024 256.966 97.5297 255.918C92.4126 255.067 88.495 243.957 90.4538 241.434C92.1392 239.261 101.144 238.075 103.695 241.267Z" fill="#F3877C"/>
<path d="M80.8725 4.30149C80.5688 4.30149 77.1675 -1.89926 67.3432 0.593197C60.4192 2.34096 55.6816 7.66022 53.6773 17.0525C52.4322 22.8581 52.7207 35.8675 51.8096 39.3326C50.8985 42.7977 48.6361 44.0288 47.725 46.9316C46.8139 49.8344 49.3497 51.1262 47.4213 53.1627C45.4929 55.1992 42.7293 55.9287 42.5168 60.4121C42.4255 61.6482 42.7197 62.8822 43.3589 63.9439C43.998 65.0055 44.9505 65.8425 46.0851 66.3393H102.267C102.267 66.3393 104.712 60.2601 103.497 57.4485C102.282 54.6369 99.7163 55.5184 99.5189 52.8891C99.3215 50.2599 100.43 49.2113 99.3063 46.81C98.1827 44.4087 95.905 45.1534 95.2521 42.6002C94.5992 40.0469 95.5254 22.0222 93.8248 14.2105C92.3063 7.15869 86.2022 3.08566 80.8725 4.30149Z" fill="#142033"/>
<path d="M106.822 136.872C106.822 136.872 96.1926 143.149 76.1492 144.213C63.5616 144.684 51.0305 142.299 39.4941 137.237L40.7393 117.981L41.4985 106.264L104.65 105.185L105.516 117.981L106.822 136.872Z" fill="#F6AA99"/>
<path d="M105.516 117.981H40.7393L41.4985 106.248L104.65 105.185L105.516 117.981Z" fill="#F3877C"/>
<path d="M73.6139 122.009C73.6139 122.009 71.1996 126.994 73.3406 131.006C76.256 127.678 73.6139 122.009 73.6139 122.009Z" fill="#EE6066"/>
<path d="M62.1806 351.011C60.0244 322.56 62.3477 282.027 63.0765 249.975C69.0136 227.482 71.3064 180.338 71.3064 180.338C70.4409 173.043 62.5754 151.933 38.2956 154.076L38.2045 154.304C34.211 163.423 32.8292 175.581 32.8899 188.606C32.8899 205.871 35.608 224.686 38.1437 240.188C34.0136 252.923 29.8834 265.659 32.1915 282.848C34.4995 300.037 46.5407 320.767 46.2067 338.959C46.1466 340.862 45.8299 342.748 45.2652 344.567C44.2872 347.867 42.3595 350.806 39.7229 353.017C34.545 357.318 26.2088 362.318 24.5385 363.853C24.0849 364.173 23.7004 364.582 23.4082 365.055C23.116 365.527 22.922 366.054 22.8379 366.604H47.7099C54.2696 366.604 52.4322 365.433 55.1958 363.062C56.7142 361.831 59.493 362.865 61.801 362.196C63.5624 361.664 63.4409 359.081 62.8336 355.038C62.6362 353.853 62.2869 352.5 62.1806 351.011Z" fill="#F6AA99"/>
<path d="M41.7418 365.448H38.8416C38.5683 365.448 38.9631 364.552 39.9804 364.445C41.347 364.309 42.0303 365.236 41.7418 365.448Z" fill="#FFC5BB"/>
<path d="M36.0931 365.448H33.1929C32.9044 365.448 33.3143 364.552 34.3165 364.445C35.6831 364.309 36.3664 365.236 36.0931 365.448Z" fill="#FFC5BB"/>
<path d="M31.0521 365.449H28.1519C27.8634 365.449 28.2733 364.704 29.2755 364.628C30.6117 364.506 31.3254 365.266 31.0521 365.449Z" fill="#FFC5BB"/>
<path d="M26.3446 365.449H23.7025C23.4444 365.449 23.8088 364.704 24.7199 364.628C26.0561 364.506 26.6028 365.266 26.3446 365.449Z" fill="#FFC5BB"/>
<path d="M61.8005 362.242C59.4925 362.911 56.7289 361.984 55.1953 363.109C58.3688 359.735 58.5207 355.768 62.7875 355.084C63.4404 359.127 63.5619 361.71 61.8005 362.242Z" fill="#F3877C"/>
<path d="M48.8329 357.668C49.1143 357.631 49.4001 357.685 49.6489 357.821C49.8977 357.958 50.0965 358.17 50.2166 358.428C50.3367 358.685 50.3718 358.974 50.3169 359.253C50.2619 359.531 50.1198 359.785 49.911 359.978L49.7743 360.084C47.9194 361.401 46.1727 362.865 44.5509 364.461C44.0528 365.085 43.7657 365.851 43.731 366.649H41.8633C41.9231 365.992 42.1407 365.358 42.4976 364.802C42.8544 364.247 43.3401 363.785 43.9132 363.458C45.4316 362.379 49.1214 359.962 49.5921 358.899C49.8958 358.199 48.8481 357.728 48.8481 357.728L48.8329 357.668Z" fill="#EE6066"/>
<path d="M46.2368 364.81H51.1414C51.2552 364.619 51.3159 364.401 51.3172 364.179C51.3185 363.957 51.2604 363.738 51.1489 363.546C51.0373 363.354 50.8765 363.195 50.6829 363.086C50.4893 362.977 50.2702 362.921 50.0481 362.926C48.226 362.652 46.4646 363.564 46.2368 364.81Z" fill="#FFC5BB"/>
<path d="M45.7955 358.868C45.7955 358.868 45.7955 360.297 42.5005 362.288C40.0103 363.807 37.763 365.327 37.4289 366.649H35.3335C36.2294 365.36 37.3759 364.264 38.7044 363.428C41.3313 361.68 44.7934 360.54 45.7955 358.868Z" fill="#EE6066"/>
<path d="M38.5983 360.616C37.8239 361.33 34.5289 363.655 33.2686 364.643C32.6177 365.155 32.1405 365.856 31.902 366.649H30.6113C31.1883 364.187 35.0452 362.515 38.5983 360.616Z" fill="#EE6066"/>
<path d="M33.8771 360.616C33.1179 361.33 29.8077 363.655 28.5625 364.643C27.9144 365.161 27.4337 365.859 27.1808 366.649H25.9053C26.4671 364.187 30.3239 362.515 33.8771 360.616Z" fill="#EE6066"/>
<path d="M54.3903 179.685C53.7677 183.803 47.8914 189.837 40.6029 190.46C37.8952 190.736 35.1734 190.093 32.874 188.636C32.874 175.642 34.1951 163.514 38.1886 154.334C41.9695 154.866 46.4033 156.052 48.6961 158.59C52.963 163.423 55.028 175.581 54.3903 179.685Z" fill="#F3877C"/>
<path d="M43.9136 241.267C42.2889 243.288 45.5839 256.966 50.0785 255.918C55.1956 255.067 59.1891 243.957 57.1544 241.434C55.469 239.261 46.4646 238.075 43.9136 241.267Z" fill="#F3877C"/>
<path d="M38.6894 135.61L107.854 135.93L111.817 158.726C111.817 158.726 87.7957 164.198 76.3011 180.414H71.3054C71.3054 180.414 56.7892 161.036 36.3813 160.261C37.4291 141.279 38.6894 135.61 38.6894 135.61Z" fill="#213555"/>
<path d="M95.3426 56.688C95.3426 56.688 108.173 60.5483 113.822 68.1168C119.471 75.6854 142.809 101.37 145.375 119.987C144.737 130.261 126.653 157.085 116.768 169.411C107.278 162.101 106.64 161.705 106.64 161.705L121.126 119.729C109.327 100.215 104.226 92.2815 104.226 92.2815C104.226 92.2815 95.6008 88.406 93.6875 81.6429C91.7743 74.8799 92.8676 57.2047 95.3426 56.688Z" fill="#F6AA99"/>
<path d="M109.222 159.609C105.721 160.291 102.294 161.309 98.9876 162.648C97.0896 163.773 95.3282 170.658 94.5993 171.661C93.8705 172.664 92.0635 173.986 92.2457 174.807C92.428 175.627 94.3867 175.643 96.0115 174.533C97.6362 173.424 110.847 164.563 109.222 159.609Z" fill="#EE6066"/>
<path d="M92.8674 180.916C93.3988 181.63 93.824 182.086 95.1906 180.521C96.0409 179.548 97.9542 175.961 99.6093 173.271C100.226 172.281 101.125 171.497 102.191 171.022C102.269 170.983 102.358 170.971 102.444 170.989C102.529 171.006 102.607 171.051 102.664 171.117C102.722 171.183 102.755 171.266 102.76 171.354C102.765 171.441 102.741 171.528 102.692 171.6C100.444 175.414 96.9368 182.056 97.0886 182.512C97.3468 183.226 98.5008 183.348 99.4574 182.421C100.034 181.873 103.056 177.861 105.03 175.186C105.11 175.077 105.223 174.997 105.352 174.958C105.481 174.919 105.619 174.923 105.746 174.969C105.873 175.015 105.981 175.101 106.055 175.215C106.128 175.328 106.163 175.462 106.154 175.597C106.167 175.713 106.167 175.83 106.154 175.946C105.85 177.208 101.021 185.597 101.735 186.25C103.937 188.287 107.186 181.889 108.598 179.579C109.107 178.408 109.876 177.368 110.846 176.539C110.912 176.481 110.996 176.45 111.084 176.449C111.172 176.449 111.256 176.48 111.323 176.538C111.389 176.595 111.433 176.674 111.446 176.761C111.458 176.848 111.439 176.936 111.392 177.01C109.692 180.414 105.987 186.22 106.609 186.737C107.794 187.694 109.646 185.749 112.091 182.269C114.452 178.832 116.389 175.122 117.861 171.22C118.523 169.474 118.561 167.554 117.968 165.783C117.376 164.013 116.19 162.503 114.611 161.508C112.969 160.492 111.133 159.83 109.221 159.563C103.815 159.852 98.5919 166.812 97.9542 168.089C96.3598 171.205 92.4574 179.746 92.8674 180.916Z" fill="#F6AA99"/>
<path d="M50.0325 56.0498C50.0325 56.0498 37.2017 59.9101 31.5531 67.4786C25.9046 75.0472 2.56616 100.732 0 119.349C0.637744 129.623 18.7223 156.447 28.6074 168.773C38.0976 161.462 38.7354 161.067 38.7354 161.067L24.2495 119.091C36.0477 99.5766 41.1497 91.6433 41.1497 91.6433C41.1497 91.6433 49.7744 87.7678 51.6876 81.0047C53.6009 74.2417 52.462 56.5665 50.0325 56.0498Z" fill="#F6AA99"/>
<path d="M36.1538 159.547C39.6548 160.229 43.082 161.247 46.388 162.587C50.2904 164.897 48.028 167.891 50.7763 171.599C51.5204 172.587 53.3121 173.925 53.1299 174.745C52.9477 175.566 50.9889 175.581 49.3642 174.472C47.7394 173.362 34.529 164.487 36.1538 159.547Z" fill="#EE6066"/>
<path d="M52.5375 180.855C52.006 181.569 51.5809 182.025 50.2143 180.46C49.364 179.487 47.4507 175.901 45.7956 173.211C45.1614 172.238 44.2522 171.476 43.1839 171.022C43.1056 170.983 43.0166 170.971 42.9309 170.989C42.8452 171.006 42.7676 171.051 42.7103 171.117C42.6529 171.183 42.6191 171.266 42.6142 171.354C42.6092 171.441 42.6334 171.528 42.6828 171.6C44.9301 175.399 48.4377 182.056 48.2859 182.512C48.0277 183.226 46.8737 183.348 45.9171 182.421C45.3401 181.873 42.3184 177.861 40.3444 175.171C40.2642 175.06 40.1499 174.979 40.019 174.94C39.8881 174.901 39.748 174.906 39.6202 174.954C39.4924 175.003 39.3841 175.092 39.3119 175.208C39.2397 175.324 39.2077 175.461 39.2208 175.597C39.2074 175.713 39.2074 175.83 39.2208 175.946C39.5245 177.208 44.3531 185.597 43.6395 186.25C41.4377 188.287 38.1883 181.889 36.7761 179.579C36.1043 178.108 35.1964 176.758 34.0885 175.582C34.02 175.54 33.9402 175.522 33.8605 175.528C33.7808 175.535 33.7053 175.567 33.6447 175.619C33.5841 175.671 33.5415 175.741 33.523 175.819C33.5046 175.897 33.5111 175.979 33.5418 176.053C35.2577 179.457 39.3878 186.159 38.7653 186.691C37.5809 187.649 35.7284 185.703 33.2837 182.223C30.9225 178.786 28.9851 175.076 27.5136 171.174C26.8538 169.426 26.8167 167.504 27.4087 165.732C28.0007 163.96 29.1855 162.447 30.7631 161.447C32.4096 160.443 34.244 159.786 36.1536 159.517C38.9019 158.864 46.7826 166.767 47.4204 168.043C49.0147 171.144 52.9171 179.685 52.5375 180.855Z" fill="#F6AA99"/>
<path d="M93.2018 80.5037C93.2018 80.5037 78.0174 89.1057 72.8396 89.2577C67.6617 89.4096 52.5532 82.0083 52.5532 82.0083C52.5532 82.0083 52.948 69.6676 54.7701 54.5457C58.5966 53.0259 62.8938 50.959 64.2452 49.2872C64.9285 48.4209 65.217 45.7157 65.3233 43.2081C65.4296 40.7004 65.3233 38.7703 65.3233 38.7703L81.1606 38.2231C81.1606 38.2231 81.0695 41.1411 81.2973 44.1503C81.4795 46.6732 81.8894 49.2568 82.8157 50.2295C84.7289 52.3724 91.7289 54.7888 91.7289 54.7888L93.2018 80.5037Z" fill="#F6AA99"/>
<path d="M74.6463 87.3273C74.5673 83.049 74.2173 78.7799 73.5986 74.5459C72.9696 78.7758 72.7054 83.0521 72.809 87.3273H74.6463Z" fill="#EE6066"/>
<path d="M81.3276 44.226C79.0955 46.4297 76.2256 48.603 73.5835 48.603C69.8786 48.603 66.8265 45.3051 65.3232 43.2837C65.4143 40.9433 65.3232 38.846 65.3232 38.846L81.1606 38.2988C81.1606 38.2988 81.0998 41.2168 81.3276 44.226Z" fill="#EE6066"/>
<path d="M60.2212 56.9162C64.396 58.2733 68.7408 59.0356 73.1279 59.1807C77.5813 58.9663 81.9799 58.1063 86.1865 56.6274L60.2212 56.9162Z" fill="#F3877C"/>
<path d="M57.0331 52.7061V57.2654C56.9491 62.3969 58.2417 67.4569 60.7762 71.9183C63.3107 76.3796 66.9942 80.0789 71.443 82.6307C72.1263 83.0106 72.7489 83.4058 73.3107 83.7705C73.4192 83.8412 73.5458 83.8788 73.6751 83.8788C73.8045 83.8788 73.9311 83.8412 74.0396 83.7705C78.4735 81.173 82.1271 77.4289 84.6172 72.9311C87.1072 68.4333 88.3418 63.3476 88.1914 58.2077L88.0244 52.7668L96.5125 56.3383C96.5125 56.3383 95.7836 80.7614 104.302 92.2054L106.777 112.358H39.9658L41.1806 92.0838C41.1806 92.0838 48.1654 84.7432 48.5754 56.1408C52.5233 54.8946 57.0331 52.7061 57.0331 52.7061Z" fill="#213555"/>
<path d="M61.5574 26.8696C61.3904 26.7481 59.0975 21.9455 56.4251 21.8239C53.7526 21.7024 54.1322 25.7906 54.6333 26.9456C55.1344 28.1007 56.1518 31.3834 59.0975 32.2497C60.2962 32.1628 61.4158 31.6188 62.2255 30.7299L61.5574 26.8696Z" fill="#F6AA99"/>
<path d="M55.8335 26.3077C55.8335 26.1557 54.8313 23.7393 56.2738 23.3593C57.7164 22.9794 60.1459 26.5357 61.2999 27.7211C60.2673 27.7211 58.8856 27.3716 58.9159 28.3594C58.9463 29.3473 60.5255 30.4567 61.9528 30.3959C60.5862 31.0495 60.0396 31.4902 59.0374 31.247C58.0352 31.0039 57.0027 29.4233 57.0027 29.4233C57.3514 29.8454 57.8028 30.1705 58.3133 30.3675C58.8239 30.5644 59.3766 30.6266 59.9181 30.5479C58.2934 29.6968 57.0634 27.7819 58.2174 27.2804C58.5562 27.137 58.9202 27.0631 59.2879 27.0631C59.6557 27.0631 60.0197 27.137 60.3584 27.2804C60.3584 27.2804 58.506 24.9551 57.3216 24.6815C56.1372 24.408 55.8335 26.3077 55.8335 26.3077Z" fill="#F3877C"/>
<path d="M58.3993 26.5199C58.3993 26.5199 57.4123 26.5199 57.1997 27.067C57.0945 27.4009 57.0644 27.7539 57.1117 28.1007C57.1589 28.4476 57.2823 28.7797 57.4731 29.0731C55.9394 27.7357 56.0002 25.7144 58.3993 26.5199Z" fill="#F3877C"/>
<path d="M85.61 26.8696C85.777 26.7481 88.0699 21.9455 90.7423 21.8239C93.4148 21.7024 93.0352 25.7906 92.5341 26.9456C92.033 28.1007 91.0156 31.3834 88.0699 32.2497C86.8712 32.1628 85.7516 31.6188 84.9419 30.7299L85.61 26.8696Z" fill="#F6AA99"/>
<path d="M91.3493 26.3077C91.3493 26.1557 92.3515 23.7393 90.9089 23.3593C89.4664 22.9794 87.0521 26.5357 85.8829 27.7211C86.9306 27.7211 88.3124 27.3716 88.2669 28.3594C88.2213 29.3473 86.7484 30.4567 85.23 30.3959C86.6118 31.0495 87.1432 31.4902 88.1454 31.247C89.1475 31.0039 90.1953 29.4233 90.1953 29.4233C89.8442 29.8466 89.3902 30.1724 88.877 30.3694C88.3638 30.5663 87.8085 30.6278 87.2647 30.5479C88.9046 29.6968 90.1345 27.7819 88.9653 27.2804C88.6264 27.1378 88.2625 27.0644 87.8948 27.0644C87.5272 27.0644 87.1633 27.1378 86.8243 27.2804C86.8243 27.2804 88.6768 24.9551 89.8612 24.6815C91.0456 24.408 91.3493 26.3077 91.3493 26.3077Z" fill="#F3877C"/>
<path d="M88.7524 26.5199C88.7524 26.5199 89.7394 26.5199 89.952 27.067C90.0605 27.4004 90.0923 27.754 90.045 28.1014C89.9976 28.4488 89.8724 28.781 89.6787 29.0731C91.2123 27.7357 91.1516 25.7144 88.7524 26.5199Z" fill="#F3877C"/>
<path d="M60.1304 22.2803C60.1304 22.2803 60.2367 30.8975 61.6488 35.0465C62.9091 38.9524 66.8267 42.6455 72.4297 44.2716C73.1494 44.4765 73.9118 44.4765 74.6315 44.2716C76.938 43.6568 79.0833 42.5473 80.9186 41.0199C82.754 39.4926 84.2355 37.584 85.2605 35.4265C86.4146 31.1013 87.0317 26.6502 87.0978 22.1739C84.972 18.7848 78.215 16.5659 77.8354 13.0552C75.3907 15.9124 60.4189 16.2923 60.1304 22.2803Z" fill="#F6AA99"/>
<path d="M75.4966 24.1648C76.8275 23.6435 78.1986 23.2318 79.5964 22.9337C81.0291 22.7178 82.4751 22.601 83.9239 22.5842C82.7659 22.004 81.4977 21.6776 80.2037 21.6267C78.7876 21.6051 77.382 21.874 76.0736 22.417C75.8192 22.9772 75.6258 23.5632 75.4966 24.1648Z" fill="#321E41"/>
<path d="M76.3623 25.9583C76.9415 25.2831 77.7163 24.805 78.5792 24.5905C79.7757 24.2979 81.014 24.2156 82.2387 24.3473C81.2762 23.9598 80.2336 23.8137 79.2018 23.9218C78.5824 23.9498 77.9844 24.1572 77.4804 24.5187C76.9763 24.8802 76.5879 25.3803 76.3623 25.9583Z" fill="#F3877C"/>
<path d="M76.271 28.3743C76.5641 28.3942 76.8542 28.4452 77.1365 28.5263C78.2178 28.9016 79.3867 28.944 80.4923 28.6479C81.1411 28.4137 81.7341 28.0468 82.2334 27.5706C82.7328 27.0944 83.1275 26.5192 83.3925 25.8818C80.1582 26.6417 76.7873 27.6144 76.271 28.3743Z" fill="#F3877C"/>
<path d="M83.3925 25.8821C82.5102 26.9983 81.2901 27.7982 79.9152 28.1617C79.015 28.306 78.0975 28.306 77.1972 28.1617C76.9054 28.1369 76.6121 28.1893 76.3469 28.3137H76.271C76.2937 28.0034 76.3549 27.6971 76.4532 27.4018C76.6245 26.8267 76.9378 26.304 77.3643 25.8821C77.745 25.5355 78.2032 25.2853 78.7005 25.1526C79.6434 24.9231 80.6275 24.9231 81.5703 25.1526C82.2067 25.3158 82.8192 25.561 83.3925 25.8821Z" fill="white"/>
<path d="M80.0671 27.7209C79.7778 27.7904 79.4775 27.8013 79.1839 27.7529C78.8904 27.7046 78.6094 27.598 78.3576 27.4394C78.1058 27.2808 77.8882 27.0734 77.7176 26.8295C77.547 26.5855 77.4269 26.3099 77.3643 26.0188C77.745 25.6722 78.2032 25.422 78.7005 25.2893C79.6434 25.0598 80.6274 25.0598 81.5703 25.2893C81.6773 25.8101 81.5812 26.3521 81.3017 26.8042C81.0222 27.2564 80.5805 27.5844 80.0671 27.7209Z" fill="#321E41"/>
<path d="M79.1105 24.8333C78.3095 25.0204 77.5944 25.471 77.0796 26.113C76.5648 26.755 76.2801 27.5513 76.271 28.3744C76.4445 27.6525 76.824 26.9967 77.3631 26.4867C77.9023 25.9768 78.578 25.6347 79.3079 25.502C80.6841 25.175 82.1296 25.3084 83.4228 25.882L84.3795 25.0461C82.6622 24.575 80.8601 24.5023 79.1105 24.8333Z" fill="#321E41"/>
<path d="M82.2386 26.2924C82.2386 25.882 80.3406 25.9276 80.4013 26.2924C80.4621 26.6571 82.2386 26.6419 82.2386 26.2924Z" fill="white"/>
<path d="M71.3209 24.1648C69.9947 23.645 68.6287 23.2333 67.2363 22.9337C65.7984 22.7176 64.3474 22.6008 62.8936 22.5842C64.0562 22.0019 65.3298 21.6755 66.6289 21.6267C68.0451 21.6051 69.4507 21.874 70.7591 22.417C71.0128 22.976 71.2013 23.5625 71.3209 24.1648Z" fill="#321E41"/>
<path d="M70.8813 28.679C70.5882 28.6989 70.2981 28.7499 70.0158 28.831C68.9343 29.2054 67.7657 29.2477 66.66 28.9525C66.0079 28.721 65.4116 28.3553 64.9094 27.8788C64.4072 27.4024 64.0105 26.8259 63.7446 26.1865C67.0548 26.8856 70.365 27.9191 70.8813 28.679Z" fill="#F3877C"/>
<path d="M63.7446 26.1856C64.6284 27.2971 65.8485 28.0916 67.2219 28.4501C68.1222 28.5931 69.0395 28.5931 69.9399 28.4501C70.2354 28.4185 70.534 28.4657 70.8054 28.5869C70.7819 28.2802 70.7154 27.9784 70.608 27.6902C70.4391 27.114 70.1255 26.5907 69.6969 26.1704C69.3202 25.8264 68.8675 25.5764 68.3759 25.4409C67.4268 25.2209 66.4399 25.2209 65.4908 25.4409C64.8812 25.6186 64.295 25.8686 63.7446 26.1856Z" fill="white"/>
<path d="M67.0536 28.0406C67.344 28.1121 67.6459 28.124 67.9411 28.0757C68.2363 28.0273 68.5186 27.9196 68.7711 27.7592C69.0237 27.5988 69.2411 27.3888 69.4105 27.142C69.5798 26.8953 69.6975 26.6167 69.7564 26.3232C69.3797 25.9792 68.927 25.7293 68.4354 25.5937C67.4863 25.3737 66.4994 25.3737 65.5503 25.5937C65.4502 26.1158 65.549 26.6565 65.8272 27.1094C66.1054 27.5622 66.5429 27.8944 67.0536 28.0406Z" fill="#321E41"/>
<path d="M69.939 28.4957C70.2345 28.4642 70.5331 28.5113 70.8045 28.6325C70.781 28.3258 70.7145 28.024 70.6071 27.7358C70.4492 28.0396 70.2199 28.3004 69.939 28.4957Z" fill="#EE6066"/>
<path d="M68.0414 25.1224C68.8424 25.3094 69.5575 25.76 70.0723 26.402C70.5871 27.044 70.8718 27.8403 70.8809 28.6635C70.7074 27.9416 70.3279 27.2858 69.7888 26.7758C69.2496 26.2658 68.5739 25.9237 67.844 25.7911C66.467 25.475 65.0251 25.6082 63.7291 26.171L62.7725 25.3504C64.4884 24.8732 66.2907 24.7952 68.0414 25.1224Z" fill="#321E41"/>
<path d="M70.7897 26.262C70.2105 25.5868 69.4357 25.1087 68.5728 24.8942C67.3995 24.6182 66.189 24.536 64.9893 24.6511C65.9517 24.2635 66.9943 24.1174 68.0261 24.2255C68.6308 24.273 69.21 24.4889 69.6984 24.8488C70.1868 25.2088 70.5648 25.6983 70.7897 26.262Z" fill="#F3877C"/>
<path d="M68.1772 27.2808C68.1772 26.8705 70.0753 26.9009 70.0146 27.2808C69.9538 27.6608 68.1924 27.6912 68.1772 27.2808Z" fill="white"/>
<path d="M70.6685 30.7302C70.7899 30.8214 72.6728 32.3715 73.8572 32.3411C75.0416 32.3107 76.7878 30.563 76.7878 30.563C75.8484 30.9517 74.8714 31.242 73.8724 31.4293C72.7836 31.3047 71.7102 31.0704 70.6685 30.7302Z" fill="#EE6066"/>
<path d="M69.1646 34.7577C70.7239 35.8796 72.65 36.3683 74.555 36.1255C75.4366 35.9911 76.2802 35.6727 77.031 35.191C77.7817 34.7092 78.4229 34.0749 78.9129 33.3291C75.9608 35.0219 72.4776 35.5324 69.1646 34.7577Z" fill="#EE6066"/>
<path d="M72.1406 37.7516C72.9174 37.9885 73.7377 38.0456 74.5398 37.9188C75.2754 37.7926 75.9779 37.5186 76.6048 37.1133C76.4029 37.5162 76.1071 37.8646 75.7424 38.1291C75.3777 38.3936 74.9548 38.5664 74.5094 38.6331C74.0728 38.6878 73.6295 38.6363 73.2171 38.4828C72.8047 38.3293 72.4354 38.0785 72.1406 37.7516Z" fill="#F3877C"/>
<path d="M402.538 365.555L402.052 365.236C398.681 363.154 395.31 361.041 391.97 358.914C390.785 356.148 389.586 353.397 388.401 350.616L388.599 349.263L391.833 326.968L392 326.041C392.289 323.928 392.607 321.785 392.911 319.688L393.2 317.697C393.989 312.226 394.718 306.755 395.568 301.329L409.584 273.76L411.102 270.842L414.518 264.17L415.187 262.848L419.18 254.991L449.367 195.597L444.356 264.276L444.082 268.213L443.627 274.292L443.323 278.38L443.08 281.541V282.62L441.122 309.399C438.874 315.478 436.617 321.593 434.349 327.743C430.614 337.865 426.757 348.062 423.052 358.275C419.939 360.646 416.827 362.972 413.714 365.342H412.954L402.538 365.555Z" fill="#191919"/>
<path d="M402.538 365.555L402.052 365.236C398.681 363.154 395.31 361.041 391.97 358.914C390.785 356.148 389.586 353.397 388.401 350.616L388.599 349.263L391.833 326.968L392 326.041C392.289 323.928 392.607 321.785 392.911 319.688L393.154 318.031L415.445 274.201L416.584 271.967L417.282 270.599L419.712 265.827L421.488 262.316L424.252 256.89L442.002 221.935L438.965 263.243L438.859 264.55L438.282 272.818L438.13 274.778L437.781 279.338V279.672L434.273 327.652C430.538 337.773 426.681 347.971 422.976 358.184C419.863 360.555 416.751 362.88 413.638 365.251H412.879L402.538 365.555Z" fill="#474747"/>
<path d="M424.297 351.345C423.356 354.717 421.437 357.733 418.783 360.014C416.129 362.294 412.859 363.736 409.387 364.157C405.915 364.578 402.396 363.959 399.275 362.379C396.154 360.798 393.571 358.327 391.852 355.278C390.134 352.229 389.357 348.739 389.62 345.248C389.884 341.757 391.175 338.422 393.331 335.666C395.487 332.909 398.411 330.854 401.733 329.76C405.056 328.667 408.628 328.583 411.998 329.521C414.238 330.144 416.333 331.203 418.164 332.638C419.995 334.072 421.525 335.854 422.668 337.881C423.81 339.908 424.542 342.14 424.822 344.451C425.101 346.761 424.923 349.104 424.297 351.345Z" fill="#191919"/>
<path d="M405.909 267.103C379.632 267.103 354.423 277.512 335.79 296.056C317.157 314.6 306.615 339.772 306.466 366.072H313.436C313.689 341.728 323.514 318.465 340.784 301.321C358.053 284.177 381.376 274.534 405.699 274.48C430.022 274.426 453.387 283.966 470.732 301.033C488.077 318.1 498.006 341.319 498.367 365.661H505.336C505.08 339.436 494.492 314.371 475.874 295.916C457.256 277.46 432.112 267.106 405.909 267.103Z" fill="#A9ABAE"/>
<path d="M498.367 365.647H453.983H434.471H414.002H412.636H390.117H380.855H364.334L313.436 365.798C313.47 360.188 314.014 354.593 315.061 349.081C315.395 347.287 315.79 345.509 316.23 343.762C317.584 338.402 319.424 333.178 321.727 328.153C322.592 326.238 323.518 324.354 324.521 322.5C327.37 317.247 330.716 312.28 334.512 307.667C335.651 306.253 336.85 304.87 338.111 303.533C342.764 298.491 347.97 293.99 353.629 290.113C355.345 288.912 357.106 287.803 358.898 286.739C362.545 284.569 366.341 282.66 370.256 281.025C371.987 280.295 373.733 279.626 375.51 279.019C382.639 276.527 390.05 274.934 397.573 274.277C399.547 274.094 401.536 273.973 403.525 273.927H405.909C407.534 273.927 409.143 273.927 410.753 274.049C412.712 274.155 414.67 274.322 416.599 274.55C424.229 275.419 431.719 277.252 438.889 280.006C440.666 280.675 442.427 281.405 444.143 282.195C448.213 284.04 452.142 286.183 455.896 288.608C457.642 289.718 459.328 290.903 460.983 292.15C466.664 296.351 471.837 301.201 476.395 306.603C477.594 308.001 478.733 309.445 479.826 310.919C483.163 315.345 486.091 320.066 488.573 325.023C489.529 326.907 490.425 328.822 491.23 330.783C493.497 336.174 495.236 341.773 496.423 347.5C496.787 349.263 497.106 351.057 497.38 352.865C498.002 357.098 498.331 361.368 498.367 365.647Z" fill="white"/>
<path d="M356.667 312.743C360.685 312.119 364.747 311.819 368.814 311.846C374.523 311.846 378.031 312.423 381.053 314.171C382.56 314.934 383.823 316.104 384.698 317.55C385.573 318.995 386.025 320.658 386.003 322.348C386.003 325.995 383.862 329.43 379.2 331.162V331.33C381.536 331.811 383.634 333.086 385.137 334.939C386.64 336.793 387.456 339.11 387.445 341.497C387.455 343.198 387.07 344.877 386.322 346.404C385.574 347.931 384.482 349.263 383.133 350.297C380.096 352.743 375.1 354.066 366.84 354.066C363.459 354.098 360.08 353.895 356.727 353.458L356.667 312.743ZM365.944 328.624H368.981C373.946 328.624 376.573 326.557 376.573 323.472C376.573 320.387 374.189 318.67 369.953 318.67C368.625 318.628 367.297 318.725 365.99 318.959L365.944 328.624ZM365.944 346.968C367.132 347.117 368.331 347.173 369.528 347.135C373.779 347.135 377.53 345.494 377.53 341.056C377.53 336.619 373.779 335.311 369.224 335.311H366.02L365.944 346.968Z" fill="#17A37C"/>
<path d="M428.792 337.773C428.609 332.758 428.412 326.77 428.442 320.691H428.275C426.954 326.01 425.238 331.891 423.644 336.785L418.573 352.956H411.299L406.835 336.937C405.499 332.059 404.117 326.162 403.084 320.691H402.963C402.766 326.329 402.523 332.742 402.28 337.894L401.505 353.64H392.835L395.492 312.18H407.974L412.013 326.025C413.334 330.782 414.609 335.995 415.536 340.858H415.733C416.857 336.056 418.269 330.584 419.666 325.964L424.069 312.18H436.323L438.54 353.64H429.429L428.792 337.773Z" fill="#17A37C"/>
<path d="M455.152 312.18V353.64H445.783V312.18H455.152Z" fill="#17A37C"/>
</g>
<defs>
<clipPath id="clip0_223_1721">
<rect width="812" height="522.108" fill="white"/>
</clipPath>
</defs>
</svg>
