<svg width="829" height="519" viewBox="0 0 829 519" fill="none" xmlns="http://www.w3.org/2000/svg">
<g clip-path="url(#clip0_223_1078)">
<path d="M624.873 204.978C591.128 158.878 543.703 124.636 489.37 107.143C435.037 89.6494 376.574 89.7985 322.331 107.569C268.087 125.339 220.837 159.822 187.326 206.094C153.816 252.365 135.76 308.059 135.736 365.222C135.736 365.222 208.446 364.908 300.58 364.608C301.441 337.103 312.94 311.009 332.648 291.836C352.357 272.663 378.733 261.912 406.207 261.851C433.682 261.791 460.105 272.427 479.897 291.513C499.689 310.6 511.302 336.643 512.283 364.144C604.925 364.144 670.014 365.207 677.141 365.207C677.24 307.578 658.924 251.431 624.873 204.978Z" fill="#6B6B6B"/>
<path d="M618.821 209.408C586.014 164.573 539.9 131.269 487.066 114.253C434.232 97.2367 377.381 97.3792 324.632 114.66C271.884 131.941 225.937 165.475 193.354 210.474C160.772 255.473 143.22 309.635 143.207 365.222C143.207 365.222 213.914 364.908 303.493 364.623C304.076 337.701 315.146 312.075 334.339 293.219C353.533 274.363 379.328 263.772 406.212 263.71C433.097 263.647 458.941 274.118 478.222 292.884C497.502 311.651 508.691 337.225 509.398 364.144C599.411 364.144 664.052 365.177 669.7 365.177C669.773 309.146 651.944 254.561 618.821 209.408Z" fill="#E6E6E6"/>
<path d="M91.5218 52.1873C91.5218 52.1873 102.131 54.8513 102.504 64.729C102.878 74.6067 105.612 95.4996 106.27 99.9297C107.764 106.036 110.962 111.035 111.53 120.718C112.097 130.401 105.553 159.63 106.076 162.788C107.764 168.625 108.989 177.56 100.099 181.331C92.5528 138.228 85.7989 63.7412 91.5218 52.1873Z" fill="#F3877C"/>
<path d="M19.0514 162.354C19.0514 162.354 9.84689 156.697 10.6837 154.527C11.5204 152.357 19.4697 159.765 20.8743 160.184C15.4951 153.689 13.7468 149.992 15.2112 149.842C16.6755 149.693 22.5479 157.744 22.5479 157.744C22.5479 157.744 16.825 148.525 17.7962 147.747C18.7675 146.969 24.7743 155.784 24.7743 155.784C24.7743 155.784 24.6996 161.651 19.0514 162.354Z" fill="#EE6066"/>
<path d="M51.1022 49.1342C51.1022 49.1342 48.9206 54.7465 46.4103 61.0024C43.9 67.2583 40.8368 74.6217 39.5219 77.0013C38.7 78.498 36.2495 82.0749 33.3059 86.2355C27.0749 95.0507 18.6026 106.515 18.6026 106.515C18.6026 106.515 25.3715 131.464 30.8703 145.861C31.6921 148.555 29.9438 153.823 23.8623 153.12C9.47285 136.956 -0.224714 110.496 -0.0454063 106.515C8.48666 86.2655 22.7715 69.0992 29.7645 60.8079C35.1587 54.4173 50.8481 49.1042 51.1022 49.1342Z" fill="#F6AA99"/>
<path d="M46.4111 61.0027C43.7962 67.4681 40.8376 74.622 39.5226 77.0016C38.7008 78.4983 36.2503 82.0752 33.3066 86.2358C34.6963 67.962 37.5801 61.9456 37.7893 61.3319L46.4111 61.0027Z" fill="#F3877C"/>
<path d="M30.8706 145.861C31.5278 147.131 31.9281 148.519 32.0487 149.944C32.1692 151.37 32.0075 152.805 31.5729 154.168C30.0787 158.657 24.3259 166.59 21.1133 166.23C17.9007 165.871 8.89044 160.603 8.72607 158.388C10.6088 156.891 15.988 161.785 19.365 161.785C23.2351 156.278 22.7569 150.082 24.9833 148.795C27.2097 147.508 30.8706 145.861 30.8706 145.861Z" fill="#F6AA99"/>
<path d="M30.8265 189.039C30.8265 189.039 30.8265 193.799 30.946 201.641C31.0656 213.614 31.2449 232.546 31.4242 252.736C23.1461 279.765 36.0413 305.821 34.6667 335.813V336.307C34.323 342.039 33.546 345.542 28.2564 350.51C22.9668 355.479 14.898 361.002 13.2095 362.648C12.2815 363.434 11.6795 364.539 11.521 365.746H36.1908C42.6608 365.746 40.8528 364.429 43.5723 361.78C45.0665 360.403 47.8159 361.555 50.0871 360.807C51.8354 360.223 51.7158 357.32 51.1181 352.8C50.9239 351.438 50.6699 349.912 50.4607 348.31C50.059 344.187 49.8695 340.046 49.8929 335.903C50.4308 315.04 53.3147 261.416 53.3147 261.416L60.472 201.431L61.9663 189.458L30.8265 189.039Z" fill="#F6AA99"/>
<path d="M30.3029 364.443H27.434C27.165 364.443 27.5535 363.455 28.5547 363.336C29.8995 363.171 30.5868 364.144 30.3029 364.443Z" fill="#F8BBB1"/>
<path d="M24.7144 364.443H21.8604C21.5765 364.443 21.9799 363.455 22.9661 363.336C24.3259 363.171 24.9983 364.144 24.7144 364.443Z" fill="#F8BBB1"/>
<path d="M19.7388 364.444H16.8848C16.6009 364.444 17.0043 363.621 17.9905 363.531C19.3503 363.396 20.0227 364.249 19.7388 364.444Z" fill="#F8BBB1"/>
<path d="M15.0921 364.444H12.4921C12.2381 364.444 12.5967 363.621 13.5082 363.531C14.7036 363.396 15.3461 364.249 15.0921 364.444Z" fill="#F8BBB1"/>
<path d="M50.0868 360.867C47.8156 361.615 45.0961 360.567 43.5869 361.84C46.7099 358.068 46.8593 353.638 51.0581 352.86C51.7155 357.38 51.8351 360.283 50.0868 360.867Z" fill="#F3877C"/>
<path d="M37.3108 355.763C37.6107 355.758 37.9051 355.844 38.1558 356.009C38.4064 356.174 38.6017 356.411 38.7161 356.688C38.8306 356.966 38.8589 357.272 38.7975 357.566C38.7361 357.86 38.5877 358.129 38.3717 358.337L38.2372 358.457C36.394 359.951 34.6704 361.587 33.0821 363.351C32.5964 364.081 32.3176 364.929 32.2752 365.805H30.4224C30.4641 365.094 30.6675 364.403 31.0171 363.783C31.3668 363.163 31.8533 362.631 32.4396 362.228C33.9338 361.016 37.5947 358.322 38.0579 357.065C38.3418 356.272 37.3108 355.763 37.3108 355.763Z" fill="#EE6066"/>
<path d="M34.7256 363.74H39.5818C39.5818 363.74 40.3439 361.959 38.491 361.63C37.7135 361.444 36.8945 361.558 36.1968 361.949C35.4991 362.34 34.9739 362.979 34.7256 363.74Z" fill="#F8BBB1"/>
<path d="M34.263 357.095C34.263 357.095 34.263 358.682 31.0056 360.927C28.5551 362.618 26.3287 364.279 25.985 365.806H23.9678C24.8159 364.38 25.9506 363.147 27.2999 362.184C29.8999 360.238 33.3067 358.966 34.263 357.095Z" fill="#EE6066"/>
<path d="M27.1952 359.056C26.4332 359.849 23.1757 362.393 21.9355 363.546C21.272 364.148 20.8036 364.935 20.5907 365.806H19.3057C19.8735 363.052 23.6688 361.151 27.1952 359.056Z" fill="#EE6066"/>
<path d="M22.5329 359.056C21.7858 359.849 18.5134 362.393 17.2881 363.546C16.6254 364.151 16.1529 364.936 15.9284 365.806H14.7031C15.2112 363.052 19.0215 361.151 22.5329 359.056Z" fill="#EE6066"/>
<path d="M61.9059 189.383L60.4117 201.356L30.8857 201.656C30.8857 193.813 30.7661 189.054 30.7661 189.054L61.9059 189.383Z" fill="#F3877C"/>
<path d="M37.1167 250.251C37.1167 250.251 38.0581 260.982 42.3017 260.907C46.0373 260.907 49.4292 255.983 48.7717 250.894C48.1142 245.806 37.1167 244.788 37.1167 250.251Z" fill="#F3877C"/>
<path d="M101.578 189.039C101.578 189.039 101.578 193.799 101.458 201.641C101.339 213.614 101.159 232.546 100.98 252.736C109.243 279.765 96.3629 305.821 97.7376 335.813V336.307C98.0813 342.039 98.8433 345.542 104.148 350.51C109.452 355.479 117.491 360.912 119.21 362.618C120.138 363.402 120.736 364.509 120.883 365.716H96.2135C89.7435 365.716 91.5515 364.399 88.832 361.75C87.3378 360.373 84.5884 361.526 82.3171 360.777C80.5689 360.194 80.6884 357.29 81.2861 352.77C81.4804 351.408 81.7344 349.882 81.9286 348.28C82.344 344.158 82.5385 340.016 82.5114 335.873C81.9735 315.01 79.0896 261.386 79.0896 261.386L71.9322 201.431L70.438 189.458L101.578 189.039Z" fill="#F6AA99"/>
<path d="M102.101 364.443H104.97C105.239 364.443 104.85 363.455 103.849 363.336C102.504 363.171 101.817 364.144 102.101 364.443Z" fill="#F8BBB1"/>
<path d="M107.689 364.443H110.543C110.827 364.443 110.424 363.455 109.437 363.336C108.078 363.171 107.346 364.144 107.689 364.443Z" fill="#F8BBB1"/>
<path d="M112.665 364.444H115.519C115.803 364.444 115.4 363.621 114.413 363.531C113.054 363.396 112.381 364.249 112.665 364.444Z" fill="#F8BBB1"/>
<path d="M117.297 364.444H119.912C120.166 364.444 119.807 363.621 118.896 363.531C117.671 363.396 117.043 364.249 117.297 364.444Z" fill="#F8BBB1"/>
<path d="M82.3169 360.867C84.5882 361.615 87.3077 360.567 88.8168 361.84C85.6939 358.068 85.5445 353.638 81.3457 352.86C80.6882 357.38 80.5687 360.283 82.3169 360.867Z" fill="#F3877C"/>
<path d="M95.0926 355.763C94.7927 355.758 94.4983 355.844 94.2476 356.009C93.997 356.174 93.8017 356.411 93.6873 356.688C93.5728 356.966 93.5445 357.272 93.6059 357.566C93.6673 357.86 93.8157 358.129 94.0317 358.337L94.1662 358.457C96.0094 359.951 97.733 361.587 99.3213 363.351C99.8069 364.081 100.086 364.929 100.128 365.805H101.981C101.939 365.094 101.736 364.403 101.386 363.783C101.037 363.163 100.55 362.631 99.9638 362.228C98.4696 361.016 94.8087 358.322 94.3455 357.065C94.0616 356.272 95.0926 355.763 95.0926 355.763Z" fill="#EE6066"/>
<path d="M97.678 363.74H92.8217C92.8217 363.74 92.0597 361.959 93.9125 361.63C94.6901 361.444 95.5091 361.558 96.2068 361.949C96.9045 362.34 97.4297 362.979 97.678 363.74Z" fill="#F8BBB1"/>
<path d="M98.1411 357.095C98.1411 357.095 98.1411 358.682 101.399 360.927C103.849 362.618 106.075 364.279 106.404 365.806H108.436C107.586 364.377 106.446 363.143 105.089 362.184C102.504 360.238 99.0974 358.966 98.1411 357.095Z" fill="#EE6066"/>
<path d="M105.208 359.056C105.971 359.849 109.228 362.393 110.453 363.546C111.122 364.146 111.596 364.933 111.813 365.806H113.098C112.53 363.052 108.72 361.151 105.208 359.056Z" fill="#EE6066"/>
<path d="M109.871 359.056C110.618 359.849 113.891 362.393 115.116 363.546C115.779 364.151 116.251 364.936 116.476 365.806H117.805C117.178 363.052 113.323 361.151 109.871 359.056Z" fill="#EE6066"/>
<path d="M70.4976 189.383L71.9918 201.356L101.518 201.656C101.518 193.813 101.637 189.054 101.637 189.054L70.4976 189.383Z" fill="#F3877C"/>
<path d="M95.287 250.251C95.287 250.251 94.3456 260.982 90.102 260.907C86.3664 260.907 82.9745 255.983 83.632 250.894C84.2894 245.806 95.3019 244.788 95.287 250.251Z" fill="#F3877C"/>
<path d="M96.4227 139.65C86.6978 145.139 75.7285 148.036 64.5657 148.061C46.351 147.956 36.1753 139.65 36.1753 139.65C36.1753 139.65 36.4293 71.7782 36.4293 63.6814C36.4293 56.9915 40.4637 52.9656 43.4223 52.0976C46.3809 51.2295 58.8727 45.5573 58.8727 45.5573L59.5301 39.0769L59.8738 34.8864L74.7115 34.0183L75.0403 38.1939L75.5931 45.4974C75.5931 45.4974 87.816 50.6309 91.5217 52.1574C95.2274 53.684 97.0951 56.8568 97.1997 62.6338C97.3043 68.4108 96.4227 139.65 96.4227 139.65Z" fill="#F6AA99"/>
<path d="M75.0399 38.2238C73.7873 40.0972 72.3233 41.8198 70.6768 43.3573C69.9224 44.0568 68.9714 44.5068 67.9528 44.646C66.9343 44.7852 65.8976 44.607 64.9837 44.1355C62.9117 42.7468 61.0712 41.0396 59.5298 39.0769L59.8735 34.8864L74.7112 34.0183L75.0399 38.2238Z" fill="#EE6066"/>
<path d="M54.0311 79.7853C54.1805 78.169 48.3082 77.6152 47.8599 79.7853C47.4116 81.9555 53.8069 82.4194 54.0311 79.7853Z" fill="#EE6066"/>
<path d="M88.5329 79.7853C88.6673 78.169 82.795 77.6152 82.3467 79.7853C81.8985 81.9555 88.2938 82.4194 88.5329 79.7853Z" fill="#EE6066"/>
<path d="M66.0901 118.997C66.0901 118.997 62.9522 124.983 66.3291 129.623C67.1353 127.96 67.5342 126.129 67.4926 124.281C67.451 122.433 66.9702 120.621 66.0901 118.997Z" fill="#EE6066"/>
<path d="M50.7144 51.978C55.7488 53.583 60.9458 54.622 66.2095 55.076C72.1398 55.3205 78.0576 54.3529 83.6024 52.2325C83.6024 52.2325 64.4165 54.0134 50.7144 51.978Z" fill="#F3877C"/>
<path d="M98.7837 138.812H33.3961L28.2261 194.606H63.0417C63.5049 194.606 66.0301 181.331 66.0301 181.331C66.0301 181.331 68.6152 194.606 69.0186 194.606H103.834L98.7837 138.812Z" fill="#213555"/>
<path d="M82.87 19.6953C82.9597 19.4558 84.0654 14.1727 82.4666 10.7155C80.8678 7.25831 79.3138 6.33041 75.9966 5.02834C72.9782 -0.179919 64.8496 -1.42212 58.5888 1.66093C52.6118 4.65419 44.6775 14.4721 55.6003 25.3226C66.5231 36.1731 80.4494 27.2233 82.87 19.6953Z" fill="#142033"/>
<path d="M55.795 22.1201C55.795 22.1201 55.0479 18.8575 53.4341 18.2738C51.8204 17.6901 49.9376 20.4139 50.356 22.5392C50.6171 23.6344 51.1114 24.6602 51.8052 25.5462C52.4989 26.4323 53.3757 27.1576 54.3755 27.6726C55.5858 28.0168 56.587 26.6249 56.7812 25.7569C56.6578 24.4979 56.3244 23.2686 55.795 22.1201Z" fill="#F3877C"/>
<path d="M52.7016 24.0954C52.1884 23.3582 51.8885 22.4932 51.835 21.5961C51.9545 20.5933 52.7166 19.396 53.3292 19.4409C53.9418 19.4858 55.3315 22.5689 55.4062 23.0927C55.4809 23.6165 54.2407 23.6315 54.405 24.275C54.5694 24.9186 55.451 25.5322 55.72 25.8914C55.9889 26.2506 56.0338 26.5798 55.3016 26.6846C54.5694 26.7894 53.389 25.2927 53.389 25.2927C53.389 25.2927 54.7487 26.3254 55.1073 26.071C55.4659 25.8166 54.1958 24.8437 53.7326 24.1403C53.2694 23.4369 54.7338 23.2274 54.6889 22.8233C54.6889 22.7036 53.8223 20.5634 53.2694 20.6083C52.7166 20.6532 52.0591 21.8655 52.7016 24.0954Z" fill="#EE6066"/>
<path d="M53.7626 22.24C53.5586 22.4511 53.4074 22.7077 53.3217 22.9887C53.236 23.2697 53.2181 23.5671 53.2695 23.8563C53.3416 24.3602 53.5906 24.8218 53.9718 25.1584C53.6533 25.003 53.3833 24.7632 53.191 24.4651C52.9988 24.167 52.8916 23.822 52.881 23.4672C52.8646 23.1923 52.9434 22.9201 53.104 22.6966C53.2646 22.4731 53.4972 22.3118 53.7626 22.24Z" fill="#EE6066"/>
<path d="M55.1971 18.4238C54.7781 18.9201 54.5596 19.5553 54.5844 20.2048C54.691 21.7478 54.8957 23.2824 55.1971 24.7994C55.64 27.8843 56.4683 30.9012 57.6625 33.7792C59.4591 35.9142 61.5349 37.797 63.8337 39.3765C65.7325 39.9721 67.7736 39.9301 69.6463 39.2568C70.5129 38.7929 75.4738 35.4105 76.2807 34.1234C77.0876 32.8363 80.0013 22.3749 80.0013 22.3749C77.9542 22.6293 78.7312 20.0102 78.0887 18.9476C77.4462 17.885 76.206 17.7204 75.3991 17.1816C74.3976 16.5269 73.475 15.7585 72.6497 14.8917C72.0161 14.3257 71.506 13.6348 71.1512 12.8622C70.7963 12.0896 70.6045 11.2521 70.5877 10.4019L59.112 15.8945C57.6488 16.4621 56.3167 17.3228 55.1971 18.4238Z" fill="#F6AA99"/>
<path d="M68.6597 23.6765C68.6597 23.6765 69.093 24.4398 72.1113 24.4548C75.1297 24.4697 76.1458 23.0779 76.1458 23.0779L69.2872 23.3173L68.6597 23.6765Z" fill="#F3877C"/>
<path d="M69.8105 21.2074C69.3139 21.8831 69.0515 22.703 69.0634 23.5421C70.4381 23.4373 72.8737 21.0876 72.8737 21.0876C71.8516 21.0017 70.8228 21.0419 69.8105 21.2074Z" fill="#EE6066"/>
<path d="M69.7509 22.6143C69.6762 22.6143 68.6452 23.6619 68.7797 23.8864C68.9141 24.1109 69.4072 23.8864 69.4072 23.8864L69.7509 22.6143Z" fill="#F3877C"/>
<path d="M69.3027 23.6619C69.3027 23.5422 69.7211 21.5218 70.797 21.2224C71.9322 20.9154 73.1284 20.9154 74.2636 21.2224C75.19 21.5517 76.1762 23.0783 76.1762 23.0783C74.9084 23.4822 73.591 23.7088 72.2613 23.7517C69.5269 23.9164 69.3027 23.6619 69.3027 23.6619Z" fill="white"/>
<path d="M73.8747 22.315C73.8369 22.6753 73.6589 23.0062 73.3792 23.2359C73.0995 23.4656 72.7407 23.5757 72.3805 23.5422C72.1951 23.535 72.0131 23.4898 71.8458 23.4095C71.6785 23.3292 71.5294 23.2154 71.4076 23.0752C71.2859 22.935 71.194 22.7714 71.1378 22.5943C71.0815 22.4172 71.062 22.2305 71.0805 22.0456C71.1183 21.6841 71.2958 21.3518 71.575 21.1197C71.8543 20.8876 72.2131 20.774 72.5747 20.8034C72.7608 20.8126 72.943 20.8596 73.1104 20.9415C73.2778 21.0235 73.4268 21.1386 73.5483 21.28C73.6699 21.4213 73.7615 21.586 73.8176 21.7639C73.8737 21.9418 73.8932 22.1293 73.8747 22.315Z" fill="#321E41"/>
<path d="M74.4727 22.9137C74.5624 22.4946 72.9785 22.1953 72.9785 22.6443C72.9785 23.0933 74.4727 23.198 74.4727 22.9137Z" fill="white"/>
<path d="M69.2129 21.4168C70.6037 21.2701 72.006 21.2701 73.3967 21.4168C74.4355 21.7206 75.3811 22.2816 76.1461 23.0481C75.9281 22.5305 75.604 22.0645 75.1947 21.6804C74.7854 21.2962 74.3001 21.0025 73.7703 20.8181C73.0099 20.6024 72.2136 20.5442 71.43 20.6471C70.6464 20.75 69.892 21.0119 69.2129 21.4168Z" fill="#321E41"/>
<path d="M70.707 20.3396C71.749 20.2327 72.801 20.278 73.83 20.4743C74.4965 20.695 75.1224 21.0237 75.6828 21.4471C75.3474 20.932 74.8973 20.5017 74.3679 20.19C73.1621 19.8548 71.8816 19.9071 70.707 20.3396Z" fill="#F3877C"/>
<path d="M63.759 17.8396C64.4014 18.5191 64.9311 19.2972 65.328 20.1444C65.4736 21.0465 65.4736 21.9662 65.328 22.8683L63.0269 18.7825L63.759 17.8396Z" fill="#F3877C"/>
<path d="M60.0982 18.9776C61.3833 18.9776 64.312 19.3068 64.2821 19.232C64.1942 18.7399 64.017 18.2681 63.7591 17.8401C61.981 17.8401 60.7706 17.1517 59.2764 17.466C58.2572 17.7899 57.408 18.5058 56.9155 19.4565C57.9587 19.1951 59.0245 19.0347 60.0982 18.9776Z" fill="#321E41"/>
<path d="M69.1978 17.8396C68.6808 18.5682 68.2259 19.3392 67.8381 20.1444C67.5576 21.0102 67.5163 21.9359 67.7186 22.8234L69.5714 18.4233L69.1978 17.8396Z" fill="#F3877C"/>
<path d="M72.8584 18.9776C71.5734 18.9776 68.6447 19.3068 68.6745 19.232C68.7624 18.7399 68.9397 18.2681 69.1975 17.8401C70.9757 17.8401 72.186 17.1517 73.6802 17.466C74.6995 17.7899 75.5486 18.5058 76.0411 19.4565C74.998 19.1951 73.9322 19.0347 72.8584 18.9776Z" fill="#321E41"/>
<path d="M64.0127 26.5053C64.0127 26.5053 65.7012 29.6931 66.6276 29.4986C67.554 29.304 69.0483 26.4155 69.0483 26.4155C68.2794 27.1136 67.303 27.5396 66.269 27.6278C65.4252 27.4774 64.6422 27.0878 64.0127 26.5053Z" fill="#F3877C"/>
<path d="M66.4779 27.1638C67.3692 27.0173 68.2448 26.7868 69.0928 26.4753C68.4141 27.2395 67.5076 27.7643 66.5078 27.972C65.4618 27.972 64.0423 26.4753 64.0572 26.4753C64.8335 26.8016 65.6463 27.0327 66.4779 27.1638Z" fill="#EE6066"/>
<path d="M65.866 25.5173C65.104 25.6969 65.2833 26.8343 66.3741 26.9092C67.4649 26.984 67.7488 26.1609 67.4499 25.6969C67.2159 25.5508 66.9523 25.4589 66.6783 25.4278C66.4042 25.3967 66.1268 25.4273 65.866 25.5173Z" fill="#F8BBB1"/>
<path d="M64.2666 34.8863C64.5417 34.5398 64.8953 34.2641 65.2981 34.0819C65.7009 33.8997 66.1413 33.8163 66.5827 33.8387C67.0476 33.812 67.5116 33.9053 67.9303 34.1097C68.3489 34.3141 68.7081 34.6227 68.9734 35.0061C67.4196 35.3648 65.8003 35.3236 64.2666 34.8863Z" fill="#F3877C"/>
<path d="M64.2219 23.8112C64.2219 23.8112 63.7737 24.6044 60.7703 24.5296C60.0394 24.6071 59.3006 24.5121 58.613 24.2522C57.9254 23.9923 57.3081 23.5747 56.8105 23.033L63.6242 23.4969L64.2219 23.8112Z" fill="#F3877C"/>
<path d="M63.161 21.1925C63.6368 21.9252 63.8719 22.7887 63.8334 23.6619C62.4737 23.5122 60.1128 20.968 60.1128 20.968C61.1342 20.9198 62.1577 20.9951 63.161 21.1925Z" fill="#EE6066"/>
<path d="M63.1763 22.5693C63.251 22.5693 64.282 23.617 64.1475 23.8265C64.013 24.036 63.5349 23.8265 63.5349 23.8265L63.1763 22.5693Z" fill="#F3877C"/>
<path d="M63.5794 23.781C63.5794 23.6613 63.2208 21.5211 62.2047 21.1919C61.0938 20.8258 59.9017 20.7843 58.768 21.0721C57.8266 21.4164 56.8105 22.913 56.8105 22.913C58.0549 23.3703 59.3581 23.6474 60.6806 23.7362C63.3553 24.0355 63.5794 23.781 63.5794 23.781Z" fill="white"/>
<path d="M61.9208 22.1502C61.932 22.4268 61.8615 22.7005 61.7181 22.9371C61.5747 23.1737 61.3648 23.3627 61.1147 23.4804C60.8645 23.5981 60.5853 23.6393 60.3119 23.5988C60.0385 23.5583 59.7832 23.438 59.5778 23.2528C59.3723 23.0676 59.226 22.8259 59.1571 22.5578C59.0882 22.2898 59.0998 22.0073 59.1904 21.7459C59.2811 21.4844 59.4467 21.2555 59.6665 21.0878C59.8864 20.9201 60.1508 20.8211 60.4266 20.8032C60.6135 20.7911 60.8009 20.8166 60.9779 20.8781C61.1549 20.9396 61.3178 21.0359 61.457 21.1614C61.5962 21.2869 61.709 21.4391 61.7886 21.6089C61.8683 21.7787 61.9132 21.9627 61.9208 22.1502Z" fill="#321E41"/>
<path d="M63.7438 21.4916C62.3465 21.3077 60.933 21.2826 59.53 21.4167C58.5139 21.6827 57.5795 22.1969 56.8105 22.9133C56.8105 22.9133 57.6473 20.9677 59.2312 20.6534C59.9994 20.4613 60.7999 20.4367 61.5784 20.5813C62.357 20.7259 63.0954 21.0363 63.7438 21.4916Z" fill="#321E41"/>
<path d="M62.2797 20.2645C61.2495 20.1095 60.2019 20.1095 59.1717 20.2645C58.5061 20.4806 57.8803 20.8042 57.3188 21.2224C57.6645 20.7052 58.1247 20.2749 58.6637 19.9652C59.8687 19.6593 61.1411 19.7647 62.2797 20.2645Z" fill="#F3877C"/>
<path d="M62.5191 22.7188C62.5191 22.2698 61.0249 22.1501 61.0249 22.629C61.0249 23.1079 62.5191 23.0331 62.5191 22.7188Z" fill="white"/>
<path d="M79.0745 22.1652C79.0745 22.1652 79.8814 18.9025 81.4204 18.3188C82.9595 17.7351 84.9319 20.474 84.5135 22.5842C84.2503 23.6848 83.7502 24.7144 83.0481 25.6011C82.3461 26.4878 81.4591 27.2102 80.4492 27.7176C79.2239 28.0619 78.2377 26.67 78.0435 25.8169C78.1794 24.5502 78.528 23.3156 79.0745 22.1652Z" fill="#F6AA99"/>
<path d="M82.6758 24.1553C83.1848 23.4103 83.4841 22.5418 83.5425 21.641C83.408 20.6383 82.6459 19.4409 82.0482 19.4858C81.4505 19.5307 80.046 22.6138 79.9862 23.1376C79.9264 23.6614 81.1368 23.6914 80.9724 24.3349C80.808 24.9785 79.9414 25.5771 79.6575 25.9363C79.3736 26.2955 79.3437 26.6397 80.0908 26.7295C80.8379 26.8193 81.9436 25.3377 81.9436 25.3377C81.9436 25.3377 80.5839 26.3703 80.2253 26.1159C79.8667 25.8615 81.1367 24.8887 81.6 24.1853C82.0632 23.4818 80.5988 23.2723 80.6437 22.8832C80.6437 22.7485 81.5253 20.6233 82.0632 20.6532C82.6011 20.6831 83.2884 21.9104 82.6758 24.1553Z" fill="#EE6066"/>
<path d="M81.6003 22.2849C81.8046 22.499 81.9557 22.7582 82.0414 23.0416C82.127 23.325 82.1449 23.6246 82.0934 23.9162C82.0258 24.4173 81.7757 24.8757 81.3911 25.2033C81.7104 25.0473 81.9817 24.8078 82.1763 24.5101C82.3709 24.2125 82.4817 23.8676 82.4969 23.5121C82.5069 23.2364 82.4239 22.9654 82.2612 22.7427C82.0986 22.52 81.8657 22.3588 81.6003 22.2849Z" fill="#F3877C"/>
<path d="M62.9224 30.3966C63.9751 31.313 65.309 31.8411 66.7028 31.8933C67.7905 31.9419 68.869 31.6738 69.8078 31.1213C70.7465 30.5688 71.5053 29.7557 71.9924 28.7803C70.7001 29.7172 69.2129 30.3493 67.6422 30.6292C66.0716 30.9091 64.458 30.8296 62.9224 30.3966Z" fill="#EE6066"/>
<path d="M746.952 60.7781C746.952 60.7781 718.487 69.3088 711.165 88.0765C703.843 106.844 704.65 111.14 701.557 118.234C698.464 125.328 695.774 140.399 696.94 157.849C698.299 178.398 697.209 185.791 705.905 194.502C729.305 132.167 746.952 60.7781 746.952 60.7781Z" fill="#F6AA99"/>
<path d="M770.546 60.7781C770.546 60.7781 799.071 69.3687 806.318 88.0765C813.565 106.784 812.848 111.14 815.941 118.234C819.034 125.328 821.723 140.399 820.558 157.849C819.183 178.398 820.289 185.791 811.592 194.502C788.193 132.167 770.546 60.7781 770.546 60.7781Z" fill="#F6AA99"/>
<path d="M706.817 200.353C706.742 201.97 707.011 206.34 707.444 211.788C708.565 225.946 710.791 247.467 710.791 247.467C708.516 257.225 706.983 267.141 706.204 277.13C704.172 304.174 717.605 322.568 715.409 338.297C715.229 340.939 714.436 343.501 713.093 345.781C712.225 347.273 711.125 348.617 709.835 349.762C707.325 352.022 705.158 352.949 699.585 356.272C694.011 359.594 687.631 362.528 687.631 365.057C687.631 365.057 687.735 366.195 689.215 366.195H719.847C724.494 366.195 725.719 362.917 729.17 361.181C732.622 359.445 738.136 361.974 741.513 358.412C742.738 357.11 742.858 354.222 742.559 351.004C742.559 350.66 742.559 350.33 742.439 350.001C742.215 348.055 741.871 346.05 741.543 344.209C741.204 342.274 740.984 340.32 740.885 338.357C741.498 318.497 745.637 273.224 746.489 261.595C746.937 255.938 749.567 226.694 750.971 211.847C751.449 206.609 751.748 203.167 751.748 203.167C751.748 203.167 719.338 193.319 706.817 200.353Z" fill="#F6AA99"/>
<path d="M741.542 358.352C738.21 361.929 732.577 359.445 729.2 361.121C725.823 362.797 724.523 366.135 719.876 366.135C719.876 366.135 722.864 366.569 726.047 362.513C733.414 353.279 738.584 355.299 742.484 349.941C742.484 350.271 742.573 350.6 742.603 350.944C742.887 354.162 742.768 357.05 741.542 358.352Z" fill="#F3877C"/>
<path d="M723.687 353.399C722.723 355.349 721.346 357.065 719.652 358.427C716.768 360.627 713.884 362.049 712.525 363.366C711.813 364.113 711.412 365.103 711.404 366.135H708.983C709.135 365.126 709.541 364.173 710.164 363.366C711.524 361.675 714.034 360.732 717.157 358.757C719.503 357.189 721.69 355.394 723.687 353.399Z" fill="#EE6066"/>
<path d="M715.318 363.426C716.37 363.369 717.425 363.45 718.456 363.665C719.048 363.788 719.663 363.709 720.205 363.441C720.802 363.127 721.49 362.633 721.594 361.944C721.594 360.253 718.606 359.924 715.109 362.812C715.042 362.85 714.989 362.91 714.962 362.982C714.934 363.054 714.932 363.134 714.957 363.207C714.982 363.28 715.032 363.342 715.098 363.382C715.164 363.422 715.242 363.438 715.318 363.426Z" fill="#F8BBB1"/>
<path d="M712.644 358.756C710.119 361.061 706.249 363.112 705.039 364.249C704.44 364.713 704.04 365.387 703.918 366.135H702.424C702.508 365.556 702.713 365.001 703.024 364.506C703.336 364.011 703.747 363.587 704.232 363.261C706.144 362.094 709.208 360.582 712.644 358.756Z" fill="#EE6066"/>
<path d="M706.398 358.756C703.873 361.061 700.003 363.112 698.793 364.249C698.194 364.713 697.794 365.387 697.672 366.135H696.178C696.262 365.556 696.467 365.001 696.778 364.506C697.089 364.011 697.501 363.587 697.986 363.261C699.898 362.094 702.962 360.582 706.398 358.756Z" fill="#EE6066"/>
<path d="M700.989 358.756C698.449 361.061 694.594 363.112 693.383 364.249C692.785 364.713 692.385 365.387 692.263 366.135H690.769C690.853 365.556 691.057 365.001 691.369 364.506C691.68 364.011 692.092 363.587 692.577 363.261C694.489 362.094 697.567 360.582 700.989 358.756Z" fill="#EE6066"/>
<path d="M705.905 364.668C706.79 364.458 707.711 364.458 708.595 364.668C708.595 364.668 709.745 363.441 709.521 363.037C709.118 362.408 707.265 362.543 705.905 364.668Z" fill="#F8BBB1"/>
<path d="M699.42 364.668C700.304 364.458 701.225 364.458 702.11 364.668C702.11 364.668 703.26 363.441 703.021 363.037C702.633 362.408 700.78 362.543 699.42 364.668Z" fill="#F8BBB1"/>
<path d="M693.816 364.668C694.582 364.483 695.381 364.483 696.147 364.668C696.147 364.668 697.149 363.606 696.954 363.172C696.76 362.738 694.997 362.827 693.816 364.668Z" fill="#F8BBB1"/>
<path d="M688.602 364.713C689.368 364.528 690.167 364.528 690.933 364.713C690.933 364.713 691.934 363.65 691.725 363.291C691.516 362.932 689.708 362.872 688.602 364.713Z" fill="#F8BBB1"/>
<path d="M751.703 203.107C751.024 205.948 750.763 208.872 750.926 211.788H707.444C707.011 206.34 706.742 201.97 706.817 200.354C719.338 193.32 751.703 203.107 751.703 203.107Z" fill="#F3877C"/>
<path d="M720.788 254.89C717.53 256.657 721.296 266.609 726.466 268.091C731.636 269.572 735.595 258.258 732.607 256.118C730.889 254.891 723.985 253.139 720.788 254.89Z" fill="#F3877C"/>
<path d="M809.829 200.353C809.919 201.97 809.649 206.34 809.216 211.788C808.095 225.946 805.869 247.467 805.869 247.467C808.143 257.224 809.672 267.141 810.441 277.13C812.489 304.174 799.041 322.568 801.252 338.297C801.433 340.936 802.221 343.497 803.553 345.781C804.43 347.266 805.529 348.608 806.81 349.762C809.321 352.022 811.502 352.949 817.061 356.272C822.619 359.594 829.015 362.528 829.015 365.057C829.015 365.057 828.91 366.195 827.431 366.195H796.784C792.137 366.195 790.912 362.917 787.445 361.181C783.979 359.445 778.48 361.974 775.118 358.412C773.893 357.11 773.773 354.222 774.072 351.004C774.072 350.66 774.072 350.33 774.191 350.001C774.401 348.055 774.759 346.05 775.088 344.209C775.429 342.275 775.644 340.32 775.73 338.357C775.133 318.497 770.994 273.224 770.142 261.595C769.679 255.938 767.064 226.694 765.659 211.847C765.196 206.609 764.882 203.167 764.882 203.167C764.882 203.167 797.307 193.319 809.829 200.353Z" fill="#F6AA99"/>
<path d="M775.118 358.352C778.435 361.929 784.083 359.445 787.445 361.121C790.807 362.797 792.137 366.135 796.784 366.135C796.784 366.135 793.796 366.569 790.613 362.513C783.231 353.279 778.076 355.299 774.176 349.941C774.176 350.271 774.087 350.6 774.057 350.944C773.773 354.162 773.893 357.05 775.118 358.352Z" fill="#F3877C"/>
<path d="M792.974 353.399C793.938 355.349 795.315 357.065 797.009 358.427C799.892 360.627 802.776 362.049 804.136 363.366C804.835 364.121 805.234 365.106 805.257 366.135H807.662C807.516 365.125 807.109 364.171 806.482 363.366C805.122 361.675 802.627 360.732 799.489 358.757C797.146 357.191 794.964 355.396 792.974 353.399Z" fill="#EE6066"/>
<path d="M801.342 363.426C800.285 363.37 799.225 363.451 798.189 363.665C797.602 363.787 796.992 363.708 796.456 363.441C796.126 363.312 795.83 363.111 795.59 362.852C795.349 362.593 795.17 362.283 795.066 361.944C795.066 360.253 798.054 359.924 801.551 362.812C801.619 362.85 801.671 362.91 801.699 362.982C801.726 363.054 801.728 363.134 801.703 363.207C801.678 363.28 801.628 363.342 801.562 363.382C801.496 363.422 801.418 363.438 801.342 363.426Z" fill="#F8BBB1"/>
<path d="M804.016 358.756C806.541 361.061 810.397 363.112 811.607 364.249C812.204 364.716 812.609 365.388 812.742 366.135H814.237C814.152 365.556 813.948 365.001 813.636 364.506C813.325 364.011 812.914 363.587 812.429 363.261C810.516 362.094 807.453 360.582 804.016 358.756Z" fill="#EE6066"/>
<path d="M810.262 358.756C812.787 361.061 816.643 363.112 817.853 364.249C818.45 364.716 818.855 365.388 818.989 366.135H820.483C820.398 365.556 820.194 365.001 819.882 364.506C819.571 364.011 819.16 363.587 818.675 363.261C816.762 362.094 813.699 360.582 810.262 358.756Z" fill="#EE6066"/>
<path d="M815.611 358.756C818.137 361.061 822.007 363.112 823.217 364.249C823.815 364.713 824.216 365.387 824.338 366.135H825.832C825.747 365.556 825.543 365.001 825.232 364.506C824.92 364.011 824.509 363.587 824.024 363.261C822.171 362.094 819.108 360.582 815.611 358.756Z" fill="#EE6066"/>
<path d="M810.755 364.668C809.871 364.458 808.95 364.458 808.066 364.668C808.066 364.668 806.915 363.441 807.139 363.037C807.543 362.408 809.381 362.543 810.755 364.668Z" fill="#F8BBB1"/>
<path d="M817.241 364.668C816.356 364.458 815.435 364.458 814.551 364.668C814.551 364.668 813.401 363.441 813.625 363.037C814.028 362.408 815.881 362.543 817.241 364.668Z" fill="#F8BBB1"/>
<path d="M822.829 364.668C822.068 364.484 821.274 364.484 820.513 364.668C820.513 364.668 819.511 363.606 819.706 363.172C819.9 362.738 821.588 362.827 822.829 364.668Z" fill="#F8BBB1"/>
<path d="M828.133 364.713C827.367 364.528 826.568 364.528 825.802 364.713C825.802 364.713 824.801 363.65 824.995 363.291C825.189 362.932 826.938 362.872 828.133 364.713Z" fill="#F8BBB1"/>
<path d="M764.942 203.107C765.629 205.946 765.891 208.872 765.719 211.788H809.216C809.65 206.34 809.919 201.97 809.829 200.354C797.307 193.32 764.942 203.107 764.942 203.107Z" fill="#F3877C"/>
<path d="M795.873 254.89C799.13 256.657 795.365 266.609 790.195 268.091C785.025 269.572 781.065 258.258 784.039 256.118C785.727 254.891 792.66 253.139 795.873 254.89Z" fill="#F3877C"/>
<path d="M808.32 147.912C794.005 159.376 771.786 161.501 756.888 162.055C741.991 162.609 720.847 157.849 707.877 149.693C711.523 129.833 714.482 122.095 719.831 110.077C720.489 108.58 721.161 107.084 721.893 105.438C718.023 99.2115 718.905 90.3066 725.031 81.5962C730.455 73.8138 747.026 60.7782 747.026 60.7782L747.445 57.5305L748.117 52.3372L769.933 51.9331L770.486 58.6979L770.62 60.3591C770.62 60.3591 788.7 73.8288 794.02 81.0275C799.668 88.6304 802.657 97.8346 798.787 106.276C799.31 107.623 799.862 109.179 800.445 110.9C804.352 122.929 806.991 135.333 808.32 147.912Z" fill="#F6AA99"/>
<path d="M793.945 81.0271C799.594 88.63 802.582 97.8342 798.712 106.275C799.235 107.622 799.788 109.179 800.37 110.9C804.302 122.925 806.967 135.33 808.32 147.911" stroke="#F3877C" stroke-width="1.97168" stroke-miterlimit="10" stroke-linecap="round"/>
<path d="M707.877 149.692C711.523 129.832 714.482 122.095 719.831 110.077C720.489 108.58 721.161 107.083 721.893 105.437C718.023 99.2112 718.905 90.3063 725.031 81.5959" stroke="#F3877C" stroke-width="1.97168" stroke-miterlimit="10" stroke-linecap="round"/>
<path d="M779.93 109.314C780.303 109.194 786.43 102.07 793.557 108.206C787.535 111.529 779.93 109.314 779.93 109.314Z" fill="#EE6066"/>
<path d="M739.406 109.314C739.032 109.194 732.906 102.07 725.778 108.206C731.935 111.529 739.406 109.314 739.406 109.314Z" fill="#EE6066"/>
<path d="M770.411 58.6979C767.288 61.0476 762.94 63.1877 758.457 62.7986C754.26 62.4138 750.335 60.5466 747.385 57.5305L748.058 52.3372L769.873 51.9331L770.411 58.6979Z" fill="#EE6066"/>
<path d="M750.687 105.108C741.169 112.592 729.768 114.896 719.757 110.077C720.414 108.581 721.087 107.084 721.819 105.438C721.819 105.438 733.026 114.208 750.687 105.108Z" fill="#F3877C"/>
<path d="M800.37 110.9C797.021 112.375 793.419 113.188 789.761 113.295C780.363 113.699 774.505 110.705 766.347 104.704C772.412 107.672 779.027 109.344 785.772 109.613C790.306 109.814 794.797 108.652 798.667 106.275C799.175 107.622 799.788 109.179 800.37 110.9Z" fill="#F3877C"/>
<path d="M758.128 135.16C758.128 135.16 754.916 138.258 757.77 148.331C758.877 144.024 759 139.522 758.128 135.16Z" fill="#EE6066"/>
<path d="M738.27 121.586C738.27 121.586 765.869 114.238 784.457 121.586C773.878 113.923 754.467 112.232 738.27 121.586Z" fill="#F3877C"/>
<path d="M754.348 67.4381C754.875 68.1913 755.569 68.8126 756.375 69.2539C757.181 69.6951 758.077 69.9444 758.995 69.9823C759.993 69.9436 760.967 69.6634 761.834 69.1656C762.7 68.6678 763.434 67.9672 763.971 67.1238C760.916 68.4345 757.481 68.5467 754.348 67.4381Z" fill="#F3877C"/>
<path d="M777.255 34.7668C777.345 34.4974 778.615 28.4061 776.777 24.4251C774.939 20.4441 773.146 19.3665 769.306 17.8549C765.749 11.8684 756.425 10.3718 749.208 13.9487C742.245 17.376 733.145 28.7354 745.727 41.2771C758.308 53.8189 774.461 43.4622 777.255 34.7668Z" fill="#142033"/>
<path d="M744.919 37.5654C744.919 37.5654 743.993 33.7939 742.2 33.0755C740.407 32.3571 738.165 35.5599 738.644 38.0144C739.122 40.4689 741.542 43.4322 743.276 43.9261C744.68 44.3302 745.846 42.7138 746.07 41.726C745.912 40.2862 745.524 38.8813 744.919 37.5654Z" fill="#F3877C"/>
<path d="M741.348 39.855C740.756 39.0024 740.41 38.0031 740.347 36.9665C740.497 35.7991 741.378 34.4222 742.08 34.4671C742.783 34.512 744.397 38.089 744.471 38.6876C744.546 39.2863 743.126 39.3162 743.321 40.0645C743.515 40.8128 744.516 41.5611 744.815 41.9203C745.114 42.2795 745.173 42.7135 744.322 42.8333C743.47 42.953 742.125 41.2319 742.125 41.2319C742.125 41.2319 743.62 42.4292 744.098 42.1299C744.576 41.8305 743.052 40.723 742.514 39.8999C741.976 39.0767 743.664 38.8373 743.62 38.4033C743.62 38.2536 742.603 35.7991 741.976 35.844C741.348 35.8889 740.646 37.2658 741.348 39.855Z" fill="#EE6066"/>
<path d="M742.574 37.7002C742.341 37.95 742.169 38.2499 742.071 38.5769C741.972 38.9038 741.95 39.2491 742.006 39.5859C742.084 40.1665 742.371 40.6985 742.813 41.0826C742.447 40.9032 742.136 40.6273 741.915 40.2844C741.694 39.9416 741.57 39.5449 741.557 39.137C741.536 38.8169 741.625 38.499 741.81 38.2372C741.995 37.9754 742.265 37.7857 742.574 37.7002Z" fill="#EE6066"/>
<path d="M745.383 33.1504C744.896 33.7197 744.64 34.4514 744.665 35.2007C744.755 36.9817 743.933 46.3806 746.16 51.1997C749.731 59.2066 761.655 62.1999 770.411 53.1303C775.357 47.9969 774.087 37.6702 774.087 37.6702C771.726 37.9695 772.593 34.9613 771.86 33.7191C771.263 32.7313 769.694 32.3123 768.752 31.6986C767.601 30.9368 766.539 30.0483 765.585 29.0496C764.859 28.4049 764.272 27.6182 763.861 26.738C763.45 25.8577 763.223 24.9025 763.194 23.9312L749.97 30.2918C748.258 30.9128 746.695 31.8866 745.383 33.1504Z" fill="#F6AA99"/>
<path d="M760.982 39.6008C760.982 39.6008 761.356 40.2443 764.838 40.2742C768.319 40.3042 769.485 38.6729 769.485 38.6729L761.595 39.2865L760.982 39.6008Z" fill="#F3877C"/>
<path d="M762.163 36.503C761.594 37.2899 761.295 38.2404 761.311 39.2119C762.895 39.0921 765.794 36.3683 765.794 36.3683C764.582 36.2756 763.364 36.3208 762.163 36.503Z" fill="#EE6066"/>
<path d="M762.118 38.1489C762.028 38.1489 760.833 39.3462 760.982 39.6456C761.132 39.9449 761.699 39.6456 761.699 39.6456L762.118 38.1489Z" fill="#F3877C"/>
<path d="M761.595 39.3762C761.595 39.2565 762.073 36.9068 763.284 36.5626C764.59 36.2106 765.967 36.2106 767.273 36.5626C768.349 36.9517 769.485 38.7028 769.485 38.7028C768.032 39.1625 766.524 39.4242 765.002 39.481C761.819 39.6456 761.595 39.3762 761.595 39.3762Z" fill="white"/>
<path d="M766.87 37.7901C766.857 38.0047 766.801 38.2144 766.705 38.4068C766.609 38.5992 766.476 38.7703 766.313 38.91C766.15 39.0496 765.96 39.155 765.755 39.2197C765.551 39.2844 765.335 39.3072 765.121 39.2868C764.911 39.288 764.702 39.2446 764.509 39.1593C764.316 39.074 764.143 38.9488 764.002 38.7919C763.861 38.635 763.755 38.4499 763.69 38.2489C763.625 38.0479 763.604 37.8354 763.627 37.6255C763.64 37.4109 763.696 37.2012 763.792 37.0088C763.888 36.8164 764.021 36.6453 764.184 36.5056C764.347 36.366 764.537 36.2606 764.742 36.1959C764.946 36.1312 765.162 36.1084 765.375 36.1289C765.583 36.1384 765.786 36.1891 765.974 36.278C766.162 36.367 766.33 36.4923 766.469 36.6468C766.608 36.8014 766.715 36.982 766.784 37.1783C766.853 37.3745 766.882 37.5825 766.87 37.7901Z" fill="#321E41"/>
<path d="M767.617 38.463C767.736 37.9691 765.988 37.6398 765.869 38.1636C765.749 38.6875 767.542 38.8221 767.617 38.463Z" fill="white"/>
<path d="M761.49 36.8024C763.089 36.6264 764.703 36.6264 766.302 36.8024C767.502 37.1496 768.596 37.7929 769.484 38.6732C769.233 38.0768 768.86 37.5397 768.389 37.0963C767.918 36.653 767.36 36.3133 766.75 36.099C765.871 35.8519 764.952 35.7868 764.048 35.9077C763.143 36.0287 762.273 36.3331 761.49 36.8024Z" fill="#321E41"/>
<path d="M763.209 35.5147C764.415 35.3835 765.634 35.4339 766.825 35.6644C767.587 35.9244 768.303 36.3032 768.947 36.7868C768.57 36.1797 768.059 35.6675 767.453 35.2902C766.05 34.9142 764.564 34.9928 763.209 35.5147Z" fill="#F3877C"/>
<path d="M761.461 32.6414C760.892 33.4819 760.392 34.3679 759.967 35.2904C759.645 36.287 759.598 37.3525 759.833 38.3734L761.91 33.3897L761.461 32.6414Z" fill="#F3877C"/>
<path d="M765.689 33.9436C764.195 33.9436 760.833 34.3327 760.863 34.2429C760.964 33.6775 761.166 33.135 761.46 32.6415C763.507 32.6415 764.912 31.8483 766.645 32.1925C767.824 32.5709 768.806 33.3989 769.38 34.4974C768.17 34.193 766.934 34.0075 765.689 33.9436Z" fill="#321E41"/>
<path d="M755.528 42.6391C755.528 42.6391 757.471 46.3208 758.517 46.1562C759.563 45.9916 761.296 42.5942 761.296 42.5942C760.413 43.399 759.288 43.8884 758.098 43.9861C757.13 43.796 756.237 43.328 755.528 42.6391Z" fill="#F3877C"/>
<path d="M758.338 43.4024C759.356 43.2232 760.356 42.9527 761.326 42.5942C760.548 43.4892 759.498 44.1043 758.338 44.3453C757.128 44.3453 755.499 42.6242 755.499 42.6391C756.411 43.0086 757.364 43.2649 758.338 43.4024Z" fill="#EE6066"/>
<path d="M757.62 41.5015C756.754 41.696 756.948 42.9981 758.203 43.0879C759.458 43.1777 759.802 42.2348 759.458 41.696C759.185 41.5309 758.878 41.4278 758.561 41.3942C758.243 41.3606 757.922 41.3972 757.62 41.5015Z" fill="#F8BBB1"/>
<path d="M755.842 52.2474C756.186 51.8587 756.61 51.5499 757.085 51.3427C757.56 51.1354 758.075 51.0346 758.593 51.0475C759.111 51.0603 759.62 51.1864 760.085 51.417C760.549 51.6475 760.957 51.9769 761.281 52.3821C759.486 52.8001 757.615 52.7537 755.842 52.2474Z" fill="#F3877C"/>
<path d="M755.185 32.6414C755.929 33.4187 756.54 34.3138 756.993 35.2904C757.192 36.326 757.227 37.3867 757.098 38.4333C757.023 38.4333 754.423 33.7189 754.423 33.7189L755.185 32.6414Z" fill="#F3877C"/>
<path d="M750.971 33.9436C752.466 33.9436 755.828 34.3327 755.798 34.2429C755.698 33.6747 755.49 33.131 755.185 32.6415C753.138 32.6415 751.734 31.8483 750 32.1925C748.825 32.5699 747.847 33.3988 747.281 34.4974C748.49 34.193 749.726 34.0075 750.971 33.9436Z" fill="#321E41"/>
<path d="M755.648 39.5408C755.648 39.5408 755.2 40.4238 751.733 40.349C748.266 40.2742 747.161 38.5381 747.161 38.5381L755.02 39.0619L755.648 39.5408Z" fill="#F3877C"/>
<path d="M754.498 36.5026C755.048 37.3509 755.32 38.3504 755.275 39.3611C753.781 39.1815 750.986 36.2481 750.986 36.2481C752.163 36.19 753.342 36.2754 754.498 36.5026Z" fill="#EE6066"/>
<path d="M754.512 38.0894C754.602 38.0894 755.797 39.2867 755.648 39.586C755.498 39.8853 754.931 39.586 754.931 39.586L754.512 38.0894Z" fill="#F3877C"/>
<path d="M754.99 39.4809C754.99 39.3462 754.572 36.8768 753.392 36.4876C752.104 36.0733 750.725 36.037 749.417 36.3829C748.341 36.7421 747.161 38.553 747.161 38.553C748.603 39.0804 750.112 39.4028 751.643 39.5108C754.721 39.7802 754.99 39.4809 754.99 39.4809Z" fill="white"/>
<path d="M753.063 37.5955C753.087 37.916 753.014 38.2362 752.855 38.5152C752.696 38.7942 752.457 39.0193 752.17 39.1619C751.882 39.3044 751.559 39.3579 751.241 39.3155C750.923 39.2731 750.624 39.1367 750.384 38.9237C750.144 38.7108 749.972 38.4309 749.892 38.1199C749.811 37.8089 749.825 37.4809 749.931 37.1777C750.037 36.8745 750.231 36.61 750.489 36.4178C750.746 36.2256 751.054 36.1146 751.375 36.0989C751.795 36.0782 752.208 36.2232 752.523 36.5028C752.839 36.7825 753.032 37.1746 753.063 37.5955Z" fill="#321E41"/>
<path d="M755.17 36.8319C753.587 36.596 751.983 36.5407 750.388 36.6672C749.169 37.0014 748.057 37.6459 747.161 38.538C747.161 38.538 748.132 36.2931 749.955 35.9189C750.839 35.6933 751.761 35.6579 752.66 35.8153C753.559 35.9727 754.414 36.3191 755.17 36.8319Z" fill="#321E41"/>
<path d="M753.481 35.44C752.293 35.2535 751.083 35.2535 749.895 35.44C749.126 35.6863 748.403 36.0607 747.758 36.5475C748.14 35.9445 748.651 35.4334 749.253 35.0508C750.665 34.6968 752.156 34.834 753.481 35.44Z" fill="#F3877C"/>
<path d="M753.765 38.2536C753.765 37.7298 752.047 37.6101 751.987 38.1488C751.957 38.4631 753.721 38.6278 753.765 38.2536Z" fill="white"/>
<path d="M772.862 37.625C772.862 37.625 773.803 33.8535 775.581 33.1351C777.359 32.4167 779.616 35.6195 779.137 38.059C778.659 40.4985 776.254 43.4918 774.505 44.0455C773.101 44.4496 771.95 42.8333 771.726 41.8455C771.866 40.3849 772.25 38.9583 772.862 37.625Z" fill="#F6AA99"/>
<path d="M777.016 39.9148C777.608 39.0623 777.954 38.0629 778.017 37.0263C777.867 35.8589 776.986 34.4821 776.283 34.5269C775.581 34.5718 773.967 38.1488 773.893 38.7474C773.818 39.3461 775.237 39.376 775.043 40.1243C774.849 40.8726 773.848 41.621 773.549 41.9801C773.25 42.3393 773.19 42.7734 774.042 42.8931C774.894 43.0128 776.239 41.2917 776.239 41.2917C776.239 41.2917 774.744 42.489 774.266 42.1747C773.788 41.8604 775.312 40.7679 775.85 39.9597C776.388 39.1515 774.7 38.8971 774.729 38.4631C774.729 38.3134 775.76 35.844 776.388 35.9038C777.016 35.9637 777.718 37.3256 777.016 39.9148Z" fill="#EE6066"/>
<path d="M775.791 37.76C776.022 38.0075 776.194 38.3049 776.292 38.6293C776.39 38.9536 776.413 39.2962 776.359 39.6308C776.279 40.2109 775.992 40.7425 775.552 41.1274C775.916 40.9454 776.224 40.6689 776.445 40.3266C776.666 39.9844 776.791 39.589 776.807 39.1818C776.825 38.8642 776.734 38.5499 776.55 38.2912C776.365 38.0325 776.097 37.845 775.791 37.76Z" fill="#F3877C"/>
<path d="M754.229 47.1588C755.444 48.2175 756.983 48.8299 758.592 48.8949C759.845 48.9478 761.088 48.6369 762.169 47.9997C763.25 47.3626 764.125 46.4261 764.688 45.303C763.195 46.3786 761.48 47.104 759.67 47.4252C757.859 47.7465 755.999 47.6554 754.229 47.1588Z" fill="#EE6066"/>
<path d="M707.579 146.999C707.579 146.999 722.731 159.915 756.889 159.346C796.202 158.164 808.978 146.071 808.978 146.071C812.926 166.026 813.623 186.491 811.04 206.669H763.583V188.844H753.661V206.475H705.338C705.338 206.475 701.408 171.588 707.579 146.999Z" fill="#213555"/>
<path d="M317.734 323.556C311.677 336.528 308.55 350.677 308.574 364.997H156.282C156.525 322.007 167.656 279.781 188.632 242.274L317.734 323.556Z" fill="#94E0CC"/>
<path d="M354.746 281.83C338.632 291.886 325.776 306.406 317.733 323.631L188.632 242.349C209.483 204.963 239.467 173.489 275.775 150.875L354.746 281.83Z" fill="#57D0AF"/>
<path d="M406.416 113.534V266.968C388.14 266.954 370.23 272.105 354.746 281.829L275.775 150.875C314.976 126.43 360.239 113.493 406.416 113.534Z" fill="#17A37C"/>
<path d="M536.594 150.516L457.653 281.455C442.249 271.954 424.507 266.938 406.416 266.968V113.534C452.401 113.473 497.488 126.281 536.594 150.516Z" fill="#FF9E7E"/>
<path d="M624.051 241.96L494.979 323.242C486.835 305.98 473.857 291.463 457.624 281.456L536.564 150.516C572.997 173.073 603.103 204.541 624.051 241.96Z" fill="#F0606C"/>
<path d="M656.565 364.997H504.288C504.305 350.56 501.125 336.299 494.979 323.241L624.051 241.959C645.128 279.547 656.317 321.887 656.565 364.997Z" fill="#E14E4E"/>
<path d="M178.346 349.236L178.789 343.838L181.281 344.037L181.104 346.198L183.464 346.387L183.63 344.365L185.999 344.555L185.833 346.577L188.571 346.796L188.766 344.42L191.257 344.62L190.797 350.233L178.346 349.236Z" fill="white"/>
<path d="M179.728 336.776L185.083 338.511L192.177 337.581L191.85 340.565C190.577 340.785 189.039 340.944 187.237 341.043C188.009 341.211 188.825 341.416 189.687 341.656L191.673 342.187L191.33 345.324L184.549 343.392L178.944 343.946L179.284 340.832C179.632 340.814 180.213 340.765 181.027 340.685C181.649 340.62 182.217 340.572 182.731 340.541L179.433 339.477L179.728 336.776Z" fill="white"/>
<path d="M180.653 330.168L183.116 330.492L182.853 332.391L192.697 333.686L192.254 336.883L182.409 335.589L182.147 337.48L179.684 337.156L180.653 330.168Z" fill="white"/>
<path d="M180.531 330.076L180.908 327.812C181.159 326.303 181.387 325.292 181.592 324.779C181.798 324.261 182.169 323.874 182.706 323.618C183.239 323.356 184.03 323.31 185.079 323.48C186.037 323.635 186.66 323.858 186.95 324.149C187.24 324.44 187.36 324.941 187.309 325.65C187.572 325.043 187.853 324.651 188.153 324.476C188.452 324.301 188.718 324.206 188.949 324.192C189.176 324.171 189.787 324.242 190.78 324.402L194.026 324.928L193.531 327.898L189.442 327.236C188.783 327.129 188.366 327.116 188.192 327.197C188.018 327.273 187.894 327.531 187.821 327.972L193.37 328.87L192.838 332.068L180.531 330.076ZM183.169 327.219L185.905 327.662C185.965 327.302 185.959 327.044 185.886 326.886C185.809 326.723 185.499 326.598 184.957 326.51L184.281 326.4C183.891 326.337 183.623 326.367 183.478 326.489C183.333 326.606 183.23 326.849 183.169 327.219Z" fill="white"/>
<path d="M181.821 322.384L182.925 317.078L185.375 317.579L184.933 319.703L187.255 320.177L187.668 318.19L189.998 318.666L189.584 320.653L192.277 321.204L192.762 318.869L195.213 319.369L194.065 324.886L181.821 322.384Z" fill="white"/>
<path d="M185.094 306.923L197.249 309.656L196.627 312.419L188.422 310.574L196.379 313.523L195.938 315.482L187.658 314.843L195.676 316.646L195.055 319.408L182.9 316.675L183.821 312.584C184.579 312.628 185.468 312.694 186.489 312.782L189.681 313.042L184.167 311.045L185.094 306.923Z" fill="white"/>
<path d="M185.972 303.727L195.638 306.222L196.123 304.309L198.541 304.933L197.26 309.993L185.175 306.873L185.972 303.727Z" fill="white"/>
<path d="M188.324 295.964L195.303 300.376L199.628 301.594L198.808 304.47L194.483 303.252L186.235 303.286L187.049 300.433C189.504 300.641 191.143 300.832 191.966 301.005C190.74 300.474 189.255 299.745 187.51 298.818L188.324 295.964Z" fill="white"/>
<path d="M192.752 282.134L204.107 287.355L202.833 291.184C200.903 290.941 198.739 290.575 196.34 290.087C197.287 290.531 199.254 291.489 202.242 292.961L200.974 296.768L188.711 294.278L189.702 291.3L193.927 292.334L198.008 293.313C195.989 292.529 193.384 291.365 190.194 289.822L191.255 286.633C191.615 286.703 192.95 287.015 195.261 287.571L199.858 288.702C197.06 287.6 194.362 286.403 191.762 285.112L192.752 282.134Z" fill="white"/>
<path d="M192.445 282.713L194.289 277.616L196.633 278.49L195.895 280.53L198.116 281.359L198.807 279.449L201.035 280.28L200.344 282.19L202.92 283.15L203.732 280.907L206.076 281.781L204.158 287.082L192.445 282.713Z" fill="white"/>
<path d="M196.61 272.068L208.878 274.959L207.654 278.045L205.513 277.365L205.084 278.446L207.095 279.455L205.858 282.577L194.882 276.429L196.61 272.068ZM203.425 276.633C202.053 276.263 200.373 275.77 198.386 275.155C200.478 276.343 202.021 277.179 203.016 277.664L203.425 276.633Z" fill="white"/>
<path d="M200.281 263.467L204.707 267.419L211.784 268.283L210.455 271.359L205.035 270.427L209.936 272.561L208.649 275.537L197.216 270.559L198.503 267.582L202.944 269.516L199.074 266.26L200.281 263.467Z" fill="white"/>
<path d="M241.681 210.435L250.401 219.438L247.865 222.585C246.156 221.661 244.272 220.538 242.214 219.215C242.938 219.974 244.429 221.584 246.689 224.045L244.168 227.174L233.641 220.414L235.612 217.967L239.177 220.462L242.628 222.852C241.026 221.387 239.014 219.354 236.591 216.753L238.702 214.133C239.012 214.327 240.144 215.102 242.097 216.458L245.973 219.178C243.76 217.132 241.673 215.034 239.71 212.882L241.681 210.435Z" fill="white"/>
<path d="M241.265 211.042L244.809 206.974L246.678 208.62L245.259 210.249L247.029 211.809L248.357 210.285L250.133 211.85L248.805 213.374L250.858 215.183L252.418 213.393L254.286 215.039L250.6 219.27L241.265 211.042Z" fill="white"/>
<path d="M249.003 202.452L259.394 209.605L257.138 212.045L255.387 210.633L254.596 211.488L256.106 213.161L253.824 215.63L245.815 205.901L249.003 202.452ZM253.706 209.191C252.56 208.348 251.172 207.278 249.542 205.982C251.063 207.851 252.2 209.192 252.952 210.007L253.706 209.191Z" fill="white"/>
<path d="M255.304 195.919L258.082 201.161L264.43 204.433L262.107 206.851L257.339 204.092L261.199 207.796L258.951 210.136L249.947 201.494L252.196 199.154L255.693 202.512L253.194 198.115L255.304 195.919Z" fill="white"/>
<path d="M329.583 147.711L334.314 159.308L331.675 160.396L327.958 155.77L330.108 161.042L327.591 162.08L322.86 150.484L325.378 149.445L329.196 153.971L327.065 148.749L329.583 147.711Z" fill="white"/>
<path d="M339.527 151.99C339.965 153.167 340.246 154.012 340.371 154.526C340.499 155.032 340.491 155.542 340.346 156.054C340.207 156.565 339.928 157.019 339.51 157.417C339.093 157.815 338.552 158.135 337.889 158.375C337.26 158.604 336.656 158.708 336.078 158.688C335.502 158.661 334.986 158.498 334.528 158.199C334.071 157.899 333.724 157.519 333.486 157.057C333.249 156.596 332.906 155.762 332.457 154.555L331.712 152.551C331.274 151.373 330.992 150.531 330.864 150.024C330.739 149.511 330.746 148.999 330.886 148.489C331.03 147.976 331.311 147.521 331.729 147.123C332.147 146.725 332.687 146.406 333.35 146.165C333.979 145.937 334.582 145.836 335.157 145.862C335.736 145.882 336.254 146.042 336.711 146.342C337.168 146.641 337.516 147.022 337.753 147.483C337.991 147.945 338.334 148.778 338.782 149.985L339.527 151.99ZM335.04 149.248C334.837 148.703 334.677 148.367 334.558 148.24C334.443 148.107 334.291 148.074 334.102 148.143C333.942 148.201 333.842 148.308 333.802 148.465C333.764 148.616 333.858 148.993 334.082 149.596L336.116 155.068C336.369 155.748 336.552 156.158 336.664 156.298C336.781 156.436 336.942 156.469 337.145 156.395C337.353 156.319 337.452 156.179 337.442 155.975C337.432 155.77 337.298 155.323 337.042 154.633L335.04 149.248Z" fill="white"/>
<path d="M337.278 145.059L339.45 144.334C340.899 143.85 341.897 143.579 342.444 143.52C342.997 143.46 343.511 143.607 343.987 143.961C344.466 144.309 344.875 144.986 345.213 145.991C345.522 146.909 345.615 147.563 345.493 147.955C345.37 148.347 344.985 148.687 344.335 148.974C344.993 148.921 345.469 148.987 345.763 149.169C346.057 149.352 346.264 149.542 346.385 149.74C346.508 149.931 346.73 150.502 347.05 151.454L348.096 154.564L345.246 155.516L343.928 151.597C343.716 150.966 343.533 150.592 343.381 150.475C343.233 150.357 342.948 150.369 342.525 150.51L344.313 155.827L341.244 156.852L337.278 145.059ZM341.026 146.052L341.907 148.674C342.253 148.559 342.478 148.433 342.583 148.295C342.691 148.151 342.658 147.819 342.483 147.299L342.265 146.651C342.139 146.277 341.989 146.055 341.813 145.983C341.643 145.911 341.38 145.934 341.026 146.052Z" fill="white"/>
<path d="M354.077 139.725L357.679 151.668L354.963 152.484L352.532 144.421L353.879 152.81L351.953 153.389L348.433 145.854L350.809 153.732L348.093 154.548L344.491 142.605L348.513 141.397C348.848 142.079 349.228 142.888 349.655 143.821L350.999 146.732L350.026 140.942L354.077 139.725Z" fill="white"/>
<path d="M359.657 138.273L364.571 149.9L361.356 150.761L360.639 148.627L359.513 148.929L359.886 151.155L356.634 152.027L355.115 139.491L359.657 138.273ZM359.997 146.505C359.485 145.176 358.891 143.526 358.213 141.555C358.49 143.953 358.727 145.699 358.923 146.793L359.997 146.505Z" fill="white"/>
<path d="M364.257 137.356L366.547 147.031L368.459 146.573L369.032 148.994L363.977 150.206L361.113 138.109L364.257 137.356Z" fill="white"/>
<path d="M438.615 143.911C438.49 145.162 438.371 146.046 438.257 146.563C438.149 147.075 437.917 147.531 437.561 147.932C437.211 148.333 436.76 148.623 436.209 148.803C435.657 148.983 435.031 149.039 434.328 148.972C433.662 148.908 433.072 148.743 432.561 148.476C432.055 148.205 431.662 147.836 431.382 147.369C431.103 146.903 430.958 146.41 430.947 145.892C430.937 145.373 430.996 144.473 431.124 143.192L431.336 141.062C431.461 139.812 431.578 138.93 431.686 138.418C431.8 137.901 432.032 137.442 432.382 137.041C432.738 136.641 433.192 136.35 433.743 136.17C434.294 135.991 434.921 135.934 435.623 136.002C436.29 136.066 436.876 136.233 437.382 136.504C437.894 136.771 438.29 137.138 438.569 137.604C438.849 138.071 438.994 138.564 439.004 139.082C439.014 139.6 438.955 140.5 438.828 141.782L438.615 143.911ZM435.785 139.51C435.843 138.931 435.847 138.559 435.796 138.394C435.751 138.224 435.628 138.129 435.428 138.11C435.259 138.094 435.122 138.148 435.016 138.272C434.916 138.392 434.834 138.772 434.77 139.413L434.19 145.225C434.118 145.948 434.101 146.396 434.141 146.571C434.186 146.746 434.315 146.844 434.531 146.865C434.751 146.886 434.902 146.802 434.983 146.613C435.064 146.424 435.141 145.963 435.214 145.23L435.785 139.51Z" fill="white"/>
<path d="M447.286 137.772L444.025 149.952L439.133 149.347L438.896 136.736L442.295 137.156C442.241 140.615 442.144 143.533 442.003 145.909C442.484 143.549 442.937 141.455 443.363 139.627L443.887 137.353L447.286 137.772Z" fill="white"/>
<path d="M446.808 137.762L452.142 138.578L451.769 141.04L449.635 140.713L449.282 143.046L451.28 143.352L450.926 145.693L448.928 145.387L448.518 148.093L450.866 148.452L450.493 150.914L444.947 150.065L446.808 137.762Z" fill="white"/>
<path d="M452.717 138.771L454.971 139.178C456.473 139.45 457.478 139.692 457.986 139.903C458.499 140.116 458.878 140.492 459.123 141.03C459.374 141.565 459.404 142.354 459.213 143.397C459.038 144.35 458.802 144.968 458.505 145.253C458.208 145.537 457.706 145.65 456.998 145.589C457.6 145.859 457.985 146.145 458.154 146.446C458.322 146.748 458.412 147.014 458.421 147.244C458.437 147.471 458.354 148.078 458.173 149.066L457.581 152.293L454.625 151.759L455.37 147.692C455.491 147.037 455.512 146.622 455.435 146.447C455.363 146.272 455.107 146.145 454.669 146.066L453.657 151.584L450.473 151.008L452.717 138.771ZM455.517 141.44L455.018 144.161C455.376 144.226 455.634 144.223 455.793 144.153C455.958 144.079 456.089 143.772 456.188 143.233L456.312 142.56C456.383 142.172 456.359 141.905 456.24 141.758C456.126 141.613 455.885 141.507 455.517 141.44Z" fill="white"/>
<path d="M472.078 142.697L468.073 154.55L464.129 153.66C464.169 151.71 464.306 149.513 464.54 147.071C464.198 148.06 463.451 150.119 462.299 153.247L458.378 152.362L459.572 139.874L462.638 140.566L462.052 144.886L461.506 149.057C462.074 146.963 462.959 144.248 464.16 140.91L467.445 141.651C467.414 142.017 467.242 143.381 466.931 145.743L466.287 150.444C467.091 147.542 467.999 144.729 469.012 142.005L472.078 142.697Z" fill="white"/>
<path d="M471.398 142.53L476.643 143.862L476.021 146.281L473.921 145.747L473.331 148.039L475.296 148.538L474.705 150.838L472.74 150.339L472.056 152.997L474.364 153.583L473.742 156.002L468.287 154.617L471.398 142.53Z" fill="white"/>
<path d="M480.104 145.04L476.748 156.993L473.644 156.105L477 144.152L480.104 145.04Z" fill="white"/>
<path d="M486.813 151.627L483.707 150.693L484.034 149.609C484.24 148.925 484.339 148.488 484.332 148.299C484.325 148.109 484.211 147.98 483.989 147.914C483.798 147.856 483.645 147.891 483.532 148.018C483.418 148.145 483.27 148.513 483.086 149.123L481.357 154.854C481.195 155.39 481.123 155.755 481.14 155.948C481.158 156.136 481.271 156.261 481.477 156.323C481.704 156.391 481.885 156.341 482.022 156.172C482.163 156.006 482.318 155.645 482.485 155.089L482.913 153.673L482.285 153.484L482.833 151.669L486.47 152.763L484.537 159.173L482.582 158.585L482.552 157.643C482.229 157.948 481.877 158.146 481.496 158.235C481.122 158.321 480.715 158.298 480.278 158.167C479.756 158.01 479.304 157.737 478.923 157.349C478.547 156.957 478.298 156.539 478.174 156.094C478.051 155.65 478.021 155.214 478.085 154.789C478.151 154.358 478.308 153.732 478.555 152.91L479.625 149.362C479.969 148.221 480.281 147.411 480.56 146.932C480.838 146.452 481.332 146.086 482.042 145.832C482.758 145.575 483.578 145.586 484.503 145.864C485.413 146.137 486.112 146.551 486.599 147.105C487.087 147.659 487.344 148.222 487.37 148.793C487.398 149.359 487.264 150.132 486.969 151.11L486.813 151.627Z" fill="white"/>
<path d="M495.52 149.769L491.554 161.562L488.485 160.537L490.151 155.584L489.232 155.277L487.566 160.231L484.498 159.206L488.463 147.413L491.532 148.438L490.114 152.655L491.032 152.962L492.451 148.744L495.52 149.769Z" fill="white"/>
<path d="M502.063 152.135L501.191 154.48L499.376 153.821L495.892 163.194L492.836 162.085L496.32 152.712L494.513 152.056L495.385 149.711L502.063 152.135Z" fill="white"/>
<path d="M557.656 197.619C556.831 198.558 556.223 199.204 555.832 199.556C555.448 199.908 554.996 200.143 554.476 200.26C553.961 200.381 553.428 200.355 552.879 200.181C552.329 200.006 551.79 199.688 551.262 199.226C550.76 198.788 550.38 198.313 550.121 197.8C549.869 197.287 549.765 196.761 549.809 196.221C549.854 195.682 550.022 195.199 550.314 194.774C550.606 194.348 551.174 193.655 552.02 192.692L553.425 191.093C554.25 190.154 554.855 189.508 555.239 189.156C555.63 188.804 556.084 188.568 556.599 188.447C557.119 188.329 557.653 188.357 558.203 188.531C558.752 188.706 559.291 189.024 559.82 189.486C560.321 189.924 560.698 190.4 560.95 190.912C561.209 191.425 561.317 191.951 561.272 192.491C561.228 193.03 561.06 193.513 560.768 193.938C560.476 194.364 559.907 195.057 559.062 196.02L557.656 197.619ZM557.919 192.418C558.301 191.983 558.519 191.684 558.574 191.521C558.636 191.357 558.592 191.209 558.441 191.078C558.314 190.967 558.172 190.931 558.014 190.97C557.864 191.009 557.578 191.269 557.155 191.75L553.32 196.115C552.843 196.658 552.57 197.011 552.501 197.176C552.435 197.343 552.484 197.498 552.646 197.639C552.812 197.784 552.982 197.804 553.157 197.698C553.332 197.592 553.661 197.264 554.145 196.714L557.919 192.418Z" fill="white"/>
<path d="M562.694 192.355L565.069 194.558C565.819 195.254 566.332 195.838 566.608 196.311C566.888 196.788 566.98 197.316 566.885 197.893C566.794 198.468 566.38 199.15 565.645 199.941C565.148 200.475 564.716 200.769 564.351 200.823C563.989 200.88 563.508 200.736 562.909 200.391C563.344 201.025 563.525 201.578 563.451 202.05C563.381 202.518 563.069 203.049 562.516 203.644L561.729 204.491C561.154 205.109 560.657 205.5 560.237 205.664C559.821 205.832 559.408 205.828 558.997 205.65C558.587 205.473 557.903 204.94 556.945 204.052L554.191 201.498L562.694 192.355ZM563.62 196.127L561.729 198.16C561.835 198.251 561.916 198.322 561.972 198.375C562.206 198.592 562.407 198.673 562.576 198.62C562.749 198.563 563.087 198.263 563.592 197.721C563.858 197.435 564.017 197.211 564.069 197.049C564.125 196.883 564.123 196.745 564.065 196.634C564.01 196.527 563.862 196.358 563.62 196.127ZM560.406 199.583L558.027 202.142C558.373 202.441 558.635 202.586 558.813 202.576C558.995 202.569 559.257 202.381 559.6 202.012L560.393 201.16C560.757 200.768 560.936 200.493 560.93 200.333C560.925 200.173 560.75 199.923 560.406 199.583Z" fill="white"/>
<path d="M568.322 197.744L572.163 201.517L570.419 203.288L568.882 201.778L567.23 203.456L568.669 204.869L567.012 206.553L565.573 205.139L563.658 207.085L565.348 208.746L563.605 210.517L559.611 206.593L568.322 197.744Z" fill="white"/>
<path d="M574.668 209.269L572.572 207.088L573.237 206.441C573.548 206.138 573.719 205.918 573.75 205.78C573.781 205.641 573.734 205.507 573.609 205.377C573.474 205.235 573.313 205.183 573.127 205.22C572.944 205.261 572.737 205.395 572.504 205.622C572.205 205.913 572.019 206.173 571.946 206.403C571.869 206.628 571.899 207.028 572.035 207.601C572.422 209.246 572.548 210.397 572.414 211.054C572.279 211.71 571.772 212.466 570.893 213.323C570.254 213.945 569.71 214.328 569.26 214.47C568.814 214.616 568.281 214.574 567.659 214.345C567.042 214.111 566.458 213.708 565.908 213.135C565.304 212.507 564.906 211.854 564.714 211.178C564.525 210.505 564.548 209.922 564.781 209.428C565.015 208.935 565.468 208.36 566.14 207.706L566.727 207.134L568.823 209.314L567.731 210.378C567.395 210.705 567.207 210.945 567.168 211.098C567.133 211.255 567.19 211.411 567.34 211.568C567.49 211.724 567.662 211.78 567.856 211.735C568.053 211.695 568.271 211.557 568.511 211.324C569.039 210.809 569.315 210.4 569.338 210.097C569.358 209.79 569.278 209.159 569.097 208.205C568.921 207.247 568.828 206.589 568.82 206.23C568.811 205.871 568.899 205.479 569.084 205.054C569.273 204.633 569.606 204.19 570.082 203.726C570.77 203.057 571.356 202.655 571.842 202.521C572.331 202.39 572.853 202.435 573.409 202.656C573.969 202.874 574.517 203.262 575.053 203.82C575.639 204.43 576.039 205.044 576.254 205.662C576.473 206.284 576.499 206.81 576.332 207.239C576.172 207.668 575.735 208.229 575.022 208.924L574.668 209.269Z" fill="white"/>
<path d="M579.77 209.549L570.561 217.9L568.39 215.504L577.599 207.153L579.77 209.549Z" fill="white"/>
<path d="M584.75 214.967L582.874 216.621L581.591 215.179L574.09 221.79L571.93 219.362L579.431 212.75L578.153 211.314L580.03 209.66L584.75 214.967Z" fill="white"/>
<path d="M589.387 220.545L581.756 223.823L578.288 226.71L576.359 224.408L579.827 221.521L584.476 214.684L586.39 216.969C584.824 218.88 583.736 220.127 583.125 220.709C584.262 219.996 585.712 219.18 587.473 218.261L589.387 220.545Z" fill="white"/>
<path d="M612.829 259.962L615.27 264.778L613.057 265.923L612.079 263.996L609.983 265.081L610.897 266.885L608.793 267.974L607.879 266.17L605.447 267.429L606.522 269.549L604.309 270.694L601.77 265.686L612.829 259.962Z" fill="white"/>
<path d="M618.334 271.237L612.87 272.598L607.344 277.137L606.036 274.434C606.999 273.575 608.22 272.627 609.696 271.59C608.952 271.855 608.151 272.113 607.292 272.365L605.324 272.965L603.949 270.124L610.73 268.177L615.192 264.744L616.557 267.565C616.271 267.764 615.804 268.112 615.156 268.61C614.663 268.994 614.207 269.335 613.786 269.633L617.15 268.791L618.334 271.237Z" fill="white"/>
<path d="M621.061 277.399L618.786 278.426L618 276.668L608.906 280.771L607.583 277.81L616.676 273.707L615.893 271.956L618.168 270.929L621.061 277.399Z" fill="white"/>
<path d="M621.021 277.479L621.894 279.602C622.476 281.017 622.814 281.996 622.91 282.54C623.008 283.088 622.896 283.612 622.574 284.112C622.259 284.615 621.611 285.069 620.629 285.475C619.732 285.846 619.084 285.984 618.684 285.888C618.284 285.793 617.918 285.43 617.587 284.8C617.684 285.454 617.651 285.935 617.488 286.241C617.326 286.547 617.15 286.767 616.961 286.901C616.778 287.038 616.222 287.298 615.292 287.683L612.254 288.94L611.109 286.155L614.937 284.571C615.554 284.316 615.915 284.109 616.021 283.948C616.129 283.792 616.098 283.508 615.929 283.095L610.734 285.244L609.502 282.245L621.021 277.479ZM620.283 281.293L617.722 282.353C617.86 282.69 618.002 282.906 618.147 283.002C618.298 283.1 618.628 283.045 619.135 282.835L619.768 282.573C620.134 282.422 620.346 282.256 620.405 282.076C620.466 281.901 620.426 281.64 620.283 281.293Z" fill="white"/>
<path d="M624.131 284.562L625.975 289.659L623.631 290.534L622.893 288.493L620.671 289.321L621.362 291.231L619.134 292.062L618.443 290.153L615.867 291.113L616.679 293.357L614.335 294.231L612.417 288.93L624.131 284.562Z" fill="white"/>
<path d="M629.278 299.447L617.551 303.57L616.624 300.901L624.541 298.117L616.253 299.835L615.596 297.942L622.941 294.097L615.206 296.818L614.279 294.148L626.006 290.025L627.378 293.978C626.714 294.342 625.926 294.757 625.015 295.224L622.177 296.694L627.895 295.465L629.278 299.447Z" fill="white"/>
<path d="M630.254 302.647L620.753 305.652L621.343 307.531L618.966 308.283L617.406 303.313L629.284 299.556L630.254 302.647Z" fill="white"/>
<path d="M632.55 310.436L624.289 310.393L619.969 311.655L619.148 308.775L623.467 307.513L630.458 303.103L631.273 305.961C629.077 307.088 627.583 307.796 626.793 308.086C628.115 307.886 629.762 307.717 631.735 307.578L632.55 310.436Z" fill="white"/>
<path d="M627.943 321.68C626.728 321.981 625.858 322.165 625.335 322.231C624.818 322.301 624.311 322.236 623.816 322.036C623.322 321.841 622.898 321.515 622.544 321.058C622.19 320.601 621.927 320.032 621.754 319.35C621.59 318.703 621.548 318.095 621.626 317.526C621.711 316.96 621.925 316.468 622.269 316.05C622.613 315.631 623.027 315.33 623.51 315.147C623.993 314.964 624.857 314.718 626.103 314.409L628.173 313.896C629.389 313.595 630.255 313.41 630.772 313.34C631.296 313.273 631.805 313.338 632.299 313.532C632.794 313.732 633.219 314.061 633.573 314.518C633.927 314.975 634.19 315.544 634.362 316.226C634.526 316.873 634.566 317.479 634.481 318.045C634.403 318.614 634.192 319.108 633.848 319.526C633.503 319.945 633.09 320.246 632.607 320.429C632.123 320.612 631.259 320.858 630.013 321.167L627.943 321.68ZM631.124 317.552C631.687 317.412 632.037 317.291 632.176 317.188C632.32 317.089 632.367 316.942 632.318 316.748C632.277 316.584 632.18 316.473 632.028 316.416C631.882 316.362 631.497 316.412 630.874 316.567L625.224 317.967C624.522 318.141 624.095 318.276 623.945 318.371C623.795 318.472 623.747 318.626 623.8 318.835C623.854 319.049 623.984 319.163 624.188 319.176C624.392 319.188 624.851 319.106 625.563 318.93L631.124 317.552Z" fill="white"/>
<path d="M635.07 320.25L635.735 323.405C635.945 324.401 636.027 325.171 635.979 325.715C635.933 326.264 635.706 326.747 635.297 327.165C634.893 327.581 634.166 327.902 633.115 328.128C632.405 328.28 631.886 328.274 631.558 328.109C631.231 327.948 630.924 327.556 630.635 326.933C630.624 327.699 630.454 328.254 630.124 328.597C629.798 328.939 629.24 329.195 628.45 329.364L627.324 329.606C626.504 329.782 625.876 329.817 625.44 329.712C625.006 329.612 624.673 329.372 624.441 328.992C624.21 328.613 623.96 327.787 623.691 326.516L622.92 322.858L635.07 320.25ZM633.658 323.858L630.956 324.438C630.99 324.572 631.015 324.677 631.03 324.752C631.096 325.062 631.213 325.244 631.381 325.297C631.554 325.349 632 325.297 632.721 325.143C633.101 325.061 633.359 324.969 633.494 324.867C633.635 324.764 633.713 324.65 633.728 324.526C633.745 324.407 633.722 324.185 633.658 323.858ZM629.065 324.844L625.666 325.574C625.775 326.016 625.904 326.284 626.055 326.377C626.206 326.476 626.527 326.472 627.017 326.367L628.151 326.124C628.671 326.012 628.975 325.889 629.061 325.756C629.148 325.622 629.149 325.318 629.065 324.844Z" fill="white"/>
<path d="M636.584 327.886L637.541 333.195L635.092 333.645L634.709 331.52L632.389 331.947L632.748 333.936L630.42 334.364L630.061 332.375L627.371 332.87L627.792 335.207L625.344 335.658L624.348 330.137L636.584 327.886Z" fill="white"/>
<path d="M635.095 341.014L634.641 338.041L635.552 337.894C635.978 337.825 636.243 337.743 636.348 337.648C636.452 337.553 636.491 337.417 636.464 337.24C636.435 337.047 636.334 336.913 636.162 336.837C635.99 336.766 635.745 336.756 635.426 336.808C635.016 336.874 634.715 336.98 634.525 337.125C634.334 337.265 634.129 337.607 633.911 338.152C633.283 339.713 632.726 340.722 632.241 341.18C631.756 341.638 630.911 341.964 629.706 342.159C628.831 342.301 628.169 342.302 627.723 342.161C627.277 342.025 626.867 341.687 626.494 341.144C626.126 340.601 625.882 339.94 625.763 339.159C625.632 338.302 625.683 337.543 625.914 336.883C626.146 336.227 626.498 335.765 626.97 335.496C627.443 335.227 628.14 335.019 629.061 334.869L629.866 334.739L630.32 337.712L628.824 337.954C628.363 338.029 628.073 338.117 627.954 338.22C627.835 338.327 627.792 338.488 627.825 338.7C627.857 338.913 627.965 339.057 628.147 339.131C628.331 339.211 628.587 339.224 628.916 339.171C629.64 339.053 630.098 338.878 630.291 338.644C630.482 338.405 630.778 337.846 631.178 336.966C631.583 336.084 631.885 335.495 632.084 335.198C632.282 334.901 632.578 334.633 632.972 334.392C633.367 334.157 633.891 333.986 634.544 333.881C635.485 333.728 636.192 333.736 636.663 333.904C637.136 334.077 637.535 334.412 637.859 334.91C638.189 335.407 638.412 336.036 638.528 336.796C638.655 337.628 638.629 338.357 638.45 338.983C638.271 339.615 637.991 340.057 637.61 340.311C637.234 340.569 636.558 340.778 635.581 340.936L635.095 341.014Z" fill="white"/>
<path d="M639.207 344.076L626.899 345.695L626.456 342.497L638.764 340.879L639.207 344.076Z" fill="white"/>
<path d="M640.019 351.466L637.54 351.742L637.331 349.829L627.424 350.932L627.071 347.71L636.978 346.608L636.77 344.703L639.249 344.427L640.019 351.466Z" fill="white"/>
<path d="M640.761 358.742L632.623 357.018L628.117 357.379L627.87 354.38L632.377 354.019L640.134 351.107L640.378 354.082C637.992 354.743 636.38 355.135 635.544 355.259C636.887 355.332 638.544 355.501 640.517 355.766L640.761 358.742Z" fill="white"/>
<path d="M530.213 251.897L485.67 302.992L479.185 310.475L456.383 336.606L440.245 347.082L413.349 364.428H390.278H381.806C379.13 360.663 377.338 356.34 376.562 351.784C375.786 347.228 376.047 342.555 377.325 338.114C378.604 333.673 380.866 329.578 383.945 326.135C387.023 322.691 390.838 319.989 395.104 318.227L455.666 288.549L463.615 284.658L530.213 251.897Z" fill="#191919"/>
<path d="M508.787 268.36L482.01 299.071L475.794 306.195L440.246 346.978L413.35 364.324H390.279H390.1C387.058 361.425 384.788 357.811 383.496 353.81C382.205 349.809 381.933 345.548 382.705 341.414C383.477 337.281 385.269 333.406 387.918 330.144C390.566 326.881 393.987 324.333 397.87 322.733L460.627 291.947L468.831 287.921L508.787 268.36Z" fill="#474747"/>
<path d="M418.475 359.729C415.742 361.826 412.45 363.063 409.014 363.286C405.579 363.509 402.155 362.706 399.175 360.98C396.195 359.254 393.793 356.682 392.273 353.588C390.752 350.495 390.181 347.02 390.633 343.602C391.084 340.184 392.536 336.976 394.807 334.385C397.078 331.794 400.065 329.935 403.39 329.044C406.716 328.152 410.23 328.269 413.49 329.378C416.749 330.487 419.607 332.539 421.702 335.274C424.51 338.947 425.747 343.585 425.142 348.171C424.537 352.756 422.139 356.914 418.475 359.729Z" fill="#191919"/>
<path d="M406.431 267.193C380.574 267.192 355.767 277.443 337.431 295.704C319.095 313.966 308.72 338.754 308.574 364.653H315.433C315.682 340.681 325.351 317.772 342.345 300.889C359.339 284.007 382.289 274.51 406.225 274.457C430.16 274.404 453.153 283.798 470.221 300.605C487.29 317.412 497.06 340.278 497.415 364.249H504.274C504.022 338.423 493.603 313.74 475.281 295.566C456.96 277.392 432.217 267.196 406.431 267.193Z" fill="#A9ABAE"/>
<path d="M497.415 364.234H453.738H434.537H413.319H390.248H381.776L315.432 364.429C315.54 348.113 320.018 332.126 328.398 318.135C336.778 304.144 348.754 292.662 363.075 284.887C377.397 277.112 393.539 273.33 409.817 273.935C426.096 274.54 441.914 279.509 455.621 288.325C457.339 289.418 458.998 290.585 460.627 291.812C466.218 295.949 471.308 300.726 475.793 306.045C476.974 307.422 478.094 308.844 479.17 310.296C482.454 314.654 485.334 319.303 487.777 324.184C488.718 326.04 489.6 327.926 490.392 329.857C492.623 335.166 494.334 340.679 495.502 346.319C495.861 348.056 496.174 349.822 496.443 351.603C497.058 355.786 497.382 360.006 497.415 364.234Z" fill="white"/>
<path d="M357.973 312.137C361.928 311.522 365.925 311.227 369.927 311.254C375.545 311.254 378.997 311.822 381.971 313.543C383.454 314.294 384.696 315.447 385.558 316.87C386.419 318.294 386.864 319.931 386.842 321.595C386.842 325.187 384.735 328.57 380.148 330.276V330.44C382.446 330.914 384.511 332.17 385.99 333.995C387.469 335.82 388.271 338.102 388.261 340.453C388.271 342.127 387.892 343.781 387.156 345.285C386.42 346.788 385.345 348.101 384.018 349.118C381.029 351.528 376.113 352.83 367.984 352.83C364.657 352.862 361.332 352.662 358.033 352.231L357.973 312.137ZM367.103 327.776H370.091C374.978 327.776 377.563 325.741 377.563 322.703C377.563 319.665 375.217 317.973 371.048 317.973C369.741 317.932 368.434 318.028 367.148 318.258L367.103 327.776ZM367.103 345.841C368.272 345.988 369.451 346.043 370.629 346.005C374.813 346.005 378.504 344.389 378.504 340.019C378.504 335.649 374.813 334.362 370.33 334.362H367.178L367.103 345.841Z" fill="#17A37C"/>
<path d="M428.949 336.786C428.77 331.847 428.576 325.951 428.606 319.964H428.441C427.141 325.202 425.453 330.994 423.884 335.813L418.893 351.737H411.736L407.343 335.963C406.028 331.159 404.668 325.352 403.652 319.964H403.532C403.338 325.517 403.099 331.832 402.86 336.906L402.098 352.411H393.566L396.181 311.583H408.463L412.438 325.217C413.738 329.902 414.993 335.035 415.905 339.824H416.099C417.205 335.095 418.594 329.707 419.969 325.157L424.302 311.583H436.361L438.542 352.411H429.577L428.949 336.786Z" fill="#17A37C"/>
<path d="M454.889 311.583V352.411H445.669V311.583H454.889Z" fill="#17A37C"/>
</g>
<defs>
<clipPath id="clip0_223_1078">
<rect width="829" height="518.312" fill="white"/>
</clipPath>
</defs>
</svg>
