<svg width="811" height="521" viewBox="0 0 811 521" fill="none" xmlns="http://www.w3.org/2000/svg">
<g clip-path="url(#clip0_223_2575)">
<path d="M627.117 203.493C592.867 156.779 544.733 122.081 489.588 104.355C434.442 86.6281 375.106 86.7791 320.052 104.786C264.997 122.794 217.04 157.736 183.029 204.624C149.018 251.512 130.692 307.948 130.668 365.872C130.668 365.872 204.464 365.554 297.976 365.25C298.85 337.379 310.52 310.937 330.523 291.509C350.526 272.08 377.297 261.185 405.182 261.124C433.067 261.063 459.885 271.841 479.973 291.182C500.061 310.523 511.847 336.913 512.843 364.78C606.87 364.78 672.932 365.857 680.166 365.857C680.266 307.461 661.676 250.565 627.117 203.493Z" fill="#6B6B6B"/>
<path d="M620.974 207.982C587.677 162.55 540.873 128.802 487.25 111.559C433.626 94.3164 375.924 94.4608 322.388 111.972C268.851 129.483 222.217 163.464 189.147 209.063C156.078 254.661 138.264 309.544 138.25 365.872C138.25 365.872 210.015 365.554 300.933 365.266C301.524 337.985 312.76 312.017 332.24 292.91C351.72 273.803 377.901 263.071 405.187 263.008C432.474 262.944 458.704 273.554 478.273 292.571C497.842 311.587 509.198 337.503 509.916 364.78C601.274 364.78 666.881 365.827 672.613 365.827C672.688 309.049 654.593 253.737 620.974 207.982Z" fill="#E6E6E6"/>
<path d="M315.386 323.651C309.239 336.796 306.065 351.134 306.089 365.645H151.521C151.767 322.082 163.064 279.293 184.354 241.286L315.386 323.651Z" fill="#94E0CC"/>
<path d="M352.951 281.369C336.597 291.559 323.548 306.272 315.386 323.726L184.354 241.362C205.517 203.477 235.949 171.584 272.8 148.669L352.951 281.369Z" fill="#57D0AF"/>
<path d="M405.394 110.831V266.309C386.844 266.295 368.667 271.515 352.951 281.369L272.8 148.669C312.587 123.899 358.526 110.789 405.394 110.831Z" fill="#17A37C"/>
<path d="M537.517 148.305L457.397 280.99C441.762 271.362 423.755 266.279 405.394 266.309V110.831C452.066 110.769 497.828 123.748 537.517 148.305Z" fill="#FF9E7E"/>
<path d="M626.282 240.968L495.281 323.332C487.015 305.841 473.843 291.13 457.367 280.99L537.487 148.305C574.465 171.162 605.021 203.049 626.282 240.968Z" fill="#F0606C"/>
<path d="M659.282 365.645H504.729C504.746 351.016 501.519 336.565 495.281 323.333L626.282 240.968C647.675 279.057 659.031 321.96 659.282 365.645Z" fill="#E14E4E"/>
<path d="M173.672 349.652L174.123 344.172L176.652 344.374L176.472 346.568L178.869 346.76L179.038 344.707L181.443 344.899L181.274 346.952L184.054 347.175L184.252 344.762L186.782 344.965L186.313 350.664L173.672 349.652Z" fill="white"/>
<path d="M175.077 336.991L180.514 338.751L187.717 337.806L187.385 340.835C186.092 341.059 184.531 341.221 182.701 341.322C183.484 341.492 184.313 341.7 185.188 341.944L187.204 342.483L186.855 345.668L179.97 343.708L174.279 344.27L174.626 341.109C174.979 341.09 175.569 341.04 176.396 340.959C177.027 340.893 177.603 340.844 178.126 340.813L174.777 339.733L175.077 336.991Z" fill="white"/>
<path d="M176.031 330.306L178.532 330.635L178.264 332.562L188.26 333.875L187.809 337.121L177.813 335.809L177.546 337.729L175.045 337.4L176.031 330.306Z" fill="white"/>
<path d="M175.892 330.218L176.275 327.919C176.53 326.387 176.762 325.361 176.97 324.84C177.18 324.314 177.557 323.921 178.102 323.661C178.643 323.395 179.446 323.348 180.511 323.52C181.484 323.677 182.117 323.903 182.411 324.199C182.706 324.495 182.827 325.003 182.776 325.723C183.042 325.106 183.328 324.709 183.632 324.531C183.937 324.353 184.206 324.257 184.441 324.242C184.672 324.221 185.291 324.292 186.3 324.455L189.596 324.988L189.093 328.003L184.941 327.332C184.272 327.224 183.849 327.211 183.671 327.293C183.494 327.37 183.369 327.632 183.294 328.08L188.928 328.99L188.387 332.237L175.892 330.218ZM178.571 327.316L181.349 327.765C181.41 327.4 181.404 327.138 181.33 326.978C181.252 326.813 180.938 326.685 180.387 326.596L179.7 326.485C179.304 326.421 179.032 326.451 178.885 326.575C178.738 326.694 178.633 326.941 178.571 327.316Z" fill="white"/>
<path d="M177.218 322.397L178.34 317.011L180.828 317.519L180.379 319.675L182.737 320.156L183.157 318.138L185.522 318.621L185.102 320.638L187.835 321.196L188.329 318.825L190.817 319.333L189.65 324.934L177.218 322.397Z" fill="white"/>
<path d="M180.531 306.725L192.873 309.495L192.241 312.3L183.909 310.429L191.988 313.42L191.54 315.41L183.132 314.763L191.274 316.591L190.641 319.396L178.3 316.625L179.236 312.471C180.005 312.516 180.909 312.583 181.946 312.671L185.186 312.934L179.588 310.909L180.531 306.725Z" fill="white"/>
<path d="M181.42 303.475L191.236 306.004L191.728 304.062L194.184 304.695L192.882 309.831L180.611 306.669L181.42 303.475Z" fill="white"/>
<path d="M183.811 295.597L190.897 300.073L195.289 301.308L194.455 304.228L190.062 302.992L181.687 303.031L182.515 300.134C185.008 300.344 186.672 300.537 187.507 300.713C186.263 300.174 184.755 299.435 182.983 298.494L183.811 295.597Z" fill="white"/>
<path d="M188.312 281.579L199.842 286.874L198.546 290.761C196.586 290.515 194.388 290.145 191.953 289.651C192.914 290.101 194.911 291.072 197.945 292.565L196.656 296.43L184.203 293.907L185.21 290.884L189.501 291.932L193.645 292.924C191.595 292.129 188.95 290.949 185.71 289.384L186.789 286.147C187.155 286.217 188.511 286.534 190.858 287.097L195.526 288.244C192.685 287.125 189.944 285.911 187.304 284.602L188.312 281.579Z" fill="white"/>
<path d="M187.997 282.178L189.871 277.003L192.252 277.89L191.502 279.961L193.757 280.801L194.46 278.862L196.723 279.705L196.02 281.643L198.636 282.617L199.461 280.34L201.842 281.226L199.892 286.607L187.997 282.178Z" fill="white"/>
<path d="M192.23 271.362L204.689 274.291L203.445 277.423L201.27 276.735L200.834 277.832L202.876 278.855L201.618 282.024L190.472 275.789L192.23 271.362ZM199.15 275.992C197.756 275.617 196.05 275.118 194.032 274.495C196.156 275.699 197.724 276.547 198.734 277.039L199.15 275.992Z" fill="white"/>
<path d="M195.96 262.636L200.454 266.645L207.643 267.519L206.291 270.641L200.786 269.697L205.763 271.861L204.456 274.882L192.845 269.834L194.152 266.813L198.663 268.774L194.733 265.47L195.96 262.636Z" fill="white"/>
<path d="M238.035 208.841L246.893 217.974L244.317 221.167C242.58 220.23 240.666 219.09 238.575 217.749C239.31 218.518 240.826 220.151 243.121 222.648L240.559 225.823L229.864 218.967L231.867 216.484L235.489 219.014L238.995 221.439C237.368 219.953 235.323 217.89 232.862 215.252L235.008 212.593C235.323 212.79 236.473 213.576 238.457 214.951L242.395 217.71C240.147 215.635 238.026 213.507 236.032 211.324L238.035 208.841Z" fill="white"/>
<path d="M237.609 209.477L241.211 205.35L243.109 207.02L241.667 208.672L243.466 210.255L244.815 208.709L246.62 210.296L245.27 211.843L247.356 213.678L248.941 211.861L250.84 213.532L247.094 217.824L237.609 209.477Z" fill="white"/>
<path d="M245.457 200.748L256.014 208.004L253.722 210.48L251.943 209.048L251.139 209.916L252.674 211.612L250.354 214.117L242.217 204.247L245.457 200.748ZM250.234 207.585C249.071 206.729 247.66 205.644 246.004 204.329C247.549 206.225 248.704 207.586 249.468 208.413L250.234 207.585Z" fill="white"/>
<path d="M251.856 194.124L254.679 199.442L261.129 202.762L258.768 205.215L253.925 202.415L257.846 206.173L255.561 208.547L246.413 199.781L248.698 197.407L252.252 200.813L249.713 196.352L251.856 194.124Z" fill="white"/>
<path d="M327.327 145.225L332.136 156.997L329.456 158.1L325.679 153.404L327.866 158.755L325.309 159.808L320.5 148.036L323.056 146.983L326.936 151.578L324.77 146.278L327.327 145.225Z" fill="white"/>
<path d="M337.43 149.586C337.875 150.781 338.161 151.639 338.288 152.16C338.419 152.675 338.41 153.192 338.264 153.712C338.122 154.23 337.839 154.691 337.415 155.095C336.991 155.499 336.442 155.823 335.769 156.067C335.13 156.298 334.517 156.404 333.929 156.383C333.345 156.356 332.82 156.19 332.356 155.886C331.891 155.582 331.538 155.195 331.297 154.727C331.055 154.258 330.707 153.412 330.251 152.187L329.493 150.152C329.048 148.957 328.76 148.102 328.63 147.588C328.503 147.067 328.51 146.547 328.652 146.029C328.799 145.509 329.084 145.047 329.508 144.643C329.932 144.239 330.481 143.916 331.154 143.672C331.793 143.44 332.405 143.338 332.989 143.365C333.577 143.386 334.103 143.548 334.568 143.852C335.032 144.157 335.385 144.543 335.627 145.011C335.868 145.48 336.217 146.326 336.672 147.551L337.43 149.586ZM332.872 146.802C332.666 146.248 332.502 145.907 332.382 145.778C332.265 145.643 332.11 145.61 331.918 145.679C331.756 145.738 331.655 145.847 331.614 146.007C331.576 146.159 331.671 146.542 331.899 147.154L333.967 152.709C334.224 153.399 334.41 153.816 334.524 153.958C334.643 154.098 334.806 154.131 335.012 154.056C335.224 153.98 335.324 153.838 335.314 153.63C335.303 153.423 335.168 152.969 334.907 152.268L332.872 146.802Z" fill="white"/>
<path d="M335.162 142.534L337.367 141.799C338.838 141.309 339.852 141.034 340.408 140.975C340.969 140.914 341.492 141.063 341.975 141.423C342.462 141.776 342.877 142.463 343.221 143.483C343.534 144.415 343.629 145.08 343.505 145.477C343.381 145.875 342.99 146.22 342.33 146.511C342.999 146.458 343.482 146.524 343.781 146.71C344.079 146.896 344.29 147.089 344.412 147.289C344.538 147.483 344.763 148.063 345.089 149.029L346.152 152.187L343.258 153.151L341.918 149.173C341.702 148.532 341.517 148.153 341.361 148.034C341.211 147.915 340.922 147.926 340.492 148.069L342.31 153.467L339.194 154.506L335.162 142.534ZM338.968 143.544L339.865 146.206C340.215 146.089 340.443 145.961 340.55 145.821C340.66 145.675 340.626 145.338 340.448 144.81L340.227 144.152C340.099 143.773 339.946 143.547 339.768 143.475C339.595 143.401 339.328 143.424 338.968 143.544Z" fill="white"/>
<path d="M352.223 137.141L355.886 149.265L353.128 150.092L350.656 141.907L352.027 150.423L350.071 151.01L346.494 143.36L348.91 151.358L346.152 152.185L342.49 140.061L346.573 138.836C346.913 139.529 347.3 140.349 347.734 141.297L349.1 144.252L348.109 138.375L352.223 137.141Z" fill="white"/>
<path d="M357.878 135.653L362.872 147.457L359.607 148.33L358.879 146.163L357.735 146.469L358.115 148.729L354.813 149.613L353.266 136.887L357.878 135.653ZM358.226 144.009C357.706 142.66 357.102 140.985 356.413 138.983C356.695 141.418 356.936 143.191 357.136 144.3L358.226 144.009Z" fill="white"/>
<path d="M362.552 134.738L364.881 144.561L366.822 144.096L367.404 146.554L362.272 147.783L359.36 135.502L362.552 134.738Z" fill="white"/>
<path d="M438.099 141.39C437.972 142.66 437.851 143.557 437.736 144.082C437.626 144.602 437.39 145.066 437.029 145.472C436.673 145.88 436.215 146.175 435.655 146.357C435.096 146.54 434.459 146.597 433.746 146.529C433.069 146.464 432.471 146.296 431.952 146.026C431.438 145.751 431.039 145.376 430.755 144.902C430.471 144.429 430.324 143.929 430.314 143.402C430.304 142.876 430.363 141.962 430.493 140.661L430.71 138.499C430.837 137.229 430.955 136.334 431.065 135.814C431.18 135.289 431.416 134.823 431.772 134.416C432.134 134.009 432.594 133.715 433.154 133.532C433.713 133.349 434.35 133.292 435.063 133.36C435.74 133.425 436.335 133.595 436.849 133.87C437.368 134.141 437.77 134.513 438.054 134.987C438.338 135.461 438.485 135.961 438.495 136.487C438.506 137.014 438.446 137.927 438.316 139.228L438.099 141.39ZM435.227 136.922C435.286 136.334 435.29 135.956 435.238 135.789C435.192 135.616 435.068 135.52 434.865 135.501C434.693 135.484 434.553 135.539 434.446 135.665C434.345 135.787 434.261 136.173 434.196 136.824L433.606 142.725C433.533 143.459 433.516 143.914 433.556 144.091C433.602 144.269 433.734 144.368 433.952 144.389C434.176 144.411 434.329 144.326 434.411 144.134C434.494 143.942 434.572 143.474 434.646 142.73L435.227 136.922Z" fill="white"/>
<path d="M446.909 135.141L443.595 147.507L438.628 146.894L438.39 134.091L441.841 134.516C441.785 138.028 441.686 140.991 441.543 143.403C442.031 141.007 442.492 138.881 442.925 137.025L443.458 134.716L446.909 135.141Z" fill="white"/>
<path d="M446.441 135.131L451.856 135.958L451.478 138.458L449.31 138.127L448.951 140.496L450.98 140.806L450.62 143.182L448.591 142.872L448.175 145.619L450.559 145.983L450.18 148.483L444.548 147.623L446.441 135.131Z" fill="white"/>
<path d="M452.43 136.17L454.719 136.583C456.244 136.858 457.264 137.103 457.78 137.318C458.301 137.534 458.686 137.915 458.935 138.462C459.189 139.005 459.219 139.806 459.025 140.865C458.847 141.831 458.608 142.459 458.306 142.749C458.004 143.038 457.494 143.152 456.776 143.091C457.386 143.365 457.777 143.655 457.948 143.96C458.12 144.266 458.21 144.536 458.22 144.771C458.236 145.001 458.152 145.617 457.968 146.62L457.366 149.897L454.364 149.355L455.122 145.226C455.244 144.561 455.266 144.139 455.188 143.961C455.115 143.784 454.855 143.656 454.41 143.575L453.381 149.177L450.149 148.593L452.43 136.17ZM455.272 138.879L454.765 141.641C455.129 141.707 455.391 141.704 455.552 141.633C455.719 141.557 455.853 141.246 455.954 140.699L456.079 140.016C456.151 139.622 456.127 139.35 456.006 139.202C455.891 139.054 455.646 138.946 455.272 138.879Z" fill="white"/>
<path d="M472.093 140.136L468.022 152.17L464.017 151.267C464.058 149.287 464.198 147.058 464.437 144.578C464.089 145.582 463.33 147.672 462.159 150.849L458.178 149.951L459.394 137.274L462.508 137.976L461.911 142.361L461.355 146.595C461.933 144.47 462.832 141.713 464.053 138.324L467.388 139.075C467.356 139.447 467.182 140.831 466.865 143.229L466.209 148.001C467.027 145.055 467.95 142.199 468.979 139.434L472.093 140.136Z" fill="white"/>
<path d="M471.406 139.967L476.733 141.317L476.1 143.773L473.968 143.232L473.368 145.559L475.363 146.065L474.762 148.399L472.766 147.893L472.071 150.592L474.415 151.186L473.782 153.642L468.244 152.238L471.406 139.967Z" fill="white"/>
<path d="M480.25 142.512L476.837 154.647L473.685 153.747L477.098 141.612L480.25 142.512Z" fill="white"/>
<path d="M487.063 149.197L483.909 148.251L484.241 147.15C484.451 146.456 484.552 146.012 484.545 145.82C484.538 145.627 484.422 145.497 484.197 145.429C484.002 145.371 483.847 145.406 483.732 145.535C483.617 145.664 483.466 146.038 483.279 146.657L481.521 152.475C481.357 153.02 481.283 153.39 481.3 153.585C481.319 153.776 481.433 153.903 481.643 153.966C481.873 154.035 482.057 153.984 482.196 153.813C482.339 153.644 482.497 153.277 482.667 152.713L483.101 151.275L482.464 151.084L483.021 149.242L486.715 150.35L484.749 156.858L482.763 156.262L482.734 155.306C482.406 155.616 482.048 155.816 481.661 155.907C481.281 155.994 480.868 155.971 480.424 155.838C479.894 155.679 479.436 155.403 479.048 155.009C478.667 154.611 478.414 154.187 478.288 153.735C478.163 153.284 478.133 152.842 478.199 152.41C478.265 151.972 478.425 151.337 478.676 150.503L479.765 146.901C480.115 145.743 480.431 144.92 480.714 144.434C480.998 143.947 481.499 143.575 482.22 143.317C482.947 143.056 483.78 143.067 484.72 143.348C485.644 143.626 486.353 144.045 486.848 144.608C487.343 145.17 487.603 145.741 487.63 146.32C487.658 146.895 487.522 147.679 487.222 148.673L487.063 149.197Z" fill="white"/>
<path d="M495.925 147.324L491.892 159.296L488.776 158.257L490.469 153.229L489.537 152.918L487.843 157.946L484.727 156.907L488.759 144.936L491.876 145.974L490.433 150.256L491.366 150.567L492.808 146.285L495.925 147.324Z" fill="white"/>
<path d="M502.557 149.708L501.671 152.089L499.828 151.421L496.285 160.936L493.182 159.812L496.725 150.297L494.89 149.632L495.776 147.251L502.557 149.708Z" fill="white"/>
<path d="M559.054 195.853C558.216 196.806 557.598 197.461 557.2 197.818C556.81 198.175 556.351 198.413 555.823 198.533C555.299 198.656 554.758 198.629 554.2 198.452C553.641 198.275 553.093 197.953 552.556 197.484C552.047 197.04 551.66 196.557 551.397 196.037C551.141 195.517 551.036 194.983 551.081 194.436C551.126 193.888 551.297 193.399 551.594 192.967C551.89 192.536 552.468 191.832 553.328 190.855L554.756 189.232C555.594 188.279 556.209 187.625 556.599 187.268C556.997 186.91 557.457 186.67 557.981 186.548C558.509 186.428 559.052 186.457 559.61 186.633C560.169 186.81 560.717 187.133 561.254 187.601C561.763 188.046 562.146 188.528 562.402 189.049C562.665 189.568 562.774 190.102 562.729 190.65C562.684 191.197 562.513 191.687 562.216 192.118C561.92 192.55 561.342 193.254 560.482 194.23L559.054 195.853ZM559.322 190.576C559.71 190.135 559.932 189.831 559.988 189.666C560.051 189.5 560.006 189.35 559.853 189.217C559.723 189.104 559.579 189.067 559.419 189.107C559.266 189.147 558.975 189.411 558.546 189.899L554.648 194.328C554.164 194.878 553.886 195.237 553.816 195.403C553.749 195.573 553.799 195.73 553.963 195.874C554.132 196.021 554.305 196.041 554.482 195.934C554.66 195.826 554.995 195.493 555.486 194.935L559.322 190.576Z" fill="white"/>
<path d="M564.188 190.527L566.601 192.761C567.363 193.467 567.884 194.06 568.164 194.54C568.449 195.023 568.542 195.558 568.446 196.145C568.353 196.727 567.932 197.419 567.185 198.222C566.68 198.764 566.242 199.062 565.87 199.117C565.502 199.174 565.014 199.028 564.406 198.678C564.847 199.322 565.031 199.883 564.956 200.362C564.885 200.837 564.568 201.376 564.006 201.979L563.206 202.839C562.622 203.465 562.117 203.862 561.69 204.029C561.268 204.199 560.848 204.194 560.43 204.014C560.013 203.834 559.318 203.294 558.345 202.393L555.547 199.802L564.188 190.527ZM565.128 194.353L563.207 196.416C563.314 196.508 563.396 196.58 563.453 196.633C563.691 196.853 563.895 196.936 564.067 196.882C564.243 196.824 564.587 196.52 565.099 195.97C565.369 195.679 565.531 195.452 565.584 195.288C565.641 195.12 565.639 194.98 565.58 194.868C565.524 194.759 565.373 194.588 565.128 194.353ZM561.862 197.86L559.444 200.455C559.796 200.759 560.062 200.906 560.243 200.896C560.428 200.889 560.694 200.698 561.043 200.324L561.849 199.459C562.219 199.062 562.401 198.782 562.395 198.62C562.389 198.458 562.211 198.204 561.862 197.86Z" fill="white"/>
<path d="M569.889 195.991L573.792 199.819L572.02 201.616L570.458 200.083L568.78 201.786L570.242 203.22L568.558 204.928L567.096 203.494L565.149 205.468L566.867 207.153L565.096 208.949L561.038 204.969L569.889 195.991Z" fill="white"/>
<path d="M576.337 207.668L574.208 205.455L574.883 204.799C575.199 204.492 575.372 204.268 575.404 204.128C575.436 203.987 575.388 203.851 575.261 203.719C575.123 203.576 574.96 203.523 574.771 203.561C574.586 203.602 574.375 203.738 574.138 203.968C573.834 204.263 573.645 204.527 573.571 204.76C573.493 204.989 573.523 205.394 573.662 205.975C574.055 207.645 574.183 208.813 574.046 209.479C573.91 210.145 573.395 210.912 572.501 211.78C571.852 212.412 571.299 212.8 570.842 212.944C570.389 213.093 569.847 213.05 569.216 212.817C568.588 212.58 567.995 212.171 567.436 211.59C566.822 210.953 566.418 210.291 566.222 209.604C566.031 208.922 566.053 208.33 566.291 207.829C566.528 207.328 566.988 206.746 567.671 206.082L568.268 205.501L570.397 207.714L569.288 208.792C568.947 209.125 568.756 209.368 568.716 209.523C568.681 209.682 568.739 209.841 568.891 210C569.044 210.158 569.218 210.215 569.415 210.17C569.615 210.129 569.837 209.989 570.081 209.752C570.618 209.23 570.898 208.816 570.922 208.508C570.941 208.196 570.86 207.556 570.677 206.588C570.497 205.616 570.403 204.949 570.394 204.585C570.385 204.221 570.475 203.823 570.663 203.392C570.855 202.964 571.193 202.515 571.677 202.045C572.376 201.366 572.971 200.958 573.465 200.822C573.962 200.689 574.493 200.735 575.058 200.959C575.627 201.18 576.183 201.574 576.728 202.14C577.323 202.759 577.73 203.382 577.949 204.009C578.171 204.64 578.197 205.173 578.027 205.608C577.865 206.044 577.422 206.613 576.697 207.318L576.337 207.668Z" fill="white"/>
<path d="M581.521 207.951L572.164 216.423L569.958 213.992L579.315 205.521L581.521 207.951Z" fill="white"/>
<path d="M586.581 213.463L584.674 215.141L583.37 213.678L575.749 220.384L573.554 217.92L581.175 211.214L579.877 209.756L581.783 208.078L586.581 213.463Z" fill="white"/>
<path d="M591.292 219.106L583.538 222.43L580.015 225.358L578.055 223.023L581.578 220.094L586.301 213.159L588.246 215.477C586.655 217.416 585.55 218.681 584.929 219.271C586.085 218.548 587.557 217.72 589.347 216.788L591.292 219.106Z" fill="white"/>
<path d="M615.108 259.099L617.59 263.987L615.342 265.149L614.349 263.192L612.219 264.293L613.149 266.124L611.012 267.229L610.082 265.397L607.613 266.674L608.705 268.825L606.457 269.987L603.877 264.904L615.108 259.099Z" fill="white"/>
<path d="M620.719 270.541L615.168 271.919L609.557 276.523L608.227 273.78C609.206 272.909 610.445 271.947 611.945 270.896C611.189 271.164 610.375 271.426 609.502 271.681L607.504 272.289L606.106 269.406L612.993 267.432L617.524 263.951L618.912 266.813C618.622 267.015 618.148 267.369 617.489 267.874C616.989 268.263 616.525 268.609 616.098 268.911L619.515 268.058L620.719 270.541Z" fill="white"/>
<path d="M623.488 276.776L621.177 277.817L620.378 276.032L611.143 280.193L609.797 277.188L619.033 273.027L618.237 271.249L620.547 270.208L623.488 276.776Z" fill="white"/>
<path d="M623.447 276.869L624.334 279.023C624.925 280.459 625.27 281.453 625.367 282.005C625.467 282.562 625.353 283.093 625.027 283.601C624.707 284.111 624.048 284.571 623.051 284.983C622.141 285.359 621.482 285.499 621.076 285.402C620.669 285.304 620.298 284.936 619.962 284.297C620.06 284.961 620.027 285.449 619.862 285.759C619.697 286.07 619.518 286.293 619.326 286.429C619.141 286.568 618.576 286.832 617.632 287.222L614.546 288.496L613.382 285.67L617.27 284.064C617.896 283.805 618.263 283.594 618.371 283.432C618.48 283.273 618.449 282.985 618.276 282.565L613.001 284.744L611.748 281.701L623.447 276.869ZM622.698 280.739L620.097 281.813C620.238 282.156 620.382 282.375 620.529 282.472C620.683 282.572 621.018 282.516 621.533 282.303L622.176 282.037C622.547 281.884 622.763 281.716 622.823 281.533C622.885 281.356 622.843 281.091 622.698 280.739Z" fill="white"/>
<path d="M626.592 284.038L628.467 289.213L626.086 290.099L625.336 288.028L623.08 288.868L623.782 290.806L621.519 291.649L620.817 289.71L618.201 290.684L619.026 292.962L616.646 293.848L614.696 288.467L626.592 284.038Z" fill="white"/>
<path d="M631.822 299.159L619.913 303.339L618.971 300.63L627.01 297.807L618.594 299.547L617.926 297.626L625.384 293.727L617.529 296.484L616.586 293.775L628.495 289.594L629.891 293.607C629.216 293.976 628.416 294.397 627.491 294.871L624.609 296.362L630.416 295.116L631.822 299.159Z" fill="white"/>
<path d="M632.812 302.381L623.164 305.428L623.763 307.336L621.35 308.098L619.764 303.052L631.825 299.243L632.812 302.381Z" fill="white"/>
<path d="M635.145 310.287L626.756 310.24L622.37 311.52L621.534 308.596L625.921 307.317L633.019 302.842L633.847 305.744C631.617 306.887 630.101 307.605 629.298 307.899C630.64 307.697 632.313 307.526 634.317 307.385L635.145 310.287Z" fill="white"/>
<path d="M630.469 321.692C629.235 321.997 628.352 322.183 627.821 322.25C627.296 322.321 626.781 322.255 626.278 322.052C625.777 321.854 625.346 321.523 624.986 321.059C624.627 320.595 624.359 320.017 624.184 319.325C624.017 318.668 623.974 318.051 624.053 317.473C624.138 316.899 624.356 316.399 624.705 315.975C625.055 315.55 625.475 315.245 625.965 315.059C626.456 314.873 627.333 314.624 628.598 314.311L630.7 313.791C631.935 313.485 632.814 313.297 633.34 313.226C633.871 313.159 634.388 313.225 634.889 313.423C635.393 313.626 635.824 313.959 636.183 314.423C636.543 314.887 636.811 315.465 636.986 316.157C637.153 316.814 637.193 317.43 637.107 318.004C637.028 318.582 636.814 319.083 636.464 319.508C636.115 319.932 635.695 320.238 635.205 320.423C634.714 320.609 633.836 320.859 632.571 321.172L630.469 321.692ZM633.698 317.502C634.27 317.361 634.625 317.238 634.766 317.134C634.912 317.033 634.96 316.884 634.911 316.687C634.868 316.52 634.77 316.408 634.615 316.349C634.467 316.295 634.077 316.346 633.444 316.502L627.707 317.922C626.994 318.098 626.561 318.235 626.408 318.332C626.256 318.434 626.207 318.591 626.261 318.803C626.316 319.02 626.448 319.135 626.655 319.148C626.863 319.161 627.328 319.078 628.052 318.899L633.698 317.502Z" fill="white"/>
<path d="M637.703 320.252L638.38 323.454C638.594 324.466 638.676 325.247 638.628 325.8C638.582 326.357 638.351 326.847 637.936 327.271C637.526 327.694 636.788 328.019 635.721 328.248C634.999 328.402 634.472 328.396 634.139 328.228C633.808 328.065 633.495 327.667 633.202 327.034C633.191 327.812 633.018 328.375 632.683 328.724C632.353 329.071 631.786 329.33 630.984 329.502L629.841 329.747C629.008 329.926 628.37 329.961 627.928 329.854C627.487 329.752 627.149 329.508 626.913 329.123C626.678 328.738 626.424 327.9 626.151 326.609L625.366 322.895L637.703 320.252ZM636.271 323.914L633.527 324.502C633.562 324.638 633.587 324.744 633.603 324.82C633.669 325.136 633.788 325.32 633.959 325.374C634.134 325.426 634.588 325.374 635.319 325.218C635.706 325.135 635.967 325.042 636.105 324.938C636.247 324.833 636.326 324.718 636.342 324.592C636.359 324.471 636.335 324.245 636.271 323.914ZM631.607 324.913L628.155 325.653C628.266 326.102 628.398 326.374 628.551 326.469C628.705 326.569 629.03 326.565 629.528 326.459L630.679 326.212C631.207 326.099 631.515 325.974 631.604 325.839C631.692 325.703 631.693 325.394 631.607 324.913Z" fill="white"/>
<path d="M639.242 327.981L640.215 333.371L637.729 333.828L637.339 331.671L634.983 332.103L635.348 334.123L632.985 334.557L632.62 332.537L629.888 333.039L630.316 335.412L627.83 335.868L626.818 330.263L639.242 327.981Z" fill="white"/>
<path d="M637.732 341.303L637.271 338.285L638.196 338.135C638.628 338.066 638.897 337.982 639.003 337.886C639.11 337.79 639.149 337.652 639.122 337.472C639.092 337.276 638.989 337.14 638.814 337.062C638.64 336.99 638.391 336.98 638.067 337.033C637.651 337.1 637.346 337.207 637.153 337.355C636.958 337.497 636.751 337.844 636.53 338.397C635.892 339.982 635.327 341.006 634.835 341.471C634.342 341.936 633.484 342.267 632.261 342.465C631.372 342.608 630.7 342.609 630.247 342.466C629.794 342.328 629.378 341.984 628.999 341.433C628.625 340.882 628.377 340.21 628.256 339.417C628.123 338.548 628.174 337.777 628.409 337.107C628.644 336.441 629.002 335.972 629.482 335.699C629.961 335.426 630.669 335.215 631.604 335.063L632.422 334.931L632.883 337.95L631.364 338.195C630.896 338.271 630.602 338.361 630.481 338.465C630.361 338.574 630.317 338.736 630.35 338.952C630.383 339.169 630.492 339.314 630.677 339.39C630.864 339.471 631.124 339.484 631.458 339.43C632.193 339.311 632.658 339.133 632.853 338.896C633.048 338.654 633.349 338.086 633.754 337.192C634.166 336.297 634.472 335.7 634.673 335.398C634.875 335.096 635.175 334.824 635.575 334.58C635.976 334.341 636.508 334.168 637.171 334.061C638.127 333.906 638.844 333.914 639.323 334.085C639.803 334.26 640.208 334.601 640.538 335.107C640.873 335.612 641.1 336.25 641.218 337.022C641.347 337.866 641.32 338.606 641.138 339.242C640.957 339.883 640.673 340.332 640.286 340.59C639.904 340.852 639.218 341.063 638.226 341.224L637.732 341.303Z" fill="white"/>
<path d="M641.923 344.42L629.426 346.061L628.975 342.815L641.472 341.174L641.923 344.42Z" fill="white"/>
<path d="M642.731 351.905L640.215 352.185L640.002 350.243L629.943 351.36L629.584 348.09L639.643 346.972L639.431 345.037L641.948 344.758L642.731 351.905Z" fill="white"/>
<path d="M643.486 359.301L635.223 357.55L630.647 357.916L630.397 354.871L634.973 354.505L642.849 351.549L643.097 354.57C640.674 355.241 639.038 355.639 638.189 355.764C639.552 355.839 641.235 356.01 643.238 356.28L643.486 359.301Z" fill="white"/>
<path d="M753.31 25.5542C749.772 23.3619 745.547 22.5569 741.45 23.2945C734.232 24.4167 728.393 31.8328 727.21 39.0971C726.027 46.3615 726.33 68.4579 726.33 68.4579C726.33 68.4579 765.291 68.7764 767.353 68.7764C767.171 58.7367 766.974 40.735 764.715 33.6375C761.56 23.8253 753.31 25.5542 753.31 25.5542Z" fill="#142033"/>
<path d="M770.462 74.9034L768.946 92.632C768.946 92.632 753.401 101.11 746.197 102.641C737.325 101.519 723.873 92.9354 723.873 92.9354C723.873 92.9354 721.704 79.5441 723.115 74.9034C725.344 73.5536 730.394 71.6882 734.914 69.1556C735.111 68.2911 735.354 66.7897 735.566 65.2732C735.915 62.8163 736.203 60.2988 736.203 60.2988L757.223 60.0562C757.374 61.2087 757.526 63.4684 757.753 65.8343C757.89 67.184 758.057 68.5793 758.284 69.8077C759.482 70.3385 770.462 74.9034 770.462 74.9034Z" fill="#F6AA99"/>
<path d="M733.321 76.2379C733.427 76.7839 740.282 78.9374 746.273 78.9374C750.754 78.6623 755.158 77.637 759.3 75.9043L733.321 76.2379Z" fill="#F3877C"/>
<path d="M745.712 101.929C745.97 92.1317 746.03 92.1469 747.001 87.3242C747.897 92.1439 748.404 97.0278 748.518 101.929H745.712Z" fill="#EE6066"/>
<path d="M757.39 60.7537C757.597 62.7101 757.187 64.6823 756.22 66.3951C755.252 68.1079 753.773 69.4758 751.991 70.3081C750.568 70.9847 749.016 71.3468 747.441 71.3697C745.327 71.3569 743.246 70.8368 741.375 69.8531C739.682 68.9565 738.3 67.5679 737.412 65.8704C736.524 64.1729 736.172 62.2462 736.4 60.3442L757.42 60.1016C757.344 60.2532 757.359 60.4959 757.39 60.7537Z" fill="#EE6066"/>
<path d="M758.633 50.1378C758.8 50.0013 761.09 45.2089 763.759 45.0876C766.428 44.9663 766.049 49.0459 765.549 50.2136C765.048 51.3814 764.032 54.6268 761.09 55.5064C759.895 55.4122 758.779 54.8706 757.966 53.9899L758.633 50.1378Z" fill="#F6AA99"/>
<path d="M764.351 49.5763C764.351 49.4095 765.351 46.9981 763.911 46.5432C762.47 46.0882 760.043 49.7128 758.891 50.9109C759.922 50.9109 761.302 50.5621 761.272 51.5327C761.242 52.5033 759.755 53.6407 758.239 53.5649C759.619 54.2322 760.15 54.672 761.151 54.4142C762.151 54.1563 763.183 52.5943 763.183 52.5943C762.834 53.0159 762.384 53.3417 761.874 53.5407C761.365 53.7397 760.813 53.8055 760.271 53.7317C761.894 52.8824 763.122 50.9715 761.97 50.4711C761.631 50.328 761.268 50.2543 760.9 50.2543C760.533 50.2543 760.169 50.328 759.831 50.4711C759.831 50.4711 761.681 48.1507 762.864 47.8626C764.047 47.5744 764.351 49.5763 764.351 49.5763Z" fill="#F3877C"/>
<path d="M761.788 49.7888C761.788 49.7888 762.773 49.7888 762.986 50.3348C763.091 50.6654 763.12 51.0153 763.073 51.3589C763.026 51.7026 762.903 52.0314 762.713 52.3215C764.244 50.9869 764.184 48.9699 761.788 49.7888Z" fill="#F3877C"/>
<path d="M734.171 50.1075C734.004 49.9862 731.714 45.1938 729.044 45.0725C726.375 44.9511 726.754 49.0307 727.255 50.1833C727.755 51.3359 728.772 54.6117 731.714 55.4761C732.911 55.3894 734.029 54.8465 734.838 53.9596L734.171 50.1075Z" fill="#F6AA99"/>
<path d="M728.468 49.5465C728.468 49.3949 727.467 46.9835 728.908 46.6044C730.349 46.2252 732.76 49.774 733.913 50.9569C732.882 50.9569 731.501 50.6081 731.532 51.5787C731.562 52.5493 733.139 53.6868 734.565 53.6261C733.185 54.2782 732.654 54.718 731.638 54.4754C730.622 54.2327 729.606 52.6555 729.606 52.6555C729.954 53.0767 730.405 53.4011 730.915 53.5977C731.425 53.7942 731.977 53.8562 732.518 53.7777C730.895 52.9285 729.666 51.0176 730.834 50.5171C731.17 50.3745 731.531 50.3009 731.896 50.3009C732.261 50.3009 732.622 50.3745 732.957 50.5171C732.957 50.5171 731.107 48.1968 729.924 47.9238C728.741 47.6508 728.468 49.5465 728.468 49.5465Z" fill="#F3877C"/>
<path d="M731.031 49.7587C731.031 49.7587 730.045 49.7587 729.818 50.3047C729.713 50.6379 729.682 50.9901 729.73 51.3363C729.777 51.6824 729.9 52.0138 730.091 52.3066C728.559 50.972 728.62 48.955 731.031 49.7587Z" fill="#F3877C"/>
<path d="M755.812 39.188C757.256 40.1266 758.426 41.4304 759.204 42.9671C759.982 44.5039 760.339 46.2191 760.24 47.9386C760.134 49.6372 760.043 51.4874 760.043 52.3518C760.297 54.6919 760.028 57.0594 759.254 59.2825C757.859 62.8465 752.551 66.2891 746.667 66.3649C744.414 66.5055 742.161 66.0925 740.104 65.162C738.047 64.2315 736.249 62.8117 734.868 61.0266C733.334 58.8144 732.665 56.1163 732.987 53.4437C733.139 51.0627 732.229 45.2543 732.714 43.7074C733.867 40.0676 737.264 39.2942 741.48 38.6572C745.696 38.0202 750.382 36.4885 751.292 35.0933C751.899 36.7615 753.855 37.9292 755.812 39.188Z" fill="#F6AA99"/>
<path d="M748.714 46.3008C750.273 45.6662 751.881 45.159 753.522 44.7842C755.209 44.5299 756.912 44.393 758.617 44.3748C757.253 43.6901 755.76 43.3025 754.235 43.2373C752.57 43.222 750.92 43.5418 749.382 44.1776C749.078 44.8573 748.854 45.5698 748.714 46.3008Z" fill="#321E41"/>
<path d="M749.625 51.2751C749.969 51.308 750.309 51.3741 750.641 51.4723C751.908 51.9019 753.274 51.9494 754.569 51.6087C755.334 51.3353 756.034 50.9055 756.624 50.3468C757.214 49.788 757.681 49.1125 757.996 48.3633C754.189 49.1822 750.231 50.3955 749.625 51.2751Z" fill="#F3877C"/>
<path d="M757.996 48.3631C756.965 49.672 755.531 50.6047 753.916 51.0171C752.856 51.1828 751.777 51.1828 750.716 51.0171C750.372 50.9846 750.026 51.0476 749.716 51.1991H749.625C749.702 50.1566 750.161 49.1792 750.914 48.4541C751.343 48.0486 751.863 47.7522 752.43 47.5896C753.541 47.3171 754.701 47.3171 755.812 47.5896C756.569 47.7575 757.302 48.0172 757.996 48.3631Z" fill="white"/>
<path d="M754.083 50.5321C753.743 50.6126 753.391 50.6244 753.047 50.5669C752.702 50.5094 752.373 50.3838 752.078 50.1973C751.782 50.0109 751.528 49.7674 751.328 49.4811C751.128 49.1949 750.987 48.8716 750.914 48.5302C751.343 48.1248 751.863 47.8283 752.43 47.6658C753.541 47.3933 754.701 47.3933 755.812 47.6658C755.932 48.273 755.822 48.9033 755.502 49.4333C755.182 49.9634 754.676 50.3552 754.083 50.5321Z" fill="#321E41"/>
<path d="M754.447 49.3338C754.447 48.8485 756.677 48.9092 756.601 49.3338C756.525 49.7584 754.462 49.8191 754.447 49.3338Z" fill="white"/>
<path d="M750.716 51.0632C750.372 51.0307 750.026 51.0937 749.716 51.2452H749.625C749.649 50.8886 749.721 50.5368 749.837 50.1987C750.052 50.5566 750.355 50.854 750.716 51.0632Z" fill="#EE6066"/>
<path d="M752.961 47.135C752.02 47.3497 751.18 47.875 750.574 48.6262C749.969 49.3774 749.634 50.3106 749.625 51.2752C749.835 50.4391 750.279 49.6802 750.905 49.0868C751.531 48.4934 752.312 48.09 753.158 47.9236C754.775 47.5357 756.475 47.6903 757.996 48.3634L759.118 47.3928C757.112 46.8386 755.006 46.7504 752.961 47.135Z" fill="#321E41"/>
<path d="M749.716 48.4547C750.406 47.6636 751.321 47.1026 752.339 46.8472C753.714 46.5171 755.134 46.4196 756.54 46.559C755.402 46.0989 754.167 45.927 752.946 46.0585C752.238 46.1182 751.561 46.374 750.99 46.7973C750.42 47.2206 749.978 47.7945 749.716 48.4547Z" fill="#F3877C"/>
<path d="M743.816 46.3008C742.257 45.6662 740.65 45.159 739.009 44.7842C737.322 44.5299 735.619 44.393 733.913 44.3748C735.277 43.6901 736.771 43.3025 738.296 43.2373C739.96 43.222 741.611 43.5418 743.149 44.1776C743.452 44.8573 743.676 45.5698 743.816 46.3008Z" fill="#321E41"/>
<path d="M743.361 51.6389C743.017 51.6718 742.677 51.7378 742.345 51.836C741.072 52.2652 739.702 52.3126 738.402 51.9725C737.638 51.6998 736.94 51.2701 736.352 50.7111C735.764 50.1521 735.3 49.4763 734.99 48.7271C738.721 49.5308 742.679 50.7592 743.361 51.6389Z" fill="#F3877C"/>
<path d="M734.914 48.7122C735.943 50.0267 737.377 50.9649 738.993 51.3813C740.053 51.5471 741.133 51.5471 742.193 51.3813C742.537 51.3504 742.883 51.4133 743.194 51.5633H743.285C743.259 51.2055 743.182 50.8532 743.058 50.5169C742.858 49.8679 742.492 49.2824 741.996 48.8183C741.567 48.4129 741.047 48.1164 740.479 47.9539C739.369 47.6814 738.208 47.6814 737.097 47.9539C736.343 48.1215 735.61 48.3759 734.914 48.7122Z" fill="white"/>
<path d="M738.811 50.8505C739.151 50.9309 739.504 50.9427 739.848 50.8853C740.192 50.8278 740.522 50.7021 740.817 50.5157C741.112 50.3292 741.367 50.0858 741.567 49.7995C741.767 49.5132 741.908 49.19 741.981 48.8486C741.552 48.4432 741.032 48.1467 740.464 47.9842C739.354 47.7117 738.193 47.7117 737.082 47.9842C736.959 48.5917 737.068 49.2236 737.388 49.7545C737.708 50.2854 738.216 50.6766 738.811 50.8505Z" fill="#321E41"/>
<path d="M742.193 51.4269C742.537 51.396 742.883 51.4589 743.194 51.6089H743.285C743.259 51.2511 743.183 50.8988 743.058 50.5625C742.849 50.9201 742.551 51.2178 742.193 51.4269Z" fill="#EE6066"/>
<path d="M739.949 47.4988C740.887 47.7184 741.724 48.245 742.329 48.9951C742.933 49.7452 743.27 50.6758 743.285 51.639C743.077 50.8001 742.634 50.0379 742.008 49.4417C741.382 48.8454 740.6 48.4398 739.752 48.2722C738.132 47.8958 736.435 48.0555 734.914 48.7272L733.792 47.7566C735.797 47.2024 737.904 47.1142 739.949 47.4988Z" fill="#321E41"/>
<path d="M743.179 48.8185C742.501 48.0199 741.588 47.457 740.57 47.2109C739.196 46.8808 737.776 46.7834 736.369 46.9228C737.508 46.4627 738.742 46.2908 739.963 46.4223C740.67 46.4813 741.345 46.737 741.914 47.1606C742.482 47.5841 742.92 48.1585 743.179 48.8185Z" fill="#F3877C"/>
<path d="M740.116 50.0014C740.116 49.5161 742.345 49.5616 742.284 50.0014C742.224 50.4412 740.146 50.4867 740.116 50.0014Z" fill="white"/>
<path d="M744.226 53.8835C744.226 53.8835 745.894 55.5063 746.516 55.5063C747.438 55.0552 748.287 54.4672 749.033 53.7622L746.516 54.7025L744.226 53.8835Z" fill="#EE6066"/>
<path d="M741.845 57.7356C742.337 58.4685 743.023 59.0507 743.826 59.4175C744.629 59.7842 745.518 59.9212 746.394 59.8133C747.367 59.7428 748.31 59.4455 749.148 58.9451C749.985 58.4448 750.694 57.7553 751.217 56.9318C748.07 56.6908 744.905 56.9623 741.845 57.7356Z" fill="#321E41"/>
<path d="M744.453 62.6344C744.743 62.3219 745.092 62.0699 745.479 61.8929C745.867 61.7159 746.286 61.6174 746.712 61.6031C747.143 61.5169 747.589 61.5537 747.999 61.7093C748.409 61.8648 748.768 62.1329 749.033 62.4827C747.528 62.8124 745.976 62.8638 744.453 62.6344Z" fill="#F3877C"/>
<path d="M773.859 76.9658C773.859 76.9658 784.172 82.3648 788.388 89.2955C792.604 96.2262 807.649 120.37 810.864 140.313C812.213 163.289 803.599 191.497 803.599 191.497C803.599 191.497 805.798 203.827 802.75 209.408C799.702 214.989 788.388 220.554 788.388 220.554L773.859 76.9658Z" fill="#F6AA99"/>
<path d="M717.352 78.0425C717.352 78.0425 707.054 83.4415 702.823 90.3722C698.592 97.3029 683.563 121.447 680.363 141.39C679.013 164.366 687.627 192.574 687.627 192.574C687.627 192.574 685.428 204.903 688.476 210.484C691.525 216.065 702.823 221.631 702.823 221.631L717.352 78.0425Z" fill="#F6AA99"/>
<path d="M738.462 350.888C738.265 349.084 737.931 347.234 737.628 345.535C737.628 345.383 737.628 345.232 737.628 345.08V257.316C738.25 242.029 743.179 201.294 743.179 201.294C742.178 186.128 722.963 164.017 698.303 167.46C695.119 188.146 697.803 215.595 702.702 235.705C704.241 241.887 704.104 248.368 702.307 254.48C691.691 290.104 709.496 303.556 713.499 339.272C713.442 342.013 712.691 344.695 711.316 347.067C710.495 348.44 709.472 349.682 708.282 350.752C705.947 352.83 703.93 353.694 698.774 356.818C693.617 359.942 687.703 362.596 687.718 364.932C687.718 364.932 687.824 365.993 689.234 365.993H717.579C721.886 365.993 723.024 362.96 726.239 361.353C729.454 359.745 734.58 362.096 737.674 358.79C738.796 357.592 738.902 354.923 738.629 351.935C738.538 351.495 738.508 351.131 738.462 350.888Z" fill="#F6AA99"/>
<path d="M737.614 358.714C734.58 362.02 729.272 359.73 726.179 361.277C723.085 362.823 721.826 365.917 717.519 365.917C717.519 365.917 720.234 366.327 723.237 362.566C730.076 354.012 734.853 355.893 738.402 350.934C738.402 351.237 738.478 351.54 738.508 351.859C738.812 354.801 738.812 357.47 737.614 358.714Z" fill="#F3877C"/>
<path d="M721.052 354.164C720.167 355.972 718.893 357.562 717.322 358.82C714.652 360.852 711.968 362.172 710.709 363.37C710.057 364.065 709.689 364.979 709.678 365.933H707.449C707.539 364.965 707.896 364.041 708.48 363.263C709.739 361.747 712.059 360.822 714.956 359.002C717.139 357.59 719.181 355.97 721.052 354.164Z" fill="#EE6066"/>
<path d="M713.303 363.354C714.279 363.308 715.257 363.384 716.215 363.582C716.759 363.696 717.326 363.621 717.822 363.369C718.128 363.254 718.404 363.071 718.629 362.835C718.855 362.599 719.025 362.315 719.127 362.004C719.127 360.488 716.412 360.139 713.06 362.808C713.001 362.848 712.958 362.907 712.938 362.976C712.918 363.045 712.923 363.118 712.952 363.183C712.981 363.248 713.032 363.301 713.097 363.332C713.161 363.364 713.234 363.371 713.303 363.354Z" fill="#FFC5BB"/>
<path d="M710.83 359.033C708.48 361.171 704.901 363.067 703.794 364.128C703.231 364.551 702.855 365.177 702.747 365.872H701.413C701.487 365.337 701.675 364.824 701.962 364.367C702.25 363.909 702.631 363.518 703.081 363.218C704.81 362.127 707.646 360.731 710.83 359.033Z" fill="#EE6066"/>
<path d="M705.038 359.033C702.702 361.171 699.123 363.067 698.001 364.128C697.444 364.556 697.07 365.18 696.954 365.872H695.62C695.698 365.337 695.888 364.823 696.178 364.366C696.468 363.909 696.852 363.518 697.303 363.218C699.017 362.127 701.853 360.731 705.038 359.033Z" fill="#EE6066"/>
<path d="M700.033 359.033C697.682 361.171 694.103 363.067 692.981 364.128C692.429 364.561 692.057 365.182 691.934 365.872H690.615C690.689 365.337 690.877 364.824 691.164 364.367C691.452 363.909 691.833 363.518 692.283 363.218C693.997 362.127 696.848 360.731 700.033 359.033Z" fill="#EE6066"/>
<path d="M704.582 364.522C705.399 364.318 706.253 364.318 707.069 364.522C707.069 364.522 708.146 363.37 707.934 363.006C707.721 362.642 705.841 362.551 704.582 364.522Z" fill="#FFC5BB"/>
<path d="M698.577 364.522C699.393 364.318 700.247 364.318 701.064 364.522C701.064 364.522 702.125 363.37 701.913 363.006C701.701 362.642 699.835 362.551 698.577 364.522Z" fill="#FFC5BB"/>
<path d="M693.39 364.522C694.098 364.35 694.836 364.35 695.544 364.522C695.544 364.522 696.469 363.521 696.287 363.203C696.105 362.885 694.482 362.809 693.39 364.522Z" fill="#FFC5BB"/>
<path d="M688.477 364.553C689.189 364.382 689.932 364.382 690.645 364.553C690.645 364.553 691.57 363.567 691.388 363.233C691.206 362.9 689.584 362.854 688.477 364.553Z" fill="#FFC5BB"/>
<path d="M698.714 218.765C696.17 203.161 695.62 187.297 697.076 171.554L698.319 171.706C696.874 187.337 697.419 203.089 699.942 218.583L698.714 218.765Z" fill="#F3877C"/>
<path d="M712.15 247.565C710.527 249.582 713.818 263.231 718.307 262.17C723.418 261.335 727.331 250.249 725.374 247.732C723.646 245.563 714.698 244.365 712.15 247.565Z" fill="#F3877C"/>
<path d="M751.656 350.888C751.869 349.084 752.187 347.234 752.491 345.535C752.491 345.383 752.49 345.232 752.566 345.08V257.316C751.945 242.029 747.016 201.294 747.016 201.294C748.017 186.128 767.232 164.017 791.876 167.46C795.061 188.146 792.376 215.595 787.478 235.705C785.946 241.888 786.082 248.367 787.872 254.48C798.488 290.104 780.699 303.556 776.695 339.272C776.745 342.014 777.496 344.698 778.879 347.067C779.694 348.444 780.717 349.687 781.912 350.752C784.232 352.83 786.249 353.694 791.406 356.818C796.562 359.942 802.507 362.475 802.507 364.78C802.507 364.78 802.416 365.842 800.99 365.842H772.6C768.293 365.842 767.156 362.809 763.956 361.201C760.756 359.594 755.599 361.944 752.521 358.638C751.383 357.44 751.277 354.771 751.55 351.783C751.581 351.495 751.626 351.131 751.656 350.888Z" fill="#F6AA99"/>
<path d="M752.461 358.714C755.494 362.02 760.802 359.73 763.896 361.277C766.989 362.823 768.233 365.917 772.54 365.917C772.54 365.917 769.825 366.327 766.823 362.566C759.983 354.012 755.206 355.893 751.657 350.934C751.657 351.237 751.581 351.54 751.551 351.859C751.278 354.801 751.384 357.47 752.461 358.714Z" fill="#F3877C"/>
<path d="M769.143 354.164C770.04 355.964 771.312 357.552 772.874 358.82C775.543 360.852 778.227 362.172 779.486 363.37C780.142 364.064 780.515 364.978 780.533 365.933H782.762C782.621 365 782.245 364.118 781.67 363.37C780.411 361.853 778.091 360.928 775.179 359.108C773.012 357.659 770.99 356.004 769.143 354.164Z" fill="#EE6066"/>
<path d="M776.817 363.354C775.84 363.308 774.862 363.385 773.905 363.582C773.361 363.695 772.794 363.62 772.297 363.369C771.736 363.081 771.099 362.626 771.008 362.004C771.008 360.488 773.723 360.139 777.075 362.808C777.139 362.847 777.187 362.908 777.209 362.98C777.231 363.052 777.226 363.13 777.193 363.198C777.161 363.266 777.105 363.32 777.035 363.349C776.966 363.378 776.888 363.38 776.817 363.354Z" fill="#FFC5BB"/>
<path d="M779.289 359.033C781.639 361.171 785.218 363.067 786.341 364.128C786.892 364.561 787.265 365.182 787.387 365.872H788.706C788.632 365.337 788.445 364.824 788.157 364.367C787.869 363.909 787.488 363.518 787.038 363.218C785.324 362.127 782.473 360.731 779.289 359.033Z" fill="#EE6066"/>
<path d="M785.082 359.033C787.432 361.171 791.011 363.067 792.118 364.128C792.681 364.551 793.057 365.177 793.165 365.872H794.499C794.422 365.338 794.234 364.826 793.946 364.369C793.659 363.912 793.279 363.52 792.831 363.218C791.102 362.127 788.266 360.731 785.082 359.033Z" fill="#EE6066"/>
<path d="M790.102 359.033C792.437 361.171 796.016 363.067 797.138 364.128C797.695 364.556 798.069 365.18 798.185 365.872H799.474C799.396 365.337 799.205 364.823 798.915 364.366C798.625 363.909 798.242 363.518 797.791 363.218C796.122 362.127 793.286 360.731 790.102 359.033Z" fill="#EE6066"/>
<path d="M785.537 364.522C784.72 364.318 783.866 364.318 783.05 364.522C783.05 364.522 781.988 363.37 782.2 363.006C782.413 362.642 784.308 362.551 785.537 364.522Z" fill="#FFC5BB"/>
<path d="M791.557 364.522C790.736 364.318 789.877 364.318 789.055 364.522C789.055 364.522 787.993 363.37 788.206 363.006C788.418 362.642 790.284 362.551 791.557 364.522Z" fill="#FFC5BB"/>
<path d="M796.729 364.522C796.021 364.35 795.283 364.35 794.575 364.522C794.575 364.522 793.65 363.521 793.832 363.203C794.014 362.885 795.637 362.809 796.729 364.522Z" fill="#FFC5BB"/>
<path d="M801.643 364.553C800.935 364.38 800.197 364.38 799.489 364.553C799.489 364.553 798.564 363.567 798.746 363.233C798.928 362.9 800.551 362.854 801.643 364.553Z" fill="#FFC5BB"/>
<path d="M791.421 218.765C793.96 203.16 794.506 187.296 793.044 171.554L791.815 171.706C793.248 187.338 792.697 203.089 790.177 218.583L791.421 218.765Z" fill="#F3877C"/>
<path d="M777.984 247.565C779.592 249.582 776.301 263.231 771.812 262.17C766.701 261.335 762.712 250.249 764.744 247.732C766.428 245.563 775.421 244.365 777.984 247.565Z" fill="#F3877C"/>
<path d="M790.982 218.765L789.738 218.583C792.258 203.089 792.808 187.338 791.376 171.706L792.62 171.554C794.068 187.297 793.518 203.16 790.982 218.765Z" fill="#F3877C"/>
<path d="M790.632 154.675C772.707 162.5 757.495 167.884 748.881 170.735L745.09 171.979L741.299 170.735C732.684 167.884 717.473 162.5 699.547 154.675C700.258 145.008 702.299 135.485 705.614 126.376C707.13 122.19 708.222 119.597 708.222 119.597L741.329 114.061L745.12 113.424L748.912 114.061L782.003 119.597C782.003 119.597 783.065 122.19 784.445 126.376C787.542 135.553 789.617 145.043 790.632 154.675Z" fill="#F6AA99"/>
<path d="M746.243 137.386C746.243 137.386 743.847 142.361 745.985 146.364C748.882 143.058 746.243 137.386 746.243 137.386Z" fill="#EE6066"/>
<path d="M784.414 126.376H705.553C707.069 122.19 708.161 119.597 708.161 119.597L741.268 114.061L745.059 113.424L748.851 114.061L781.942 119.597C781.942 119.597 783.034 122.129 784.414 126.376Z" fill="#F3877C"/>
<path d="M700.897 154.705H699.639C700.343 144.978 702.384 135.394 705.705 126.224C707.222 122.069 708.329 119.43 708.329 119.399L709.481 119.915C709.481 119.915 708.313 122.539 706.873 126.649C703.595 135.68 701.584 145.122 700.897 154.705Z" fill="#F3877C"/>
<path d="M789.313 154.705C788.62 145.102 786.604 135.64 783.323 126.588C781.806 122.463 780.73 119.87 780.714 119.854L781.867 119.339C781.867 119.339 783.035 122.008 784.491 126.163C787.811 135.333 789.853 144.917 790.557 154.645L789.313 154.705Z" fill="#F3877C"/>
<path d="M699.062 153.977C697.457 160.123 696.622 166.445 696.575 172.797C709.8 176.013 738.023 191.952 743.119 201.279H747.016C747.016 201.279 765.063 178.424 793.196 173.844C792.104 158.147 790.86 153.81 790.86 153.81L699.062 153.977Z" fill="#213555"/>
<path d="M708.192 119.597C708.192 119.597 702.247 102.566 714.956 91.3733C726 90.7744 737.009 93.0693 746.895 98.031C758.496 91.9648 770.477 89.8567 778.348 91.3733C781.082 95.4618 782.833 100.128 783.462 105.006C784.09 109.885 783.581 114.842 781.973 119.49C756.282 119.49 708.192 119.597 708.192 119.597Z" fill="#213555"/>
<path d="M714.956 91.3734L715.896 77.7849L724.344 73.5688L726.239 94.2245L714.956 91.3734Z" fill="#213555"/>
<path d="M778.348 91.3734L777.392 77.7849L768.945 73.5688L767.049 94.2245L778.348 91.3734Z" fill="#213555"/>
<path d="M85.3221 350.267C87.4756 321.876 85.1704 281.369 84.4273 249.521C78.4975 227.076 76.2075 180.032 76.2075 180.032C77.072 172.752 84.9278 151.687 109.178 153.825L109.284 154.083C113.257 163.183 114.653 175.315 114.592 188.312C114.516 205.54 111.877 224.316 109.345 239.785C113.47 252.493 117.595 265.202 115.289 282.355C112.984 299.507 100.958 320.193 101.292 338.346C101.352 340.246 101.668 342.128 102.232 343.942C103.21 347.223 105.129 350.144 107.752 352.344C112.924 356.636 121.25 361.626 122.918 363.157C123.371 363.477 123.755 363.885 124.047 364.357C124.339 364.828 124.532 365.354 124.616 365.902H99.775C93.2234 365.902 95.0585 364.735 92.2983 362.369C90.7817 361.14 88.0064 362.172 85.7012 361.504C83.942 360.974 84.0633 358.395 84.67 354.361C84.8671 353.103 85.1704 351.753 85.3221 350.267Z" fill="#F6AA99"/>
<path d="M105.736 364.674H108.632C108.905 364.674 108.511 363.779 107.495 363.673C106.13 363.536 105.447 364.461 105.736 364.674Z" fill="#FFC5BB"/>
<path d="M111.377 364.674H114.273C114.561 364.674 114.152 363.779 113.151 363.673C111.786 363.536 111.104 364.461 111.377 364.674Z" fill="#FFC5BB"/>
<path d="M116.412 364.674H119.309C119.597 364.674 119.187 363.931 118.186 363.855C116.821 363.734 116.124 364.492 116.412 364.674Z" fill="#FFC5BB"/>
<path d="M121.113 364.674H123.752C124.01 364.674 123.646 363.931 122.736 363.855C121.477 363.734 120.855 364.492 121.113 364.674Z" fill="#FFC5BB"/>
<path d="M85.7012 361.474C88.0064 362.141 90.7665 361.216 92.2982 362.339C89.1286 358.972 88.977 355.014 84.7154 354.331C84.0633 358.365 83.942 360.943 85.7012 361.474Z" fill="#F3877C"/>
<path d="M98.6373 356.909C98.3562 356.872 98.0708 356.926 97.8223 357.063C97.5739 357.199 97.3752 357.411 97.2553 357.668C97.1353 357.925 97.1003 358.213 97.1551 358.491C97.21 358.769 97.352 359.022 97.5605 359.214L97.697 359.321C99.5497 360.635 101.294 362.096 102.914 363.688C103.404 364.315 103.69 365.077 103.733 365.872H105.614C105.554 365.216 105.336 364.583 104.98 364.029C104.624 363.474 104.139 363.014 103.566 362.687C102.125 361.611 98.3643 359.199 97.8942 358.138C97.5909 357.44 98.6373 356.97 98.6373 356.97V356.909Z" fill="#EE6066"/>
<path d="M101.246 364.037H96.3475C96.2339 363.846 96.1732 363.629 96.1719 363.407C96.1706 363.185 96.2286 362.967 96.34 362.775C96.4514 362.583 96.6121 362.425 96.8054 362.316C96.9987 362.207 97.2176 362.152 97.4394 362.156C98.194 361.963 98.9926 362.047 99.6908 362.392C100.389 362.737 100.941 363.32 101.246 364.037Z" fill="#FFC5BB"/>
<path d="M101.731 358.107C101.731 358.107 101.731 359.533 105.022 361.519C107.51 363.036 109.754 364.552 110.088 365.872H112.135C111.237 364.582 110.087 363.488 108.753 362.657C106.145 360.913 102.687 359.775 101.731 358.107Z" fill="#EE6066"/>
<path d="M108.875 359.851C109.648 360.564 112.939 362.884 114.183 363.87C114.835 364.381 115.317 365.08 115.563 365.872H116.852C116.275 363.415 112.469 361.747 108.875 359.851Z" fill="#EE6066"/>
<path d="M113.591 359.851C114.349 360.564 117.655 362.884 118.899 363.87C119.546 364.387 120.026 365.083 120.279 365.872H121.568C120.992 363.415 117.14 361.747 113.591 359.851Z" fill="#EE6066"/>
<path d="M93.1018 179.304C93.7236 183.414 99.5776 189.434 106.872 190.071C109.578 190.334 112.294 189.688 114.592 188.236C114.592 175.27 113.257 163.167 109.284 154.007C105.507 154.538 101.079 155.721 98.789 158.254C94.5274 163.076 92.4649 175.209 93.1018 179.304Z" fill="#F3877C"/>
<path d="M103.566 240.756C105.189 242.773 101.898 256.422 97.409 255.375C92.2982 254.526 88.3854 243.44 90.3418 240.922C92.0252 238.754 101.018 237.571 103.566 240.756Z" fill="#F3877C"/>
<path d="M80.7725 4.29189C80.4692 4.29189 77.0721 -1.89571 67.2599 0.591457C60.3444 2.33551 55.6127 7.6435 53.6108 17.0159C52.3672 22.8092 52.6553 35.791 51.7454 39.2488C50.8355 42.7066 48.5758 43.935 47.6658 46.8316C46.7559 49.7283 49.2886 51.0173 47.3625 53.0495C45.4365 55.0817 42.6763 55.8097 42.464 60.2836C42.3729 61.5171 42.6667 62.7484 43.3051 63.8078C43.9434 64.8672 44.8948 65.7024 46.0279 66.1982H102.141C102.141 66.1982 104.583 60.1319 103.369 57.3263C102.156 54.5206 99.5931 55.4002 99.396 52.7766C99.1988 50.1529 100.306 49.1065 99.1837 46.7103C98.0614 44.3141 95.7865 45.0572 95.1344 42.5094C94.4823 39.9616 95.4074 21.9751 93.7088 14.1799C92.1923 7.14303 86.0957 3.07863 80.7725 4.29189Z" fill="#142033"/>
<path d="M106.69 136.582C106.69 136.582 96.0745 142.845 76.0558 143.907C63.4836 144.377 50.968 141.997 39.4458 136.946L40.6894 117.731L41.4477 106.038L104.522 104.961L105.386 117.731L106.69 136.582Z" fill="#F6AA99"/>
<path d="M105.386 117.731H40.6895L41.4477 106.023L104.522 104.961L105.386 117.731Z" fill="#F3877C"/>
<path d="M73.5231 121.75C73.5231 121.75 71.1118 126.724 73.2502 130.728C76.162 127.407 73.5231 121.75 73.5231 121.75Z" fill="#EE6066"/>
<path d="M62.1034 350.266C59.9498 321.876 62.2702 281.429 62.9981 249.445C68.9279 227 71.2179 179.956 71.2179 179.956C70.3535 172.676 62.4977 151.611 38.2477 153.749L38.1568 153.977C34.1682 163.076 32.7881 175.209 32.8488 188.206C32.8488 205.434 35.5634 224.209 38.0961 239.678C33.971 252.387 29.846 265.096 32.1511 282.248C34.4563 299.4 46.4827 320.086 46.1491 338.24C46.0891 340.139 45.7728 342.021 45.2088 343.836C44.232 347.129 42.3067 350.062 39.6733 352.268C34.5018 356.56 26.1759 361.549 24.5076 363.081C24.0545 363.401 23.6706 363.809 23.3787 364.281C23.0869 364.752 22.8931 365.278 22.8091 365.826H47.6505C54.202 365.826 52.367 364.658 55.1271 362.293C56.6437 361.064 59.419 362.095 61.7242 361.428C63.4834 360.897 63.3621 358.319 62.7555 354.285C62.5583 353.102 62.2095 351.752 62.1034 350.266Z" fill="#F6AA99"/>
<path d="M41.6903 364.674H38.7936C38.5206 364.674 38.9149 363.779 39.931 363.673C41.296 363.536 41.9784 364.461 41.6903 364.674Z" fill="#FFC5BB"/>
<path d="M36.0484 364.674H33.1517C32.8636 364.674 33.2731 363.779 34.274 363.673C35.6389 363.536 36.3214 364.461 36.0484 364.674Z" fill="#FFC5BB"/>
<path d="M31.0137 364.674H28.1171C27.8289 364.674 28.2384 363.931 29.2393 363.855C30.5739 363.734 31.2867 364.492 31.0137 364.674Z" fill="#FFC5BB"/>
<path d="M26.3125 364.674H23.6736C23.4158 364.674 23.7798 363.931 24.6897 363.855C26.0243 363.734 26.5703 364.492 26.3125 364.674Z" fill="#FFC5BB"/>
<path d="M61.7245 361.474C59.4193 362.141 56.6592 361.216 55.1274 362.339C58.2971 358.972 58.4487 355.014 62.7103 354.331C63.3624 358.365 63.4837 360.943 61.7245 361.474Z" fill="#F3877C"/>
<path d="M48.7726 356.909C49.0536 356.872 49.3391 356.926 49.5875 357.063C49.836 357.199 50.0346 357.411 50.1546 357.668C50.2745 357.925 50.3096 358.213 50.2547 358.491C50.1998 358.769 50.0579 359.022 49.8493 359.214L49.7128 359.321C47.8602 360.635 46.1156 362.096 44.4958 363.688C43.9983 364.311 43.7116 365.076 43.6769 365.872H41.8115C41.8712 365.216 42.0886 364.583 42.445 364.029C42.8015 363.474 43.2865 363.014 43.8589 362.687C45.3755 361.611 49.0607 359.199 49.5309 358.138C49.8342 357.44 48.7877 356.97 48.7877 356.97L48.7726 356.909Z" fill="#EE6066"/>
<path d="M46.1797 364.037H51.0782C51.1919 363.847 51.2525 363.629 51.2538 363.407C51.2551 363.185 51.1971 362.967 51.0857 362.775C50.9743 362.584 50.8136 362.425 50.6203 362.316C50.427 362.207 50.2081 362.152 49.9863 362.157C48.1664 361.884 46.4072 362.794 46.1797 364.037Z" fill="#FFC5BB"/>
<path d="M45.7397 358.107C45.7397 358.107 45.7397 359.533 42.4487 361.519C39.9616 363.036 37.717 364.552 37.3834 365.872H35.2905C36.1853 364.585 37.3304 363.491 38.6573 362.657C41.281 360.913 44.7387 359.775 45.7397 358.107Z" fill="#EE6066"/>
<path d="M38.5514 359.851C37.7779 360.564 34.487 362.884 33.2282 363.87C32.5781 364.381 32.1015 365.08 31.8633 365.872H30.5742C31.1505 363.415 35.0026 361.747 38.5514 359.851Z" fill="#EE6066"/>
<path d="M33.8345 359.851C33.0763 360.564 29.7701 362.884 28.5266 363.87C27.8792 364.387 27.3991 365.083 27.1465 365.872H25.8726C26.4337 363.415 30.2858 361.747 33.8345 359.851Z" fill="#EE6066"/>
<path d="M54.3233 179.304C53.7015 183.414 47.8324 189.434 40.5528 190.056C37.8485 190.331 35.1301 189.691 32.8335 188.236C32.8335 175.27 34.1529 163.167 38.1415 154.007C41.9177 154.538 46.3461 155.721 48.6361 158.254C52.8977 163.076 54.9602 175.209 54.3233 179.304Z" fill="#F3877C"/>
<path d="M43.8589 240.756C42.2362 242.773 45.5272 256.422 50.0162 255.375C55.127 254.526 59.1156 243.44 57.0834 240.922C55.4 238.754 46.4068 237.571 43.8589 240.756Z" fill="#F3877C"/>
<path d="M38.6421 135.323L107.722 135.642L111.68 158.39C111.68 158.39 87.6879 163.85 76.2075 180.032H71.218C71.218 180.032 56.7196 160.695 36.3369 159.922C37.3833 140.98 38.6421 135.323 38.6421 135.323Z" fill="#213555"/>
<path d="M95.2251 56.5679C95.2251 56.5679 108.04 60.42 113.682 67.9725C119.323 75.525 142.633 101.155 145.196 119.733C144.559 129.985 126.497 156.752 116.624 169.052C107.145 161.757 106.508 161.363 106.508 161.363L120.976 119.475C109.193 100.002 104.097 92.0859 104.097 92.0859C104.097 92.0859 95.483 88.2187 93.5721 81.4699C91.6612 74.7212 92.7531 57.0835 95.2251 56.5679Z" fill="#F6AA99"/>
<path d="M109.087 159.27C105.59 159.951 102.167 160.966 98.8655 162.303C96.9698 163.425 95.2106 170.295 94.4826 171.296C93.7547 172.297 91.95 173.617 92.132 174.436C92.3139 175.255 94.2703 175.27 95.893 174.163C97.5158 173.056 110.71 164.214 109.087 159.27Z" fill="#EE6066"/>
<path d="M92.7531 180.532C93.2839 181.245 93.7085 181.7 95.0734 180.138C95.9227 179.167 97.8336 175.588 99.4867 172.904C100.103 171.915 101.001 171.134 102.065 170.66C102.143 170.621 102.232 170.609 102.318 170.626C102.403 170.643 102.481 170.688 102.538 170.754C102.595 170.82 102.629 170.903 102.634 170.99C102.639 171.077 102.615 171.164 102.565 171.236C100.321 175.042 96.8175 181.67 96.9692 182.125C97.227 182.838 98.3796 182.959 99.335 182.034C99.9113 181.488 102.929 177.484 104.901 174.815C104.98 174.706 105.093 174.626 105.222 174.587C105.351 174.548 105.489 174.552 105.616 174.598C105.742 174.644 105.851 174.73 105.924 174.843C105.998 174.956 106.032 175.09 106.023 175.224C106.036 175.34 106.036 175.457 106.023 175.573C105.72 176.832 100.897 185.203 101.61 185.856C103.809 187.888 107.054 181.503 108.465 179.198C108.973 178.029 109.74 176.992 110.709 176.165C110.775 176.107 110.86 176.075 110.947 176.075C111.035 176.075 111.119 176.106 111.186 176.163C111.252 176.22 111.296 176.3 111.308 176.386C111.321 176.473 111.302 176.561 111.255 176.635C109.557 180.032 105.856 185.825 106.478 186.341C107.661 187.296 109.511 185.355 111.953 181.882C114.311 178.453 116.246 174.751 117.716 170.857C118.377 169.115 118.415 167.198 117.823 165.432C117.232 163.665 116.047 162.158 114.47 161.166C112.83 160.152 110.996 159.491 109.087 159.225C103.688 159.513 98.4706 166.459 97.8336 167.733C96.2412 170.842 92.3436 179.365 92.7531 180.532Z" fill="#F6AA99"/>
<path d="M49.9709 55.9307C49.9709 55.9307 37.1559 59.7828 31.5143 67.3353C25.8727 74.8878 2.563 100.518 0 119.096C0.636959 129.348 18.6993 156.115 28.5721 168.415C38.0507 161.12 38.6877 160.726 38.6877 160.726L24.2196 118.838C36.0033 99.3652 41.099 91.4487 41.099 91.4487C41.099 91.4487 49.7131 87.5814 51.624 80.8327C53.5349 74.084 52.3974 56.4463 49.9709 55.9307Z" fill="#F6AA99"/>
<path d="M36.1097 159.209C39.6064 159.89 43.0294 160.906 46.3313 162.243C50.2289 164.548 47.9692 167.535 50.7142 171.236C51.4573 172.222 53.2469 173.556 53.0649 174.375C52.8829 175.194 50.9265 175.209 49.3038 174.102C47.6811 172.995 34.4869 164.138 36.1097 159.209Z" fill="#EE6066"/>
<path d="M52.4733 180.472C51.9425 181.184 51.5179 181.639 50.153 180.077C49.3037 179.107 47.3928 175.527 45.7398 172.843C45.1063 171.872 44.1983 171.112 43.1313 170.659C43.0531 170.62 42.9642 170.609 42.8786 170.626C42.7929 170.643 42.7154 170.688 42.6582 170.754C42.6009 170.82 42.5672 170.903 42.5622 170.99C42.5573 171.077 42.5814 171.164 42.6308 171.236C44.8753 175.027 48.3786 181.67 48.2269 182.125C47.9691 182.837 46.8165 182.959 45.8611 182.034C45.2848 181.488 42.2668 177.484 40.2953 174.8C40.2152 174.689 40.1009 174.608 39.9702 174.569C39.8395 174.53 39.6995 174.535 39.5719 174.583C39.4443 174.631 39.3361 174.72 39.264 174.836C39.1919 174.952 39.16 175.088 39.173 175.224C39.1596 175.34 39.1596 175.457 39.173 175.573C39.4763 176.832 44.299 185.203 43.5862 185.855C41.3872 187.888 38.1418 181.503 36.7313 179.198C36.0604 177.73 35.1536 176.383 34.047 175.209C33.9786 175.168 33.8989 175.149 33.8193 175.156C33.7397 175.163 33.6643 175.194 33.6038 175.246C33.5432 175.298 33.5007 175.368 33.4823 175.446C33.4638 175.524 33.4704 175.605 33.5011 175.679C35.2148 179.076 39.3398 185.764 38.718 186.295C37.5351 187.251 35.6849 185.309 33.2432 181.836C30.885 178.407 28.9499 174.705 27.4803 170.811C26.8212 169.067 26.7842 167.149 27.3755 165.38C27.9668 163.612 29.1501 162.102 30.7257 161.105C32.3702 160.102 34.2024 159.447 36.1096 159.179C38.8545 158.527 46.7255 166.413 47.3625 167.687C48.9549 170.781 52.8525 179.304 52.4733 180.472Z" fill="#F6AA99"/>
<path d="M93.0868 80.3325C93.0868 80.3325 77.9211 88.9163 72.7496 89.068C67.5781 89.2196 52.4883 81.8339 52.4883 81.8339C52.4883 81.8339 52.8826 69.5194 54.7025 54.4295C58.5242 52.913 62.8161 50.8504 64.1659 49.1822C64.8483 48.3178 65.1365 45.6183 65.2426 43.1159C65.3488 40.6136 65.2426 38.6876 65.2426 38.6876L81.0604 38.1416C81.0604 38.1416 80.9694 41.0534 81.1969 44.0562C81.3789 46.5737 81.7884 49.1519 82.7135 50.1225C84.6244 52.2608 91.6157 54.6722 91.6157 54.6722L93.0868 80.3325Z" fill="#F6AA99"/>
<path d="M74.5547 87.142C74.4757 82.8727 74.1262 78.6128 73.5082 74.3877C72.88 78.6087 72.6162 82.8758 72.7196 87.142H74.5547Z" fill="#EE6066"/>
<path d="M81.2273 44.1319C78.998 46.3309 76.1316 48.4996 73.4928 48.4996C69.7924 48.4996 66.7441 45.2087 65.2427 43.1916C65.3337 40.8561 65.2427 38.7633 65.2427 38.7633L81.0605 38.2173C81.0605 38.2173 80.9998 41.1291 81.2273 44.1319Z" fill="#EE6066"/>
<path d="M60.1475 56.7955C64.3171 58.1497 68.6566 58.9104 73.0383 59.0552C77.4861 58.8413 81.8794 57.983 86.0808 56.5073L60.1475 56.7955Z" fill="#F3877C"/>
<path d="M56.9622 52.5942V57.1439C56.8784 62.2645 58.1694 67.3138 60.7007 71.7657C63.2321 76.2176 66.9112 79.9091 71.3545 82.4555C72.0369 82.8346 72.6587 83.2289 73.2199 83.5929C73.3282 83.6634 73.4546 83.7009 73.5838 83.7009C73.7131 83.7009 73.8395 83.6634 73.9478 83.5929C78.3762 81.0009 82.0254 77.2647 84.5124 72.7764C86.9993 68.2882 88.2324 63.2132 88.0822 58.0842L87.9154 52.6549L96.393 56.2188C96.393 56.2188 95.6651 80.5901 104.173 92.0098L106.645 112.12H39.916L41.1293 91.8885C41.1293 91.8885 48.1055 84.5635 48.515 56.0217C52.458 54.7781 56.9622 52.5942 56.9622 52.5942Z" fill="#213555"/>
<path d="M61.4815 26.8126C61.3147 26.6912 59.0247 21.8989 56.3555 21.7776C53.6864 21.6562 54.0655 25.7358 54.566 26.8884C55.0665 28.041 56.0826 31.3168 59.0247 32.1812C60.2219 32.0944 61.3401 31.5516 62.1488 30.6646L61.4815 26.8126Z" fill="#F6AA99"/>
<path d="M55.7642 26.2516C55.7642 26.0999 54.7633 23.6886 56.204 23.3094C57.6448 22.9303 60.0713 26.4791 61.2239 27.662C60.1926 27.662 58.8125 27.3132 58.8429 28.299C58.8732 29.2847 60.4504 30.3918 61.876 30.3312C60.5111 30.9833 59.9651 31.4231 58.9642 31.1804C57.9633 30.9378 56.932 29.3606 56.932 29.3606C57.2803 29.7817 57.7311 30.1062 58.241 30.3028C58.751 30.4993 59.3029 30.5613 59.8438 30.4828C58.2211 29.6335 56.9927 27.7227 58.1452 27.2222C58.4835 27.0791 58.8471 27.0054 59.2144 27.0054C59.5817 27.0054 59.9453 27.0791 60.2836 27.2222C60.2836 27.2222 58.4334 24.9019 57.2505 24.6289C56.0675 24.3559 55.7642 26.2516 55.7642 26.2516Z" fill="#F3877C"/>
<path d="M58.3276 26.4638C58.3276 26.4638 57.3418 26.4638 57.1295 27.0098C57.0244 27.3429 56.9943 27.6952 57.0415 28.0413C57.0887 28.3875 57.212 28.7188 57.4024 29.0117C55.8707 27.6771 55.9314 25.66 58.3276 26.4638Z" fill="#F3877C"/>
<path d="M85.5042 26.8126C85.671 26.6912 87.961 21.8989 90.6302 21.7776C93.2994 21.6562 92.9202 25.7358 92.4198 26.8884C91.9193 28.041 90.9032 31.3168 87.961 32.1812C86.7639 32.0944 85.6456 31.5516 84.8369 30.6646L85.5042 26.8126Z" fill="#F6AA99"/>
<path d="M91.2368 26.2516C91.2368 26.0999 92.2377 23.6886 90.797 23.3094C89.3562 22.9303 86.9449 26.4791 85.7771 27.662C86.8236 27.662 88.2036 27.3132 88.1581 28.299C88.1126 29.2847 86.6416 30.3918 85.125 30.3312C86.5051 30.9833 87.0359 31.4231 88.0368 31.1804C89.0377 30.9378 90.0842 29.3606 90.0842 29.3606C89.7335 29.783 89.2801 30.1081 88.7675 30.3046C88.2549 30.5012 87.7004 30.5625 87.1572 30.4828C88.7951 29.6335 90.0235 27.7227 88.8558 27.2222C88.5172 27.08 88.1538 27.0067 87.7866 27.0067C87.4194 27.0067 87.0559 27.08 86.7174 27.2222C86.7174 27.2222 88.5676 24.9019 89.7505 24.6289C90.9334 24.3559 91.2368 26.2516 91.2368 26.2516Z" fill="#F3877C"/>
<path d="M88.6436 26.4638C88.6436 26.4638 89.6293 26.4638 89.8416 27.0098C89.95 27.3425 89.9817 27.6953 89.9345 28.042C89.8872 28.3887 89.7621 28.7202 89.5687 29.0117C91.1004 27.6771 91.0397 25.66 88.6436 26.4638Z" fill="#F3877C"/>
<path d="M60.0562 22.2329C60.0562 22.2329 60.1623 30.8319 61.5727 34.9721C62.8315 38.8697 66.7442 42.5549 72.3404 44.1777C73.0591 44.3821 73.8206 44.3821 74.5394 44.1777C76.843 43.5641 78.9857 42.457 80.8188 40.9328C82.6519 39.4087 84.1316 37.5042 85.1554 35.3512C86.308 31.0352 86.9243 26.5936 86.9904 22.1268C84.8672 18.7448 78.1185 16.5306 77.7393 13.0273C75.2977 15.8785 60.3443 16.2576 60.0562 22.2329Z" fill="#F6AA99"/>
<path d="M75.4043 24.1135C76.7335 23.5934 78.103 23.1825 79.499 22.885C80.93 22.6696 82.3742 22.553 83.8213 22.5362C82.6647 21.9573 81.398 21.6316 80.1057 21.5808C78.6912 21.5592 77.2873 21.8276 75.9806 22.3694C75.7266 22.9284 75.5334 23.5132 75.4043 24.1135Z" fill="#321E41"/>
<path d="M76.2681 25.9032C76.8465 25.2293 77.6204 24.7523 78.4823 24.5382C79.6773 24.2462 80.914 24.1641 82.1372 24.2956C81.1759 23.9089 80.1346 23.7631 79.1041 23.871C78.4854 23.8989 77.8881 24.1058 77.3847 24.4666C76.8813 24.8273 76.4934 25.3263 76.2681 25.9032Z" fill="#F3877C"/>
<path d="M76.1772 28.3143C76.4699 28.3342 76.7597 28.385 77.0417 28.466C78.1216 28.8405 79.2891 28.8828 80.3933 28.5873C81.0414 28.3537 81.6336 27.9875 82.1323 27.5123C82.6311 27.0371 83.0253 26.4632 83.29 25.8271C80.0597 26.5854 76.6929 27.556 76.1772 28.3143Z" fill="#F3877C"/>
<path d="M83.29 25.8269C82.4088 26.9408 81.1902 27.739 79.817 28.1018C78.9179 28.2458 78.0015 28.2458 77.1024 28.1018C76.8109 28.077 76.518 28.1293 76.2531 28.2534H76.1772C76.2 27.9437 76.2611 27.6381 76.3592 27.3435C76.5303 26.7695 76.8433 26.248 77.2692 25.8269C77.6495 25.4811 78.1071 25.2314 78.6038 25.099C79.5455 24.87 80.5283 24.87 81.4701 25.099C82.1056 25.2619 82.7174 25.5066 83.29 25.8269Z" fill="white"/>
<path d="M79.969 27.6622C79.6801 27.7315 79.3802 27.7424 79.087 27.6941C78.7938 27.6459 78.5132 27.5395 78.2617 27.3813C78.0102 27.223 77.7928 27.0161 77.6225 26.7726C77.4521 26.5292 77.3321 26.2541 77.2695 25.9636C77.6498 25.6178 78.1075 25.3682 78.6041 25.2357C79.5458 25.0067 80.5287 25.0067 81.4704 25.2357C81.5773 25.7554 81.4813 26.2963 81.2021 26.7474C80.923 27.1986 80.4818 27.5259 79.969 27.6622Z" fill="#321E41"/>
<path d="M79.0132 24.7806C78.2133 24.9673 77.499 25.4169 76.9849 26.0576C76.4707 26.6982 76.1863 27.4928 76.1772 28.3143C76.3506 27.5939 76.7295 26.9394 77.268 26.4306C77.8066 25.9217 78.4814 25.5803 79.2104 25.4479C80.585 25.1216 82.0286 25.2547 83.3203 25.8271L84.2757 24.993C82.5605 24.5229 80.7607 24.4503 79.0132 24.7806Z" fill="#321E41"/>
<path d="M82.1377 26.2366C82.1377 25.8271 80.242 25.8726 80.3027 26.2366C80.3634 26.6006 82.1377 26.5854 82.1377 26.2366Z" fill="white"/>
<path d="M71.2329 24.1135C69.9083 23.5948 68.544 23.184 67.1533 22.885C65.7172 22.6694 64.268 22.5528 62.8159 22.5362C63.9771 21.9552 65.2492 21.6294 66.5467 21.5808C67.9611 21.5592 69.365 21.8276 70.6717 22.3694C70.9252 22.9273 71.1134 23.5125 71.2329 24.1135Z" fill="#321E41"/>
<path d="M70.7934 28.6175C70.5007 28.6374 70.2109 28.6883 69.9289 28.7692C68.8488 29.1429 67.6817 29.1851 66.5773 28.8905C65.926 28.6595 65.3304 28.2945 64.8289 27.8191C64.3273 27.3437 63.931 26.7684 63.6655 26.1304C66.9716 26.828 70.2778 27.8593 70.7934 28.6175Z" fill="#F3877C"/>
<path d="M63.6655 26.1304C64.5482 27.2395 65.7669 28.0324 67.1385 28.3901C68.0377 28.5329 68.9539 28.5329 69.8531 28.3901C70.1483 28.3586 70.4465 28.4057 70.7176 28.5266C70.6941 28.2206 70.6277 27.9194 70.5204 27.6319C70.3518 27.0568 70.0385 26.5347 69.6105 26.1153C69.2342 25.772 68.7821 25.5226 68.2911 25.3873C67.3431 25.1678 66.3575 25.1678 65.4096 25.3873C64.8007 25.5647 64.2152 25.8142 63.6655 26.1304Z" fill="white"/>
<path d="M66.9716 27.9809C67.2617 28.0522 67.5632 28.0641 67.858 28.0158C68.1529 27.9676 68.4349 27.8602 68.6871 27.7001C68.9393 27.54 69.1565 27.3305 69.3256 27.0842C69.4947 26.838 69.6122 26.56 69.6711 26.2671C69.2948 25.9239 68.8427 25.6744 68.3517 25.5392C67.4038 25.3196 66.4182 25.3196 65.4702 25.5392C65.3702 26.0602 65.4688 26.5997 65.7467 27.0516C66.0246 27.5035 66.4616 27.835 66.9716 27.9809Z" fill="#321E41"/>
<path d="M69.853 28.4355C70.1482 28.404 70.4464 28.4511 70.7175 28.572C70.694 28.266 70.6276 27.9648 70.5203 27.6772C70.3626 27.9803 70.1336 28.2406 69.853 28.4355Z" fill="#EE6066"/>
<path d="M67.9573 25.0687C68.7573 25.2554 69.4715 25.705 69.9857 26.3457C70.4999 26.9863 70.7842 27.7809 70.7933 28.6023C70.62 27.882 70.241 27.2275 69.7025 26.7186C69.164 26.2097 68.4892 25.8684 67.7602 25.736C66.3848 25.4207 64.9447 25.5535 63.6503 26.1152L62.6948 25.2962C64.4087 24.8201 66.2088 24.7422 67.9573 25.0687Z" fill="#321E41"/>
<path d="M70.702 26.2064C70.1235 25.5325 69.3497 25.0555 68.4878 24.8415C67.316 24.566 66.107 24.484 64.9087 24.5988C65.87 24.2121 66.9113 24.0663 67.9418 24.1742C68.5457 24.2216 69.1243 24.437 69.6121 24.7962C70.0999 25.1553 70.4774 25.6438 70.702 26.2064Z" fill="#F3877C"/>
<path d="M68.0938 27.2221C68.0938 26.8126 69.9895 26.843 69.9288 27.2221C69.8681 27.6013 68.1089 27.6316 68.0938 27.2221Z" fill="white"/>
<path d="M70.5811 30.6654C70.7024 30.7564 72.5829 32.3032 73.7659 32.2729C74.9488 32.2426 76.6928 30.4985 76.6928 30.4985C75.7547 30.8864 74.7788 31.1761 73.781 31.363C72.6936 31.2386 71.6215 31.0049 70.5811 30.6654Z" fill="#EE6066"/>
<path d="M69.0796 34.6839C70.637 35.8034 72.5608 36.2911 74.4634 36.0488C75.344 35.9147 76.1865 35.597 76.9363 35.1162C77.6862 34.6355 78.3265 34.0025 78.816 33.2583C75.8675 34.9475 72.3886 35.4569 69.0796 34.6839Z" fill="#EE6066"/>
<path d="M72.0518 37.6716C72.8275 37.908 73.6469 37.9651 74.4479 37.8384C75.1827 37.7125 75.8843 37.4391 76.5105 37.0347C76.3087 37.4367 76.0133 37.7844 75.6491 38.0483C75.2848 38.3122 74.8625 38.4847 74.4176 38.5512C73.9816 38.6059 73.5388 38.5544 73.1269 38.4013C72.715 38.2482 72.3462 37.9978 72.0518 37.6716Z" fill="#F3877C"/>
<path d="M392.094 358.32L391.866 357.774C390.259 354.164 388.651 350.54 387.074 346.915C387.65 343.882 388.196 341.016 388.772 338.058L389.697 337.058L404.863 320.375L405.424 319.769L409.746 315.022L411.096 313.505L422.213 301.373L449.253 286.48L452.119 284.963L458.701 281.369L460.005 280.641L467.71 276.395L525.931 244.289L483.315 298.188L480.873 301.221L477.097 305.983L474.549 309.198L472.593 311.701L471.926 312.55L455.243 333.569L439.365 344.913C430.599 351.177 421.758 357.471 412.931 363.795L401.254 364.386L400.617 363.977L392.094 358.32Z" fill="#191919"/>
<path d="M392.094 358.32L391.866 357.774C390.259 354.165 388.651 350.54 387.074 346.915C387.65 343.882 388.196 341.016 388.772 338.059L389.697 337.058L404.863 320.375L405.424 319.769L409.746 315.022L410.869 313.793L453.848 290.12L456.047 288.907L457.397 288.164L462.068 285.6L465.511 283.69L470.834 280.747L505.063 261.881L479.478 294.366L478.659 295.382L473.548 301.888L472.32 303.405L469.469 306.984L469.272 307.242L439.426 344.913C430.66 351.177 421.818 357.471 412.992 363.795L401.314 364.386L400.677 363.977L392.094 358.32Z" fill="#474747"/>
<path d="M417.996 358.835C415.328 361.09 412.051 362.503 408.58 362.895C405.108 363.288 401.599 362.643 398.494 361.041C395.389 359.44 392.829 356.954 391.137 353.898C389.445 350.842 388.697 347.353 388.987 343.871C389.277 340.39 390.593 337.073 392.768 334.339C394.943 331.606 397.879 329.578 401.206 328.513C404.533 327.448 408.102 327.393 411.46 328.355C414.818 329.317 417.816 331.253 420.074 333.918C421.577 335.689 422.716 337.739 423.425 339.951C424.134 342.163 424.4 344.493 424.207 346.808C424.014 349.123 423.366 351.377 422.3 353.441C421.234 355.505 419.772 357.338 417.996 358.835Z" fill="#191919"/>
<path d="M405.409 266.537C379.165 266.537 353.987 276.924 335.377 295.429C316.767 313.934 306.237 339.052 306.089 365.296H313.05C313.303 341.004 323.116 317.79 340.364 300.682C357.612 283.575 380.906 273.952 405.199 273.898C429.492 273.844 452.829 283.364 470.152 300.395C487.476 317.426 497.392 340.596 497.753 364.887H504.714C504.458 338.716 493.883 313.705 475.288 295.289C456.693 276.872 431.58 266.54 405.409 266.537Z" fill="#A9ABAE"/>
<path d="M497.753 364.872H453.423H433.935H413.492H412.127H389.637H380.385H363.885L313.05 365.023C313.084 359.425 313.627 353.841 314.673 348.341C315.006 346.551 315.401 344.777 315.84 343.033C317.193 337.685 319.03 332.472 321.33 327.458C322.195 325.547 323.12 323.666 324.121 321.816C326.967 316.575 330.308 311.618 334.1 307.014C335.237 305.604 336.435 304.224 337.694 302.889C342.342 297.858 347.541 293.366 353.193 289.498C354.907 288.3 356.666 287.193 358.456 286.131C362.098 283.966 365.889 282.061 369.8 280.429C371.529 279.701 373.273 279.034 375.047 278.427C382.167 275.941 389.57 274.352 397.083 273.695C399.054 273.513 401.041 273.392 403.028 273.347H405.409C407.032 273.347 408.639 273.347 410.247 273.468C412.203 273.574 414.159 273.741 416.085 273.968C423.707 274.835 431.188 276.665 438.349 279.413C440.123 280.08 441.882 280.808 443.596 281.597C447.661 283.438 451.585 285.577 455.334 287.997C457.078 289.104 458.762 290.287 460.415 291.53C466.089 295.723 471.255 300.563 475.808 305.953C477.006 307.348 478.143 308.789 479.235 310.26C482.568 314.677 485.492 319.387 487.971 324.334C488.926 326.214 489.821 328.125 490.625 330.081C492.889 335.461 494.626 341.048 495.811 346.764C496.175 348.523 496.494 350.312 496.767 352.117C497.388 356.341 497.717 360.603 497.753 364.872Z" fill="white"/>
<path d="M356.227 312.08C360.241 311.457 364.298 311.158 368.36 311.185C374.062 311.185 377.565 311.761 380.583 313.505C382.088 314.266 383.35 315.434 384.224 316.877C385.098 318.319 385.549 319.978 385.527 321.664C385.527 325.304 383.389 328.731 378.733 330.46V330.627C381.066 331.107 383.161 332.38 384.662 334.229C386.164 336.079 386.978 338.391 386.968 340.773C386.977 342.47 386.593 344.146 385.846 345.67C385.099 347.193 384.008 348.523 382.661 349.554C379.628 351.996 374.638 353.315 366.388 353.315C363.011 353.347 359.636 353.145 356.288 352.708L356.227 312.08ZM365.493 327.928H368.526C373.486 327.928 376.109 325.865 376.109 322.787C376.109 319.708 373.728 317.994 369.497 317.994C368.171 317.952 366.845 318.049 365.539 318.282L365.493 327.928ZM365.493 346.233C366.68 346.382 367.877 346.437 369.072 346.4C373.319 346.4 377.065 344.762 377.065 340.333C377.065 335.905 373.319 334.601 368.769 334.601H365.569L365.493 346.233Z" fill="#17A37C"/>
<path d="M428.263 337.058C428.081 332.053 427.884 326.078 427.915 320.011H427.748C426.428 325.319 424.715 331.188 423.122 336.072L418.057 352.208H410.793L406.334 336.223C404.999 331.355 403.619 325.471 402.588 320.011H402.467C402.269 325.638 402.027 332.038 401.784 337.179L401.011 352.891H392.351L395.005 311.519H407.471L411.505 325.334C412.825 330.081 414.099 335.283 415.024 340.136H415.221C416.343 335.344 417.754 329.884 419.149 325.274L423.547 311.519H435.786L438 352.891H428.9L428.263 337.058Z" fill="#17A37C"/>
<path d="M454.592 311.519V352.891H445.234V311.519H454.592Z" fill="#17A37C"/>
</g>
<defs>
<clipPath id="clip0_223_2575">
<rect width="811" height="521.002" fill="white"/>
</clipPath>
</defs>
</svg>
