<svg width="829" height="534" viewBox="0 0 829 534" fill="none" xmlns="http://www.w3.org/2000/svg">
<g clip-path="url(#clip0_223_660)">
<path d="M641.035 208.195C606.025 160.401 556.823 124.902 500.454 106.766C444.084 88.6296 383.431 88.7841 327.155 107.207C270.879 125.631 221.857 161.381 187.091 209.352C152.325 257.323 133.593 315.063 133.568 374.325C133.568 374.325 209.002 374 304.589 373.689C305.482 345.174 317.412 318.121 337.859 298.244C358.306 278.367 385.671 267.22 414.175 267.158C442.679 267.095 470.092 278.122 490.626 297.909C511.16 317.697 523.208 344.697 524.225 373.208C620.34 373.208 687.867 374.31 695.262 374.31C695.364 314.565 676.362 256.354 641.035 208.195Z" fill="#6B6B6B"/>
<path d="M634.756 212.788C600.72 166.306 552.878 131.778 498.064 114.137C443.25 96.4956 384.268 96.6433 329.543 114.559C274.818 132.474 227.149 167.241 193.345 213.893C159.542 260.545 141.333 316.696 141.319 374.326C141.319 374.326 214.676 374 307.612 373.705C308.216 345.794 319.701 319.226 339.614 299.678C359.527 280.129 386.288 269.149 414.18 269.084C442.073 269.019 468.885 279.875 488.888 299.331C508.891 318.787 520.5 345.301 521.233 373.208C614.619 373.208 681.682 374.279 687.542 374.279C687.618 316.19 669.121 259.6 634.756 212.788Z" fill="#E6E6E6"/>
<path d="M322.385 331.129C316.102 344.577 312.858 359.246 312.883 374.093H154.883C155.136 329.523 166.683 285.746 188.446 246.861L322.385 331.129Z" fill="#94E0CC"/>
<path d="M360.784 287.87C344.067 298.295 330.729 313.348 322.385 331.206L188.445 246.938C210.078 208.179 241.186 175.549 278.855 152.104L360.784 287.87Z" fill="#57D0AF"/>
<path d="M414.391 113.392V272.463C395.43 272.448 376.849 277.788 360.785 287.87L278.855 152.104C319.525 126.762 366.484 113.349 414.391 113.392Z" fill="#17A37C"/>
<path d="M549.447 151.732L467.549 287.482C451.567 277.632 433.16 272.431 414.392 272.463V113.392C462.1 113.328 508.877 126.608 549.447 151.732Z" fill="#FF9E7E"/>
<path d="M640.182 246.535L506.273 330.802C497.824 312.907 484.359 297.856 467.518 287.482L549.416 151.731C587.215 175.117 618.449 207.741 640.182 246.535Z" fill="#F0606C"/>
<path d="M673.916 374.093H515.932C515.949 359.126 512.651 344.341 506.274 330.803L640.183 246.535C662.05 285.504 673.658 329.399 673.916 374.093Z" fill="#E14E4E"/>
<path d="M178.175 357.783L178.635 352.184L181.22 352.391L181.036 354.632L183.485 354.828L183.657 352.731L186.114 352.927L185.942 355.025L188.782 355.253L188.984 352.788L191.569 352.995L191.091 358.818L178.175 357.783Z" fill="white"/>
<path d="M179.608 344.859L185.163 346.658L192.522 345.693L192.184 348.788C190.863 349.016 189.267 349.182 187.398 349.284C188.198 349.459 189.045 349.671 189.939 349.921L191.999 350.471L191.643 353.726L184.608 351.722L178.794 352.297L179.148 349.066C179.508 349.047 180.111 348.996 180.956 348.914C181.6 348.846 182.19 348.796 182.723 348.765L179.301 347.661L179.608 344.859Z" fill="white"/>
<path d="M179.589 337.902L182.145 338.238L181.871 340.208L192.084 341.55L191.624 344.867L181.411 343.525L181.139 345.486L178.584 345.151L179.589 337.902Z" fill="white"/>
<path d="M180.438 337.952L180.829 335.604C181.089 334.038 181.326 332.99 181.539 332.458C181.753 331.92 182.138 331.519 182.695 331.253C183.248 330.981 184.068 330.933 185.157 331.109C186.15 331.27 186.797 331.501 187.098 331.803C187.398 332.105 187.523 332.624 187.47 333.36C187.743 332.73 188.034 332.324 188.345 332.143C188.656 331.961 188.932 331.863 189.172 331.847C189.407 331.826 190.04 331.899 191.071 332.066L194.438 332.61L193.925 335.691L189.682 335.005C188.999 334.894 188.567 334.881 188.385 334.965C188.205 335.044 188.077 335.312 188 335.769L193.757 336.7L193.205 340.017L180.438 337.952ZM183.174 334.988L186.013 335.447C186.075 335.074 186.069 334.806 185.993 334.643C185.914 334.474 185.592 334.343 185.03 334.252L184.328 334.139C183.923 334.073 183.646 334.104 183.495 334.231C183.345 334.352 183.238 334.604 183.174 334.988Z" fill="white"/>
<path d="M181.788 329.978L182.934 324.474L185.476 324.993L185.017 327.196L187.426 327.688L187.855 325.627L190.271 326.12L189.842 328.182L192.635 328.753L193.14 326.33L195.682 326.849L194.49 332.572L181.788 329.978Z" fill="white"/>
<path d="M185.17 313.968L197.779 316.801L197.134 319.667L188.621 317.754L196.876 320.811L196.418 322.844L187.829 322.182L196.147 324.051L195.501 326.917L182.892 324.084L183.847 319.839C184.634 319.885 185.556 319.953 186.616 320.044L189.927 320.314L184.207 318.243L185.17 313.968Z" fill="white"/>
<path d="M186.076 310.654L196.104 313.241L196.607 311.256L199.116 311.903L197.786 317.152L185.249 313.918L186.076 310.654Z" fill="white"/>
<path d="M187.551 302.341L194.791 306.916L199.278 308.18L198.426 311.163L193.939 309.9L185.382 309.937L186.227 306.977C188.775 307.193 190.475 307.39 191.328 307.57C190.057 307.019 188.516 306.263 186.706 305.302L187.551 302.341Z" fill="white"/>
<path d="M193.105 288.303L204.884 293.717L203.561 297.689C201.559 297.437 199.314 297.058 196.826 296.552C197.808 297.013 199.848 298.006 202.948 299.532L201.632 303.481L188.909 300.9L189.938 297.811L194.321 298.883L198.556 299.897C196.46 299.085 193.758 297.878 190.449 296.278L191.55 292.971C191.924 293.042 193.309 293.366 195.706 293.943L200.475 295.115C197.573 293.972 194.773 292.731 192.076 291.392L193.105 288.303Z" fill="white"/>
<path d="M192.778 288.925L194.692 283.638L197.124 284.544L196.358 286.661L198.663 287.519L199.38 285.538L201.692 286.4L200.974 288.381L203.647 289.377L204.489 287.049L206.921 287.956L204.931 293.454L192.778 288.925Z" fill="white"/>
<path d="M197.098 277.88L209.825 280.875L208.556 284.076L206.334 283.372L205.889 284.493L207.975 285.539L206.691 288.777L195.304 282.402L197.098 277.88ZM204.168 282.613C202.744 282.229 201.001 281.719 198.939 281.081C201.11 282.312 202.711 283.179 203.744 283.682L204.168 282.613Z" fill="white"/>
<path d="M200.901 268.973L205.493 273.071L212.836 273.967L211.456 277.157L205.832 276.191L210.917 278.404L209.582 281.491L197.72 276.329L199.055 273.242L203.664 275.247L199.648 271.87L200.901 268.973Z" fill="white"/>
<path d="M243.813 214.089L252.86 223.425L250.229 226.688C248.455 225.73 246.501 224.566 244.365 223.194C245.116 223.981 246.664 225.65 249.008 228.202L246.392 231.447L235.468 224.438L237.514 221.9L241.213 224.487L244.794 226.966C243.132 225.447 241.044 223.338 238.53 220.641L240.721 217.923C241.043 218.125 242.217 218.929 244.244 220.335L248.266 223.155C245.97 221.034 243.803 218.858 241.767 216.627L243.813 214.089Z" fill="white"/>
<path d="M243.369 214.748L247.048 210.529L248.986 212.236L247.514 213.925L249.351 215.543L250.729 213.962L252.572 215.586L251.194 217.166L253.324 219.042L254.943 217.185L256.882 218.893L253.056 223.28L243.369 214.748Z" fill="white"/>
<path d="M251.375 205.834L262.158 213.251L259.816 215.782L257.999 214.318L257.179 215.204L258.746 216.939L256.377 219.499L248.066 209.41L251.375 205.834ZM256.255 212.822C255.066 211.948 253.626 210.838 251.934 209.494C253.512 211.432 254.692 212.823 255.472 213.668L256.255 212.822Z" fill="white"/>
<path d="M257.909 199.065L260.792 204.5L267.379 207.894L264.968 210.401L260.021 207.54L264.026 211.381L261.693 213.808L252.35 204.847L254.683 202.42L258.313 205.901L255.72 201.342L257.909 199.065Z" fill="white"/>
<path d="M334.832 149.182L339.743 161.211L337.005 162.34L333.148 157.541L335.38 163.009L332.768 164.086L327.858 152.057L330.469 150.98L334.432 155.675L332.22 150.259L334.832 149.182Z" fill="white"/>
<path d="M345.138 153.642C345.592 154.864 345.884 155.74 346.014 156.273C346.147 156.798 346.138 157.327 345.988 157.858C345.843 158.388 345.554 158.859 345.121 159.272C344.688 159.685 344.127 160.016 343.439 160.265C342.787 160.502 342.16 160.61 341.56 160.589C340.963 160.561 340.427 160.392 339.952 160.081C339.478 159.771 339.117 159.376 338.871 158.897C338.624 158.419 338.268 157.554 337.803 156.302L337.029 154.223C336.575 153.001 336.281 152.128 336.149 151.602C336.019 151.07 336.026 150.539 336.171 150.009C336.321 149.478 336.613 149.006 337.046 148.593C337.479 148.18 338.04 147.849 338.728 147.6C339.38 147.363 340.005 147.258 340.602 147.286C341.203 147.307 341.74 147.473 342.215 147.784C342.689 148.094 343.05 148.489 343.296 148.968C343.543 149.446 343.899 150.311 344.364 151.563L345.138 153.642ZM340.482 150.798C340.271 150.232 340.104 149.884 339.981 149.752C339.862 149.614 339.704 149.58 339.508 149.651C339.342 149.711 339.238 149.823 339.197 149.986C339.158 150.142 339.255 150.533 339.487 151.158L341.599 156.834C341.862 157.54 342.051 157.966 342.168 158.111C342.289 158.254 342.456 158.287 342.667 158.211C342.882 158.133 342.985 157.988 342.975 157.775C342.964 157.563 342.826 157.1 342.56 156.384L340.482 150.798Z" fill="white"/>
<path d="M342.807 146.441L345.061 145.689C346.563 145.188 347.598 144.907 348.167 144.846C348.74 144.784 349.274 144.936 349.768 145.304C350.265 145.665 350.689 146.366 351.04 147.409C351.36 148.361 351.457 149.04 351.33 149.447C351.203 149.853 350.803 150.205 350.129 150.503C350.812 150.449 351.306 150.517 351.611 150.706C351.916 150.896 352.131 151.093 352.256 151.298C352.384 151.496 352.614 152.089 352.947 153.076L354.033 156.302L351.076 157.289L349.708 153.224C349.487 152.569 349.298 152.181 349.139 152.06C348.986 151.938 348.69 151.95 348.251 152.096L350.108 157.612L346.924 158.674L342.807 146.441ZM346.695 147.472L347.611 150.192C347.969 150.073 348.202 149.941 348.311 149.799C348.423 149.649 348.389 149.305 348.207 148.766L347.981 148.093C347.85 147.706 347.694 147.475 347.512 147.401C347.336 147.325 347.063 147.349 346.695 147.472Z" fill="white"/>
<path d="M360.223 140.932L363.962 153.32L361.145 154.166L358.62 145.803L360.019 154.504L358.021 155.104L354.368 147.288L356.835 155.461L354.017 156.306L350.278 143.918L354.451 142.665C354.798 143.373 355.193 144.211 355.635 145.18L357.031 148.199L356.02 142.194L360.223 140.932Z" fill="white"/>
<path d="M365.98 139.415L371.08 151.476L367.744 152.369L367.001 150.155L365.832 150.468L366.22 152.777L362.846 153.681L361.268 140.677L365.98 139.415ZM366.334 147.953C365.803 146.575 365.186 144.864 364.483 142.818C364.771 145.307 365.016 147.118 365.22 148.252L366.334 147.953Z" fill="white"/>
<path d="M370.745 138.481L373.123 148.518L375.106 148.043L375.701 150.554L370.457 151.811L367.485 139.262L370.745 138.481Z" fill="white"/>
<path d="M447.756 145.291C447.626 146.589 447.502 147.506 447.384 148.042C447.272 148.573 447.031 149.047 446.662 149.462C446.299 149.878 445.831 150.179 445.259 150.366C444.687 150.553 444.037 150.611 443.308 150.541C442.617 150.475 442.006 150.304 441.475 150.027C440.95 149.746 440.542 149.363 440.252 148.879C439.962 148.395 439.812 147.884 439.801 147.346C439.791 146.808 439.852 145.875 439.985 144.546L440.205 142.336C440.335 141.039 440.456 140.125 440.568 139.593C440.686 139.057 440.927 138.581 441.291 138.165C441.66 137.749 442.13 137.448 442.702 137.262C443.274 137.075 443.924 137.016 444.653 137.086C445.344 137.153 445.952 137.327 446.477 137.608C447.008 137.884 447.419 138.264 447.709 138.749C447.999 139.233 448.149 139.744 448.16 140.281C448.17 140.819 448.109 141.753 447.976 143.082L447.756 145.291ZM444.821 140.726C444.881 140.125 444.884 139.739 444.832 139.568C444.785 139.391 444.658 139.293 444.45 139.273C444.275 139.256 444.132 139.313 444.023 139.442C443.919 139.566 443.834 139.96 443.767 140.625L443.165 146.654C443.09 147.404 443.073 147.87 443.114 148.051C443.16 148.232 443.295 148.334 443.519 148.355C443.747 148.377 443.904 148.29 443.988 148.094C444.072 147.898 444.152 147.42 444.228 146.66L444.821 140.726Z" fill="white"/>
<path d="M456.74 138.905L453.356 151.54L448.281 150.913L448.037 137.831L451.562 138.266C451.506 141.855 451.405 144.882 451.259 147.347C451.758 144.898 452.228 142.726 452.671 140.83L453.214 138.47L456.74 138.905Z" fill="white"/>
<path d="M456.253 138.893L461.786 139.739L461.399 142.294L459.184 141.955L458.818 144.375L460.891 144.692L460.523 147.12L458.45 146.803L458.026 149.61L460.461 149.982L460.074 152.537L454.321 151.657L456.253 138.893Z" fill="white"/>
<path d="M462.355 139.953L464.693 140.376C466.251 140.657 467.294 140.908 467.821 141.127C468.353 141.348 468.747 141.737 469.001 142.296C469.261 142.851 469.292 143.669 469.093 144.751C468.912 145.739 468.667 146.381 468.359 146.676C468.051 146.972 467.53 147.088 466.795 147.026C467.419 147.306 467.819 147.602 467.994 147.915C468.169 148.227 468.261 148.503 468.272 148.743C468.288 148.978 468.202 149.608 468.014 150.632L467.4 153.98L464.332 153.426L465.106 149.207C465.231 148.528 465.253 148.097 465.173 147.915C465.098 147.734 464.834 147.603 464.379 147.521L463.328 153.244L460.026 152.647L462.355 139.953ZM465.259 142.722L464.741 145.545C465.112 145.612 465.38 145.609 465.545 145.536C465.716 145.459 465.853 145.141 465.955 144.581L466.083 143.884C466.157 143.481 466.132 143.204 466.009 143.052C465.891 142.901 465.641 142.791 465.259 142.722Z" fill="white"/>
<path d="M482.429 144.005L478.272 156.301L474.18 155.378C474.222 153.355 474.365 151.077 474.608 148.543C474.252 149.569 473.477 151.705 472.282 154.95L468.214 154.033L469.454 141.079L472.636 141.797L472.027 146.277L471.46 150.604C472.05 148.432 472.968 145.615 474.215 142.153L477.622 142.921C477.59 143.301 477.412 144.716 477.088 147.166L476.419 152.042C477.254 149.031 478.197 146.113 479.248 143.288L482.429 144.005Z" fill="white"/>
<path d="M481.707 143.828L487.149 145.209L486.503 147.718L484.324 147.165L483.712 149.543L485.751 150.06L485.137 152.445L483.098 151.928L482.388 154.685L484.783 155.293L484.137 157.802L478.478 156.366L481.707 143.828Z" fill="white"/>
<path d="M491.002 145.466L487.518 157.865L484.298 156.944L487.782 144.545L491.002 145.466Z" fill="white"/>
<path d="M497.684 153.257L494.461 152.289L494.8 151.164C495.014 150.455 495.117 150.002 495.11 149.805C495.103 149.608 494.984 149.475 494.755 149.406C494.556 149.347 494.397 149.383 494.28 149.514C494.162 149.646 494.008 150.028 493.817 150.66L492.022 156.606C491.854 157.162 491.779 157.54 491.797 157.74C491.816 157.935 491.933 158.065 492.147 158.129C492.382 158.2 492.57 158.148 492.712 157.973C492.859 157.8 493.019 157.426 493.193 156.849L493.636 155.38L492.986 155.184L493.554 153.302L497.328 154.435L495.321 161.085L493.292 160.476L493.262 159.499C492.927 159.815 492.562 160.02 492.166 160.113C491.777 160.202 491.356 160.178 490.902 160.042C490.361 159.879 489.892 159.597 489.496 159.194C489.107 158.788 488.848 158.354 488.72 157.893C488.592 157.432 488.561 156.98 488.628 156.538C488.696 156.091 488.859 155.442 489.116 154.59L490.227 150.909C490.584 149.726 490.907 148.885 491.196 148.388C491.486 147.891 491.998 147.511 492.734 147.248C493.477 146.981 494.328 146.992 495.288 147.28C496.232 147.563 496.957 147.992 497.463 148.567C497.968 149.142 498.235 149.725 498.262 150.318C498.29 150.905 498.152 151.706 497.845 152.721L497.684 153.257Z" fill="white"/>
<path d="M506.721 151.341L502.604 163.573L499.42 162.511L501.149 157.373L500.197 157.055L498.467 162.193L495.284 161.131L499.401 148.898L502.584 149.96L501.112 154.335L502.065 154.653L503.537 150.278L506.721 151.341Z" fill="white"/>
<path d="M513.482 153.773L512.577 156.206L510.694 155.523L507.077 165.246L503.907 164.096L507.524 154.373L505.649 153.693L506.554 151.261L513.482 153.773Z" fill="white"/>
<path d="M571.033 200.855C570.177 201.829 569.546 202.499 569.14 202.864C568.741 203.229 568.272 203.472 567.733 203.594C567.198 203.72 566.645 203.692 566.075 203.512C565.505 203.331 564.946 203.002 564.397 202.522C563.877 202.068 563.482 201.575 563.213 201.044C562.952 200.512 562.844 199.966 562.89 199.406C562.936 198.847 563.111 198.346 563.414 197.905C563.717 197.464 564.307 196.744 565.184 195.746L566.643 194.088C567.499 193.114 568.127 192.444 568.525 192.08C568.931 191.714 569.402 191.469 569.937 191.343C570.476 191.221 571.03 191.251 571.601 191.431C572.171 191.612 572.73 191.942 573.279 192.421C573.799 192.875 574.19 193.369 574.452 193.9C574.72 194.432 574.832 194.977 574.786 195.537C574.74 196.096 574.565 196.597 574.262 197.038C573.959 197.479 573.369 198.199 572.492 199.197L571.033 200.855ZM571.306 195.461C571.703 195.01 571.929 194.7 571.986 194.531C572.05 194.361 572.004 194.208 571.848 194.072C571.716 193.956 571.568 193.919 571.405 193.96C571.249 194 570.952 194.27 570.513 194.769L566.533 199.296C566.038 199.859 565.755 200.225 565.683 200.396C565.615 200.569 565.665 200.73 565.834 200.877C566.006 201.027 566.183 201.047 566.364 200.937C566.545 200.828 566.887 200.487 567.389 199.917L571.306 195.461Z" fill="white"/>
<path d="M576.266 195.403L578.731 197.687C579.509 198.408 580.042 199.014 580.328 199.505C580.618 200 580.714 200.546 580.615 201.146C580.52 201.741 580.091 202.449 579.328 203.269C578.812 203.823 578.364 204.128 577.985 204.183C577.609 204.243 577.111 204.093 576.489 203.735C576.941 204.394 577.128 204.967 577.052 205.456C576.979 205.942 576.656 206.493 576.081 207.109L575.264 207.988C574.668 208.628 574.152 209.034 573.716 209.204C573.285 209.379 572.856 209.374 572.43 209.19C572.003 209.006 571.294 208.453 570.3 207.532L567.442 204.884L576.266 195.403ZM577.227 199.314L575.265 201.423C575.374 201.517 575.458 201.591 575.517 201.645C575.759 201.87 575.968 201.955 576.144 201.899C576.323 201.84 576.674 201.529 577.197 200.967C577.474 200.67 577.639 200.438 577.693 200.27C577.751 200.098 577.749 199.955 577.688 199.84C577.631 199.729 577.478 199.554 577.227 199.314ZM573.891 202.898L571.422 205.551C571.781 205.862 572.053 206.012 572.238 206.002C572.427 205.995 572.699 205.8 573.055 205.417L573.878 204.533C574.256 204.127 574.442 203.841 574.436 203.676C574.43 203.51 574.248 203.251 573.891 202.898Z" fill="white"/>
<path d="M582.082 200.982L586.068 204.895L584.259 206.731L582.663 205.165L580.949 206.905L582.442 208.371L580.723 210.117L579.229 208.651L577.242 210.669L578.996 212.391L577.187 214.228L573.042 210.159L582.082 200.982Z" fill="white"/>
<path d="M588.66 212.912L586.486 210.65L587.176 209.978C587.498 209.665 587.675 209.436 587.708 209.293C587.741 209.149 587.692 209.01 587.562 208.875C587.421 208.728 587.254 208.674 587.061 208.713C586.872 208.755 586.657 208.894 586.415 209.129C586.105 209.431 585.912 209.701 585.836 209.939C585.757 210.173 585.787 210.587 585.928 211.181C586.33 212.888 586.461 214.082 586.321 214.762C586.182 215.443 585.656 216.227 584.743 217.115C584.08 217.76 583.515 218.157 583.049 218.305C582.586 218.457 582.032 218.413 581.388 218.175C580.747 217.933 580.141 217.515 579.57 216.921C578.943 216.269 578.53 215.592 578.331 214.891C578.135 214.193 578.158 213.588 578.401 213.076C578.643 212.564 579.113 211.969 579.811 211.29L580.42 210.697L582.595 212.958L581.462 214.061C581.113 214.4 580.918 214.649 580.878 214.808C580.841 214.971 580.901 215.133 581.057 215.295C581.212 215.457 581.391 215.515 581.591 215.469C581.796 215.427 582.022 215.284 582.272 215.042C582.82 214.508 583.106 214.084 583.13 213.77C583.15 213.452 583.067 212.797 582.88 211.808C582.697 210.814 582.6 210.132 582.592 209.76C582.583 209.388 582.674 208.981 582.866 208.54C583.062 208.104 583.407 207.645 583.902 207.163C584.615 206.469 585.224 206.053 585.728 205.913C586.235 205.777 586.778 205.824 587.355 206.054C587.935 206.28 588.504 206.682 589.06 207.261C589.668 207.893 590.084 208.53 590.307 209.171C590.534 209.816 590.56 210.361 590.387 210.806C590.221 211.251 589.768 211.833 589.028 212.553L588.66 212.912Z" fill="white"/>
<path d="M593.944 213.189L584.388 221.849L582.135 219.365L591.691 210.705L593.944 213.189Z" fill="white"/>
<path d="M599.108 218.818L597.16 220.534L595.829 219.038L588.046 225.894L585.804 223.375L593.587 216.519L592.261 215.03L594.209 213.314L599.108 218.818Z" fill="white"/>
<path d="M603.911 224.578L595.992 227.976L592.393 230.97L590.392 228.583L593.99 225.589L598.815 218.5L600.801 220.869C599.176 222.851 598.046 224.144 597.413 224.747C598.593 224.008 600.097 223.162 601.925 222.209L603.911 224.578Z" fill="white"/>
<path d="M628.182 265.384L630.716 270.379L628.42 271.567L627.406 269.567L625.23 270.693L626.179 272.564L623.997 273.693L623.047 271.822L620.525 273.127L621.64 275.326L619.344 276.513L616.709 271.319L628.182 265.384Z" fill="white"/>
<path d="M633.906 277.064L628.235 278.474L622.503 283.181L621.145 280.378C622.145 279.487 623.411 278.504 624.943 277.429C624.171 277.704 623.339 277.971 622.448 278.232L620.407 278.854L618.979 275.908L626.014 273.889L630.643 270.33L632.06 273.255C631.764 273.462 631.28 273.823 630.607 274.34C630.096 274.737 629.622 275.091 629.186 275.4L632.677 274.527L633.906 277.064Z" fill="white"/>
<path d="M636.73 283.429L634.37 284.494L633.554 282.67L624.119 286.925L622.745 283.853L632.18 279.599L631.367 277.782L633.728 276.718L636.73 283.429Z" fill="white"/>
<path d="M636.683 283.513L637.589 285.715C638.192 287.182 638.544 288.198 638.644 288.762C638.745 289.331 638.629 289.874 638.295 290.393C637.968 290.914 637.296 291.385 636.277 291.806C635.347 292.191 634.674 292.334 634.259 292.234C633.844 292.135 633.465 291.759 633.121 291.106C633.222 291.784 633.188 292.282 633.019 292.6C632.85 292.918 632.668 293.146 632.471 293.285C632.282 293.426 631.705 293.696 630.74 294.095L627.588 295.398L626.4 292.51L630.371 290.868C631.011 290.604 631.386 290.388 631.496 290.222C631.608 290.06 631.576 289.765 631.4 289.336L626.011 291.564L624.731 288.454L636.683 283.513ZM635.918 287.469L633.26 288.567C633.404 288.917 633.551 289.142 633.701 289.241C633.858 289.343 634.2 289.285 634.727 289.067L635.384 288.796C635.763 288.639 635.983 288.467 636.044 288.281C636.108 288.099 636.066 287.828 635.918 287.469Z" fill="white"/>
<path d="M639.889 290.827L641.803 296.115L639.371 297.021L638.605 294.904L636.3 295.763L637.017 297.744L634.706 298.606L633.988 296.625L631.316 297.621L632.159 299.948L629.727 300.854L627.736 295.356L639.889 290.827Z" fill="white"/>
<path d="M645.227 306.273L633.06 310.548L632.098 307.78L640.312 304.893L631.714 306.674L631.031 304.71L638.652 300.724L630.626 303.544L629.664 300.775L641.83 296.5L643.255 300.6C642.566 300.978 641.748 301.408 640.803 301.892L637.859 303.417L643.791 302.143L645.227 306.273Z" fill="white"/>
<path d="M646.235 309.559L636.378 312.674L636.99 314.624L634.524 315.404L632.905 310.247L645.228 306.353L646.235 309.559Z" fill="white"/>
<path d="M648.615 317.628L640.044 317.582L635.563 318.89L634.71 315.903L639.192 314.595L646.444 310.021L647.29 312.986C645.011 314.154 643.462 314.889 642.642 315.189C644.013 314.982 645.722 314.807 647.769 314.663L648.615 317.628Z" fill="white"/>
<path d="M643.832 329.269C642.571 329.582 641.669 329.772 641.126 329.841C640.589 329.913 640.064 329.846 639.55 329.639C639.038 329.436 638.598 329.098 638.23 328.624C637.863 328.15 637.59 327.559 637.411 326.852C637.241 326.181 637.196 325.55 637.277 324.96C637.365 324.373 637.587 323.863 637.944 323.429C638.301 322.995 638.73 322.683 639.232 322.493C639.733 322.303 640.63 322.048 641.922 321.728L644.069 321.196C645.331 320.884 646.23 320.691 646.766 320.619C647.309 320.55 647.837 320.617 648.349 320.819C648.863 321.026 649.304 321.367 649.671 321.841C650.038 322.315 650.312 322.906 650.491 323.613C650.661 324.284 650.702 324.913 650.614 325.5C650.533 326.09 650.314 326.603 649.957 327.037C649.6 327.471 649.171 327.783 648.67 327.973C648.169 328.163 647.272 328.418 645.98 328.738L643.832 329.269ZM647.131 324.988C647.715 324.843 648.079 324.718 648.222 324.611C648.372 324.508 648.421 324.356 648.37 324.155C648.327 323.984 648.227 323.869 648.069 323.81C647.917 323.754 647.518 323.806 646.872 323.966L641.011 325.418C640.282 325.598 639.839 325.738 639.683 325.837C639.528 325.941 639.478 326.102 639.533 326.318C639.589 326.54 639.724 326.658 639.936 326.671C640.148 326.685 640.624 326.6 641.363 326.417L647.131 324.988Z" fill="white"/>
<path d="M651.221 327.786L651.912 331.058C652.13 332.092 652.215 332.891 652.166 333.455C652.118 334.024 651.882 334.526 651.458 334.959C651.039 335.39 650.284 335.723 649.194 335.957C648.457 336.115 647.919 336.108 647.579 335.937C647.24 335.771 646.921 335.364 646.622 334.717C646.61 335.512 646.433 336.088 646.091 336.444C645.753 336.798 645.175 337.064 644.355 337.239L643.187 337.49C642.336 337.672 641.684 337.709 641.232 337.6C640.782 337.495 640.436 337.246 640.196 336.853C639.955 336.459 639.696 335.603 639.418 334.284L638.617 330.489L651.221 327.786ZM649.757 331.529L646.954 332.13C646.989 332.269 647.015 332.377 647.031 332.455C647.099 332.777 647.22 332.966 647.395 333.021C647.574 333.074 648.038 333.021 648.785 332.861C649.179 332.776 649.447 332.681 649.587 332.575C649.733 332.468 649.814 332.35 649.83 332.221C649.847 332.098 649.823 331.867 649.757 331.529ZM644.992 332.55L641.466 333.307C641.579 333.766 641.713 334.044 641.869 334.14C642.027 334.242 642.359 334.239 642.868 334.13L644.044 333.878C644.583 333.762 644.898 333.635 644.988 333.496C645.079 333.357 645.08 333.042 644.992 332.55Z" fill="white"/>
<path d="M652.79 335.676L653.783 341.183L651.243 341.65L650.845 339.446L648.438 339.888L648.811 341.952L646.396 342.395L646.024 340.332L643.232 340.845L643.67 343.269L641.129 343.736L640.096 338.01L652.79 335.676Z" fill="white"/>
<path d="M651.245 349.282L650.774 346.198L651.719 346.045C652.16 345.974 652.435 345.889 652.544 345.791C652.653 345.692 652.693 345.551 652.665 345.367C652.634 345.167 652.53 345.028 652.351 344.949C652.173 344.875 651.918 344.865 651.587 344.919C651.162 344.988 650.851 345.097 650.653 345.248C650.454 345.393 650.242 345.748 650.016 346.313C649.365 347.932 648.788 348.979 648.284 349.454C647.781 349.929 646.904 350.267 645.655 350.47C644.746 350.617 644.06 350.617 643.597 350.471C643.134 350.33 642.709 349.979 642.322 349.416C641.94 348.853 641.687 348.167 641.563 347.357C641.428 346.468 641.48 345.681 641.719 344.995C641.96 344.315 642.325 343.836 642.816 343.557C643.306 343.279 644.029 343.062 644.985 342.907L645.82 342.772L646.29 345.857L644.739 346.108C644.261 346.185 643.96 346.277 643.836 346.383C643.713 346.494 643.669 346.66 643.702 346.881C643.736 347.102 643.848 347.251 644.037 347.328C644.227 347.411 644.493 347.424 644.834 347.369C645.585 347.248 646.061 347.066 646.26 346.823C646.459 346.576 646.766 345.995 647.181 345.082C647.601 344.168 647.914 343.557 648.12 343.249C648.326 342.941 648.633 342.662 649.042 342.413C649.451 342.169 649.994 341.992 650.672 341.882C651.649 341.724 652.382 341.732 652.871 341.906C653.361 342.086 653.775 342.434 654.112 342.95C654.454 343.466 654.686 344.119 654.806 344.907C654.938 345.77 654.911 346.526 654.725 347.176C654.539 347.831 654.249 348.29 653.853 348.553C653.464 348.821 652.762 349.037 651.749 349.201L651.245 349.282Z" fill="white"/>
<path d="M656.515 352.328L643.747 354.006L643.287 350.689L656.055 349.011L656.515 352.328Z" fill="white"/>
<path d="M656.349 360.098L653.777 360.384L653.56 358.4L643.282 359.543L642.916 356.201L653.194 355.058L652.978 353.081L655.549 352.795L656.349 360.098Z" fill="white"/>
<path d="M657.119 367.644L648.677 365.855L644.002 366.23L643.746 363.119L648.421 362.744L656.468 359.724L656.722 362.81C654.246 363.496 652.574 363.903 651.707 364.031C653.1 364.107 654.819 364.282 656.865 364.557L657.119 367.644Z" fill="white"/>
<path d="M770.029 26.1448C766.412 23.9018 762.094 23.0783 757.906 23.8329C750.527 24.9811 744.559 32.5684 743.35 40.0006C742.141 47.4328 742.451 70.0397 742.451 70.0397C742.451 70.0397 782.276 70.3656 784.384 70.3656C784.198 60.0939 783.997 41.6764 781.687 34.4148C778.463 24.3759 770.029 26.1448 770.029 26.1448Z" fill="#142033"/>
<path d="M787.562 76.6341L786.012 94.7724C786.012 94.7724 770.122 103.446 762.758 105.013C753.69 103.865 739.939 95.0827 739.939 95.0827C739.939 95.0827 737.722 81.382 739.164 76.6341C741.443 75.2532 746.605 73.3447 751.225 70.7535C751.426 69.8691 751.674 68.333 751.891 66.7814C752.248 64.2678 752.542 61.6921 752.542 61.6921L774.029 61.4438C774.184 62.6231 774.339 64.935 774.571 67.3555C774.711 68.7364 774.881 70.1639 775.114 71.4207C776.339 71.9637 787.562 76.6341 787.562 76.6341Z" fill="#F6AA99"/>
<path d="M749.597 77.9996C749.706 78.5581 756.713 80.7614 762.836 80.7614C767.417 80.48 771.918 79.431 776.153 77.6582L749.597 77.9996Z" fill="#F3877C"/>
<path d="M762.263 104.283C762.526 94.2599 762.588 94.2754 763.58 89.3413C764.496 94.2724 765.015 99.2691 765.131 104.283H762.263Z" fill="#EE6066"/>
<path d="M774.199 62.1574C774.411 64.1591 773.993 66.1768 773.003 67.9292C772.014 69.6815 770.503 71.0811 768.681 71.9326C767.226 72.6248 765.64 72.9952 764.03 73.0187C761.869 73.0056 759.742 72.4735 757.829 71.4671C756.098 70.5497 754.686 69.1291 753.779 67.3924C752.871 65.6557 752.51 63.6844 752.744 61.7385L774.23 61.4902C774.153 61.6454 774.168 61.8937 774.199 62.1574Z" fill="#EE6066"/>
<path d="M775.471 51.2965C775.642 51.1569 777.983 46.2538 780.711 46.1297C783.439 46.0055 783.052 50.1794 782.54 51.3741C782.029 52.5688 780.99 55.8893 777.983 56.7892C776.761 56.6928 775.62 56.1387 774.789 55.2376L775.471 51.2965Z" fill="#F6AA99"/>
<path d="M781.315 50.722C781.315 50.5513 782.338 48.0843 780.865 47.6188C779.393 47.1533 776.912 50.8616 775.734 52.0874C776.788 52.0874 778.199 51.7305 778.168 52.7236C778.137 53.7166 776.618 54.8803 775.067 54.8027C776.478 55.4854 777.021 55.9354 778.044 55.6716C779.067 55.4078 780.121 53.8097 780.121 53.8097C779.765 54.2411 779.305 54.5744 778.784 54.778C778.263 54.9816 777.699 55.0489 777.145 54.9734C778.803 54.1045 780.059 52.1495 778.881 51.6374C778.535 51.4911 778.164 51.4157 777.788 51.4157C777.413 51.4157 777.041 51.4911 776.695 51.6374C776.695 51.6374 778.586 49.2635 779.796 48.9687C781.005 48.6739 781.315 50.722 781.315 50.722Z" fill="#F3877C"/>
<path d="M778.695 50.9397C778.695 50.9397 779.702 50.9397 779.919 51.4983C780.027 51.8366 780.057 52.1945 780.009 52.5461C779.961 52.8977 779.835 53.2341 779.64 53.5309C781.206 52.1655 781.144 50.1018 778.695 50.9397Z" fill="#F3877C"/>
<path d="M750.465 51.2654C750.295 51.1412 747.954 46.2382 745.225 46.114C742.497 45.9899 742.885 50.1637 743.396 51.3429C743.908 52.5222 744.946 55.8737 747.954 56.7581C749.178 56.6693 750.321 56.1139 751.147 55.2065L750.465 51.2654Z" fill="#F6AA99"/>
<path d="M744.636 50.6908C744.636 50.5357 743.613 48.0686 745.086 47.6807C746.559 47.2928 749.024 50.9236 750.202 52.1338C749.148 52.1338 747.737 51.777 747.768 52.77C747.799 53.763 749.411 54.9267 750.868 54.8647C749.458 55.5318 748.915 55.9818 747.876 55.7336C746.838 55.4853 745.799 53.8716 745.799 53.8716C746.155 54.3025 746.616 54.6345 747.137 54.8356C747.659 55.0367 748.223 55.1001 748.776 55.0198C747.117 54.1509 745.861 52.1959 747.055 51.6839C747.398 51.5379 747.767 51.4627 748.14 51.4627C748.513 51.4627 748.882 51.5379 749.225 51.6839C749.225 51.6839 747.334 49.3099 746.125 49.0306C744.916 48.7513 744.636 50.6908 744.636 50.6908Z" fill="#F3877C"/>
<path d="M747.256 50.9085C747.256 50.9085 746.249 50.9085 746.016 51.4671C745.909 51.8079 745.878 52.1683 745.926 52.5225C745.974 52.8766 746.101 53.2156 746.295 53.5152C744.729 52.1498 744.791 50.0861 747.256 50.9085Z" fill="#F3877C"/>
<path d="M772.587 40.0931C774.063 41.0534 775.26 42.3873 776.055 43.9596C776.85 45.5319 777.215 47.2867 777.114 49.0459C777.005 50.7837 776.912 52.6767 776.912 53.5611C777.173 55.9553 776.897 58.3775 776.106 60.6519C774.68 64.2982 769.254 67.8204 763.239 67.898C760.936 68.0418 758.633 67.6193 756.531 66.6673C754.428 65.7152 752.591 64.2626 751.179 62.4363C749.61 60.173 748.927 57.4126 749.256 54.6783C749.411 52.2422 748.481 46.2996 748.977 44.7169C750.155 40.9931 753.628 40.2018 757.938 39.5501C762.247 38.8984 767.037 37.3313 767.967 35.9038C768.588 37.6106 770.587 38.8053 772.587 40.0931Z" fill="#F6AA99"/>
<path d="M765.333 47.3706C766.926 46.7213 768.569 46.2024 770.247 45.819C771.971 45.5588 773.712 45.4188 775.455 45.4001C774.061 44.6996 772.534 44.303 770.975 44.2364C769.274 44.2207 767.587 44.5479 766.015 45.1984C765.704 45.8938 765.476 46.6227 765.333 47.3706Z" fill="#321E41"/>
<path d="M766.262 52.46C766.614 52.4937 766.961 52.5613 767.3 52.6618C768.596 53.1014 769.992 53.1499 771.315 52.8014C772.098 52.5216 772.813 52.0819 773.416 51.5103C774.02 50.9386 774.497 50.2475 774.819 49.481C770.928 50.3188 766.882 51.5601 766.262 52.46Z" fill="#F3877C"/>
<path d="M774.819 49.4809C773.765 50.82 772.299 51.7743 770.649 52.1962C769.565 52.3658 768.462 52.3658 767.378 52.1962C767.026 52.163 766.672 52.2274 766.355 52.3824H766.262C766.341 51.3158 766.81 50.3159 767.579 49.574C768.018 49.1592 768.55 48.8559 769.13 48.6896C770.265 48.4108 771.451 48.4108 772.587 48.6896C773.36 48.8613 774.11 49.127 774.819 49.4809Z" fill="white"/>
<path d="M770.82 51.6997C770.473 51.782 770.113 51.7941 769.761 51.7353C769.409 51.6765 769.072 51.548 768.77 51.3572C768.468 51.1665 768.208 50.9174 768.003 50.6245C767.799 50.3316 767.655 50.0009 767.58 49.6516C768.019 49.2368 768.55 48.9335 769.13 48.7672C770.266 48.4884 771.452 48.4884 772.587 48.7672C772.71 49.3885 772.597 50.0333 772.27 50.5756C771.944 51.1179 771.426 51.5187 770.82 51.6997Z" fill="#321E41"/>
<path d="M771.192 50.474C771.192 49.9775 773.471 50.0396 773.394 50.474C773.316 50.9085 771.208 50.9705 771.192 50.474Z" fill="white"/>
<path d="M767.378 52.2428C767.026 52.2096 766.672 52.274 766.355 52.429H766.262C766.287 52.0642 766.36 51.7043 766.479 51.3584C766.699 51.7245 767.008 52.0288 767.378 52.2428Z" fill="#EE6066"/>
<path d="M769.672 48.2239C768.711 48.4436 767.851 48.981 767.233 49.7496C766.614 50.5181 766.272 51.4728 766.262 52.4598C766.477 51.6044 766.931 50.8279 767.571 50.2208C768.21 49.6137 769.009 49.201 769.874 49.0308C771.527 48.6339 773.265 48.792 774.819 49.4807L775.966 48.4877C773.916 47.9207 771.763 47.8305 769.672 48.2239Z" fill="#321E41"/>
<path d="M766.355 49.5741C767.06 48.7646 767.996 48.1907 769.037 47.9294C770.442 47.5916 771.893 47.492 773.331 47.6345C772.167 47.1638 770.905 46.988 769.657 47.1225C768.933 47.1836 768.241 47.4453 767.658 47.8784C767.074 48.3114 766.623 48.8986 766.355 49.5741Z" fill="#F3877C"/>
<path d="M760.325 47.3706C758.732 46.7213 757.088 46.2024 755.411 45.819C753.686 45.5588 751.946 45.4188 750.202 45.4001C751.597 44.6996 753.124 44.303 754.682 44.2364C756.384 44.2207 758.071 44.5479 759.643 45.1984C759.953 45.8938 760.182 46.6227 760.325 47.3706Z" fill="#321E41"/>
<path d="M759.86 52.8321C759.508 52.8658 759.16 52.9334 758.821 53.0338C757.52 53.4729 756.119 53.5214 754.791 53.1735C754.01 52.8944 753.296 52.4548 752.695 51.8829C752.095 51.311 751.62 50.6196 751.303 49.853C755.116 50.6754 759.162 51.9322 759.86 52.8321Z" fill="#F3877C"/>
<path d="M751.225 49.8374C752.276 51.1823 753.742 52.1422 755.395 52.5683C756.478 52.7379 757.582 52.7379 758.666 52.5683C759.017 52.5367 759.371 52.601 759.689 52.7545H759.782C759.755 52.3884 759.677 52.028 759.549 51.6839C759.345 51.0199 758.971 50.4208 758.464 49.9461C758.026 49.5313 757.494 49.2279 756.914 49.0616C755.778 48.7828 754.592 48.7828 753.457 49.0616C752.685 49.2331 751.936 49.4934 751.225 49.8374Z" fill="white"/>
<path d="M755.209 52.0254C755.557 52.1077 755.917 52.1198 756.269 52.061C756.621 52.0022 756.958 51.8736 757.259 51.6829C757.561 51.4922 757.822 51.243 758.026 50.9502C758.23 50.6573 758.374 50.3265 758.449 49.9773C758.011 49.5625 757.479 49.2592 756.899 49.0929C755.764 48.8141 754.577 48.8141 753.442 49.0929C753.315 49.7145 753.427 50.3609 753.754 50.9041C754.082 51.4473 754.601 51.8475 755.209 52.0254Z" fill="#321E41"/>
<path d="M758.666 52.6154C759.018 52.5838 759.371 52.6481 759.689 52.8016H759.782C759.755 52.4355 759.677 52.0751 759.55 51.731C759.336 52.0968 759.032 52.4014 758.666 52.6154Z" fill="#EE6066"/>
<path d="M756.372 48.5965C757.331 48.8211 758.187 49.36 758.805 50.1274C759.423 50.8948 759.767 51.8469 759.783 52.8324C759.57 51.9741 759.117 51.1943 758.477 50.5843C757.837 49.9742 757.037 49.5592 756.171 49.3878C754.515 49.0027 752.78 49.1661 751.225 49.8533L750.078 48.8603C752.129 48.2932 754.281 48.203 756.372 48.5965Z" fill="#321E41"/>
<path d="M759.673 49.9461C758.981 49.1291 758.047 48.5532 757.007 48.3014C755.602 47.9637 754.151 47.864 752.713 48.0066C753.877 47.5359 755.139 47.36 756.387 47.4946C757.109 47.5549 757.8 47.8166 758.38 48.2499C758.961 48.6832 759.409 49.2709 759.673 49.9461Z" fill="#F3877C"/>
<path d="M756.542 51.1564C756.542 50.6599 758.821 50.7064 758.759 51.1564C758.697 51.6064 756.573 51.6529 756.542 51.1564Z" fill="white"/>
<path d="M760.744 55.1285C760.744 55.1285 762.449 56.7887 763.085 56.7887C764.027 56.3273 764.895 55.7257 765.658 55.0044L763.085 55.9664L760.744 55.1285Z" fill="#EE6066"/>
<path d="M758.31 59.0696C758.813 59.8195 759.514 60.4151 760.335 60.7903C761.156 61.1656 762.065 61.3058 762.96 61.1953C763.955 61.1232 764.919 60.819 765.775 60.3071C766.631 59.7952 767.355 59.0897 767.89 58.2473C764.673 58.0007 761.438 58.2784 758.31 59.0696Z" fill="#321E41"/>
<path d="M760.976 64.0811C761.272 63.7614 761.629 63.5036 762.026 63.3225C762.422 63.1414 762.85 63.0407 763.286 63.026C763.726 62.9378 764.182 62.9755 764.601 63.1346C765.021 63.2938 765.387 63.5681 765.658 63.926C764.12 64.2633 762.533 64.3159 760.976 64.0811Z" fill="#F3877C"/>
<path d="M791.035 78.7441C791.035 78.7441 801.577 84.2679 805.886 91.3587C810.196 98.4496 825.574 123.151 828.861 143.555C830.24 167.062 821.435 195.922 821.435 195.922C821.435 195.922 823.683 208.536 820.567 214.246C817.451 219.956 805.886 225.65 805.886 225.65L791.035 78.7441Z" fill="#F6AA99"/>
<path d="M733.273 79.8457C733.273 79.8457 722.747 85.3694 718.422 92.4603C714.097 99.5511 698.734 124.253 695.463 144.656C694.083 168.163 702.889 197.023 702.889 197.023C702.889 197.023 700.641 209.638 703.757 215.348C706.873 221.058 718.422 226.752 718.422 226.752L733.273 79.8457Z" fill="#F6AA99"/>
<path d="M754.853 358.996C754.651 357.149 754.31 355.256 754 353.518C754 353.363 754 353.208 754 353.053V263.261C754.636 247.621 759.674 205.945 759.674 205.945C758.651 190.429 739.009 167.807 713.803 171.329C710.547 192.493 713.291 220.577 718.298 241.151C719.871 247.476 719.732 254.107 717.895 260.36C707.044 296.807 725.243 310.57 729.336 347.11C729.278 349.915 728.509 352.659 727.104 355.086C726.265 356.491 725.219 357.762 724.003 358.856C721.616 360.982 719.554 361.866 714.283 365.062C709.012 368.259 702.966 370.974 702.982 373.363C702.982 373.363 703.09 374.45 704.532 374.45H733.506C737.909 374.45 739.071 371.346 742.358 369.702C745.644 368.057 750.884 370.462 754.046 367.079C755.194 365.854 755.302 363.123 755.023 360.066C754.93 359.616 754.899 359.244 754.853 358.996Z" fill="#F6AA99"/>
<path d="M753.984 367.002C750.884 370.385 745.458 368.042 742.296 369.624C739.133 371.207 737.846 374.372 733.444 374.372C733.444 374.372 736.219 374.791 739.288 370.943C746.28 362.192 751.163 364.116 754.791 359.042C754.791 359.353 754.868 359.663 754.899 359.989C755.209 362.999 755.209 365.73 753.984 367.002Z" fill="#F3877C"/>
<path d="M737.056 362.347C736.152 364.197 734.849 365.824 733.243 367.111C730.514 369.19 727.771 370.54 726.484 371.765C725.817 372.477 725.441 373.412 725.43 374.388H723.151C723.244 373.397 723.608 372.452 724.205 371.657C725.492 370.105 727.864 369.159 730.824 367.297C733.057 365.852 735.144 364.195 737.056 362.347Z" fill="#EE6066"/>
<path d="M729.134 371.75C730.132 371.702 731.132 371.78 732.111 371.983C732.667 372.1 733.247 372.023 733.754 371.765C734.067 371.647 734.349 371.46 734.579 371.219C734.81 370.977 734.984 370.687 735.087 370.369C735.087 368.817 732.312 368.46 728.886 371.191C728.826 371.232 728.782 371.293 728.762 371.363C728.741 371.433 728.747 371.508 728.776 371.575C728.806 371.641 728.858 371.696 728.924 371.728C728.989 371.76 729.064 371.768 729.134 371.75Z" fill="#FFC5BB"/>
<path d="M726.607 367.328C724.205 369.515 720.546 371.455 719.414 372.541C718.839 372.974 718.455 373.614 718.345 374.325H716.98C717.057 373.778 717.248 373.253 717.542 372.785C717.836 372.317 718.226 371.916 718.686 371.61C720.453 370.493 723.352 369.065 726.607 367.328Z" fill="#EE6066"/>
<path d="M720.685 367.328C718.298 369.515 714.639 371.455 713.492 372.541C712.923 372.979 712.54 373.617 712.422 374.325H711.058C711.138 373.777 711.333 373.252 711.629 372.784C711.926 372.316 712.317 371.916 712.779 371.61C714.531 370.493 717.43 369.065 720.685 367.328Z" fill="#EE6066"/>
<path d="M715.57 367.328C713.167 369.515 709.509 371.455 708.362 372.541C707.798 372.984 707.417 373.619 707.292 374.325H705.943C706.02 373.778 706.211 373.253 706.505 372.785C706.799 372.317 707.189 371.916 707.649 371.61C709.4 370.493 712.315 369.065 715.57 367.328Z" fill="#EE6066"/>
<path d="M720.221 372.944C721.055 372.736 721.928 372.736 722.763 372.944C722.763 372.944 723.864 371.765 723.647 371.393C723.43 371.02 721.507 370.927 720.221 372.944Z" fill="#FFC5BB"/>
<path d="M714.082 372.944C714.916 372.736 715.789 372.736 716.624 372.944C716.624 372.944 717.709 371.765 717.492 371.393C717.275 371.02 715.368 370.927 714.082 372.944Z" fill="#FFC5BB"/>
<path d="M708.78 372.945C709.503 372.768 710.258 372.768 710.981 372.945C710.981 372.945 711.927 371.921 711.741 371.595C711.555 371.269 709.896 371.191 708.78 372.945Z" fill="#FFC5BB"/>
<path d="M703.757 372.975C704.486 372.801 705.245 372.801 705.974 372.975C705.974 372.975 706.92 371.967 706.734 371.625C706.548 371.284 704.889 371.237 703.757 372.975Z" fill="#FFC5BB"/>
<path d="M714.221 223.82C711.621 207.855 711.059 191.625 712.547 175.518L713.818 175.673C712.341 191.666 712.898 207.781 715.477 223.633L714.221 223.82Z" fill="#F3877C"/>
<path d="M727.956 253.285C726.297 255.348 729.661 269.313 734.25 268.227C739.474 267.373 743.474 256.031 741.474 253.455C739.707 251.237 730.561 250.011 727.956 253.285Z" fill="#F3877C"/>
<path d="M768.339 358.996C768.556 357.149 768.882 355.256 769.192 353.518C769.192 353.363 769.192 353.208 769.27 353.053V263.261C768.634 247.621 763.596 205.945 763.596 205.945C764.619 190.429 784.26 167.807 809.451 171.329C812.707 192.493 809.963 220.577 804.956 241.151C803.39 247.477 803.529 254.105 805.359 260.36C816.21 296.807 798.026 310.57 793.934 347.11C793.985 349.916 794.753 352.662 796.166 355.086C797 356.494 798.046 357.766 799.266 358.856C801.638 360.982 803.7 361.866 808.971 365.062C814.242 368.259 820.319 370.85 820.319 373.208C820.319 373.208 820.226 374.294 818.768 374.294H789.748C785.345 374.294 784.183 371.191 780.912 369.547C777.641 367.902 772.37 370.307 769.223 366.924C768.06 365.699 767.952 362.968 768.231 359.911C768.262 359.616 768.308 359.244 768.339 358.996Z" fill="#F6AA99"/>
<path d="M769.161 367.002C772.261 370.385 777.687 368.042 780.85 369.624C784.012 371.207 785.283 374.372 789.686 374.372C789.686 374.372 786.911 374.791 783.842 370.943C776.85 362.192 771.967 364.116 768.339 359.042C768.339 359.353 768.262 359.663 768.231 359.989C767.952 362.999 768.06 365.73 769.161 367.002Z" fill="#F3877C"/>
<path d="M786.214 362.347C787.131 364.189 788.431 365.813 790.027 367.111C792.756 369.19 795.5 370.54 796.786 371.765C797.457 372.476 797.838 373.411 797.856 374.388H800.135C799.991 373.433 799.607 372.531 799.019 371.765C797.732 370.214 795.36 369.267 792.384 367.405C790.168 365.923 788.102 364.229 786.214 362.347Z" fill="#EE6066"/>
<path d="M794.058 371.75C793.06 371.703 792.06 371.781 791.082 371.983C790.525 372.098 789.946 372.022 789.438 371.765C788.865 371.471 788.214 371.005 788.121 370.369C788.121 368.817 790.896 368.46 794.322 371.191C794.388 371.231 794.437 371.294 794.459 371.367C794.482 371.441 794.476 371.521 794.443 371.59C794.41 371.66 794.352 371.715 794.281 371.744C794.21 371.774 794.131 371.776 794.058 371.75Z" fill="#FFC5BB"/>
<path d="M796.584 367.328C798.987 369.515 802.646 371.455 803.793 372.541C804.357 372.984 804.737 373.619 804.863 374.325H806.211C806.135 373.778 805.944 373.253 805.65 372.785C805.356 372.317 804.966 371.916 804.506 371.61C802.754 370.493 799.84 369.065 796.584 367.328Z" fill="#EE6066"/>
<path d="M802.507 367.328C804.91 369.515 808.568 371.455 809.7 372.541C810.275 372.974 810.659 373.614 810.77 374.325H812.134C812.055 373.779 811.862 373.255 811.568 372.787C811.275 372.319 810.886 371.918 810.428 371.61C808.661 370.493 805.762 369.065 802.507 367.328Z" fill="#EE6066"/>
<path d="M807.638 367.328C810.025 369.515 813.684 371.455 814.831 372.541C815.4 372.979 815.782 373.617 815.9 374.325H817.218C817.138 373.777 816.943 373.252 816.647 372.784C816.35 372.316 815.959 371.916 815.497 371.61C813.792 370.493 810.893 369.065 807.638 367.328Z" fill="#EE6066"/>
<path d="M802.972 372.944C802.137 372.736 801.264 372.736 800.43 372.944C800.43 372.944 799.344 371.765 799.561 371.393C799.778 371.02 801.716 370.927 802.972 372.944Z" fill="#FFC5BB"/>
<path d="M809.126 372.944C808.286 372.736 807.408 372.736 806.568 372.944C806.568 372.944 805.483 371.765 805.7 371.393C805.917 371.02 807.824 370.927 809.126 372.944Z" fill="#FFC5BB"/>
<path d="M814.412 372.945C813.689 372.768 812.934 372.768 812.211 372.945C812.211 372.945 811.265 371.921 811.451 371.595C811.637 371.269 813.296 371.191 814.412 372.945Z" fill="#FFC5BB"/>
<path d="M819.435 372.975C818.712 372.799 817.957 372.799 817.234 372.975C817.234 372.975 816.288 371.967 816.474 371.625C816.66 371.284 818.319 371.237 819.435 372.975Z" fill="#FFC5BB"/>
<path d="M808.987 223.82C811.582 207.855 812.14 191.624 810.645 175.518L809.39 175.673C810.854 191.667 810.291 207.781 807.715 223.633L808.987 223.82Z" fill="#F3877C"/>
<path d="M795.251 253.285C796.895 255.348 793.531 269.313 788.942 268.227C783.718 267.373 779.641 256.031 781.718 253.455C783.439 251.237 792.632 250.011 795.251 253.285Z" fill="#F3877C"/>
<path d="M808.537 223.82L807.266 223.633C809.841 207.781 810.404 191.667 808.94 175.673L810.211 175.518C811.691 191.625 811.129 207.854 808.537 223.82Z" fill="#F3877C"/>
<path d="M808.18 158.248C789.857 166.254 774.308 171.763 765.503 174.68L761.627 175.952L757.752 174.68C748.946 171.763 733.397 166.254 715.074 158.248C715.8 148.358 717.887 138.615 721.275 129.295C722.825 125.013 723.941 122.359 723.941 122.359L757.783 116.696L761.658 116.044L765.534 116.696L799.36 122.359C799.36 122.359 800.445 125.013 801.856 129.295C805.021 138.684 807.142 148.394 808.18 158.248Z" fill="#F6AA99"/>
<path d="M762.805 140.56C762.805 140.56 760.356 145.649 762.542 149.746C765.503 146.363 762.805 140.56 762.805 140.56Z" fill="#EE6066"/>
<path d="M801.824 129.295H721.212C722.763 125.013 723.879 122.359 723.879 122.359L757.72 116.696L761.596 116.044L765.471 116.696L799.297 122.359C799.297 122.359 800.414 124.951 801.824 129.295Z" fill="#F3877C"/>
<path d="M716.453 158.28H715.167C715.886 148.328 717.973 138.522 721.367 129.14C722.918 124.889 724.049 122.189 724.049 122.158L725.227 122.686C725.227 122.686 724.034 125.37 722.561 129.575C719.211 138.815 717.156 148.475 716.453 158.28Z" fill="#F3877C"/>
<path d="M806.832 158.28C806.123 148.454 804.062 138.774 800.708 129.513C799.158 125.293 798.057 122.639 798.042 122.624L799.22 122.096C799.22 122.096 800.414 124.827 801.902 129.078C805.297 138.46 807.383 148.266 808.103 158.218L806.832 158.28Z" fill="#F3877C"/>
<path d="M714.578 157.535C712.937 163.823 712.083 170.291 712.036 176.79C725.554 180.08 754.403 196.387 759.612 205.93H763.596C763.596 205.93 782.044 182.547 810.801 177.861C809.684 161.802 808.413 157.364 808.413 157.364L714.578 157.535Z" fill="#213555"/>
<path d="M723.91 122.36C723.91 122.36 717.833 104.935 730.824 93.4843C742.113 92.8716 753.367 95.2195 763.472 100.296C775.331 94.0894 787.578 91.9327 795.624 93.4843C798.419 97.6673 800.208 102.441 800.85 107.432C801.493 112.423 800.972 117.495 799.329 122.251C773.068 122.251 723.91 122.36 723.91 122.36Z" fill="#213555"/>
<path d="M730.824 93.4849L731.785 79.5825L740.42 75.269L742.358 96.4019L730.824 93.4849Z" fill="#213555"/>
<path d="M795.623 93.4849L794.647 79.5825L786.012 75.269L784.074 96.4019L795.623 93.4849Z" fill="#213555"/>
<path d="M87.2153 358.359C89.4166 329.313 87.0603 287.87 86.3007 255.286C80.2393 232.322 77.8984 184.192 77.8984 184.192C78.7821 176.744 86.8123 155.192 111.6 157.38L111.709 157.644C115.771 166.953 117.197 179.366 117.135 192.663C117.057 210.29 114.36 229.498 111.771 245.325C115.988 258.327 120.204 271.33 117.848 288.878C115.491 306.427 103.198 327.591 103.539 346.164C103.601 348.107 103.924 350.033 104.5 351.889C105.5 355.246 107.462 358.234 110.143 360.485C115.429 364.876 123.94 369.981 125.645 371.548C126.109 371.875 126.501 372.293 126.799 372.775C127.098 373.258 127.296 373.796 127.382 374.357H101.989C95.292 374.357 97.1678 373.162 94.3464 370.741C92.7961 369.485 89.9592 370.54 87.6029 369.857C85.8046 369.314 85.9286 366.676 86.5487 362.549C86.7502 361.261 87.0603 359.88 87.2153 358.359Z" fill="#F6AA99"/>
<path d="M108.082 373.1H111.043C111.322 373.1 110.919 372.184 109.88 372.076C108.485 371.936 107.787 372.882 108.082 373.1Z" fill="#FFC5BB"/>
<path d="M113.849 373.1H116.81C117.105 373.1 116.686 372.184 115.663 372.076C114.268 371.936 113.57 372.882 113.849 373.1Z" fill="#FFC5BB"/>
<path d="M118.996 373.1H121.957C122.251 373.1 121.833 372.339 120.81 372.262C119.414 372.138 118.701 372.914 118.996 373.1Z" fill="#FFC5BB"/>
<path d="M123.801 373.1H126.498C126.762 373.1 126.39 372.339 125.46 372.262C124.173 372.138 123.537 372.914 123.801 373.1Z" fill="#FFC5BB"/>
<path d="M87.603 369.826C89.9593 370.509 92.7807 369.562 94.3465 370.711C91.1065 367.266 90.9515 363.216 86.5953 362.518C85.9287 366.645 85.8047 369.283 87.603 369.826Z" fill="#F3877C"/>
<path d="M100.827 365.156C100.539 365.118 100.247 365.173 99.9935 365.313C99.7395 365.452 99.5365 365.669 99.4138 365.932C99.2912 366.194 99.2554 366.489 99.3115 366.774C99.3676 367.058 99.5127 367.318 99.7259 367.514L99.8654 367.623C101.759 368.967 103.542 370.462 105.198 372.091C105.699 372.733 105.992 373.513 106.035 374.326H107.958C107.897 373.654 107.674 373.007 107.31 372.44C106.946 371.872 106.45 371.402 105.865 371.067C104.392 369.966 100.547 367.498 100.067 366.412C99.7569 365.699 100.827 365.218 100.827 365.218V365.156Z" fill="#EE6066"/>
<path d="M103.493 372.448H98.4862C98.37 372.253 98.308 372.031 98.3067 371.804C98.3053 371.577 98.3646 371.354 98.4785 371.157C98.5924 370.961 98.7566 370.799 98.9542 370.688C99.1519 370.576 99.3756 370.52 99.6023 370.524C100.374 370.327 101.19 370.413 101.904 370.765C102.617 371.118 103.181 371.715 103.493 372.448Z" fill="#FFC5BB"/>
<path d="M103.989 366.381C103.989 366.381 103.989 367.84 107.353 369.872C109.896 371.424 112.19 372.976 112.531 374.326H114.624C113.706 373.006 112.53 371.887 111.167 371.036C108.5 369.252 104.966 368.088 103.989 366.381Z" fill="#EE6066"/>
<path d="M111.291 368.166C112.082 368.895 115.446 371.269 116.717 372.277C117.384 372.801 117.876 373.515 118.128 374.325H119.445C118.856 371.812 114.965 370.105 111.291 368.166Z" fill="#EE6066"/>
<path d="M116.112 368.166C116.887 368.895 120.267 371.269 121.538 372.277C122.2 372.806 122.691 373.518 122.949 374.325H124.267C123.677 371.812 119.74 370.105 116.112 368.166Z" fill="#EE6066"/>
<path d="M95.1683 183.447C95.8039 187.652 101.788 193.811 109.244 194.463C112.01 194.732 114.786 194.071 117.135 192.586C117.135 179.319 115.771 166.938 111.709 157.566C107.849 158.109 103.323 159.319 100.982 161.91C96.6255 166.845 94.5172 179.257 95.1683 183.447Z" fill="#F3877C"/>
<path d="M105.865 246.318C107.524 248.381 104.16 262.346 99.5714 261.275C94.3471 260.406 90.3476 249.064 92.3474 246.488C94.0681 244.27 103.261 243.059 105.865 246.318Z" fill="#F3877C"/>
<path d="M82.5655 4.39149C82.2555 4.39149 78.783 -1.93907 68.753 0.605565C61.6839 2.38991 56.8472 7.82054 54.8009 17.4095C53.5297 23.3366 53.8243 36.6184 52.8941 40.156C51.964 43.6937 49.6542 44.9505 48.724 47.9141C47.7939 50.8776 50.3828 52.1965 48.414 54.2757C46.4452 56.3548 43.6238 57.0996 43.4068 61.6768C43.3136 62.9388 43.614 64.1987 44.2665 65.2825C44.919 66.3664 45.8915 67.2209 47.0498 67.7281H104.408C104.408 67.7281 106.904 61.5217 105.664 58.6512C104.424 55.7807 101.804 56.6807 101.602 53.9964C101.401 51.3121 102.532 50.2415 101.385 47.7899C100.238 45.3384 97.9128 46.0987 97.2462 43.492C96.5796 40.8853 97.5252 22.4832 95.789 14.508C94.2387 7.30851 88.0068 3.15021 82.5655 4.39149Z" fill="#142033"/>
<path d="M109.059 139.738C109.059 139.738 98.2073 146.146 77.7443 147.232C64.8931 147.713 52.0997 145.278 40.3218 140.11L41.593 120.451L42.3681 108.488L106.842 107.387L107.726 120.451L109.059 139.738Z" fill="#F6AA99"/>
<path d="M107.726 120.451H41.5928L42.3679 108.473L106.842 107.387L107.726 120.451Z" fill="#F3877C"/>
<path d="M75.1553 124.563C75.1553 124.563 72.6904 129.652 74.8762 133.749C77.8527 130.35 75.1553 124.563 75.1553 124.563Z" fill="#EE6066"/>
<path d="M63.4818 358.359C61.2805 329.313 63.6524 287.931 64.3965 255.208C70.4579 232.244 72.7987 184.113 72.7987 184.113C71.9151 176.666 63.8849 155.114 39.0968 157.302L39.0037 157.534C34.9266 166.844 33.5159 179.257 33.5779 192.554C33.5779 210.18 36.3528 229.389 38.9417 245.216C34.7251 258.218 30.5085 271.221 32.8648 288.769C35.2212 306.318 47.5145 327.482 47.1734 346.055C47.1121 347.998 46.7888 349.924 46.2123 351.78C45.2138 355.15 43.2458 358.15 40.554 360.407C35.2677 364.798 26.7569 369.903 25.0517 371.47C24.5885 371.797 24.196 372.215 23.8977 372.697C23.5994 373.18 23.4013 373.718 23.3154 374.278H48.7082C55.4051 374.278 53.5294 373.084 56.3508 370.663C57.901 369.406 60.7379 370.461 63.0943 369.779C64.8925 369.236 64.7685 366.598 64.1484 362.471C63.9469 361.26 63.5904 359.879 63.4818 358.359Z" fill="#F6AA99"/>
<path d="M42.6158 373.1H39.6549C39.3758 373.1 39.7789 372.184 40.8175 372.076C42.2127 371.936 42.9103 372.882 42.6158 373.1Z" fill="#FFC5BB"/>
<path d="M36.8486 373.1H33.8876C33.5931 373.1 34.0116 372.184 35.0348 372.076C36.43 371.936 37.1276 372.882 36.8486 373.1Z" fill="#FFC5BB"/>
<path d="M31.7026 373.1H28.7416C28.4471 373.1 28.8657 372.339 29.8888 372.262C31.253 372.138 31.9816 372.914 31.7026 373.1Z" fill="#FFC5BB"/>
<path d="M26.8963 373.1H24.1989C23.9353 373.1 24.3074 372.339 25.2375 372.262C26.6017 372.138 27.1598 372.914 26.8963 373.1Z" fill="#FFC5BB"/>
<path d="M63.0941 369.826C60.7377 370.509 57.9163 369.562 56.3506 370.711C59.5906 367.266 59.7456 363.216 64.1017 362.518C64.7683 366.645 64.8923 369.283 63.0941 369.826Z" fill="#F3877C"/>
<path d="M49.8553 365.156C50.1426 365.118 50.4344 365.173 50.6884 365.313C50.9423 365.452 51.1454 365.669 51.268 365.932C51.3906 366.194 51.4264 366.489 51.3703 366.774C51.3142 367.058 51.1691 367.318 50.956 367.514L50.8164 367.623C48.9226 368.967 47.1394 370.462 45.4837 372.091C44.9751 372.728 44.682 373.511 44.6465 374.326H42.7397C42.8008 373.654 43.0229 373.007 43.3873 372.44C43.7517 371.872 44.2474 371.402 44.8326 371.067C46.3828 369.966 50.1498 367.498 50.6304 366.412C50.9405 365.699 49.8708 365.218 49.8708 365.218L49.8553 365.156Z" fill="#EE6066"/>
<path d="M47.2046 372.448H52.2118C52.328 372.253 52.39 372.031 52.3913 371.804C52.3927 371.577 52.3334 371.353 52.2195 371.157C52.1056 370.961 51.9414 370.799 51.7438 370.687C51.5462 370.576 51.3224 370.52 51.0957 370.524C49.2354 370.245 47.4371 371.176 47.2046 372.448Z" fill="#FFC5BB"/>
<path d="M46.7548 366.381C46.7548 366.381 46.7548 367.84 43.3908 369.872C40.8484 371.424 38.5541 372.976 38.213 374.326H36.0737C36.9884 373.009 38.1589 371.89 39.5152 371.036C42.1971 369.252 45.7317 368.088 46.7548 366.381Z" fill="#EE6066"/>
<path d="M39.4066 368.166C38.616 368.895 35.252 371.269 33.9653 372.277C33.3008 372.8 32.8136 373.515 32.5701 374.325H31.2524C31.8415 371.812 35.7791 370.105 39.4066 368.166Z" fill="#EE6066"/>
<path d="M34.5855 368.166C33.8104 368.895 30.4309 371.269 29.1597 372.277C28.498 372.806 28.0072 373.518 27.749 374.325H26.4468C27.0204 371.812 30.9579 370.105 34.5855 368.166Z" fill="#EE6066"/>
<path d="M55.5292 183.447C54.8936 187.652 48.8943 193.811 41.4532 194.448C38.6888 194.729 35.9101 194.074 33.5625 192.586C33.5625 179.319 34.9112 166.938 38.9883 157.566C42.8484 158.109 47.375 159.319 49.7159 161.91C54.072 166.845 56.1803 179.257 55.5292 183.447Z" fill="#F3877C"/>
<path d="M44.8326 246.318C43.1739 248.381 46.5379 262.346 51.1265 261.275C56.3508 260.406 60.4279 249.064 58.3506 246.488C56.6299 244.27 47.437 243.059 44.8326 246.318Z" fill="#F3877C"/>
<path d="M39.4994 138.45L110.112 138.776L114.158 162.05C114.158 162.05 89.6338 167.635 77.8986 184.191H72.7983C72.7983 184.191 57.9781 164.408 37.1431 163.617C38.2127 144.237 39.4994 138.45 39.4994 138.45Z" fill="#213555"/>
<path d="M97.3386 57.875C97.3386 57.875 110.438 61.8161 116.205 69.5431C121.972 77.2701 145.799 103.492 148.419 122.499C147.768 132.988 129.304 160.374 119.212 172.958C109.523 165.495 108.872 165.091 108.872 165.091L123.661 122.236C111.616 102.313 106.407 94.2137 106.407 94.2137C106.407 94.2137 97.6021 90.2571 95.6489 83.3524C93.6956 76.4478 94.8117 58.4025 97.3386 57.875Z" fill="#F6AA99"/>
<path d="M111.508 162.95C107.933 163.646 104.434 164.686 101.059 166.053C99.1214 167.202 97.3232 174.23 96.579 175.254C95.8349 176.278 93.9902 177.628 94.1762 178.466C94.3622 179.304 96.362 179.32 98.0208 178.187C99.6795 177.054 113.166 168.008 111.508 162.95Z" fill="#EE6066"/>
<path d="M94.8124 184.704C95.3549 185.433 95.789 185.899 97.1842 184.3C98.0523 183.307 100.006 179.646 101.695 176.899C102.325 175.888 103.243 175.088 104.331 174.603C104.411 174.563 104.502 174.551 104.589 174.569C104.677 174.586 104.756 174.632 104.814 174.7C104.873 174.767 104.907 174.852 104.912 174.941C104.917 175.031 104.893 175.119 104.842 175.193C102.548 179.087 98.967 185.868 99.122 186.333C99.3855 187.062 100.564 187.186 101.54 186.24C102.129 185.681 105.214 181.585 107.23 178.854C107.311 178.743 107.426 178.661 107.558 178.621C107.69 178.581 107.831 178.585 107.961 178.632C108.09 178.679 108.201 178.768 108.276 178.883C108.351 178.999 108.386 179.136 108.377 179.273C108.391 179.392 108.391 179.512 108.377 179.63C108.067 180.918 103.137 189.483 103.866 190.15C106.114 192.229 109.431 185.697 110.873 183.338C111.392 182.143 112.177 181.082 113.167 180.235C113.235 180.176 113.321 180.144 113.41 180.144C113.5 180.143 113.586 180.175 113.654 180.234C113.722 180.292 113.766 180.373 113.78 180.462C113.793 180.55 113.773 180.641 113.725 180.716C111.989 184.192 108.206 190.119 108.842 190.647C110.051 191.624 111.942 189.638 114.438 186.085C116.849 182.576 118.827 178.789 120.329 174.805C121.005 173.023 121.043 171.062 120.439 169.254C119.834 167.447 118.623 165.905 117.012 164.89C115.335 163.853 113.461 163.176 111.508 162.904C105.989 163.199 100.657 170.305 100.006 171.608C98.3779 174.789 94.3938 183.509 94.8124 184.704Z" fill="#F6AA99"/>
<path d="M51.08 57.2231C51.08 57.2231 37.9806 61.1642 32.2137 68.8912C26.4469 76.6182 2.61989 102.84 0 121.848C0.651096 132.336 19.1143 159.722 29.2063 172.306C38.8952 164.843 39.5463 164.439 39.5463 164.439L24.7571 121.584C36.8024 101.661 42.0112 93.5618 42.0112 93.5618C42.0112 93.5618 50.8165 89.6052 52.7698 82.7005C54.7231 75.7959 53.5604 57.7507 51.08 57.2231Z" fill="#F6AA99"/>
<path d="M36.9111 162.888C40.4854 163.584 43.9844 164.623 47.3596 165.991C51.3437 168.349 49.0338 171.406 51.8397 175.192C52.5994 176.2 54.4286 177.566 54.2426 178.404C54.0566 179.242 52.0568 179.257 50.398 178.124C48.7393 176.992 35.2523 167.93 36.9111 162.888Z" fill="#EE6066"/>
<path d="M53.6378 184.642C53.0952 185.371 52.6611 185.836 51.2659 184.238C50.3978 183.245 48.4445 179.583 46.7548 176.837C46.1073 175.844 45.1791 175.066 44.0884 174.603C44.0084 174.563 43.9176 174.551 43.8301 174.568C43.7426 174.586 43.6633 174.632 43.6048 174.699C43.5463 174.767 43.5118 174.852 43.5067 174.941C43.5016 175.03 43.5263 175.119 43.5768 175.192C45.8711 179.071 49.4522 185.867 49.2971 186.333C49.0336 187.062 47.8554 187.186 46.8788 186.24C46.2897 185.681 43.2048 181.585 41.1895 178.839C41.1076 178.726 40.9908 178.643 40.8572 178.603C40.7235 178.563 40.5805 178.568 40.45 178.617C40.3196 178.667 40.209 178.757 40.1353 178.876C40.0616 178.995 40.0289 179.134 40.0423 179.273C40.0286 179.392 40.0286 179.511 40.0423 179.63C40.3523 180.918 45.2821 189.483 44.5535 190.15C42.3056 192.229 38.9881 185.697 37.5464 183.338C36.8606 181.837 35.9337 180.459 34.8025 179.258C34.7326 179.215 34.6512 179.196 34.5698 179.203C34.4884 179.21 34.4113 179.242 34.3494 179.296C34.2876 179.349 34.2441 179.421 34.2252 179.5C34.2064 179.58 34.2131 179.663 34.2444 179.738C35.9962 183.214 40.2128 190.057 39.5772 190.6C38.368 191.577 36.4768 189.591 33.9809 186.038C31.5703 182.529 29.5923 178.742 28.09 174.758C27.4164 172.973 27.3785 171.011 27.9829 169.202C28.5873 167.393 29.7969 165.848 31.4075 164.828C33.0885 163.802 34.9613 163.131 36.9108 162.857C39.7167 162.19 47.7624 170.258 48.4135 171.562C50.0413 174.727 54.0253 183.447 53.6378 184.642Z" fill="#F6AA99"/>
<path d="M95.1529 82.1892C95.1529 82.1892 79.6506 90.9712 74.3644 91.1264C69.0781 91.2816 53.6533 83.7252 53.6533 83.7252C53.6533 83.7252 54.0564 71.1262 55.9167 55.6877C59.8232 54.1361 64.2104 52.0259 65.5901 50.3191C66.2877 49.4347 66.5822 46.6729 66.6907 44.1127C66.7993 41.5526 66.6907 39.582 66.6907 39.582L82.8596 39.0234C82.8596 39.0234 82.7666 42.0025 82.9991 45.0747C83.1852 47.6504 83.6037 50.2881 84.5494 51.2811C86.5027 53.4689 93.6492 55.9359 93.6492 55.9359L95.1529 82.1892Z" fill="#F6AA99"/>
<path d="M76.2092 89.1559C76.1285 84.788 75.7712 80.4296 75.1395 76.1069C74.4973 80.4254 74.2276 84.7912 74.3334 89.1559H76.2092Z" fill="#EE6066"/>
<path d="M83.0298 45.1519C80.751 47.4017 77.8211 49.6205 75.1237 49.6205C71.3411 49.6205 68.2252 46.2535 66.6904 44.1899C66.7834 41.8004 66.6904 39.6592 66.6904 39.6592L82.8593 39.1006C82.8593 39.1006 82.7973 42.0797 83.0298 45.1519Z" fill="#EE6066"/>
<path d="M61.4819 58.1078C65.7441 59.4933 70.1799 60.2716 74.6589 60.4197C79.2054 60.2008 83.6962 59.3228 87.9908 57.813L61.4819 58.1078Z" fill="#F3877C"/>
<path d="M58.2263 53.8096V58.4644C58.1406 63.7033 59.4603 68.8692 62.0478 73.424C64.6353 77.9787 68.396 81.7555 72.938 84.3607C73.6356 84.7486 74.2712 85.152 74.8448 85.5244C74.9555 85.5965 75.0847 85.6349 75.2168 85.6349C75.3489 85.6349 75.4782 85.5965 75.5889 85.5244C80.1156 82.8725 83.8458 79.0501 86.3879 74.4581C88.9301 69.8661 90.1905 64.6739 90.037 59.4264L89.8665 53.8716L98.5323 57.5179C98.5323 57.5179 97.7881 82.4522 106.485 94.1358L109.012 114.71H40.8018L42.0419 94.0117C42.0419 94.0117 49.173 86.5175 49.5916 57.3162C53.6221 56.0439 58.2263 53.8096 58.2263 53.8096Z" fill="#213555"/>
<path d="M62.8461 27.4324C62.6756 27.3082 60.3347 22.4052 57.6063 22.281C54.8779 22.1569 55.2655 26.3307 55.777 27.5099C56.2886 28.6892 57.3273 32.0406 60.3347 32.9251C61.5585 32.8363 62.7015 32.2809 63.5282 31.3735L62.8461 27.4324Z" fill="#F6AA99"/>
<path d="M57.0017 26.8583C57.0017 26.7031 55.9786 24.2361 57.4513 23.8482C58.924 23.4603 61.4044 27.0911 62.5825 28.3013C61.5284 28.3013 60.1177 27.9444 60.1487 28.953C60.1797 29.9615 61.7919 31.0942 63.2491 31.0321C61.8539 31.6993 61.2959 32.1493 60.2727 31.901C59.2496 31.6528 58.1954 30.0391 58.1954 30.0391C58.5514 30.47 59.0122 30.802 59.5335 31.0031C60.0548 31.2042 60.619 31.2676 61.1718 31.1873C59.5131 30.3184 58.2574 28.3634 59.4356 27.8513C59.7814 27.705 60.153 27.6295 60.5285 27.6295C60.904 27.6295 61.2756 27.705 61.6214 27.8513C61.6214 27.8513 59.7301 25.4774 58.521 25.1981C57.3118 24.9188 57.0017 26.8583 57.0017 26.8583Z" fill="#F3877C"/>
<path d="M59.622 27.0755C59.622 27.0755 58.6144 27.0755 58.3973 27.6341C58.2899 27.9749 58.2592 28.3353 58.3074 28.6894C58.3557 29.0436 58.4817 29.3826 58.6764 29.6822C57.1106 28.3168 57.1726 26.2531 59.622 27.0755Z" fill="#F3877C"/>
<path d="M87.4018 27.4324C87.5724 27.3082 89.9132 22.4052 92.6416 22.281C95.37 22.1569 94.9824 26.3307 94.4709 27.5099C93.9593 28.6892 92.9206 32.0406 89.9132 32.9251C88.6895 32.8363 87.5464 32.2809 86.7197 31.3735L87.4018 27.4324Z" fill="#F6AA99"/>
<path d="M93.2621 26.8583C93.2621 26.7031 94.2852 24.2361 92.8125 23.8482C91.3398 23.4603 88.8749 27.0911 87.6812 28.3013C88.7509 28.3013 90.1616 27.9444 90.1151 28.953C90.0686 29.9615 88.5649 31.0942 87.0146 31.0321C88.4254 31.6993 88.9679 32.1493 89.9911 31.901C91.0142 31.6528 92.0839 30.0391 92.0839 30.0391C91.7255 30.4713 91.262 30.8039 90.738 31.005C90.214 31.2061 89.6472 31.2689 89.0919 31.1873C90.7662 30.3184 92.0219 28.3634 90.8282 27.8513C90.4822 27.7058 90.1106 27.6309 89.7353 27.6309C89.36 27.6309 88.9884 27.7058 88.6424 27.8513C88.6424 27.8513 90.5337 25.4774 91.7428 25.1981C92.952 24.9188 93.2621 26.8583 93.2621 26.8583Z" fill="#F3877C"/>
<path d="M90.6108 27.0755C90.6108 27.0755 91.6185 27.0755 91.8355 27.6341C91.9463 27.9744 91.9787 28.3354 91.9304 28.6901C91.8821 29.0448 91.7543 29.3839 91.5565 29.6822C93.1222 28.3168 93.0602 26.2531 90.6108 27.0755Z" fill="#F3877C"/>
<path d="M61.3892 22.7464C61.3892 22.7464 61.4977 31.544 62.9394 35.7799C64.2261 39.7675 68.2257 43.5379 73.946 45.1981C74.6807 45.4073 75.4591 45.4073 76.1938 45.1981C78.5486 44.5705 80.7388 43.4377 82.6126 41.8784C84.4864 40.319 85.999 38.3705 87.0454 36.1678C88.2237 31.752 88.8537 27.2078 88.9212 22.6378C86.7509 19.1777 79.8524 16.9123 79.4648 13.3281C76.969 16.2451 61.6837 16.633 61.3892 22.7464Z" fill="#F6AA99"/>
<path d="M77.0771 24.6706C78.4359 24.1384 79.8357 23.7181 81.2628 23.4137C82.7255 23.1933 84.2018 23.0741 85.6809 23.0569C84.4987 22.4646 83.2039 22.1313 81.8829 22.0794C80.437 22.0573 79.002 22.3319 77.6662 22.8862C77.4066 23.4581 77.2091 24.0564 77.0771 24.6706Z" fill="#321E41"/>
<path d="M77.9609 26.5017C78.5522 25.8123 79.3433 25.3242 80.2243 25.1052C81.4458 24.8065 82.71 24.7224 83.9603 24.857C82.9777 24.4613 81.9133 24.3122 80.8599 24.4225C80.2275 24.4512 79.617 24.6628 79.1024 25.0319C78.5878 25.401 78.1913 25.9115 77.9609 26.5017Z" fill="#F3877C"/>
<path d="M77.8677 28.9685C78.1669 28.9888 78.4631 29.0408 78.7513 29.1236C79.8552 29.5068 81.0486 29.5501 82.1773 29.2478C82.8397 29.0087 83.4452 28.6341 83.955 28.1479C84.4647 27.6617 84.8677 27.0746 85.1382 26.4238C81.8363 27.1996 78.3948 28.1927 77.8677 28.9685Z" fill="#F3877C"/>
<path d="M85.1382 26.4239C84.2375 27.5635 82.9919 28.3802 81.5882 28.7513C80.6691 28.8986 79.7324 28.8986 78.8133 28.7513C78.5154 28.7259 78.216 28.7794 77.9452 28.9065H77.8677C77.8909 28.5896 77.9534 28.2769 78.0537 27.9755C78.2286 27.3883 78.5485 26.8546 78.9838 26.4239C79.3726 26.07 79.8404 25.8146 80.348 25.6791C81.3107 25.4449 82.3153 25.4449 83.278 25.6791C83.9276 25.8458 84.553 26.0961 85.1382 26.4239Z" fill="white"/>
<path d="M81.7438 28.3013C81.4484 28.3722 81.1419 28.3834 80.8422 28.334C80.5424 28.2846 80.2556 28.1758 79.9985 28.0139C79.7414 27.852 79.5193 27.6403 79.3451 27.3912C79.171 27.1421 79.0483 26.8607 78.9844 26.5635C79.3731 26.2097 79.8409 25.9543 80.3486 25.8188C81.3112 25.5845 82.3159 25.5845 83.2785 25.8188C83.3877 26.3505 83.2896 26.9038 83.0043 27.3654C82.7189 27.827 82.2679 28.1619 81.7438 28.3013Z" fill="#321E41"/>
<path d="M80.7666 25.3532C79.9489 25.5442 79.2188 26.0042 78.6932 26.6597C78.1676 27.3151 77.8769 28.1281 77.8677 28.9685C78.0448 28.2315 78.4322 27.5619 78.9827 27.0412C79.5331 26.5206 80.2229 26.1713 80.9681 26.0359C82.3732 25.702 83.8489 25.8383 85.1692 26.4238L86.1459 25.5704C84.3926 25.0895 82.5529 25.0152 80.7666 25.3532Z" fill="#321E41"/>
<path d="M83.9602 26.8429C83.9602 26.424 82.0225 26.4705 82.0845 26.8429C82.1465 27.2153 83.9602 27.1998 83.9602 26.8429Z" fill="white"/>
<path d="M72.8142 24.6706C71.4602 24.1399 70.0657 23.7196 68.6441 23.4137C67.1762 23.1931 65.6948 23.0738 64.2104 23.0569C65.3974 22.4624 66.6977 22.1291 68.024 22.0794C69.4699 22.0573 70.9049 22.3319 72.2406 22.8862C72.4997 23.457 72.6921 24.0557 72.8142 24.6706Z" fill="#321E41"/>
<path d="M72.3647 29.279C72.0655 29.2994 71.7693 29.3514 71.4811 29.4342C70.3769 29.8165 69.1839 29.8597 68.0551 29.5583C67.3893 29.3219 66.7804 28.9485 66.2678 28.4621C65.7551 27.9757 65.35 27.3871 65.0786 26.7344C68.4581 27.4481 71.8376 28.5032 72.3647 29.279Z" fill="#F3877C"/>
<path d="M65.0786 26.7339C65.9809 27.8687 67.2266 28.6799 68.6286 29.0458C69.5479 29.1919 70.4843 29.1919 71.4035 29.0458C71.7052 29.0136 72.0101 29.0618 72.2872 29.1855C72.2632 28.8724 72.1953 28.5642 72.0856 28.27C71.9133 27.6817 71.593 27.1475 71.1555 26.7184C70.7709 26.3672 70.3088 26.112 69.8068 25.9737C68.8378 25.749 67.8304 25.749 66.8614 25.9737C66.239 26.1551 65.6405 26.4104 65.0786 26.7339Z" fill="white"/>
<path d="M68.4579 28.6275C68.7545 28.7005 69.0627 28.7127 69.364 28.6633C69.6654 28.6139 69.9536 28.504 70.2114 28.3402C70.4693 28.1764 70.6913 27.9621 70.8641 27.7101C71.037 27.4582 71.1571 27.1738 71.2173 26.8742C70.8327 26.523 70.3706 26.2678 69.8686 26.1294C68.8997 25.9048 67.8922 25.9048 66.9232 26.1294C66.821 26.6624 66.9218 27.2145 67.2058 27.6768C67.4899 28.1391 67.9366 28.4783 68.4579 28.6275Z" fill="#321E41"/>
<path d="M71.4033 29.0922C71.705 29.06 72.0099 29.1081 72.2869 29.2318C72.263 28.9188 72.1951 28.6106 72.0854 28.3164C71.9242 28.6265 71.6901 28.8928 71.4033 29.0922Z" fill="#EE6066"/>
<path d="M69.4657 25.6485C70.2835 25.8395 71.0135 26.2995 71.5391 26.9549C72.0647 27.6104 72.3554 28.4234 72.3646 29.2638C72.1875 28.5268 71.8001 27.8572 71.2496 27.3365C70.6992 26.8159 70.0094 26.4666 69.2642 26.3312C67.8583 26.0086 66.3862 26.1445 65.0631 26.7191L64.0864 25.8813C65.8383 25.3941 67.6784 25.3145 69.4657 25.6485Z" fill="#321E41"/>
<path d="M72.2715 26.8117C71.6802 26.1223 70.8892 25.6343 70.0081 25.4153C68.8103 25.1335 67.5745 25.0496 66.3496 25.167C67.3322 24.7714 68.3966 24.6222 69.4501 24.7326C70.0674 24.7811 70.6588 25.0015 71.1574 25.369C71.656 25.7364 72.0419 26.2362 72.2715 26.8117Z" fill="#F3877C"/>
<path d="M69.605 27.852C69.605 27.4331 71.5428 27.4641 71.4808 27.852C71.4187 28.2399 69.6205 28.2709 69.605 27.852Z" fill="white"/>
<path d="M72.1475 31.3733C72.2715 31.4664 74.1938 33.049 75.4029 33.018C76.6121 32.987 78.3949 31.2026 78.3949 31.2026C77.4359 31.5994 76.4384 31.8958 75.4184 32.0871C74.3069 31.9598 73.211 31.7207 72.1475 31.3733Z" fill="#EE6066"/>
<path d="M70.6133 35.4854C72.2052 36.6307 74.1717 37.1297 76.1166 36.8818C77.0167 36.7446 77.8779 36.4196 78.6444 35.9277C79.4109 35.4359 80.0655 34.7883 80.5657 34.0269C77.5519 35.7551 73.9957 36.2762 70.6133 35.4854Z" fill="#EE6066"/>
<path d="M73.6509 38.5418C74.4439 38.7837 75.2814 38.842 76.1002 38.7125C76.8513 38.5837 77.5685 38.3039 78.2086 37.8901C78.0023 38.3015 77.7004 38.6572 77.328 38.9272C76.9557 39.1972 76.524 39.3737 76.0692 39.4417C75.6235 39.4976 75.1709 39.445 74.7499 39.2883C74.3289 39.1317 73.9518 38.8756 73.6509 38.5418Z" fill="#F3877C"/>
<path d="M431.522 365.9L431.026 366.226C427.708 368.522 424.375 370.881 421.027 373.115H411.818L410.625 372.386L391.061 360.299L390.332 359.849L384.751 356.404L383.015 355.334L368.644 346.489L348.491 322.145L346.368 319.569L341.5 313.673L340.523 312.494L334.787 305.573L291.458 253.16L353.716 285.744L357.281 287.606L362.784 290.492L366.49 292.431L369.342 293.983L370.334 294.479L394.611 307.187C399.385 311.842 404.191 316.357 409.028 320.981C416.98 328.599 424.98 336.295 433.025 343.96C433.971 347.839 434.886 351.718 435.847 355.582L435.552 356.296C434.219 359.43 432.886 362.673 431.522 365.9Z" fill="#191919"/>
<path d="M431.522 365.9L431.025 366.226C427.708 368.523 424.375 370.881 421.026 373.115H411.818L410.624 372.386L391.061 360.299L390.332 359.849L384.751 356.405L383.294 355.52L351.328 316.839L349.7 314.852L348.693 313.642L345.22 309.437L342.647 306.334L338.694 301.555L313.224 270.74L350.6 290.306L351.778 290.927L359.281 294.837L361.064 295.768L365.203 297.955L365.513 298.111L408.919 320.857C416.872 328.476 424.871 336.172 432.917 343.836C433.862 347.715 434.777 351.594 435.738 355.458L435.444 356.172C434.219 359.43 432.886 362.673 431.522 365.9Z" fill="#474747"/>
<path d="M427.103 339.74C429.893 341.984 431.954 345.007 433.026 348.426C434.097 351.844 434.13 355.504 433.121 358.942C432.112 362.379 430.106 365.439 427.357 367.734C424.608 370.029 421.24 371.455 417.681 371.832C414.121 372.209 410.53 371.52 407.362 369.851C404.194 368.183 401.593 365.611 399.887 362.461C398.181 359.311 397.449 355.726 397.781 352.158C398.114 348.591 399.498 345.203 401.757 342.424C404.771 338.716 409.128 336.352 413.877 335.85C418.626 335.347 423.381 336.745 427.103 339.74Z" fill="#191919"/>
<path d="M414.407 272.695C387.58 272.695 361.843 283.322 342.82 302.254C323.797 321.187 313.034 346.886 312.882 373.736H319.998C320.256 348.883 330.287 325.132 347.918 307.63C365.549 290.127 389.36 280.282 414.192 280.226C439.025 280.171 462.879 289.911 480.587 307.335C498.295 324.759 508.432 348.465 508.8 373.317H515.916C515.654 346.542 504.845 320.953 485.837 302.111C466.829 283.269 441.159 272.698 414.407 272.695Z" fill="#A9ABAE"/>
<path d="M508.8 373.302H463.487H443.567H422.67H421.274H398.285H388.828H371.962L319.998 373.457C320.033 367.729 320.588 362.016 321.657 356.389C321.998 354.558 322.401 352.743 322.85 350.958C324.233 345.487 326.111 340.153 328.462 335.023C329.346 333.068 330.292 331.144 331.315 329.251C334.224 323.889 337.64 318.818 341.515 314.108C342.678 312.665 343.903 311.253 345.189 309.887C349.94 304.74 355.255 300.144 361.033 296.187C362.784 294.961 364.583 293.828 366.412 292.742C370.135 290.527 374.01 288.578 378.008 286.908C379.775 286.163 381.558 285.481 383.371 284.86C390.65 282.316 398.216 280.69 405.896 280.019C407.912 279.833 409.942 279.709 411.973 279.662H414.407C416.066 279.662 417.709 279.662 419.352 279.786C421.352 279.895 423.352 280.066 425.321 280.298C433.111 281.185 440.758 283.057 448.078 285.869C449.892 286.551 451.69 287.296 453.442 288.103C457.597 289.986 461.608 292.175 465.44 294.651C467.223 295.783 468.944 296.994 470.634 298.266C476.434 302.555 481.715 307.507 486.369 313.022C487.593 314.449 488.756 315.923 489.872 317.428C493.279 321.947 496.267 326.766 498.801 331.827C499.778 333.751 500.693 335.706 501.514 337.708C503.829 343.212 505.605 348.928 506.816 354.775C507.188 356.575 507.514 358.406 507.793 360.253C508.428 364.574 508.764 368.934 508.8 373.302Z" fill="white"/>
<path d="M364.133 319.29C368.236 318.653 372.383 318.347 376.535 318.374C382.364 318.374 385.945 318.964 389.029 320.748C390.568 321.527 391.858 322.722 392.751 324.198C393.644 325.673 394.106 327.37 394.083 329.096C394.083 332.82 391.897 336.326 387.138 338.095V338.266C389.523 338.757 391.665 340.059 393.199 341.951C394.734 343.844 395.566 346.209 395.556 348.646C395.566 350.382 395.173 352.097 394.409 353.656C393.645 355.215 392.531 356.575 391.153 357.63C388.053 360.128 382.953 361.478 374.519 361.478C371.068 361.511 367.618 361.304 364.195 360.857L364.133 319.29ZM373.605 335.504H376.705C381.774 335.504 384.456 333.394 384.456 330.244C384.456 327.094 382.022 325.341 377.697 325.341C376.342 325.298 374.986 325.397 373.651 325.636L373.605 335.504ZM373.605 354.232C374.818 354.384 376.041 354.441 377.263 354.403C381.604 354.403 385.433 352.727 385.433 348.196C385.433 343.665 381.604 342.331 376.953 342.331H373.682L373.605 354.232Z" fill="#17A37C"/>
<path d="M437.769 344.845C437.583 339.725 437.381 333.611 437.412 327.405H437.242C435.893 332.835 434.141 338.84 432.514 343.836L427.336 360.345H419.91L415.353 343.992C413.988 339.011 412.578 332.991 411.524 327.405H411.4C411.198 333.161 410.95 339.709 410.702 344.969L409.911 361.044H401.06L403.772 318.716H416.515L420.639 332.851C421.988 337.707 423.29 343.03 424.235 347.995H424.437C425.584 343.092 427.026 337.506 428.452 332.789L432.948 318.716H445.458L447.721 361.044H438.42L437.769 344.845Z" fill="#17A37C"/>
<path d="M464.681 318.716V361.044H455.116V318.716H464.681Z" fill="#17A37C"/>
</g>
<defs>
<clipPath id="clip0_223_660">
<rect width="829" height="533.039" fill="white"/>
</clipPath>
</defs>
</svg>
